%
M48
M72
T01C0.01181
T02C0.02362
T03C0.02756
T04C0.03150
T05C0.03200
T06C0.03937
T07C0.04000
T08C0.04331
T09C0.04724
T10C0.08268
T11C0.08661
T12C0.09449
T13C0.11800
T14C0.12598
T15C0.13386
%
T01
X173269Y81139
X185106Y88158
X176632Y102983
X185658Y113061
X183734Y116548
X177832Y114783
X191957Y123297
X195501Y123691
X198257Y126841
X195894Y129990
X193139Y127234
X187233Y132746
X201406Y142982
X199044Y145738
X203769Y146132
X210068Y143376
X209280Y139439
X209280Y135108
X221879Y131171
X222272Y127234
X216761Y120541
X204950Y126447
X193926Y145738
X190383Y145344
X180540Y148100
X184871Y152825
X196682Y155974
X206524Y156762
X218729Y148100
X238020Y143376
X238020Y134715
X238020Y126053
X260068Y120935
X282509Y121329
X286446Y122510
X312532Y103183
X320461Y114557
X318893Y117712
X326360Y123147
X328472Y126547
X330146Y129596
X332115Y132352
X339202Y128022
X342351Y129596
X345501Y128415
X341957Y122904
X335658Y127234
X332115Y126447
X332115Y122904
X322272Y135108
X327391Y142195
X331721Y145738
X335658Y145738
X335658Y141801
X342745Y143376
X342745Y139833
X342745Y136289
X355737Y129596
X355737Y122116
X350619Y120935
X350619Y117392
X355737Y116604
X372076Y126250
X371879Y135305
X371879Y144163
X371682Y153415
X354950Y154006
X352194Y148100
X344713Y157943
X316761Y148100
X260068Y176447
X240847Y173397
X251406Y161486
X230277Y161274
X187233Y184715
X185265Y181171
X180934Y188258
X176997Y178415
X129753Y152431
X155343Y149281
X147469Y121722
X143139Y119360
X229753Y88258
X324111Y89178
X333690Y81565
X348257Y88652
X395107Y87864
X339162Y184045
X347469Y190226
X246288Y194951
X88808Y209518
X82312Y210305
X88414Y218573
X72863Y219360
X69713Y216604
X66564Y219360
X63414Y216604
X60265Y219360
X57115Y216604
X50816Y222510
X82312Y239439
X44517Y246132
X41367Y203612
X35068Y203612
X28769Y203612
T02
X47272Y194557
X61839Y200463
X82706Y200463
X101406Y156762
X101406Y149675
X158099Y124478
X171800Y110343
X150306Y91911
X203769Y92195
X219517Y92195
X227391Y92195
X236839Y92195
X286558Y91811
X308233Y109943
X294320Y124478
X316761Y91998
X339202Y92195
X354950Y91998
X363020Y91998
X372272Y91998
X368217Y160856
X365894Y169360
X342745Y166604
X342548Y176329
X315973Y178022
X242395Y161845
X206131Y164636
X191564Y176053
X167351Y169360
T03
X122666Y113652
X122666Y108533
X122666Y103415
X137036Y96132
X137036Y89439
X130934Y89439
T04
X78769Y92982
T05
X246013Y115974
X246013Y125974
X246013Y135974
X246013Y145974
X276013Y145974
X276013Y135974
X276013Y125974
X276013Y115974
X380383Y123455
X380383Y133455
X380383Y143455
X380383Y153455
X410383Y153455
X410383Y143455
X410383Y133455
X410383Y123455
T06
X141013Y126801
X141013Y146486
X118847Y184675
X108847Y184675
X108847Y194675
X118847Y194675
X118847Y204675
X108847Y204675
X108847Y214675
X118847Y214675
X118847Y224675
X108847Y224675
X25894Y177904
X15894Y177904
X15894Y167904
X25894Y167904
X25894Y157904
X15894Y157904
X15894Y147904
X25894Y147904
X25894Y137904
X15894Y137904
X15894Y127904
X25894Y127904
X25894Y117904
X15894Y117904
X15894Y107904
X25894Y107904
X25894Y97904
X15894Y97904
X15894Y87904
X25894Y87904
T07
X47942Y117037
X57942Y117037
X67942Y117037
X77942Y117037
X87942Y117037
X87942Y127037
X77942Y127037
X67942Y127037
X57942Y127037
X47942Y127037
X47942Y147037
X57942Y147037
X67942Y147037
X77942Y147037
X87942Y147037
X87942Y157037
X77942Y157037
X67942Y157037
X57942Y157037
X47942Y157037
X47942Y177037
X57942Y177037
X67942Y177037
X77942Y177037
X87942Y177037
X87942Y187037
X77942Y187037
X67942Y187037
X57942Y187037
X47942Y187037
X138257Y173967
X148257Y173967
X158257Y173967
X158257Y163967
X148257Y163967
X138257Y163967
X271328Y165738
X281328Y165738
X291328Y165738
X291328Y175738
X281328Y175738
X271328Y175738
T08
X102194Y73612
X102194Y63612
X102194Y53612
X102194Y33612
T09
X143532Y44557
X159280Y28809
X175028Y41604
X222272Y44557
X238020Y28809
X253769Y41604
X308887Y44557
X324635Y28809
X340383Y41604
X387627Y44557
X403375Y28809
X419123Y41604
T10
X382706Y240817
X349241Y240817
X315776Y241211
X282312Y241211
X248847Y241211
X215383Y241211
X181918Y241211
X148454Y241211
T11
X165186Y211093
X232115Y211093
X299044Y211093
X365973Y210699
T12
X365973Y228415
X299044Y228809
X232115Y228809
X165186Y228809
T13
X75665Y48494
X60955Y32183
T14
X11643Y28022
X60855Y61005
X11643Y242589
X452981Y242589
X452981Y28022
T15
X432115Y30778
X374635Y30778
X353375Y30778
X295894Y30778
X266761Y30778
X209280Y30778
X188020Y30778
X130540Y30778
M30
