G75*
%MOIN*%
%OFA0B0*%
%FSLAX25Y25*%
%IPPOS*%
%LPD*%
%AMOC8*
5,1,8,0,0,1.08239X$1,22.5*
%
%ADD10C,0.13398*%
%ADD11R,0.06600X0.01900*%
%ADD12R,0.01900X0.06600*%
%ADD13R,0.05918X0.06706*%
%ADD14OC8,0.06000*%
%ADD15OC8,0.06800*%
%ADD16R,0.02769X0.08674*%
%ADD17R,0.08674X0.02769*%
%ADD18R,0.06706X0.05918*%
%ADD19R,0.07887X0.06902*%
%ADD20R,0.03900X0.04300*%
%ADD21R,0.04737X0.05131*%
%ADD22R,0.05131X0.04737*%
%ADD23R,0.05524X0.06312*%
%ADD24C,0.05906*%
%ADD25C,0.06706*%
%ADD26R,0.04737X0.05524*%
%ADD27R,0.03162X0.05524*%
%ADD28C,0.06600*%
%ADD29C,0.07400*%
%ADD30C,0.04800*%
%ADD31C,0.05600*%
%ADD32R,0.03950X0.03950*%
%ADD33R,0.08477X0.10643*%
%ADD34C,0.09068*%
%ADD35C,0.12598*%
%ADD36C,0.13386*%
%ADD37C,0.14186*%
%ADD38C,0.06000*%
%ADD39C,0.06800*%
%ADD40C,0.07087*%
%ADD41C,0.07887*%
%ADD42C,0.06496*%
%ADD43C,0.07296*%
%ADD44C,0.05131*%
%ADD45C,0.16535*%
%ADD46C,0.17335*%
%ADD47C,0.16200*%
%ADD48C,0.17000*%
%ADD49R,0.09461X0.03162*%
%ADD50R,0.06902X0.07887*%
%ADD51C,0.03543*%
%ADD52C,0.04343*%
%ADD53C,0.02362*%
%ADD54C,0.04134*%
%ADD55C,0.04934*%
%ADD56C,0.04724*%
%ADD57C,0.05524*%
D10*
X0011643Y0028022D03*
X0165186Y0211093D03*
X0232115Y0211093D03*
X0299044Y0211093D03*
X0365973Y0210699D03*
X0452981Y0242589D03*
X0452981Y0028022D03*
X0011643Y0242589D03*
D11*
X0182050Y0145121D03*
X0182050Y0143221D03*
X0182050Y0141221D03*
X0182050Y0139221D03*
X0182050Y0137321D03*
X0182050Y0135321D03*
X0182050Y0133321D03*
X0182050Y0131321D03*
X0182050Y0129421D03*
X0182050Y0127421D03*
X0182050Y0125421D03*
X0182050Y0123521D03*
X0215250Y0123521D03*
X0215250Y0125421D03*
X0215250Y0127421D03*
X0215250Y0129421D03*
X0215250Y0131321D03*
X0215250Y0133321D03*
X0215250Y0135321D03*
X0215250Y0137321D03*
X0215250Y0139221D03*
X0215250Y0141221D03*
X0215250Y0143221D03*
X0215250Y0145121D03*
X0317483Y0145121D03*
X0317483Y0143221D03*
X0317483Y0141221D03*
X0317483Y0139221D03*
X0317483Y0137321D03*
X0317483Y0135321D03*
X0317483Y0133321D03*
X0317483Y0131321D03*
X0317483Y0129421D03*
X0317483Y0127421D03*
X0317483Y0125421D03*
X0317483Y0123521D03*
X0350683Y0123521D03*
X0350683Y0125421D03*
X0350683Y0127421D03*
X0350683Y0129421D03*
X0350683Y0131321D03*
X0350683Y0133321D03*
X0350683Y0135321D03*
X0350683Y0137321D03*
X0350683Y0139221D03*
X0350683Y0141221D03*
X0350683Y0143221D03*
X0350683Y0145121D03*
D12*
X0344883Y0150921D03*
X0342983Y0150921D03*
X0340983Y0150921D03*
X0338983Y0150921D03*
X0337083Y0150921D03*
X0335083Y0150921D03*
X0333083Y0150921D03*
X0331083Y0150921D03*
X0329183Y0150921D03*
X0327183Y0150921D03*
X0325183Y0150921D03*
X0323283Y0150921D03*
X0323283Y0117721D03*
X0325183Y0117721D03*
X0327183Y0117721D03*
X0329183Y0117721D03*
X0331083Y0117721D03*
X0333083Y0117721D03*
X0335083Y0117721D03*
X0337083Y0117721D03*
X0338983Y0117721D03*
X0340983Y0117721D03*
X0342983Y0117721D03*
X0344883Y0117721D03*
X0209450Y0117721D03*
X0207550Y0117721D03*
X0205550Y0117721D03*
X0203550Y0117721D03*
X0201650Y0117721D03*
X0199650Y0117721D03*
X0197650Y0117721D03*
X0195650Y0117721D03*
X0193750Y0117721D03*
X0191750Y0117721D03*
X0189750Y0117721D03*
X0187850Y0117721D03*
X0187850Y0150921D03*
X0189750Y0150921D03*
X0191750Y0150921D03*
X0193750Y0150921D03*
X0195650Y0150921D03*
X0197650Y0150921D03*
X0199650Y0150921D03*
X0201650Y0150921D03*
X0203550Y0150921D03*
X0205550Y0150921D03*
X0207550Y0150921D03*
X0209450Y0150921D03*
D13*
X0171682Y0124478D03*
X0164989Y0124478D03*
X0164989Y0116211D03*
X0171682Y0116211D03*
X0164989Y0107943D03*
X0158296Y0107943D03*
X0164989Y0098100D03*
X0171682Y0098100D03*
X0181524Y0098100D03*
X0188217Y0098100D03*
X0197272Y0098100D03*
X0203965Y0098100D03*
X0213020Y0098100D03*
X0219713Y0098100D03*
X0228375Y0098100D03*
X0235855Y0098100D03*
X0235461Y0107943D03*
X0228769Y0107943D03*
X0219713Y0107943D03*
X0213020Y0107943D03*
X0203965Y0107943D03*
X0197272Y0107943D03*
X0188217Y0107943D03*
X0181524Y0107943D03*
X0171682Y0090030D03*
X0164989Y0090030D03*
X0168532Y0069360D03*
X0175225Y0069360D03*
X0143335Y0069360D03*
X0136643Y0069360D03*
X0222076Y0068967D03*
X0228769Y0068967D03*
X0253965Y0068967D03*
X0260658Y0068967D03*
X0301997Y0069754D03*
X0308690Y0069754D03*
X0333887Y0069754D03*
X0340580Y0069754D03*
X0307902Y0089833D03*
X0301209Y0089833D03*
X0301209Y0098100D03*
X0307902Y0098100D03*
X0316957Y0098100D03*
X0323650Y0098100D03*
X0332706Y0098100D03*
X0339398Y0098100D03*
X0348454Y0098100D03*
X0355146Y0098100D03*
X0363808Y0098100D03*
X0371288Y0098100D03*
X0370894Y0107943D03*
X0364202Y0107943D03*
X0355146Y0107943D03*
X0348454Y0107943D03*
X0339398Y0107943D03*
X0332706Y0107943D03*
X0323650Y0107943D03*
X0316957Y0107943D03*
X0307902Y0116211D03*
X0301209Y0116211D03*
X0301209Y0124478D03*
X0307902Y0124478D03*
X0301209Y0107943D03*
X0294517Y0107943D03*
X0387430Y0069754D03*
X0394123Y0069754D03*
X0419320Y0069754D03*
X0426013Y0069754D03*
X0365894Y0175620D03*
X0359202Y0175620D03*
X0076209Y0200463D03*
X0069517Y0200463D03*
X0054556Y0200463D03*
X0047863Y0200463D03*
D14*
X0047942Y0187037D03*
X0057942Y0187037D03*
X0067942Y0187037D03*
X0077942Y0187037D03*
X0087942Y0187037D03*
X0087942Y0177037D03*
X0077942Y0177037D03*
X0067942Y0177037D03*
X0057942Y0177037D03*
X0047942Y0177037D03*
X0047942Y0157037D03*
X0057942Y0157037D03*
X0067942Y0157037D03*
X0077942Y0157037D03*
X0087942Y0157037D03*
X0087942Y0147037D03*
X0077942Y0147037D03*
X0067942Y0147037D03*
X0057942Y0147037D03*
X0047942Y0147037D03*
X0047942Y0127037D03*
X0057942Y0127037D03*
X0067942Y0127037D03*
X0067942Y0117037D03*
X0057942Y0117037D03*
X0047942Y0117037D03*
X0077942Y0117037D03*
X0087942Y0117037D03*
X0087942Y0127037D03*
X0077942Y0127037D03*
X0148257Y0163967D03*
X0158257Y0163967D03*
X0158257Y0173967D03*
X0148257Y0173967D03*
X0138257Y0173967D03*
X0271328Y0175738D03*
X0281328Y0175738D03*
X0291328Y0175738D03*
X0291328Y0165738D03*
X0281328Y0165738D03*
D15*
X0281328Y0165738D03*
X0291328Y0165738D03*
X0291328Y0175738D03*
X0281328Y0175738D03*
X0271328Y0175738D03*
X0158257Y0173967D03*
X0148257Y0173967D03*
X0138257Y0173967D03*
X0148257Y0163967D03*
X0158257Y0163967D03*
X0087942Y0157037D03*
X0077942Y0157037D03*
X0067942Y0157037D03*
X0057942Y0157037D03*
X0047942Y0157037D03*
X0047942Y0147037D03*
X0057942Y0147037D03*
X0067942Y0147037D03*
X0077942Y0147037D03*
X0087942Y0147037D03*
X0087942Y0127037D03*
X0077942Y0127037D03*
X0077942Y0117037D03*
X0087942Y0117037D03*
X0067942Y0117037D03*
X0057942Y0117037D03*
X0047942Y0117037D03*
X0047942Y0127037D03*
X0057942Y0127037D03*
X0067942Y0127037D03*
X0067942Y0177037D03*
X0057942Y0177037D03*
X0047942Y0177037D03*
X0047942Y0187037D03*
X0057942Y0187037D03*
X0067942Y0187037D03*
X0077942Y0187037D03*
X0087942Y0187037D03*
X0087942Y0177037D03*
X0077942Y0177037D03*
D16*
X0079162Y0210404D03*
X0076013Y0210404D03*
X0072863Y0210404D03*
X0069713Y0210404D03*
X0066564Y0210404D03*
X0063414Y0210404D03*
X0060265Y0210404D03*
X0057115Y0210404D03*
X0053965Y0210404D03*
X0050816Y0210404D03*
X0047666Y0210404D03*
X0044517Y0210404D03*
X0041367Y0210404D03*
X0038217Y0210404D03*
X0035068Y0210404D03*
X0031918Y0210404D03*
X0028769Y0210404D03*
X0025619Y0210404D03*
X0044517Y0239341D03*
X0047666Y0239341D03*
X0050816Y0239341D03*
X0053965Y0239341D03*
X0057115Y0239341D03*
X0060265Y0239341D03*
X0063414Y0239341D03*
X0066564Y0239341D03*
X0069713Y0239341D03*
X0072863Y0239341D03*
X0076013Y0239341D03*
X0079162Y0239341D03*
D17*
X0081328Y0232746D03*
X0081328Y0229596D03*
X0081328Y0226447D03*
X0081328Y0223297D03*
X0081328Y0220148D03*
X0081328Y0216998D03*
D18*
X0153375Y0194754D03*
X0163611Y0194754D03*
X0163611Y0188061D03*
X0153375Y0188061D03*
X0182115Y0169163D03*
X0182115Y0162470D03*
X0199831Y0162470D03*
X0199831Y0169163D03*
X0219910Y0188061D03*
X0230540Y0188061D03*
X0230540Y0194754D03*
X0219910Y0194754D03*
X0236052Y0168848D03*
X0236052Y0162156D03*
X0288020Y0188455D03*
X0298650Y0188455D03*
X0298650Y0195148D03*
X0288020Y0195148D03*
X0315973Y0171526D03*
X0315973Y0164833D03*
X0336347Y0164833D03*
X0336347Y0171526D03*
X0368729Y0187667D03*
X0368729Y0194360D03*
X0378965Y0194360D03*
X0378965Y0187667D03*
X0294320Y0140030D03*
X0294320Y0133337D03*
X0158099Y0133730D03*
X0158099Y0140423D03*
X0107666Y0149793D03*
X0107666Y0156486D03*
D19*
X0173454Y0161191D03*
X0173454Y0170443D03*
X0191564Y0170443D03*
X0191564Y0161191D03*
X0306131Y0163553D03*
X0306131Y0172805D03*
X0328080Y0172805D03*
X0328080Y0163553D03*
D20*
X0355774Y0161030D03*
X0363374Y0161030D03*
X0359574Y0169030D03*
X0226760Y0161030D03*
X0219160Y0161030D03*
X0222960Y0169030D03*
D21*
X0212430Y0168376D03*
X0212430Y0161683D03*
X0210461Y0188061D03*
X0210461Y0194754D03*
X0240383Y0194754D03*
X0240383Y0188061D03*
X0278572Y0188455D03*
X0278572Y0195148D03*
X0307706Y0195148D03*
X0307706Y0188455D03*
X0348650Y0168376D03*
X0348650Y0161683D03*
X0359674Y0187667D03*
X0359674Y0194360D03*
X0389202Y0194360D03*
X0389202Y0187667D03*
X0173060Y0188061D03*
X0173060Y0194754D03*
X0143926Y0194754D03*
X0143926Y0188061D03*
D22*
X0165776Y0149675D03*
X0172469Y0149675D03*
X0226800Y0152037D03*
X0233493Y0152037D03*
X0233493Y0143376D03*
X0226800Y0143376D03*
X0226800Y0134715D03*
X0233493Y0134715D03*
X0233493Y0126053D03*
X0226800Y0126053D03*
X0226800Y0117392D03*
X0233493Y0117392D03*
X0287030Y0098100D03*
X0293723Y0098100D03*
X0316323Y0069754D03*
X0323016Y0069754D03*
X0333887Y0059911D03*
X0340580Y0059911D03*
X0348060Y0069754D03*
X0354753Y0069754D03*
X0373257Y0069754D03*
X0379950Y0069754D03*
X0387430Y0059911D03*
X0394123Y0059911D03*
X0405146Y0069754D03*
X0411839Y0069754D03*
X0419320Y0059911D03*
X0426013Y0059911D03*
X0366879Y0116368D03*
X0360186Y0116368D03*
X0360146Y0125266D03*
X0366839Y0125266D03*
X0366879Y0134321D03*
X0360186Y0134321D03*
X0360146Y0143376D03*
X0366839Y0143376D03*
X0366879Y0152392D03*
X0360186Y0152392D03*
X0307902Y0148888D03*
X0301209Y0148888D03*
X0246288Y0068967D03*
X0239595Y0068967D03*
X0228769Y0059911D03*
X0222076Y0059911D03*
X0214595Y0068967D03*
X0207902Y0068967D03*
X0189398Y0069360D03*
X0182706Y0069360D03*
X0175225Y0060305D03*
X0168532Y0060305D03*
X0157509Y0069360D03*
X0150816Y0069360D03*
X0143335Y0060305D03*
X0136643Y0060305D03*
X0150698Y0098100D03*
X0157391Y0098100D03*
X0111839Y0109518D03*
X0105146Y0109518D03*
X0253965Y0059518D03*
X0260658Y0059518D03*
X0301997Y0059911D03*
X0308690Y0059911D03*
D23*
X0307902Y0131565D03*
X0301209Y0131565D03*
X0301209Y0140226D03*
X0307902Y0140226D03*
X0172469Y0140620D03*
X0165776Y0140620D03*
X0165776Y0131959D03*
X0172469Y0131959D03*
D24*
X0141013Y0146486D03*
X0118847Y0184675D03*
X0108847Y0184675D03*
X0108847Y0194675D03*
X0118847Y0194675D03*
X0118847Y0204675D03*
X0108847Y0204675D03*
X0108847Y0214675D03*
X0118847Y0214675D03*
X0118847Y0224675D03*
X0108847Y0224675D03*
X0025894Y0177904D03*
X0015894Y0177904D03*
X0015894Y0167904D03*
X0025894Y0167904D03*
X0025894Y0157904D03*
X0015894Y0157904D03*
X0015894Y0147904D03*
X0025894Y0147904D03*
X0025894Y0137904D03*
X0015894Y0137904D03*
X0015894Y0127904D03*
X0025894Y0127904D03*
X0025894Y0117904D03*
X0015894Y0117904D03*
X0015894Y0107904D03*
X0025894Y0107904D03*
X0025894Y0097904D03*
X0015894Y0097904D03*
X0015894Y0087904D03*
X0025894Y0087904D03*
D25*
X0025894Y0087904D03*
X0015894Y0087904D03*
X0015894Y0097904D03*
X0025894Y0097904D03*
X0025894Y0107904D03*
X0015894Y0107904D03*
X0015894Y0117904D03*
X0025894Y0117904D03*
X0025894Y0127904D03*
X0015894Y0127904D03*
X0015894Y0137904D03*
X0025894Y0137904D03*
X0025894Y0147904D03*
X0015894Y0147904D03*
X0015894Y0157904D03*
X0025894Y0157904D03*
X0025894Y0167904D03*
X0015894Y0167904D03*
X0015894Y0177904D03*
X0025894Y0177904D03*
X0108847Y0184675D03*
X0118847Y0184675D03*
X0118847Y0194675D03*
X0108847Y0194675D03*
X0108847Y0204675D03*
X0118847Y0204675D03*
X0118847Y0214675D03*
X0108847Y0214675D03*
X0108847Y0224675D03*
X0118847Y0224675D03*
X0141013Y0146486D03*
D26*
X0117784Y0148848D03*
D27*
X0124556Y0148848D03*
X0124556Y0156880D03*
X0116997Y0156880D03*
D28*
X0141013Y0126801D03*
D29*
X0141013Y0126801D03*
D30*
X0243613Y0125974D02*
X0248413Y0125974D01*
X0248413Y0135974D02*
X0243613Y0135974D01*
X0243613Y0145974D02*
X0248413Y0145974D01*
X0273613Y0145974D02*
X0278413Y0145974D01*
X0278413Y0135974D02*
X0273613Y0135974D01*
X0273613Y0125974D02*
X0278413Y0125974D01*
X0278413Y0115974D02*
X0273613Y0115974D01*
X0248413Y0115974D02*
X0243613Y0115974D01*
X0377983Y0123455D02*
X0382783Y0123455D01*
X0382783Y0133455D02*
X0377983Y0133455D01*
X0377983Y0143455D02*
X0382783Y0143455D01*
X0382783Y0153455D02*
X0377983Y0153455D01*
X0407983Y0153455D02*
X0412783Y0153455D01*
X0412783Y0143455D02*
X0407983Y0143455D01*
X0407983Y0133455D02*
X0412783Y0133455D01*
X0412783Y0123455D02*
X0407983Y0123455D01*
D31*
X0412783Y0123455D01*
X0412783Y0133455D02*
X0407983Y0133455D01*
X0407983Y0143455D02*
X0412783Y0143455D01*
X0412783Y0153455D02*
X0407983Y0153455D01*
X0382783Y0153455D02*
X0377983Y0153455D01*
X0377983Y0143455D02*
X0382783Y0143455D01*
X0382783Y0133455D02*
X0377983Y0133455D01*
X0377983Y0123455D02*
X0382783Y0123455D01*
X0278413Y0125974D02*
X0273613Y0125974D01*
X0273613Y0135974D02*
X0278413Y0135974D01*
X0278413Y0145974D02*
X0273613Y0145974D01*
X0248413Y0145974D02*
X0243613Y0145974D01*
X0243613Y0135974D02*
X0248413Y0135974D01*
X0248413Y0125974D02*
X0243613Y0125974D01*
X0243613Y0115974D02*
X0248413Y0115974D01*
X0273613Y0115974D02*
X0278413Y0115974D01*
D32*
X0210461Y0205337D03*
X0210461Y0211337D03*
X0143926Y0211337D03*
X0143926Y0205337D03*
X0278572Y0206518D03*
X0278572Y0212518D03*
X0389202Y0211730D03*
X0389202Y0205730D03*
D33*
X0383744Y0080974D03*
X0395402Y0080974D03*
X0407410Y0080974D03*
X0371736Y0080974D03*
X0353473Y0080974D03*
X0341465Y0080974D03*
X0325127Y0080974D03*
X0313119Y0080974D03*
X0241859Y0080974D03*
X0229851Y0080974D03*
X0218790Y0080974D03*
X0206782Y0080974D03*
X0191719Y0081074D03*
X0179711Y0081074D03*
X0167253Y0080974D03*
X0155245Y0080974D03*
D34*
X0148454Y0241211D03*
X0181918Y0241211D03*
X0215383Y0241211D03*
X0248847Y0241211D03*
X0282312Y0241211D03*
X0315776Y0241211D03*
X0349241Y0240817D03*
X0382706Y0240817D03*
D35*
X0365973Y0210699D03*
X0299044Y0211093D03*
X0232115Y0211093D03*
X0165186Y0211093D03*
D36*
X0165186Y0228809D03*
X0232115Y0228809D03*
X0299044Y0228809D03*
X0365973Y0228415D03*
D37*
X0365973Y0228415D03*
X0299044Y0228809D03*
X0232115Y0228809D03*
X0165186Y0228809D03*
X0188020Y0030778D03*
X0209280Y0030778D03*
X0266761Y0030778D03*
X0295894Y0030778D03*
X0353375Y0030778D03*
X0374635Y0030778D03*
X0432115Y0030778D03*
X0130540Y0030778D03*
D38*
X0138257Y0163967D03*
X0271328Y0165738D03*
D39*
X0271328Y0165738D03*
X0138257Y0163967D03*
D40*
X0143532Y0044557D03*
X0159280Y0028809D03*
X0175028Y0041604D03*
X0222272Y0044557D03*
X0238020Y0028809D03*
X0253769Y0041604D03*
X0308887Y0044557D03*
X0324635Y0028809D03*
X0340383Y0041604D03*
X0387627Y0044557D03*
X0403375Y0028809D03*
X0419123Y0041604D03*
D41*
X0419123Y0041604D03*
X0403375Y0028809D03*
X0387627Y0044557D03*
X0340383Y0041604D03*
X0324635Y0028809D03*
X0308887Y0044557D03*
X0253769Y0041604D03*
X0238020Y0028809D03*
X0222272Y0044557D03*
X0175028Y0041604D03*
X0159280Y0028809D03*
X0143532Y0044557D03*
D42*
X0102194Y0053612D03*
X0102194Y0063612D03*
X0102194Y0073612D03*
D43*
X0102194Y0073612D03*
X0102194Y0063612D03*
X0102194Y0053612D03*
D44*
X0102194Y0033612D03*
D45*
X0060855Y0061005D03*
D46*
X0060855Y0061005D03*
D47*
X0075665Y0048494D03*
X0060955Y0032183D03*
D48*
X0060955Y0032183D03*
X0075665Y0048494D03*
D49*
X0086111Y0085679D03*
X0086111Y0090679D03*
X0086111Y0095679D03*
X0086111Y0100679D03*
X0111583Y0100679D03*
X0111583Y0095679D03*
X0111583Y0090679D03*
X0111583Y0085679D03*
D50*
X0121583Y0096132D03*
X0130835Y0096132D03*
D51*
X0150700Y0089943D03*
X0171800Y0110343D03*
X0158099Y0124478D03*
X0203769Y0092195D03*
X0219517Y0092195D03*
X0228572Y0092195D03*
X0235658Y0092195D03*
X0288133Y0089843D03*
X0316761Y0091998D03*
X0339202Y0092195D03*
X0354950Y0091998D03*
X0363611Y0092195D03*
X0371091Y0092195D03*
X0308233Y0109943D03*
X0294320Y0124478D03*
X0242395Y0161845D03*
X0206131Y0164636D03*
X0191564Y0176053D03*
X0167351Y0169360D03*
X0101406Y0156762D03*
X0101406Y0149675D03*
X0047272Y0194557D03*
X0061839Y0200463D03*
X0082706Y0200463D03*
X0315973Y0178022D03*
X0342548Y0176329D03*
X0342745Y0166604D03*
X0365894Y0169360D03*
X0368217Y0160856D03*
D52*
X0368217Y0160856D03*
X0365894Y0169360D03*
X0342745Y0166604D03*
X0342548Y0176329D03*
X0315973Y0178022D03*
X0242395Y0161845D03*
X0206131Y0164636D03*
X0191564Y0176053D03*
X0167351Y0169360D03*
X0101406Y0156762D03*
X0101406Y0149675D03*
X0158099Y0124478D03*
X0171800Y0110343D03*
X0203769Y0092195D03*
X0219517Y0092195D03*
X0228572Y0092195D03*
X0235658Y0092195D03*
X0288133Y0089843D03*
X0316761Y0091998D03*
X0339202Y0092195D03*
X0354950Y0091998D03*
X0363611Y0092195D03*
X0371091Y0092195D03*
X0308233Y0109943D03*
X0294320Y0124478D03*
X0150700Y0089943D03*
X0047272Y0194557D03*
X0061839Y0200463D03*
X0082706Y0200463D03*
D53*
X0082312Y0210305D03*
X0088808Y0209518D03*
X0088414Y0218573D03*
X0072863Y0219360D03*
X0069713Y0216604D03*
X0066564Y0219360D03*
X0063414Y0216604D03*
X0060265Y0219360D03*
X0057115Y0216604D03*
X0050816Y0222510D03*
X0082312Y0239439D03*
X0044517Y0246132D03*
X0041367Y0203612D03*
X0035068Y0203612D03*
X0028769Y0203612D03*
X0129753Y0152431D03*
X0155343Y0149281D03*
X0180540Y0148100D03*
X0184871Y0152825D03*
X0196682Y0155974D03*
X0206524Y0156762D03*
X0218729Y0148100D03*
X0210068Y0143376D03*
X0209280Y0139439D03*
X0209280Y0135108D03*
X0221879Y0131171D03*
X0222272Y0127234D03*
X0216761Y0120541D03*
X0204950Y0126447D03*
X0198257Y0126841D03*
X0195894Y0129990D03*
X0193139Y0127234D03*
X0191957Y0123297D03*
X0195501Y0123691D03*
X0187233Y0132746D03*
X0201406Y0142982D03*
X0199044Y0145738D03*
X0203769Y0146132D03*
X0193926Y0145738D03*
X0190383Y0145344D03*
X0230277Y0161274D03*
X0240847Y0173397D03*
X0251406Y0161486D03*
X0260068Y0176447D03*
X0246288Y0194951D03*
X0187233Y0184715D03*
X0185265Y0181171D03*
X0180934Y0188258D03*
X0176997Y0178415D03*
X0238020Y0143376D03*
X0238020Y0134715D03*
X0238020Y0126053D03*
X0260068Y0120935D03*
X0282509Y0121329D03*
X0286446Y0122510D03*
X0312532Y0103183D03*
X0320461Y0114557D03*
X0318893Y0117712D03*
X0326360Y0123147D03*
X0328472Y0126547D03*
X0330146Y0129596D03*
X0332115Y0132352D03*
X0339202Y0128022D03*
X0342351Y0129596D03*
X0345501Y0128415D03*
X0341957Y0122904D03*
X0335658Y0127234D03*
X0332115Y0126447D03*
X0332115Y0122904D03*
X0322272Y0135108D03*
X0327391Y0142195D03*
X0331721Y0145738D03*
X0335658Y0145738D03*
X0335658Y0141801D03*
X0342745Y0143376D03*
X0342745Y0139833D03*
X0342745Y0136289D03*
X0355737Y0129596D03*
X0355737Y0122116D03*
X0350619Y0120935D03*
X0350619Y0117392D03*
X0355737Y0116604D03*
X0372076Y0126250D03*
X0371879Y0135305D03*
X0371879Y0144163D03*
X0371682Y0153415D03*
X0354950Y0154006D03*
X0352194Y0148100D03*
X0344713Y0157943D03*
X0316761Y0148100D03*
X0339162Y0184045D03*
X0347469Y0190226D03*
X0185658Y0113061D03*
X0183734Y0116548D03*
X0177832Y0114783D03*
X0176632Y0102983D03*
X0185106Y0088158D03*
X0173269Y0081139D03*
X0229753Y0088258D03*
X0147469Y0121722D03*
X0143139Y0119360D03*
X0324111Y0089178D03*
X0333690Y0081565D03*
X0348257Y0088652D03*
X0395107Y0087864D03*
D54*
X0137036Y0089439D03*
X0130934Y0089439D03*
X0137036Y0096132D03*
X0122666Y0103415D03*
X0122666Y0108533D03*
X0122666Y0113652D03*
D55*
X0122666Y0113652D03*
X0122666Y0108533D03*
X0122666Y0103415D03*
X0137036Y0096132D03*
X0137036Y0089439D03*
X0130934Y0089439D03*
D56*
X0078769Y0092982D03*
D57*
X0078769Y0092982D03*
M02*
