G75*
%MOIN*%
%OFA0B0*%
%FSLAX25Y25*%
%IPPOS*%
%LPD*%
%AMOC8*
5,1,8,0,0,1.08239X$1,22.5*
%
%ADD10C,0.13398*%
%ADD11OC8,0.06000*%
%ADD12OC8,0.06800*%
%ADD13C,0.05906*%
%ADD14C,0.06706*%
%ADD15C,0.06600*%
%ADD16C,0.07400*%
%ADD17C,0.04800*%
%ADD18C,0.05600*%
%ADD19C,0.09068*%
%ADD20C,0.12598*%
%ADD21C,0.13386*%
%ADD22C,0.14186*%
%ADD23C,0.06000*%
%ADD24C,0.06800*%
%ADD25C,0.07087*%
%ADD26C,0.07887*%
%ADD27C,0.06496*%
%ADD28C,0.07296*%
%ADD29C,0.05131*%
%ADD30C,0.16535*%
%ADD31C,0.17335*%
%ADD32C,0.16200*%
%ADD33C,0.17000*%
%ADD34C,0.03543*%
%ADD35C,0.04343*%
%ADD36C,0.02362*%
%ADD37C,0.04134*%
%ADD38C,0.04934*%
%ADD39C,0.04724*%
%ADD40C,0.05524*%
D10*
X0011643Y0028022D03*
X0165186Y0211093D03*
X0232115Y0211093D03*
X0299044Y0211093D03*
X0365973Y0210699D03*
X0452981Y0242589D03*
X0452981Y0028022D03*
X0011643Y0242589D03*
D11*
X0047942Y0187037D03*
X0057942Y0187037D03*
X0067942Y0187037D03*
X0077942Y0187037D03*
X0087942Y0187037D03*
X0087942Y0177037D03*
X0077942Y0177037D03*
X0067942Y0177037D03*
X0057942Y0177037D03*
X0047942Y0177037D03*
X0047942Y0157037D03*
X0057942Y0157037D03*
X0067942Y0157037D03*
X0077942Y0157037D03*
X0087942Y0157037D03*
X0087942Y0147037D03*
X0077942Y0147037D03*
X0067942Y0147037D03*
X0057942Y0147037D03*
X0047942Y0147037D03*
X0047942Y0127037D03*
X0057942Y0127037D03*
X0067942Y0127037D03*
X0067942Y0117037D03*
X0057942Y0117037D03*
X0047942Y0117037D03*
X0077942Y0117037D03*
X0087942Y0117037D03*
X0087942Y0127037D03*
X0077942Y0127037D03*
X0148257Y0163967D03*
X0158257Y0163967D03*
X0158257Y0173967D03*
X0148257Y0173967D03*
X0138257Y0173967D03*
X0271328Y0175738D03*
X0281328Y0175738D03*
X0291328Y0175738D03*
X0291328Y0165738D03*
X0281328Y0165738D03*
D12*
X0281328Y0165738D03*
X0291328Y0165738D03*
X0291328Y0175738D03*
X0281328Y0175738D03*
X0271328Y0175738D03*
X0158257Y0173967D03*
X0148257Y0173967D03*
X0138257Y0173967D03*
X0148257Y0163967D03*
X0158257Y0163967D03*
X0087942Y0157037D03*
X0077942Y0157037D03*
X0067942Y0157037D03*
X0057942Y0157037D03*
X0047942Y0157037D03*
X0047942Y0147037D03*
X0057942Y0147037D03*
X0067942Y0147037D03*
X0077942Y0147037D03*
X0087942Y0147037D03*
X0087942Y0127037D03*
X0077942Y0127037D03*
X0077942Y0117037D03*
X0087942Y0117037D03*
X0067942Y0117037D03*
X0057942Y0117037D03*
X0047942Y0117037D03*
X0047942Y0127037D03*
X0057942Y0127037D03*
X0067942Y0127037D03*
X0067942Y0177037D03*
X0057942Y0177037D03*
X0047942Y0177037D03*
X0047942Y0187037D03*
X0057942Y0187037D03*
X0067942Y0187037D03*
X0077942Y0187037D03*
X0087942Y0187037D03*
X0087942Y0177037D03*
X0077942Y0177037D03*
D13*
X0108847Y0184675D03*
X0118847Y0184675D03*
X0118847Y0194675D03*
X0108847Y0194675D03*
X0108847Y0204675D03*
X0118847Y0204675D03*
X0118847Y0214675D03*
X0108847Y0214675D03*
X0108847Y0224675D03*
X0118847Y0224675D03*
X0025894Y0177904D03*
X0015894Y0177904D03*
X0015894Y0167904D03*
X0025894Y0167904D03*
X0025894Y0157904D03*
X0015894Y0157904D03*
X0015894Y0147904D03*
X0025894Y0147904D03*
X0025894Y0137904D03*
X0015894Y0137904D03*
X0015894Y0127904D03*
X0025894Y0127904D03*
X0025894Y0117904D03*
X0015894Y0117904D03*
X0015894Y0107904D03*
X0025894Y0107904D03*
X0025894Y0097904D03*
X0015894Y0097904D03*
X0015894Y0087904D03*
X0025894Y0087904D03*
X0141013Y0146486D03*
D14*
X0141013Y0146486D03*
X0118847Y0184675D03*
X0108847Y0184675D03*
X0108847Y0194675D03*
X0118847Y0194675D03*
X0118847Y0204675D03*
X0108847Y0204675D03*
X0108847Y0214675D03*
X0118847Y0214675D03*
X0118847Y0224675D03*
X0108847Y0224675D03*
X0025894Y0177904D03*
X0015894Y0177904D03*
X0015894Y0167904D03*
X0025894Y0167904D03*
X0025894Y0157904D03*
X0015894Y0157904D03*
X0015894Y0147904D03*
X0025894Y0147904D03*
X0025894Y0137904D03*
X0015894Y0137904D03*
X0015894Y0127904D03*
X0025894Y0127904D03*
X0025894Y0117904D03*
X0015894Y0117904D03*
X0015894Y0107904D03*
X0025894Y0107904D03*
X0025894Y0097904D03*
X0015894Y0097904D03*
X0015894Y0087904D03*
X0025894Y0087904D03*
D15*
X0141013Y0126801D03*
D16*
X0141013Y0126801D03*
D17*
X0243613Y0125974D02*
X0248413Y0125974D01*
X0248413Y0135974D02*
X0243613Y0135974D01*
X0243613Y0145974D02*
X0248413Y0145974D01*
X0273613Y0145974D02*
X0278413Y0145974D01*
X0278413Y0135974D02*
X0273613Y0135974D01*
X0273613Y0125974D02*
X0278413Y0125974D01*
X0278413Y0115974D02*
X0273613Y0115974D01*
X0248413Y0115974D02*
X0243613Y0115974D01*
X0377983Y0123455D02*
X0382783Y0123455D01*
X0382783Y0133455D02*
X0377983Y0133455D01*
X0377983Y0143455D02*
X0382783Y0143455D01*
X0382783Y0153455D02*
X0377983Y0153455D01*
X0407983Y0153455D02*
X0412783Y0153455D01*
X0412783Y0143455D02*
X0407983Y0143455D01*
X0407983Y0133455D02*
X0412783Y0133455D01*
X0412783Y0123455D02*
X0407983Y0123455D01*
D18*
X0412783Y0123455D01*
X0412783Y0133455D02*
X0407983Y0133455D01*
X0407983Y0143455D02*
X0412783Y0143455D01*
X0412783Y0153455D02*
X0407983Y0153455D01*
X0382783Y0153455D02*
X0377983Y0153455D01*
X0377983Y0143455D02*
X0382783Y0143455D01*
X0382783Y0133455D02*
X0377983Y0133455D01*
X0377983Y0123455D02*
X0382783Y0123455D01*
X0278413Y0125974D02*
X0273613Y0125974D01*
X0273613Y0135974D02*
X0278413Y0135974D01*
X0278413Y0145974D02*
X0273613Y0145974D01*
X0248413Y0145974D02*
X0243613Y0145974D01*
X0243613Y0135974D02*
X0248413Y0135974D01*
X0248413Y0125974D02*
X0243613Y0125974D01*
X0243613Y0115974D02*
X0248413Y0115974D01*
X0273613Y0115974D02*
X0278413Y0115974D01*
D19*
X0282312Y0241211D03*
X0315776Y0241211D03*
X0349241Y0240817D03*
X0382706Y0240817D03*
X0248847Y0241211D03*
X0215383Y0241211D03*
X0181918Y0241211D03*
X0148454Y0241211D03*
D20*
X0165186Y0211093D03*
X0232115Y0211093D03*
X0299044Y0211093D03*
X0365973Y0210699D03*
D21*
X0365973Y0228415D03*
X0299044Y0228809D03*
X0232115Y0228809D03*
X0165186Y0228809D03*
D22*
X0165186Y0228809D03*
X0232115Y0228809D03*
X0299044Y0228809D03*
X0365973Y0228415D03*
X0374635Y0030778D03*
X0353375Y0030778D03*
X0295894Y0030778D03*
X0266761Y0030778D03*
X0209280Y0030778D03*
X0188020Y0030778D03*
X0130540Y0030778D03*
X0432115Y0030778D03*
D23*
X0271328Y0165738D03*
X0138257Y0163967D03*
D24*
X0138257Y0163967D03*
X0271328Y0165738D03*
D25*
X0308887Y0044557D03*
X0324635Y0028809D03*
X0340383Y0041604D03*
X0387627Y0044557D03*
X0403375Y0028809D03*
X0419123Y0041604D03*
X0253769Y0041604D03*
X0238020Y0028809D03*
X0222272Y0044557D03*
X0175028Y0041604D03*
X0159280Y0028809D03*
X0143532Y0044557D03*
D26*
X0143532Y0044557D03*
X0159280Y0028809D03*
X0175028Y0041604D03*
X0222272Y0044557D03*
X0238020Y0028809D03*
X0253769Y0041604D03*
X0308887Y0044557D03*
X0324635Y0028809D03*
X0340383Y0041604D03*
X0387627Y0044557D03*
X0403375Y0028809D03*
X0419123Y0041604D03*
D27*
X0102194Y0053612D03*
X0102194Y0063612D03*
X0102194Y0073612D03*
D28*
X0102194Y0073612D03*
X0102194Y0063612D03*
X0102194Y0053612D03*
D29*
X0102194Y0033612D03*
D30*
X0060855Y0061005D03*
D31*
X0060855Y0061005D03*
D32*
X0075665Y0048494D03*
X0060955Y0032183D03*
D33*
X0060955Y0032183D03*
X0075665Y0048494D03*
D34*
X0150700Y0089943D03*
X0171800Y0110343D03*
X0158099Y0124478D03*
X0203769Y0092195D03*
X0219517Y0092195D03*
X0228572Y0092195D03*
X0235658Y0092195D03*
X0288133Y0089843D03*
X0316761Y0091998D03*
X0339202Y0092195D03*
X0354950Y0091998D03*
X0363611Y0092195D03*
X0371091Y0092195D03*
X0308233Y0109943D03*
X0294320Y0124478D03*
X0242395Y0161845D03*
X0206131Y0164636D03*
X0191564Y0176053D03*
X0167351Y0169360D03*
X0101406Y0156762D03*
X0101406Y0149675D03*
X0047272Y0194557D03*
X0061839Y0200463D03*
X0082706Y0200463D03*
X0315973Y0178022D03*
X0342548Y0176329D03*
X0342745Y0166604D03*
X0365894Y0169360D03*
X0368217Y0160856D03*
D35*
X0368217Y0160856D03*
X0365894Y0169360D03*
X0342745Y0166604D03*
X0342548Y0176329D03*
X0315973Y0178022D03*
X0242395Y0161845D03*
X0206131Y0164636D03*
X0191564Y0176053D03*
X0167351Y0169360D03*
X0101406Y0156762D03*
X0101406Y0149675D03*
X0158099Y0124478D03*
X0171800Y0110343D03*
X0203769Y0092195D03*
X0219517Y0092195D03*
X0228572Y0092195D03*
X0235658Y0092195D03*
X0288133Y0089843D03*
X0316761Y0091998D03*
X0339202Y0092195D03*
X0354950Y0091998D03*
X0363611Y0092195D03*
X0371091Y0092195D03*
X0308233Y0109943D03*
X0294320Y0124478D03*
X0150700Y0089943D03*
X0047272Y0194557D03*
X0061839Y0200463D03*
X0082706Y0200463D03*
D36*
X0082312Y0210305D03*
X0088808Y0209518D03*
X0088414Y0218573D03*
X0072863Y0219360D03*
X0069713Y0216604D03*
X0066564Y0219360D03*
X0063414Y0216604D03*
X0060265Y0219360D03*
X0057115Y0216604D03*
X0050816Y0222510D03*
X0082312Y0239439D03*
X0044517Y0246132D03*
X0041367Y0203612D03*
X0035068Y0203612D03*
X0028769Y0203612D03*
X0129753Y0152431D03*
X0155343Y0149281D03*
X0180540Y0148100D03*
X0184871Y0152825D03*
X0196682Y0155974D03*
X0206524Y0156762D03*
X0218729Y0148100D03*
X0210068Y0143376D03*
X0209280Y0139439D03*
X0209280Y0135108D03*
X0221879Y0131171D03*
X0222272Y0127234D03*
X0216761Y0120541D03*
X0204950Y0126447D03*
X0198257Y0126841D03*
X0195894Y0129990D03*
X0193139Y0127234D03*
X0191957Y0123297D03*
X0195501Y0123691D03*
X0187233Y0132746D03*
X0201406Y0142982D03*
X0199044Y0145738D03*
X0203769Y0146132D03*
X0193926Y0145738D03*
X0190383Y0145344D03*
X0230277Y0161274D03*
X0240847Y0173397D03*
X0251406Y0161486D03*
X0260068Y0176447D03*
X0246288Y0194951D03*
X0187233Y0184715D03*
X0185265Y0181171D03*
X0180934Y0188258D03*
X0176997Y0178415D03*
X0238020Y0143376D03*
X0238020Y0134715D03*
X0238020Y0126053D03*
X0260068Y0120935D03*
X0282509Y0121329D03*
X0286446Y0122510D03*
X0312532Y0103183D03*
X0320461Y0114557D03*
X0318893Y0117712D03*
X0326360Y0123147D03*
X0328472Y0126547D03*
X0330146Y0129596D03*
X0332115Y0132352D03*
X0339202Y0128022D03*
X0342351Y0129596D03*
X0345501Y0128415D03*
X0341957Y0122904D03*
X0335658Y0127234D03*
X0332115Y0126447D03*
X0332115Y0122904D03*
X0322272Y0135108D03*
X0327391Y0142195D03*
X0331721Y0145738D03*
X0335658Y0145738D03*
X0335658Y0141801D03*
X0342745Y0143376D03*
X0342745Y0139833D03*
X0342745Y0136289D03*
X0355737Y0129596D03*
X0355737Y0122116D03*
X0350619Y0120935D03*
X0350619Y0117392D03*
X0355737Y0116604D03*
X0372076Y0126250D03*
X0371879Y0135305D03*
X0371879Y0144163D03*
X0371682Y0153415D03*
X0354950Y0154006D03*
X0352194Y0148100D03*
X0344713Y0157943D03*
X0316761Y0148100D03*
X0339162Y0184045D03*
X0347469Y0190226D03*
X0185658Y0113061D03*
X0183734Y0116548D03*
X0177832Y0114783D03*
X0176632Y0102983D03*
X0185106Y0088158D03*
X0173269Y0081139D03*
X0229753Y0088258D03*
X0147469Y0121722D03*
X0143139Y0119360D03*
X0324111Y0089178D03*
X0333690Y0081565D03*
X0348257Y0088652D03*
X0395107Y0087864D03*
D37*
X0137036Y0089439D03*
X0130934Y0089439D03*
X0137036Y0096132D03*
X0122666Y0103415D03*
X0122666Y0108533D03*
X0122666Y0113652D03*
D38*
X0122666Y0113652D03*
X0122666Y0108533D03*
X0122666Y0103415D03*
X0137036Y0096132D03*
X0137036Y0089439D03*
X0130934Y0089439D03*
D39*
X0078769Y0092982D03*
D40*
X0078769Y0092982D03*
M02*
