G75*
%MOIN*%
%OFA0B0*%
%FSLAX25Y25*%
%IPPOS*%
%LPD*%
%AMOC8*
5,1,8,0,0,1.08239X$1,22.5*
%
%ADD10C,0.06000*%
%ADD11C,0.05906*%
%ADD12C,0.04800*%
%ADD13C,0.12598*%
%ADD14C,0.13386*%
%ADD15C,0.07087*%
%ADD16C,0.06496*%
%ADD17C,0.16535*%
%ADD18C,0.15737*%
%ADD19C,0.03937*%
%ADD20C,0.02756*%
%ADD21C,0.04331*%
%ADD22C,0.04724*%
%ADD23C,0.01600*%
D10*
X0047942Y0117037D03*
X0057942Y0117037D03*
X0067942Y0117037D03*
X0077942Y0117037D03*
X0087942Y0117037D03*
X0097942Y0117037D03*
X0097942Y0127037D03*
X0087942Y0127037D03*
X0077942Y0127037D03*
X0067942Y0127037D03*
X0057942Y0127037D03*
X0047942Y0127037D03*
X0047942Y0147037D03*
X0057942Y0147037D03*
X0067942Y0147037D03*
X0077942Y0147037D03*
X0087942Y0147037D03*
X0097942Y0147037D03*
X0097942Y0157037D03*
X0087942Y0157037D03*
X0077942Y0157037D03*
X0067942Y0157037D03*
X0057942Y0157037D03*
X0047942Y0157037D03*
X0047942Y0177037D03*
X0057942Y0177037D03*
X0067942Y0177037D03*
X0077942Y0177037D03*
X0087942Y0177037D03*
X0087942Y0187037D03*
X0077942Y0187037D03*
X0067942Y0187037D03*
X0057942Y0187037D03*
X0047942Y0187037D03*
X0138257Y0173967D03*
X0148257Y0173967D03*
X0158257Y0173967D03*
X0158257Y0163967D03*
X0148257Y0163967D03*
X0138257Y0163967D03*
X0257548Y0165738D03*
X0267548Y0165738D03*
X0277548Y0165738D03*
X0277548Y0175738D03*
X0267548Y0175738D03*
X0257548Y0175738D03*
D11*
X0166997Y0141368D03*
X0147312Y0141368D03*
X0118847Y0184675D03*
X0108847Y0184675D03*
X0108847Y0194675D03*
X0118847Y0194675D03*
X0118847Y0204675D03*
X0108847Y0204675D03*
X0108847Y0214675D03*
X0118847Y0214675D03*
X0118847Y0224675D03*
X0108847Y0224675D03*
X0025894Y0177904D03*
X0015894Y0177904D03*
X0015894Y0167904D03*
X0025894Y0167904D03*
X0025894Y0157904D03*
X0015894Y0157904D03*
X0015894Y0147904D03*
X0025894Y0147904D03*
X0025894Y0137904D03*
X0015894Y0137904D03*
X0015894Y0127904D03*
X0025894Y0127904D03*
X0025894Y0117904D03*
X0015894Y0117904D03*
X0015894Y0107904D03*
X0025894Y0107904D03*
X0025894Y0097904D03*
X0015894Y0097904D03*
X0015894Y0087904D03*
X0025894Y0087904D03*
D12*
X0246013Y0115974D03*
X0246013Y0125974D03*
X0246013Y0135974D03*
X0246013Y0145974D03*
X0276013Y0145974D03*
X0276013Y0135974D03*
X0276013Y0125974D03*
X0276013Y0115974D03*
X0366603Y0123455D03*
X0366603Y0133455D03*
X0366603Y0143455D03*
X0366603Y0153455D03*
X0396603Y0153455D03*
X0396603Y0143455D03*
X0396603Y0133455D03*
X0396603Y0123455D03*
D13*
X0348257Y0210699D03*
X0287233Y0211093D03*
X0226209Y0211093D03*
X0165186Y0211093D03*
D14*
X0165186Y0228809D03*
X0226209Y0228809D03*
X0287233Y0228809D03*
X0348257Y0228415D03*
D15*
X0369123Y0044557D03*
X0384871Y0028809D03*
X0400619Y0041604D03*
X0326603Y0041604D03*
X0310855Y0028809D03*
X0295107Y0044557D03*
X0249044Y0041604D03*
X0233296Y0028809D03*
X0217548Y0044557D03*
X0175028Y0041604D03*
X0159280Y0028809D03*
X0143532Y0044557D03*
D16*
X0102194Y0053612D03*
X0102194Y0063612D03*
X0102194Y0073612D03*
D17*
X0060855Y0061005D03*
D18*
X0075665Y0048494D03*
X0060955Y0032183D03*
D19*
X0150306Y0091911D03*
X0172194Y0110343D03*
X0188020Y0131171D03*
X0206131Y0164636D03*
X0191564Y0176053D03*
X0167351Y0169360D03*
X0109674Y0150856D03*
X0109674Y0143770D03*
X0047272Y0194557D03*
X0061839Y0200463D03*
X0082706Y0200463D03*
X0242395Y0161845D03*
X0297469Y0131959D03*
X0295044Y0111518D03*
X0302981Y0091998D03*
X0325422Y0092195D03*
X0341170Y0091998D03*
X0349241Y0091998D03*
X0358493Y0091998D03*
X0272779Y0091811D03*
X0263724Y0081181D03*
X0236839Y0092195D03*
X0227391Y0092195D03*
X0219517Y0092195D03*
X0204950Y0092195D03*
X0248650Y0105187D03*
X0328965Y0166604D03*
X0328769Y0176329D03*
X0352115Y0169360D03*
X0354438Y0160856D03*
X0302194Y0178022D03*
D20*
X0325383Y0184045D03*
X0333690Y0190226D03*
X0330934Y0157943D03*
X0341170Y0154006D03*
X0338414Y0148100D03*
X0328965Y0143376D03*
X0328965Y0139833D03*
X0321879Y0141801D03*
X0321879Y0145738D03*
X0317942Y0145738D03*
X0313611Y0142195D03*
X0302981Y0148100D03*
X0308493Y0135108D03*
X0318335Y0132352D03*
X0318335Y0126447D03*
X0318335Y0122904D03*
X0321879Y0127234D03*
X0325422Y0128022D03*
X0328572Y0129596D03*
X0331721Y0128415D03*
X0328178Y0122904D03*
X0336839Y0120935D03*
X0336839Y0117392D03*
X0341957Y0116604D03*
X0341957Y0122116D03*
X0341957Y0129596D03*
X0328965Y0136289D03*
X0312580Y0123147D03*
X0305113Y0117712D03*
X0306682Y0114557D03*
X0298753Y0103183D03*
X0310331Y0089178D03*
X0319910Y0081565D03*
X0334477Y0088652D03*
X0376603Y0087864D03*
X0358296Y0126250D03*
X0358099Y0135305D03*
X0358099Y0144163D03*
X0357902Y0153415D03*
X0255343Y0121722D03*
X0238020Y0126053D03*
X0238020Y0134715D03*
X0238020Y0143376D03*
X0221879Y0131171D03*
X0222272Y0127234D03*
X0216761Y0120541D03*
X0205343Y0125659D03*
X0198257Y0125659D03*
X0195501Y0122904D03*
X0191957Y0123297D03*
X0177832Y0114783D03*
X0185658Y0113061D03*
X0176632Y0102983D03*
X0185106Y0088158D03*
X0173269Y0081139D03*
X0228965Y0088258D03*
X0209280Y0135108D03*
X0209280Y0139439D03*
X0210068Y0143376D03*
X0203769Y0146132D03*
X0201406Y0142982D03*
X0199044Y0145738D03*
X0193926Y0145738D03*
X0190383Y0145344D03*
X0180934Y0149281D03*
X0184871Y0152825D03*
X0196682Y0155974D03*
X0206524Y0156762D03*
X0218729Y0148100D03*
X0230277Y0161274D03*
X0245698Y0164833D03*
X0240847Y0173397D03*
X0246682Y0178415D03*
X0239989Y0194754D03*
X0187233Y0184715D03*
X0185265Y0181171D03*
X0176997Y0178415D03*
X0180934Y0188258D03*
X0114005Y0158730D03*
X0138020Y0146526D03*
X0176997Y0133927D03*
X0088808Y0209518D03*
X0082312Y0210305D03*
X0088414Y0218573D03*
X0072863Y0219360D03*
X0069713Y0216604D03*
X0066564Y0219360D03*
X0063414Y0216604D03*
X0060265Y0219360D03*
X0057115Y0216604D03*
X0050816Y0222510D03*
X0041367Y0203612D03*
X0035068Y0203612D03*
X0028769Y0203612D03*
X0082312Y0239439D03*
X0044517Y0246132D03*
D21*
X0122666Y0113652D03*
X0122666Y0108533D03*
X0122666Y0103415D03*
X0137036Y0096132D03*
X0137036Y0089439D03*
X0130934Y0089439D03*
X0130934Y0083533D03*
D22*
X0078769Y0092982D03*
X0070501Y0068967D03*
D23*
X0019330Y0022885D02*
X0017392Y0020948D01*
X0039989Y0020948D01*
X0039989Y0105581D01*
X0118532Y0105581D01*
X0118532Y0100266D01*
X0134083Y0100266D01*
X0134083Y0098787D01*
X0134790Y0099494D01*
X0136247Y0100097D01*
X0137825Y0100097D01*
X0139282Y0099494D01*
X0140398Y0098378D01*
X0141002Y0096921D01*
X0141002Y0095343D01*
X0140398Y0093886D01*
X0139298Y0092785D01*
X0140398Y0091685D01*
X0141002Y0090228D01*
X0141002Y0088650D01*
X0140398Y0087193D01*
X0139282Y0086077D01*
X0137825Y0085474D01*
X0136247Y0085474D01*
X0134790Y0086077D01*
X0133985Y0086882D01*
X0133589Y0086486D01*
X0134296Y0085780D01*
X0134899Y0084322D01*
X0134899Y0082745D01*
X0134296Y0081287D01*
X0133180Y0080172D01*
X0131723Y0079568D01*
X0130145Y0079568D01*
X0128688Y0080172D01*
X0127572Y0081287D01*
X0126969Y0082745D01*
X0126969Y0084322D01*
X0127572Y0085780D01*
X0128279Y0086486D01*
X0127572Y0087193D01*
X0126969Y0088650D01*
X0126969Y0090228D01*
X0127572Y0091685D01*
X0127885Y0091998D01*
X0118926Y0091998D01*
X0118926Y0020948D01*
X0427153Y0020948D01*
X0425215Y0022885D01*
X0423835Y0026218D01*
X0423835Y0029825D01*
X0425215Y0033158D01*
X0427766Y0035709D01*
X0431099Y0037089D01*
X0434706Y0037089D01*
X0438039Y0035709D01*
X0439976Y0033771D01*
X0439976Y0236839D01*
X0438039Y0234901D01*
X0434706Y0233521D01*
X0431099Y0233521D01*
X0427766Y0234901D01*
X0425215Y0237452D01*
X0423835Y0240785D01*
X0423835Y0244392D01*
X0425215Y0247725D01*
X0427153Y0249663D01*
X0044713Y0249663D01*
X0044713Y0249310D01*
X0045149Y0249310D01*
X0046317Y0248826D01*
X0047211Y0247932D01*
X0047694Y0246764D01*
X0047694Y0245500D01*
X0047211Y0244332D01*
X0046317Y0243438D01*
X0045149Y0242954D01*
X0044713Y0242954D01*
X0044713Y0218770D01*
X0004568Y0218770D01*
X0004568Y0033771D01*
X0006506Y0035709D01*
X0009839Y0037089D01*
X0013446Y0037089D01*
X0016779Y0035709D01*
X0019330Y0033158D01*
X0020710Y0029825D01*
X0020710Y0026218D01*
X0019330Y0022885D01*
X0019367Y0022975D02*
X0039989Y0022975D01*
X0039989Y0024573D02*
X0020029Y0024573D01*
X0020691Y0026172D02*
X0039989Y0026172D01*
X0039989Y0027770D02*
X0020710Y0027770D01*
X0020710Y0029369D02*
X0039989Y0029369D01*
X0039989Y0030967D02*
X0020237Y0030967D01*
X0019575Y0032566D02*
X0039989Y0032566D01*
X0039989Y0034164D02*
X0018324Y0034164D01*
X0016649Y0035763D02*
X0039989Y0035763D01*
X0039989Y0037361D02*
X0004568Y0037361D01*
X0004568Y0035763D02*
X0006636Y0035763D01*
X0004961Y0034164D02*
X0004568Y0034164D01*
X0004568Y0038960D02*
X0039989Y0038960D01*
X0039989Y0040558D02*
X0004568Y0040558D01*
X0004568Y0042157D02*
X0039989Y0042157D01*
X0039989Y0043755D02*
X0004568Y0043755D01*
X0004568Y0045354D02*
X0039989Y0045354D01*
X0039989Y0046952D02*
X0004568Y0046952D01*
X0004568Y0048551D02*
X0039989Y0048551D01*
X0039989Y0050149D02*
X0004568Y0050149D01*
X0004568Y0051748D02*
X0039989Y0051748D01*
X0039989Y0053346D02*
X0004568Y0053346D01*
X0004568Y0054945D02*
X0039989Y0054945D01*
X0039989Y0056543D02*
X0004568Y0056543D01*
X0004568Y0058142D02*
X0039989Y0058142D01*
X0039989Y0059740D02*
X0004568Y0059740D01*
X0004568Y0061339D02*
X0039989Y0061339D01*
X0039989Y0062937D02*
X0004568Y0062937D01*
X0004568Y0064536D02*
X0039989Y0064536D01*
X0039989Y0066134D02*
X0004568Y0066134D01*
X0004568Y0067733D02*
X0039989Y0067733D01*
X0039989Y0069331D02*
X0004568Y0069331D01*
X0004568Y0070930D02*
X0039989Y0070930D01*
X0039989Y0072529D02*
X0004568Y0072529D01*
X0004568Y0074127D02*
X0039989Y0074127D01*
X0039989Y0075726D02*
X0004568Y0075726D01*
X0004568Y0077324D02*
X0039989Y0077324D01*
X0039989Y0078923D02*
X0004568Y0078923D01*
X0004568Y0080521D02*
X0039989Y0080521D01*
X0039989Y0082120D02*
X0004568Y0082120D01*
X0004568Y0083718D02*
X0013579Y0083718D01*
X0013202Y0083874D02*
X0014949Y0083151D01*
X0016840Y0083151D01*
X0018587Y0083874D01*
X0019924Y0085211D01*
X0020647Y0086958D01*
X0020647Y0088849D01*
X0019924Y0090596D01*
X0018587Y0091933D01*
X0016840Y0092656D01*
X0014949Y0092656D01*
X0013202Y0091933D01*
X0011865Y0090596D01*
X0011142Y0088849D01*
X0011142Y0086958D01*
X0011865Y0085211D01*
X0013202Y0083874D01*
X0011822Y0085317D02*
X0004568Y0085317D01*
X0004568Y0086915D02*
X0011160Y0086915D01*
X0011142Y0088514D02*
X0004568Y0088514D01*
X0004568Y0090112D02*
X0011665Y0090112D01*
X0012980Y0091711D02*
X0004568Y0091711D01*
X0004568Y0093309D02*
X0014567Y0093309D01*
X0014949Y0093151D02*
X0016840Y0093151D01*
X0018587Y0093874D01*
X0019924Y0095211D01*
X0020647Y0096958D01*
X0020647Y0098849D01*
X0019924Y0100596D01*
X0018587Y0101933D01*
X0016840Y0102656D01*
X0014949Y0102656D01*
X0013202Y0101933D01*
X0011865Y0100596D01*
X0011142Y0098849D01*
X0011142Y0096958D01*
X0011865Y0095211D01*
X0013202Y0093874D01*
X0014949Y0093151D01*
X0017222Y0093309D02*
X0024567Y0093309D01*
X0024949Y0093151D02*
X0026840Y0093151D01*
X0028587Y0093874D01*
X0029924Y0095211D01*
X0030647Y0096958D01*
X0030647Y0098849D01*
X0029924Y0100596D01*
X0028587Y0101933D01*
X0026840Y0102656D01*
X0024949Y0102656D01*
X0023202Y0101933D01*
X0021865Y0100596D01*
X0021142Y0098849D01*
X0021142Y0096958D01*
X0021865Y0095211D01*
X0023202Y0093874D01*
X0024949Y0093151D01*
X0024782Y0092539D02*
X0024070Y0092308D01*
X0023403Y0091968D01*
X0022798Y0091529D01*
X0022269Y0091000D01*
X0021830Y0090395D01*
X0021490Y0089728D01*
X0021259Y0089016D01*
X0021142Y0088278D01*
X0021142Y0088088D01*
X0025710Y0088088D01*
X0025710Y0087719D01*
X0026079Y0087719D01*
X0026079Y0088088D01*
X0030647Y0088088D01*
X0030647Y0088278D01*
X0030530Y0089016D01*
X0030299Y0089728D01*
X0029959Y0090395D01*
X0029520Y0091000D01*
X0028991Y0091529D01*
X0028385Y0091968D01*
X0027719Y0092308D01*
X0027007Y0092539D01*
X0026269Y0092656D01*
X0026079Y0092656D01*
X0026079Y0088088D01*
X0025710Y0088088D01*
X0025710Y0092656D01*
X0025520Y0092656D01*
X0024782Y0092539D01*
X0025710Y0091711D02*
X0026079Y0091711D01*
X0026079Y0090112D02*
X0025710Y0090112D01*
X0025710Y0088514D02*
X0026079Y0088514D01*
X0026079Y0087719D02*
X0030647Y0087719D01*
X0030647Y0087529D01*
X0030530Y0086791D01*
X0030299Y0086079D01*
X0029959Y0085413D01*
X0029520Y0084807D01*
X0028991Y0084278D01*
X0028385Y0083839D01*
X0027719Y0083499D01*
X0027007Y0083268D01*
X0026269Y0083151D01*
X0026079Y0083151D01*
X0026079Y0087719D01*
X0025710Y0087719D02*
X0025710Y0083151D01*
X0025520Y0083151D01*
X0024782Y0083268D01*
X0024070Y0083499D01*
X0023403Y0083839D01*
X0022798Y0084278D01*
X0022269Y0084807D01*
X0021830Y0085413D01*
X0021490Y0086079D01*
X0021259Y0086791D01*
X0021142Y0087529D01*
X0021142Y0087719D01*
X0025710Y0087719D01*
X0025710Y0086915D02*
X0026079Y0086915D01*
X0026079Y0085317D02*
X0025710Y0085317D01*
X0025710Y0083718D02*
X0026079Y0083718D01*
X0028149Y0083718D02*
X0039989Y0083718D01*
X0039989Y0085317D02*
X0029890Y0085317D01*
X0030550Y0086915D02*
X0039989Y0086915D01*
X0039989Y0088514D02*
X0030610Y0088514D01*
X0030103Y0090112D02*
X0039989Y0090112D01*
X0039989Y0091711D02*
X0028740Y0091711D01*
X0027222Y0093309D02*
X0039989Y0093309D01*
X0039989Y0094908D02*
X0029620Y0094908D01*
X0030460Y0096506D02*
X0039989Y0096506D01*
X0039989Y0098105D02*
X0030647Y0098105D01*
X0030293Y0099703D02*
X0039989Y0099703D01*
X0039989Y0101302D02*
X0029218Y0101302D01*
X0028587Y0103874D02*
X0029924Y0105211D01*
X0030647Y0106958D01*
X0030647Y0108849D01*
X0029924Y0110596D01*
X0028587Y0111933D01*
X0026840Y0112656D01*
X0024949Y0112656D01*
X0023202Y0111933D01*
X0021865Y0110596D01*
X0021142Y0108849D01*
X0021142Y0106958D01*
X0021865Y0105211D01*
X0023202Y0103874D01*
X0024949Y0103151D01*
X0026840Y0103151D01*
X0028587Y0103874D01*
X0029211Y0104499D02*
X0039989Y0104499D01*
X0039989Y0102900D02*
X0004568Y0102900D01*
X0004568Y0101302D02*
X0012571Y0101302D01*
X0011496Y0099703D02*
X0004568Y0099703D01*
X0004568Y0098105D02*
X0011142Y0098105D01*
X0011329Y0096506D02*
X0004568Y0096506D01*
X0004568Y0094908D02*
X0012169Y0094908D01*
X0018809Y0091711D02*
X0023049Y0091711D01*
X0021686Y0090112D02*
X0020124Y0090112D01*
X0020647Y0088514D02*
X0021179Y0088514D01*
X0021239Y0086915D02*
X0020629Y0086915D01*
X0019967Y0085317D02*
X0021899Y0085317D01*
X0023640Y0083718D02*
X0018209Y0083718D01*
X0019620Y0094908D02*
X0022169Y0094908D01*
X0021329Y0096506D02*
X0020460Y0096506D01*
X0020647Y0098105D02*
X0021142Y0098105D01*
X0021496Y0099703D02*
X0020293Y0099703D01*
X0019218Y0101302D02*
X0022571Y0101302D01*
X0022578Y0104499D02*
X0019211Y0104499D01*
X0018587Y0103874D02*
X0019924Y0105211D01*
X0020647Y0106958D01*
X0020647Y0108849D01*
X0019924Y0110596D01*
X0018587Y0111933D01*
X0016840Y0112656D01*
X0014949Y0112656D01*
X0013202Y0111933D01*
X0011865Y0110596D01*
X0011142Y0108849D01*
X0011142Y0106958D01*
X0011865Y0105211D01*
X0013202Y0103874D01*
X0014949Y0103151D01*
X0016840Y0103151D01*
X0018587Y0103874D01*
X0020291Y0106097D02*
X0021498Y0106097D01*
X0021142Y0107696D02*
X0020647Y0107696D01*
X0020463Y0109294D02*
X0021326Y0109294D01*
X0022162Y0110893D02*
X0019627Y0110893D01*
X0017238Y0112491D02*
X0024551Y0112491D01*
X0024949Y0113151D02*
X0026840Y0113151D01*
X0028587Y0113874D01*
X0029924Y0115211D01*
X0030647Y0116958D01*
X0030647Y0118849D01*
X0029924Y0120596D01*
X0028587Y0121933D01*
X0026840Y0122656D01*
X0024949Y0122656D01*
X0023202Y0121933D01*
X0021865Y0120596D01*
X0021142Y0118849D01*
X0021142Y0116958D01*
X0021865Y0115211D01*
X0023202Y0113874D01*
X0024949Y0113151D01*
X0022987Y0114090D02*
X0018802Y0114090D01*
X0018587Y0113874D02*
X0019924Y0115211D01*
X0020647Y0116958D01*
X0020647Y0118849D01*
X0019924Y0120596D01*
X0018587Y0121933D01*
X0016840Y0122656D01*
X0014949Y0122656D01*
X0013202Y0121933D01*
X0011865Y0120596D01*
X0011142Y0118849D01*
X0011142Y0116958D01*
X0011865Y0115211D01*
X0013202Y0113874D01*
X0014949Y0113151D01*
X0016840Y0113151D01*
X0018587Y0113874D01*
X0020121Y0115688D02*
X0021668Y0115688D01*
X0021142Y0117287D02*
X0020647Y0117287D01*
X0020632Y0118885D02*
X0021157Y0118885D01*
X0021819Y0120484D02*
X0019970Y0120484D01*
X0018225Y0122082D02*
X0023564Y0122082D01*
X0023669Y0123681D02*
X0018120Y0123681D01*
X0018587Y0123874D02*
X0019924Y0125211D01*
X0020647Y0126958D01*
X0020647Y0128849D01*
X0019924Y0130596D01*
X0018587Y0131933D01*
X0016840Y0132656D01*
X0014949Y0132656D01*
X0013202Y0131933D01*
X0011865Y0130596D01*
X0011142Y0128849D01*
X0011142Y0126958D01*
X0011865Y0125211D01*
X0013202Y0123874D01*
X0014949Y0123151D01*
X0016840Y0123151D01*
X0018587Y0123874D01*
X0019952Y0125279D02*
X0021837Y0125279D01*
X0021865Y0125211D02*
X0023202Y0123874D01*
X0024949Y0123151D01*
X0026840Y0123151D01*
X0028587Y0123874D01*
X0029924Y0125211D01*
X0030647Y0126958D01*
X0030647Y0128849D01*
X0029924Y0130596D01*
X0028587Y0131933D01*
X0026840Y0132656D01*
X0024949Y0132656D01*
X0023202Y0131933D01*
X0021865Y0130596D01*
X0021142Y0128849D01*
X0021142Y0126958D01*
X0021865Y0125211D01*
X0021175Y0126878D02*
X0020614Y0126878D01*
X0020647Y0128476D02*
X0021142Y0128476D01*
X0021650Y0130075D02*
X0020139Y0130075D01*
X0018846Y0131673D02*
X0022943Y0131673D01*
X0023202Y0133874D02*
X0024949Y0133151D01*
X0026840Y0133151D01*
X0028587Y0133874D01*
X0029924Y0135211D01*
X0030647Y0136958D01*
X0030647Y0138849D01*
X0029924Y0140596D01*
X0028587Y0141933D01*
X0026840Y0142656D01*
X0024949Y0142656D01*
X0023202Y0141933D01*
X0021865Y0140596D01*
X0021142Y0138849D01*
X0021142Y0136958D01*
X0021865Y0135211D01*
X0023202Y0133874D01*
X0022206Y0134870D02*
X0019583Y0134870D01*
X0019924Y0135211D02*
X0020647Y0136958D01*
X0020647Y0138849D01*
X0019924Y0140596D01*
X0018587Y0141933D01*
X0016840Y0142656D01*
X0014949Y0142656D01*
X0013202Y0141933D01*
X0011865Y0140596D01*
X0011142Y0138849D01*
X0011142Y0136958D01*
X0011865Y0135211D01*
X0013202Y0133874D01*
X0014949Y0133151D01*
X0016840Y0133151D01*
X0018587Y0133874D01*
X0019924Y0135211D01*
X0020445Y0136469D02*
X0021344Y0136469D01*
X0021142Y0138067D02*
X0020647Y0138067D01*
X0020309Y0139666D02*
X0021480Y0139666D01*
X0022534Y0141265D02*
X0019255Y0141265D01*
X0018587Y0143874D02*
X0019924Y0145211D01*
X0020647Y0146958D01*
X0020647Y0148849D01*
X0019924Y0150596D01*
X0018587Y0151933D01*
X0016840Y0152656D01*
X0014949Y0152656D01*
X0013202Y0151933D01*
X0011865Y0150596D01*
X0011142Y0148849D01*
X0011142Y0146958D01*
X0011865Y0145211D01*
X0013202Y0143874D01*
X0014949Y0143151D01*
X0016840Y0143151D01*
X0018587Y0143874D01*
X0019174Y0144462D02*
X0022615Y0144462D01*
X0023202Y0143874D02*
X0024949Y0143151D01*
X0026840Y0143151D01*
X0028587Y0143874D01*
X0029924Y0145211D01*
X0030647Y0146958D01*
X0030647Y0148849D01*
X0029924Y0150596D01*
X0028587Y0151933D01*
X0026840Y0152656D01*
X0024949Y0152656D01*
X0023202Y0151933D01*
X0021865Y0150596D01*
X0021142Y0148849D01*
X0021142Y0146958D01*
X0021865Y0145211D01*
X0023202Y0143874D01*
X0021514Y0146060D02*
X0020275Y0146060D01*
X0020647Y0147659D02*
X0021142Y0147659D01*
X0021311Y0149257D02*
X0020478Y0149257D01*
X0019664Y0150856D02*
X0022125Y0150856D01*
X0024461Y0152454D02*
X0017328Y0152454D01*
X0016840Y0153151D02*
X0018587Y0153874D01*
X0019924Y0155211D01*
X0020647Y0156958D01*
X0020647Y0158849D01*
X0019924Y0160596D01*
X0018587Y0161933D01*
X0016840Y0162656D01*
X0014949Y0162656D01*
X0013202Y0161933D01*
X0011865Y0160596D01*
X0011142Y0158849D01*
X0011142Y0156958D01*
X0011865Y0155211D01*
X0013202Y0153874D01*
X0014949Y0153151D01*
X0016840Y0153151D01*
X0018765Y0154053D02*
X0023024Y0154053D01*
X0023202Y0153874D02*
X0024949Y0153151D01*
X0026840Y0153151D01*
X0028587Y0153874D01*
X0029924Y0155211D01*
X0030647Y0156958D01*
X0030647Y0158849D01*
X0029924Y0160596D01*
X0028587Y0161933D01*
X0026840Y0162656D01*
X0024949Y0162656D01*
X0023202Y0161933D01*
X0021865Y0160596D01*
X0021142Y0158849D01*
X0021142Y0156958D01*
X0021865Y0155211D01*
X0023202Y0153874D01*
X0021683Y0155651D02*
X0020106Y0155651D01*
X0020647Y0157250D02*
X0021142Y0157250D01*
X0021142Y0158848D02*
X0020647Y0158848D01*
X0019985Y0160447D02*
X0021804Y0160447D01*
X0023474Y0162045D02*
X0018315Y0162045D01*
X0018030Y0163644D02*
X0023759Y0163644D01*
X0023202Y0163874D02*
X0024949Y0163151D01*
X0026840Y0163151D01*
X0028587Y0163874D01*
X0029924Y0165211D01*
X0030647Y0166958D01*
X0030647Y0168849D01*
X0029924Y0170596D01*
X0028587Y0171933D01*
X0026840Y0172656D01*
X0024949Y0172656D01*
X0023202Y0171933D01*
X0021865Y0170596D01*
X0021142Y0168849D01*
X0021142Y0166958D01*
X0021865Y0165211D01*
X0023202Y0163874D01*
X0021853Y0165242D02*
X0019936Y0165242D01*
X0019924Y0165211D02*
X0020647Y0166958D01*
X0020647Y0168849D01*
X0019924Y0170596D01*
X0018587Y0171933D01*
X0016840Y0172656D01*
X0014949Y0172656D01*
X0013202Y0171933D01*
X0011865Y0170596D01*
X0011142Y0168849D01*
X0011142Y0166958D01*
X0011865Y0165211D01*
X0013202Y0163874D01*
X0014949Y0163151D01*
X0016840Y0163151D01*
X0018587Y0163874D01*
X0019924Y0165211D01*
X0020599Y0166841D02*
X0021190Y0166841D01*
X0021142Y0168439D02*
X0020647Y0168439D01*
X0020155Y0170038D02*
X0021634Y0170038D01*
X0022906Y0171636D02*
X0018883Y0171636D01*
X0018587Y0173874D02*
X0019924Y0175211D01*
X0020647Y0176958D01*
X0020647Y0178849D01*
X0019924Y0180596D01*
X0018587Y0181933D01*
X0016840Y0182656D01*
X0014949Y0182656D01*
X0013202Y0181933D01*
X0011865Y0180596D01*
X0011142Y0178849D01*
X0011142Y0176958D01*
X0011865Y0175211D01*
X0013202Y0173874D01*
X0014949Y0173151D01*
X0016840Y0173151D01*
X0018587Y0173874D01*
X0019546Y0174833D02*
X0022243Y0174833D01*
X0021865Y0175211D02*
X0023202Y0173874D01*
X0024949Y0173151D01*
X0026840Y0173151D01*
X0028587Y0173874D01*
X0029924Y0175211D01*
X0030647Y0176958D01*
X0030647Y0178849D01*
X0029924Y0180596D01*
X0028587Y0181933D01*
X0026840Y0182656D01*
X0024949Y0182656D01*
X0023202Y0181933D01*
X0021865Y0180596D01*
X0021142Y0178849D01*
X0021142Y0176958D01*
X0021865Y0175211D01*
X0021360Y0176432D02*
X0020429Y0176432D01*
X0020647Y0178030D02*
X0021142Y0178030D01*
X0021465Y0179629D02*
X0020324Y0179629D01*
X0019292Y0181227D02*
X0022497Y0181227D01*
X0029292Y0181227D02*
X0045514Y0181227D01*
X0045223Y0181107D02*
X0043872Y0179756D01*
X0043142Y0177992D01*
X0043142Y0176083D01*
X0043872Y0174318D01*
X0045223Y0172968D01*
X0046987Y0172237D01*
X0048897Y0172237D01*
X0050661Y0172968D01*
X0052011Y0174318D01*
X0052742Y0176083D01*
X0052742Y0177992D01*
X0052011Y0179756D01*
X0050661Y0181107D01*
X0048897Y0181837D01*
X0046987Y0181837D01*
X0045223Y0181107D01*
X0045566Y0182826D02*
X0004568Y0182826D01*
X0004568Y0184424D02*
X0043829Y0184424D01*
X0043872Y0184318D02*
X0045223Y0182968D01*
X0046987Y0182237D01*
X0048897Y0182237D01*
X0050661Y0182968D01*
X0052011Y0184318D01*
X0052742Y0186083D01*
X0052742Y0187992D01*
X0052011Y0189756D01*
X0050661Y0191107D01*
X0048897Y0191837D01*
X0046987Y0191837D01*
X0045223Y0191107D01*
X0043872Y0189756D01*
X0043142Y0187992D01*
X0043142Y0186083D01*
X0043872Y0184318D01*
X0043166Y0186023D02*
X0004568Y0186023D01*
X0004568Y0187621D02*
X0043142Y0187621D01*
X0043650Y0189220D02*
X0004568Y0189220D01*
X0004568Y0190818D02*
X0044934Y0190818D01*
X0050949Y0190818D02*
X0054934Y0190818D01*
X0055223Y0191107D02*
X0053872Y0189756D01*
X0053142Y0187992D01*
X0053142Y0186083D01*
X0053872Y0184318D01*
X0055223Y0182968D01*
X0056987Y0182237D01*
X0058897Y0182237D01*
X0060661Y0182968D01*
X0062011Y0184318D01*
X0062742Y0186083D01*
X0062742Y0187992D01*
X0062011Y0189756D01*
X0060661Y0191107D01*
X0058897Y0191837D01*
X0056987Y0191837D01*
X0055223Y0191107D01*
X0053650Y0189220D02*
X0052233Y0189220D01*
X0052742Y0187621D02*
X0053142Y0187621D01*
X0053166Y0186023D02*
X0052717Y0186023D01*
X0052055Y0184424D02*
X0053829Y0184424D01*
X0055566Y0182826D02*
X0050317Y0182826D01*
X0050369Y0181227D02*
X0055514Y0181227D01*
X0055223Y0181107D02*
X0053872Y0179756D01*
X0053142Y0177992D01*
X0053142Y0176083D01*
X0053872Y0174318D01*
X0055223Y0172968D01*
X0056987Y0172237D01*
X0058897Y0172237D01*
X0060661Y0172968D01*
X0062011Y0174318D01*
X0062742Y0176083D01*
X0062742Y0177992D01*
X0062011Y0179756D01*
X0060661Y0181107D01*
X0058897Y0181837D01*
X0056987Y0181837D01*
X0055223Y0181107D01*
X0053820Y0179629D02*
X0052064Y0179629D01*
X0052726Y0178030D02*
X0053158Y0178030D01*
X0053142Y0176432D02*
X0052742Y0176432D01*
X0052224Y0174833D02*
X0053659Y0174833D01*
X0054956Y0173235D02*
X0050927Y0173235D01*
X0044956Y0173235D02*
X0027043Y0173235D01*
X0024746Y0173235D02*
X0017043Y0173235D01*
X0014746Y0173235D02*
X0004568Y0173235D01*
X0004568Y0174833D02*
X0012243Y0174833D01*
X0011360Y0176432D02*
X0004568Y0176432D01*
X0004568Y0178030D02*
X0011142Y0178030D01*
X0011465Y0179629D02*
X0004568Y0179629D01*
X0004568Y0181227D02*
X0012497Y0181227D01*
X0012906Y0171636D02*
X0004568Y0171636D01*
X0004568Y0170038D02*
X0011634Y0170038D01*
X0011142Y0168439D02*
X0004568Y0168439D01*
X0004568Y0166841D02*
X0011190Y0166841D01*
X0011853Y0165242D02*
X0004568Y0165242D01*
X0004568Y0163644D02*
X0013759Y0163644D01*
X0013474Y0162045D02*
X0004568Y0162045D01*
X0004568Y0160447D02*
X0011804Y0160447D01*
X0011142Y0158848D02*
X0004568Y0158848D01*
X0004568Y0157250D02*
X0011142Y0157250D01*
X0011683Y0155651D02*
X0004568Y0155651D01*
X0004568Y0154053D02*
X0013024Y0154053D01*
X0014461Y0152454D02*
X0004568Y0152454D01*
X0004568Y0150856D02*
X0012125Y0150856D01*
X0011311Y0149257D02*
X0004568Y0149257D01*
X0004568Y0147659D02*
X0011142Y0147659D01*
X0011514Y0146060D02*
X0004568Y0146060D01*
X0004568Y0144462D02*
X0012615Y0144462D01*
X0012534Y0141265D02*
X0004568Y0141265D01*
X0004568Y0142863D02*
X0045477Y0142863D01*
X0045223Y0142968D02*
X0046987Y0142237D01*
X0048897Y0142237D01*
X0050661Y0142968D01*
X0052011Y0144318D01*
X0052742Y0146083D01*
X0052742Y0147992D01*
X0052011Y0149756D01*
X0050661Y0151107D01*
X0048897Y0151837D01*
X0046987Y0151837D01*
X0045223Y0151107D01*
X0043872Y0149756D01*
X0043142Y0147992D01*
X0043142Y0146083D01*
X0043872Y0144318D01*
X0045223Y0142968D01*
X0043813Y0144462D02*
X0029174Y0144462D01*
X0030275Y0146060D02*
X0043151Y0146060D01*
X0043142Y0147659D02*
X0030647Y0147659D01*
X0030478Y0149257D02*
X0043666Y0149257D01*
X0044972Y0150856D02*
X0029664Y0150856D01*
X0027328Y0152454D02*
X0046515Y0152454D01*
X0046818Y0152356D02*
X0046099Y0152589D01*
X0045426Y0152932D01*
X0044815Y0153376D01*
X0044280Y0153910D01*
X0043836Y0154522D01*
X0043493Y0155195D01*
X0043260Y0155913D01*
X0043142Y0156660D01*
X0043142Y0156837D01*
X0047742Y0156837D01*
X0048142Y0156837D01*
X0048142Y0157237D01*
X0052742Y0157237D01*
X0052742Y0157415D01*
X0052624Y0158161D01*
X0052390Y0158880D01*
X0052047Y0159553D01*
X0051603Y0160164D01*
X0051069Y0160699D01*
X0050457Y0161143D01*
X0049784Y0161486D01*
X0049066Y0161719D01*
X0048320Y0161837D01*
X0048142Y0161837D01*
X0048142Y0157237D01*
X0047742Y0157237D01*
X0047742Y0156837D01*
X0047742Y0152237D01*
X0047564Y0152237D01*
X0046818Y0152356D01*
X0047742Y0152454D02*
X0048142Y0152454D01*
X0048142Y0152237D02*
X0048320Y0152237D01*
X0049066Y0152356D01*
X0049784Y0152589D01*
X0050457Y0152932D01*
X0051069Y0153376D01*
X0051603Y0153910D01*
X0052047Y0154522D01*
X0052390Y0155195D01*
X0052624Y0155913D01*
X0052742Y0156660D01*
X0052742Y0156837D01*
X0048142Y0156837D01*
X0048142Y0152237D01*
X0049369Y0152454D02*
X0056515Y0152454D01*
X0056818Y0152356D02*
X0057564Y0152237D01*
X0057742Y0152237D01*
X0057742Y0156837D01*
X0058142Y0156837D01*
X0058142Y0157237D01*
X0062742Y0157237D01*
X0062742Y0157415D01*
X0062624Y0158161D01*
X0062390Y0158880D01*
X0062047Y0159553D01*
X0061603Y0160164D01*
X0061069Y0160699D01*
X0060457Y0161143D01*
X0059784Y0161486D01*
X0059066Y0161719D01*
X0058320Y0161837D01*
X0058142Y0161837D01*
X0058142Y0157237D01*
X0057742Y0157237D01*
X0057742Y0156837D01*
X0053142Y0156837D01*
X0053142Y0156660D01*
X0053260Y0155913D01*
X0053493Y0155195D01*
X0053836Y0154522D01*
X0054280Y0153910D01*
X0054815Y0153376D01*
X0055426Y0152932D01*
X0056099Y0152589D01*
X0056818Y0152356D01*
X0056987Y0151837D02*
X0055223Y0151107D01*
X0053872Y0149756D01*
X0053142Y0147992D01*
X0053142Y0146083D01*
X0053872Y0144318D01*
X0055223Y0142968D01*
X0056987Y0142237D01*
X0058897Y0142237D01*
X0060661Y0142968D01*
X0062011Y0144318D01*
X0062742Y0146083D01*
X0062742Y0147992D01*
X0062011Y0149756D01*
X0060661Y0151107D01*
X0058897Y0151837D01*
X0056987Y0151837D01*
X0057742Y0152454D02*
X0058142Y0152454D01*
X0058142Y0152237D02*
X0058320Y0152237D01*
X0059066Y0152356D01*
X0059784Y0152589D01*
X0060457Y0152932D01*
X0061069Y0153376D01*
X0061603Y0153910D01*
X0062047Y0154522D01*
X0062390Y0155195D01*
X0062624Y0155913D01*
X0062742Y0156660D01*
X0062742Y0156837D01*
X0058142Y0156837D01*
X0058142Y0152237D01*
X0059369Y0152454D02*
X0066515Y0152454D01*
X0066818Y0152356D02*
X0067564Y0152237D01*
X0067742Y0152237D01*
X0067742Y0156837D01*
X0068142Y0156837D01*
X0068142Y0157237D01*
X0072742Y0157237D01*
X0072742Y0157415D01*
X0072624Y0158161D01*
X0072390Y0158880D01*
X0072047Y0159553D01*
X0071603Y0160164D01*
X0071069Y0160699D01*
X0070457Y0161143D01*
X0069784Y0161486D01*
X0069066Y0161719D01*
X0068320Y0161837D01*
X0068142Y0161837D01*
X0068142Y0157237D01*
X0067742Y0157237D01*
X0067742Y0156837D01*
X0063142Y0156837D01*
X0063142Y0156660D01*
X0063260Y0155913D01*
X0063493Y0155195D01*
X0063836Y0154522D01*
X0064280Y0153910D01*
X0064815Y0153376D01*
X0065426Y0152932D01*
X0066099Y0152589D01*
X0066818Y0152356D01*
X0066987Y0151837D02*
X0065223Y0151107D01*
X0063872Y0149756D01*
X0063142Y0147992D01*
X0063142Y0146083D01*
X0063872Y0144318D01*
X0065223Y0142968D01*
X0066987Y0142237D01*
X0068897Y0142237D01*
X0070661Y0142968D01*
X0072011Y0144318D01*
X0072742Y0146083D01*
X0072742Y0147992D01*
X0072011Y0149756D01*
X0070661Y0151107D01*
X0068897Y0151837D01*
X0066987Y0151837D01*
X0067742Y0152454D02*
X0068142Y0152454D01*
X0068142Y0152237D02*
X0068320Y0152237D01*
X0069066Y0152356D01*
X0069784Y0152589D01*
X0070457Y0152932D01*
X0071069Y0153376D01*
X0071603Y0153910D01*
X0072047Y0154522D01*
X0072390Y0155195D01*
X0072624Y0155913D01*
X0072742Y0156660D01*
X0072742Y0156837D01*
X0068142Y0156837D01*
X0068142Y0152237D01*
X0069369Y0152454D02*
X0076515Y0152454D01*
X0076818Y0152356D02*
X0077564Y0152237D01*
X0077742Y0152237D01*
X0077742Y0156837D01*
X0078142Y0156837D01*
X0078142Y0157237D01*
X0082742Y0157237D01*
X0082742Y0157415D01*
X0082624Y0158161D01*
X0082390Y0158880D01*
X0082047Y0159553D01*
X0081603Y0160164D01*
X0081069Y0160699D01*
X0080457Y0161143D01*
X0079784Y0161486D01*
X0079066Y0161719D01*
X0078320Y0161837D01*
X0078142Y0161837D01*
X0078142Y0157237D01*
X0077742Y0157237D01*
X0077742Y0156837D01*
X0073142Y0156837D01*
X0073142Y0156660D01*
X0073260Y0155913D01*
X0073493Y0155195D01*
X0073836Y0154522D01*
X0074280Y0153910D01*
X0074815Y0153376D01*
X0075426Y0152932D01*
X0076099Y0152589D01*
X0076818Y0152356D01*
X0076987Y0151837D02*
X0075223Y0151107D01*
X0073872Y0149756D01*
X0073142Y0147992D01*
X0073142Y0146083D01*
X0073872Y0144318D01*
X0075223Y0142968D01*
X0076987Y0142237D01*
X0078897Y0142237D01*
X0080661Y0142968D01*
X0082011Y0144318D01*
X0082742Y0146083D01*
X0082742Y0147992D01*
X0082011Y0149756D01*
X0080661Y0151107D01*
X0078897Y0151837D01*
X0076987Y0151837D01*
X0077742Y0152454D02*
X0078142Y0152454D01*
X0078142Y0152237D02*
X0078320Y0152237D01*
X0079066Y0152356D01*
X0079784Y0152589D01*
X0080457Y0152932D01*
X0081069Y0153376D01*
X0081603Y0153910D01*
X0082047Y0154522D01*
X0082390Y0155195D01*
X0082624Y0155913D01*
X0082742Y0156660D01*
X0082742Y0156837D01*
X0078142Y0156837D01*
X0078142Y0152237D01*
X0079369Y0152454D02*
X0086515Y0152454D01*
X0086818Y0152356D02*
X0087564Y0152237D01*
X0087742Y0152237D01*
X0087742Y0156837D01*
X0088142Y0156837D01*
X0088142Y0157237D01*
X0092742Y0157237D01*
X0092742Y0157415D01*
X0092624Y0158161D01*
X0092390Y0158880D01*
X0092047Y0159553D01*
X0091603Y0160164D01*
X0091069Y0160699D01*
X0090457Y0161143D01*
X0089784Y0161486D01*
X0089066Y0161719D01*
X0088320Y0161837D01*
X0088142Y0161837D01*
X0088142Y0157237D01*
X0087742Y0157237D01*
X0087742Y0156837D01*
X0083142Y0156837D01*
X0083142Y0156660D01*
X0083260Y0155913D01*
X0083493Y0155195D01*
X0083836Y0154522D01*
X0084280Y0153910D01*
X0084815Y0153376D01*
X0085426Y0152932D01*
X0086099Y0152589D01*
X0086818Y0152356D01*
X0086987Y0151837D02*
X0085223Y0151107D01*
X0083872Y0149756D01*
X0083142Y0147992D01*
X0083142Y0146083D01*
X0083872Y0144318D01*
X0085223Y0142968D01*
X0086987Y0142237D01*
X0088897Y0142237D01*
X0090661Y0142968D01*
X0092011Y0144318D01*
X0092742Y0146083D01*
X0092742Y0147992D01*
X0092011Y0149756D01*
X0090661Y0151107D01*
X0088897Y0151837D01*
X0086987Y0151837D01*
X0087742Y0152454D02*
X0088142Y0152454D01*
X0088142Y0152237D02*
X0088320Y0152237D01*
X0089066Y0152356D01*
X0089784Y0152589D01*
X0090457Y0152932D01*
X0091069Y0153376D01*
X0091603Y0153910D01*
X0092047Y0154522D01*
X0092390Y0155195D01*
X0092624Y0155913D01*
X0092742Y0156660D01*
X0092742Y0156837D01*
X0088142Y0156837D01*
X0088142Y0152237D01*
X0089369Y0152454D02*
X0096515Y0152454D01*
X0096818Y0152356D02*
X0097564Y0152237D01*
X0097742Y0152237D01*
X0097742Y0156837D01*
X0098142Y0156837D01*
X0098142Y0157237D01*
X0102742Y0157237D01*
X0102742Y0157415D01*
X0102624Y0158161D01*
X0102390Y0158880D01*
X0102047Y0159553D01*
X0101603Y0160164D01*
X0101069Y0160699D01*
X0100457Y0161143D01*
X0099784Y0161486D01*
X0099066Y0161719D01*
X0098320Y0161837D01*
X0098142Y0161837D01*
X0098142Y0157237D01*
X0097742Y0157237D01*
X0097742Y0156837D01*
X0093142Y0156837D01*
X0093142Y0156660D01*
X0093260Y0155913D01*
X0093493Y0155195D01*
X0093836Y0154522D01*
X0094280Y0153910D01*
X0094815Y0153376D01*
X0095426Y0152932D01*
X0096099Y0152589D01*
X0096818Y0152356D01*
X0096987Y0151837D02*
X0095223Y0151107D01*
X0093872Y0149756D01*
X0093142Y0147992D01*
X0093142Y0146083D01*
X0093872Y0144318D01*
X0095223Y0142968D01*
X0096987Y0142237D01*
X0098897Y0142237D01*
X0100661Y0142968D01*
X0102011Y0144318D01*
X0102742Y0146083D01*
X0102742Y0147992D01*
X0102011Y0149756D01*
X0100661Y0151107D01*
X0098897Y0151837D01*
X0096987Y0151837D01*
X0097742Y0152454D02*
X0098142Y0152454D01*
X0098142Y0152237D02*
X0098320Y0152237D01*
X0099066Y0152356D01*
X0099784Y0152589D01*
X0100457Y0152932D01*
X0101069Y0153376D01*
X0101603Y0153910D01*
X0102047Y0154522D01*
X0102390Y0155195D01*
X0102624Y0155913D01*
X0102742Y0156660D01*
X0102742Y0156837D01*
X0098142Y0156837D01*
X0098142Y0152237D01*
X0099369Y0152454D02*
X0180289Y0152454D01*
X0180302Y0152459D02*
X0179134Y0151976D01*
X0178240Y0151082D01*
X0177756Y0149914D01*
X0177756Y0148649D01*
X0178240Y0147481D01*
X0179134Y0146587D01*
X0180302Y0146104D01*
X0181566Y0146104D01*
X0182734Y0146587D01*
X0183628Y0147481D01*
X0184112Y0148649D01*
X0184112Y0149699D01*
X0184239Y0149647D01*
X0185503Y0149647D01*
X0186671Y0150131D01*
X0187565Y0151025D01*
X0188049Y0152193D01*
X0188049Y0153457D01*
X0187565Y0154625D01*
X0186671Y0155519D01*
X0185503Y0156003D01*
X0184239Y0156003D01*
X0183071Y0155519D01*
X0182177Y0154625D01*
X0181693Y0153457D01*
X0181693Y0152407D01*
X0181566Y0152459D01*
X0180302Y0152459D01*
X0181579Y0152454D02*
X0181693Y0152454D01*
X0181940Y0154053D02*
X0101706Y0154053D01*
X0102538Y0155651D02*
X0113134Y0155651D01*
X0113373Y0155552D02*
X0112205Y0156036D01*
X0111311Y0156930D01*
X0110827Y0158098D01*
X0110827Y0159362D01*
X0111311Y0160530D01*
X0112205Y0161424D01*
X0113373Y0161908D01*
X0114637Y0161908D01*
X0115805Y0161424D01*
X0116699Y0160530D01*
X0117183Y0159362D01*
X0117183Y0158098D01*
X0116699Y0156930D01*
X0115805Y0156036D01*
X0114637Y0155552D01*
X0113373Y0155552D01*
X0114875Y0155651D02*
X0183390Y0155651D01*
X0186352Y0155651D02*
X0193504Y0155651D01*
X0193504Y0155342D02*
X0193504Y0156607D01*
X0193988Y0157775D01*
X0194882Y0158669D01*
X0196050Y0159152D01*
X0197314Y0159152D01*
X0198482Y0158669D01*
X0199376Y0157775D01*
X0199860Y0156607D01*
X0199860Y0155342D01*
X0199376Y0154174D01*
X0198482Y0153280D01*
X0197314Y0152796D01*
X0196050Y0152796D01*
X0194882Y0153280D01*
X0193988Y0154174D01*
X0193504Y0155342D01*
X0194109Y0154053D02*
X0187802Y0154053D01*
X0188049Y0152454D02*
X0338373Y0152454D01*
X0338476Y0152206D02*
X0339370Y0151312D01*
X0340538Y0150828D01*
X0341802Y0150828D01*
X0342970Y0151312D01*
X0343864Y0152206D01*
X0344348Y0153374D01*
X0344348Y0154638D01*
X0343864Y0155806D01*
X0342970Y0156700D01*
X0341802Y0157184D01*
X0340538Y0157184D01*
X0339370Y0156700D01*
X0338476Y0155806D01*
X0337992Y0154638D01*
X0337992Y0153374D01*
X0338476Y0152206D01*
X0339046Y0151278D02*
X0337782Y0151278D01*
X0336614Y0150795D01*
X0335720Y0149901D01*
X0335236Y0148733D01*
X0335236Y0147468D01*
X0335720Y0146300D01*
X0336614Y0145406D01*
X0337782Y0144922D01*
X0339046Y0144922D01*
X0340214Y0145406D01*
X0341108Y0146300D01*
X0341592Y0147468D01*
X0341592Y0148733D01*
X0341108Y0149901D01*
X0340214Y0150795D01*
X0339046Y0151278D01*
X0340067Y0150856D02*
X0340471Y0150856D01*
X0341869Y0150856D02*
X0355968Y0150856D01*
X0356102Y0150721D02*
X0357270Y0150237D01*
X0358534Y0150237D01*
X0359703Y0150721D01*
X0360596Y0151615D01*
X0361080Y0152783D01*
X0361080Y0154047D01*
X0360596Y0155216D01*
X0359703Y0156109D01*
X0358534Y0156593D01*
X0357270Y0156593D01*
X0356102Y0156109D01*
X0355208Y0155216D01*
X0354724Y0154047D01*
X0354724Y0152783D01*
X0355208Y0151615D01*
X0356102Y0150721D01*
X0354861Y0152454D02*
X0343967Y0152454D01*
X0344348Y0154053D02*
X0354727Y0154053D01*
X0355644Y0155651D02*
X0343928Y0155651D01*
X0338412Y0155651D02*
X0333136Y0155651D01*
X0332734Y0155249D02*
X0333628Y0156143D01*
X0334112Y0157311D01*
X0334112Y0158575D01*
X0333628Y0159743D01*
X0332734Y0160637D01*
X0331566Y0161121D01*
X0330302Y0161121D01*
X0329134Y0160637D01*
X0328240Y0159743D01*
X0327756Y0158575D01*
X0327756Y0157311D01*
X0328240Y0156143D01*
X0329134Y0155249D01*
X0330302Y0154765D01*
X0331566Y0154765D01*
X0332734Y0155249D01*
X0334086Y0157250D02*
X0364790Y0157250D01*
X0364224Y0157015D02*
X0363043Y0155834D01*
X0362403Y0154290D01*
X0362403Y0152619D01*
X0363043Y0151076D01*
X0364224Y0149894D01*
X0365768Y0149255D01*
X0367439Y0149255D01*
X0368982Y0149894D01*
X0370164Y0151076D01*
X0370803Y0152619D01*
X0370803Y0154290D01*
X0370164Y0155834D01*
X0368982Y0157015D01*
X0367439Y0157655D01*
X0365768Y0157655D01*
X0364224Y0157015D01*
X0362967Y0155651D02*
X0360161Y0155651D01*
X0361078Y0154053D02*
X0362403Y0154053D01*
X0362472Y0152454D02*
X0360944Y0152454D01*
X0359837Y0150856D02*
X0363263Y0150856D01*
X0365762Y0149257D02*
X0341375Y0149257D01*
X0341592Y0147659D02*
X0439976Y0147659D01*
X0439976Y0149257D02*
X0396948Y0149257D01*
X0396934Y0149255D02*
X0397587Y0149358D01*
X0398215Y0149562D01*
X0398804Y0149863D01*
X0399339Y0150251D01*
X0399807Y0150719D01*
X0400195Y0151253D01*
X0400495Y0151842D01*
X0400700Y0152471D01*
X0400803Y0153124D01*
X0400803Y0153455D01*
X0400803Y0153785D01*
X0400700Y0154438D01*
X0400495Y0155067D01*
X0400195Y0155656D01*
X0399807Y0156191D01*
X0399339Y0156658D01*
X0398804Y0157047D01*
X0398215Y0157347D01*
X0397587Y0157551D01*
X0396934Y0157655D01*
X0396603Y0157655D01*
X0396273Y0157655D01*
X0395620Y0157551D01*
X0394991Y0157347D01*
X0394402Y0157047D01*
X0393867Y0156658D01*
X0393400Y0156191D01*
X0393011Y0155656D01*
X0392711Y0155067D01*
X0392507Y0154438D01*
X0392403Y0153785D01*
X0392403Y0153455D01*
X0396603Y0153455D01*
X0396603Y0157655D01*
X0396603Y0153455D01*
X0396603Y0153455D01*
X0396603Y0153455D01*
X0400803Y0153455D01*
X0396603Y0153455D01*
X0396603Y0153455D01*
X0392403Y0153455D01*
X0392403Y0153124D01*
X0392507Y0152471D01*
X0392711Y0151842D01*
X0393011Y0151253D01*
X0393400Y0150719D01*
X0393867Y0150251D01*
X0394402Y0149863D01*
X0394991Y0149562D01*
X0395620Y0149358D01*
X0396273Y0149255D01*
X0396603Y0149255D01*
X0396603Y0153455D01*
X0396603Y0153455D01*
X0396603Y0149255D01*
X0396934Y0149255D01*
X0396603Y0149257D02*
X0396603Y0149257D01*
X0396258Y0149257D02*
X0367444Y0149257D01*
X0367439Y0147655D02*
X0365768Y0147655D01*
X0364224Y0147015D01*
X0363043Y0145834D01*
X0362403Y0144290D01*
X0362403Y0142619D01*
X0363043Y0141076D01*
X0364224Y0139894D01*
X0365768Y0139255D01*
X0367439Y0139255D01*
X0368982Y0139894D01*
X0370164Y0141076D01*
X0370803Y0142619D01*
X0370803Y0144290D01*
X0370164Y0145834D01*
X0368982Y0147015D01*
X0367439Y0147655D01*
X0369938Y0146060D02*
X0393305Y0146060D01*
X0393400Y0146191D02*
X0393011Y0145656D01*
X0392711Y0145067D01*
X0392507Y0144438D01*
X0392403Y0143785D01*
X0392403Y0143455D01*
X0396603Y0143455D01*
X0396603Y0147655D01*
X0396273Y0147655D01*
X0395620Y0147551D01*
X0394991Y0147347D01*
X0394402Y0147047D01*
X0393867Y0146658D01*
X0393400Y0146191D01*
X0392514Y0144462D02*
X0370732Y0144462D01*
X0370803Y0142863D02*
X0392445Y0142863D01*
X0392403Y0143124D02*
X0392507Y0142471D01*
X0392711Y0141842D01*
X0393011Y0141253D01*
X0393400Y0140719D01*
X0393867Y0140251D01*
X0394402Y0139863D01*
X0394991Y0139562D01*
X0395620Y0139358D01*
X0396273Y0139255D01*
X0396603Y0139255D01*
X0396603Y0143455D01*
X0396603Y0143455D01*
X0396603Y0143455D01*
X0396603Y0147655D01*
X0396934Y0147655D01*
X0397587Y0147551D01*
X0398215Y0147347D01*
X0398804Y0147047D01*
X0399339Y0146658D01*
X0399807Y0146191D01*
X0400195Y0145656D01*
X0400495Y0145067D01*
X0400700Y0144438D01*
X0400803Y0143785D01*
X0400803Y0143455D01*
X0396603Y0143455D01*
X0396603Y0143455D01*
X0392403Y0143455D01*
X0392403Y0143124D01*
X0393005Y0141265D02*
X0370242Y0141265D01*
X0368431Y0139666D02*
X0394788Y0139666D01*
X0396603Y0139666D02*
X0396603Y0139666D01*
X0396603Y0139255D02*
X0396934Y0139255D01*
X0397587Y0139358D01*
X0398215Y0139562D01*
X0398804Y0139863D01*
X0399339Y0140251D01*
X0399807Y0140719D01*
X0400195Y0141253D01*
X0400495Y0141842D01*
X0400700Y0142471D01*
X0400803Y0143124D01*
X0400803Y0143455D01*
X0396603Y0143455D01*
X0396603Y0143455D01*
X0396603Y0139255D01*
X0396603Y0137655D02*
X0396273Y0137655D01*
X0395620Y0137551D01*
X0394991Y0137347D01*
X0394402Y0137047D01*
X0393867Y0136658D01*
X0393400Y0136191D01*
X0393011Y0135656D01*
X0392711Y0135067D01*
X0392507Y0134438D01*
X0392403Y0133785D01*
X0392403Y0133455D01*
X0396603Y0133455D01*
X0396603Y0137655D01*
X0396934Y0137655D01*
X0397587Y0137551D01*
X0398215Y0137347D01*
X0398804Y0137047D01*
X0399339Y0136658D01*
X0399807Y0136191D01*
X0400195Y0135656D01*
X0400495Y0135067D01*
X0400700Y0134438D01*
X0400803Y0133785D01*
X0400803Y0133455D01*
X0396603Y0133455D01*
X0396603Y0133455D01*
X0396603Y0133455D01*
X0396603Y0137655D01*
X0396603Y0136469D02*
X0396603Y0136469D01*
X0396603Y0134870D02*
X0396603Y0134870D01*
X0396603Y0133455D02*
X0396603Y0133455D01*
X0392403Y0133455D01*
X0392403Y0133124D01*
X0392507Y0132471D01*
X0392711Y0131842D01*
X0393011Y0131253D01*
X0393400Y0130719D01*
X0393867Y0130251D01*
X0394402Y0129863D01*
X0394991Y0129562D01*
X0395620Y0129358D01*
X0396273Y0129255D01*
X0396603Y0129255D01*
X0396603Y0133455D01*
X0396603Y0133455D01*
X0400803Y0133455D01*
X0400803Y0133124D01*
X0400700Y0132471D01*
X0400495Y0131842D01*
X0400195Y0131253D01*
X0399807Y0130719D01*
X0399339Y0130251D01*
X0398804Y0129863D01*
X0398215Y0129562D01*
X0397587Y0129358D01*
X0396934Y0129255D01*
X0396603Y0129255D01*
X0396603Y0133455D01*
X0396603Y0133272D02*
X0396603Y0133272D01*
X0396603Y0131673D02*
X0396603Y0131673D01*
X0396603Y0130075D02*
X0396603Y0130075D01*
X0396603Y0127655D02*
X0396273Y0127655D01*
X0395620Y0127551D01*
X0394991Y0127347D01*
X0394402Y0127047D01*
X0393867Y0126658D01*
X0393400Y0126191D01*
X0393011Y0125656D01*
X0392711Y0125067D01*
X0392507Y0124438D01*
X0392403Y0123785D01*
X0392403Y0123455D01*
X0396603Y0123455D01*
X0396603Y0127655D01*
X0396934Y0127655D01*
X0397587Y0127551D01*
X0398215Y0127347D01*
X0398804Y0127047D01*
X0399339Y0126658D01*
X0399807Y0126191D01*
X0400195Y0125656D01*
X0400495Y0125067D01*
X0400700Y0124438D01*
X0400803Y0123785D01*
X0400803Y0123455D01*
X0396603Y0123455D01*
X0396603Y0123455D01*
X0396603Y0123455D01*
X0396603Y0127655D01*
X0396603Y0126878D02*
X0396603Y0126878D01*
X0396603Y0125279D02*
X0396603Y0125279D01*
X0396603Y0123681D02*
X0396603Y0123681D01*
X0396603Y0123455D02*
X0396603Y0123455D01*
X0392403Y0123455D01*
X0392403Y0123124D01*
X0392507Y0122471D01*
X0392711Y0121842D01*
X0393011Y0121253D01*
X0393400Y0120719D01*
X0393867Y0120251D01*
X0394402Y0119863D01*
X0394991Y0119562D01*
X0395620Y0119358D01*
X0396273Y0119255D01*
X0396603Y0119255D01*
X0396603Y0123455D01*
X0396603Y0123455D01*
X0400803Y0123455D01*
X0400803Y0123124D01*
X0400700Y0122471D01*
X0400495Y0121842D01*
X0400195Y0121253D01*
X0399807Y0120719D01*
X0399339Y0120251D01*
X0398804Y0119863D01*
X0398215Y0119562D01*
X0397587Y0119358D01*
X0396934Y0119255D01*
X0396603Y0119255D01*
X0396603Y0123455D01*
X0396603Y0122082D02*
X0396603Y0122082D01*
X0396603Y0120484D02*
X0396603Y0120484D01*
X0393634Y0120484D02*
X0369572Y0120484D01*
X0368982Y0119894D02*
X0370164Y0121076D01*
X0370803Y0122619D01*
X0370803Y0124290D01*
X0370164Y0125834D01*
X0368982Y0127015D01*
X0367439Y0127655D01*
X0365768Y0127655D01*
X0364224Y0127015D01*
X0363043Y0125834D01*
X0362403Y0124290D01*
X0362403Y0122619D01*
X0363043Y0121076D01*
X0364224Y0119894D01*
X0365768Y0119255D01*
X0367439Y0119255D01*
X0368982Y0119894D01*
X0370581Y0122082D02*
X0392633Y0122082D01*
X0392403Y0123681D02*
X0370803Y0123681D01*
X0370393Y0125279D02*
X0392819Y0125279D01*
X0394169Y0126878D02*
X0369120Y0126878D01*
X0367439Y0129255D02*
X0368982Y0129894D01*
X0370164Y0131076D01*
X0370803Y0132619D01*
X0370803Y0134290D01*
X0370164Y0135834D01*
X0368982Y0137015D01*
X0367439Y0137655D01*
X0365768Y0137655D01*
X0364224Y0137015D01*
X0363043Y0135834D01*
X0362403Y0134290D01*
X0362403Y0132619D01*
X0363043Y0131076D01*
X0364224Y0129894D01*
X0365768Y0129255D01*
X0367439Y0129255D01*
X0369163Y0130075D02*
X0394110Y0130075D01*
X0392797Y0131673D02*
X0370411Y0131673D01*
X0370803Y0133272D02*
X0392403Y0133272D01*
X0392647Y0134870D02*
X0370563Y0134870D01*
X0369529Y0136469D02*
X0393678Y0136469D01*
X0396603Y0141265D02*
X0396603Y0141265D01*
X0396603Y0142863D02*
X0396603Y0142863D01*
X0396603Y0144462D02*
X0396603Y0144462D01*
X0396603Y0146060D02*
X0396603Y0146060D01*
X0399902Y0146060D02*
X0439976Y0146060D01*
X0439976Y0144462D02*
X0400692Y0144462D01*
X0400762Y0142863D02*
X0439976Y0142863D01*
X0439976Y0141265D02*
X0400201Y0141265D01*
X0398419Y0139666D02*
X0439976Y0139666D01*
X0439976Y0138067D02*
X0359735Y0138067D01*
X0359899Y0137999D02*
X0358731Y0138483D01*
X0357467Y0138483D01*
X0356299Y0137999D01*
X0355405Y0137105D01*
X0354921Y0135937D01*
X0354921Y0134673D01*
X0355405Y0133505D01*
X0356299Y0132611D01*
X0357467Y0132127D01*
X0358731Y0132127D01*
X0359899Y0132611D01*
X0360793Y0133505D01*
X0361277Y0134673D01*
X0361277Y0135937D01*
X0360793Y0137105D01*
X0359899Y0137999D01*
X0361057Y0136469D02*
X0363678Y0136469D01*
X0362644Y0134870D02*
X0361277Y0134870D01*
X0360560Y0133272D02*
X0362403Y0133272D01*
X0362795Y0131673D02*
X0344375Y0131673D01*
X0344652Y0131397D02*
X0343758Y0132291D01*
X0342590Y0132774D01*
X0341325Y0132774D01*
X0340157Y0132291D01*
X0339263Y0131397D01*
X0338780Y0130229D01*
X0338780Y0128964D01*
X0339263Y0127796D01*
X0340157Y0126902D01*
X0341325Y0126419D01*
X0342590Y0126419D01*
X0343758Y0126902D01*
X0344652Y0127796D01*
X0345135Y0128964D01*
X0345135Y0130229D01*
X0344652Y0131397D01*
X0345135Y0130075D02*
X0364043Y0130075D01*
X0364087Y0126878D02*
X0361474Y0126878D01*
X0361474Y0126882D02*
X0360990Y0128050D01*
X0360096Y0128944D01*
X0358928Y0129428D01*
X0357664Y0129428D01*
X0356496Y0128944D01*
X0355602Y0128050D01*
X0355118Y0126882D01*
X0355118Y0125618D01*
X0355602Y0124450D01*
X0356496Y0123556D01*
X0357664Y0123072D01*
X0358928Y0123072D01*
X0360096Y0123556D01*
X0360990Y0124450D01*
X0361474Y0125618D01*
X0361474Y0126882D01*
X0361334Y0125279D02*
X0362813Y0125279D01*
X0362403Y0123681D02*
X0360221Y0123681D01*
X0362626Y0122082D02*
X0345135Y0122082D01*
X0345135Y0121484D02*
X0345135Y0122748D01*
X0344652Y0123916D01*
X0343758Y0124810D01*
X0342590Y0125294D01*
X0341325Y0125294D01*
X0340157Y0124810D01*
X0339263Y0123916D01*
X0338997Y0123272D01*
X0338640Y0123629D01*
X0337472Y0124113D01*
X0336207Y0124113D01*
X0335039Y0123629D01*
X0334145Y0122735D01*
X0333661Y0121567D01*
X0333661Y0120303D01*
X0334133Y0119163D01*
X0333661Y0118024D01*
X0333661Y0116760D01*
X0334145Y0115592D01*
X0335039Y0114698D01*
X0336207Y0114214D01*
X0337472Y0114214D01*
X0338640Y0114698D01*
X0339112Y0115170D01*
X0339263Y0114804D01*
X0340157Y0113910D01*
X0341325Y0113426D01*
X0342590Y0113426D01*
X0343758Y0113910D01*
X0344652Y0114804D01*
X0345135Y0115972D01*
X0345135Y0117236D01*
X0344652Y0118404D01*
X0343758Y0119298D01*
X0343609Y0119360D01*
X0343758Y0119422D01*
X0344652Y0120316D01*
X0345135Y0121484D01*
X0344721Y0120484D02*
X0363634Y0120484D01*
X0356371Y0123681D02*
X0344749Y0123681D01*
X0342625Y0125279D02*
X0355258Y0125279D01*
X0355118Y0126878D02*
X0343699Y0126878D01*
X0344933Y0128476D02*
X0356028Y0128476D01*
X0360564Y0128476D02*
X0439976Y0128476D01*
X0439976Y0126878D02*
X0399037Y0126878D01*
X0400387Y0125279D02*
X0439976Y0125279D01*
X0439976Y0123681D02*
X0400803Y0123681D01*
X0400573Y0122082D02*
X0439976Y0122082D01*
X0439976Y0120484D02*
X0399572Y0120484D01*
X0399097Y0130075D02*
X0439976Y0130075D01*
X0439976Y0131673D02*
X0400409Y0131673D01*
X0400803Y0133272D02*
X0439976Y0133272D01*
X0439976Y0134870D02*
X0400559Y0134870D01*
X0399529Y0136469D02*
X0439976Y0136469D01*
X0439976Y0150856D02*
X0399906Y0150856D01*
X0400694Y0152454D02*
X0439976Y0152454D01*
X0439976Y0154053D02*
X0400761Y0154053D01*
X0400198Y0155651D02*
X0439976Y0155651D01*
X0439976Y0157250D02*
X0398407Y0157250D01*
X0396603Y0157250D02*
X0396603Y0157250D01*
X0396603Y0155651D02*
X0396603Y0155651D01*
X0396603Y0154053D02*
X0396603Y0154053D01*
X0396603Y0152454D02*
X0396603Y0152454D01*
X0396603Y0150856D02*
X0396603Y0150856D01*
X0393300Y0150856D02*
X0369944Y0150856D01*
X0370735Y0152454D02*
X0392512Y0152454D01*
X0392445Y0154053D02*
X0370803Y0154053D01*
X0370239Y0155651D02*
X0393009Y0155651D01*
X0394800Y0157250D02*
X0368417Y0157250D01*
X0355310Y0167226D02*
X0354250Y0166165D01*
X0352865Y0165592D01*
X0351365Y0165592D01*
X0349980Y0166165D01*
X0348920Y0167226D01*
X0348346Y0168611D01*
X0348346Y0170110D01*
X0348920Y0171495D01*
X0349980Y0172555D01*
X0351365Y0173129D01*
X0352865Y0173129D01*
X0354250Y0172555D01*
X0355310Y0171495D01*
X0355883Y0170110D01*
X0355883Y0168611D01*
X0355310Y0167226D01*
X0354925Y0166841D02*
X0439976Y0166841D01*
X0439976Y0168439D02*
X0355812Y0168439D01*
X0355883Y0170038D02*
X0439976Y0170038D01*
X0439976Y0171636D02*
X0355168Y0171636D01*
X0349305Y0166841D02*
X0282287Y0166841D01*
X0282348Y0166693D02*
X0281617Y0168457D01*
X0280267Y0169807D01*
X0278503Y0170538D01*
X0276593Y0170538D01*
X0274829Y0169807D01*
X0273479Y0168457D01*
X0272748Y0166693D01*
X0272748Y0164783D01*
X0273479Y0163019D01*
X0274829Y0161669D01*
X0276593Y0160938D01*
X0278503Y0160938D01*
X0280267Y0161669D01*
X0281617Y0163019D01*
X0282348Y0164783D01*
X0282348Y0166693D01*
X0282348Y0165242D02*
X0439976Y0165242D01*
X0439976Y0163644D02*
X0281876Y0163644D01*
X0280643Y0162045D02*
X0439976Y0162045D01*
X0439976Y0160447D02*
X0332924Y0160447D01*
X0333999Y0158848D02*
X0439976Y0158848D01*
X0439976Y0173235D02*
X0331004Y0173235D01*
X0330903Y0173134D02*
X0331963Y0174194D01*
X0332537Y0175579D01*
X0332537Y0177078D01*
X0331963Y0178463D01*
X0330903Y0179524D01*
X0329518Y0180097D01*
X0328019Y0180097D01*
X0326634Y0179524D01*
X0325574Y0178463D01*
X0325000Y0177078D01*
X0325000Y0175579D01*
X0325574Y0174194D01*
X0326634Y0173134D01*
X0328019Y0172560D01*
X0329518Y0172560D01*
X0330903Y0173134D01*
X0332228Y0174833D02*
X0439976Y0174833D01*
X0439976Y0176432D02*
X0332537Y0176432D01*
X0332143Y0178030D02*
X0439976Y0178030D01*
X0439976Y0179629D02*
X0330649Y0179629D01*
X0328077Y0182245D02*
X0328561Y0183413D01*
X0328561Y0184677D01*
X0328077Y0185845D01*
X0327183Y0186739D01*
X0326015Y0187223D01*
X0324751Y0187223D01*
X0323583Y0186739D01*
X0322689Y0185845D01*
X0322205Y0184677D01*
X0322205Y0183413D01*
X0322689Y0182245D01*
X0323583Y0181351D01*
X0324751Y0180867D01*
X0326015Y0180867D01*
X0327183Y0181351D01*
X0328077Y0182245D01*
X0328317Y0182826D02*
X0439976Y0182826D01*
X0439976Y0184424D02*
X0328561Y0184424D01*
X0327899Y0186023D02*
X0439976Y0186023D01*
X0439976Y0187621D02*
X0335579Y0187621D01*
X0335490Y0187532D02*
X0336384Y0188426D01*
X0336868Y0189594D01*
X0336868Y0190859D01*
X0336384Y0192027D01*
X0335490Y0192921D01*
X0334322Y0193404D01*
X0333058Y0193404D01*
X0331890Y0192921D01*
X0330996Y0192027D01*
X0330512Y0190859D01*
X0330512Y0189594D01*
X0330996Y0188426D01*
X0331890Y0187532D01*
X0333058Y0187048D01*
X0334322Y0187048D01*
X0335490Y0187532D01*
X0336713Y0189220D02*
X0439976Y0189220D01*
X0439976Y0190818D02*
X0336868Y0190818D01*
X0335994Y0192417D02*
X0439976Y0192417D01*
X0439976Y0194015D02*
X0243123Y0194015D01*
X0243167Y0194122D02*
X0242683Y0192954D01*
X0241789Y0192060D01*
X0240621Y0191576D01*
X0239357Y0191576D01*
X0238189Y0192060D01*
X0237295Y0192954D01*
X0236811Y0194122D01*
X0236811Y0195386D01*
X0237295Y0196554D01*
X0238189Y0197448D01*
X0239357Y0197932D01*
X0240621Y0197932D01*
X0241789Y0197448D01*
X0242683Y0196554D01*
X0243167Y0195386D01*
X0243167Y0194122D01*
X0243073Y0195614D02*
X0439976Y0195614D01*
X0439976Y0197212D02*
X0242025Y0197212D01*
X0237953Y0197212D02*
X0122941Y0197212D01*
X0122876Y0197367D02*
X0121539Y0198704D01*
X0119793Y0199428D01*
X0117902Y0199428D01*
X0116155Y0198704D01*
X0114818Y0197367D01*
X0114094Y0195621D01*
X0114094Y0193730D01*
X0114818Y0191983D01*
X0116155Y0190646D01*
X0117902Y0189922D01*
X0119793Y0189922D01*
X0121539Y0190646D01*
X0122876Y0191983D01*
X0123600Y0193730D01*
X0123600Y0195621D01*
X0122876Y0197367D01*
X0123600Y0195614D02*
X0236905Y0195614D01*
X0236855Y0194015D02*
X0123600Y0194015D01*
X0123056Y0192417D02*
X0237832Y0192417D01*
X0242146Y0192417D02*
X0331386Y0192417D01*
X0330512Y0190818D02*
X0182868Y0190818D01*
X0182734Y0190952D02*
X0181566Y0191436D01*
X0180302Y0191436D01*
X0179134Y0190952D01*
X0178240Y0190058D01*
X0177756Y0188890D01*
X0177756Y0187626D01*
X0178240Y0186458D01*
X0179134Y0185564D01*
X0180302Y0185080D01*
X0181566Y0185080D01*
X0182734Y0185564D01*
X0183628Y0186458D01*
X0184112Y0187626D01*
X0184112Y0188890D01*
X0183628Y0190058D01*
X0182734Y0190952D01*
X0183975Y0189220D02*
X0330667Y0189220D01*
X0331800Y0187621D02*
X0188520Y0187621D01*
X0189033Y0187409D02*
X0187865Y0187893D01*
X0186601Y0187893D01*
X0185433Y0187409D01*
X0184539Y0186515D01*
X0184055Y0185347D01*
X0184055Y0184110D01*
X0183464Y0183865D01*
X0182570Y0182971D01*
X0182087Y0181803D01*
X0182087Y0180539D01*
X0182570Y0179371D01*
X0183464Y0178477D01*
X0184632Y0177993D01*
X0185897Y0177993D01*
X0187065Y0178477D01*
X0187959Y0179371D01*
X0188443Y0180539D01*
X0188443Y0181776D01*
X0189033Y0182020D01*
X0189927Y0182914D01*
X0190411Y0184082D01*
X0190411Y0185347D01*
X0189927Y0186515D01*
X0189033Y0187409D01*
X0190131Y0186023D02*
X0322866Y0186023D01*
X0322205Y0184424D02*
X0190411Y0184424D01*
X0189839Y0182826D02*
X0322448Y0182826D01*
X0323881Y0181227D02*
X0304302Y0181227D01*
X0304328Y0181216D02*
X0302943Y0181790D01*
X0301444Y0181790D01*
X0300059Y0181216D01*
X0298999Y0180156D01*
X0298425Y0178771D01*
X0298425Y0177272D01*
X0298999Y0175887D01*
X0300059Y0174827D01*
X0301444Y0174253D01*
X0302943Y0174253D01*
X0304328Y0174827D01*
X0305388Y0175887D01*
X0305962Y0177272D01*
X0305962Y0178771D01*
X0305388Y0180156D01*
X0304328Y0181216D01*
X0305607Y0179629D02*
X0326888Y0179629D01*
X0326884Y0181227D02*
X0439976Y0181227D01*
X0439976Y0198811D02*
X0121282Y0198811D01*
X0120968Y0200409D02*
X0439976Y0200409D01*
X0439976Y0202008D02*
X0122887Y0202008D01*
X0122876Y0201983D02*
X0123600Y0203730D01*
X0123600Y0205621D01*
X0122876Y0207367D01*
X0121539Y0208704D01*
X0119793Y0209428D01*
X0117902Y0209428D01*
X0116155Y0208704D01*
X0114818Y0207367D01*
X0114094Y0205621D01*
X0114094Y0203730D01*
X0114818Y0201983D01*
X0116155Y0200646D01*
X0117902Y0199922D01*
X0119793Y0199922D01*
X0121539Y0200646D01*
X0122876Y0201983D01*
X0123549Y0203606D02*
X0162095Y0203606D01*
X0163575Y0202993D02*
X0160598Y0204226D01*
X0158320Y0206505D01*
X0157087Y0209481D01*
X0157087Y0212704D01*
X0158320Y0215680D01*
X0160598Y0217959D01*
X0163575Y0219192D01*
X0166797Y0219192D01*
X0169774Y0217959D01*
X0172052Y0215680D01*
X0173285Y0212704D01*
X0173285Y0209481D01*
X0172052Y0206505D01*
X0169774Y0204226D01*
X0166797Y0202993D01*
X0163575Y0202993D01*
X0159619Y0205205D02*
X0123600Y0205205D01*
X0123110Y0206803D02*
X0158196Y0206803D01*
X0157534Y0208402D02*
X0121842Y0208402D01*
X0121539Y0210646D02*
X0122876Y0211983D01*
X0123600Y0213730D01*
X0123600Y0215621D01*
X0122876Y0217367D01*
X0121539Y0218704D01*
X0119793Y0219428D01*
X0117902Y0219428D01*
X0116155Y0218704D01*
X0114818Y0217367D01*
X0114094Y0215621D01*
X0114094Y0213730D01*
X0114818Y0211983D01*
X0116155Y0210646D01*
X0117902Y0209922D01*
X0119793Y0209922D01*
X0121539Y0210646D01*
X0122492Y0211599D02*
X0157087Y0211599D01*
X0157087Y0210000D02*
X0119981Y0210000D01*
X0117713Y0210000D02*
X0109981Y0210000D01*
X0109793Y0209922D02*
X0111539Y0210646D01*
X0112876Y0211983D01*
X0113600Y0213730D01*
X0113600Y0215621D01*
X0112876Y0217367D01*
X0111539Y0218704D01*
X0109793Y0219428D01*
X0107902Y0219428D01*
X0106155Y0218704D01*
X0104818Y0217367D01*
X0104094Y0215621D01*
X0104094Y0213730D01*
X0104818Y0211983D01*
X0106155Y0210646D01*
X0107902Y0209922D01*
X0109793Y0209922D01*
X0109793Y0209428D02*
X0107902Y0209428D01*
X0106155Y0208704D01*
X0104818Y0207367D01*
X0104094Y0205621D01*
X0104094Y0203730D01*
X0104818Y0201983D01*
X0106155Y0200646D01*
X0107902Y0199922D01*
X0109793Y0199922D01*
X0111539Y0200646D01*
X0112876Y0201983D01*
X0113600Y0203730D01*
X0113600Y0205621D01*
X0112876Y0207367D01*
X0111539Y0208704D01*
X0109793Y0209428D01*
X0107713Y0210000D02*
X0091986Y0210000D01*
X0091986Y0210150D02*
X0091986Y0208886D01*
X0091502Y0207718D01*
X0090608Y0206824D01*
X0089440Y0206340D01*
X0088176Y0206340D01*
X0087008Y0206824D01*
X0086114Y0207718D01*
X0085630Y0208886D01*
X0085630Y0210150D01*
X0086114Y0211318D01*
X0087008Y0212212D01*
X0088176Y0212696D01*
X0089440Y0212696D01*
X0090608Y0212212D01*
X0091502Y0211318D01*
X0091986Y0210150D01*
X0091221Y0211599D02*
X0105202Y0211599D01*
X0104315Y0213198D02*
X0083633Y0213198D01*
X0084112Y0212999D02*
X0082944Y0213483D01*
X0081680Y0213483D01*
X0080512Y0212999D01*
X0079618Y0212105D01*
X0079134Y0210937D01*
X0079134Y0209673D01*
X0079618Y0208505D01*
X0080512Y0207611D01*
X0081680Y0207127D01*
X0082944Y0207127D01*
X0084112Y0207611D01*
X0085006Y0208505D01*
X0085490Y0209673D01*
X0085490Y0210937D01*
X0085006Y0212105D01*
X0084112Y0212999D01*
X0085216Y0211599D02*
X0086395Y0211599D01*
X0085630Y0210000D02*
X0085490Y0210000D01*
X0085830Y0208402D02*
X0084903Y0208402D01*
X0087056Y0206803D02*
X0004568Y0206803D01*
X0004568Y0205205D02*
X0025988Y0205205D01*
X0026074Y0205412D02*
X0025591Y0204244D01*
X0025591Y0202980D01*
X0026074Y0201812D01*
X0026968Y0200918D01*
X0028136Y0200434D01*
X0029401Y0200434D01*
X0030569Y0200918D01*
X0031463Y0201812D01*
X0031918Y0202912D01*
X0032374Y0201812D01*
X0033268Y0200918D01*
X0034436Y0200434D01*
X0035700Y0200434D01*
X0036868Y0200918D01*
X0037762Y0201812D01*
X0038217Y0202912D01*
X0038673Y0201812D01*
X0039567Y0200918D01*
X0040735Y0200434D01*
X0041999Y0200434D01*
X0043167Y0200918D01*
X0044061Y0201812D01*
X0044545Y0202980D01*
X0044545Y0204244D01*
X0044061Y0205412D01*
X0043167Y0206306D01*
X0041999Y0206790D01*
X0040735Y0206790D01*
X0039567Y0206306D01*
X0038673Y0205412D01*
X0038217Y0204313D01*
X0037762Y0205412D01*
X0036868Y0206306D01*
X0035700Y0206790D01*
X0034436Y0206790D01*
X0033268Y0206306D01*
X0032374Y0205412D01*
X0031918Y0204313D01*
X0031463Y0205412D01*
X0030569Y0206306D01*
X0029401Y0206790D01*
X0028136Y0206790D01*
X0026968Y0206306D01*
X0026074Y0205412D01*
X0025591Y0203606D02*
X0004568Y0203606D01*
X0004568Y0202008D02*
X0025993Y0202008D01*
X0031544Y0202008D02*
X0032292Y0202008D01*
X0032288Y0205205D02*
X0031549Y0205205D01*
X0037848Y0205205D02*
X0038587Y0205205D01*
X0038592Y0202008D02*
X0037843Y0202008D01*
X0044142Y0202008D02*
X0058400Y0202008D01*
X0058645Y0202597D02*
X0058071Y0201212D01*
X0058071Y0199713D01*
X0058645Y0198328D01*
X0059705Y0197268D01*
X0061090Y0196694D01*
X0062589Y0196694D01*
X0063974Y0197268D01*
X0065034Y0198328D01*
X0065608Y0199713D01*
X0065608Y0201212D01*
X0065034Y0202597D01*
X0063974Y0203657D01*
X0062589Y0204231D01*
X0061090Y0204231D01*
X0059705Y0203657D01*
X0058645Y0202597D01*
X0059654Y0203606D02*
X0044545Y0203606D01*
X0044147Y0205205D02*
X0104094Y0205205D01*
X0104146Y0203606D02*
X0064025Y0203606D01*
X0065278Y0202008D02*
X0104808Y0202008D01*
X0106726Y0200409D02*
X0065608Y0200409D01*
X0065234Y0198811D02*
X0106412Y0198811D01*
X0106155Y0198704D02*
X0104818Y0197367D01*
X0104094Y0195621D01*
X0104094Y0193730D01*
X0104818Y0191983D01*
X0106155Y0190646D01*
X0107902Y0189922D01*
X0109793Y0189922D01*
X0111539Y0190646D01*
X0112876Y0191983D01*
X0113600Y0193730D01*
X0113600Y0195621D01*
X0112876Y0197367D01*
X0111539Y0198704D01*
X0109793Y0199428D01*
X0107902Y0199428D01*
X0106155Y0198704D01*
X0104754Y0197212D02*
X0063840Y0197212D01*
X0059838Y0197212D02*
X0004568Y0197212D01*
X0004568Y0195614D02*
X0104094Y0195614D01*
X0104094Y0194015D02*
X0004568Y0194015D01*
X0004568Y0192417D02*
X0104638Y0192417D01*
X0105983Y0190818D02*
X0090949Y0190818D01*
X0090661Y0191107D02*
X0092011Y0189756D01*
X0092742Y0187992D01*
X0092742Y0186083D01*
X0092011Y0184318D01*
X0090661Y0182968D01*
X0088897Y0182237D01*
X0086987Y0182237D01*
X0085223Y0182968D01*
X0083872Y0184318D01*
X0083142Y0186083D01*
X0083142Y0187992D01*
X0083872Y0189756D01*
X0085223Y0191107D01*
X0086987Y0191837D01*
X0088897Y0191837D01*
X0090661Y0191107D01*
X0092233Y0189220D02*
X0107399Y0189220D01*
X0107902Y0189428D02*
X0106155Y0188704D01*
X0104818Y0187367D01*
X0104094Y0185621D01*
X0104094Y0183730D01*
X0104818Y0181983D01*
X0106155Y0180646D01*
X0107902Y0179922D01*
X0109793Y0179922D01*
X0111539Y0180646D01*
X0112876Y0181983D01*
X0113600Y0183730D01*
X0113600Y0185621D01*
X0112876Y0187367D01*
X0111539Y0188704D01*
X0109793Y0189428D01*
X0107902Y0189428D01*
X0110295Y0189220D02*
X0117399Y0189220D01*
X0117902Y0189428D02*
X0116155Y0188704D01*
X0114818Y0187367D01*
X0114094Y0185621D01*
X0114094Y0183730D01*
X0114818Y0181983D01*
X0116155Y0180646D01*
X0117902Y0179922D01*
X0119793Y0179922D01*
X0121539Y0180646D01*
X0122876Y0181983D01*
X0123600Y0183730D01*
X0123600Y0185621D01*
X0122876Y0187367D01*
X0121539Y0188704D01*
X0119793Y0189428D01*
X0117902Y0189428D01*
X0115983Y0190818D02*
X0111712Y0190818D01*
X0113056Y0192417D02*
X0114638Y0192417D01*
X0114094Y0194015D02*
X0113600Y0194015D01*
X0113600Y0195614D02*
X0114094Y0195614D01*
X0114754Y0197212D02*
X0112941Y0197212D01*
X0111282Y0198811D02*
X0116412Y0198811D01*
X0116726Y0200409D02*
X0110968Y0200409D01*
X0112887Y0202008D02*
X0114808Y0202008D01*
X0114146Y0203606D02*
X0113549Y0203606D01*
X0113600Y0205205D02*
X0114094Y0205205D01*
X0114584Y0206803D02*
X0113110Y0206803D01*
X0111842Y0208402D02*
X0115853Y0208402D01*
X0115202Y0211599D02*
X0112492Y0211599D01*
X0113380Y0213198D02*
X0114315Y0213198D01*
X0114094Y0214796D02*
X0113600Y0214796D01*
X0113279Y0216395D02*
X0114415Y0216395D01*
X0115444Y0217993D02*
X0112251Y0217993D01*
X0111539Y0220646D02*
X0112876Y0221983D01*
X0113600Y0223730D01*
X0113600Y0225621D01*
X0112876Y0227367D01*
X0111539Y0228704D01*
X0109793Y0229428D01*
X0107902Y0229428D01*
X0106155Y0228704D01*
X0104818Y0227367D01*
X0104094Y0225621D01*
X0104094Y0223730D01*
X0104818Y0221983D01*
X0106155Y0220646D01*
X0107902Y0219922D01*
X0109793Y0219922D01*
X0111539Y0220646D01*
X0112084Y0221190D02*
X0115611Y0221190D01*
X0116155Y0220646D02*
X0114818Y0221983D01*
X0114094Y0223730D01*
X0114094Y0225621D01*
X0114818Y0227367D01*
X0116155Y0228704D01*
X0117902Y0229428D01*
X0119793Y0229428D01*
X0121539Y0228704D01*
X0122876Y0227367D01*
X0123600Y0225621D01*
X0123600Y0223730D01*
X0122876Y0221983D01*
X0121539Y0220646D01*
X0119793Y0219922D01*
X0117902Y0219922D01*
X0116155Y0220646D01*
X0114484Y0222789D02*
X0113210Y0222789D01*
X0113600Y0224387D02*
X0114094Y0224387D01*
X0114246Y0225986D02*
X0113449Y0225986D01*
X0112660Y0227584D02*
X0115035Y0227584D01*
X0117310Y0229183D02*
X0110385Y0229183D01*
X0107310Y0229183D02*
X0044713Y0229183D01*
X0044713Y0230781D02*
X0156810Y0230781D01*
X0156693Y0230498D02*
X0156693Y0227120D01*
X0157986Y0223998D01*
X0160375Y0221609D01*
X0163496Y0220316D01*
X0166875Y0220316D01*
X0169997Y0221609D01*
X0172386Y0223998D01*
X0173679Y0227120D01*
X0173679Y0230498D01*
X0172386Y0233620D01*
X0169997Y0236009D01*
X0166875Y0237302D01*
X0163496Y0237302D01*
X0160375Y0236009D01*
X0157986Y0233620D01*
X0156693Y0230498D01*
X0156693Y0229183D02*
X0120385Y0229183D01*
X0122660Y0227584D02*
X0156693Y0227584D01*
X0157163Y0225986D02*
X0123449Y0225986D01*
X0123600Y0224387D02*
X0157825Y0224387D01*
X0159195Y0222789D02*
X0123210Y0222789D01*
X0122084Y0221190D02*
X0161387Y0221190D01*
X0160681Y0217993D02*
X0122251Y0217993D01*
X0123279Y0216395D02*
X0159034Y0216395D01*
X0157953Y0214796D02*
X0123600Y0214796D01*
X0123380Y0213198D02*
X0157291Y0213198D01*
X0169691Y0217993D02*
X0221705Y0217993D01*
X0221622Y0217959D02*
X0219343Y0215680D01*
X0218110Y0212704D01*
X0218110Y0209481D01*
X0219343Y0206505D01*
X0221622Y0204226D01*
X0224598Y0202993D01*
X0227820Y0202993D01*
X0230797Y0204226D01*
X0233076Y0206505D01*
X0234309Y0209481D01*
X0234309Y0212704D01*
X0233076Y0215680D01*
X0230797Y0217959D01*
X0227820Y0219192D01*
X0224598Y0219192D01*
X0221622Y0217959D01*
X0220057Y0216395D02*
X0171338Y0216395D01*
X0172418Y0214796D02*
X0218977Y0214796D01*
X0218315Y0213198D02*
X0173080Y0213198D01*
X0173285Y0211599D02*
X0218110Y0211599D01*
X0218110Y0210000D02*
X0173285Y0210000D01*
X0172838Y0208402D02*
X0218557Y0208402D01*
X0219220Y0206803D02*
X0172176Y0206803D01*
X0170752Y0205205D02*
X0220643Y0205205D01*
X0223118Y0203606D02*
X0168277Y0203606D01*
X0179000Y0190818D02*
X0121712Y0190818D01*
X0120295Y0189220D02*
X0177893Y0189220D01*
X0177758Y0187621D02*
X0122623Y0187621D01*
X0123433Y0186023D02*
X0178675Y0186023D01*
X0183193Y0186023D02*
X0184335Y0186023D01*
X0184110Y0187621D02*
X0185946Y0187621D01*
X0184055Y0184424D02*
X0123600Y0184424D01*
X0123226Y0182826D02*
X0182510Y0182826D01*
X0182087Y0181227D02*
X0178513Y0181227D01*
X0178797Y0181109D02*
X0177629Y0181593D01*
X0176365Y0181593D01*
X0175197Y0181109D01*
X0174303Y0180216D01*
X0173819Y0179047D01*
X0173819Y0177783D01*
X0174303Y0176615D01*
X0175197Y0175721D01*
X0176365Y0175237D01*
X0177629Y0175237D01*
X0178797Y0175721D01*
X0179691Y0176615D01*
X0180175Y0177783D01*
X0180175Y0179047D01*
X0179691Y0180216D01*
X0178797Y0181109D01*
X0179934Y0179629D02*
X0182464Y0179629D01*
X0184543Y0178030D02*
X0180175Y0178030D01*
X0179508Y0176432D02*
X0187795Y0176432D01*
X0187795Y0176803D02*
X0187795Y0175304D01*
X0188369Y0173918D01*
X0189429Y0172858D01*
X0190814Y0172285D01*
X0192313Y0172285D01*
X0193698Y0172858D01*
X0194759Y0173918D01*
X0195332Y0175304D01*
X0195332Y0176803D01*
X0194759Y0178188D01*
X0193698Y0179248D01*
X0192313Y0179822D01*
X0190814Y0179822D01*
X0189429Y0179248D01*
X0188369Y0178188D01*
X0187795Y0176803D01*
X0188304Y0178030D02*
X0185986Y0178030D01*
X0188065Y0179629D02*
X0190349Y0179629D01*
X0192779Y0179629D02*
X0243745Y0179629D01*
X0243504Y0179047D02*
X0243504Y0177783D01*
X0243988Y0176615D01*
X0244882Y0175721D01*
X0246050Y0175237D01*
X0247314Y0175237D01*
X0248482Y0175721D01*
X0249376Y0176615D01*
X0249860Y0177783D01*
X0249860Y0179047D01*
X0249376Y0180216D01*
X0248482Y0181109D01*
X0247314Y0181593D01*
X0246050Y0181593D01*
X0244882Y0181109D01*
X0243988Y0180216D01*
X0243504Y0179047D01*
X0243504Y0178030D02*
X0194824Y0178030D01*
X0195332Y0176432D02*
X0239869Y0176432D01*
X0240215Y0176575D02*
X0239047Y0176091D01*
X0238153Y0175197D01*
X0237669Y0174029D01*
X0237669Y0172765D01*
X0238153Y0171597D01*
X0239047Y0170703D01*
X0240215Y0170219D01*
X0241479Y0170219D01*
X0242647Y0170703D01*
X0243541Y0171597D01*
X0244025Y0172765D01*
X0244025Y0174029D01*
X0243541Y0175197D01*
X0242647Y0176091D01*
X0241479Y0176575D01*
X0240215Y0176575D01*
X0241826Y0176432D02*
X0244171Y0176432D01*
X0243692Y0174833D02*
X0252748Y0174833D01*
X0252748Y0174783D02*
X0253479Y0173019D01*
X0254829Y0171669D01*
X0256593Y0170938D01*
X0258503Y0170938D01*
X0260267Y0171669D01*
X0261617Y0173019D01*
X0262348Y0174783D01*
X0262348Y0176693D01*
X0261617Y0178457D01*
X0260267Y0179807D01*
X0258503Y0180538D01*
X0256593Y0180538D01*
X0254829Y0179807D01*
X0253479Y0178457D01*
X0252748Y0176693D01*
X0252748Y0174783D01*
X0252748Y0176432D02*
X0249193Y0176432D01*
X0249860Y0178030D02*
X0253302Y0178030D01*
X0254650Y0179629D02*
X0249619Y0179629D01*
X0248198Y0181227D02*
X0300085Y0181227D01*
X0298780Y0179629D02*
X0280446Y0179629D01*
X0280267Y0179807D02*
X0278503Y0180538D01*
X0276593Y0180538D01*
X0274829Y0179807D01*
X0273479Y0178457D01*
X0272748Y0176693D01*
X0272748Y0174783D01*
X0273479Y0173019D01*
X0274829Y0171669D01*
X0276593Y0170938D01*
X0278503Y0170938D01*
X0280267Y0171669D01*
X0281617Y0173019D01*
X0282348Y0174783D01*
X0282348Y0176693D01*
X0281617Y0178457D01*
X0280267Y0179807D01*
X0281794Y0178030D02*
X0298425Y0178030D01*
X0298773Y0176432D02*
X0282348Y0176432D01*
X0282348Y0174833D02*
X0300053Y0174833D01*
X0304335Y0174833D02*
X0325309Y0174833D01*
X0325000Y0176432D02*
X0305614Y0176432D01*
X0305962Y0178030D02*
X0325394Y0178030D01*
X0326533Y0173235D02*
X0281707Y0173235D01*
X0280188Y0171636D02*
X0349061Y0171636D01*
X0348346Y0170038D02*
X0279711Y0170038D01*
X0281625Y0168439D02*
X0348417Y0168439D01*
X0328943Y0160447D02*
X0245895Y0160447D01*
X0246164Y0161096D02*
X0245590Y0159711D01*
X0244530Y0158650D01*
X0243145Y0158077D01*
X0241646Y0158077D01*
X0240261Y0158650D01*
X0239200Y0159711D01*
X0238627Y0161096D01*
X0238627Y0162595D01*
X0239200Y0163980D01*
X0240261Y0165040D01*
X0241646Y0165614D01*
X0242581Y0165614D01*
X0243003Y0166633D01*
X0243897Y0167527D01*
X0245065Y0168011D01*
X0246330Y0168011D01*
X0247498Y0167527D01*
X0248392Y0166633D01*
X0248876Y0165465D01*
X0248876Y0164201D01*
X0248392Y0163033D01*
X0247498Y0162139D01*
X0246330Y0161655D01*
X0246164Y0161655D01*
X0246164Y0161096D01*
X0247272Y0162045D02*
X0254453Y0162045D01*
X0254829Y0161669D02*
X0256593Y0160938D01*
X0258503Y0160938D01*
X0260267Y0161669D01*
X0261617Y0163019D01*
X0262348Y0164783D01*
X0262348Y0166693D01*
X0261617Y0168457D01*
X0260267Y0169807D01*
X0258503Y0170538D01*
X0256593Y0170538D01*
X0254829Y0169807D01*
X0253479Y0168457D01*
X0252748Y0166693D01*
X0252748Y0164783D01*
X0253479Y0163019D01*
X0254829Y0161669D01*
X0253220Y0163644D02*
X0248645Y0163644D01*
X0248876Y0165242D02*
X0252748Y0165242D01*
X0252809Y0166841D02*
X0248184Y0166841D01*
X0243211Y0166841D02*
X0170161Y0166841D01*
X0170546Y0167226D02*
X0171120Y0168611D01*
X0171120Y0170110D01*
X0170546Y0171495D01*
X0169486Y0172555D01*
X0168101Y0173129D01*
X0166602Y0173129D01*
X0165216Y0172555D01*
X0164156Y0171495D01*
X0163583Y0170110D01*
X0163583Y0168611D01*
X0164156Y0167226D01*
X0165216Y0166165D01*
X0166602Y0165592D01*
X0168101Y0165592D01*
X0169486Y0166165D01*
X0170546Y0167226D01*
X0171049Y0168439D02*
X0253471Y0168439D01*
X0255385Y0170038D02*
X0171120Y0170038D01*
X0170405Y0171636D02*
X0238137Y0171636D01*
X0237669Y0173235D02*
X0194075Y0173235D01*
X0195137Y0174833D02*
X0238002Y0174833D01*
X0244025Y0173235D02*
X0253390Y0173235D01*
X0254908Y0171636D02*
X0243558Y0171636D01*
X0240749Y0165242D02*
X0162924Y0165242D01*
X0163057Y0164921D02*
X0162326Y0166686D01*
X0160976Y0168036D01*
X0159211Y0168767D01*
X0157302Y0168767D01*
X0155538Y0168036D01*
X0154187Y0166686D01*
X0153457Y0164921D01*
X0153457Y0163012D01*
X0154187Y0161248D01*
X0155538Y0159897D01*
X0157302Y0159167D01*
X0159211Y0159167D01*
X0160976Y0159897D01*
X0162326Y0161248D01*
X0163057Y0163012D01*
X0163057Y0164921D01*
X0163057Y0163644D02*
X0239061Y0163644D01*
X0238627Y0162045D02*
X0162656Y0162045D01*
X0161525Y0160447D02*
X0238896Y0160447D01*
X0240063Y0158848D02*
X0208932Y0158848D01*
X0209219Y0158562D02*
X0208325Y0159456D01*
X0207157Y0159940D01*
X0205892Y0159940D01*
X0204724Y0159456D01*
X0203830Y0158562D01*
X0203346Y0157394D01*
X0203346Y0156130D01*
X0203830Y0154962D01*
X0204724Y0154068D01*
X0205892Y0153584D01*
X0207157Y0153584D01*
X0208325Y0154068D01*
X0209219Y0154962D01*
X0209702Y0156130D01*
X0209702Y0157394D01*
X0209219Y0158562D01*
X0209702Y0157250D02*
X0327781Y0157250D01*
X0327869Y0158848D02*
X0244728Y0158848D01*
X0245177Y0150174D02*
X0243633Y0149535D01*
X0242452Y0148354D01*
X0241813Y0146810D01*
X0241813Y0145139D01*
X0242452Y0143595D01*
X0243633Y0142414D01*
X0245177Y0141774D01*
X0246848Y0141774D01*
X0248392Y0142414D01*
X0249573Y0143595D01*
X0250213Y0145139D01*
X0250213Y0146810D01*
X0249573Y0148354D01*
X0248392Y0149535D01*
X0246848Y0150174D01*
X0245177Y0150174D01*
X0243356Y0149257D02*
X0221690Y0149257D01*
X0221907Y0148733D02*
X0221423Y0149901D01*
X0220529Y0150795D01*
X0219361Y0151278D01*
X0218097Y0151278D01*
X0216929Y0150795D01*
X0216035Y0149901D01*
X0215551Y0148733D01*
X0215551Y0147468D01*
X0216035Y0146300D01*
X0216929Y0145406D01*
X0218097Y0144922D01*
X0219361Y0144922D01*
X0220529Y0145406D01*
X0221423Y0146300D01*
X0221907Y0147468D01*
X0221907Y0148733D01*
X0221907Y0147659D02*
X0242164Y0147659D01*
X0241813Y0146060D02*
X0239831Y0146060D01*
X0239821Y0146070D02*
X0238653Y0146554D01*
X0237388Y0146554D01*
X0236220Y0146070D01*
X0235326Y0145176D01*
X0234843Y0144008D01*
X0234843Y0142744D01*
X0235326Y0141576D01*
X0236220Y0140682D01*
X0237388Y0140198D01*
X0238653Y0140198D01*
X0239821Y0140682D01*
X0240715Y0141576D01*
X0241198Y0142744D01*
X0241198Y0144008D01*
X0240715Y0145176D01*
X0239821Y0146070D01*
X0241011Y0144462D02*
X0242093Y0144462D01*
X0241198Y0142863D02*
X0243184Y0142863D01*
X0240403Y0141265D02*
X0310557Y0141265D01*
X0310433Y0141563D02*
X0310917Y0140395D01*
X0311811Y0139501D01*
X0312979Y0139017D01*
X0314243Y0139017D01*
X0315411Y0139501D01*
X0316305Y0140395D01*
X0316789Y0141563D01*
X0316789Y0142776D01*
X0317310Y0142560D01*
X0318574Y0142560D01*
X0318791Y0142650D01*
X0318701Y0142433D01*
X0318701Y0141169D01*
X0319185Y0140001D01*
X0320079Y0139107D01*
X0321247Y0138623D01*
X0322511Y0138623D01*
X0323679Y0139107D01*
X0324573Y0140001D01*
X0325057Y0141169D01*
X0325057Y0142433D01*
X0324573Y0143601D01*
X0324405Y0143770D01*
X0324573Y0143938D01*
X0325057Y0145106D01*
X0325057Y0146370D01*
X0324573Y0147538D01*
X0323679Y0148432D01*
X0322511Y0148916D01*
X0321247Y0148916D01*
X0320079Y0148432D01*
X0319910Y0148264D01*
X0319742Y0148432D01*
X0318574Y0148916D01*
X0317310Y0148916D01*
X0316142Y0148432D01*
X0315248Y0147538D01*
X0314764Y0146370D01*
X0314764Y0145157D01*
X0314243Y0145373D01*
X0312979Y0145373D01*
X0311811Y0144889D01*
X0310917Y0143995D01*
X0310433Y0142827D01*
X0310433Y0141563D01*
X0310448Y0142863D02*
X0278841Y0142863D01*
X0278749Y0142771D02*
X0279216Y0143238D01*
X0279605Y0143773D01*
X0279905Y0144362D01*
X0280109Y0144991D01*
X0280213Y0145644D01*
X0280213Y0145974D01*
X0276013Y0145974D01*
X0276013Y0145974D01*
X0276013Y0141774D01*
X0276343Y0141774D01*
X0276996Y0141878D01*
X0277625Y0142082D01*
X0278214Y0142382D01*
X0278749Y0142771D01*
X0279937Y0144462D02*
X0311383Y0144462D01*
X0314764Y0146060D02*
X0305435Y0146060D01*
X0305675Y0146300D02*
X0306159Y0147468D01*
X0306159Y0148733D01*
X0305675Y0149901D01*
X0304781Y0150795D01*
X0303613Y0151278D01*
X0302349Y0151278D01*
X0301181Y0150795D01*
X0300287Y0149901D01*
X0299803Y0148733D01*
X0299803Y0147468D01*
X0300287Y0146300D01*
X0301181Y0145406D01*
X0302349Y0144922D01*
X0303613Y0144922D01*
X0304781Y0145406D01*
X0305675Y0146300D01*
X0306159Y0147659D02*
X0315368Y0147659D01*
X0324453Y0147659D02*
X0335236Y0147659D01*
X0335453Y0149257D02*
X0305942Y0149257D01*
X0304634Y0150856D02*
X0336761Y0150856D01*
X0337992Y0154053D02*
X0208288Y0154053D01*
X0209504Y0155651D02*
X0328731Y0155651D01*
X0328333Y0146554D02*
X0327165Y0146070D01*
X0326271Y0145176D01*
X0325787Y0144008D01*
X0325787Y0142744D01*
X0326259Y0141604D01*
X0325787Y0140465D01*
X0325787Y0139201D01*
X0326259Y0138061D01*
X0325787Y0136922D01*
X0325787Y0135657D01*
X0326271Y0134489D01*
X0327165Y0133595D01*
X0328333Y0133111D01*
X0329597Y0133111D01*
X0330766Y0133595D01*
X0331659Y0134489D01*
X0332143Y0135657D01*
X0332143Y0136922D01*
X0331671Y0138061D01*
X0332143Y0139201D01*
X0332143Y0140465D01*
X0331671Y0141604D01*
X0332143Y0142744D01*
X0332143Y0144008D01*
X0331659Y0145176D01*
X0330766Y0146070D01*
X0329597Y0146554D01*
X0328333Y0146554D01*
X0327155Y0146060D02*
X0325057Y0146060D01*
X0324790Y0144462D02*
X0325975Y0144462D01*
X0325787Y0142863D02*
X0324879Y0142863D01*
X0325057Y0141265D02*
X0326119Y0141265D01*
X0325787Y0139666D02*
X0324238Y0139666D01*
X0326257Y0138067D02*
X0309653Y0138067D01*
X0309125Y0138286D02*
X0307861Y0138286D01*
X0306693Y0137802D01*
X0305799Y0136908D01*
X0305315Y0135740D01*
X0305315Y0134476D01*
X0305799Y0133308D01*
X0306693Y0132414D01*
X0307861Y0131930D01*
X0309125Y0131930D01*
X0310293Y0132414D01*
X0311187Y0133308D01*
X0311671Y0134476D01*
X0311671Y0135740D01*
X0311187Y0136908D01*
X0310293Y0137802D01*
X0309125Y0138286D01*
X0307333Y0138067D02*
X0279660Y0138067D01*
X0279605Y0138176D02*
X0279216Y0138711D01*
X0278749Y0139178D01*
X0278214Y0139567D01*
X0277625Y0139867D01*
X0276996Y0140071D01*
X0276343Y0140174D01*
X0276013Y0140174D01*
X0276013Y0135975D01*
X0276013Y0135975D01*
X0276013Y0135974D02*
X0280213Y0135974D01*
X0276013Y0135974D01*
X0276013Y0135974D01*
X0276013Y0131774D01*
X0276343Y0131774D01*
X0276996Y0131878D01*
X0277625Y0132082D01*
X0278214Y0132382D01*
X0278749Y0132771D01*
X0279216Y0133238D01*
X0279605Y0133773D01*
X0279905Y0134362D01*
X0280109Y0134991D01*
X0280213Y0135644D01*
X0280213Y0135974D01*
X0280213Y0136305D01*
X0280109Y0136958D01*
X0279905Y0137587D01*
X0279605Y0138176D01*
X0280187Y0136469D02*
X0305617Y0136469D01*
X0305315Y0134870D02*
X0299887Y0134870D01*
X0299604Y0135153D02*
X0298219Y0135727D01*
X0296720Y0135727D01*
X0295335Y0135153D01*
X0294275Y0134093D01*
X0293701Y0132708D01*
X0293701Y0131209D01*
X0294275Y0129824D01*
X0295335Y0128764D01*
X0296720Y0128190D01*
X0298219Y0128190D01*
X0299604Y0128764D01*
X0300664Y0129824D01*
X0301238Y0131209D01*
X0301238Y0132708D01*
X0300664Y0134093D01*
X0299604Y0135153D01*
X0301004Y0133272D02*
X0305835Y0133272D01*
X0301238Y0131673D02*
X0315177Y0131673D01*
X0315157Y0131720D02*
X0315641Y0130552D01*
X0316535Y0129658D01*
X0317160Y0129400D01*
X0316535Y0129141D01*
X0315641Y0128247D01*
X0315157Y0127079D01*
X0315157Y0125815D01*
X0315629Y0124675D01*
X0315157Y0123536D01*
X0315157Y0122271D01*
X0315641Y0121103D01*
X0316535Y0120209D01*
X0317703Y0119726D01*
X0318968Y0119726D01*
X0320136Y0120209D01*
X0321030Y0121103D01*
X0321513Y0122271D01*
X0321513Y0123536D01*
X0321298Y0124056D01*
X0322511Y0124056D01*
X0323679Y0124540D01*
X0324219Y0125080D01*
X0324790Y0124844D01*
X0325624Y0124844D01*
X0325484Y0124704D01*
X0325000Y0123536D01*
X0325000Y0122271D01*
X0325484Y0121103D01*
X0326378Y0120209D01*
X0327546Y0119726D01*
X0328810Y0119726D01*
X0329978Y0120209D01*
X0330872Y0121103D01*
X0331356Y0122271D01*
X0331356Y0123536D01*
X0330872Y0124704D01*
X0329978Y0125598D01*
X0328810Y0126081D01*
X0327976Y0126081D01*
X0328116Y0126221D01*
X0328198Y0126419D01*
X0329204Y0126419D01*
X0329218Y0126424D01*
X0329921Y0125721D01*
X0331089Y0125237D01*
X0332353Y0125237D01*
X0333521Y0125721D01*
X0334415Y0126615D01*
X0334899Y0127783D01*
X0334899Y0129047D01*
X0334415Y0130216D01*
X0333521Y0131109D01*
X0332353Y0131593D01*
X0331089Y0131593D01*
X0331075Y0131587D01*
X0330372Y0132291D01*
X0329204Y0132774D01*
X0327940Y0132774D01*
X0326771Y0132291D01*
X0325878Y0131397D01*
X0325796Y0131200D01*
X0324790Y0131200D01*
X0323622Y0130716D01*
X0323082Y0130176D01*
X0322511Y0130412D01*
X0321247Y0130412D01*
X0320637Y0130160D01*
X0321030Y0130552D01*
X0321513Y0131720D01*
X0321513Y0132984D01*
X0321030Y0134153D01*
X0320136Y0135046D01*
X0318968Y0135530D01*
X0317703Y0135530D01*
X0316535Y0135046D01*
X0315641Y0134153D01*
X0315157Y0132984D01*
X0315157Y0131720D01*
X0315277Y0133272D02*
X0311151Y0133272D01*
X0311671Y0134870D02*
X0316359Y0134870D01*
X0320312Y0134870D02*
X0326113Y0134870D01*
X0325787Y0136469D02*
X0311369Y0136469D01*
X0311646Y0139666D02*
X0278019Y0139666D01*
X0276013Y0139666D02*
X0276013Y0139666D01*
X0276013Y0140174D02*
X0275682Y0140174D01*
X0275029Y0140071D01*
X0274400Y0139867D01*
X0273811Y0139567D01*
X0273276Y0139178D01*
X0272809Y0138711D01*
X0272420Y0138176D01*
X0272120Y0137587D01*
X0271916Y0136958D01*
X0271813Y0136305D01*
X0271813Y0135974D01*
X0271813Y0135644D01*
X0271916Y0134991D01*
X0272120Y0134362D01*
X0272420Y0133773D01*
X0272809Y0133238D01*
X0273276Y0132771D01*
X0273811Y0132382D01*
X0274400Y0132082D01*
X0275029Y0131878D01*
X0275682Y0131774D01*
X0276013Y0131774D01*
X0276013Y0135974D01*
X0276013Y0135974D01*
X0276012Y0135974D02*
X0271813Y0135974D01*
X0276012Y0135974D01*
X0276012Y0135974D01*
X0276013Y0135975D02*
X0276013Y0140174D01*
X0276013Y0141774D02*
X0276013Y0145974D01*
X0276013Y0145974D01*
X0280213Y0145974D01*
X0280213Y0146305D01*
X0280109Y0146958D01*
X0279905Y0147587D01*
X0279605Y0148176D01*
X0279216Y0148711D01*
X0278749Y0149178D01*
X0278214Y0149567D01*
X0277625Y0149867D01*
X0276996Y0150071D01*
X0276343Y0150174D01*
X0276013Y0150174D01*
X0276013Y0145975D01*
X0276013Y0145975D01*
X0276013Y0150174D01*
X0275682Y0150174D01*
X0275029Y0150071D01*
X0274400Y0149867D01*
X0273811Y0149567D01*
X0273276Y0149178D01*
X0272809Y0148711D01*
X0272420Y0148176D01*
X0272120Y0147587D01*
X0271916Y0146958D01*
X0271813Y0146305D01*
X0271813Y0145974D01*
X0271813Y0145644D01*
X0271916Y0144991D01*
X0272120Y0144362D01*
X0272420Y0143773D01*
X0272809Y0143238D01*
X0273276Y0142771D01*
X0273811Y0142382D01*
X0274400Y0142082D01*
X0275029Y0141878D01*
X0275682Y0141774D01*
X0276013Y0141774D01*
X0276013Y0142863D02*
X0276013Y0142863D01*
X0276013Y0144462D02*
X0276013Y0144462D01*
X0276012Y0145974D02*
X0271813Y0145974D01*
X0276012Y0145974D01*
X0276012Y0145974D01*
X0276013Y0146060D02*
X0276013Y0146060D01*
X0276013Y0147659D02*
X0276013Y0147659D01*
X0276013Y0149257D02*
X0276013Y0149257D01*
X0278640Y0149257D02*
X0300020Y0149257D01*
X0299803Y0147659D02*
X0279868Y0147659D01*
X0280213Y0146060D02*
X0300527Y0146060D01*
X0301328Y0150856D02*
X0220382Y0150856D01*
X0217076Y0150856D02*
X0187396Y0150856D01*
X0188583Y0148039D02*
X0187689Y0147145D01*
X0187205Y0145977D01*
X0187205Y0144712D01*
X0187689Y0143544D01*
X0188583Y0142650D01*
X0189751Y0142167D01*
X0191015Y0142167D01*
X0192183Y0142650D01*
X0192445Y0142912D01*
X0193294Y0142560D01*
X0194558Y0142560D01*
X0195726Y0143044D01*
X0196485Y0143803D01*
X0197244Y0143044D01*
X0198228Y0142636D01*
X0198228Y0142350D01*
X0198712Y0141182D01*
X0199606Y0140288D01*
X0200774Y0139804D01*
X0202038Y0139804D01*
X0203206Y0140288D01*
X0204100Y0141182D01*
X0204584Y0142350D01*
X0204584Y0143030D01*
X0205569Y0143438D01*
X0206463Y0144332D01*
X0206946Y0145500D01*
X0206946Y0146764D01*
X0206463Y0147932D01*
X0205569Y0148826D01*
X0204401Y0149310D01*
X0203136Y0149310D01*
X0201968Y0148826D01*
X0201209Y0148067D01*
X0200844Y0148432D01*
X0199676Y0148916D01*
X0198412Y0148916D01*
X0197244Y0148432D01*
X0196485Y0147673D01*
X0195726Y0148432D01*
X0194558Y0148916D01*
X0193294Y0148916D01*
X0192126Y0148432D01*
X0191864Y0148171D01*
X0191015Y0148522D01*
X0189751Y0148522D01*
X0188583Y0148039D01*
X0188202Y0147659D02*
X0183701Y0147659D01*
X0184112Y0149257D02*
X0203009Y0149257D01*
X0204528Y0149257D02*
X0215768Y0149257D01*
X0215551Y0147659D02*
X0206576Y0147659D01*
X0206946Y0146060D02*
X0208257Y0146060D01*
X0208268Y0146070D02*
X0207374Y0145176D01*
X0206890Y0144008D01*
X0206890Y0142744D01*
X0207242Y0141895D01*
X0206586Y0141239D01*
X0206102Y0140071D01*
X0206102Y0138807D01*
X0206586Y0137639D01*
X0206951Y0137274D01*
X0206586Y0136908D01*
X0206102Y0135740D01*
X0206102Y0134476D01*
X0206586Y0133308D01*
X0207480Y0132414D01*
X0208648Y0131930D01*
X0209912Y0131930D01*
X0211080Y0132414D01*
X0211974Y0133308D01*
X0212458Y0134476D01*
X0212458Y0135740D01*
X0211974Y0136908D01*
X0211609Y0137274D01*
X0211974Y0137639D01*
X0212458Y0138807D01*
X0212458Y0140071D01*
X0212106Y0140920D01*
X0212762Y0141576D01*
X0213246Y0142744D01*
X0213246Y0144008D01*
X0212762Y0145176D01*
X0211868Y0146070D01*
X0210700Y0146554D01*
X0209436Y0146554D01*
X0208268Y0146070D01*
X0207078Y0144462D02*
X0206516Y0144462D01*
X0206890Y0142863D02*
X0204584Y0142863D01*
X0204135Y0141265D02*
X0206612Y0141265D01*
X0206102Y0139666D02*
X0171436Y0139666D01*
X0171750Y0140423D02*
X0171026Y0138676D01*
X0169689Y0137339D01*
X0167942Y0136615D01*
X0166051Y0136615D01*
X0164305Y0137339D01*
X0162968Y0138676D01*
X0162244Y0140423D01*
X0162244Y0142313D01*
X0162968Y0144060D01*
X0164305Y0145397D01*
X0166051Y0146121D01*
X0167942Y0146121D01*
X0169689Y0145397D01*
X0171026Y0144060D01*
X0171750Y0142313D01*
X0171750Y0140423D01*
X0171750Y0141265D02*
X0198678Y0141265D01*
X0197681Y0142863D02*
X0195289Y0142863D01*
X0192563Y0142863D02*
X0192395Y0142863D01*
X0188370Y0142863D02*
X0171522Y0142863D01*
X0170625Y0144462D02*
X0187309Y0144462D01*
X0187239Y0146060D02*
X0168089Y0146060D01*
X0165905Y0146060D02*
X0148404Y0146060D01*
X0148257Y0146121D02*
X0146366Y0146121D01*
X0144620Y0145397D01*
X0143283Y0144060D01*
X0142559Y0142313D01*
X0142559Y0140423D01*
X0143283Y0138676D01*
X0144620Y0137339D01*
X0146366Y0136615D01*
X0148257Y0136615D01*
X0150004Y0137339D01*
X0151341Y0138676D01*
X0152065Y0140423D01*
X0152065Y0142313D01*
X0151341Y0144060D01*
X0150004Y0145397D01*
X0148257Y0146121D01*
X0146220Y0146060D02*
X0141198Y0146060D01*
X0141198Y0145893D02*
X0140715Y0144725D01*
X0139821Y0143831D01*
X0138653Y0143348D01*
X0137388Y0143348D01*
X0136220Y0143831D01*
X0135326Y0144725D01*
X0134843Y0145893D01*
X0134843Y0147158D01*
X0135326Y0148326D01*
X0136220Y0149220D01*
X0137388Y0149704D01*
X0138653Y0149704D01*
X0139821Y0149220D01*
X0140715Y0148326D01*
X0141198Y0147158D01*
X0141198Y0145893D01*
X0140451Y0144462D02*
X0143684Y0144462D01*
X0142787Y0142863D02*
X0113377Y0142863D01*
X0113443Y0143020D02*
X0112869Y0141635D01*
X0111809Y0140575D01*
X0110424Y0140001D01*
X0108924Y0140001D01*
X0107539Y0140575D01*
X0106479Y0141635D01*
X0105906Y0143020D01*
X0105906Y0144519D01*
X0106479Y0145904D01*
X0107539Y0146964D01*
X0108924Y0147538D01*
X0110424Y0147538D01*
X0111809Y0146964D01*
X0112869Y0145904D01*
X0113443Y0144519D01*
X0113443Y0143020D01*
X0113443Y0144462D02*
X0135590Y0144462D01*
X0134843Y0146060D02*
X0112713Y0146060D01*
X0112498Y0141265D02*
X0142559Y0141265D01*
X0142872Y0139666D02*
X0030309Y0139666D01*
X0030647Y0138067D02*
X0143891Y0138067D01*
X0150733Y0138067D02*
X0163576Y0138067D01*
X0162558Y0139666D02*
X0151751Y0139666D01*
X0152065Y0141265D02*
X0162244Y0141265D01*
X0162472Y0142863D02*
X0151837Y0142863D01*
X0150940Y0144462D02*
X0163369Y0144462D01*
X0170418Y0138067D02*
X0206409Y0138067D01*
X0206404Y0136469D02*
X0178949Y0136469D01*
X0178797Y0136621D02*
X0177629Y0137105D01*
X0176365Y0137105D01*
X0175197Y0136621D01*
X0174303Y0135727D01*
X0173819Y0134559D01*
X0173819Y0133295D01*
X0174303Y0132127D01*
X0175197Y0131233D01*
X0176365Y0130749D01*
X0177629Y0130749D01*
X0178797Y0131233D01*
X0179691Y0132127D01*
X0180175Y0133295D01*
X0180175Y0134559D01*
X0179691Y0135727D01*
X0178797Y0136621D01*
X0180046Y0134870D02*
X0187104Y0134870D01*
X0187271Y0134940D02*
X0185886Y0134366D01*
X0184826Y0133306D01*
X0184252Y0131921D01*
X0184252Y0130422D01*
X0184826Y0129037D01*
X0185886Y0127976D01*
X0187271Y0127403D01*
X0188770Y0127403D01*
X0190155Y0127976D01*
X0191215Y0129037D01*
X0191789Y0130422D01*
X0191789Y0131921D01*
X0191215Y0133306D01*
X0190155Y0134366D01*
X0188770Y0134940D01*
X0187271Y0134940D01*
X0188937Y0134870D02*
X0206102Y0134870D01*
X0206622Y0133272D02*
X0191229Y0133272D01*
X0191789Y0131673D02*
X0218701Y0131673D01*
X0218701Y0131803D02*
X0218701Y0130539D01*
X0219185Y0129371D01*
X0219562Y0128994D01*
X0219094Y0127866D01*
X0219094Y0126602D01*
X0219578Y0125434D01*
X0220472Y0124540D01*
X0221640Y0124056D01*
X0222905Y0124056D01*
X0224073Y0124540D01*
X0224967Y0125434D01*
X0225450Y0126602D01*
X0225450Y0127866D01*
X0224967Y0129034D01*
X0224590Y0129411D01*
X0225057Y0130539D01*
X0225057Y0131803D01*
X0224573Y0132971D01*
X0223679Y0133865D01*
X0222511Y0134349D01*
X0221247Y0134349D01*
X0220079Y0133865D01*
X0219185Y0132971D01*
X0218701Y0131803D01*
X0219485Y0133272D02*
X0211938Y0133272D01*
X0212458Y0134870D02*
X0234843Y0134870D01*
X0234843Y0135347D02*
X0234843Y0134082D01*
X0235326Y0132914D01*
X0236220Y0132020D01*
X0237388Y0131537D01*
X0238653Y0131537D01*
X0239821Y0132020D01*
X0240715Y0132914D01*
X0241198Y0134082D01*
X0241198Y0135347D01*
X0240715Y0136515D01*
X0239821Y0137409D01*
X0238653Y0137893D01*
X0237388Y0137893D01*
X0236220Y0137409D01*
X0235326Y0136515D01*
X0234843Y0135347D01*
X0235307Y0136469D02*
X0212156Y0136469D01*
X0212152Y0138067D02*
X0242334Y0138067D01*
X0242452Y0138354D02*
X0241813Y0136810D01*
X0241813Y0135139D01*
X0242452Y0133595D01*
X0243633Y0132414D01*
X0245177Y0131774D01*
X0246848Y0131774D01*
X0248392Y0132414D01*
X0249573Y0133595D01*
X0250213Y0135139D01*
X0250213Y0136810D01*
X0249573Y0138354D01*
X0248392Y0139535D01*
X0246848Y0140174D01*
X0245177Y0140174D01*
X0243633Y0139535D01*
X0242452Y0138354D01*
X0241813Y0136469D02*
X0240734Y0136469D01*
X0241198Y0134870D02*
X0241924Y0134870D01*
X0242775Y0133272D02*
X0240863Y0133272D01*
X0238983Y0131673D02*
X0293701Y0131673D01*
X0293934Y0133272D02*
X0279241Y0133272D01*
X0280070Y0134870D02*
X0295052Y0134870D01*
X0294171Y0130075D02*
X0276971Y0130075D01*
X0276996Y0130071D02*
X0276343Y0130174D01*
X0276013Y0130174D01*
X0276013Y0125975D01*
X0276013Y0125975D01*
X0276013Y0125974D02*
X0280213Y0125974D01*
X0276013Y0125974D01*
X0276013Y0125974D01*
X0276013Y0121774D01*
X0276343Y0121774D01*
X0276996Y0121878D01*
X0277625Y0122082D01*
X0278214Y0122382D01*
X0278749Y0122771D01*
X0279216Y0123238D01*
X0279605Y0123773D01*
X0279905Y0124362D01*
X0280109Y0124991D01*
X0280213Y0125644D01*
X0280213Y0125974D01*
X0280213Y0126305D01*
X0280109Y0126958D01*
X0279905Y0127587D01*
X0279605Y0128176D01*
X0279216Y0128711D01*
X0278749Y0129178D01*
X0278214Y0129567D01*
X0277625Y0129867D01*
X0276996Y0130071D01*
X0276013Y0130075D02*
X0276013Y0130075D01*
X0276013Y0130174D02*
X0275682Y0130174D01*
X0275029Y0130071D01*
X0274400Y0129867D01*
X0273811Y0129567D01*
X0273276Y0129178D01*
X0272809Y0128711D01*
X0272420Y0128176D01*
X0272120Y0127587D01*
X0271916Y0126958D01*
X0271813Y0126305D01*
X0271813Y0125974D01*
X0271813Y0125644D01*
X0271916Y0124991D01*
X0272120Y0124362D01*
X0272420Y0123773D01*
X0272809Y0123238D01*
X0273276Y0122771D01*
X0273811Y0122382D01*
X0274400Y0122082D01*
X0275029Y0121878D01*
X0275682Y0121774D01*
X0276013Y0121774D01*
X0276013Y0125974D01*
X0276013Y0125974D01*
X0276012Y0125974D02*
X0271813Y0125974D01*
X0276012Y0125974D01*
X0276012Y0125974D01*
X0276013Y0125975D02*
X0276013Y0130174D01*
X0275054Y0130075D02*
X0247088Y0130075D01*
X0246848Y0130174D02*
X0245177Y0130174D01*
X0243633Y0129535D01*
X0242452Y0128354D01*
X0241813Y0126810D01*
X0241813Y0125139D01*
X0242452Y0123595D01*
X0243633Y0122414D01*
X0245177Y0121774D01*
X0246848Y0121774D01*
X0248392Y0122414D01*
X0249573Y0123595D01*
X0250213Y0125139D01*
X0250213Y0126810D01*
X0249573Y0128354D01*
X0248392Y0129535D01*
X0246848Y0130174D01*
X0244937Y0130075D02*
X0224864Y0130075D01*
X0225057Y0131673D02*
X0237058Y0131673D01*
X0237388Y0129231D02*
X0236220Y0128747D01*
X0235326Y0127853D01*
X0234843Y0126685D01*
X0234843Y0125421D01*
X0235326Y0124253D01*
X0236220Y0123359D01*
X0237388Y0122875D01*
X0238653Y0122875D01*
X0239821Y0123359D01*
X0240715Y0124253D01*
X0241198Y0125421D01*
X0241198Y0126685D01*
X0240715Y0127853D01*
X0239821Y0128747D01*
X0238653Y0129231D01*
X0237388Y0129231D01*
X0235949Y0128476D02*
X0225198Y0128476D01*
X0225450Y0126878D02*
X0234922Y0126878D01*
X0234901Y0125279D02*
X0224812Y0125279D01*
X0219733Y0125279D02*
X0208521Y0125279D01*
X0208521Y0125027D02*
X0208037Y0123859D01*
X0207143Y0122965D01*
X0205975Y0122481D01*
X0204711Y0122481D01*
X0203543Y0122965D01*
X0202649Y0123859D01*
X0202165Y0125027D01*
X0202165Y0126292D01*
X0202649Y0127460D01*
X0203543Y0128354D01*
X0204711Y0128837D01*
X0205975Y0128837D01*
X0207143Y0128354D01*
X0208037Y0127460D01*
X0208521Y0126292D01*
X0208521Y0125027D01*
X0207859Y0123681D02*
X0216036Y0123681D01*
X0216128Y0123719D02*
X0214960Y0123235D01*
X0214066Y0122341D01*
X0213583Y0121173D01*
X0213583Y0119909D01*
X0214066Y0118741D01*
X0214960Y0117847D01*
X0216128Y0117363D01*
X0217393Y0117363D01*
X0218561Y0117847D01*
X0219455Y0118741D01*
X0219939Y0119909D01*
X0219939Y0121173D01*
X0219455Y0122341D01*
X0218561Y0123235D01*
X0217393Y0123719D01*
X0216128Y0123719D01*
X0217485Y0123681D02*
X0235898Y0123681D01*
X0240143Y0123681D02*
X0242417Y0123681D01*
X0241813Y0125279D02*
X0241140Y0125279D01*
X0241119Y0126878D02*
X0241841Y0126878D01*
X0242575Y0128476D02*
X0240091Y0128476D01*
X0235178Y0133272D02*
X0224272Y0133272D01*
X0218893Y0130075D02*
X0191645Y0130075D01*
X0190655Y0128476D02*
X0196753Y0128476D01*
X0196457Y0128354D02*
X0195563Y0127460D01*
X0195079Y0126292D01*
X0195079Y0126081D01*
X0194869Y0126081D01*
X0193701Y0125598D01*
X0192807Y0124704D01*
X0192323Y0123536D01*
X0192323Y0122271D01*
X0192807Y0121103D01*
X0193701Y0120209D01*
X0194869Y0119726D01*
X0196133Y0119726D01*
X0197301Y0120209D01*
X0198195Y0121103D01*
X0198679Y0122271D01*
X0198679Y0122481D01*
X0198889Y0122481D01*
X0200057Y0122965D01*
X0200951Y0123859D01*
X0201435Y0125027D01*
X0201435Y0126292D01*
X0200951Y0127460D01*
X0200057Y0128354D01*
X0198889Y0128837D01*
X0197625Y0128837D01*
X0196457Y0128354D01*
X0195322Y0126878D02*
X0098142Y0126878D01*
X0098142Y0126837D02*
X0098142Y0127237D01*
X0102742Y0127237D01*
X0102742Y0127415D01*
X0102624Y0128161D01*
X0102390Y0128880D01*
X0102047Y0129553D01*
X0101603Y0130164D01*
X0101069Y0130699D01*
X0100457Y0131143D01*
X0099784Y0131486D01*
X0099066Y0131719D01*
X0098320Y0131837D01*
X0098142Y0131837D01*
X0098142Y0127237D01*
X0097742Y0127237D01*
X0097742Y0126837D01*
X0098142Y0126837D01*
X0102742Y0126837D01*
X0102742Y0126660D01*
X0102624Y0125913D01*
X0102390Y0125195D01*
X0102047Y0124522D01*
X0101603Y0123910D01*
X0101069Y0123376D01*
X0100457Y0122932D01*
X0099784Y0122589D01*
X0099066Y0122356D01*
X0098320Y0122237D01*
X0098142Y0122237D01*
X0098142Y0126837D01*
X0097742Y0126837D02*
X0097742Y0122237D01*
X0097564Y0122237D01*
X0096818Y0122356D01*
X0096099Y0122589D01*
X0095426Y0122932D01*
X0094815Y0123376D01*
X0094280Y0123910D01*
X0093836Y0124522D01*
X0093493Y0125195D01*
X0093260Y0125913D01*
X0093142Y0126660D01*
X0093142Y0126837D01*
X0097742Y0126837D01*
X0097742Y0126878D02*
X0088142Y0126878D01*
X0088142Y0126837D02*
X0088142Y0127237D01*
X0092742Y0127237D01*
X0092742Y0127415D01*
X0092624Y0128161D01*
X0092390Y0128880D01*
X0092047Y0129553D01*
X0091603Y0130164D01*
X0091069Y0130699D01*
X0090457Y0131143D01*
X0089784Y0131486D01*
X0089066Y0131719D01*
X0088320Y0131837D01*
X0088142Y0131837D01*
X0088142Y0127237D01*
X0087742Y0127237D01*
X0087742Y0126837D01*
X0088142Y0126837D01*
X0092742Y0126837D01*
X0092742Y0126660D01*
X0092624Y0125913D01*
X0092390Y0125195D01*
X0092047Y0124522D01*
X0091603Y0123910D01*
X0091069Y0123376D01*
X0090457Y0122932D01*
X0089784Y0122589D01*
X0089066Y0122356D01*
X0088320Y0122237D01*
X0088142Y0122237D01*
X0088142Y0126837D01*
X0087742Y0126837D02*
X0087742Y0122237D01*
X0087564Y0122237D01*
X0086818Y0122356D01*
X0086099Y0122589D01*
X0085426Y0122932D01*
X0084815Y0123376D01*
X0084280Y0123910D01*
X0083836Y0124522D01*
X0083493Y0125195D01*
X0083260Y0125913D01*
X0083142Y0126660D01*
X0083142Y0126837D01*
X0087742Y0126837D01*
X0087742Y0126878D02*
X0078142Y0126878D01*
X0078142Y0126837D02*
X0078142Y0127237D01*
X0082742Y0127237D01*
X0082742Y0127415D01*
X0082624Y0128161D01*
X0082390Y0128880D01*
X0082047Y0129553D01*
X0081603Y0130164D01*
X0081069Y0130699D01*
X0080457Y0131143D01*
X0079784Y0131486D01*
X0079066Y0131719D01*
X0078320Y0131837D01*
X0078142Y0131837D01*
X0078142Y0127237D01*
X0077742Y0127237D01*
X0077742Y0126837D01*
X0078142Y0126837D01*
X0082742Y0126837D01*
X0082742Y0126660D01*
X0082624Y0125913D01*
X0082390Y0125195D01*
X0082047Y0124522D01*
X0081603Y0123910D01*
X0081069Y0123376D01*
X0080457Y0122932D01*
X0079784Y0122589D01*
X0079066Y0122356D01*
X0078320Y0122237D01*
X0078142Y0122237D01*
X0078142Y0126837D01*
X0077742Y0126837D02*
X0077742Y0122237D01*
X0077564Y0122237D01*
X0076818Y0122356D01*
X0076099Y0122589D01*
X0075426Y0122932D01*
X0074815Y0123376D01*
X0074280Y0123910D01*
X0073836Y0124522D01*
X0073493Y0125195D01*
X0073260Y0125913D01*
X0073142Y0126660D01*
X0073142Y0126837D01*
X0077742Y0126837D01*
X0077742Y0126878D02*
X0068142Y0126878D01*
X0068142Y0126837D02*
X0068142Y0127237D01*
X0072742Y0127237D01*
X0072742Y0127415D01*
X0072624Y0128161D01*
X0072390Y0128880D01*
X0072047Y0129553D01*
X0071603Y0130164D01*
X0071069Y0130699D01*
X0070457Y0131143D01*
X0069784Y0131486D01*
X0069066Y0131719D01*
X0068320Y0131837D01*
X0068142Y0131837D01*
X0068142Y0127237D01*
X0067742Y0127237D01*
X0067742Y0126837D01*
X0068142Y0126837D01*
X0072742Y0126837D01*
X0072742Y0126660D01*
X0072624Y0125913D01*
X0072390Y0125195D01*
X0072047Y0124522D01*
X0071603Y0123910D01*
X0071069Y0123376D01*
X0070457Y0122932D01*
X0069784Y0122589D01*
X0069066Y0122356D01*
X0068320Y0122237D01*
X0068142Y0122237D01*
X0068142Y0126837D01*
X0067742Y0126837D02*
X0067742Y0122237D01*
X0067564Y0122237D01*
X0066818Y0122356D01*
X0066099Y0122589D01*
X0065426Y0122932D01*
X0064815Y0123376D01*
X0064280Y0123910D01*
X0063836Y0124522D01*
X0063493Y0125195D01*
X0063260Y0125913D01*
X0063142Y0126660D01*
X0063142Y0126837D01*
X0067742Y0126837D01*
X0067742Y0126878D02*
X0058142Y0126878D01*
X0058142Y0126837D02*
X0058142Y0127237D01*
X0062742Y0127237D01*
X0062742Y0127415D01*
X0062624Y0128161D01*
X0062390Y0128880D01*
X0062047Y0129553D01*
X0061603Y0130164D01*
X0061069Y0130699D01*
X0060457Y0131143D01*
X0059784Y0131486D01*
X0059066Y0131719D01*
X0058320Y0131837D01*
X0058142Y0131837D01*
X0058142Y0127237D01*
X0057742Y0127237D01*
X0057742Y0126837D01*
X0058142Y0126837D01*
X0062742Y0126837D01*
X0062742Y0126660D01*
X0062624Y0125913D01*
X0062390Y0125195D01*
X0062047Y0124522D01*
X0061603Y0123910D01*
X0061069Y0123376D01*
X0060457Y0122932D01*
X0059784Y0122589D01*
X0059066Y0122356D01*
X0058320Y0122237D01*
X0058142Y0122237D01*
X0058142Y0126837D01*
X0057742Y0126837D02*
X0057742Y0122237D01*
X0057564Y0122237D01*
X0056818Y0122356D01*
X0056099Y0122589D01*
X0055426Y0122932D01*
X0054815Y0123376D01*
X0054280Y0123910D01*
X0053836Y0124522D01*
X0053493Y0125195D01*
X0053260Y0125913D01*
X0053142Y0126660D01*
X0053142Y0126837D01*
X0057742Y0126837D01*
X0057742Y0126878D02*
X0048142Y0126878D01*
X0048142Y0126837D02*
X0048142Y0127237D01*
X0052742Y0127237D01*
X0052742Y0127415D01*
X0052624Y0128161D01*
X0052390Y0128880D01*
X0052047Y0129553D01*
X0051603Y0130164D01*
X0051069Y0130699D01*
X0050457Y0131143D01*
X0049784Y0131486D01*
X0049066Y0131719D01*
X0048320Y0131837D01*
X0048142Y0131837D01*
X0048142Y0127237D01*
X0047742Y0127237D01*
X0047742Y0126837D01*
X0048142Y0126837D01*
X0052742Y0126837D01*
X0052742Y0126660D01*
X0052624Y0125913D01*
X0052390Y0125195D01*
X0052047Y0124522D01*
X0051603Y0123910D01*
X0051069Y0123376D01*
X0050457Y0122932D01*
X0049784Y0122589D01*
X0049066Y0122356D01*
X0048320Y0122237D01*
X0048142Y0122237D01*
X0048142Y0126837D01*
X0047742Y0126837D02*
X0047742Y0122237D01*
X0047564Y0122237D01*
X0046818Y0122356D01*
X0046099Y0122589D01*
X0045426Y0122932D01*
X0044815Y0123376D01*
X0044280Y0123910D01*
X0043836Y0124522D01*
X0043493Y0125195D01*
X0043260Y0125913D01*
X0043142Y0126660D01*
X0043142Y0126837D01*
X0047742Y0126837D01*
X0047742Y0126878D02*
X0030614Y0126878D01*
X0030647Y0128476D02*
X0043362Y0128476D01*
X0043260Y0128161D02*
X0043493Y0128880D01*
X0043836Y0129553D01*
X0044280Y0130164D01*
X0044815Y0130699D01*
X0045426Y0131143D01*
X0046099Y0131486D01*
X0046818Y0131719D01*
X0047564Y0131837D01*
X0047742Y0131837D01*
X0047742Y0127237D01*
X0043142Y0127237D01*
X0043142Y0127415D01*
X0043260Y0128161D01*
X0044216Y0130075D02*
X0030139Y0130075D01*
X0028846Y0131673D02*
X0046677Y0131673D01*
X0047742Y0131673D02*
X0048142Y0131673D01*
X0049207Y0131673D02*
X0056677Y0131673D01*
X0056818Y0131719D02*
X0056099Y0131486D01*
X0055426Y0131143D01*
X0054815Y0130699D01*
X0054280Y0130164D01*
X0053836Y0129553D01*
X0053493Y0128880D01*
X0053260Y0128161D01*
X0053142Y0127415D01*
X0053142Y0127237D01*
X0057742Y0127237D01*
X0057742Y0131837D01*
X0057564Y0131837D01*
X0056818Y0131719D01*
X0057742Y0131673D02*
X0058142Y0131673D01*
X0059207Y0131673D02*
X0066677Y0131673D01*
X0066818Y0131719D02*
X0066099Y0131486D01*
X0065426Y0131143D01*
X0064815Y0130699D01*
X0064280Y0130164D01*
X0063836Y0129553D01*
X0063493Y0128880D01*
X0063260Y0128161D01*
X0063142Y0127415D01*
X0063142Y0127237D01*
X0067742Y0127237D01*
X0067742Y0131837D01*
X0067564Y0131837D01*
X0066818Y0131719D01*
X0067742Y0131673D02*
X0068142Y0131673D01*
X0069207Y0131673D02*
X0076677Y0131673D01*
X0076818Y0131719D02*
X0076099Y0131486D01*
X0075426Y0131143D01*
X0074815Y0130699D01*
X0074280Y0130164D01*
X0073836Y0129553D01*
X0073493Y0128880D01*
X0073260Y0128161D01*
X0073142Y0127415D01*
X0073142Y0127237D01*
X0077742Y0127237D01*
X0077742Y0131837D01*
X0077564Y0131837D01*
X0076818Y0131719D01*
X0077742Y0131673D02*
X0078142Y0131673D01*
X0079207Y0131673D02*
X0086677Y0131673D01*
X0086818Y0131719D02*
X0086099Y0131486D01*
X0085426Y0131143D01*
X0084815Y0130699D01*
X0084280Y0130164D01*
X0083836Y0129553D01*
X0083493Y0128880D01*
X0083260Y0128161D01*
X0083142Y0127415D01*
X0083142Y0127237D01*
X0087742Y0127237D01*
X0087742Y0131837D01*
X0087564Y0131837D01*
X0086818Y0131719D01*
X0087742Y0131673D02*
X0088142Y0131673D01*
X0089207Y0131673D02*
X0096677Y0131673D01*
X0096818Y0131719D02*
X0096099Y0131486D01*
X0095426Y0131143D01*
X0094815Y0130699D01*
X0094280Y0130164D01*
X0093836Y0129553D01*
X0093493Y0128880D01*
X0093260Y0128161D01*
X0093142Y0127415D01*
X0093142Y0127237D01*
X0097742Y0127237D01*
X0097742Y0131837D01*
X0097564Y0131837D01*
X0096818Y0131719D01*
X0097742Y0131673D02*
X0098142Y0131673D01*
X0099207Y0131673D02*
X0174756Y0131673D01*
X0173828Y0133272D02*
X0027132Y0133272D01*
X0024657Y0133272D02*
X0017132Y0133272D01*
X0014657Y0133272D02*
X0004568Y0133272D01*
X0004568Y0134870D02*
X0012206Y0134870D01*
X0011344Y0136469D02*
X0004568Y0136469D01*
X0004568Y0138067D02*
X0011142Y0138067D01*
X0011480Y0139666D02*
X0004568Y0139666D01*
X0004568Y0131673D02*
X0012943Y0131673D01*
X0011650Y0130075D02*
X0004568Y0130075D01*
X0004568Y0128476D02*
X0011142Y0128476D01*
X0011175Y0126878D02*
X0004568Y0126878D01*
X0004568Y0125279D02*
X0011837Y0125279D01*
X0013669Y0123681D02*
X0004568Y0123681D01*
X0004568Y0122082D02*
X0013564Y0122082D01*
X0011819Y0120484D02*
X0004568Y0120484D01*
X0004568Y0118885D02*
X0011157Y0118885D01*
X0011142Y0117287D02*
X0004568Y0117287D01*
X0004568Y0115688D02*
X0011668Y0115688D01*
X0012987Y0114090D02*
X0004568Y0114090D01*
X0004568Y0112491D02*
X0014551Y0112491D01*
X0012162Y0110893D02*
X0004568Y0110893D01*
X0004568Y0109294D02*
X0011326Y0109294D01*
X0011142Y0107696D02*
X0004568Y0107696D01*
X0004568Y0106097D02*
X0011498Y0106097D01*
X0012578Y0104499D02*
X0004568Y0104499D01*
X0027238Y0112491D02*
X0046374Y0112491D01*
X0046987Y0112237D02*
X0045223Y0112968D01*
X0043872Y0114318D01*
X0043142Y0116083D01*
X0043142Y0117992D01*
X0043872Y0119756D01*
X0045223Y0121107D01*
X0046987Y0121837D01*
X0048897Y0121837D01*
X0050661Y0121107D01*
X0052011Y0119756D01*
X0052742Y0117992D01*
X0052742Y0116083D01*
X0052011Y0114318D01*
X0050661Y0112968D01*
X0048897Y0112237D01*
X0046987Y0112237D01*
X0049509Y0112491D02*
X0056374Y0112491D01*
X0056987Y0112237D02*
X0058897Y0112237D01*
X0060661Y0112968D01*
X0062011Y0114318D01*
X0062742Y0116083D01*
X0062742Y0117992D01*
X0062011Y0119756D01*
X0060661Y0121107D01*
X0058897Y0121837D01*
X0056987Y0121837D01*
X0055223Y0121107D01*
X0053872Y0119756D01*
X0053142Y0117992D01*
X0053142Y0116083D01*
X0053872Y0114318D01*
X0055223Y0112968D01*
X0056987Y0112237D01*
X0059509Y0112491D02*
X0066374Y0112491D01*
X0066987Y0112237D02*
X0068897Y0112237D01*
X0070661Y0112968D01*
X0072011Y0114318D01*
X0072742Y0116083D01*
X0072742Y0117992D01*
X0072011Y0119756D01*
X0070661Y0121107D01*
X0068897Y0121837D01*
X0066987Y0121837D01*
X0065223Y0121107D01*
X0063872Y0119756D01*
X0063142Y0117992D01*
X0063142Y0116083D01*
X0063872Y0114318D01*
X0065223Y0112968D01*
X0066987Y0112237D01*
X0069509Y0112491D02*
X0076374Y0112491D01*
X0076987Y0112237D02*
X0078897Y0112237D01*
X0080661Y0112968D01*
X0082011Y0114318D01*
X0082742Y0116083D01*
X0082742Y0117992D01*
X0082011Y0119756D01*
X0080661Y0121107D01*
X0078897Y0121837D01*
X0076987Y0121837D01*
X0075223Y0121107D01*
X0073872Y0119756D01*
X0073142Y0117992D01*
X0073142Y0116083D01*
X0073872Y0114318D01*
X0075223Y0112968D01*
X0076987Y0112237D01*
X0079509Y0112491D02*
X0086374Y0112491D01*
X0086987Y0112237D02*
X0088897Y0112237D01*
X0090661Y0112968D01*
X0092011Y0114318D01*
X0092742Y0116083D01*
X0092742Y0117992D01*
X0092011Y0119756D01*
X0090661Y0121107D01*
X0088897Y0121837D01*
X0086987Y0121837D01*
X0085223Y0121107D01*
X0083872Y0119756D01*
X0083142Y0117992D01*
X0083142Y0116083D01*
X0083872Y0114318D01*
X0085223Y0112968D01*
X0086987Y0112237D01*
X0089509Y0112491D02*
X0096374Y0112491D01*
X0096987Y0112237D02*
X0098897Y0112237D01*
X0100661Y0112968D01*
X0102011Y0114318D01*
X0102742Y0116083D01*
X0102742Y0117992D01*
X0102011Y0119756D01*
X0100661Y0121107D01*
X0098897Y0121837D01*
X0096987Y0121837D01*
X0095223Y0121107D01*
X0093872Y0119756D01*
X0093142Y0117992D01*
X0093142Y0116083D01*
X0093872Y0114318D01*
X0095223Y0112968D01*
X0096987Y0112237D01*
X0099509Y0112491D02*
X0175630Y0112491D01*
X0176032Y0112089D02*
X0177200Y0111605D01*
X0178464Y0111605D01*
X0179632Y0112089D01*
X0180526Y0112983D01*
X0181010Y0114151D01*
X0181010Y0115415D01*
X0180526Y0116583D01*
X0179632Y0117477D01*
X0178464Y0117961D01*
X0177200Y0117961D01*
X0176032Y0117477D01*
X0175138Y0116583D01*
X0174654Y0115415D01*
X0174654Y0114151D01*
X0175138Y0112983D01*
X0176032Y0112089D01*
X0174680Y0114090D02*
X0101782Y0114090D01*
X0102578Y0115688D02*
X0174767Y0115688D01*
X0175842Y0117287D02*
X0102742Y0117287D01*
X0102372Y0118885D02*
X0214007Y0118885D01*
X0213583Y0120484D02*
X0197575Y0120484D01*
X0198600Y0122082D02*
X0213959Y0122082D01*
X0219562Y0122082D02*
X0244434Y0122082D01*
X0245177Y0120174D02*
X0243633Y0119535D01*
X0242452Y0118354D01*
X0241813Y0116810D01*
X0241813Y0115139D01*
X0242452Y0113595D01*
X0243633Y0112414D01*
X0245177Y0111774D01*
X0246848Y0111774D01*
X0248392Y0112414D01*
X0249573Y0113595D01*
X0250213Y0115139D01*
X0250213Y0116810D01*
X0249573Y0118354D01*
X0248392Y0119535D01*
X0246848Y0120174D01*
X0245177Y0120174D01*
X0242984Y0118885D02*
X0219514Y0118885D01*
X0219939Y0120484D02*
X0252417Y0120484D01*
X0252649Y0119922D02*
X0252165Y0121090D01*
X0252165Y0122355D01*
X0252649Y0123523D01*
X0253543Y0124417D01*
X0254711Y0124900D01*
X0255975Y0124900D01*
X0257143Y0124417D01*
X0258037Y0123523D01*
X0258521Y0122355D01*
X0258521Y0121090D01*
X0258037Y0119922D01*
X0257143Y0119028D01*
X0255975Y0118544D01*
X0254711Y0118544D01*
X0253543Y0119028D01*
X0252649Y0119922D01*
X0253888Y0118885D02*
X0249041Y0118885D01*
X0250015Y0117287D02*
X0272023Y0117287D01*
X0272120Y0117587D02*
X0271916Y0116958D01*
X0271813Y0116305D01*
X0271813Y0115974D01*
X0271813Y0115644D01*
X0271916Y0114991D01*
X0272120Y0114362D01*
X0272420Y0113773D01*
X0272809Y0113238D01*
X0273276Y0112771D01*
X0273811Y0112382D01*
X0274400Y0112082D01*
X0275029Y0111878D01*
X0275682Y0111774D01*
X0276013Y0111774D01*
X0276343Y0111774D01*
X0276996Y0111878D01*
X0277625Y0112082D01*
X0278214Y0112382D01*
X0278749Y0112771D01*
X0279216Y0113238D01*
X0279605Y0113773D01*
X0279905Y0114362D01*
X0280109Y0114991D01*
X0280213Y0115644D01*
X0280213Y0115974D01*
X0276013Y0115974D01*
X0276013Y0115974D01*
X0276013Y0111774D01*
X0276013Y0115974D01*
X0276013Y0115974D01*
X0280213Y0115974D01*
X0280213Y0116305D01*
X0280109Y0116958D01*
X0279905Y0117587D01*
X0279605Y0118176D01*
X0279216Y0118711D01*
X0278749Y0119178D01*
X0278214Y0119567D01*
X0277625Y0119867D01*
X0276996Y0120071D01*
X0276343Y0120174D01*
X0276013Y0120174D01*
X0276013Y0115975D01*
X0276013Y0115975D01*
X0276013Y0120174D01*
X0275682Y0120174D01*
X0275029Y0120071D01*
X0274400Y0119867D01*
X0273811Y0119567D01*
X0273276Y0119178D01*
X0272809Y0118711D01*
X0272420Y0118176D01*
X0272120Y0117587D01*
X0272984Y0118885D02*
X0256798Y0118885D01*
X0258270Y0120484D02*
X0303500Y0120484D01*
X0303313Y0120406D02*
X0302419Y0119512D01*
X0301935Y0118344D01*
X0301935Y0117080D01*
X0302419Y0115912D01*
X0303313Y0115018D01*
X0303504Y0114939D01*
X0303504Y0113925D01*
X0303988Y0112757D01*
X0304882Y0111863D01*
X0306050Y0111379D01*
X0307314Y0111379D01*
X0308482Y0111863D01*
X0309376Y0112757D01*
X0309860Y0113925D01*
X0309860Y0115189D01*
X0309376Y0116357D01*
X0308482Y0117251D01*
X0308291Y0117330D01*
X0308291Y0118344D01*
X0307808Y0119512D01*
X0306914Y0120406D01*
X0305746Y0120890D01*
X0304481Y0120890D01*
X0303313Y0120406D01*
X0302160Y0118885D02*
X0279041Y0118885D01*
X0280002Y0117287D02*
X0301935Y0117287D01*
X0302643Y0115688D02*
X0280213Y0115688D01*
X0279766Y0114090D02*
X0303504Y0114090D01*
X0304253Y0112491D02*
X0278364Y0112491D01*
X0276013Y0112491D02*
X0276013Y0112491D01*
X0276013Y0114090D02*
X0276013Y0114090D01*
X0276013Y0115688D02*
X0276013Y0115688D01*
X0276012Y0115974D02*
X0271813Y0115974D01*
X0276012Y0115974D01*
X0276012Y0115974D01*
X0276013Y0117287D02*
X0276013Y0117287D01*
X0276013Y0118885D02*
X0276013Y0118885D01*
X0276013Y0122082D02*
X0276013Y0122082D01*
X0276013Y0123681D02*
X0276013Y0123681D01*
X0276013Y0125279D02*
X0276013Y0125279D01*
X0276013Y0126878D02*
X0276013Y0126878D01*
X0276013Y0128476D02*
X0276013Y0128476D01*
X0279386Y0128476D02*
X0296029Y0128476D01*
X0298910Y0128476D02*
X0315871Y0128476D01*
X0316119Y0130075D02*
X0300768Y0130075D01*
X0306726Y0120484D02*
X0316261Y0120484D01*
X0315236Y0122082D02*
X0277625Y0122082D01*
X0279538Y0123681D02*
X0315218Y0123681D01*
X0315379Y0125279D02*
X0280155Y0125279D01*
X0280122Y0126878D02*
X0315157Y0126878D01*
X0321453Y0123681D02*
X0325060Y0123681D01*
X0325078Y0122082D02*
X0321435Y0122082D01*
X0320410Y0120484D02*
X0326103Y0120484D01*
X0330253Y0120484D02*
X0333661Y0120484D01*
X0333875Y0122082D02*
X0331278Y0122082D01*
X0331296Y0123681D02*
X0335164Y0123681D01*
X0332455Y0125279D02*
X0341290Y0125279D01*
X0340216Y0126878D02*
X0334524Y0126878D01*
X0334899Y0128476D02*
X0338982Y0128476D01*
X0338780Y0130075D02*
X0334474Y0130075D01*
X0330989Y0131673D02*
X0339540Y0131673D01*
X0331817Y0134870D02*
X0354921Y0134870D01*
X0355142Y0136469D02*
X0332143Y0136469D01*
X0331674Y0138067D02*
X0356464Y0138067D01*
X0357467Y0140985D02*
X0358731Y0140985D01*
X0359899Y0141469D01*
X0360793Y0142363D01*
X0361277Y0143531D01*
X0361277Y0144796D01*
X0360793Y0145964D01*
X0359899Y0146858D01*
X0358731Y0147341D01*
X0357467Y0147341D01*
X0356299Y0146858D01*
X0355405Y0145964D01*
X0354921Y0144796D01*
X0354921Y0143531D01*
X0355405Y0142363D01*
X0356299Y0141469D01*
X0357467Y0140985D01*
X0356793Y0141265D02*
X0331812Y0141265D01*
X0332143Y0142863D02*
X0355198Y0142863D01*
X0354921Y0144462D02*
X0331955Y0144462D01*
X0330776Y0146060D02*
X0335960Y0146060D01*
X0340868Y0146060D02*
X0355502Y0146060D01*
X0360697Y0146060D02*
X0363269Y0146060D01*
X0362474Y0144462D02*
X0361277Y0144462D01*
X0361000Y0142863D02*
X0362403Y0142863D01*
X0362964Y0141265D02*
X0359405Y0141265D01*
X0364775Y0139666D02*
X0332143Y0139666D01*
X0329985Y0133272D02*
X0355638Y0133272D01*
X0339166Y0123681D02*
X0338515Y0123681D01*
X0330988Y0125279D02*
X0330296Y0125279D01*
X0334018Y0118885D02*
X0308067Y0118885D01*
X0308396Y0117287D02*
X0333661Y0117287D01*
X0334105Y0115688D02*
X0309653Y0115688D01*
X0309860Y0114090D02*
X0339978Y0114090D01*
X0343937Y0114090D02*
X0439976Y0114090D01*
X0439976Y0115688D02*
X0345018Y0115688D01*
X0345115Y0117287D02*
X0439976Y0117287D01*
X0439976Y0118885D02*
X0344171Y0118885D01*
X0327946Y0133272D02*
X0321394Y0133272D01*
X0321494Y0131673D02*
X0326154Y0131673D01*
X0319520Y0139666D02*
X0315576Y0139666D01*
X0316665Y0141265D02*
X0318701Y0141265D01*
X0276013Y0138067D02*
X0276013Y0138067D01*
X0276013Y0136469D02*
X0276013Y0136469D01*
X0276013Y0134870D02*
X0276013Y0134870D01*
X0276013Y0133272D02*
X0276013Y0133272D01*
X0272785Y0133272D02*
X0249250Y0133272D01*
X0250101Y0134870D02*
X0271955Y0134870D01*
X0271839Y0136469D02*
X0250213Y0136469D01*
X0249692Y0138067D02*
X0272365Y0138067D01*
X0274006Y0139666D02*
X0248075Y0139666D01*
X0248841Y0142863D02*
X0273184Y0142863D01*
X0272088Y0144462D02*
X0249932Y0144462D01*
X0250213Y0146060D02*
X0271813Y0146060D01*
X0272157Y0147659D02*
X0249861Y0147659D01*
X0248670Y0149257D02*
X0273385Y0149257D01*
X0268503Y0160938D02*
X0270267Y0161669D01*
X0271617Y0163019D01*
X0272348Y0164783D01*
X0272348Y0166693D01*
X0271617Y0168457D01*
X0270267Y0169807D01*
X0268503Y0170538D01*
X0266593Y0170538D01*
X0264829Y0169807D01*
X0263479Y0168457D01*
X0262748Y0166693D01*
X0262748Y0164783D01*
X0263479Y0163019D01*
X0264829Y0161669D01*
X0266593Y0160938D01*
X0268503Y0160938D01*
X0270643Y0162045D02*
X0274453Y0162045D01*
X0273220Y0163644D02*
X0271876Y0163644D01*
X0272348Y0165242D02*
X0272748Y0165242D01*
X0272809Y0166841D02*
X0272287Y0166841D01*
X0271625Y0168439D02*
X0273471Y0168439D01*
X0275385Y0170038D02*
X0269711Y0170038D01*
X0268503Y0170938D02*
X0270267Y0171669D01*
X0271617Y0173019D01*
X0272348Y0174783D01*
X0272348Y0176693D01*
X0271617Y0178457D01*
X0270267Y0179807D01*
X0268503Y0180538D01*
X0266593Y0180538D01*
X0264829Y0179807D01*
X0263479Y0178457D01*
X0262748Y0176693D01*
X0262748Y0174783D01*
X0263479Y0173019D01*
X0264829Y0171669D01*
X0266593Y0170938D01*
X0268503Y0170938D01*
X0270188Y0171636D02*
X0274908Y0171636D01*
X0273390Y0173235D02*
X0271707Y0173235D01*
X0272348Y0174833D02*
X0272748Y0174833D01*
X0272748Y0176432D02*
X0272348Y0176432D01*
X0271794Y0178030D02*
X0273302Y0178030D01*
X0274650Y0179629D02*
X0270446Y0179629D01*
X0264650Y0179629D02*
X0260446Y0179629D01*
X0261794Y0178030D02*
X0263302Y0178030D01*
X0262748Y0176432D02*
X0262348Y0176432D01*
X0262348Y0174833D02*
X0262748Y0174833D01*
X0263390Y0173235D02*
X0261707Y0173235D01*
X0260188Y0171636D02*
X0264908Y0171636D01*
X0265385Y0170038D02*
X0259711Y0170038D01*
X0261625Y0168439D02*
X0263471Y0168439D01*
X0262809Y0166841D02*
X0262287Y0166841D01*
X0262348Y0165242D02*
X0262748Y0165242D01*
X0263220Y0163644D02*
X0261876Y0163644D01*
X0260643Y0162045D02*
X0264453Y0162045D01*
X0236210Y0146060D02*
X0221183Y0146060D01*
X0216275Y0146060D02*
X0211878Y0146060D01*
X0213058Y0144462D02*
X0235030Y0144462D01*
X0234843Y0142863D02*
X0213246Y0142863D01*
X0212451Y0141265D02*
X0235638Y0141265D01*
X0243950Y0139666D02*
X0212458Y0139666D01*
X0206847Y0128476D02*
X0219347Y0128476D01*
X0219094Y0126878D02*
X0208278Y0126878D01*
X0203840Y0128476D02*
X0199760Y0128476D01*
X0201192Y0126878D02*
X0202408Y0126878D01*
X0202165Y0125279D02*
X0201435Y0125279D01*
X0200772Y0123681D02*
X0202828Y0123681D01*
X0193382Y0125279D02*
X0102418Y0125279D01*
X0101373Y0123681D02*
X0192383Y0123681D01*
X0192401Y0122082D02*
X0028225Y0122082D01*
X0028120Y0123681D02*
X0044510Y0123681D01*
X0043466Y0125279D02*
X0029952Y0125279D01*
X0029970Y0120484D02*
X0044600Y0120484D01*
X0043512Y0118885D02*
X0030632Y0118885D01*
X0030647Y0117287D02*
X0043142Y0117287D01*
X0043305Y0115688D02*
X0030121Y0115688D01*
X0028802Y0114090D02*
X0044101Y0114090D01*
X0051782Y0114090D02*
X0054101Y0114090D01*
X0053305Y0115688D02*
X0052578Y0115688D01*
X0052742Y0117287D02*
X0053142Y0117287D01*
X0053512Y0118885D02*
X0052372Y0118885D01*
X0051283Y0120484D02*
X0054600Y0120484D01*
X0054510Y0123681D02*
X0051373Y0123681D01*
X0052418Y0125279D02*
X0053466Y0125279D01*
X0057742Y0125279D02*
X0058142Y0125279D01*
X0058142Y0123681D02*
X0057742Y0123681D01*
X0061373Y0123681D02*
X0064510Y0123681D01*
X0063466Y0125279D02*
X0062418Y0125279D01*
X0061283Y0120484D02*
X0064600Y0120484D01*
X0063512Y0118885D02*
X0062372Y0118885D01*
X0062742Y0117287D02*
X0063142Y0117287D01*
X0063305Y0115688D02*
X0062578Y0115688D01*
X0061782Y0114090D02*
X0064101Y0114090D01*
X0071782Y0114090D02*
X0074101Y0114090D01*
X0073305Y0115688D02*
X0072578Y0115688D01*
X0072742Y0117287D02*
X0073142Y0117287D01*
X0073512Y0118885D02*
X0072372Y0118885D01*
X0071283Y0120484D02*
X0074600Y0120484D01*
X0074510Y0123681D02*
X0071373Y0123681D01*
X0072418Y0125279D02*
X0073466Y0125279D01*
X0077742Y0125279D02*
X0078142Y0125279D01*
X0078142Y0123681D02*
X0077742Y0123681D01*
X0081373Y0123681D02*
X0084510Y0123681D01*
X0083466Y0125279D02*
X0082418Y0125279D01*
X0081283Y0120484D02*
X0084600Y0120484D01*
X0083512Y0118885D02*
X0082372Y0118885D01*
X0082742Y0117287D02*
X0083142Y0117287D01*
X0083305Y0115688D02*
X0082578Y0115688D01*
X0081782Y0114090D02*
X0084101Y0114090D01*
X0091782Y0114090D02*
X0094101Y0114090D01*
X0093305Y0115688D02*
X0092578Y0115688D01*
X0092742Y0117287D02*
X0093142Y0117287D01*
X0093512Y0118885D02*
X0092372Y0118885D01*
X0091283Y0120484D02*
X0094600Y0120484D01*
X0094510Y0123681D02*
X0091373Y0123681D01*
X0092418Y0125279D02*
X0093466Y0125279D01*
X0097742Y0125279D02*
X0098142Y0125279D01*
X0098142Y0123681D02*
X0097742Y0123681D01*
X0101283Y0120484D02*
X0193426Y0120484D01*
X0188352Y0114861D02*
X0187458Y0115755D01*
X0186290Y0116239D01*
X0185026Y0116239D01*
X0183858Y0115755D01*
X0182964Y0114861D01*
X0182480Y0113693D01*
X0182480Y0112429D01*
X0182964Y0111261D01*
X0183858Y0110367D01*
X0185026Y0109883D01*
X0186290Y0109883D01*
X0187458Y0110367D01*
X0188352Y0111261D01*
X0188836Y0112429D01*
X0188836Y0113693D01*
X0188352Y0114861D01*
X0188672Y0114090D02*
X0242247Y0114090D01*
X0241813Y0115688D02*
X0187525Y0115688D01*
X0188836Y0112491D02*
X0243556Y0112491D01*
X0248469Y0112491D02*
X0273661Y0112491D01*
X0272259Y0114090D02*
X0249778Y0114090D01*
X0250213Y0115688D02*
X0271813Y0115688D01*
X0274400Y0122082D02*
X0258521Y0122082D01*
X0257879Y0123681D02*
X0272487Y0123681D01*
X0271870Y0125279D02*
X0250213Y0125279D01*
X0250184Y0126878D02*
X0271903Y0126878D01*
X0272639Y0128476D02*
X0249450Y0128476D01*
X0249609Y0123681D02*
X0252807Y0123681D01*
X0252165Y0122082D02*
X0247592Y0122082D01*
X0242010Y0117287D02*
X0179823Y0117287D01*
X0180897Y0115688D02*
X0183791Y0115688D01*
X0182645Y0114090D02*
X0180985Y0114090D01*
X0180035Y0112491D02*
X0182480Y0112491D01*
X0183332Y0110893D02*
X0029627Y0110893D01*
X0030463Y0109294D02*
X0439976Y0109294D01*
X0439976Y0107696D02*
X0251471Y0107696D01*
X0251845Y0107322D02*
X0250785Y0108382D01*
X0249400Y0108955D01*
X0247901Y0108955D01*
X0246516Y0108382D01*
X0245456Y0107322D01*
X0244882Y0105937D01*
X0244882Y0104437D01*
X0245456Y0103052D01*
X0246516Y0101992D01*
X0247901Y0101419D01*
X0249400Y0101419D01*
X0250785Y0101992D01*
X0251845Y0103052D01*
X0252419Y0104437D01*
X0252419Y0105937D01*
X0251845Y0107322D01*
X0252352Y0106097D02*
X0297484Y0106097D01*
X0296953Y0105877D02*
X0296059Y0104983D01*
X0295575Y0103815D01*
X0295575Y0102551D01*
X0296059Y0101383D01*
X0296953Y0100489D01*
X0298121Y0100005D01*
X0299385Y0100005D01*
X0300553Y0100489D01*
X0301447Y0101383D01*
X0301931Y0102551D01*
X0301931Y0103815D01*
X0301447Y0104983D01*
X0300553Y0105877D01*
X0299385Y0106361D01*
X0298121Y0106361D01*
X0296953Y0105877D01*
X0295858Y0104499D02*
X0252419Y0104499D01*
X0251693Y0102900D02*
X0295575Y0102900D01*
X0296140Y0101302D02*
X0179376Y0101302D01*
X0179326Y0101183D02*
X0179810Y0102351D01*
X0179810Y0103615D01*
X0179326Y0104783D01*
X0178432Y0105677D01*
X0177264Y0106161D01*
X0176000Y0106161D01*
X0174832Y0105677D01*
X0173938Y0104783D01*
X0173454Y0103615D01*
X0173454Y0102351D01*
X0173938Y0101183D01*
X0174832Y0100289D01*
X0176000Y0099805D01*
X0177264Y0099805D01*
X0178432Y0100289D01*
X0179326Y0101183D01*
X0179810Y0102900D02*
X0245608Y0102900D01*
X0244882Y0104499D02*
X0179444Y0104499D01*
X0177418Y0106097D02*
X0244948Y0106097D01*
X0245830Y0107696D02*
X0030647Y0107696D01*
X0030291Y0106097D02*
X0175846Y0106097D01*
X0173820Y0104499D02*
X0118532Y0104499D01*
X0118532Y0102900D02*
X0173454Y0102900D01*
X0173889Y0101302D02*
X0118532Y0101302D01*
X0134083Y0099703D02*
X0135296Y0099703D01*
X0138776Y0099703D02*
X0439976Y0099703D01*
X0439976Y0098105D02*
X0140511Y0098105D01*
X0141002Y0096506D02*
X0439976Y0096506D01*
X0439976Y0094908D02*
X0360913Y0094908D01*
X0360628Y0095193D02*
X0359243Y0095767D01*
X0357743Y0095767D01*
X0356358Y0095193D01*
X0355298Y0094133D01*
X0354724Y0092748D01*
X0354724Y0091248D01*
X0355298Y0089863D01*
X0356358Y0088803D01*
X0357743Y0088230D01*
X0359243Y0088230D01*
X0360628Y0088803D01*
X0361688Y0089863D01*
X0362261Y0091248D01*
X0362261Y0092748D01*
X0361688Y0094133D01*
X0360628Y0095193D01*
X0362029Y0093309D02*
X0439976Y0093309D01*
X0439976Y0091711D02*
X0362261Y0091711D01*
X0361791Y0090112D02*
X0374357Y0090112D01*
X0374803Y0090558D02*
X0373909Y0089664D01*
X0373425Y0088496D01*
X0373425Y0087232D01*
X0373909Y0086064D01*
X0374803Y0085170D01*
X0375971Y0084686D01*
X0377235Y0084686D01*
X0378403Y0085170D01*
X0379297Y0086064D01*
X0379781Y0087232D01*
X0379781Y0088496D01*
X0379297Y0089664D01*
X0378403Y0090558D01*
X0377235Y0091042D01*
X0375971Y0091042D01*
X0374803Y0090558D01*
X0373432Y0088514D02*
X0359928Y0088514D01*
X0357057Y0088514D02*
X0342606Y0088514D01*
X0341920Y0088230D02*
X0343305Y0088803D01*
X0344365Y0089863D01*
X0344939Y0091248D01*
X0344939Y0092748D01*
X0344365Y0094133D01*
X0343305Y0095193D01*
X0341920Y0095767D01*
X0340420Y0095767D01*
X0339035Y0095193D01*
X0337975Y0094133D01*
X0337402Y0092748D01*
X0337402Y0091248D01*
X0337975Y0089863D01*
X0339035Y0088803D01*
X0340420Y0088230D01*
X0341920Y0088230D01*
X0339735Y0088514D02*
X0337655Y0088514D01*
X0337655Y0088019D02*
X0337171Y0086851D01*
X0336277Y0085957D01*
X0335109Y0085474D01*
X0333845Y0085474D01*
X0332677Y0085957D01*
X0331783Y0086851D01*
X0331299Y0088019D01*
X0331299Y0089284D01*
X0331783Y0090452D01*
X0332677Y0091346D01*
X0333845Y0091830D01*
X0335109Y0091830D01*
X0336277Y0091346D01*
X0337171Y0090452D01*
X0337655Y0089284D01*
X0337655Y0088019D01*
X0337198Y0086915D02*
X0373556Y0086915D01*
X0374656Y0085317D02*
X0230169Y0085317D01*
X0229597Y0085080D02*
X0230766Y0085564D01*
X0231659Y0086458D01*
X0232143Y0087626D01*
X0232143Y0088890D01*
X0231659Y0090058D01*
X0230766Y0090952D01*
X0229597Y0091436D01*
X0228333Y0091436D01*
X0227165Y0090952D01*
X0226271Y0090058D01*
X0225787Y0088890D01*
X0225787Y0087626D01*
X0226271Y0086458D01*
X0227165Y0085564D01*
X0228333Y0085080D01*
X0229597Y0085080D01*
X0227762Y0085317D02*
X0186551Y0085317D01*
X0186906Y0085464D02*
X0187800Y0086358D01*
X0188284Y0087526D01*
X0188284Y0088790D01*
X0187800Y0089958D01*
X0186906Y0090852D01*
X0185738Y0091336D01*
X0184474Y0091336D01*
X0183306Y0090852D01*
X0182412Y0089958D01*
X0181928Y0088790D01*
X0181928Y0087526D01*
X0182412Y0086358D01*
X0183306Y0085464D01*
X0184474Y0084980D01*
X0185738Y0084980D01*
X0186906Y0085464D01*
X0188031Y0086915D02*
X0226082Y0086915D01*
X0225787Y0088514D02*
X0220477Y0088514D01*
X0220266Y0088426D02*
X0221651Y0089000D01*
X0222711Y0090060D01*
X0223285Y0091445D01*
X0223285Y0092944D01*
X0222711Y0094330D01*
X0221651Y0095390D01*
X0220266Y0095963D01*
X0218767Y0095963D01*
X0217382Y0095390D01*
X0216322Y0094330D01*
X0215748Y0092944D01*
X0215748Y0091445D01*
X0216322Y0090060D01*
X0217382Y0089000D01*
X0218767Y0088426D01*
X0220266Y0088426D01*
X0218556Y0088514D02*
X0205910Y0088514D01*
X0205699Y0088426D02*
X0207084Y0089000D01*
X0208144Y0090060D01*
X0208718Y0091445D01*
X0208718Y0092944D01*
X0208144Y0094330D01*
X0207084Y0095390D01*
X0205699Y0095963D01*
X0204200Y0095963D01*
X0202815Y0095390D01*
X0201755Y0094330D01*
X0201181Y0092944D01*
X0201181Y0091445D01*
X0201755Y0090060D01*
X0202815Y0089000D01*
X0204200Y0088426D01*
X0205699Y0088426D01*
X0203989Y0088514D02*
X0188284Y0088514D01*
X0187646Y0090112D02*
X0201733Y0090112D01*
X0201181Y0091711D02*
X0140372Y0091711D01*
X0139821Y0093309D02*
X0201332Y0093309D01*
X0202333Y0094908D02*
X0140821Y0094908D01*
X0141002Y0090112D02*
X0182566Y0090112D01*
X0181928Y0088514D02*
X0140945Y0088514D01*
X0140120Y0086915D02*
X0182181Y0086915D01*
X0183661Y0085317D02*
X0134487Y0085317D01*
X0134899Y0083718D02*
X0171354Y0083718D01*
X0171469Y0083833D02*
X0170575Y0082939D01*
X0170091Y0081771D01*
X0170091Y0080507D01*
X0170575Y0079339D01*
X0171469Y0078445D01*
X0172637Y0077961D01*
X0173901Y0077961D01*
X0175069Y0078445D01*
X0175963Y0079339D01*
X0176447Y0080507D01*
X0176447Y0081771D01*
X0175963Y0082939D01*
X0175069Y0083833D01*
X0173901Y0084317D01*
X0172637Y0084317D01*
X0171469Y0083833D01*
X0170236Y0082120D02*
X0134640Y0082120D01*
X0133529Y0080521D02*
X0170091Y0080521D01*
X0170991Y0078923D02*
X0118926Y0078923D01*
X0118926Y0080521D02*
X0128338Y0080521D01*
X0127227Y0082120D02*
X0118926Y0082120D01*
X0118926Y0083718D02*
X0126969Y0083718D01*
X0127380Y0085317D02*
X0118926Y0085317D01*
X0118926Y0086915D02*
X0127850Y0086915D01*
X0127025Y0088514D02*
X0118926Y0088514D01*
X0118926Y0090112D02*
X0126969Y0090112D01*
X0127598Y0091711D02*
X0118926Y0091711D01*
X0118926Y0077324D02*
X0439976Y0077324D01*
X0439976Y0075726D02*
X0118926Y0075726D01*
X0118926Y0074127D02*
X0439976Y0074127D01*
X0439976Y0072529D02*
X0118926Y0072529D01*
X0118926Y0070930D02*
X0439976Y0070930D01*
X0439976Y0069331D02*
X0118926Y0069331D01*
X0118926Y0067733D02*
X0439976Y0067733D01*
X0439976Y0066134D02*
X0118926Y0066134D01*
X0118926Y0064536D02*
X0439976Y0064536D01*
X0439976Y0062937D02*
X0118926Y0062937D01*
X0118926Y0061339D02*
X0439976Y0061339D01*
X0439976Y0059740D02*
X0118926Y0059740D01*
X0118926Y0058142D02*
X0439976Y0058142D01*
X0439976Y0056543D02*
X0118926Y0056543D01*
X0118926Y0054945D02*
X0439976Y0054945D01*
X0439976Y0053346D02*
X0118926Y0053346D01*
X0118926Y0051748D02*
X0439976Y0051748D01*
X0439976Y0050149D02*
X0118926Y0050149D01*
X0118926Y0048551D02*
X0139969Y0048551D01*
X0140506Y0049087D02*
X0139002Y0047584D01*
X0138189Y0045620D01*
X0138189Y0043494D01*
X0139002Y0041530D01*
X0140506Y0040027D01*
X0142469Y0039214D01*
X0144595Y0039214D01*
X0146559Y0040027D01*
X0148062Y0041530D01*
X0148876Y0043494D01*
X0148876Y0045620D01*
X0148062Y0047584D01*
X0146559Y0049087D01*
X0144595Y0049900D01*
X0142469Y0049900D01*
X0140506Y0049087D01*
X0138741Y0046952D02*
X0118926Y0046952D01*
X0118926Y0045354D02*
X0138189Y0045354D01*
X0138189Y0043755D02*
X0118926Y0043755D01*
X0118926Y0042157D02*
X0138743Y0042157D01*
X0139974Y0040558D02*
X0118926Y0040558D01*
X0118926Y0038960D02*
X0126084Y0038960D01*
X0125292Y0038632D02*
X0128697Y0040042D01*
X0132383Y0040042D01*
X0135788Y0038632D01*
X0138394Y0036026D01*
X0139805Y0032620D01*
X0139805Y0028935D01*
X0138394Y0025530D01*
X0135788Y0022923D01*
X0132383Y0021513D01*
X0128697Y0021513D01*
X0125292Y0022923D01*
X0122686Y0025530D01*
X0121276Y0028935D01*
X0121276Y0032620D01*
X0122686Y0036026D01*
X0125292Y0038632D01*
X0124022Y0037361D02*
X0118926Y0037361D01*
X0118926Y0035763D02*
X0122577Y0035763D01*
X0121915Y0034164D02*
X0118926Y0034164D01*
X0118926Y0032566D02*
X0121276Y0032566D01*
X0121276Y0030967D02*
X0118926Y0030967D01*
X0118926Y0029369D02*
X0121276Y0029369D01*
X0121758Y0027770D02*
X0118926Y0027770D01*
X0118926Y0026172D02*
X0122420Y0026172D01*
X0123642Y0024573D02*
X0118926Y0024573D01*
X0118926Y0022975D02*
X0125241Y0022975D01*
X0118926Y0021376D02*
X0426724Y0021376D01*
X0425178Y0022975D02*
X0418910Y0022975D01*
X0418859Y0022923D02*
X0421465Y0025530D01*
X0422876Y0028935D01*
X0422876Y0032620D01*
X0421465Y0036026D01*
X0418859Y0038632D01*
X0415454Y0040042D01*
X0411768Y0040042D01*
X0408363Y0038632D01*
X0405757Y0036026D01*
X0404346Y0032620D01*
X0404346Y0028935D01*
X0405757Y0025530D01*
X0408363Y0022923D01*
X0411768Y0021513D01*
X0415454Y0021513D01*
X0418859Y0022923D01*
X0420509Y0024573D02*
X0424516Y0024573D01*
X0423854Y0026172D02*
X0421731Y0026172D01*
X0422393Y0027770D02*
X0423835Y0027770D01*
X0423835Y0029369D02*
X0422876Y0029369D01*
X0422876Y0030967D02*
X0424308Y0030967D01*
X0424970Y0032566D02*
X0422876Y0032566D01*
X0422236Y0034164D02*
X0426221Y0034164D01*
X0427896Y0035763D02*
X0421574Y0035763D01*
X0420129Y0037361D02*
X0439976Y0037361D01*
X0439976Y0035763D02*
X0437909Y0035763D01*
X0439583Y0034164D02*
X0439976Y0034164D01*
X0439976Y0038960D02*
X0418067Y0038960D01*
X0409155Y0038960D02*
X0405307Y0038960D01*
X0405149Y0038578D02*
X0405962Y0040541D01*
X0405962Y0042667D01*
X0405149Y0044631D01*
X0403646Y0046134D01*
X0401682Y0046948D01*
X0399556Y0046948D01*
X0397592Y0046134D01*
X0396089Y0044631D01*
X0395276Y0042667D01*
X0395276Y0040541D01*
X0396089Y0038578D01*
X0397592Y0037074D01*
X0399556Y0036261D01*
X0401682Y0036261D01*
X0403646Y0037074D01*
X0405149Y0038578D01*
X0403932Y0037361D02*
X0407093Y0037361D01*
X0405648Y0035763D02*
X0364094Y0035763D01*
X0363985Y0036026D02*
X0361379Y0038632D01*
X0357974Y0040042D01*
X0354288Y0040042D01*
X0350883Y0038632D01*
X0348277Y0036026D01*
X0347863Y0035027D01*
X0347449Y0036026D01*
X0344843Y0038632D01*
X0341438Y0040042D01*
X0337752Y0040042D01*
X0334347Y0038632D01*
X0331741Y0036026D01*
X0330331Y0032620D01*
X0330331Y0028935D01*
X0331741Y0025530D01*
X0334347Y0022923D01*
X0337752Y0021513D01*
X0341438Y0021513D01*
X0344843Y0022923D01*
X0347449Y0025530D01*
X0347863Y0026528D01*
X0348277Y0025530D01*
X0350883Y0022923D01*
X0354288Y0021513D01*
X0357974Y0021513D01*
X0361379Y0022923D01*
X0363985Y0025530D01*
X0365395Y0028935D01*
X0365395Y0032620D01*
X0363985Y0036026D01*
X0362649Y0037361D02*
X0397305Y0037361D01*
X0395931Y0038960D02*
X0360587Y0038960D01*
X0364593Y0041530D02*
X0366096Y0040027D01*
X0368060Y0039214D01*
X0370186Y0039214D01*
X0372150Y0040027D01*
X0373653Y0041530D01*
X0374466Y0043494D01*
X0374466Y0045620D01*
X0373653Y0047584D01*
X0372150Y0049087D01*
X0370186Y0049900D01*
X0368060Y0049900D01*
X0366096Y0049087D01*
X0364593Y0047584D01*
X0363780Y0045620D01*
X0363780Y0043494D01*
X0364593Y0041530D01*
X0364334Y0042157D02*
X0331946Y0042157D01*
X0331946Y0042667D02*
X0331133Y0044631D01*
X0329630Y0046134D01*
X0327666Y0046948D01*
X0325540Y0046948D01*
X0323576Y0046134D01*
X0322073Y0044631D01*
X0321260Y0042667D01*
X0321260Y0040541D01*
X0322073Y0038578D01*
X0323576Y0037074D01*
X0325540Y0036261D01*
X0327666Y0036261D01*
X0329630Y0037074D01*
X0331133Y0038578D01*
X0331946Y0040541D01*
X0331946Y0042667D01*
X0331496Y0043755D02*
X0363780Y0043755D01*
X0363780Y0045354D02*
X0330410Y0045354D01*
X0322796Y0045354D02*
X0300450Y0045354D01*
X0300450Y0045620D02*
X0299637Y0047584D01*
X0298134Y0049087D01*
X0296170Y0049900D01*
X0294044Y0049900D01*
X0292080Y0049087D01*
X0290577Y0047584D01*
X0289764Y0045620D01*
X0289764Y0043494D01*
X0290577Y0041530D01*
X0292080Y0040027D01*
X0294044Y0039214D01*
X0296170Y0039214D01*
X0298134Y0040027D01*
X0299637Y0041530D01*
X0300450Y0043494D01*
X0300450Y0045620D01*
X0299898Y0046952D02*
X0364331Y0046952D01*
X0365560Y0048551D02*
X0298670Y0048551D01*
X0300450Y0043755D02*
X0321711Y0043755D01*
X0321260Y0042157D02*
X0299896Y0042157D01*
X0298665Y0040558D02*
X0321260Y0040558D01*
X0321915Y0038960D02*
X0286571Y0038960D01*
X0287363Y0038632D02*
X0283958Y0040042D01*
X0280272Y0040042D01*
X0276867Y0038632D01*
X0274261Y0036026D01*
X0272850Y0032620D01*
X0272850Y0028935D01*
X0274261Y0025530D01*
X0276867Y0022923D01*
X0280272Y0021513D01*
X0283958Y0021513D01*
X0287363Y0022923D01*
X0289969Y0025530D01*
X0291380Y0028935D01*
X0291380Y0032620D01*
X0289969Y0036026D01*
X0287363Y0038632D01*
X0288633Y0037361D02*
X0323290Y0037361D01*
X0329917Y0037361D02*
X0333077Y0037361D01*
X0331632Y0035763D02*
X0290078Y0035763D01*
X0290740Y0034164D02*
X0330970Y0034164D01*
X0330331Y0032566D02*
X0314655Y0032566D01*
X0315385Y0031836D02*
X0313882Y0033339D01*
X0311918Y0034152D01*
X0309792Y0034152D01*
X0307828Y0033339D01*
X0306325Y0031836D01*
X0305512Y0029872D01*
X0305512Y0027746D01*
X0306325Y0025782D01*
X0307828Y0024279D01*
X0309792Y0023466D01*
X0311918Y0023466D01*
X0313882Y0024279D01*
X0315385Y0025782D01*
X0316198Y0027746D01*
X0316198Y0029872D01*
X0315385Y0031836D01*
X0315745Y0030967D02*
X0330331Y0030967D01*
X0330331Y0029369D02*
X0316198Y0029369D01*
X0316198Y0027770D02*
X0330813Y0027770D01*
X0331475Y0026172D02*
X0315546Y0026172D01*
X0314176Y0024573D02*
X0332698Y0024573D01*
X0334296Y0022975D02*
X0287414Y0022975D01*
X0289013Y0024573D02*
X0307534Y0024573D01*
X0306164Y0026172D02*
X0290235Y0026172D01*
X0290897Y0027770D02*
X0305512Y0027770D01*
X0305512Y0029369D02*
X0291380Y0029369D01*
X0291380Y0030967D02*
X0305966Y0030967D01*
X0307055Y0032566D02*
X0291380Y0032566D01*
X0291549Y0040558D02*
X0254387Y0040558D01*
X0254387Y0040541D02*
X0253574Y0038578D01*
X0252071Y0037074D01*
X0250107Y0036261D01*
X0247981Y0036261D01*
X0246017Y0037074D01*
X0244514Y0038578D01*
X0243701Y0040541D01*
X0243701Y0042667D01*
X0244514Y0044631D01*
X0246017Y0046134D01*
X0247981Y0046948D01*
X0250107Y0046948D01*
X0252071Y0046134D01*
X0253574Y0044631D01*
X0254387Y0042667D01*
X0254387Y0040541D01*
X0254387Y0042157D02*
X0290318Y0042157D01*
X0289764Y0043755D02*
X0253937Y0043755D01*
X0252851Y0045354D02*
X0289764Y0045354D01*
X0290316Y0046952D02*
X0222339Y0046952D01*
X0222078Y0047584D02*
X0220575Y0049087D01*
X0218611Y0049900D01*
X0216485Y0049900D01*
X0214521Y0049087D01*
X0213018Y0047584D01*
X0212205Y0045620D01*
X0212205Y0043494D01*
X0213018Y0041530D01*
X0214521Y0040027D01*
X0216485Y0039214D01*
X0218611Y0039214D01*
X0220575Y0040027D01*
X0222078Y0041530D01*
X0222891Y0043494D01*
X0222891Y0045620D01*
X0222078Y0047584D01*
X0221111Y0048551D02*
X0291544Y0048551D01*
X0277659Y0038960D02*
X0266492Y0038960D01*
X0267284Y0038632D02*
X0263879Y0040042D01*
X0260193Y0040042D01*
X0256788Y0038632D01*
X0254182Y0036026D01*
X0252772Y0032620D01*
X0252772Y0028935D01*
X0254182Y0025530D01*
X0256788Y0022923D01*
X0260193Y0021513D01*
X0263879Y0021513D01*
X0267284Y0022923D01*
X0269890Y0025530D01*
X0271301Y0028935D01*
X0271301Y0032620D01*
X0269890Y0036026D01*
X0267284Y0038632D01*
X0268555Y0037361D02*
X0275597Y0037361D01*
X0274152Y0035763D02*
X0269999Y0035763D01*
X0270661Y0034164D02*
X0273490Y0034164D01*
X0272850Y0032566D02*
X0271301Y0032566D01*
X0271301Y0030967D02*
X0272850Y0030967D01*
X0272850Y0029369D02*
X0271301Y0029369D01*
X0270818Y0027770D02*
X0273333Y0027770D01*
X0273995Y0026172D02*
X0270156Y0026172D01*
X0268934Y0024573D02*
X0275217Y0024573D01*
X0276816Y0022975D02*
X0267335Y0022975D01*
X0256737Y0022975D02*
X0209855Y0022975D01*
X0209804Y0022923D02*
X0212410Y0025530D01*
X0213820Y0028935D01*
X0213820Y0032620D01*
X0212410Y0036026D01*
X0209804Y0038632D01*
X0206399Y0040042D01*
X0202713Y0040042D01*
X0199308Y0038632D01*
X0196702Y0036026D01*
X0196288Y0035027D01*
X0195875Y0036026D01*
X0193268Y0038632D01*
X0189863Y0040042D01*
X0186178Y0040042D01*
X0182773Y0038632D01*
X0180166Y0036026D01*
X0178756Y0032620D01*
X0178756Y0028935D01*
X0180166Y0025530D01*
X0182773Y0022923D01*
X0186178Y0021513D01*
X0189863Y0021513D01*
X0193268Y0022923D01*
X0195875Y0025530D01*
X0196288Y0026528D01*
X0196702Y0025530D01*
X0199308Y0022923D01*
X0202713Y0021513D01*
X0206399Y0021513D01*
X0209804Y0022923D01*
X0211454Y0024573D02*
X0229975Y0024573D01*
X0230269Y0024279D02*
X0228766Y0025782D01*
X0227953Y0027746D01*
X0227953Y0029872D01*
X0228766Y0031836D01*
X0230269Y0033339D01*
X0232233Y0034152D01*
X0234359Y0034152D01*
X0236323Y0033339D01*
X0237826Y0031836D01*
X0238639Y0029872D01*
X0238639Y0027746D01*
X0237826Y0025782D01*
X0236323Y0024279D01*
X0234359Y0023466D01*
X0232233Y0023466D01*
X0230269Y0024279D01*
X0228605Y0026172D02*
X0212676Y0026172D01*
X0213338Y0027770D02*
X0227953Y0027770D01*
X0227953Y0029369D02*
X0213820Y0029369D01*
X0213820Y0030967D02*
X0228406Y0030967D01*
X0229496Y0032566D02*
X0213820Y0032566D01*
X0213181Y0034164D02*
X0253411Y0034164D01*
X0252772Y0032566D02*
X0237096Y0032566D01*
X0238186Y0030967D02*
X0252772Y0030967D01*
X0252772Y0029369D02*
X0238639Y0029369D01*
X0238639Y0027770D02*
X0253254Y0027770D01*
X0253916Y0026172D02*
X0237987Y0026172D01*
X0236617Y0024573D02*
X0255139Y0024573D01*
X0254073Y0035763D02*
X0212519Y0035763D01*
X0211074Y0037361D02*
X0245731Y0037361D01*
X0244356Y0038960D02*
X0209012Y0038960D01*
X0212759Y0042157D02*
X0180372Y0042157D01*
X0180372Y0042667D02*
X0179558Y0044631D01*
X0178055Y0046134D01*
X0176091Y0046948D01*
X0173965Y0046948D01*
X0172002Y0046134D01*
X0170499Y0044631D01*
X0169685Y0042667D01*
X0169685Y0040541D01*
X0170499Y0038578D01*
X0172002Y0037074D01*
X0173965Y0036261D01*
X0176091Y0036261D01*
X0178055Y0037074D01*
X0179558Y0038578D01*
X0180372Y0040541D01*
X0180372Y0042667D01*
X0179921Y0043755D02*
X0212205Y0043755D01*
X0212205Y0045354D02*
X0178835Y0045354D01*
X0180372Y0040558D02*
X0213990Y0040558D01*
X0221106Y0040558D02*
X0243701Y0040558D01*
X0243701Y0042157D02*
X0222337Y0042157D01*
X0222891Y0043755D02*
X0244152Y0043755D01*
X0245237Y0045354D02*
X0222891Y0045354D01*
X0213985Y0048551D02*
X0147095Y0048551D01*
X0148324Y0046952D02*
X0212757Y0046952D01*
X0200100Y0038960D02*
X0192476Y0038960D01*
X0194539Y0037361D02*
X0198038Y0037361D01*
X0196593Y0035763D02*
X0195983Y0035763D01*
X0183565Y0038960D02*
X0179716Y0038960D01*
X0178342Y0037361D02*
X0181502Y0037361D01*
X0180058Y0035763D02*
X0138503Y0035763D01*
X0139165Y0034164D02*
X0179395Y0034164D01*
X0178756Y0032566D02*
X0163080Y0032566D01*
X0163810Y0031836D02*
X0162307Y0033339D01*
X0160343Y0034152D01*
X0158217Y0034152D01*
X0156254Y0033339D01*
X0154750Y0031836D01*
X0153937Y0029872D01*
X0153937Y0027746D01*
X0154750Y0025782D01*
X0156254Y0024279D01*
X0158217Y0023466D01*
X0160343Y0023466D01*
X0162307Y0024279D01*
X0163810Y0025782D01*
X0164624Y0027746D01*
X0164624Y0029872D01*
X0163810Y0031836D01*
X0164170Y0030967D02*
X0178756Y0030967D01*
X0178756Y0029369D02*
X0164624Y0029369D01*
X0164624Y0027770D02*
X0179238Y0027770D01*
X0179900Y0026172D02*
X0163971Y0026172D01*
X0162601Y0024573D02*
X0181123Y0024573D01*
X0182721Y0022975D02*
X0135839Y0022975D01*
X0137438Y0024573D02*
X0155960Y0024573D01*
X0154589Y0026172D02*
X0138660Y0026172D01*
X0139322Y0027770D02*
X0153937Y0027770D01*
X0153937Y0029369D02*
X0139805Y0029369D01*
X0139805Y0030967D02*
X0154391Y0030967D01*
X0155480Y0032566D02*
X0139805Y0032566D01*
X0137059Y0037361D02*
X0171715Y0037361D01*
X0170340Y0038960D02*
X0134996Y0038960D01*
X0147090Y0040558D02*
X0169685Y0040558D01*
X0169685Y0042157D02*
X0148322Y0042157D01*
X0148876Y0043755D02*
X0170136Y0043755D01*
X0171221Y0045354D02*
X0148876Y0045354D01*
X0193320Y0022975D02*
X0199257Y0022975D01*
X0197658Y0024573D02*
X0194918Y0024573D01*
X0196141Y0026172D02*
X0196436Y0026172D01*
X0252358Y0037361D02*
X0255518Y0037361D01*
X0253732Y0038960D02*
X0257580Y0038960D01*
X0317216Y0079765D02*
X0318110Y0078871D01*
X0319278Y0078387D01*
X0320542Y0078387D01*
X0321710Y0078871D01*
X0322604Y0079765D01*
X0323088Y0080933D01*
X0323088Y0082197D01*
X0322604Y0083365D01*
X0321710Y0084259D01*
X0320542Y0084743D01*
X0319278Y0084743D01*
X0318110Y0084259D01*
X0317216Y0083365D01*
X0316732Y0082197D01*
X0316732Y0080933D01*
X0317216Y0079765D01*
X0316903Y0080521D02*
X0176447Y0080521D01*
X0176303Y0082120D02*
X0316732Y0082120D01*
X0317569Y0083718D02*
X0175184Y0083718D01*
X0175547Y0078923D02*
X0318058Y0078923D01*
X0321762Y0078923D02*
X0439976Y0078923D01*
X0439976Y0080521D02*
X0322918Y0080521D01*
X0323088Y0082120D02*
X0439976Y0082120D01*
X0439976Y0083718D02*
X0322251Y0083718D01*
X0324462Y0088514D02*
X0313496Y0088514D01*
X0313509Y0088545D02*
X0313026Y0087377D01*
X0312132Y0086483D01*
X0310964Y0086000D01*
X0309699Y0086000D01*
X0308531Y0086483D01*
X0307637Y0087377D01*
X0307154Y0088545D01*
X0307154Y0089810D01*
X0307637Y0090978D01*
X0308531Y0091872D01*
X0309699Y0092355D01*
X0310964Y0092355D01*
X0312132Y0091872D01*
X0313026Y0090978D01*
X0313509Y0089810D01*
X0313509Y0088545D01*
X0313384Y0090112D02*
X0322206Y0090112D01*
X0322227Y0090060D02*
X0323287Y0089000D01*
X0324672Y0088426D01*
X0326172Y0088426D01*
X0327557Y0089000D01*
X0328617Y0090060D01*
X0329191Y0091445D01*
X0329191Y0092944D01*
X0328617Y0094330D01*
X0327557Y0095390D01*
X0326172Y0095963D01*
X0324672Y0095963D01*
X0323287Y0095390D01*
X0322227Y0094330D01*
X0321654Y0092944D01*
X0321654Y0091445D01*
X0322227Y0090060D01*
X0321654Y0091711D02*
X0312293Y0091711D01*
X0308370Y0091711D02*
X0306750Y0091711D01*
X0306750Y0091248D02*
X0306176Y0089863D01*
X0305116Y0088803D01*
X0303731Y0088230D01*
X0302231Y0088230D01*
X0300846Y0088803D01*
X0299786Y0089863D01*
X0299213Y0091248D01*
X0299213Y0092748D01*
X0299786Y0094133D01*
X0300846Y0095193D01*
X0302231Y0095767D01*
X0303731Y0095767D01*
X0305116Y0095193D01*
X0306176Y0094133D01*
X0306750Y0092748D01*
X0306750Y0091248D01*
X0306279Y0090112D02*
X0307279Y0090112D01*
X0307167Y0088514D02*
X0304417Y0088514D01*
X0301546Y0088514D02*
X0237800Y0088514D01*
X0237589Y0088426D02*
X0238974Y0089000D01*
X0240034Y0090060D01*
X0240608Y0091445D01*
X0240608Y0092944D01*
X0240034Y0094330D01*
X0238974Y0095390D01*
X0237589Y0095963D01*
X0236090Y0095963D01*
X0234705Y0095390D01*
X0233645Y0094330D01*
X0233071Y0092944D01*
X0233071Y0091445D01*
X0233645Y0090060D01*
X0234705Y0089000D01*
X0236090Y0088426D01*
X0237589Y0088426D01*
X0235879Y0088514D02*
X0232143Y0088514D01*
X0231849Y0086915D02*
X0308100Y0086915D01*
X0312563Y0086915D02*
X0331757Y0086915D01*
X0331299Y0088514D02*
X0326382Y0088514D01*
X0328638Y0090112D02*
X0331642Y0090112D01*
X0333558Y0091711D02*
X0329191Y0091711D01*
X0329039Y0093309D02*
X0337634Y0093309D01*
X0337402Y0091711D02*
X0335396Y0091711D01*
X0337312Y0090112D02*
X0337872Y0090112D01*
X0338750Y0094908D02*
X0328039Y0094908D01*
X0322805Y0094908D02*
X0305401Y0094908D01*
X0306517Y0093309D02*
X0321805Y0093309D01*
X0343590Y0094908D02*
X0356073Y0094908D01*
X0354957Y0093309D02*
X0344706Y0093309D01*
X0344939Y0091711D02*
X0354724Y0091711D01*
X0355195Y0090112D02*
X0344468Y0090112D01*
X0378849Y0090112D02*
X0439976Y0090112D01*
X0439976Y0088514D02*
X0379774Y0088514D01*
X0379650Y0086915D02*
X0439976Y0086915D01*
X0439976Y0085317D02*
X0378550Y0085317D01*
X0439976Y0101302D02*
X0301366Y0101302D01*
X0301931Y0102900D02*
X0439976Y0102900D01*
X0439976Y0104499D02*
X0301648Y0104499D01*
X0300022Y0106097D02*
X0439976Y0106097D01*
X0439976Y0110893D02*
X0187984Y0110893D01*
X0207566Y0094908D02*
X0216900Y0094908D01*
X0215899Y0093309D02*
X0208567Y0093309D01*
X0208718Y0091711D02*
X0215748Y0091711D01*
X0216300Y0090112D02*
X0208166Y0090112D01*
X0222733Y0090112D02*
X0226325Y0090112D01*
X0223285Y0091711D02*
X0233071Y0091711D01*
X0233222Y0093309D02*
X0223134Y0093309D01*
X0222133Y0094908D02*
X0234223Y0094908D01*
X0233623Y0090112D02*
X0231605Y0090112D01*
X0240056Y0090112D02*
X0299683Y0090112D01*
X0299213Y0091711D02*
X0240608Y0091711D01*
X0240457Y0093309D02*
X0299445Y0093309D01*
X0300561Y0094908D02*
X0239456Y0094908D01*
X0185386Y0128476D02*
X0102521Y0128476D01*
X0101668Y0130075D02*
X0184396Y0130075D01*
X0184252Y0131673D02*
X0179237Y0131673D01*
X0180165Y0133272D02*
X0184812Y0133272D01*
X0175044Y0136469D02*
X0030445Y0136469D01*
X0029583Y0134870D02*
X0173948Y0134870D01*
X0178166Y0147659D02*
X0140991Y0147659D01*
X0139730Y0149257D02*
X0177756Y0149257D01*
X0178146Y0150856D02*
X0100912Y0150856D01*
X0102218Y0149257D02*
X0136310Y0149257D01*
X0135050Y0147659D02*
X0102742Y0147659D01*
X0102732Y0146060D02*
X0106635Y0146060D01*
X0105906Y0144462D02*
X0102070Y0144462D01*
X0100407Y0142863D02*
X0105971Y0142863D01*
X0106850Y0141265D02*
X0029255Y0141265D01*
X0050407Y0142863D02*
X0055477Y0142863D01*
X0053813Y0144462D02*
X0052070Y0144462D01*
X0052732Y0146060D02*
X0053151Y0146060D01*
X0053142Y0147659D02*
X0052742Y0147659D01*
X0052218Y0149257D02*
X0053666Y0149257D01*
X0054972Y0150856D02*
X0050912Y0150856D01*
X0051706Y0154053D02*
X0054177Y0154053D01*
X0053345Y0155651D02*
X0052538Y0155651D01*
X0052742Y0157250D02*
X0053142Y0157250D01*
X0053142Y0157237D02*
X0057742Y0157237D01*
X0057742Y0161837D01*
X0057564Y0161837D01*
X0056818Y0161719D01*
X0056099Y0161486D01*
X0055426Y0161143D01*
X0054815Y0160699D01*
X0054280Y0160164D01*
X0053836Y0159553D01*
X0053493Y0158880D01*
X0053260Y0158161D01*
X0053142Y0157415D01*
X0053142Y0157237D01*
X0053483Y0158848D02*
X0052400Y0158848D01*
X0051321Y0160447D02*
X0054563Y0160447D01*
X0057742Y0160447D02*
X0058142Y0160447D01*
X0058142Y0158848D02*
X0057742Y0158848D01*
X0057742Y0157250D02*
X0058142Y0157250D01*
X0058142Y0155651D02*
X0057742Y0155651D01*
X0057742Y0154053D02*
X0058142Y0154053D01*
X0061706Y0154053D02*
X0064177Y0154053D01*
X0063345Y0155651D02*
X0062538Y0155651D01*
X0062742Y0157250D02*
X0063142Y0157250D01*
X0063142Y0157237D02*
X0067742Y0157237D01*
X0067742Y0161837D01*
X0067564Y0161837D01*
X0066818Y0161719D01*
X0066099Y0161486D01*
X0065426Y0161143D01*
X0064815Y0160699D01*
X0064280Y0160164D01*
X0063836Y0159553D01*
X0063493Y0158880D01*
X0063260Y0158161D01*
X0063142Y0157415D01*
X0063142Y0157237D01*
X0063483Y0158848D02*
X0062400Y0158848D01*
X0061321Y0160447D02*
X0064563Y0160447D01*
X0067742Y0160447D02*
X0068142Y0160447D01*
X0068142Y0158848D02*
X0067742Y0158848D01*
X0067742Y0157250D02*
X0068142Y0157250D01*
X0068142Y0155651D02*
X0067742Y0155651D01*
X0067742Y0154053D02*
X0068142Y0154053D01*
X0071706Y0154053D02*
X0074177Y0154053D01*
X0073345Y0155651D02*
X0072538Y0155651D01*
X0072742Y0157250D02*
X0073142Y0157250D01*
X0073142Y0157237D02*
X0077742Y0157237D01*
X0077742Y0161837D01*
X0077564Y0161837D01*
X0076818Y0161719D01*
X0076099Y0161486D01*
X0075426Y0161143D01*
X0074815Y0160699D01*
X0074280Y0160164D01*
X0073836Y0159553D01*
X0073493Y0158880D01*
X0073260Y0158161D01*
X0073142Y0157415D01*
X0073142Y0157237D01*
X0073483Y0158848D02*
X0072400Y0158848D01*
X0071321Y0160447D02*
X0074563Y0160447D01*
X0077742Y0160447D02*
X0078142Y0160447D01*
X0078142Y0158848D02*
X0077742Y0158848D01*
X0077742Y0157250D02*
X0078142Y0157250D01*
X0078142Y0155651D02*
X0077742Y0155651D01*
X0077742Y0154053D02*
X0078142Y0154053D01*
X0081706Y0154053D02*
X0084177Y0154053D01*
X0083345Y0155651D02*
X0082538Y0155651D01*
X0082742Y0157250D02*
X0083142Y0157250D01*
X0083142Y0157237D02*
X0087742Y0157237D01*
X0087742Y0161837D01*
X0087564Y0161837D01*
X0086818Y0161719D01*
X0086099Y0161486D01*
X0085426Y0161143D01*
X0084815Y0160699D01*
X0084280Y0160164D01*
X0083836Y0159553D01*
X0083493Y0158880D01*
X0083260Y0158161D01*
X0083142Y0157415D01*
X0083142Y0157237D01*
X0083483Y0158848D02*
X0082400Y0158848D01*
X0081321Y0160447D02*
X0084563Y0160447D01*
X0087742Y0160447D02*
X0088142Y0160447D01*
X0088142Y0158848D02*
X0087742Y0158848D01*
X0087742Y0157250D02*
X0088142Y0157250D01*
X0088142Y0155651D02*
X0087742Y0155651D01*
X0087742Y0154053D02*
X0088142Y0154053D01*
X0091706Y0154053D02*
X0094177Y0154053D01*
X0093345Y0155651D02*
X0092538Y0155651D01*
X0092742Y0157250D02*
X0093142Y0157250D01*
X0093142Y0157237D02*
X0097742Y0157237D01*
X0097742Y0161837D01*
X0097564Y0161837D01*
X0096818Y0161719D01*
X0096099Y0161486D01*
X0095426Y0161143D01*
X0094815Y0160699D01*
X0094280Y0160164D01*
X0093836Y0159553D01*
X0093493Y0158880D01*
X0093260Y0158161D01*
X0093142Y0157415D01*
X0093142Y0157237D01*
X0093483Y0158848D02*
X0092400Y0158848D01*
X0091321Y0160447D02*
X0094563Y0160447D01*
X0097742Y0160447D02*
X0098142Y0160447D01*
X0098142Y0158848D02*
X0097742Y0158848D01*
X0097742Y0157250D02*
X0098142Y0157250D01*
X0098142Y0155651D02*
X0097742Y0155651D01*
X0097742Y0154053D02*
X0098142Y0154053D01*
X0094972Y0150856D02*
X0090912Y0150856D01*
X0092218Y0149257D02*
X0093666Y0149257D01*
X0093142Y0147659D02*
X0092742Y0147659D01*
X0092732Y0146060D02*
X0093151Y0146060D01*
X0093813Y0144462D02*
X0092070Y0144462D01*
X0090407Y0142863D02*
X0095477Y0142863D01*
X0085477Y0142863D02*
X0080407Y0142863D01*
X0082070Y0144462D02*
X0083813Y0144462D01*
X0083151Y0146060D02*
X0082732Y0146060D01*
X0082742Y0147659D02*
X0083142Y0147659D01*
X0083666Y0149257D02*
X0082218Y0149257D01*
X0080912Y0150856D02*
X0084972Y0150856D01*
X0074972Y0150856D02*
X0070912Y0150856D01*
X0072218Y0149257D02*
X0073666Y0149257D01*
X0073142Y0147659D02*
X0072742Y0147659D01*
X0072732Y0146060D02*
X0073151Y0146060D01*
X0073813Y0144462D02*
X0072070Y0144462D01*
X0070407Y0142863D02*
X0075477Y0142863D01*
X0065477Y0142863D02*
X0060407Y0142863D01*
X0062070Y0144462D02*
X0063813Y0144462D01*
X0063151Y0146060D02*
X0062732Y0146060D01*
X0062742Y0147659D02*
X0063142Y0147659D01*
X0063666Y0149257D02*
X0062218Y0149257D01*
X0060912Y0150856D02*
X0064972Y0150856D01*
X0048142Y0154053D02*
X0047742Y0154053D01*
X0047742Y0155651D02*
X0048142Y0155651D01*
X0048142Y0157250D02*
X0047742Y0157250D01*
X0047742Y0157237D02*
X0047742Y0161837D01*
X0047564Y0161837D01*
X0046818Y0161719D01*
X0046099Y0161486D01*
X0045426Y0161143D01*
X0044815Y0160699D01*
X0044280Y0160164D01*
X0043836Y0159553D01*
X0043493Y0158880D01*
X0043260Y0158161D01*
X0043142Y0157415D01*
X0043142Y0157237D01*
X0047742Y0157237D01*
X0047742Y0158848D02*
X0048142Y0158848D01*
X0048142Y0160447D02*
X0047742Y0160447D01*
X0044563Y0160447D02*
X0029985Y0160447D01*
X0030647Y0158848D02*
X0043483Y0158848D01*
X0043142Y0157250D02*
X0030647Y0157250D01*
X0030106Y0155651D02*
X0043345Y0155651D01*
X0044177Y0154053D02*
X0028765Y0154053D01*
X0028315Y0162045D02*
X0133857Y0162045D01*
X0134187Y0161248D02*
X0135538Y0159897D01*
X0137302Y0159167D01*
X0139211Y0159167D01*
X0140976Y0159897D01*
X0142326Y0161248D01*
X0143057Y0163012D01*
X0143057Y0164921D01*
X0142326Y0166686D01*
X0140976Y0168036D01*
X0139211Y0168767D01*
X0137302Y0168767D01*
X0135538Y0168036D01*
X0134187Y0166686D01*
X0133457Y0164921D01*
X0133457Y0163012D01*
X0134187Y0161248D01*
X0134988Y0160447D02*
X0116734Y0160447D01*
X0117183Y0158848D02*
X0195315Y0158848D01*
X0193770Y0157250D02*
X0116831Y0157250D01*
X0111178Y0157250D02*
X0102742Y0157250D01*
X0102400Y0158848D02*
X0110827Y0158848D01*
X0111276Y0160447D02*
X0101321Y0160447D01*
X0090661Y0172968D02*
X0092011Y0174318D01*
X0092742Y0176083D01*
X0092742Y0177992D01*
X0092011Y0179756D01*
X0090661Y0181107D01*
X0088897Y0181837D01*
X0086987Y0181837D01*
X0085223Y0181107D01*
X0083872Y0179756D01*
X0083142Y0177992D01*
X0083142Y0176083D01*
X0083872Y0174318D01*
X0085223Y0172968D01*
X0086987Y0172237D01*
X0088897Y0172237D01*
X0090661Y0172968D01*
X0090927Y0173235D02*
X0133457Y0173235D01*
X0133457Y0173012D02*
X0134187Y0171248D01*
X0135538Y0169897D01*
X0137302Y0169167D01*
X0139211Y0169167D01*
X0140976Y0169897D01*
X0142326Y0171248D01*
X0143057Y0173012D01*
X0143057Y0174921D01*
X0142326Y0176686D01*
X0140976Y0178036D01*
X0139211Y0178767D01*
X0137302Y0178767D01*
X0135538Y0178036D01*
X0134187Y0176686D01*
X0133457Y0174921D01*
X0133457Y0173012D01*
X0134026Y0171636D02*
X0028883Y0171636D01*
X0030155Y0170038D02*
X0135397Y0170038D01*
X0136512Y0168439D02*
X0030647Y0168439D01*
X0030599Y0166841D02*
X0134343Y0166841D01*
X0133590Y0165242D02*
X0029936Y0165242D01*
X0028030Y0163644D02*
X0133457Y0163644D01*
X0140002Y0168439D02*
X0146512Y0168439D01*
X0147302Y0168767D02*
X0145538Y0168036D01*
X0144187Y0166686D01*
X0143457Y0164921D01*
X0143457Y0163012D01*
X0144187Y0161248D01*
X0145538Y0159897D01*
X0147302Y0159167D01*
X0149211Y0159167D01*
X0150976Y0159897D01*
X0152326Y0161248D01*
X0153057Y0163012D01*
X0153057Y0164921D01*
X0152326Y0166686D01*
X0150976Y0168036D01*
X0149211Y0168767D01*
X0147302Y0168767D01*
X0147302Y0169167D02*
X0149211Y0169167D01*
X0150976Y0169897D01*
X0152326Y0171248D01*
X0153057Y0173012D01*
X0153057Y0174921D01*
X0152326Y0176686D01*
X0150976Y0178036D01*
X0149211Y0178767D01*
X0147302Y0178767D01*
X0145538Y0178036D01*
X0144187Y0176686D01*
X0143457Y0174921D01*
X0143457Y0173012D01*
X0144187Y0171248D01*
X0145538Y0169897D01*
X0147302Y0169167D01*
X0145397Y0170038D02*
X0141116Y0170038D01*
X0142487Y0171636D02*
X0144026Y0171636D01*
X0143457Y0173235D02*
X0143057Y0173235D01*
X0143057Y0174833D02*
X0143457Y0174833D01*
X0144082Y0176432D02*
X0142431Y0176432D01*
X0140981Y0178030D02*
X0145532Y0178030D01*
X0150981Y0178030D02*
X0155532Y0178030D01*
X0155538Y0178036D02*
X0154187Y0176686D01*
X0153457Y0174921D01*
X0153457Y0173012D01*
X0154187Y0171248D01*
X0155538Y0169897D01*
X0157302Y0169167D01*
X0159211Y0169167D01*
X0160976Y0169897D01*
X0162326Y0171248D01*
X0163057Y0173012D01*
X0163057Y0174921D01*
X0162326Y0176686D01*
X0160976Y0178036D01*
X0159211Y0178767D01*
X0157302Y0178767D01*
X0155538Y0178036D01*
X0154082Y0176432D02*
X0152431Y0176432D01*
X0153057Y0174833D02*
X0153457Y0174833D01*
X0153457Y0173235D02*
X0153057Y0173235D01*
X0152487Y0171636D02*
X0154026Y0171636D01*
X0155397Y0170038D02*
X0151116Y0170038D01*
X0150002Y0168439D02*
X0156512Y0168439D01*
X0154343Y0166841D02*
X0152171Y0166841D01*
X0152924Y0165242D02*
X0153590Y0165242D01*
X0153457Y0163644D02*
X0153057Y0163644D01*
X0152656Y0162045D02*
X0153857Y0162045D01*
X0154988Y0160447D02*
X0151525Y0160447D01*
X0144988Y0160447D02*
X0141525Y0160447D01*
X0142656Y0162045D02*
X0143857Y0162045D01*
X0143457Y0163644D02*
X0143057Y0163644D01*
X0142924Y0165242D02*
X0143590Y0165242D01*
X0144343Y0166841D02*
X0142171Y0166841D01*
X0133457Y0174833D02*
X0092224Y0174833D01*
X0092742Y0176432D02*
X0134082Y0176432D01*
X0135532Y0178030D02*
X0092726Y0178030D01*
X0092064Y0179629D02*
X0174060Y0179629D01*
X0173819Y0178030D02*
X0160981Y0178030D01*
X0162431Y0176432D02*
X0174486Y0176432D01*
X0175481Y0181227D02*
X0122121Y0181227D01*
X0115574Y0181227D02*
X0112121Y0181227D01*
X0113226Y0182826D02*
X0114469Y0182826D01*
X0114094Y0184424D02*
X0113600Y0184424D01*
X0113433Y0186023D02*
X0114261Y0186023D01*
X0115072Y0187621D02*
X0112623Y0187621D01*
X0105072Y0187621D02*
X0092742Y0187621D01*
X0092717Y0186023D02*
X0104261Y0186023D01*
X0104094Y0184424D02*
X0092055Y0184424D01*
X0090317Y0182826D02*
X0104469Y0182826D01*
X0105574Y0181227D02*
X0090369Y0181227D01*
X0085514Y0181227D02*
X0080369Y0181227D01*
X0080661Y0181107D02*
X0078897Y0181837D01*
X0076987Y0181837D01*
X0075223Y0181107D01*
X0073872Y0179756D01*
X0073142Y0177992D01*
X0073142Y0176083D01*
X0073872Y0174318D01*
X0075223Y0172968D01*
X0076987Y0172237D01*
X0078897Y0172237D01*
X0080661Y0172968D01*
X0082011Y0174318D01*
X0082742Y0176083D01*
X0082742Y0177992D01*
X0082011Y0179756D01*
X0080661Y0181107D01*
X0080317Y0182826D02*
X0085566Y0182826D01*
X0083829Y0184424D02*
X0082055Y0184424D01*
X0082011Y0184318D02*
X0082742Y0186083D01*
X0082742Y0187992D01*
X0082011Y0189756D01*
X0080661Y0191107D01*
X0078897Y0191837D01*
X0076987Y0191837D01*
X0075223Y0191107D01*
X0073872Y0189756D01*
X0073142Y0187992D01*
X0073142Y0186083D01*
X0073872Y0184318D01*
X0075223Y0182968D01*
X0076987Y0182237D01*
X0078897Y0182237D01*
X0080661Y0182968D01*
X0082011Y0184318D01*
X0082717Y0186023D02*
X0083166Y0186023D01*
X0083142Y0187621D02*
X0082742Y0187621D01*
X0082233Y0189220D02*
X0083650Y0189220D01*
X0084934Y0190818D02*
X0080949Y0190818D01*
X0074934Y0190818D02*
X0070949Y0190818D01*
X0070661Y0191107D02*
X0072011Y0189756D01*
X0072742Y0187992D01*
X0072742Y0186083D01*
X0072011Y0184318D01*
X0070661Y0182968D01*
X0068897Y0182237D01*
X0066987Y0182237D01*
X0065223Y0182968D01*
X0063872Y0184318D01*
X0063142Y0186083D01*
X0063142Y0187992D01*
X0063872Y0189756D01*
X0065223Y0191107D01*
X0066987Y0191837D01*
X0068897Y0191837D01*
X0070661Y0191107D01*
X0072233Y0189220D02*
X0073650Y0189220D01*
X0073142Y0187621D02*
X0072742Y0187621D01*
X0072717Y0186023D02*
X0073166Y0186023D01*
X0073829Y0184424D02*
X0072055Y0184424D01*
X0070317Y0182826D02*
X0075566Y0182826D01*
X0075514Y0181227D02*
X0070369Y0181227D01*
X0070661Y0181107D02*
X0068897Y0181837D01*
X0066987Y0181837D01*
X0065223Y0181107D01*
X0063872Y0179756D01*
X0063142Y0177992D01*
X0063142Y0176083D01*
X0063872Y0174318D01*
X0065223Y0172968D01*
X0066987Y0172237D01*
X0068897Y0172237D01*
X0070661Y0172968D01*
X0072011Y0174318D01*
X0072742Y0176083D01*
X0072742Y0177992D01*
X0072011Y0179756D01*
X0070661Y0181107D01*
X0072064Y0179629D02*
X0073820Y0179629D01*
X0073158Y0178030D02*
X0072726Y0178030D01*
X0072742Y0176432D02*
X0073142Y0176432D01*
X0073659Y0174833D02*
X0072224Y0174833D01*
X0070927Y0173235D02*
X0074956Y0173235D01*
X0080927Y0173235D02*
X0084956Y0173235D01*
X0083659Y0174833D02*
X0082224Y0174833D01*
X0082742Y0176432D02*
X0083142Y0176432D01*
X0083158Y0178030D02*
X0082726Y0178030D01*
X0082064Y0179629D02*
X0083820Y0179629D01*
X0065514Y0181227D02*
X0060369Y0181227D01*
X0060317Y0182826D02*
X0065566Y0182826D01*
X0063829Y0184424D02*
X0062055Y0184424D01*
X0062717Y0186023D02*
X0063166Y0186023D01*
X0063142Y0187621D02*
X0062742Y0187621D01*
X0062233Y0189220D02*
X0063650Y0189220D01*
X0064934Y0190818D02*
X0060949Y0190818D01*
X0058445Y0198811D02*
X0004568Y0198811D01*
X0004568Y0200409D02*
X0058071Y0200409D01*
X0079134Y0210000D02*
X0004568Y0210000D01*
X0004568Y0208402D02*
X0079721Y0208402D01*
X0079408Y0211599D02*
X0004568Y0211599D01*
X0004568Y0213198D02*
X0080990Y0213198D01*
X0085720Y0216773D02*
X0086614Y0215879D01*
X0087782Y0215395D01*
X0089046Y0215395D01*
X0090214Y0215879D01*
X0091108Y0216773D01*
X0091592Y0217941D01*
X0091592Y0219205D01*
X0091108Y0220373D01*
X0090214Y0221267D01*
X0089046Y0221751D01*
X0087782Y0221751D01*
X0086614Y0221267D01*
X0085720Y0220373D01*
X0085236Y0219205D01*
X0085236Y0217941D01*
X0085720Y0216773D01*
X0086098Y0216395D02*
X0074008Y0216395D01*
X0073495Y0216182D02*
X0074663Y0216666D01*
X0075557Y0217560D01*
X0076041Y0218728D01*
X0076041Y0219992D01*
X0075557Y0221160D01*
X0074663Y0222054D01*
X0073495Y0222538D01*
X0072231Y0222538D01*
X0071063Y0222054D01*
X0070169Y0221160D01*
X0069713Y0220061D01*
X0069258Y0221160D01*
X0068364Y0222054D01*
X0067196Y0222538D01*
X0065932Y0222538D01*
X0064764Y0222054D01*
X0063870Y0221160D01*
X0063414Y0220061D01*
X0062959Y0221160D01*
X0062065Y0222054D01*
X0060897Y0222538D01*
X0059632Y0222538D01*
X0058464Y0222054D01*
X0057570Y0221160D01*
X0057087Y0219992D01*
X0057087Y0219782D01*
X0056483Y0219782D01*
X0055315Y0219298D01*
X0054421Y0218404D01*
X0053937Y0217236D01*
X0053937Y0215972D01*
X0054421Y0214804D01*
X0055315Y0213910D01*
X0056483Y0213426D01*
X0057747Y0213426D01*
X0058915Y0213910D01*
X0059809Y0214804D01*
X0060265Y0215904D01*
X0060720Y0214804D01*
X0061614Y0213910D01*
X0062782Y0213426D01*
X0064046Y0213426D01*
X0065214Y0213910D01*
X0066108Y0214804D01*
X0066564Y0215904D01*
X0067019Y0214804D01*
X0067913Y0213910D01*
X0069081Y0213426D01*
X0070346Y0213426D01*
X0071514Y0213910D01*
X0072408Y0214804D01*
X0072891Y0215972D01*
X0072891Y0216182D01*
X0073495Y0216182D01*
X0072399Y0214796D02*
X0104094Y0214796D01*
X0104415Y0216395D02*
X0090730Y0216395D01*
X0091592Y0217993D02*
X0105444Y0217993D01*
X0105611Y0221190D02*
X0090291Y0221190D01*
X0091432Y0219592D02*
X0439976Y0219592D01*
X0439976Y0221190D02*
X0353006Y0221190D01*
X0353068Y0221215D02*
X0355457Y0223605D01*
X0356750Y0226726D01*
X0356750Y0230105D01*
X0355457Y0233226D01*
X0353068Y0235615D01*
X0349946Y0236908D01*
X0346567Y0236908D01*
X0343446Y0235615D01*
X0341057Y0233226D01*
X0339764Y0230105D01*
X0339764Y0226726D01*
X0341057Y0223605D01*
X0343446Y0221215D01*
X0346567Y0219922D01*
X0349946Y0219922D01*
X0353068Y0221215D01*
X0354641Y0222789D02*
X0439976Y0222789D01*
X0439976Y0224387D02*
X0355781Y0224387D01*
X0356443Y0225986D02*
X0439976Y0225986D01*
X0439976Y0227584D02*
X0356750Y0227584D01*
X0356750Y0229183D02*
X0439976Y0229183D01*
X0439976Y0230781D02*
X0356469Y0230781D01*
X0355807Y0232380D02*
X0439976Y0232380D01*
X0439976Y0233978D02*
X0435810Y0233978D01*
X0438714Y0235577D02*
X0439976Y0235577D01*
X0429995Y0233978D02*
X0366515Y0233978D01*
X0366362Y0233915D02*
X0368899Y0234965D01*
X0370841Y0236907D01*
X0371891Y0239444D01*
X0371891Y0242190D01*
X0370841Y0244727D01*
X0368899Y0246668D01*
X0366362Y0247719D01*
X0363616Y0247719D01*
X0361079Y0246668D01*
X0359137Y0244727D01*
X0358087Y0242190D01*
X0358087Y0239444D01*
X0359137Y0236907D01*
X0361079Y0234965D01*
X0363616Y0233915D01*
X0366362Y0233915D01*
X0363462Y0233978D02*
X0354705Y0233978D01*
X0353106Y0235577D02*
X0360468Y0235577D01*
X0359026Y0237175D02*
X0337487Y0237175D01*
X0337376Y0236907D02*
X0338427Y0239444D01*
X0338427Y0242190D01*
X0337376Y0244727D01*
X0335434Y0246668D01*
X0332897Y0247719D01*
X0330151Y0247719D01*
X0327615Y0246668D01*
X0325673Y0244727D01*
X0324622Y0242190D01*
X0324622Y0239444D01*
X0325673Y0236907D01*
X0327615Y0234965D01*
X0330151Y0233915D01*
X0332897Y0233915D01*
X0335434Y0234965D01*
X0337376Y0236907D01*
X0336046Y0235577D02*
X0343407Y0235577D01*
X0341809Y0233978D02*
X0333051Y0233978D01*
X0329998Y0233978D02*
X0294075Y0233978D01*
X0294433Y0233620D02*
X0292044Y0236009D01*
X0288922Y0237302D01*
X0285544Y0237302D01*
X0282422Y0236009D01*
X0280033Y0233620D01*
X0278740Y0230498D01*
X0278740Y0227120D01*
X0280033Y0223998D01*
X0282422Y0221609D01*
X0285544Y0220316D01*
X0288922Y0220316D01*
X0292044Y0221609D01*
X0294433Y0223998D01*
X0295726Y0227120D01*
X0295726Y0230498D01*
X0294433Y0233620D01*
X0294947Y0232380D02*
X0340706Y0232380D01*
X0340044Y0230781D02*
X0295609Y0230781D01*
X0295726Y0229183D02*
X0339764Y0229183D01*
X0339764Y0227584D02*
X0295726Y0227584D01*
X0295256Y0225986D02*
X0340070Y0225986D01*
X0340733Y0224387D02*
X0294594Y0224387D01*
X0293223Y0222789D02*
X0341873Y0222789D01*
X0343507Y0221190D02*
X0291032Y0221190D01*
X0288844Y0219192D02*
X0285622Y0219192D01*
X0282645Y0217959D01*
X0280367Y0215680D01*
X0279134Y0212704D01*
X0279134Y0209481D01*
X0280367Y0206505D01*
X0282645Y0204226D01*
X0285622Y0202993D01*
X0288844Y0202993D01*
X0291821Y0204226D01*
X0294099Y0206505D01*
X0295332Y0209481D01*
X0295332Y0212704D01*
X0294099Y0215680D01*
X0291821Y0217959D01*
X0288844Y0219192D01*
X0291738Y0217993D02*
X0344702Y0217993D01*
X0343669Y0217565D02*
X0341391Y0215287D01*
X0340157Y0212310D01*
X0340157Y0209088D01*
X0341391Y0206111D01*
X0343669Y0203833D01*
X0346646Y0202600D01*
X0349868Y0202600D01*
X0352845Y0203833D01*
X0355123Y0206111D01*
X0356356Y0209088D01*
X0356356Y0212310D01*
X0355123Y0215287D01*
X0352845Y0217565D01*
X0349868Y0218798D01*
X0346646Y0218798D01*
X0343669Y0217565D01*
X0342498Y0216395D02*
X0293385Y0216395D01*
X0294466Y0214796D02*
X0341187Y0214796D01*
X0340525Y0213198D02*
X0295128Y0213198D01*
X0295332Y0211599D02*
X0340157Y0211599D01*
X0340157Y0210000D02*
X0295332Y0210000D01*
X0294885Y0208402D02*
X0340442Y0208402D01*
X0341104Y0206803D02*
X0294223Y0206803D01*
X0292800Y0205205D02*
X0342297Y0205205D01*
X0344215Y0203606D02*
X0290324Y0203606D01*
X0284142Y0203606D02*
X0229301Y0203606D01*
X0231776Y0205205D02*
X0281667Y0205205D01*
X0280243Y0206803D02*
X0233199Y0206803D01*
X0233862Y0208402D02*
X0279581Y0208402D01*
X0279134Y0210000D02*
X0234309Y0210000D01*
X0234309Y0211599D02*
X0279134Y0211599D01*
X0279338Y0213198D02*
X0234104Y0213198D01*
X0233442Y0214796D02*
X0280001Y0214796D01*
X0281081Y0216395D02*
X0232361Y0216395D01*
X0230714Y0217993D02*
X0282728Y0217993D01*
X0283434Y0221190D02*
X0230009Y0221190D01*
X0231020Y0221609D02*
X0233409Y0223998D01*
X0234702Y0227120D01*
X0234702Y0230498D01*
X0233409Y0233620D01*
X0231020Y0236009D01*
X0227899Y0237302D01*
X0224520Y0237302D01*
X0221399Y0236009D01*
X0219009Y0233620D01*
X0217717Y0230498D01*
X0217717Y0227120D01*
X0219009Y0223998D01*
X0221399Y0221609D01*
X0224520Y0220316D01*
X0227899Y0220316D01*
X0231020Y0221609D01*
X0232200Y0222789D02*
X0281243Y0222789D01*
X0279872Y0224387D02*
X0233570Y0224387D01*
X0234233Y0225986D02*
X0279210Y0225986D01*
X0278740Y0227584D02*
X0234702Y0227584D01*
X0234702Y0229183D02*
X0278740Y0229183D01*
X0278857Y0230781D02*
X0234585Y0230781D01*
X0233923Y0232380D02*
X0279519Y0232380D01*
X0280391Y0233978D02*
X0233051Y0233978D01*
X0231453Y0235577D02*
X0238814Y0235577D01*
X0239032Y0235359D02*
X0241569Y0234308D01*
X0244315Y0234308D01*
X0246852Y0235359D01*
X0248793Y0237301D01*
X0249844Y0239838D01*
X0249844Y0242584D01*
X0248793Y0245120D01*
X0246852Y0247062D01*
X0244315Y0248113D01*
X0241569Y0248113D01*
X0239032Y0247062D01*
X0237090Y0245120D01*
X0236039Y0242584D01*
X0236039Y0239838D01*
X0237090Y0237301D01*
X0239032Y0235359D01*
X0237216Y0237175D02*
X0228205Y0237175D01*
X0224214Y0237175D02*
X0215203Y0237175D01*
X0215329Y0237301D02*
X0216380Y0239838D01*
X0216380Y0242584D01*
X0215329Y0245120D01*
X0213387Y0247062D01*
X0210850Y0248113D01*
X0208104Y0248113D01*
X0205567Y0247062D01*
X0203626Y0245120D01*
X0202575Y0242584D01*
X0202575Y0239838D01*
X0203626Y0237301D01*
X0205567Y0235359D01*
X0208104Y0234308D01*
X0210850Y0234308D01*
X0213387Y0235359D01*
X0215329Y0237301D01*
X0215939Y0238774D02*
X0236480Y0238774D01*
X0236039Y0240372D02*
X0216380Y0240372D01*
X0216380Y0241971D02*
X0236039Y0241971D01*
X0236448Y0243569D02*
X0215971Y0243569D01*
X0215281Y0245168D02*
X0237137Y0245168D01*
X0238736Y0246766D02*
X0213683Y0246766D01*
X0205271Y0246766D02*
X0186124Y0246766D01*
X0185828Y0247062D02*
X0183291Y0248113D01*
X0180545Y0248113D01*
X0178008Y0247062D01*
X0176067Y0245120D01*
X0175016Y0242584D01*
X0175016Y0239838D01*
X0176067Y0237301D01*
X0178008Y0235359D01*
X0180545Y0234308D01*
X0183291Y0234308D01*
X0185828Y0235359D01*
X0187770Y0237301D01*
X0188820Y0239838D01*
X0188820Y0242584D01*
X0187770Y0245120D01*
X0185828Y0247062D01*
X0187722Y0245168D02*
X0203673Y0245168D01*
X0202983Y0243569D02*
X0188412Y0243569D01*
X0188820Y0241971D02*
X0202575Y0241971D01*
X0202575Y0240372D02*
X0188820Y0240372D01*
X0188380Y0238774D02*
X0203016Y0238774D01*
X0203751Y0237175D02*
X0187644Y0237175D01*
X0186046Y0235577D02*
X0205350Y0235577D01*
X0213605Y0235577D02*
X0220966Y0235577D01*
X0219368Y0233978D02*
X0172027Y0233978D01*
X0172899Y0232380D02*
X0218496Y0232380D01*
X0217834Y0230781D02*
X0173562Y0230781D01*
X0173679Y0229183D02*
X0217717Y0229183D01*
X0217717Y0227584D02*
X0173679Y0227584D01*
X0173209Y0225986D02*
X0218186Y0225986D01*
X0218848Y0224387D02*
X0172547Y0224387D01*
X0171176Y0222789D02*
X0220219Y0222789D01*
X0222410Y0221190D02*
X0168985Y0221190D01*
X0157472Y0232380D02*
X0044713Y0232380D01*
X0044713Y0233978D02*
X0158344Y0233978D01*
X0159943Y0235577D02*
X0152581Y0235577D01*
X0152363Y0235359D02*
X0154305Y0237301D01*
X0155356Y0239838D01*
X0155356Y0242584D01*
X0154305Y0245120D01*
X0152363Y0247062D01*
X0149827Y0248113D01*
X0147081Y0248113D01*
X0144544Y0247062D01*
X0142602Y0245120D01*
X0141551Y0242584D01*
X0141551Y0239838D01*
X0142602Y0237301D01*
X0144544Y0235359D01*
X0147081Y0234308D01*
X0149827Y0234308D01*
X0152363Y0235359D01*
X0154180Y0237175D02*
X0163190Y0237175D01*
X0167181Y0237175D02*
X0176192Y0237175D01*
X0175456Y0238774D02*
X0154915Y0238774D01*
X0155356Y0240372D02*
X0175016Y0240372D01*
X0175016Y0241971D02*
X0155356Y0241971D01*
X0154948Y0243569D02*
X0175424Y0243569D01*
X0176114Y0245168D02*
X0154258Y0245168D01*
X0152659Y0246766D02*
X0177712Y0246766D01*
X0177791Y0235577D02*
X0170429Y0235577D01*
X0144326Y0235577D02*
X0044713Y0235577D01*
X0044713Y0237175D02*
X0080081Y0237175D01*
X0080512Y0236745D02*
X0081680Y0236261D01*
X0082944Y0236261D01*
X0084112Y0236745D01*
X0085006Y0237639D01*
X0085490Y0238807D01*
X0085490Y0240071D01*
X0085006Y0241239D01*
X0084112Y0242133D01*
X0082944Y0242617D01*
X0081680Y0242617D01*
X0080512Y0242133D01*
X0079618Y0241239D01*
X0079134Y0240071D01*
X0079134Y0238807D01*
X0079618Y0237639D01*
X0080512Y0236745D01*
X0079148Y0238774D02*
X0044713Y0238774D01*
X0044713Y0240372D02*
X0079259Y0240372D01*
X0080349Y0241971D02*
X0044713Y0241971D01*
X0046448Y0243569D02*
X0141959Y0243569D01*
X0141551Y0241971D02*
X0084274Y0241971D01*
X0085365Y0240372D02*
X0141551Y0240372D01*
X0141992Y0238774D02*
X0085476Y0238774D01*
X0084542Y0237175D02*
X0142728Y0237175D01*
X0142649Y0245168D02*
X0047557Y0245168D01*
X0047694Y0246766D02*
X0144248Y0246766D01*
X0105035Y0227584D02*
X0044713Y0227584D01*
X0044713Y0225986D02*
X0104246Y0225986D01*
X0104094Y0224387D02*
X0053433Y0224387D01*
X0053510Y0224310D02*
X0052616Y0225204D01*
X0051448Y0225688D01*
X0050184Y0225688D01*
X0049016Y0225204D01*
X0048122Y0224310D01*
X0047638Y0223142D01*
X0047638Y0221878D01*
X0048122Y0220710D01*
X0049016Y0219816D01*
X0050184Y0219332D01*
X0051448Y0219332D01*
X0052616Y0219816D01*
X0053510Y0220710D01*
X0053994Y0221878D01*
X0053994Y0223142D01*
X0053510Y0224310D01*
X0053994Y0222789D02*
X0104484Y0222789D01*
X0086537Y0221190D02*
X0075527Y0221190D01*
X0076041Y0219592D02*
X0085396Y0219592D01*
X0085236Y0217993D02*
X0075736Y0217993D01*
X0070199Y0221190D02*
X0069228Y0221190D01*
X0063899Y0221190D02*
X0062929Y0221190D01*
X0057600Y0221190D02*
X0053709Y0221190D01*
X0052075Y0219592D02*
X0056022Y0219592D01*
X0054250Y0217993D02*
X0004568Y0217993D01*
X0004568Y0216395D02*
X0053937Y0216395D01*
X0054429Y0214796D02*
X0004568Y0214796D01*
X0044713Y0219592D02*
X0049557Y0219592D01*
X0047923Y0221190D02*
X0044713Y0221190D01*
X0044713Y0222789D02*
X0047638Y0222789D01*
X0048199Y0224387D02*
X0044713Y0224387D01*
X0059801Y0214796D02*
X0060728Y0214796D01*
X0066100Y0214796D02*
X0067027Y0214796D01*
X0090559Y0206803D02*
X0104584Y0206803D01*
X0105853Y0208402D02*
X0091786Y0208402D01*
X0063820Y0179629D02*
X0062064Y0179629D01*
X0062726Y0178030D02*
X0063158Y0178030D01*
X0063142Y0176432D02*
X0062742Y0176432D01*
X0062224Y0174833D02*
X0063659Y0174833D01*
X0064956Y0173235D02*
X0060927Y0173235D01*
X0043659Y0174833D02*
X0029546Y0174833D01*
X0030429Y0176432D02*
X0043142Y0176432D01*
X0043158Y0178030D02*
X0030647Y0178030D01*
X0030324Y0179629D02*
X0043820Y0179629D01*
X0047742Y0130075D02*
X0048142Y0130075D01*
X0048142Y0128476D02*
X0047742Y0128476D01*
X0051668Y0130075D02*
X0054216Y0130075D01*
X0053362Y0128476D02*
X0052521Y0128476D01*
X0057742Y0128476D02*
X0058142Y0128476D01*
X0058142Y0130075D02*
X0057742Y0130075D01*
X0061668Y0130075D02*
X0064216Y0130075D01*
X0063362Y0128476D02*
X0062521Y0128476D01*
X0067742Y0128476D02*
X0068142Y0128476D01*
X0068142Y0130075D02*
X0067742Y0130075D01*
X0071668Y0130075D02*
X0074216Y0130075D01*
X0073362Y0128476D02*
X0072521Y0128476D01*
X0077742Y0128476D02*
X0078142Y0128476D01*
X0078142Y0130075D02*
X0077742Y0130075D01*
X0081668Y0130075D02*
X0084216Y0130075D01*
X0083362Y0128476D02*
X0082521Y0128476D01*
X0087742Y0128476D02*
X0088142Y0128476D01*
X0088142Y0130075D02*
X0087742Y0130075D01*
X0091668Y0130075D02*
X0094216Y0130075D01*
X0093362Y0128476D02*
X0092521Y0128476D01*
X0097742Y0128476D02*
X0098142Y0128476D01*
X0098142Y0130075D02*
X0097742Y0130075D01*
X0088142Y0125279D02*
X0087742Y0125279D01*
X0087742Y0123681D02*
X0088142Y0123681D01*
X0068142Y0123681D02*
X0067742Y0123681D01*
X0067742Y0125279D02*
X0068142Y0125279D01*
X0048142Y0125279D02*
X0047742Y0125279D01*
X0047742Y0123681D02*
X0048142Y0123681D01*
X0160002Y0168439D02*
X0163654Y0168439D01*
X0163583Y0170038D02*
X0161116Y0170038D01*
X0162487Y0171636D02*
X0164298Y0171636D01*
X0163057Y0173235D02*
X0189053Y0173235D01*
X0187990Y0174833D02*
X0163057Y0174833D01*
X0162171Y0166841D02*
X0164541Y0166841D01*
X0188443Y0181227D02*
X0245166Y0181227D01*
X0204116Y0158848D02*
X0198048Y0158848D01*
X0199593Y0157250D02*
X0203346Y0157250D01*
X0203545Y0155651D02*
X0199860Y0155651D01*
X0199254Y0154053D02*
X0204761Y0154053D01*
X0309110Y0112491D02*
X0439976Y0112491D01*
X0439976Y0048551D02*
X0372686Y0048551D01*
X0373914Y0046952D02*
X0439976Y0046952D01*
X0439976Y0045354D02*
X0404426Y0045354D01*
X0405511Y0043755D02*
X0439976Y0043755D01*
X0439976Y0042157D02*
X0405962Y0042157D01*
X0405962Y0040558D02*
X0439976Y0040558D01*
X0408312Y0022975D02*
X0361430Y0022975D01*
X0363028Y0024573D02*
X0381550Y0024573D01*
X0381844Y0024279D02*
X0380341Y0025782D01*
X0379528Y0027746D01*
X0379528Y0029872D01*
X0380341Y0031836D01*
X0381844Y0033339D01*
X0383808Y0034152D01*
X0385934Y0034152D01*
X0387898Y0033339D01*
X0389401Y0031836D01*
X0390214Y0029872D01*
X0390214Y0027746D01*
X0389401Y0025782D01*
X0387898Y0024279D01*
X0385934Y0023466D01*
X0383808Y0023466D01*
X0381844Y0024279D01*
X0380180Y0026172D02*
X0364251Y0026172D01*
X0364913Y0027770D02*
X0379528Y0027770D01*
X0379528Y0029369D02*
X0365395Y0029369D01*
X0365395Y0030967D02*
X0379981Y0030967D01*
X0381071Y0032566D02*
X0365395Y0032566D01*
X0364756Y0034164D02*
X0404986Y0034164D01*
X0404346Y0032566D02*
X0388671Y0032566D01*
X0389760Y0030967D02*
X0404346Y0030967D01*
X0404346Y0029369D02*
X0390214Y0029369D01*
X0390214Y0027770D02*
X0404829Y0027770D01*
X0405491Y0026172D02*
X0389562Y0026172D01*
X0388192Y0024573D02*
X0406713Y0024573D01*
X0395276Y0040558D02*
X0372681Y0040558D01*
X0373912Y0042157D02*
X0395276Y0042157D01*
X0395726Y0043755D02*
X0374466Y0043755D01*
X0374466Y0045354D02*
X0396812Y0045354D01*
X0365565Y0040558D02*
X0331946Y0040558D01*
X0331291Y0038960D02*
X0335139Y0038960D01*
X0344051Y0038960D02*
X0351675Y0038960D01*
X0349612Y0037361D02*
X0346114Y0037361D01*
X0347558Y0035763D02*
X0348168Y0035763D01*
X0348011Y0026172D02*
X0347715Y0026172D01*
X0346493Y0024573D02*
X0349233Y0024573D01*
X0350832Y0022975D02*
X0344894Y0022975D01*
X0352298Y0203606D02*
X0439976Y0203606D01*
X0439976Y0205205D02*
X0354217Y0205205D01*
X0355410Y0206803D02*
X0439976Y0206803D01*
X0439976Y0208402D02*
X0356072Y0208402D01*
X0356356Y0210000D02*
X0439976Y0210000D01*
X0439976Y0211599D02*
X0356356Y0211599D01*
X0355988Y0213198D02*
X0439976Y0213198D01*
X0439976Y0214796D02*
X0355326Y0214796D01*
X0354015Y0216395D02*
X0439976Y0216395D01*
X0439976Y0217993D02*
X0351811Y0217993D01*
X0369510Y0235577D02*
X0427091Y0235577D01*
X0425492Y0237175D02*
X0370952Y0237175D01*
X0371614Y0238774D02*
X0424668Y0238774D01*
X0424006Y0240372D02*
X0371891Y0240372D01*
X0371891Y0241971D02*
X0423835Y0241971D01*
X0423835Y0243569D02*
X0371320Y0243569D01*
X0370400Y0245168D02*
X0424156Y0245168D01*
X0424818Y0246766D02*
X0368663Y0246766D01*
X0361315Y0246766D02*
X0335198Y0246766D01*
X0336935Y0245168D02*
X0359578Y0245168D01*
X0358658Y0243569D02*
X0337855Y0243569D01*
X0338427Y0241971D02*
X0358087Y0241971D01*
X0358087Y0240372D02*
X0338427Y0240372D01*
X0338149Y0238774D02*
X0358364Y0238774D01*
X0327003Y0235577D02*
X0308093Y0235577D01*
X0307875Y0235359D02*
X0309817Y0237301D01*
X0310868Y0239838D01*
X0310868Y0242584D01*
X0309817Y0245120D01*
X0307875Y0247062D01*
X0305338Y0248113D01*
X0302592Y0248113D01*
X0300055Y0247062D01*
X0298114Y0245120D01*
X0297063Y0242584D01*
X0297063Y0239838D01*
X0298114Y0237301D01*
X0300055Y0235359D01*
X0302592Y0234308D01*
X0305338Y0234308D01*
X0307875Y0235359D01*
X0309691Y0237175D02*
X0325562Y0237175D01*
X0324900Y0238774D02*
X0310427Y0238774D01*
X0310868Y0240372D02*
X0324622Y0240372D01*
X0324622Y0241971D02*
X0310868Y0241971D01*
X0310459Y0243569D02*
X0325193Y0243569D01*
X0326114Y0245168D02*
X0309770Y0245168D01*
X0308171Y0246766D02*
X0327851Y0246766D01*
X0299760Y0246766D02*
X0274707Y0246766D01*
X0274411Y0247062D02*
X0271874Y0248113D01*
X0269128Y0248113D01*
X0266591Y0247062D01*
X0264649Y0245120D01*
X0263598Y0242584D01*
X0263598Y0239838D01*
X0264649Y0237301D01*
X0266591Y0235359D01*
X0269128Y0234308D01*
X0271874Y0234308D01*
X0274411Y0235359D01*
X0276352Y0237301D01*
X0277403Y0239838D01*
X0277403Y0242584D01*
X0276352Y0245120D01*
X0274411Y0247062D01*
X0276305Y0245168D02*
X0298161Y0245168D01*
X0297471Y0243569D02*
X0276995Y0243569D01*
X0277403Y0241971D02*
X0297063Y0241971D01*
X0297063Y0240372D02*
X0277403Y0240372D01*
X0276962Y0238774D02*
X0297504Y0238774D01*
X0298239Y0237175D02*
X0289228Y0237175D01*
X0292476Y0235577D02*
X0299838Y0235577D01*
X0285238Y0237175D02*
X0276227Y0237175D01*
X0274628Y0235577D02*
X0281990Y0235577D01*
X0266373Y0235577D02*
X0247069Y0235577D01*
X0248668Y0237175D02*
X0264775Y0237175D01*
X0264039Y0238774D02*
X0249403Y0238774D01*
X0249844Y0240372D02*
X0263598Y0240372D01*
X0263598Y0241971D02*
X0249844Y0241971D01*
X0249436Y0243569D02*
X0264007Y0243569D01*
X0264696Y0245168D02*
X0248746Y0245168D01*
X0247148Y0246766D02*
X0266295Y0246766D01*
X0425855Y0248365D02*
X0046778Y0248365D01*
X0039989Y0021376D02*
X0017821Y0021376D01*
M02*
