%
M48
M72
T01C0.01181
T02C0.02362
T03C0.03200
T04C0.03937
T05C0.04000
T06C0.04331
T07C0.04724
T08C0.08268
T09C0.08661
T10C0.09449
T11C0.11800
T12C0.12598
T13C0.13386
%
T01
X68429Y84715
X87720Y96132
X142839Y119360
X147169Y121722
X180634Y113848
X185358Y113061
X191657Y123297
X195201Y123691
X197957Y126841
X195594Y129990
X192839Y127234
X186933Y127234
X186933Y132746
X201106Y142982
X198744Y145738
X203469Y146132
X209768Y143376
X208980Y139439
X208980Y135108
X221579Y131171
X221972Y127234
X216461Y120541
X211736Y116998
X204650Y126447
X237720Y126053
X237720Y134715
X237720Y143376
X218429Y148100
X206224Y156762
X196382Y155974
X184571Y153219
X180240Y148100
X190083Y145344
X193626Y145738
X155043Y149281
X129453Y152431
X176697Y178415
X184965Y181171
X186933Y184715
X180634Y188258
X223547Y173297
X248744Y164636
X251106Y161486
X259768Y176447
X245988Y194951
X316461Y148100
X327091Y142195
X331421Y145738
X335358Y145738
X335358Y141801
X342445Y143376
X342445Y139833
X342445Y136289
X331815Y132352
X329846Y129596
X328272Y126447
X331815Y126447
X331815Y122904
X335358Y127234
X338902Y128022
X342051Y129596
X345201Y128415
X341657Y122904
X350319Y120935
X350319Y117392
X355437Y116604
X355437Y122116
X355437Y129596
X370791Y135305
X370791Y144163
X370791Y153219
X354650Y154006
X351894Y148100
X344413Y157943
X321972Y135108
X322760Y126447
X286146Y122510
X282209Y121329
X259768Y120935
X229453Y88258
X176106Y88258
X172169Y89439
X63311Y133927
X41067Y203612
X34768Y203612
X28469Y203612
X56815Y216604
X59965Y219360
X63114Y216604
X66264Y219360
X69413Y216604
X72563Y219360
X82012Y210305
X88508Y209518
X88114Y218573
X82012Y239439
X50516Y222510
X44217Y246132
X313311Y80778
X333390Y81565
X347957Y88652
X394807Y87864
X339295Y183927
X347169Y190226
T02
X351500Y175659
X342445Y166604
X315673Y176841
X294020Y124478
X286933Y107943
X316461Y91998
X338902Y92195
X354650Y91998
X363311Y92195
X370791Y92195
X235358Y92195
X228272Y92195
X219217Y92195
X203469Y92195
X181028Y92195
X151500Y107943
X131028Y103612
X101894Y104006
X101894Y108337
X89689Y112667
X95988Y121722
X101894Y128022
X101106Y149675
X101106Y156762
X157799Y124478
X101894Y99675
X66067Y105581
X48744Y100069
X58587Y77628
X81815Y72904
X205831Y164636
X191264Y174872
X168035Y169754
X82406Y200463
X61539Y200463
X46972Y194557
T03
X245713Y145974
X245713Y135974
X245713Y125974
X245713Y115974
X275713Y115974
X275713Y125974
X275713Y135974
X275713Y145974
X380083Y143455
X380083Y133455
X380083Y123455
X410083Y123455
X410083Y133455
X410083Y143455
X410083Y153455
X380083Y153455
T04
X140713Y146486
X140713Y126801
X118547Y184675
X108547Y184675
X108547Y194675
X118547Y194675
X118547Y204675
X108547Y204675
X108547Y214675
X118547Y214675
X118547Y224675
X108547Y224675
X25122Y179281
X15122Y179281
X15122Y169281
X25122Y169281
X25122Y159281
X15122Y159281
X15122Y149281
X25122Y149281
X25122Y139281
X15122Y139281
T05
X47642Y147037
X57642Y147037
X67642Y147037
X77642Y147037
X87642Y147037
X87642Y157037
X77642Y157037
X67642Y157037
X57642Y157037
X47642Y157037
X47642Y177037
X57642Y177037
X67642Y177037
X77642Y177037
X87642Y177037
X87642Y187037
X77642Y187037
X67642Y187037
X57642Y187037
X47642Y187037
X137957Y173967
X147957Y173967
X157957Y173967
X157957Y163967
X147957Y163967
X137957Y163967
X274965Y165935
X284965Y165935
X294965Y165935
X294965Y175935
X284965Y175935
X274965Y175935
T06
X101894Y73612
X101894Y63612
X101894Y53612
X101894Y33612
T07
X143232Y44557
X158980Y28809
X174728Y41604
X221972Y44557
X237720Y28809
X253469Y41604
X308587Y44557
X324335Y28809
X340083Y41604
X387327Y44557
X403075Y28809
X418823Y41604
T08
X382406Y240817
X348941Y240817
X315476Y241211
X282012Y241211
X248547Y241211
X215083Y241211
X181618Y241211
X148154Y241211
T09
X164886Y211093
X231815Y211093
X298744Y211093
X365673Y210699
T10
X365673Y228415
X298744Y228809
X231815Y228809
X164886Y228809
T11
X75365Y48494
X60655Y32183
T12
X11343Y28022
X60555Y61005
X11343Y242589
X452681Y242589
X452681Y28022
T13
X431815Y30778
X374335Y30778
X353075Y30778
X295594Y30778
X266461Y30778
X208980Y30778
X187720Y30778
X130240Y30778
M30
