G75*
%MOIN*%
%OFA0B0*%
%FSLAX25Y25*%
%IPPOS*%
%LPD*%
%AMOC8*
5,1,8,0,0,1.08239X$1,22.5*
%
%ADD10C,0.06000*%
%ADD11C,0.05906*%
%ADD12C,0.04800*%
%ADD13C,0.12598*%
%ADD14C,0.13386*%
%ADD15C,0.07087*%
%ADD16C,0.06496*%
%ADD17C,0.16535*%
%ADD18C,0.15737*%
%ADD19C,0.03937*%
%ADD20C,0.02756*%
%ADD21C,0.01000*%
%ADD22C,0.00787*%
D10*
X0047642Y0147037D03*
X0057642Y0147037D03*
X0067642Y0147037D03*
X0077642Y0147037D03*
X0087642Y0147037D03*
X0087642Y0157037D03*
X0077642Y0157037D03*
X0067642Y0157037D03*
X0057642Y0157037D03*
X0047642Y0157037D03*
X0047642Y0177037D03*
X0057642Y0177037D03*
X0067642Y0177037D03*
X0077642Y0177037D03*
X0087642Y0177037D03*
X0087642Y0187037D03*
X0077642Y0187037D03*
X0067642Y0187037D03*
X0057642Y0187037D03*
X0047642Y0187037D03*
X0137957Y0173967D03*
X0147957Y0173967D03*
X0157957Y0173967D03*
X0157957Y0163967D03*
X0147957Y0163967D03*
X0137957Y0163967D03*
X0274965Y0165935D03*
X0284965Y0165935D03*
X0294965Y0165935D03*
X0294965Y0175935D03*
X0284965Y0175935D03*
X0274965Y0175935D03*
D11*
X0140713Y0146486D03*
X0140713Y0126801D03*
X0118547Y0184675D03*
X0108547Y0184675D03*
X0108547Y0194675D03*
X0118547Y0194675D03*
X0118547Y0204675D03*
X0108547Y0204675D03*
X0108547Y0214675D03*
X0118547Y0214675D03*
X0118547Y0224675D03*
X0108547Y0224675D03*
X0025122Y0179281D03*
X0015122Y0179281D03*
X0015122Y0169281D03*
X0025122Y0169281D03*
X0025122Y0159281D03*
X0015122Y0159281D03*
X0015122Y0149281D03*
X0025122Y0149281D03*
X0025122Y0139281D03*
X0015122Y0139281D03*
D12*
X0245713Y0135974D03*
X0245713Y0125974D03*
X0245713Y0115974D03*
X0275713Y0115974D03*
X0275713Y0125974D03*
X0275713Y0135974D03*
X0275713Y0145974D03*
X0245713Y0145974D03*
X0380083Y0143455D03*
X0380083Y0133455D03*
X0380083Y0123455D03*
X0410083Y0123455D03*
X0410083Y0133455D03*
X0410083Y0143455D03*
X0410083Y0153455D03*
X0380083Y0153455D03*
D13*
X0365673Y0210699D03*
X0298744Y0211093D03*
X0231815Y0211093D03*
X0164886Y0211093D03*
D14*
X0164886Y0228809D03*
X0231815Y0228809D03*
X0298744Y0228809D03*
X0365673Y0228415D03*
D15*
X0387327Y0044557D03*
X0403075Y0028809D03*
X0418823Y0041604D03*
X0340083Y0041604D03*
X0324335Y0028809D03*
X0308587Y0044557D03*
X0253469Y0041604D03*
X0237720Y0028809D03*
X0221972Y0044557D03*
X0174728Y0041604D03*
X0158980Y0028809D03*
X0143232Y0044557D03*
D16*
X0101894Y0053612D03*
X0101894Y0063612D03*
X0101894Y0073612D03*
D17*
X0060555Y0061005D03*
D18*
X0060655Y0032183D03*
X0075365Y0048494D03*
D19*
X0081815Y0072904D03*
X0058587Y0077628D03*
X0101894Y0099675D03*
X0101894Y0104006D03*
X0101894Y0108337D03*
X0089689Y0112667D03*
X0095988Y0121722D03*
X0101894Y0128022D03*
X0101106Y0149675D03*
X0101106Y0156762D03*
X0157799Y0124478D03*
X0151500Y0107943D03*
X0131028Y0103612D03*
X0181028Y0092195D03*
X0203469Y0092195D03*
X0219217Y0092195D03*
X0228272Y0092195D03*
X0235358Y0092195D03*
X0286933Y0107943D03*
X0294020Y0124478D03*
X0316461Y0091998D03*
X0338902Y0092195D03*
X0354650Y0091998D03*
X0363311Y0092195D03*
X0370791Y0092195D03*
X0342445Y0166604D03*
X0351500Y0175659D03*
X0315673Y0176841D03*
X0205831Y0164636D03*
X0191264Y0174872D03*
X0168035Y0169754D03*
X0082406Y0200463D03*
X0061539Y0200463D03*
X0046972Y0194557D03*
X0066067Y0105581D03*
X0048744Y0100069D03*
D20*
X0068429Y0084715D03*
X0087720Y0096132D03*
X0142839Y0119360D03*
X0147169Y0121722D03*
X0180634Y0113848D03*
X0185358Y0113061D03*
X0191657Y0123297D03*
X0195201Y0123691D03*
X0197957Y0126841D03*
X0195594Y0129990D03*
X0192839Y0127234D03*
X0186933Y0127234D03*
X0186933Y0132746D03*
X0201106Y0142982D03*
X0198744Y0145738D03*
X0203469Y0146132D03*
X0209768Y0143376D03*
X0208980Y0139439D03*
X0208980Y0135108D03*
X0221579Y0131171D03*
X0221972Y0127234D03*
X0216461Y0120541D03*
X0211736Y0116998D03*
X0204650Y0126447D03*
X0237720Y0126053D03*
X0237720Y0134715D03*
X0237720Y0143376D03*
X0218429Y0148100D03*
X0206224Y0156762D03*
X0196382Y0155974D03*
X0184571Y0153219D03*
X0180240Y0148100D03*
X0190083Y0145344D03*
X0193626Y0145738D03*
X0155043Y0149281D03*
X0129453Y0152431D03*
X0176697Y0178415D03*
X0184965Y0181171D03*
X0186933Y0184715D03*
X0180634Y0188258D03*
X0223547Y0173297D03*
X0248744Y0164636D03*
X0251106Y0161486D03*
X0259768Y0176447D03*
X0245988Y0194951D03*
X0316461Y0148100D03*
X0327091Y0142195D03*
X0331421Y0145738D03*
X0335358Y0145738D03*
X0335358Y0141801D03*
X0342445Y0143376D03*
X0342445Y0139833D03*
X0342445Y0136289D03*
X0331815Y0132352D03*
X0329846Y0129596D03*
X0328272Y0126447D03*
X0331815Y0126447D03*
X0331815Y0122904D03*
X0335358Y0127234D03*
X0338902Y0128022D03*
X0342051Y0129596D03*
X0345201Y0128415D03*
X0341657Y0122904D03*
X0350319Y0120935D03*
X0350319Y0117392D03*
X0355437Y0116604D03*
X0355437Y0122116D03*
X0355437Y0129596D03*
X0370791Y0135305D03*
X0370791Y0144163D03*
X0370791Y0153219D03*
X0354650Y0154006D03*
X0351894Y0148100D03*
X0344413Y0157943D03*
X0321972Y0135108D03*
X0322760Y0126447D03*
X0286146Y0122510D03*
X0282209Y0121329D03*
X0259768Y0120935D03*
X0229453Y0088258D03*
X0176106Y0088258D03*
X0172169Y0089439D03*
X0063311Y0133927D03*
X0041067Y0203612D03*
X0034768Y0203612D03*
X0028469Y0203612D03*
X0056815Y0216604D03*
X0059965Y0219360D03*
X0063114Y0216604D03*
X0066264Y0219360D03*
X0069413Y0216604D03*
X0072563Y0219360D03*
X0082012Y0210305D03*
X0088508Y0209518D03*
X0088114Y0218573D03*
X0082012Y0239439D03*
X0050516Y0222510D03*
X0044217Y0246132D03*
X0313311Y0080778D03*
X0333390Y0081565D03*
X0347957Y0088652D03*
X0394807Y0087864D03*
X0339295Y0183927D03*
X0347169Y0190226D03*
D21*
X0344497Y0189158D02*
X0183376Y0189158D01*
X0183512Y0188830D02*
X0183074Y0189888D01*
X0182264Y0190698D01*
X0181206Y0191136D01*
X0180061Y0191136D01*
X0179004Y0190698D01*
X0178194Y0189888D01*
X0177756Y0188830D01*
X0177756Y0187685D01*
X0178194Y0186628D01*
X0179004Y0185818D01*
X0180061Y0185380D01*
X0181206Y0185380D01*
X0182264Y0185818D01*
X0183074Y0186628D01*
X0183512Y0187685D01*
X0183512Y0188830D01*
X0183512Y0188159D02*
X0345167Y0188159D01*
X0345539Y0187787D02*
X0346597Y0187348D01*
X0347742Y0187348D01*
X0348800Y0187787D01*
X0349609Y0188596D01*
X0350047Y0189654D01*
X0350047Y0190799D01*
X0349609Y0191857D01*
X0348800Y0192666D01*
X0347742Y0193104D01*
X0346597Y0193104D01*
X0345539Y0192666D01*
X0344729Y0191857D01*
X0344291Y0190799D01*
X0344291Y0189654D01*
X0344729Y0188596D01*
X0345539Y0187787D01*
X0344291Y0190156D02*
X0182806Y0190156D01*
X0183294Y0187161D02*
X0185318Y0187161D01*
X0185303Y0187154D02*
X0184493Y0186345D01*
X0184055Y0185287D01*
X0184055Y0184142D01*
X0184137Y0183944D01*
X0183334Y0183611D01*
X0182525Y0182801D01*
X0182087Y0181744D01*
X0182087Y0180599D01*
X0182525Y0179541D01*
X0183334Y0178731D01*
X0184392Y0178293D01*
X0185537Y0178293D01*
X0186595Y0178731D01*
X0187404Y0179541D01*
X0187843Y0180599D01*
X0187843Y0181744D01*
X0187760Y0181942D01*
X0188563Y0182275D01*
X0189373Y0183084D01*
X0189811Y0184142D01*
X0189811Y0185287D01*
X0189373Y0186345D01*
X0188563Y0187154D01*
X0187506Y0187593D01*
X0186361Y0187593D01*
X0185303Y0187154D01*
X0184418Y0186162D02*
X0182608Y0186162D01*
X0184055Y0185164D02*
X0123000Y0185164D01*
X0123000Y0185561D02*
X0122322Y0187197D01*
X0121070Y0188450D01*
X0119433Y0189128D01*
X0117662Y0189128D01*
X0116025Y0188450D01*
X0114772Y0187197D01*
X0114094Y0185561D01*
X0114094Y0183789D01*
X0114772Y0182153D01*
X0116025Y0180900D01*
X0117662Y0180222D01*
X0119433Y0180222D01*
X0121070Y0180900D01*
X0122322Y0182153D01*
X0123000Y0183789D01*
X0123000Y0185561D01*
X0122751Y0186162D02*
X0178660Y0186162D01*
X0177973Y0187161D02*
X0122337Y0187161D01*
X0121361Y0188159D02*
X0177756Y0188159D01*
X0177891Y0189158D02*
X0091634Y0189158D01*
X0091457Y0189586D02*
X0090191Y0190852D01*
X0088537Y0191537D01*
X0086747Y0191537D01*
X0085093Y0190852D01*
X0083827Y0189586D01*
X0083142Y0187933D01*
X0083142Y0186142D01*
X0083827Y0184488D01*
X0085093Y0183222D01*
X0086747Y0182537D01*
X0088537Y0182537D01*
X0090191Y0183222D01*
X0091457Y0184488D01*
X0092142Y0186142D01*
X0092142Y0187933D01*
X0091457Y0189586D01*
X0090887Y0190156D02*
X0178462Y0190156D01*
X0184055Y0184165D02*
X0123000Y0184165D01*
X0122742Y0183166D02*
X0182890Y0183166D01*
X0182262Y0182168D02*
X0122328Y0182168D01*
X0121339Y0181169D02*
X0175825Y0181169D01*
X0176124Y0181293D02*
X0175067Y0180855D01*
X0174257Y0180046D01*
X0173819Y0178988D01*
X0173819Y0177843D01*
X0174257Y0176785D01*
X0175067Y0175976D01*
X0176124Y0175537D01*
X0177269Y0175537D01*
X0178327Y0175976D01*
X0179137Y0176785D01*
X0179575Y0177843D01*
X0179575Y0178988D01*
X0179137Y0180046D01*
X0178327Y0180855D01*
X0177269Y0181293D01*
X0176124Y0181293D01*
X0177568Y0181169D02*
X0182087Y0181169D01*
X0182264Y0180171D02*
X0179011Y0180171D01*
X0179498Y0179172D02*
X0182893Y0179172D01*
X0179575Y0178174D02*
X0257425Y0178174D01*
X0257328Y0178077D02*
X0256890Y0177019D01*
X0256890Y0175874D01*
X0257328Y0174817D01*
X0258137Y0174007D01*
X0259195Y0173569D01*
X0260340Y0173569D01*
X0261398Y0174007D01*
X0262208Y0174817D01*
X0262646Y0175874D01*
X0262646Y0177019D01*
X0262208Y0178077D01*
X0261398Y0178887D01*
X0260340Y0179325D01*
X0259195Y0179325D01*
X0258137Y0178887D01*
X0257328Y0178077D01*
X0256954Y0177175D02*
X0179298Y0177175D01*
X0178528Y0176177D02*
X0256890Y0176177D01*
X0257178Y0175178D02*
X0225736Y0175178D01*
X0225987Y0174927D02*
X0225177Y0175737D01*
X0224120Y0176175D01*
X0222975Y0176175D01*
X0221917Y0175737D01*
X0221107Y0174927D01*
X0220669Y0173870D01*
X0220669Y0172725D01*
X0221107Y0171667D01*
X0221917Y0170857D01*
X0222975Y0170419D01*
X0224120Y0170419D01*
X0225177Y0170857D01*
X0225987Y0171667D01*
X0226425Y0172725D01*
X0226425Y0173870D01*
X0225987Y0174927D01*
X0226297Y0174180D02*
X0257965Y0174180D01*
X0261571Y0174180D02*
X0270821Y0174180D01*
X0271150Y0173386D02*
X0272416Y0172120D01*
X0274069Y0171435D01*
X0275860Y0171435D01*
X0277514Y0172120D01*
X0278779Y0173386D01*
X0279465Y0175040D01*
X0279465Y0176830D01*
X0278779Y0178484D01*
X0277514Y0179750D01*
X0275860Y0180435D01*
X0274069Y0180435D01*
X0272416Y0179750D01*
X0271150Y0178484D01*
X0270465Y0176830D01*
X0270465Y0175040D01*
X0271150Y0173386D01*
X0271354Y0173181D02*
X0226425Y0173181D01*
X0226201Y0172183D02*
X0272353Y0172183D01*
X0273468Y0170186D02*
X0160540Y0170186D01*
X0160506Y0170152D02*
X0161772Y0171417D01*
X0162457Y0173071D01*
X0162457Y0174862D01*
X0161772Y0176516D01*
X0160506Y0177781D01*
X0158852Y0178467D01*
X0157062Y0178467D01*
X0155408Y0177781D01*
X0154142Y0176516D01*
X0153457Y0174862D01*
X0153457Y0173071D01*
X0154142Y0171417D01*
X0155408Y0170152D01*
X0157062Y0169467D01*
X0158852Y0169467D01*
X0160506Y0170152D01*
X0161538Y0171184D02*
X0221590Y0171184D01*
X0220894Y0172183D02*
X0162089Y0172183D01*
X0162457Y0173181D02*
X0220669Y0173181D01*
X0220798Y0174180D02*
X0162457Y0174180D01*
X0162325Y0175178D02*
X0221358Y0175178D01*
X0225504Y0171184D02*
X0461630Y0171184D01*
X0461630Y0170186D02*
X0296461Y0170186D01*
X0295860Y0170435D02*
X0297514Y0169750D01*
X0298779Y0168484D01*
X0299465Y0166830D01*
X0299465Y0165040D01*
X0298779Y0163386D01*
X0297514Y0162120D01*
X0295860Y0161435D01*
X0294069Y0161435D01*
X0292416Y0162120D01*
X0291150Y0163386D01*
X0290465Y0165040D01*
X0290465Y0166830D01*
X0291150Y0168484D01*
X0292416Y0169750D01*
X0294069Y0170435D01*
X0295860Y0170435D01*
X0295860Y0171435D02*
X0297514Y0172120D01*
X0298779Y0173386D01*
X0299465Y0175040D01*
X0299465Y0176830D01*
X0298779Y0178484D01*
X0297514Y0179750D01*
X0295860Y0180435D01*
X0294069Y0180435D01*
X0292416Y0179750D01*
X0291150Y0178484D01*
X0290465Y0176830D01*
X0290465Y0175040D01*
X0291150Y0173386D01*
X0292416Y0172120D01*
X0294069Y0171435D01*
X0295860Y0171435D01*
X0297576Y0172183D02*
X0461630Y0172183D01*
X0461630Y0173181D02*
X0298575Y0173181D01*
X0299108Y0174180D02*
X0461630Y0174180D01*
X0461630Y0175178D02*
X0299465Y0175178D01*
X0299465Y0176177D02*
X0461630Y0176177D01*
X0461630Y0177175D02*
X0299322Y0177175D01*
X0298908Y0178174D02*
X0461630Y0178174D01*
X0461630Y0179172D02*
X0298091Y0179172D01*
X0296497Y0180171D02*
X0461630Y0180171D01*
X0461630Y0181169D02*
X0340158Y0181169D01*
X0339868Y0181049D02*
X0340925Y0181487D01*
X0341735Y0182297D01*
X0342173Y0183355D01*
X0342173Y0184500D01*
X0341735Y0185557D01*
X0340925Y0186367D01*
X0339868Y0186805D01*
X0338723Y0186805D01*
X0337665Y0186367D01*
X0336855Y0185557D01*
X0336417Y0184500D01*
X0336417Y0183355D01*
X0336855Y0182297D01*
X0337665Y0181487D01*
X0338723Y0181049D01*
X0339868Y0181049D01*
X0338432Y0181169D02*
X0187843Y0181169D01*
X0187665Y0180171D02*
X0273432Y0180171D01*
X0271838Y0179172D02*
X0260708Y0179172D01*
X0262111Y0178174D02*
X0271021Y0178174D01*
X0270608Y0177175D02*
X0262581Y0177175D01*
X0262646Y0176177D02*
X0270465Y0176177D01*
X0270465Y0175178D02*
X0262357Y0175178D01*
X0258827Y0179172D02*
X0187036Y0179172D01*
X0188306Y0182168D02*
X0336984Y0182168D01*
X0336495Y0183166D02*
X0189407Y0183166D01*
X0189811Y0184165D02*
X0336417Y0184165D01*
X0336692Y0185164D02*
X0189811Y0185164D01*
X0189449Y0186162D02*
X0337460Y0186162D01*
X0341130Y0186162D02*
X0461630Y0186162D01*
X0461630Y0185164D02*
X0341898Y0185164D01*
X0342173Y0184165D02*
X0461630Y0184165D01*
X0461630Y0183166D02*
X0342095Y0183166D01*
X0341606Y0182168D02*
X0461630Y0182168D01*
X0461630Y0187161D02*
X0188548Y0187161D01*
X0174382Y0180171D02*
X0090872Y0180171D01*
X0091457Y0179586D02*
X0090191Y0180852D01*
X0088537Y0181537D01*
X0086747Y0181537D01*
X0085093Y0180852D01*
X0083827Y0179586D01*
X0083142Y0177933D01*
X0083142Y0176142D01*
X0083827Y0174488D01*
X0085093Y0173222D01*
X0086747Y0172537D01*
X0088537Y0172537D01*
X0090191Y0173222D01*
X0091457Y0174488D01*
X0092142Y0176142D01*
X0092142Y0177933D01*
X0091457Y0179586D01*
X0091628Y0179172D02*
X0173895Y0179172D01*
X0173819Y0178174D02*
X0159558Y0178174D01*
X0161112Y0177175D02*
X0174095Y0177175D01*
X0174865Y0176177D02*
X0161912Y0176177D01*
X0156355Y0178174D02*
X0149558Y0178174D01*
X0148852Y0178467D02*
X0147062Y0178467D01*
X0145408Y0177781D01*
X0144142Y0176516D01*
X0143457Y0174862D01*
X0143457Y0173071D01*
X0144142Y0171417D01*
X0145408Y0170152D01*
X0147062Y0169467D01*
X0148852Y0169467D01*
X0150506Y0170152D01*
X0151772Y0171417D01*
X0152457Y0173071D01*
X0152457Y0174862D01*
X0151772Y0176516D01*
X0150506Y0177781D01*
X0148852Y0178467D01*
X0146355Y0178174D02*
X0139558Y0178174D01*
X0138852Y0178467D02*
X0137062Y0178467D01*
X0135408Y0177781D01*
X0134142Y0176516D01*
X0133457Y0174862D01*
X0133457Y0173071D01*
X0134142Y0171417D01*
X0135408Y0170152D01*
X0137062Y0169467D01*
X0138852Y0169467D01*
X0140506Y0170152D01*
X0141772Y0171417D01*
X0142457Y0173071D01*
X0142457Y0174862D01*
X0141772Y0176516D01*
X0140506Y0177781D01*
X0138852Y0178467D01*
X0136355Y0178174D02*
X0092042Y0178174D01*
X0092142Y0177175D02*
X0134802Y0177175D01*
X0134002Y0176177D02*
X0092142Y0176177D01*
X0091742Y0175178D02*
X0133588Y0175178D01*
X0133457Y0174180D02*
X0091148Y0174180D01*
X0090092Y0173181D02*
X0133457Y0173181D01*
X0133825Y0172183D02*
X0028518Y0172183D01*
X0028897Y0171804D02*
X0027644Y0173056D01*
X0026008Y0173734D01*
X0024236Y0173734D01*
X0022600Y0173056D01*
X0021347Y0171804D01*
X0020669Y0170167D01*
X0020669Y0168396D01*
X0021347Y0166759D01*
X0022600Y0165507D01*
X0024236Y0164829D01*
X0026008Y0164829D01*
X0027644Y0165507D01*
X0028897Y0166759D01*
X0029575Y0168396D01*
X0029575Y0170167D01*
X0028897Y0171804D01*
X0029153Y0171184D02*
X0134375Y0171184D01*
X0135373Y0170186D02*
X0029567Y0170186D01*
X0029575Y0169187D02*
X0271853Y0169187D01*
X0272416Y0169750D02*
X0271150Y0168484D01*
X0270465Y0166830D01*
X0270465Y0165040D01*
X0271150Y0163386D01*
X0272416Y0162120D01*
X0274069Y0161435D01*
X0275860Y0161435D01*
X0277514Y0162120D01*
X0278779Y0163386D01*
X0279465Y0165040D01*
X0279465Y0166830D01*
X0278779Y0168484D01*
X0277514Y0169750D01*
X0275860Y0170435D01*
X0274069Y0170435D01*
X0272416Y0169750D01*
X0271027Y0168189D02*
X0159522Y0168189D01*
X0158852Y0168467D02*
X0157062Y0168467D01*
X0155408Y0167781D01*
X0154142Y0166516D01*
X0153457Y0164862D01*
X0153457Y0163071D01*
X0154142Y0161417D01*
X0155408Y0160152D01*
X0157062Y0159467D01*
X0158852Y0159467D01*
X0160506Y0160152D01*
X0161772Y0161417D01*
X0162457Y0163071D01*
X0162457Y0164862D01*
X0161772Y0166516D01*
X0160506Y0167781D01*
X0158852Y0168467D01*
X0156391Y0168189D02*
X0149522Y0168189D01*
X0148852Y0168467D02*
X0147062Y0168467D01*
X0145408Y0167781D01*
X0144142Y0166516D01*
X0143457Y0164862D01*
X0143457Y0163071D01*
X0144142Y0161417D01*
X0145408Y0160152D01*
X0147062Y0159467D01*
X0148852Y0159467D01*
X0150506Y0160152D01*
X0151772Y0161417D01*
X0152457Y0163071D01*
X0152457Y0164862D01*
X0151772Y0166516D01*
X0150506Y0167781D01*
X0148852Y0168467D01*
X0150540Y0170186D02*
X0155373Y0170186D01*
X0154375Y0171184D02*
X0151538Y0171184D01*
X0152089Y0172183D02*
X0153825Y0172183D01*
X0153457Y0173181D02*
X0152457Y0173181D01*
X0152457Y0174180D02*
X0153457Y0174180D01*
X0153588Y0175178D02*
X0152325Y0175178D01*
X0151912Y0176177D02*
X0154002Y0176177D01*
X0154802Y0177175D02*
X0151112Y0177175D01*
X0144802Y0177175D02*
X0141112Y0177175D01*
X0141912Y0176177D02*
X0144002Y0176177D01*
X0143588Y0175178D02*
X0142325Y0175178D01*
X0142457Y0174180D02*
X0143457Y0174180D01*
X0143457Y0173181D02*
X0142457Y0173181D01*
X0142089Y0172183D02*
X0143825Y0172183D01*
X0144375Y0171184D02*
X0141538Y0171184D01*
X0140540Y0170186D02*
X0145373Y0170186D01*
X0146391Y0168189D02*
X0139522Y0168189D01*
X0138852Y0168467D02*
X0137062Y0168467D01*
X0135408Y0167781D01*
X0134142Y0166516D01*
X0133457Y0164862D01*
X0133457Y0163071D01*
X0134142Y0161417D01*
X0135408Y0160152D01*
X0137062Y0159467D01*
X0138852Y0159467D01*
X0140506Y0160152D01*
X0141772Y0161417D01*
X0142457Y0163071D01*
X0142457Y0164862D01*
X0141772Y0166516D01*
X0140506Y0167781D01*
X0138852Y0168467D01*
X0136391Y0168189D02*
X0029489Y0168189D01*
X0029075Y0167190D02*
X0134817Y0167190D01*
X0134008Y0166192D02*
X0028330Y0166192D01*
X0026888Y0165193D02*
X0133594Y0165193D01*
X0133457Y0164195D02*
X0003968Y0164195D01*
X0003968Y0165193D02*
X0013356Y0165193D01*
X0012600Y0165507D02*
X0014236Y0164829D01*
X0016008Y0164829D01*
X0017644Y0165507D01*
X0018897Y0166759D01*
X0019575Y0168396D01*
X0019575Y0170167D01*
X0018897Y0171804D01*
X0017644Y0173056D01*
X0016008Y0173734D01*
X0014236Y0173734D01*
X0012600Y0173056D01*
X0011347Y0171804D01*
X0010669Y0170167D01*
X0010669Y0168396D01*
X0011347Y0166759D01*
X0012600Y0165507D01*
X0011915Y0166192D02*
X0003968Y0166192D01*
X0003968Y0167190D02*
X0011169Y0167190D01*
X0010755Y0168189D02*
X0003968Y0168189D01*
X0003968Y0169187D02*
X0010669Y0169187D01*
X0010677Y0170186D02*
X0003968Y0170186D01*
X0003968Y0171184D02*
X0011091Y0171184D01*
X0011726Y0172183D02*
X0003968Y0172183D01*
X0003968Y0173181D02*
X0012902Y0173181D01*
X0013413Y0175155D02*
X0014079Y0174938D01*
X0014638Y0174850D01*
X0014638Y0178797D01*
X0015606Y0178797D01*
X0015606Y0174850D01*
X0016165Y0174938D01*
X0016831Y0175155D01*
X0017456Y0175473D01*
X0018023Y0175885D01*
X0018518Y0176381D01*
X0018930Y0176948D01*
X0019249Y0177572D01*
X0019465Y0178239D01*
X0019554Y0178797D01*
X0015606Y0178797D01*
X0015606Y0179766D01*
X0014638Y0179766D01*
X0014638Y0183713D01*
X0014079Y0183625D01*
X0013413Y0183408D01*
X0012788Y0183090D01*
X0012221Y0182678D01*
X0011726Y0182182D01*
X0011314Y0181615D01*
X0010996Y0180991D01*
X0010779Y0180324D01*
X0010690Y0179766D01*
X0014638Y0179766D01*
X0014638Y0178797D01*
X0010690Y0178797D01*
X0010779Y0178239D01*
X0010996Y0177572D01*
X0011314Y0176948D01*
X0011726Y0176381D01*
X0012221Y0175885D01*
X0012788Y0175473D01*
X0013413Y0175155D01*
X0013367Y0175178D02*
X0003968Y0175178D01*
X0003968Y0174180D02*
X0044135Y0174180D01*
X0043827Y0174488D02*
X0045093Y0173222D01*
X0046747Y0172537D01*
X0048537Y0172537D01*
X0050191Y0173222D01*
X0051457Y0174488D01*
X0052142Y0176142D01*
X0052142Y0177933D01*
X0051457Y0179586D01*
X0050191Y0180852D01*
X0048537Y0181537D01*
X0046747Y0181537D01*
X0045093Y0180852D01*
X0043827Y0179586D01*
X0043142Y0177933D01*
X0043142Y0176142D01*
X0043827Y0174488D01*
X0043541Y0175178D02*
X0026852Y0175178D01*
X0027644Y0175507D02*
X0028897Y0176759D01*
X0029575Y0178396D01*
X0029575Y0180167D01*
X0028897Y0181804D01*
X0027644Y0183056D01*
X0026008Y0183734D01*
X0024236Y0183734D01*
X0022600Y0183056D01*
X0021347Y0181804D01*
X0020669Y0180167D01*
X0020669Y0178396D01*
X0021347Y0176759D01*
X0022600Y0175507D01*
X0024236Y0174829D01*
X0026008Y0174829D01*
X0027644Y0175507D01*
X0028315Y0176177D02*
X0043142Y0176177D01*
X0043142Y0177175D02*
X0029069Y0177175D01*
X0029483Y0178174D02*
X0043242Y0178174D01*
X0043655Y0179172D02*
X0029575Y0179172D01*
X0029573Y0180171D02*
X0044411Y0180171D01*
X0045858Y0181169D02*
X0029160Y0181169D01*
X0028533Y0182168D02*
X0104766Y0182168D01*
X0104772Y0182153D02*
X0106025Y0180900D01*
X0107662Y0180222D01*
X0109433Y0180222D01*
X0111070Y0180900D01*
X0112322Y0182153D01*
X0113000Y0183789D01*
X0113000Y0185561D01*
X0112322Y0187197D01*
X0111070Y0188450D01*
X0109433Y0189128D01*
X0107662Y0189128D01*
X0106025Y0188450D01*
X0104772Y0187197D01*
X0104094Y0185561D01*
X0104094Y0183789D01*
X0104772Y0182153D01*
X0104353Y0183166D02*
X0090056Y0183166D01*
X0091133Y0184165D02*
X0104094Y0184165D01*
X0104094Y0185164D02*
X0091736Y0185164D01*
X0092142Y0186162D02*
X0104343Y0186162D01*
X0104757Y0187161D02*
X0092142Y0187161D01*
X0092048Y0188159D02*
X0105734Y0188159D01*
X0106025Y0190900D02*
X0107662Y0190222D01*
X0109433Y0190222D01*
X0111070Y0190900D01*
X0112322Y0192153D01*
X0113000Y0193789D01*
X0113000Y0195561D01*
X0112322Y0197197D01*
X0111070Y0198450D01*
X0109433Y0199128D01*
X0107662Y0199128D01*
X0106025Y0198450D01*
X0104772Y0197197D01*
X0104094Y0195561D01*
X0104094Y0193789D01*
X0104772Y0192153D01*
X0049474Y0192153D01*
X0049913Y0192592D02*
X0050441Y0193867D01*
X0050441Y0195247D01*
X0049913Y0196522D01*
X0048937Y0197498D01*
X0047662Y0198026D01*
X0046283Y0198026D01*
X0045008Y0197498D01*
X0044032Y0196522D01*
X0043504Y0195247D01*
X0043504Y0193867D01*
X0044032Y0192592D01*
X0045008Y0191617D01*
X0045973Y0191217D01*
X0045093Y0190852D01*
X0043827Y0189586D01*
X0043142Y0187933D01*
X0043142Y0186142D01*
X0043827Y0184488D01*
X0045093Y0183222D01*
X0046747Y0182537D01*
X0048537Y0182537D01*
X0050191Y0183222D01*
X0051457Y0184488D01*
X0052142Y0186142D01*
X0052142Y0187933D01*
X0051457Y0189586D01*
X0050191Y0190852D01*
X0048641Y0191494D01*
X0048937Y0191617D01*
X0049913Y0192592D01*
X0050145Y0193152D02*
X0104359Y0193152D01*
X0104094Y0194150D02*
X0050441Y0194150D01*
X0050441Y0195149D02*
X0104094Y0195149D01*
X0104337Y0196147D02*
X0050068Y0196147D01*
X0049289Y0197146D02*
X0081350Y0197146D01*
X0081716Y0196994D02*
X0080441Y0197522D01*
X0079465Y0198498D01*
X0078937Y0199773D01*
X0078937Y0201153D01*
X0079465Y0202427D01*
X0080441Y0203403D01*
X0081716Y0203931D01*
X0083095Y0203931D01*
X0084370Y0203403D01*
X0085346Y0202427D01*
X0085874Y0201153D01*
X0085874Y0199773D01*
X0085346Y0198498D01*
X0084370Y0197522D01*
X0083095Y0196994D01*
X0081716Y0196994D01*
X0083461Y0197146D02*
X0104751Y0197146D01*
X0105719Y0198144D02*
X0084992Y0198144D01*
X0085613Y0199143D02*
X0461630Y0199143D01*
X0461630Y0200141D02*
X0085874Y0200141D01*
X0085874Y0201140D02*
X0105786Y0201140D01*
X0106025Y0200900D02*
X0107662Y0200222D01*
X0109433Y0200222D01*
X0111070Y0200900D01*
X0112322Y0202153D01*
X0113000Y0203789D01*
X0113000Y0205561D01*
X0112322Y0207197D01*
X0111070Y0208450D01*
X0109433Y0209128D01*
X0107662Y0209128D01*
X0106025Y0208450D01*
X0104772Y0207197D01*
X0104094Y0205561D01*
X0104094Y0203789D01*
X0104772Y0202153D01*
X0106025Y0200900D01*
X0104787Y0202138D02*
X0085466Y0202138D01*
X0084637Y0203137D02*
X0104365Y0203137D01*
X0104094Y0204135D02*
X0003968Y0204135D01*
X0003968Y0203137D02*
X0080174Y0203137D01*
X0079345Y0202138D02*
X0003968Y0202138D01*
X0003968Y0201140D02*
X0078937Y0201140D01*
X0078937Y0200141D02*
X0003968Y0200141D01*
X0003968Y0199143D02*
X0079198Y0199143D01*
X0079819Y0198144D02*
X0003968Y0198144D01*
X0003968Y0197146D02*
X0044656Y0197146D01*
X0043877Y0196147D02*
X0003968Y0196147D01*
X0003968Y0195149D02*
X0043504Y0195149D01*
X0043504Y0194150D02*
X0003968Y0194150D01*
X0003968Y0193152D02*
X0043800Y0193152D01*
X0044471Y0192153D02*
X0003968Y0192153D01*
X0003968Y0191155D02*
X0045822Y0191155D01*
X0044396Y0190156D02*
X0003968Y0190156D01*
X0003968Y0189158D02*
X0043649Y0189158D01*
X0043236Y0188159D02*
X0003968Y0188159D01*
X0003968Y0187161D02*
X0043142Y0187161D01*
X0043142Y0186162D02*
X0003968Y0186162D01*
X0003968Y0185164D02*
X0043547Y0185164D01*
X0044150Y0184165D02*
X0003968Y0184165D01*
X0003968Y0183166D02*
X0012939Y0183166D01*
X0011715Y0182168D02*
X0003968Y0182168D01*
X0003968Y0181169D02*
X0011087Y0181169D01*
X0010755Y0180171D02*
X0003968Y0180171D01*
X0003968Y0179172D02*
X0014638Y0179172D01*
X0015606Y0179172D02*
X0020669Y0179172D01*
X0020671Y0180171D02*
X0019489Y0180171D01*
X0019465Y0180324D02*
X0019249Y0180991D01*
X0018930Y0181615D01*
X0018518Y0182182D01*
X0018023Y0182678D01*
X0017456Y0183090D01*
X0016831Y0183408D01*
X0016165Y0183625D01*
X0015606Y0183713D01*
X0015606Y0179766D01*
X0019554Y0179766D01*
X0019465Y0180324D01*
X0019158Y0181169D02*
X0021084Y0181169D01*
X0021711Y0182168D02*
X0018529Y0182168D01*
X0017305Y0183166D02*
X0022866Y0183166D01*
X0027378Y0183166D02*
X0045228Y0183166D01*
X0049425Y0181169D02*
X0055858Y0181169D01*
X0055093Y0180852D02*
X0053827Y0179586D01*
X0053142Y0177933D01*
X0053142Y0176142D01*
X0053827Y0174488D01*
X0055093Y0173222D01*
X0056747Y0172537D01*
X0058537Y0172537D01*
X0060191Y0173222D01*
X0061457Y0174488D01*
X0062142Y0176142D01*
X0062142Y0177933D01*
X0061457Y0179586D01*
X0060191Y0180852D01*
X0058537Y0181537D01*
X0056747Y0181537D01*
X0055093Y0180852D01*
X0054411Y0180171D02*
X0050872Y0180171D01*
X0051628Y0179172D02*
X0053655Y0179172D01*
X0053242Y0178174D02*
X0052042Y0178174D01*
X0052142Y0177175D02*
X0053142Y0177175D01*
X0053142Y0176177D02*
X0052142Y0176177D01*
X0051742Y0175178D02*
X0053541Y0175178D01*
X0054135Y0174180D02*
X0051148Y0174180D01*
X0050092Y0173181D02*
X0055192Y0173181D01*
X0060092Y0173181D02*
X0065192Y0173181D01*
X0065093Y0173222D02*
X0066747Y0172537D01*
X0068537Y0172537D01*
X0070191Y0173222D01*
X0071457Y0174488D01*
X0072142Y0176142D01*
X0072142Y0177933D01*
X0071457Y0179586D01*
X0070191Y0180852D01*
X0068537Y0181537D01*
X0066747Y0181537D01*
X0065093Y0180852D01*
X0063827Y0179586D01*
X0063142Y0177933D01*
X0063142Y0176142D01*
X0063827Y0174488D01*
X0065093Y0173222D01*
X0064135Y0174180D02*
X0061148Y0174180D01*
X0061742Y0175178D02*
X0063541Y0175178D01*
X0063142Y0176177D02*
X0062142Y0176177D01*
X0062142Y0177175D02*
X0063142Y0177175D01*
X0063242Y0178174D02*
X0062042Y0178174D01*
X0061628Y0179172D02*
X0063655Y0179172D01*
X0064411Y0180171D02*
X0060872Y0180171D01*
X0059425Y0181169D02*
X0065858Y0181169D01*
X0066747Y0182537D02*
X0068537Y0182537D01*
X0070191Y0183222D01*
X0071457Y0184488D01*
X0072142Y0186142D01*
X0072142Y0187933D01*
X0071457Y0189586D01*
X0070191Y0190852D01*
X0068537Y0191537D01*
X0066747Y0191537D01*
X0065093Y0190852D01*
X0063827Y0189586D01*
X0063142Y0187933D01*
X0063142Y0186142D01*
X0063827Y0184488D01*
X0065093Y0183222D01*
X0066747Y0182537D01*
X0065228Y0183166D02*
X0060056Y0183166D01*
X0060191Y0183222D02*
X0061457Y0184488D01*
X0062142Y0186142D01*
X0062142Y0187933D01*
X0061457Y0189586D01*
X0060191Y0190852D01*
X0058537Y0191537D01*
X0056747Y0191537D01*
X0055093Y0190852D01*
X0053827Y0189586D01*
X0053142Y0187933D01*
X0053142Y0186142D01*
X0053827Y0184488D01*
X0055093Y0183222D01*
X0056747Y0182537D01*
X0058537Y0182537D01*
X0060191Y0183222D01*
X0061133Y0184165D02*
X0064150Y0184165D01*
X0063547Y0185164D02*
X0061736Y0185164D01*
X0062142Y0186162D02*
X0063142Y0186162D01*
X0063142Y0187161D02*
X0062142Y0187161D01*
X0062048Y0188159D02*
X0063236Y0188159D01*
X0063649Y0189158D02*
X0061634Y0189158D01*
X0060887Y0190156D02*
X0064396Y0190156D01*
X0065822Y0191155D02*
X0059461Y0191155D01*
X0055822Y0191155D02*
X0049461Y0191155D01*
X0050887Y0190156D02*
X0054396Y0190156D01*
X0053649Y0189158D02*
X0051634Y0189158D01*
X0052048Y0188159D02*
X0053236Y0188159D01*
X0053142Y0187161D02*
X0052142Y0187161D01*
X0052142Y0186162D02*
X0053142Y0186162D01*
X0053547Y0185164D02*
X0051736Y0185164D01*
X0051133Y0184165D02*
X0054150Y0184165D01*
X0055228Y0183166D02*
X0050056Y0183166D01*
X0045192Y0173181D02*
X0027342Y0173181D01*
X0023392Y0175178D02*
X0016877Y0175178D01*
X0015606Y0175178D02*
X0014638Y0175178D01*
X0014638Y0176177D02*
X0015606Y0176177D01*
X0015606Y0177175D02*
X0014638Y0177175D01*
X0014638Y0178174D02*
X0015606Y0178174D01*
X0015606Y0180171D02*
X0014638Y0180171D01*
X0014638Y0181169D02*
X0015606Y0181169D01*
X0015606Y0182168D02*
X0014638Y0182168D01*
X0014638Y0183166D02*
X0015606Y0183166D01*
X0019444Y0178174D02*
X0020761Y0178174D01*
X0021175Y0177175D02*
X0019046Y0177175D01*
X0018315Y0176177D02*
X0021929Y0176177D01*
X0022902Y0173181D02*
X0017342Y0173181D01*
X0018518Y0172183D02*
X0021726Y0172183D01*
X0021091Y0171184D02*
X0019153Y0171184D01*
X0019567Y0170186D02*
X0020677Y0170186D01*
X0020669Y0169187D02*
X0019575Y0169187D01*
X0019489Y0168189D02*
X0020755Y0168189D01*
X0021169Y0167190D02*
X0019075Y0167190D01*
X0018330Y0166192D02*
X0021915Y0166192D01*
X0023356Y0165193D02*
X0016888Y0165193D01*
X0016008Y0163734D02*
X0014236Y0163734D01*
X0012600Y0163056D01*
X0011347Y0161804D01*
X0010669Y0160167D01*
X0010669Y0158396D01*
X0011347Y0156759D01*
X0012600Y0155507D01*
X0014236Y0154829D01*
X0016008Y0154829D01*
X0017644Y0155507D01*
X0018897Y0156759D01*
X0019575Y0158396D01*
X0019575Y0160167D01*
X0018897Y0161804D01*
X0017644Y0163056D01*
X0016008Y0163734D01*
X0017307Y0163196D02*
X0022938Y0163196D01*
X0022600Y0163056D02*
X0021347Y0161804D01*
X0020669Y0160167D01*
X0020669Y0158396D01*
X0021347Y0156759D01*
X0022600Y0155507D01*
X0024236Y0154829D01*
X0026008Y0154829D01*
X0027644Y0155507D01*
X0028897Y0156759D01*
X0029575Y0158396D01*
X0029575Y0160167D01*
X0028897Y0161804D01*
X0027644Y0163056D01*
X0026008Y0163734D01*
X0024236Y0163734D01*
X0022600Y0163056D01*
X0021741Y0162198D02*
X0018503Y0162198D01*
X0019147Y0161199D02*
X0021097Y0161199D01*
X0020683Y0160201D02*
X0019561Y0160201D01*
X0019575Y0159202D02*
X0020669Y0159202D01*
X0020749Y0158204D02*
X0019495Y0158204D01*
X0019082Y0157205D02*
X0021162Y0157205D01*
X0021900Y0156207D02*
X0018344Y0156207D01*
X0016924Y0155208D02*
X0023320Y0155208D01*
X0024236Y0153734D02*
X0022600Y0153056D01*
X0021347Y0151804D01*
X0020669Y0150167D01*
X0020669Y0148396D01*
X0021347Y0146759D01*
X0022600Y0145507D01*
X0024236Y0144829D01*
X0026008Y0144829D01*
X0027644Y0145507D01*
X0028897Y0146759D01*
X0029575Y0148396D01*
X0029575Y0150167D01*
X0028897Y0151804D01*
X0027644Y0153056D01*
X0026008Y0153734D01*
X0024236Y0153734D01*
X0022974Y0153211D02*
X0017271Y0153211D01*
X0017644Y0153056D02*
X0016008Y0153734D01*
X0014236Y0153734D01*
X0012600Y0153056D01*
X0011347Y0151804D01*
X0010669Y0150167D01*
X0010669Y0148396D01*
X0011347Y0146759D01*
X0012600Y0145507D01*
X0014236Y0144829D01*
X0016008Y0144829D01*
X0017644Y0145507D01*
X0018897Y0146759D01*
X0019575Y0148396D01*
X0019575Y0150167D01*
X0018897Y0151804D01*
X0017644Y0153056D01*
X0018488Y0152213D02*
X0021756Y0152213D01*
X0021103Y0151214D02*
X0019141Y0151214D01*
X0019555Y0150216D02*
X0020689Y0150216D01*
X0020669Y0149217D02*
X0019575Y0149217D01*
X0019501Y0148219D02*
X0020743Y0148219D01*
X0021156Y0147220D02*
X0019088Y0147220D01*
X0018359Y0146222D02*
X0021885Y0146222D01*
X0023284Y0145223D02*
X0016960Y0145223D01*
X0016008Y0143734D02*
X0014236Y0143734D01*
X0012600Y0143056D01*
X0011347Y0141804D01*
X0010669Y0140167D01*
X0010669Y0138396D01*
X0011347Y0136759D01*
X0012600Y0135507D01*
X0014236Y0134829D01*
X0016008Y0134829D01*
X0017644Y0135507D01*
X0018897Y0136759D01*
X0019575Y0138396D01*
X0019575Y0140167D01*
X0018897Y0141804D01*
X0017644Y0143056D01*
X0016008Y0143734D01*
X0017235Y0143226D02*
X0023009Y0143226D01*
X0022600Y0143056D02*
X0021347Y0141804D01*
X0020669Y0140167D01*
X0020669Y0138396D01*
X0021347Y0136759D01*
X0022600Y0135507D01*
X0024236Y0134829D01*
X0026008Y0134829D01*
X0027644Y0135507D01*
X0028897Y0136759D01*
X0029575Y0138396D01*
X0029575Y0140167D01*
X0028897Y0141804D01*
X0027644Y0143056D01*
X0026008Y0143734D01*
X0024236Y0143734D01*
X0022600Y0143056D01*
X0021771Y0142228D02*
X0018473Y0142228D01*
X0019135Y0141229D02*
X0021109Y0141229D01*
X0020696Y0140231D02*
X0019549Y0140231D01*
X0019575Y0139232D02*
X0020669Y0139232D01*
X0020737Y0138233D02*
X0019508Y0138233D01*
X0019094Y0137235D02*
X0021150Y0137235D01*
X0021870Y0136236D02*
X0018374Y0136236D01*
X0016996Y0135238D02*
X0023248Y0135238D01*
X0026996Y0135238D02*
X0060555Y0135238D01*
X0060555Y0134794D02*
X0060433Y0134500D01*
X0060433Y0133355D01*
X0060555Y0133060D01*
X0060555Y0118573D01*
X0003968Y0118573D01*
X0003968Y0219360D01*
X0043823Y0219360D01*
X0043823Y0249963D01*
X0447656Y0249963D01*
X0445248Y0247555D01*
X0443913Y0244333D01*
X0443913Y0240845D01*
X0445248Y0237622D01*
X0447715Y0235156D01*
X0450937Y0233821D01*
X0454425Y0233821D01*
X0457648Y0235156D01*
X0460114Y0237622D01*
X0461449Y0240845D01*
X0461449Y0244333D01*
X0460114Y0247555D01*
X0457706Y0249963D01*
X0461630Y0249963D01*
X0461630Y0020648D01*
X0457706Y0020648D01*
X0460114Y0023055D01*
X0461449Y0026278D01*
X0461449Y0029766D01*
X0460114Y0032988D01*
X0457648Y0035455D01*
X0454425Y0036789D01*
X0450937Y0036789D01*
X0447715Y0035455D01*
X0445248Y0032988D01*
X0443913Y0029766D01*
X0443913Y0026278D01*
X0445248Y0023055D01*
X0447656Y0020648D01*
X0095594Y0020648D01*
X0095594Y0067982D01*
X0100037Y0067982D01*
X0099204Y0067637D01*
X0097869Y0066302D01*
X0097146Y0064557D01*
X0097146Y0062668D01*
X0097869Y0060923D01*
X0099204Y0059587D01*
X0100949Y0058864D01*
X0102838Y0058864D01*
X0104583Y0059587D01*
X0105919Y0060923D01*
X0106642Y0062668D01*
X0106642Y0064557D01*
X0105919Y0066302D01*
X0104583Y0067637D01*
X0103751Y0067982D01*
X0108193Y0067982D01*
X0108193Y0096526D01*
X0103353Y0096526D01*
X0103858Y0096735D01*
X0104834Y0097710D01*
X0105362Y0098985D01*
X0105362Y0100365D01*
X0104834Y0101640D01*
X0104634Y0101841D01*
X0104834Y0102041D01*
X0105362Y0103316D01*
X0105362Y0104696D01*
X0104834Y0105971D01*
X0104634Y0106171D01*
X0104834Y0106372D01*
X0105362Y0107647D01*
X0105362Y0109027D01*
X0104834Y0110301D01*
X0103858Y0111277D01*
X0102584Y0111805D01*
X0101204Y0111805D01*
X0099929Y0111277D01*
X0099138Y0110486D01*
X0099138Y0126250D01*
X0092248Y0126250D01*
X0092248Y0141211D01*
X0060555Y0141211D01*
X0060555Y0134794D01*
X0060433Y0134239D02*
X0003968Y0134239D01*
X0003968Y0133241D02*
X0060480Y0133241D01*
X0060555Y0132242D02*
X0003968Y0132242D01*
X0003968Y0131244D02*
X0060555Y0131244D01*
X0060555Y0130245D02*
X0003968Y0130245D01*
X0003968Y0129247D02*
X0060555Y0129247D01*
X0060555Y0128248D02*
X0003968Y0128248D01*
X0003968Y0127250D02*
X0060555Y0127250D01*
X0060555Y0126251D02*
X0003968Y0126251D01*
X0003968Y0125253D02*
X0060555Y0125253D01*
X0060555Y0124254D02*
X0003968Y0124254D01*
X0003968Y0123256D02*
X0060555Y0123256D01*
X0060555Y0122257D02*
X0003968Y0122257D01*
X0003968Y0121259D02*
X0060555Y0121259D01*
X0060555Y0120260D02*
X0003968Y0120260D01*
X0003968Y0119262D02*
X0060555Y0119262D01*
X0060555Y0136236D02*
X0028374Y0136236D01*
X0029094Y0137235D02*
X0060555Y0137235D01*
X0060555Y0138233D02*
X0029508Y0138233D01*
X0029575Y0139232D02*
X0060555Y0139232D01*
X0060555Y0140231D02*
X0029549Y0140231D01*
X0029135Y0141229D02*
X0198790Y0141229D01*
X0198666Y0141352D02*
X0199476Y0140542D01*
X0200534Y0140104D01*
X0201679Y0140104D01*
X0202737Y0140542D01*
X0203546Y0141352D01*
X0203984Y0142410D01*
X0203984Y0143254D01*
X0204041Y0143254D01*
X0205099Y0143692D01*
X0205908Y0144502D01*
X0206346Y0145559D01*
X0206346Y0146704D01*
X0205908Y0147762D01*
X0205099Y0148572D01*
X0204041Y0149010D01*
X0202896Y0149010D01*
X0201838Y0148572D01*
X0201029Y0147762D01*
X0200959Y0147593D01*
X0200374Y0148178D01*
X0199317Y0148616D01*
X0198172Y0148616D01*
X0197114Y0148178D01*
X0196304Y0147368D01*
X0196185Y0147080D01*
X0196066Y0147368D01*
X0195256Y0148178D01*
X0194198Y0148616D01*
X0193054Y0148616D01*
X0191996Y0148178D01*
X0191635Y0147817D01*
X0190655Y0148222D01*
X0189510Y0148222D01*
X0188452Y0147784D01*
X0187643Y0146975D01*
X0187205Y0145917D01*
X0187205Y0144772D01*
X0187643Y0143714D01*
X0188452Y0142905D01*
X0189510Y0142467D01*
X0190655Y0142467D01*
X0191713Y0142905D01*
X0192074Y0143266D01*
X0193054Y0142860D01*
X0194198Y0142860D01*
X0195256Y0143298D01*
X0196066Y0144108D01*
X0196185Y0144396D01*
X0196304Y0144108D01*
X0197114Y0143298D01*
X0198172Y0142860D01*
X0198228Y0142860D01*
X0198228Y0142410D01*
X0198666Y0141352D01*
X0198304Y0142228D02*
X0142067Y0142228D01*
X0141598Y0142033D02*
X0143235Y0142711D01*
X0144487Y0143964D01*
X0145165Y0145601D01*
X0145165Y0147372D01*
X0144487Y0149009D01*
X0143235Y0150261D01*
X0141598Y0150939D01*
X0139827Y0150939D01*
X0138190Y0150261D01*
X0136938Y0149009D01*
X0136260Y0147372D01*
X0136260Y0145601D01*
X0136938Y0143964D01*
X0138190Y0142711D01*
X0139827Y0142033D01*
X0141598Y0142033D01*
X0139358Y0142228D02*
X0028473Y0142228D01*
X0027235Y0143226D02*
X0045232Y0143226D01*
X0045283Y0143189D02*
X0045914Y0142867D01*
X0046588Y0142648D01*
X0047142Y0142560D01*
X0047142Y0146537D01*
X0048142Y0146537D01*
X0048142Y0142560D01*
X0048695Y0142648D01*
X0049369Y0142867D01*
X0050000Y0143189D01*
X0050573Y0143605D01*
X0051074Y0144106D01*
X0051490Y0144679D01*
X0051812Y0145310D01*
X0052031Y0145984D01*
X0052119Y0146537D01*
X0048142Y0146537D01*
X0048142Y0147537D01*
X0052119Y0147537D01*
X0052031Y0148091D01*
X0051812Y0148765D01*
X0051490Y0149396D01*
X0051074Y0149969D01*
X0050573Y0150470D01*
X0050000Y0150886D01*
X0049369Y0151208D01*
X0048695Y0151427D01*
X0048142Y0151514D01*
X0048142Y0147537D01*
X0047142Y0147537D01*
X0047142Y0146537D01*
X0043165Y0146537D01*
X0043253Y0145984D01*
X0043471Y0145310D01*
X0043793Y0144679D01*
X0044209Y0144106D01*
X0044710Y0143605D01*
X0045283Y0143189D01*
X0044123Y0144225D02*
X0003968Y0144225D01*
X0003968Y0145223D02*
X0013284Y0145223D01*
X0011885Y0146222D02*
X0003968Y0146222D01*
X0003968Y0147220D02*
X0011156Y0147220D01*
X0010743Y0148219D02*
X0003968Y0148219D01*
X0003968Y0149217D02*
X0010669Y0149217D01*
X0010689Y0150216D02*
X0003968Y0150216D01*
X0003968Y0151214D02*
X0011103Y0151214D01*
X0011756Y0152213D02*
X0003968Y0152213D01*
X0003968Y0153211D02*
X0012974Y0153211D01*
X0013320Y0155208D02*
X0003968Y0155208D01*
X0003968Y0154210D02*
X0044105Y0154210D01*
X0043827Y0154488D02*
X0045093Y0153222D01*
X0046747Y0152537D01*
X0048537Y0152537D01*
X0050191Y0153222D01*
X0051457Y0154488D01*
X0052142Y0156142D01*
X0052142Y0157933D01*
X0051457Y0159586D01*
X0050191Y0160852D01*
X0048537Y0161537D01*
X0046747Y0161537D01*
X0045093Y0160852D01*
X0043827Y0159586D01*
X0043142Y0157933D01*
X0043142Y0156142D01*
X0043827Y0154488D01*
X0043529Y0155208D02*
X0026924Y0155208D01*
X0028344Y0156207D02*
X0043142Y0156207D01*
X0043142Y0157205D02*
X0029082Y0157205D01*
X0029495Y0158204D02*
X0043254Y0158204D01*
X0043668Y0159202D02*
X0029575Y0159202D01*
X0029561Y0160201D02*
X0044441Y0160201D01*
X0045930Y0161199D02*
X0029147Y0161199D01*
X0028503Y0162198D02*
X0133819Y0162198D01*
X0133457Y0163196D02*
X0027307Y0163196D01*
X0027271Y0153211D02*
X0045120Y0153211D01*
X0045914Y0151208D02*
X0045283Y0150886D01*
X0044710Y0150470D01*
X0044209Y0149969D01*
X0043793Y0149396D01*
X0043471Y0148765D01*
X0043253Y0148091D01*
X0043165Y0147537D01*
X0047142Y0147537D01*
X0047142Y0151514D01*
X0046588Y0151427D01*
X0045914Y0151208D01*
X0045934Y0151214D02*
X0029141Y0151214D01*
X0029555Y0150216D02*
X0044456Y0150216D01*
X0043702Y0149217D02*
X0029575Y0149217D01*
X0029501Y0148219D02*
X0043294Y0148219D01*
X0043215Y0146222D02*
X0028359Y0146222D01*
X0029088Y0147220D02*
X0047142Y0147220D01*
X0047142Y0146222D02*
X0048142Y0146222D01*
X0048142Y0147220D02*
X0057142Y0147220D01*
X0057142Y0147537D02*
X0057142Y0146537D01*
X0058142Y0146537D01*
X0058142Y0142560D01*
X0058695Y0142648D01*
X0059369Y0142867D01*
X0060000Y0143189D01*
X0060573Y0143605D01*
X0061074Y0144106D01*
X0061490Y0144679D01*
X0061812Y0145310D01*
X0062031Y0145984D01*
X0062119Y0146537D01*
X0058142Y0146537D01*
X0058142Y0147537D01*
X0062119Y0147537D01*
X0062031Y0148091D01*
X0061812Y0148765D01*
X0061490Y0149396D01*
X0061074Y0149969D01*
X0060573Y0150470D01*
X0060000Y0150886D01*
X0059369Y0151208D01*
X0058695Y0151427D01*
X0058142Y0151514D01*
X0058142Y0147537D01*
X0057142Y0147537D01*
X0053165Y0147537D01*
X0053253Y0148091D01*
X0053471Y0148765D01*
X0053793Y0149396D01*
X0054209Y0149969D01*
X0054710Y0150470D01*
X0055283Y0150886D01*
X0055914Y0151208D01*
X0056588Y0151427D01*
X0057142Y0151514D01*
X0057142Y0147537D01*
X0057142Y0148219D02*
X0058142Y0148219D01*
X0058142Y0149217D02*
X0057142Y0149217D01*
X0057142Y0150216D02*
X0058142Y0150216D01*
X0058142Y0151214D02*
X0057142Y0151214D01*
X0055934Y0151214D02*
X0049349Y0151214D01*
X0048142Y0151214D02*
X0047142Y0151214D01*
X0047142Y0150216D02*
X0048142Y0150216D01*
X0048142Y0149217D02*
X0047142Y0149217D01*
X0047142Y0148219D02*
X0048142Y0148219D01*
X0048142Y0145223D02*
X0047142Y0145223D01*
X0047142Y0144225D02*
X0048142Y0144225D01*
X0048142Y0143226D02*
X0047142Y0143226D01*
X0050052Y0143226D02*
X0055232Y0143226D01*
X0055283Y0143189D02*
X0055914Y0142867D01*
X0056588Y0142648D01*
X0057142Y0142560D01*
X0057142Y0146537D01*
X0053165Y0146537D01*
X0053253Y0145984D01*
X0053471Y0145310D01*
X0053793Y0144679D01*
X0054209Y0144106D01*
X0054710Y0143605D01*
X0055283Y0143189D01*
X0054123Y0144225D02*
X0051160Y0144225D01*
X0051768Y0145223D02*
X0053516Y0145223D01*
X0053215Y0146222D02*
X0052069Y0146222D01*
X0051990Y0148219D02*
X0053294Y0148219D01*
X0053702Y0149217D02*
X0051582Y0149217D01*
X0050827Y0150216D02*
X0054456Y0150216D01*
X0055120Y0153211D02*
X0050163Y0153211D01*
X0051178Y0154210D02*
X0054105Y0154210D01*
X0053827Y0154488D02*
X0055093Y0153222D01*
X0056747Y0152537D01*
X0058537Y0152537D01*
X0060191Y0153222D01*
X0061457Y0154488D01*
X0062142Y0156142D01*
X0062142Y0157933D01*
X0061457Y0159586D01*
X0060191Y0160852D01*
X0058537Y0161537D01*
X0056747Y0161537D01*
X0055093Y0160852D01*
X0053827Y0159586D01*
X0053142Y0157933D01*
X0053142Y0156142D01*
X0053827Y0154488D01*
X0053529Y0155208D02*
X0051755Y0155208D01*
X0052142Y0156207D02*
X0053142Y0156207D01*
X0053142Y0157205D02*
X0052142Y0157205D01*
X0052029Y0158204D02*
X0053254Y0158204D01*
X0053668Y0159202D02*
X0051616Y0159202D01*
X0050842Y0160201D02*
X0054441Y0160201D01*
X0055930Y0161199D02*
X0049353Y0161199D01*
X0059353Y0161199D02*
X0065930Y0161199D01*
X0066747Y0161537D02*
X0065093Y0160852D01*
X0063827Y0159586D01*
X0063142Y0157933D01*
X0063142Y0156142D01*
X0063827Y0154488D01*
X0065093Y0153222D01*
X0066747Y0152537D01*
X0068537Y0152537D01*
X0070191Y0153222D01*
X0071457Y0154488D01*
X0072142Y0156142D01*
X0072142Y0157933D01*
X0071457Y0159586D01*
X0070191Y0160852D01*
X0068537Y0161537D01*
X0066747Y0161537D01*
X0069353Y0161199D02*
X0075930Y0161199D01*
X0076747Y0161537D02*
X0075093Y0160852D01*
X0073827Y0159586D01*
X0073142Y0157933D01*
X0073142Y0156142D01*
X0073827Y0154488D01*
X0075093Y0153222D01*
X0076747Y0152537D01*
X0078537Y0152537D01*
X0080191Y0153222D01*
X0081457Y0154488D01*
X0082142Y0156142D01*
X0082142Y0157933D01*
X0081457Y0159586D01*
X0080191Y0160852D01*
X0078537Y0161537D01*
X0076747Y0161537D01*
X0079353Y0161199D02*
X0085930Y0161199D01*
X0086747Y0161537D02*
X0085093Y0160852D01*
X0083827Y0159586D01*
X0083142Y0157933D01*
X0083142Y0156142D01*
X0083827Y0154488D01*
X0085093Y0153222D01*
X0086747Y0152537D01*
X0088537Y0152537D01*
X0090191Y0153222D01*
X0091457Y0154488D01*
X0092142Y0156142D01*
X0092142Y0157933D01*
X0091457Y0159586D01*
X0090191Y0160852D01*
X0088537Y0161537D01*
X0086747Y0161537D01*
X0089353Y0161199D02*
X0134360Y0161199D01*
X0135359Y0160201D02*
X0101868Y0160201D01*
X0101796Y0160230D02*
X0100416Y0160230D01*
X0099142Y0159702D01*
X0098166Y0158727D01*
X0097638Y0157452D01*
X0097638Y0156072D01*
X0098166Y0154797D01*
X0099142Y0153821D01*
X0100416Y0153293D01*
X0101796Y0153293D01*
X0103071Y0153821D01*
X0104047Y0154797D01*
X0104575Y0156072D01*
X0104575Y0157452D01*
X0104047Y0158727D01*
X0103071Y0159702D01*
X0101796Y0160230D01*
X0100345Y0160201D02*
X0090842Y0160201D01*
X0091616Y0159202D02*
X0098642Y0159202D01*
X0097949Y0158204D02*
X0092029Y0158204D01*
X0092142Y0157205D02*
X0097638Y0157205D01*
X0097638Y0156207D02*
X0092142Y0156207D01*
X0091755Y0155208D02*
X0097996Y0155208D01*
X0098753Y0154210D02*
X0091178Y0154210D01*
X0090163Y0153211D02*
X0126661Y0153211D01*
X0126575Y0153004D02*
X0126575Y0151859D01*
X0127013Y0150801D01*
X0127823Y0149991D01*
X0128880Y0149553D01*
X0130025Y0149553D01*
X0131083Y0149991D01*
X0131893Y0150801D01*
X0132331Y0151859D01*
X0132331Y0153004D01*
X0131893Y0154061D01*
X0131083Y0154871D01*
X0130025Y0155309D01*
X0128880Y0155309D01*
X0127823Y0154871D01*
X0127013Y0154061D01*
X0126575Y0153004D01*
X0126575Y0152213D02*
X0028488Y0152213D01*
X0026960Y0145223D02*
X0043516Y0145223D01*
X0057142Y0145223D02*
X0058142Y0145223D01*
X0058142Y0144225D02*
X0057142Y0144225D01*
X0057142Y0143226D02*
X0058142Y0143226D01*
X0060052Y0143226D02*
X0065232Y0143226D01*
X0065283Y0143189D02*
X0065914Y0142867D01*
X0066588Y0142648D01*
X0067142Y0142560D01*
X0067142Y0146537D01*
X0068142Y0146537D01*
X0068142Y0142560D01*
X0068695Y0142648D01*
X0069369Y0142867D01*
X0070000Y0143189D01*
X0070573Y0143605D01*
X0071074Y0144106D01*
X0071490Y0144679D01*
X0071812Y0145310D01*
X0072031Y0145984D01*
X0072119Y0146537D01*
X0068142Y0146537D01*
X0068142Y0147537D01*
X0072119Y0147537D01*
X0072031Y0148091D01*
X0071812Y0148765D01*
X0071490Y0149396D01*
X0071074Y0149969D01*
X0070573Y0150470D01*
X0070000Y0150886D01*
X0069369Y0151208D01*
X0068695Y0151427D01*
X0068142Y0151514D01*
X0068142Y0147537D01*
X0067142Y0147537D01*
X0067142Y0146537D01*
X0063165Y0146537D01*
X0063253Y0145984D01*
X0063471Y0145310D01*
X0063793Y0144679D01*
X0064209Y0144106D01*
X0064710Y0143605D01*
X0065283Y0143189D01*
X0064123Y0144225D02*
X0061160Y0144225D01*
X0061768Y0145223D02*
X0063516Y0145223D01*
X0063215Y0146222D02*
X0062069Y0146222D01*
X0063165Y0147537D02*
X0067142Y0147537D01*
X0067142Y0151514D01*
X0066588Y0151427D01*
X0065914Y0151208D01*
X0065283Y0150886D01*
X0064710Y0150470D01*
X0064209Y0149969D01*
X0063793Y0149396D01*
X0063471Y0148765D01*
X0063253Y0148091D01*
X0063165Y0147537D01*
X0063294Y0148219D02*
X0061990Y0148219D01*
X0061582Y0149217D02*
X0063702Y0149217D01*
X0064456Y0150216D02*
X0060827Y0150216D01*
X0059349Y0151214D02*
X0065934Y0151214D01*
X0067142Y0151214D02*
X0068142Y0151214D01*
X0068142Y0150216D02*
X0067142Y0150216D01*
X0067142Y0149217D02*
X0068142Y0149217D01*
X0068142Y0148219D02*
X0067142Y0148219D01*
X0067142Y0147220D02*
X0058142Y0147220D01*
X0058142Y0146222D02*
X0057142Y0146222D01*
X0067142Y0146222D02*
X0068142Y0146222D01*
X0068142Y0147220D02*
X0077142Y0147220D01*
X0077142Y0147537D02*
X0077142Y0146537D01*
X0078142Y0146537D01*
X0078142Y0142560D01*
X0078695Y0142648D01*
X0079369Y0142867D01*
X0080000Y0143189D01*
X0080573Y0143605D01*
X0081074Y0144106D01*
X0081490Y0144679D01*
X0081812Y0145310D01*
X0082031Y0145984D01*
X0082119Y0146537D01*
X0078142Y0146537D01*
X0078142Y0147537D01*
X0082119Y0147537D01*
X0082031Y0148091D01*
X0081812Y0148765D01*
X0081490Y0149396D01*
X0081074Y0149969D01*
X0080573Y0150470D01*
X0080000Y0150886D01*
X0079369Y0151208D01*
X0078695Y0151427D01*
X0078142Y0151514D01*
X0078142Y0147537D01*
X0077142Y0147537D01*
X0073165Y0147537D01*
X0073253Y0148091D01*
X0073471Y0148765D01*
X0073793Y0149396D01*
X0074209Y0149969D01*
X0074710Y0150470D01*
X0075283Y0150886D01*
X0075914Y0151208D01*
X0076588Y0151427D01*
X0077142Y0151514D01*
X0077142Y0147537D01*
X0077142Y0148219D02*
X0078142Y0148219D01*
X0078142Y0149217D02*
X0077142Y0149217D01*
X0077142Y0150216D02*
X0078142Y0150216D01*
X0078142Y0151214D02*
X0077142Y0151214D01*
X0075934Y0151214D02*
X0069349Y0151214D01*
X0070827Y0150216D02*
X0074456Y0150216D01*
X0073702Y0149217D02*
X0071582Y0149217D01*
X0071990Y0148219D02*
X0073294Y0148219D01*
X0073165Y0146537D02*
X0073253Y0145984D01*
X0073471Y0145310D01*
X0073793Y0144679D01*
X0074209Y0144106D01*
X0074710Y0143605D01*
X0075283Y0143189D01*
X0075914Y0142867D01*
X0076588Y0142648D01*
X0077142Y0142560D01*
X0077142Y0146537D01*
X0073165Y0146537D01*
X0073215Y0146222D02*
X0072069Y0146222D01*
X0071768Y0145223D02*
X0073516Y0145223D01*
X0074123Y0144225D02*
X0071160Y0144225D01*
X0070052Y0143226D02*
X0075232Y0143226D01*
X0077142Y0143226D02*
X0078142Y0143226D01*
X0078142Y0144225D02*
X0077142Y0144225D01*
X0077142Y0145223D02*
X0078142Y0145223D01*
X0078142Y0146222D02*
X0077142Y0146222D01*
X0078142Y0147220D02*
X0087142Y0147220D01*
X0087142Y0147537D02*
X0087142Y0146537D01*
X0088142Y0146537D01*
X0088142Y0142560D01*
X0088695Y0142648D01*
X0089369Y0142867D01*
X0090000Y0143189D01*
X0090573Y0143605D01*
X0091074Y0144106D01*
X0091490Y0144679D01*
X0091812Y0145310D01*
X0092031Y0145984D01*
X0092119Y0146537D01*
X0088142Y0146537D01*
X0088142Y0147537D01*
X0092119Y0147537D01*
X0092031Y0148091D01*
X0091812Y0148765D01*
X0091490Y0149396D01*
X0091074Y0149969D01*
X0090573Y0150470D01*
X0090000Y0150886D01*
X0089369Y0151208D01*
X0088695Y0151427D01*
X0088142Y0151514D01*
X0088142Y0147537D01*
X0087142Y0147537D01*
X0083165Y0147537D01*
X0083253Y0148091D01*
X0083471Y0148765D01*
X0083793Y0149396D01*
X0084209Y0149969D01*
X0084710Y0150470D01*
X0085283Y0150886D01*
X0085914Y0151208D01*
X0086588Y0151427D01*
X0087142Y0151514D01*
X0087142Y0147537D01*
X0087142Y0148219D02*
X0088142Y0148219D01*
X0088142Y0149217D02*
X0087142Y0149217D01*
X0087142Y0150216D02*
X0088142Y0150216D01*
X0088142Y0151214D02*
X0087142Y0151214D01*
X0085934Y0151214D02*
X0079349Y0151214D01*
X0080827Y0150216D02*
X0084456Y0150216D01*
X0083702Y0149217D02*
X0081582Y0149217D01*
X0081990Y0148219D02*
X0083294Y0148219D01*
X0083165Y0146537D02*
X0083253Y0145984D01*
X0083471Y0145310D01*
X0083793Y0144679D01*
X0084209Y0144106D01*
X0084710Y0143605D01*
X0085283Y0143189D01*
X0085914Y0142867D01*
X0086588Y0142648D01*
X0087142Y0142560D01*
X0087142Y0146537D01*
X0083165Y0146537D01*
X0083215Y0146222D02*
X0082069Y0146222D01*
X0081768Y0145223D02*
X0083516Y0145223D01*
X0084123Y0144225D02*
X0081160Y0144225D01*
X0080052Y0143226D02*
X0085232Y0143226D01*
X0087142Y0143226D02*
X0088142Y0143226D01*
X0088142Y0144225D02*
X0087142Y0144225D01*
X0087142Y0145223D02*
X0088142Y0145223D01*
X0088142Y0146222D02*
X0087142Y0146222D01*
X0088142Y0147220D02*
X0136260Y0147220D01*
X0136260Y0146222D02*
X0092069Y0146222D01*
X0091768Y0145223D02*
X0136416Y0145223D01*
X0136830Y0144225D02*
X0091160Y0144225D01*
X0090052Y0143226D02*
X0137676Y0143226D01*
X0143750Y0143226D02*
X0188131Y0143226D01*
X0187431Y0144225D02*
X0144595Y0144225D01*
X0145009Y0145223D02*
X0187205Y0145223D01*
X0187331Y0146222D02*
X0145165Y0146222D01*
X0145165Y0147220D02*
X0153035Y0147220D01*
X0153413Y0146842D02*
X0152603Y0147651D01*
X0152165Y0148709D01*
X0152165Y0149854D01*
X0152603Y0150912D01*
X0153413Y0151721D01*
X0154471Y0152159D01*
X0155616Y0152159D01*
X0156674Y0151721D01*
X0157483Y0150912D01*
X0157921Y0149854D01*
X0157921Y0148709D01*
X0157483Y0147651D01*
X0156674Y0146842D01*
X0155616Y0146404D01*
X0154471Y0146404D01*
X0153413Y0146842D01*
X0152368Y0148219D02*
X0144815Y0148219D01*
X0144279Y0149217D02*
X0152165Y0149217D01*
X0152315Y0150216D02*
X0143280Y0150216D01*
X0138145Y0150216D02*
X0131307Y0150216D01*
X0132064Y0151214D02*
X0152906Y0151214D01*
X0157181Y0151214D02*
X0182505Y0151214D01*
X0182131Y0151588D02*
X0182941Y0150779D01*
X0183998Y0150341D01*
X0185143Y0150341D01*
X0186201Y0150779D01*
X0187011Y0151588D01*
X0187449Y0152646D01*
X0187449Y0153791D01*
X0187011Y0154849D01*
X0186201Y0155658D01*
X0185143Y0156096D01*
X0183998Y0156096D01*
X0182941Y0155658D01*
X0182131Y0154849D01*
X0181693Y0153791D01*
X0181693Y0152646D01*
X0182131Y0151588D01*
X0181872Y0152213D02*
X0132331Y0152213D01*
X0132245Y0153211D02*
X0181693Y0153211D01*
X0181866Y0154210D02*
X0131744Y0154210D01*
X0130269Y0155208D02*
X0182491Y0155208D01*
X0186651Y0155208D02*
X0193584Y0155208D01*
X0193504Y0155402D02*
X0193942Y0154344D01*
X0194752Y0153535D01*
X0195809Y0153096D01*
X0196954Y0153096D01*
X0198012Y0153535D01*
X0198822Y0154344D01*
X0199260Y0155402D01*
X0199260Y0156547D01*
X0198822Y0157605D01*
X0198012Y0158414D01*
X0196954Y0158852D01*
X0195809Y0158852D01*
X0194752Y0158414D01*
X0193942Y0157605D01*
X0193504Y0156547D01*
X0193504Y0155402D01*
X0193504Y0156207D02*
X0104575Y0156207D01*
X0104575Y0157205D02*
X0193777Y0157205D01*
X0194541Y0158204D02*
X0104263Y0158204D01*
X0103571Y0159202D02*
X0204596Y0159202D01*
X0204594Y0159202D02*
X0203785Y0158392D01*
X0203346Y0157334D01*
X0203346Y0156189D01*
X0203785Y0155132D01*
X0204594Y0154322D01*
X0205652Y0153884D01*
X0206797Y0153884D01*
X0207855Y0154322D01*
X0208664Y0155132D01*
X0209102Y0156189D01*
X0209102Y0157334D01*
X0208664Y0158392D01*
X0207855Y0159202D01*
X0206797Y0159640D01*
X0205652Y0159640D01*
X0204594Y0159202D01*
X0203707Y0158204D02*
X0198223Y0158204D01*
X0198987Y0157205D02*
X0203346Y0157205D01*
X0203346Y0156207D02*
X0199260Y0156207D01*
X0199180Y0155208D02*
X0203753Y0155208D01*
X0204865Y0154210D02*
X0198687Y0154210D01*
X0197231Y0153211D02*
X0351864Y0153211D01*
X0351772Y0153433D02*
X0352210Y0152376D01*
X0353019Y0151566D01*
X0354077Y0151128D01*
X0355222Y0151128D01*
X0356280Y0151566D01*
X0357089Y0152376D01*
X0357528Y0153433D01*
X0357528Y0154578D01*
X0357089Y0155636D01*
X0356280Y0156446D01*
X0355222Y0156884D01*
X0354077Y0156884D01*
X0353019Y0156446D01*
X0352210Y0155636D01*
X0351772Y0154578D01*
X0351772Y0153433D01*
X0351772Y0154210D02*
X0207583Y0154210D01*
X0208696Y0155208D02*
X0343495Y0155208D01*
X0343841Y0155065D02*
X0344986Y0155065D01*
X0346044Y0155503D01*
X0346853Y0156313D01*
X0347291Y0157370D01*
X0347291Y0158515D01*
X0346853Y0159573D01*
X0346044Y0160383D01*
X0344986Y0160821D01*
X0343841Y0160821D01*
X0342783Y0160383D01*
X0341974Y0159573D01*
X0341535Y0158515D01*
X0341535Y0157370D01*
X0341974Y0156313D01*
X0342783Y0155503D01*
X0343841Y0155065D01*
X0345332Y0155208D02*
X0352033Y0155208D01*
X0352780Y0156207D02*
X0346747Y0156207D01*
X0347223Y0157205D02*
X0378946Y0157205D01*
X0379307Y0157355D02*
X0377873Y0156761D01*
X0376776Y0155664D01*
X0376183Y0154230D01*
X0376183Y0152679D01*
X0376776Y0151246D01*
X0377873Y0150148D01*
X0379307Y0149555D01*
X0380858Y0149555D01*
X0382292Y0150148D01*
X0383389Y0151246D01*
X0383983Y0152679D01*
X0383983Y0154230D01*
X0383389Y0155664D01*
X0382292Y0156761D01*
X0380858Y0157355D01*
X0379307Y0157355D01*
X0381219Y0157205D02*
X0408946Y0157205D01*
X0409307Y0157355D02*
X0407873Y0156761D01*
X0406776Y0155664D01*
X0406183Y0154230D01*
X0406183Y0152679D01*
X0406776Y0151246D01*
X0407873Y0150148D01*
X0409307Y0149555D01*
X0410858Y0149555D01*
X0412292Y0150148D01*
X0413389Y0151246D01*
X0413983Y0152679D01*
X0413983Y0154230D01*
X0413389Y0155664D01*
X0412292Y0156761D01*
X0410858Y0157355D01*
X0409307Y0157355D01*
X0411219Y0157205D02*
X0461630Y0157205D01*
X0461630Y0156207D02*
X0412846Y0156207D01*
X0413578Y0155208D02*
X0461630Y0155208D01*
X0461630Y0154210D02*
X0413983Y0154210D01*
X0413983Y0153211D02*
X0461630Y0153211D01*
X0461630Y0152213D02*
X0413790Y0152213D01*
X0413358Y0151214D02*
X0461630Y0151214D01*
X0461630Y0150216D02*
X0412359Y0150216D01*
X0411183Y0147220D02*
X0461630Y0147220D01*
X0461630Y0146222D02*
X0412831Y0146222D01*
X0412292Y0146761D02*
X0413389Y0145664D01*
X0413983Y0144230D01*
X0413983Y0142679D01*
X0413389Y0141246D01*
X0412292Y0140148D01*
X0410858Y0139555D01*
X0409307Y0139555D01*
X0407873Y0140148D01*
X0406776Y0141246D01*
X0406183Y0142679D01*
X0406183Y0144230D01*
X0406776Y0145664D01*
X0407873Y0146761D01*
X0409307Y0147355D01*
X0410858Y0147355D01*
X0412292Y0146761D01*
X0413572Y0145223D02*
X0461630Y0145223D01*
X0461630Y0144225D02*
X0413983Y0144225D01*
X0413983Y0143226D02*
X0461630Y0143226D01*
X0461630Y0142228D02*
X0413796Y0142228D01*
X0413372Y0141229D02*
X0461630Y0141229D01*
X0461630Y0140231D02*
X0412374Y0140231D01*
X0411148Y0137235D02*
X0461630Y0137235D01*
X0461630Y0138233D02*
X0344898Y0138233D01*
X0344885Y0138202D02*
X0345323Y0139260D01*
X0345323Y0140405D01*
X0344885Y0141463D01*
X0344743Y0141604D01*
X0344885Y0141746D01*
X0345323Y0142804D01*
X0345323Y0143948D01*
X0344885Y0145006D01*
X0344075Y0145816D01*
X0343017Y0146254D01*
X0341872Y0146254D01*
X0340815Y0145816D01*
X0340005Y0145006D01*
X0339567Y0143948D01*
X0339567Y0142804D01*
X0340005Y0141746D01*
X0340147Y0141604D01*
X0340005Y0141463D01*
X0339567Y0140405D01*
X0339567Y0139260D01*
X0340005Y0138202D01*
X0340147Y0138061D01*
X0340005Y0137920D01*
X0339567Y0136862D01*
X0339567Y0135717D01*
X0340005Y0134659D01*
X0340815Y0133850D01*
X0341872Y0133411D01*
X0343017Y0133411D01*
X0344075Y0133850D01*
X0344885Y0134659D01*
X0345323Y0135717D01*
X0345323Y0136862D01*
X0344885Y0137920D01*
X0344743Y0138061D01*
X0344885Y0138202D01*
X0345168Y0137235D02*
X0379018Y0137235D01*
X0379307Y0137355D02*
X0377873Y0136761D01*
X0376776Y0135664D01*
X0376183Y0134230D01*
X0376183Y0132679D01*
X0376776Y0131246D01*
X0377873Y0130148D01*
X0379307Y0129555D01*
X0380858Y0129555D01*
X0382292Y0130148D01*
X0383389Y0131246D01*
X0383983Y0132679D01*
X0383983Y0134230D01*
X0383389Y0135664D01*
X0382292Y0136761D01*
X0380858Y0137355D01*
X0379307Y0137355D01*
X0381148Y0137235D02*
X0409018Y0137235D01*
X0409307Y0137355D02*
X0407873Y0136761D01*
X0406776Y0135664D01*
X0406183Y0134230D01*
X0406183Y0132679D01*
X0406776Y0131246D01*
X0407873Y0130148D01*
X0409307Y0129555D01*
X0410858Y0129555D01*
X0412292Y0130148D01*
X0413389Y0131246D01*
X0413983Y0132679D01*
X0413983Y0134230D01*
X0413389Y0135664D01*
X0412292Y0136761D01*
X0410858Y0137355D01*
X0409307Y0137355D01*
X0407349Y0136236D02*
X0382816Y0136236D01*
X0383565Y0135238D02*
X0406600Y0135238D01*
X0406186Y0134239D02*
X0383979Y0134239D01*
X0383983Y0133241D02*
X0406183Y0133241D01*
X0406363Y0132242D02*
X0383802Y0132242D01*
X0383387Y0131244D02*
X0406778Y0131244D01*
X0407777Y0130245D02*
X0382389Y0130245D01*
X0381112Y0127250D02*
X0409054Y0127250D01*
X0409307Y0127355D02*
X0407873Y0126761D01*
X0406776Y0125664D01*
X0406183Y0124230D01*
X0406183Y0122679D01*
X0406776Y0121246D01*
X0407873Y0120148D01*
X0409307Y0119555D01*
X0410858Y0119555D01*
X0412292Y0120148D01*
X0413389Y0121246D01*
X0413983Y0122679D01*
X0413983Y0124230D01*
X0413389Y0125664D01*
X0412292Y0126761D01*
X0410858Y0127355D01*
X0409307Y0127355D01*
X0411112Y0127250D02*
X0461630Y0127250D01*
X0461630Y0128248D02*
X0357994Y0128248D01*
X0357877Y0127966D02*
X0358315Y0129024D01*
X0358315Y0130169D01*
X0357877Y0131227D01*
X0357067Y0132036D01*
X0356009Y0132474D01*
X0354865Y0132474D01*
X0353807Y0132036D01*
X0352997Y0131227D01*
X0352559Y0130169D01*
X0352559Y0129024D01*
X0352997Y0127966D01*
X0353807Y0127157D01*
X0354865Y0126719D01*
X0356009Y0126719D01*
X0357067Y0127157D01*
X0357877Y0127966D01*
X0357160Y0127250D02*
X0379054Y0127250D01*
X0379307Y0127355D02*
X0377873Y0126761D01*
X0376776Y0125664D01*
X0376183Y0124230D01*
X0376183Y0122679D01*
X0376776Y0121246D01*
X0377873Y0120148D01*
X0379307Y0119555D01*
X0380858Y0119555D01*
X0382292Y0120148D01*
X0383389Y0121246D01*
X0383983Y0122679D01*
X0383983Y0124230D01*
X0383389Y0125664D01*
X0382292Y0126761D01*
X0380858Y0127355D01*
X0379307Y0127355D01*
X0377364Y0126251D02*
X0347107Y0126251D01*
X0346831Y0125976D02*
X0347641Y0126785D01*
X0348079Y0127843D01*
X0348079Y0128988D01*
X0347641Y0130046D01*
X0346831Y0130855D01*
X0345773Y0131293D01*
X0344628Y0131293D01*
X0344484Y0131234D01*
X0343681Y0132036D01*
X0342624Y0132474D01*
X0341479Y0132474D01*
X0340421Y0132036D01*
X0339611Y0131227D01*
X0339476Y0130899D01*
X0339474Y0130900D01*
X0338329Y0130900D01*
X0337271Y0130461D01*
X0336632Y0129822D01*
X0335931Y0130112D01*
X0334786Y0130112D01*
X0333728Y0129674D01*
X0333088Y0129034D01*
X0332724Y0129185D01*
X0332724Y0129614D01*
X0333445Y0129913D01*
X0334255Y0130722D01*
X0334693Y0131780D01*
X0334693Y0132925D01*
X0334255Y0133983D01*
X0333445Y0134792D01*
X0332387Y0135230D01*
X0331242Y0135230D01*
X0330185Y0134792D01*
X0329375Y0133983D01*
X0328937Y0132925D01*
X0328937Y0132335D01*
X0328216Y0132036D01*
X0327407Y0131227D01*
X0326969Y0130169D01*
X0326969Y0129024D01*
X0326969Y0129022D01*
X0326641Y0128887D01*
X0325832Y0128077D01*
X0325516Y0127314D01*
X0325200Y0128077D01*
X0324390Y0128887D01*
X0323332Y0129325D01*
X0322187Y0129325D01*
X0321130Y0128887D01*
X0320320Y0128077D01*
X0319882Y0127019D01*
X0319882Y0125874D01*
X0320320Y0124817D01*
X0321130Y0124007D01*
X0322187Y0123569D01*
X0323332Y0123569D01*
X0324390Y0124007D01*
X0325200Y0124817D01*
X0325516Y0125580D01*
X0325832Y0124817D01*
X0326641Y0124007D01*
X0327699Y0123569D01*
X0328844Y0123569D01*
X0329902Y0124007D01*
X0330043Y0124148D01*
X0330185Y0124007D01*
X0331242Y0123569D01*
X0332387Y0123569D01*
X0333445Y0124007D01*
X0334085Y0124647D01*
X0334786Y0124356D01*
X0335931Y0124356D01*
X0336988Y0124794D01*
X0337628Y0125434D01*
X0338329Y0125144D01*
X0339474Y0125144D01*
X0340532Y0125582D01*
X0341341Y0126391D01*
X0341477Y0126719D01*
X0341479Y0126719D01*
X0342624Y0126719D01*
X0342768Y0126778D01*
X0343571Y0125976D01*
X0344628Y0125537D01*
X0345773Y0125537D01*
X0346831Y0125976D01*
X0347833Y0127250D02*
X0353714Y0127250D01*
X0352880Y0128248D02*
X0348079Y0128248D01*
X0347971Y0129247D02*
X0352559Y0129247D01*
X0352591Y0130245D02*
X0347441Y0130245D01*
X0345892Y0131244D02*
X0353014Y0131244D01*
X0354305Y0132242D02*
X0343184Y0132242D01*
X0344474Y0131244D02*
X0344509Y0131244D01*
X0344465Y0134239D02*
X0376186Y0134239D01*
X0376183Y0133241D02*
X0334562Y0133241D01*
X0334693Y0132242D02*
X0340919Y0132242D01*
X0339629Y0131244D02*
X0334471Y0131244D01*
X0333778Y0130245D02*
X0337055Y0130245D01*
X0333301Y0129247D02*
X0332724Y0129247D01*
X0328714Y0132242D02*
X0276894Y0132242D01*
X0276488Y0132074D02*
X0277922Y0132668D01*
X0279019Y0133765D01*
X0279613Y0135199D01*
X0279613Y0136750D01*
X0279019Y0138184D01*
X0277922Y0139281D01*
X0276488Y0139874D01*
X0274937Y0139874D01*
X0273503Y0139281D01*
X0272406Y0138184D01*
X0271813Y0136750D01*
X0271813Y0135199D01*
X0272406Y0133765D01*
X0273503Y0132668D01*
X0274937Y0132074D01*
X0276488Y0132074D01*
X0274531Y0132242D02*
X0246894Y0132242D01*
X0246488Y0132074D02*
X0247922Y0132668D01*
X0249019Y0133765D01*
X0249613Y0135199D01*
X0249613Y0136750D01*
X0249019Y0138184D01*
X0247922Y0139281D01*
X0246488Y0139874D01*
X0244937Y0139874D01*
X0243503Y0139281D01*
X0242406Y0138184D01*
X0241813Y0136750D01*
X0241813Y0135199D01*
X0242406Y0133765D01*
X0243503Y0132668D01*
X0244937Y0132074D01*
X0246488Y0132074D01*
X0244531Y0132242D02*
X0224250Y0132242D01*
X0224457Y0131744D02*
X0224019Y0132801D01*
X0223209Y0133611D01*
X0222151Y0134049D01*
X0221006Y0134049D01*
X0219949Y0133611D01*
X0219139Y0132801D01*
X0218701Y0131744D01*
X0218701Y0130599D01*
X0219139Y0129541D01*
X0219674Y0129006D01*
X0219533Y0128864D01*
X0219094Y0127807D01*
X0219094Y0126662D01*
X0219533Y0125604D01*
X0220342Y0124794D01*
X0221400Y0124356D01*
X0222545Y0124356D01*
X0223603Y0124794D01*
X0224412Y0125604D01*
X0224850Y0126662D01*
X0224850Y0127807D01*
X0224412Y0128864D01*
X0223877Y0129400D01*
X0224019Y0129541D01*
X0224457Y0130599D01*
X0224457Y0131744D01*
X0224457Y0131244D02*
X0327424Y0131244D01*
X0327000Y0130245D02*
X0224310Y0130245D01*
X0224030Y0129247D02*
X0243470Y0129247D01*
X0243503Y0129281D02*
X0242406Y0128184D01*
X0241813Y0126750D01*
X0241813Y0125199D01*
X0242406Y0123765D01*
X0243503Y0122668D01*
X0244937Y0122074D01*
X0246488Y0122074D01*
X0247922Y0122668D01*
X0249019Y0123765D01*
X0249613Y0125199D01*
X0249613Y0126750D01*
X0249019Y0128184D01*
X0247922Y0129281D01*
X0246488Y0129874D01*
X0244937Y0129874D01*
X0243503Y0129281D01*
X0242471Y0128248D02*
X0224667Y0128248D01*
X0224850Y0127250D02*
X0242020Y0127250D01*
X0241813Y0126251D02*
X0224680Y0126251D01*
X0224061Y0125253D02*
X0241813Y0125253D01*
X0242204Y0124254D02*
X0206527Y0124254D01*
X0206280Y0124007D02*
X0207089Y0124817D01*
X0207528Y0125874D01*
X0207528Y0127019D01*
X0207089Y0128077D01*
X0206280Y0128887D01*
X0205222Y0129325D01*
X0204077Y0129325D01*
X0203019Y0128887D01*
X0202210Y0128077D01*
X0201772Y0127019D01*
X0201772Y0125874D01*
X0202210Y0124817D01*
X0203019Y0124007D01*
X0204077Y0123569D01*
X0205222Y0123569D01*
X0206280Y0124007D01*
X0207270Y0125253D02*
X0219884Y0125253D01*
X0219264Y0126251D02*
X0207528Y0126251D01*
X0207432Y0127250D02*
X0219094Y0127250D01*
X0219277Y0128248D02*
X0206918Y0128248D01*
X0205410Y0129247D02*
X0219433Y0129247D01*
X0218847Y0130245D02*
X0198472Y0130245D01*
X0198472Y0130563D02*
X0198472Y0129718D01*
X0198529Y0129718D01*
X0199587Y0129280D01*
X0200396Y0128471D01*
X0200835Y0127413D01*
X0200835Y0126268D01*
X0200396Y0125210D01*
X0199587Y0124401D01*
X0198529Y0123963D01*
X0198079Y0123963D01*
X0198079Y0123118D01*
X0197641Y0122061D01*
X0196831Y0121251D01*
X0195773Y0120813D01*
X0194628Y0120813D01*
X0193649Y0121219D01*
X0193288Y0120857D01*
X0192230Y0120419D01*
X0191085Y0120419D01*
X0190027Y0120857D01*
X0189218Y0121667D01*
X0188780Y0122725D01*
X0188780Y0123870D01*
X0189218Y0124927D01*
X0190027Y0125737D01*
X0190297Y0125849D01*
X0189961Y0126662D01*
X0189961Y0127807D01*
X0190399Y0128864D01*
X0191208Y0129674D01*
X0192266Y0130112D01*
X0192717Y0130112D01*
X0192717Y0130563D01*
X0193155Y0131620D01*
X0193964Y0132430D01*
X0195022Y0132868D01*
X0196167Y0132868D01*
X0197225Y0132430D01*
X0198034Y0131620D01*
X0198472Y0130563D01*
X0198190Y0131244D02*
X0218701Y0131244D01*
X0218907Y0132242D02*
X0209582Y0132242D01*
X0209553Y0132230D02*
X0210611Y0132668D01*
X0211420Y0133478D01*
X0211858Y0134536D01*
X0211858Y0135681D01*
X0211420Y0136738D01*
X0210885Y0137274D01*
X0211420Y0137809D01*
X0211858Y0138867D01*
X0211858Y0140011D01*
X0211453Y0140991D01*
X0212208Y0141746D01*
X0212646Y0142804D01*
X0212646Y0143948D01*
X0212208Y0145006D01*
X0211398Y0145816D01*
X0210340Y0146254D01*
X0209195Y0146254D01*
X0208137Y0145816D01*
X0207328Y0145006D01*
X0206890Y0143948D01*
X0206890Y0142804D01*
X0207295Y0141824D01*
X0206541Y0141069D01*
X0206102Y0140011D01*
X0206102Y0138867D01*
X0206541Y0137809D01*
X0207076Y0137274D01*
X0206541Y0136738D01*
X0206102Y0135681D01*
X0206102Y0134536D01*
X0206541Y0133478D01*
X0207350Y0132668D01*
X0208408Y0132230D01*
X0209553Y0132230D01*
X0208379Y0132242D02*
X0197412Y0132242D01*
X0193777Y0132242D02*
X0092248Y0132242D01*
X0092248Y0131244D02*
X0192999Y0131244D01*
X0192717Y0130245D02*
X0143548Y0130245D01*
X0143613Y0130198D02*
X0143046Y0130610D01*
X0142422Y0130928D01*
X0141755Y0131144D01*
X0141197Y0131233D01*
X0141197Y0127286D01*
X0140228Y0127286D01*
X0140228Y0131233D01*
X0139670Y0131144D01*
X0139003Y0130928D01*
X0138379Y0130610D01*
X0137812Y0130198D01*
X0137316Y0129702D01*
X0136904Y0129135D01*
X0136586Y0128510D01*
X0136369Y0127844D01*
X0136281Y0127285D01*
X0140228Y0127285D01*
X0140228Y0126317D01*
X0136281Y0126317D01*
X0136369Y0125758D01*
X0136586Y0125092D01*
X0136904Y0124467D01*
X0137316Y0123900D01*
X0137812Y0123405D01*
X0138379Y0122993D01*
X0139003Y0122675D01*
X0139670Y0122458D01*
X0140228Y0122370D01*
X0140228Y0126317D01*
X0141197Y0126317D01*
X0141197Y0127285D01*
X0145144Y0127285D01*
X0145056Y0127844D01*
X0144839Y0128510D01*
X0144521Y0129135D01*
X0144109Y0129702D01*
X0143613Y0130198D01*
X0144440Y0129247D02*
X0184876Y0129247D01*
X0184493Y0128864D02*
X0184055Y0127807D01*
X0184055Y0126662D01*
X0184493Y0125604D01*
X0185303Y0124794D01*
X0186361Y0124356D01*
X0187506Y0124356D01*
X0188563Y0124794D01*
X0189373Y0125604D01*
X0189811Y0126662D01*
X0189811Y0127807D01*
X0189373Y0128864D01*
X0188563Y0129674D01*
X0187506Y0130112D01*
X0186361Y0130112D01*
X0185303Y0129674D01*
X0184493Y0128864D01*
X0184238Y0128248D02*
X0144924Y0128248D01*
X0145144Y0126317D02*
X0141197Y0126317D01*
X0141197Y0122370D01*
X0141755Y0122458D01*
X0142422Y0122675D01*
X0143046Y0122993D01*
X0143613Y0123405D01*
X0144109Y0123900D01*
X0144521Y0124467D01*
X0144839Y0125092D01*
X0145056Y0125758D01*
X0145144Y0126317D01*
X0145134Y0126251D02*
X0184225Y0126251D01*
X0184055Y0127250D02*
X0141197Y0127250D01*
X0140228Y0127250D02*
X0092248Y0127250D01*
X0092248Y0128248D02*
X0136501Y0128248D01*
X0136986Y0129247D02*
X0092248Y0129247D01*
X0092248Y0130245D02*
X0137878Y0130245D01*
X0140228Y0130245D02*
X0141197Y0130245D01*
X0141197Y0129247D02*
X0140228Y0129247D01*
X0140228Y0128248D02*
X0141197Y0128248D01*
X0141197Y0126251D02*
X0140228Y0126251D01*
X0140228Y0125253D02*
X0141197Y0125253D01*
X0141197Y0124254D02*
X0140228Y0124254D01*
X0140228Y0123256D02*
X0141197Y0123256D01*
X0141208Y0121800D02*
X0142266Y0122238D01*
X0143411Y0122238D01*
X0144291Y0121874D01*
X0144291Y0122295D01*
X0144729Y0123353D01*
X0145539Y0124162D01*
X0146597Y0124600D01*
X0147742Y0124600D01*
X0148800Y0124162D01*
X0149609Y0123353D01*
X0150047Y0122295D01*
X0150047Y0121150D01*
X0149609Y0120092D01*
X0148800Y0119283D01*
X0147742Y0118844D01*
X0146597Y0118844D01*
X0145717Y0119209D01*
X0145717Y0118788D01*
X0145278Y0117730D01*
X0144469Y0116920D01*
X0143411Y0116482D01*
X0142266Y0116482D01*
X0141208Y0116920D01*
X0140399Y0117730D01*
X0139961Y0118788D01*
X0139961Y0119933D01*
X0140399Y0120990D01*
X0141208Y0121800D01*
X0140667Y0121259D02*
X0099138Y0121259D01*
X0099138Y0122257D02*
X0144291Y0122257D01*
X0144689Y0123256D02*
X0143408Y0123256D01*
X0144366Y0124254D02*
X0145761Y0124254D01*
X0144891Y0125253D02*
X0184844Y0125253D01*
X0189022Y0125253D02*
X0189543Y0125253D01*
X0189641Y0126251D02*
X0190131Y0126251D01*
X0189961Y0127250D02*
X0189811Y0127250D01*
X0189628Y0128248D02*
X0190144Y0128248D01*
X0190781Y0129247D02*
X0188990Y0129247D01*
X0188939Y0124254D02*
X0148577Y0124254D01*
X0149649Y0123256D02*
X0188780Y0123256D01*
X0188973Y0122257D02*
X0150047Y0122257D01*
X0150047Y0121259D02*
X0189626Y0121259D01*
X0196839Y0121259D02*
X0256890Y0121259D01*
X0256890Y0121507D02*
X0256890Y0120363D01*
X0257328Y0119305D01*
X0258137Y0118495D01*
X0259195Y0118057D01*
X0260340Y0118057D01*
X0261398Y0118495D01*
X0262208Y0119305D01*
X0262646Y0120363D01*
X0262646Y0121507D01*
X0262208Y0122565D01*
X0261398Y0123375D01*
X0260340Y0123813D01*
X0259195Y0123813D01*
X0258137Y0123375D01*
X0257328Y0122565D01*
X0256890Y0121507D01*
X0257200Y0122257D02*
X0246930Y0122257D01*
X0248509Y0123256D02*
X0258018Y0123256D01*
X0256932Y0120260D02*
X0149679Y0120260D01*
X0148749Y0119262D02*
X0209930Y0119262D01*
X0210106Y0119438D02*
X0209296Y0118628D01*
X0208858Y0117570D01*
X0208858Y0116426D01*
X0209296Y0115368D01*
X0210106Y0114558D01*
X0211164Y0114120D01*
X0212309Y0114120D01*
X0213366Y0114558D01*
X0214176Y0115368D01*
X0214614Y0116426D01*
X0214614Y0117570D01*
X0214176Y0118628D01*
X0213366Y0119438D01*
X0212309Y0119876D01*
X0211164Y0119876D01*
X0210106Y0119438D01*
X0209145Y0118263D02*
X0145499Y0118263D01*
X0144813Y0117265D02*
X0208858Y0117265D01*
X0208924Y0116266D02*
X0182286Y0116266D01*
X0182264Y0116288D02*
X0181206Y0116726D01*
X0180061Y0116726D01*
X0179004Y0116288D01*
X0178194Y0115479D01*
X0177756Y0114421D01*
X0177756Y0113276D01*
X0178194Y0112218D01*
X0179004Y0111409D01*
X0180061Y0110970D01*
X0181206Y0110970D01*
X0182264Y0111409D01*
X0183074Y0112218D01*
X0183512Y0113276D01*
X0183512Y0114421D01*
X0183074Y0115479D01*
X0182264Y0116288D01*
X0183161Y0115268D02*
X0209396Y0115268D01*
X0210804Y0114269D02*
X0183512Y0114269D01*
X0183510Y0113271D02*
X0242901Y0113271D01*
X0242406Y0113765D02*
X0243503Y0112668D01*
X0244937Y0112074D01*
X0246488Y0112074D01*
X0247922Y0112668D01*
X0249019Y0113765D01*
X0249613Y0115199D01*
X0249613Y0116750D01*
X0249019Y0118184D01*
X0247922Y0119281D01*
X0246488Y0119874D01*
X0244937Y0119874D01*
X0243503Y0119281D01*
X0242406Y0118184D01*
X0241813Y0116750D01*
X0241813Y0115199D01*
X0242406Y0113765D01*
X0242198Y0114269D02*
X0212669Y0114269D01*
X0214076Y0115268D02*
X0241813Y0115268D01*
X0241813Y0116266D02*
X0214548Y0116266D01*
X0214614Y0117265D02*
X0242026Y0117265D01*
X0242486Y0118263D02*
X0214327Y0118263D01*
X0213542Y0119262D02*
X0243485Y0119262D01*
X0247941Y0119262D02*
X0257371Y0119262D01*
X0258697Y0118263D02*
X0248939Y0118263D01*
X0249399Y0117265D02*
X0272026Y0117265D01*
X0271813Y0116750D02*
X0271813Y0115199D01*
X0272406Y0113765D01*
X0273503Y0112668D01*
X0274937Y0112074D01*
X0276488Y0112074D01*
X0277922Y0112668D01*
X0279019Y0113765D01*
X0279613Y0115199D01*
X0279613Y0116750D01*
X0279019Y0118184D01*
X0277922Y0119281D01*
X0276488Y0119874D01*
X0274937Y0119874D01*
X0273503Y0119281D01*
X0272406Y0118184D01*
X0271813Y0116750D01*
X0271813Y0116266D02*
X0249613Y0116266D01*
X0249613Y0115268D02*
X0271813Y0115268D01*
X0272198Y0114269D02*
X0249228Y0114269D01*
X0248524Y0113271D02*
X0272901Y0113271D01*
X0274459Y0112272D02*
X0246966Y0112272D01*
X0244459Y0112272D02*
X0183096Y0112272D01*
X0181938Y0111274D02*
X0285911Y0111274D01*
X0286243Y0111411D02*
X0284968Y0110883D01*
X0283993Y0109908D01*
X0283465Y0108633D01*
X0283465Y0107253D01*
X0283993Y0105978D01*
X0284968Y0105002D01*
X0286243Y0104474D01*
X0287623Y0104474D01*
X0288898Y0105002D01*
X0289874Y0105978D01*
X0290402Y0107253D01*
X0290402Y0108633D01*
X0289874Y0109908D01*
X0288898Y0110883D01*
X0287623Y0111411D01*
X0286243Y0111411D01*
X0287955Y0111274D02*
X0461630Y0111274D01*
X0461630Y0112272D02*
X0276966Y0112272D01*
X0278524Y0113271D02*
X0461630Y0113271D01*
X0461630Y0114269D02*
X0357172Y0114269D01*
X0357067Y0114165D02*
X0357877Y0114974D01*
X0358315Y0116032D01*
X0358315Y0117177D01*
X0357877Y0118235D01*
X0357067Y0119044D01*
X0356304Y0119360D01*
X0357067Y0119676D01*
X0357877Y0120486D01*
X0358315Y0121544D01*
X0358315Y0122689D01*
X0357877Y0123746D01*
X0357067Y0124556D01*
X0356009Y0124994D01*
X0354865Y0124994D01*
X0353807Y0124556D01*
X0352997Y0123746D01*
X0352559Y0122689D01*
X0352559Y0121544D01*
X0352997Y0120486D01*
X0353807Y0119676D01*
X0354570Y0119360D01*
X0353807Y0119044D01*
X0353059Y0118297D01*
X0352759Y0119022D01*
X0351949Y0119832D01*
X0350891Y0120270D01*
X0349746Y0120270D01*
X0348689Y0119832D01*
X0347879Y0119022D01*
X0347441Y0117964D01*
X0347441Y0116819D01*
X0347879Y0115762D01*
X0348689Y0114952D01*
X0349746Y0114514D01*
X0350891Y0114514D01*
X0351949Y0114952D01*
X0352697Y0115700D01*
X0352997Y0114974D01*
X0353807Y0114165D01*
X0354865Y0113726D01*
X0356009Y0113726D01*
X0357067Y0114165D01*
X0357998Y0115268D02*
X0461630Y0115268D01*
X0461630Y0116266D02*
X0358315Y0116266D01*
X0358279Y0117265D02*
X0461630Y0117265D01*
X0461630Y0118263D02*
X0357848Y0118263D01*
X0356542Y0119262D02*
X0461630Y0119262D01*
X0461630Y0120260D02*
X0412404Y0120260D01*
X0413394Y0121259D02*
X0461630Y0121259D01*
X0461630Y0122257D02*
X0413808Y0122257D01*
X0413983Y0123256D02*
X0461630Y0123256D01*
X0461630Y0124254D02*
X0413973Y0124254D01*
X0413559Y0125253D02*
X0461630Y0125253D01*
X0461630Y0126251D02*
X0412801Y0126251D01*
X0412389Y0130245D02*
X0461630Y0130245D01*
X0461630Y0129247D02*
X0358315Y0129247D01*
X0358283Y0130245D02*
X0377777Y0130245D01*
X0376778Y0131244D02*
X0357860Y0131244D01*
X0356570Y0132242D02*
X0376363Y0132242D01*
X0376600Y0135238D02*
X0345124Y0135238D01*
X0345323Y0136236D02*
X0377349Y0136236D01*
X0379307Y0139555D02*
X0377873Y0140148D01*
X0376776Y0141246D01*
X0376183Y0142679D01*
X0376183Y0144230D01*
X0376776Y0145664D01*
X0377873Y0146761D01*
X0379307Y0147355D01*
X0380858Y0147355D01*
X0382292Y0146761D01*
X0383389Y0145664D01*
X0383983Y0144230D01*
X0383983Y0142679D01*
X0383389Y0141246D01*
X0382292Y0140148D01*
X0380858Y0139555D01*
X0379307Y0139555D01*
X0377791Y0140231D02*
X0345323Y0140231D01*
X0345311Y0139232D02*
X0461630Y0139232D01*
X0461630Y0136236D02*
X0412816Y0136236D01*
X0413565Y0135238D02*
X0461630Y0135238D01*
X0461630Y0134239D02*
X0413979Y0134239D01*
X0413983Y0133241D02*
X0461630Y0133241D01*
X0461630Y0132242D02*
X0413802Y0132242D01*
X0413387Y0131244D02*
X0461630Y0131244D01*
X0461630Y0148219D02*
X0336890Y0148219D01*
X0336988Y0148178D02*
X0335931Y0148616D01*
X0334786Y0148616D01*
X0333728Y0148178D01*
X0333390Y0147840D01*
X0333051Y0148178D01*
X0331994Y0148616D01*
X0330849Y0148616D01*
X0329791Y0148178D01*
X0328981Y0147368D01*
X0328543Y0146311D01*
X0328543Y0145166D01*
X0328793Y0144562D01*
X0328721Y0144635D01*
X0327663Y0145073D01*
X0326518Y0145073D01*
X0325460Y0144635D01*
X0324651Y0143825D01*
X0324213Y0142767D01*
X0324213Y0141622D01*
X0324651Y0140565D01*
X0325460Y0139755D01*
X0326518Y0139317D01*
X0327663Y0139317D01*
X0328721Y0139755D01*
X0329530Y0140565D01*
X0329968Y0141622D01*
X0329968Y0142767D01*
X0329718Y0143371D01*
X0329791Y0143298D01*
X0330849Y0142860D01*
X0331994Y0142860D01*
X0332824Y0143204D01*
X0332480Y0142374D01*
X0332480Y0141229D01*
X0329806Y0141229D01*
X0329968Y0142228D02*
X0332480Y0142228D01*
X0332480Y0141229D02*
X0332918Y0140171D01*
X0333728Y0139361D01*
X0334786Y0138923D01*
X0335931Y0138923D01*
X0336988Y0139361D01*
X0337798Y0140171D01*
X0338236Y0141229D01*
X0339908Y0141229D01*
X0339805Y0142228D02*
X0338236Y0142228D01*
X0338236Y0142374D02*
X0337798Y0143431D01*
X0337460Y0143770D01*
X0337798Y0144108D01*
X0338236Y0145166D01*
X0338236Y0146311D01*
X0337798Y0147368D01*
X0336988Y0148178D01*
X0337860Y0147220D02*
X0378982Y0147220D01*
X0377334Y0146222D02*
X0343095Y0146222D01*
X0341794Y0146222D02*
X0338236Y0146222D01*
X0338236Y0145223D02*
X0340222Y0145223D01*
X0339681Y0144225D02*
X0337846Y0144225D01*
X0337883Y0143226D02*
X0339567Y0143226D01*
X0338236Y0142374D02*
X0338236Y0141229D01*
X0337823Y0140231D02*
X0339567Y0140231D01*
X0339579Y0139232D02*
X0336676Y0139232D01*
X0334040Y0139232D02*
X0277970Y0139232D01*
X0278969Y0138233D02*
X0339992Y0138233D01*
X0339722Y0137235D02*
X0279412Y0137235D01*
X0279613Y0136236D02*
X0339567Y0136236D01*
X0339765Y0135238D02*
X0279613Y0135238D01*
X0279215Y0134239D02*
X0329632Y0134239D01*
X0329068Y0133241D02*
X0278495Y0133241D01*
X0276488Y0129874D02*
X0274937Y0129874D01*
X0273503Y0129281D01*
X0272406Y0128184D01*
X0271813Y0126750D01*
X0271813Y0125199D01*
X0272406Y0123765D01*
X0273503Y0122668D01*
X0274937Y0122074D01*
X0276488Y0122074D01*
X0277922Y0122668D01*
X0279019Y0123765D01*
X0279613Y0125199D01*
X0279613Y0126750D01*
X0279019Y0128184D01*
X0277922Y0129281D01*
X0276488Y0129874D01*
X0277956Y0129247D02*
X0321999Y0129247D01*
X0323520Y0129247D02*
X0326969Y0129247D01*
X0326003Y0128248D02*
X0325028Y0128248D01*
X0325380Y0125253D02*
X0325651Y0125253D01*
X0326394Y0124254D02*
X0324637Y0124254D01*
X0320882Y0124254D02*
X0288471Y0124254D01*
X0288585Y0124140D02*
X0287776Y0124950D01*
X0286718Y0125388D01*
X0285573Y0125388D01*
X0284515Y0124950D01*
X0283706Y0124140D01*
X0283594Y0123870D01*
X0282781Y0124207D01*
X0281636Y0124207D01*
X0280578Y0123769D01*
X0279769Y0122959D01*
X0279331Y0121901D01*
X0279331Y0120756D01*
X0279769Y0119699D01*
X0280578Y0118889D01*
X0281636Y0118451D01*
X0282781Y0118451D01*
X0283839Y0118889D01*
X0284648Y0119699D01*
X0284760Y0119969D01*
X0285573Y0119632D01*
X0286718Y0119632D01*
X0287776Y0120070D01*
X0288585Y0120880D01*
X0289024Y0121937D01*
X0289024Y0123082D01*
X0288585Y0124140D01*
X0288952Y0123256D02*
X0338780Y0123256D01*
X0338780Y0123476D02*
X0338780Y0122331D01*
X0339218Y0121273D01*
X0340027Y0120464D01*
X0341085Y0120026D01*
X0342230Y0120026D01*
X0343288Y0120464D01*
X0344097Y0121273D01*
X0344535Y0122331D01*
X0344535Y0123476D01*
X0344097Y0124534D01*
X0343288Y0125343D01*
X0342230Y0125781D01*
X0341085Y0125781D01*
X0340027Y0125343D01*
X0339218Y0124534D01*
X0338780Y0123476D01*
X0339102Y0124254D02*
X0333692Y0124254D01*
X0337447Y0125253D02*
X0338066Y0125253D01*
X0339738Y0125253D02*
X0339937Y0125253D01*
X0341201Y0126251D02*
X0343295Y0126251D01*
X0343378Y0125253D02*
X0376606Y0125253D01*
X0376193Y0124254D02*
X0357369Y0124254D01*
X0358080Y0123256D02*
X0376183Y0123256D01*
X0376357Y0122257D02*
X0358315Y0122257D01*
X0358197Y0121259D02*
X0376771Y0121259D01*
X0377762Y0120260D02*
X0357651Y0120260D01*
X0354332Y0119262D02*
X0352519Y0119262D01*
X0353223Y0120260D02*
X0350914Y0120260D01*
X0349724Y0120260D02*
X0342797Y0120260D01*
X0344083Y0121259D02*
X0352677Y0121259D01*
X0352559Y0122257D02*
X0344505Y0122257D01*
X0344535Y0123256D02*
X0352794Y0123256D01*
X0353505Y0124254D02*
X0344213Y0124254D01*
X0340518Y0120260D02*
X0287966Y0120260D01*
X0288743Y0121259D02*
X0339232Y0121259D01*
X0338810Y0122257D02*
X0289024Y0122257D01*
X0287044Y0125253D02*
X0320139Y0125253D01*
X0319882Y0126251D02*
X0279613Y0126251D01*
X0279613Y0125253D02*
X0285247Y0125253D01*
X0283820Y0124254D02*
X0279221Y0124254D01*
X0278509Y0123256D02*
X0280066Y0123256D01*
X0279478Y0122257D02*
X0276930Y0122257D01*
X0274495Y0122257D02*
X0262335Y0122257D01*
X0262646Y0121259D02*
X0279331Y0121259D01*
X0279536Y0120260D02*
X0262603Y0120260D01*
X0262164Y0119262D02*
X0273485Y0119262D01*
X0272486Y0118263D02*
X0260838Y0118263D01*
X0261517Y0123256D02*
X0272916Y0123256D01*
X0272204Y0124254D02*
X0249221Y0124254D01*
X0249613Y0125253D02*
X0271813Y0125253D01*
X0271813Y0126251D02*
X0249613Y0126251D01*
X0249406Y0127250D02*
X0272020Y0127250D01*
X0272471Y0128248D02*
X0248954Y0128248D01*
X0247956Y0129247D02*
X0273470Y0129247D01*
X0272931Y0133241D02*
X0248495Y0133241D01*
X0249215Y0134239D02*
X0272210Y0134239D01*
X0271813Y0135238D02*
X0249613Y0135238D01*
X0249613Y0136236D02*
X0271813Y0136236D01*
X0272013Y0137235D02*
X0249412Y0137235D01*
X0248969Y0138233D02*
X0272456Y0138233D01*
X0273455Y0139232D02*
X0247970Y0139232D01*
X0246858Y0142228D02*
X0274567Y0142228D01*
X0274937Y0142074D02*
X0276488Y0142074D01*
X0277922Y0142668D01*
X0279019Y0143765D01*
X0279613Y0145199D01*
X0279613Y0146750D01*
X0279019Y0148184D01*
X0277922Y0149281D01*
X0276488Y0149874D01*
X0274937Y0149874D01*
X0273503Y0149281D01*
X0272406Y0148184D01*
X0271813Y0146750D01*
X0271813Y0145199D01*
X0272406Y0143765D01*
X0273503Y0142668D01*
X0274937Y0142074D01*
X0276858Y0142228D02*
X0324213Y0142228D01*
X0324376Y0141229D02*
X0211691Y0141229D01*
X0211768Y0140231D02*
X0324985Y0140231D01*
X0324403Y0143226D02*
X0278480Y0143226D01*
X0279209Y0144225D02*
X0325050Y0144225D01*
X0328543Y0145223D02*
X0279613Y0145223D01*
X0279613Y0146222D02*
X0328543Y0146222D01*
X0328920Y0147220D02*
X0279418Y0147220D01*
X0278984Y0148219D02*
X0329889Y0148219D01*
X0332953Y0148219D02*
X0333826Y0148219D01*
X0329966Y0143226D02*
X0329778Y0143226D01*
X0329196Y0140231D02*
X0332894Y0140231D01*
X0333998Y0134239D02*
X0340425Y0134239D01*
X0344982Y0141229D02*
X0376793Y0141229D01*
X0376370Y0142228D02*
X0345084Y0142228D01*
X0345323Y0143226D02*
X0376183Y0143226D01*
X0376183Y0144225D02*
X0345208Y0144225D01*
X0344668Y0145223D02*
X0376594Y0145223D01*
X0381183Y0147220D02*
X0408982Y0147220D01*
X0407334Y0146222D02*
X0382831Y0146222D01*
X0383572Y0145223D02*
X0406594Y0145223D01*
X0406183Y0144225D02*
X0383983Y0144225D01*
X0383983Y0143226D02*
X0406183Y0143226D01*
X0406370Y0142228D02*
X0383796Y0142228D01*
X0383372Y0141229D02*
X0406793Y0141229D01*
X0407791Y0140231D02*
X0382374Y0140231D01*
X0382359Y0150216D02*
X0407806Y0150216D01*
X0406808Y0151214D02*
X0383358Y0151214D01*
X0383790Y0152213D02*
X0406376Y0152213D01*
X0406183Y0153211D02*
X0383983Y0153211D01*
X0383983Y0154210D02*
X0406183Y0154210D01*
X0406588Y0155208D02*
X0383578Y0155208D01*
X0382846Y0156207D02*
X0407319Y0156207D01*
X0377319Y0156207D02*
X0356519Y0156207D01*
X0357267Y0155208D02*
X0376588Y0155208D01*
X0376183Y0154210D02*
X0357528Y0154210D01*
X0357435Y0153211D02*
X0376183Y0153211D01*
X0376376Y0152213D02*
X0356926Y0152213D01*
X0355430Y0151214D02*
X0376808Y0151214D01*
X0377806Y0150216D02*
X0157771Y0150216D01*
X0157921Y0149217D02*
X0243440Y0149217D01*
X0243503Y0149281D02*
X0242406Y0148184D01*
X0241813Y0146750D01*
X0241813Y0145199D01*
X0242406Y0143765D01*
X0243503Y0142668D01*
X0244937Y0142074D01*
X0246488Y0142074D01*
X0247922Y0142668D01*
X0249019Y0143765D01*
X0249613Y0145199D01*
X0249613Y0146750D01*
X0249019Y0148184D01*
X0247922Y0149281D01*
X0246488Y0149874D01*
X0244937Y0149874D01*
X0243503Y0149281D01*
X0242441Y0148219D02*
X0205452Y0148219D01*
X0206133Y0147220D02*
X0242007Y0147220D01*
X0241813Y0146222D02*
X0210418Y0146222D01*
X0209117Y0146222D02*
X0206346Y0146222D01*
X0206207Y0145223D02*
X0207545Y0145223D01*
X0207004Y0144225D02*
X0205631Y0144225D01*
X0206890Y0143226D02*
X0203984Y0143226D01*
X0203909Y0142228D02*
X0207128Y0142228D01*
X0206700Y0141229D02*
X0203423Y0141229D01*
X0201983Y0140231D02*
X0206193Y0140231D01*
X0206102Y0139232D02*
X0092248Y0139232D01*
X0092248Y0140231D02*
X0200229Y0140231D01*
X0197288Y0143226D02*
X0195082Y0143226D01*
X0196114Y0144225D02*
X0196256Y0144225D01*
X0192170Y0143226D02*
X0192034Y0143226D01*
X0192094Y0148219D02*
X0190664Y0148219D01*
X0189501Y0148219D02*
X0157718Y0148219D01*
X0157052Y0147220D02*
X0187888Y0147220D01*
X0186637Y0151214D02*
X0353869Y0151214D01*
X0352373Y0152213D02*
X0187269Y0152213D01*
X0187449Y0153211D02*
X0195533Y0153211D01*
X0194077Y0154210D02*
X0187275Y0154210D01*
X0195158Y0148219D02*
X0197212Y0148219D01*
X0196243Y0147220D02*
X0196127Y0147220D01*
X0200276Y0148219D02*
X0201485Y0148219D01*
X0211991Y0145223D02*
X0241813Y0145223D01*
X0242216Y0144225D02*
X0212531Y0144225D01*
X0212646Y0143226D02*
X0242946Y0143226D01*
X0244567Y0142228D02*
X0212407Y0142228D01*
X0211858Y0139232D02*
X0243455Y0139232D01*
X0242456Y0138233D02*
X0211596Y0138233D01*
X0210924Y0137235D02*
X0242013Y0137235D01*
X0241813Y0136236D02*
X0211628Y0136236D01*
X0211858Y0135238D02*
X0241813Y0135238D01*
X0242210Y0134239D02*
X0211735Y0134239D01*
X0211183Y0133241D02*
X0219578Y0133241D01*
X0223579Y0133241D02*
X0242931Y0133241D01*
X0242916Y0123256D02*
X0198079Y0123256D01*
X0197722Y0122257D02*
X0244495Y0122257D01*
X0248480Y0143226D02*
X0272946Y0143226D01*
X0272216Y0144225D02*
X0249209Y0144225D01*
X0249613Y0145223D02*
X0271813Y0145223D01*
X0271813Y0146222D02*
X0249613Y0146222D01*
X0249418Y0147220D02*
X0272007Y0147220D01*
X0272441Y0148219D02*
X0248984Y0148219D01*
X0247985Y0149217D02*
X0273440Y0149217D01*
X0277985Y0149217D02*
X0461630Y0149217D01*
X0461630Y0158204D02*
X0347291Y0158204D01*
X0347007Y0159202D02*
X0461630Y0159202D01*
X0461630Y0160201D02*
X0346226Y0160201D01*
X0342601Y0160201D02*
X0253689Y0160201D01*
X0253546Y0159856D02*
X0253984Y0160914D01*
X0253984Y0162059D01*
X0253546Y0163116D01*
X0252737Y0163926D01*
X0251679Y0164364D01*
X0250534Y0164364D01*
X0249476Y0163926D01*
X0248666Y0163116D01*
X0248228Y0162059D01*
X0248228Y0160914D01*
X0248666Y0159856D01*
X0249476Y0159046D01*
X0250534Y0158608D01*
X0251679Y0158608D01*
X0252737Y0159046D01*
X0253546Y0159856D01*
X0252892Y0159202D02*
X0341820Y0159202D01*
X0341535Y0158204D02*
X0208742Y0158204D01*
X0209102Y0157205D02*
X0341604Y0157205D01*
X0342080Y0156207D02*
X0209102Y0156207D01*
X0207853Y0159202D02*
X0249320Y0159202D01*
X0248524Y0160201D02*
X0160555Y0160201D01*
X0161553Y0161199D02*
X0205064Y0161199D01*
X0205141Y0161167D02*
X0206521Y0161167D01*
X0207795Y0161695D01*
X0208771Y0162671D01*
X0209299Y0163946D01*
X0209299Y0165326D01*
X0208771Y0166601D01*
X0207795Y0167576D01*
X0206521Y0168104D01*
X0205141Y0168104D01*
X0203866Y0167576D01*
X0202890Y0166601D01*
X0202362Y0165326D01*
X0202362Y0163946D01*
X0202890Y0162671D01*
X0203866Y0161695D01*
X0205141Y0161167D01*
X0206598Y0161199D02*
X0248228Y0161199D01*
X0248286Y0162198D02*
X0208298Y0162198D01*
X0208989Y0163196D02*
X0248746Y0163196D01*
X0250125Y0164195D02*
X0209299Y0164195D01*
X0209299Y0165193D02*
X0270465Y0165193D01*
X0270465Y0166192D02*
X0208940Y0166192D01*
X0208181Y0167190D02*
X0270614Y0167190D01*
X0270815Y0164195D02*
X0252088Y0164195D01*
X0253466Y0163196D02*
X0271339Y0163196D01*
X0272338Y0162198D02*
X0253927Y0162198D01*
X0253984Y0161199D02*
X0461630Y0161199D01*
X0461630Y0162198D02*
X0297591Y0162198D01*
X0298590Y0163196D02*
X0341609Y0163196D01*
X0341755Y0163136D02*
X0343135Y0163136D01*
X0344410Y0163664D01*
X0345385Y0164640D01*
X0345913Y0165914D01*
X0345913Y0167294D01*
X0345385Y0168569D01*
X0344410Y0169545D01*
X0343135Y0170073D01*
X0341755Y0170073D01*
X0340480Y0169545D01*
X0339504Y0168569D01*
X0338976Y0167294D01*
X0338976Y0165914D01*
X0339504Y0164640D01*
X0340480Y0163664D01*
X0341755Y0163136D01*
X0343281Y0163196D02*
X0461630Y0163196D01*
X0461630Y0164195D02*
X0344941Y0164195D01*
X0345615Y0165193D02*
X0461630Y0165193D01*
X0461630Y0166192D02*
X0345913Y0166192D01*
X0345913Y0167190D02*
X0461630Y0167190D01*
X0461630Y0168189D02*
X0345543Y0168189D01*
X0344767Y0169187D02*
X0461630Y0169187D01*
X0461630Y0188159D02*
X0349172Y0188159D01*
X0349842Y0189158D02*
X0461630Y0189158D01*
X0461630Y0190156D02*
X0350047Y0190156D01*
X0349900Y0191155D02*
X0461630Y0191155D01*
X0461630Y0192153D02*
X0349313Y0192153D01*
X0345026Y0192153D02*
X0246754Y0192153D01*
X0246561Y0192073D02*
X0247618Y0192511D01*
X0248428Y0193321D01*
X0248866Y0194378D01*
X0248866Y0195523D01*
X0248428Y0196581D01*
X0247618Y0197391D01*
X0246561Y0197829D01*
X0245416Y0197829D01*
X0244358Y0197391D01*
X0243548Y0196581D01*
X0243110Y0195523D01*
X0243110Y0194378D01*
X0243548Y0193321D01*
X0244358Y0192511D01*
X0245416Y0192073D01*
X0246561Y0192073D01*
X0245222Y0192153D02*
X0122322Y0192153D01*
X0123000Y0193789D01*
X0123000Y0195561D01*
X0122322Y0197197D01*
X0121070Y0198450D01*
X0119433Y0199128D01*
X0117662Y0199128D01*
X0116025Y0198450D01*
X0114772Y0197197D01*
X0114094Y0195561D01*
X0114094Y0193789D01*
X0114772Y0192153D01*
X0112322Y0192153D01*
X0112736Y0193152D02*
X0114359Y0193152D01*
X0114094Y0194150D02*
X0113000Y0194150D01*
X0113000Y0195149D02*
X0114094Y0195149D01*
X0114337Y0196147D02*
X0112757Y0196147D01*
X0112344Y0197146D02*
X0114751Y0197146D01*
X0115719Y0198144D02*
X0111375Y0198144D01*
X0111309Y0201140D02*
X0115786Y0201140D01*
X0116025Y0200900D02*
X0117662Y0200222D01*
X0119433Y0200222D01*
X0121070Y0200900D01*
X0122322Y0202153D01*
X0123000Y0203789D01*
X0123000Y0205561D01*
X0122322Y0207197D01*
X0121070Y0208450D01*
X0119433Y0209128D01*
X0117662Y0209128D01*
X0116025Y0208450D01*
X0114772Y0207197D01*
X0114094Y0205561D01*
X0114094Y0203789D01*
X0114772Y0202153D01*
X0116025Y0200900D01*
X0114787Y0202138D02*
X0112307Y0202138D01*
X0112730Y0203137D02*
X0114365Y0203137D01*
X0114094Y0204135D02*
X0113000Y0204135D01*
X0113000Y0205134D02*
X0114094Y0205134D01*
X0114331Y0206132D02*
X0112763Y0206132D01*
X0112350Y0207131D02*
X0114745Y0207131D01*
X0115704Y0208129D02*
X0111390Y0208129D01*
X0109433Y0209128D02*
X0117661Y0209128D01*
X0117662Y0210222D02*
X0119433Y0210222D01*
X0121070Y0210900D01*
X0122322Y0212153D01*
X0123000Y0213789D01*
X0123000Y0215561D01*
X0122322Y0217197D01*
X0121070Y0218450D01*
X0119433Y0219128D01*
X0117662Y0219128D01*
X0116025Y0218450D01*
X0114772Y0217197D01*
X0114094Y0215561D01*
X0114094Y0213789D01*
X0114772Y0212153D01*
X0116025Y0210900D01*
X0117662Y0210222D01*
X0115800Y0211125D02*
X0111294Y0211125D01*
X0111070Y0210900D02*
X0112322Y0212153D01*
X0113000Y0213789D01*
X0113000Y0215561D01*
X0112322Y0217197D01*
X0111070Y0218450D01*
X0109433Y0219128D01*
X0107662Y0219128D01*
X0106025Y0218450D01*
X0104772Y0217197D01*
X0104094Y0215561D01*
X0104094Y0213789D01*
X0104772Y0212153D01*
X0106025Y0210900D01*
X0107662Y0210222D01*
X0109433Y0210222D01*
X0111070Y0210900D01*
X0112293Y0212123D02*
X0114802Y0212123D01*
X0114371Y0213122D02*
X0112723Y0213122D01*
X0113000Y0214120D02*
X0114094Y0214120D01*
X0114094Y0215119D02*
X0113000Y0215119D01*
X0112770Y0216117D02*
X0114325Y0216117D01*
X0114739Y0217116D02*
X0112356Y0217116D01*
X0111405Y0218114D02*
X0115689Y0218114D01*
X0117625Y0219113D02*
X0109469Y0219113D01*
X0109031Y0220244D02*
X0109590Y0220332D01*
X0110257Y0220549D01*
X0110881Y0220867D01*
X0111448Y0221279D01*
X0111944Y0221774D01*
X0112356Y0222341D01*
X0112674Y0222966D01*
X0112890Y0223632D01*
X0112979Y0224191D01*
X0109032Y0224191D01*
X0109032Y0225159D01*
X0112979Y0225159D01*
X0112890Y0225718D01*
X0112674Y0226384D01*
X0112356Y0227009D01*
X0111944Y0227576D01*
X0111448Y0228072D01*
X0110881Y0228484D01*
X0110257Y0228802D01*
X0109590Y0229018D01*
X0109031Y0229107D01*
X0109031Y0225160D01*
X0108063Y0225160D01*
X0108063Y0229107D01*
X0107505Y0229018D01*
X0106838Y0228802D01*
X0106213Y0228484D01*
X0105646Y0228072D01*
X0105151Y0227576D01*
X0104739Y0227009D01*
X0104421Y0226384D01*
X0104204Y0225718D01*
X0104116Y0225159D01*
X0108063Y0225159D01*
X0108063Y0224191D01*
X0104116Y0224191D01*
X0104204Y0223632D01*
X0104421Y0222966D01*
X0104739Y0222341D01*
X0105151Y0221774D01*
X0105646Y0221279D01*
X0106213Y0220867D01*
X0106838Y0220549D01*
X0107505Y0220332D01*
X0108063Y0220244D01*
X0108063Y0224191D01*
X0109031Y0224191D01*
X0109031Y0220244D01*
X0109031Y0221110D02*
X0108063Y0221110D01*
X0108063Y0222108D02*
X0109031Y0222108D01*
X0109031Y0223107D02*
X0108063Y0223107D01*
X0108063Y0224105D02*
X0109031Y0224105D01*
X0109032Y0225104D02*
X0114094Y0225104D01*
X0114094Y0225561D02*
X0114094Y0223789D01*
X0114772Y0222153D01*
X0116025Y0220900D01*
X0117662Y0220222D01*
X0119433Y0220222D01*
X0121070Y0220900D01*
X0122322Y0222153D01*
X0123000Y0223789D01*
X0123000Y0225561D01*
X0122322Y0227197D01*
X0121070Y0228450D01*
X0119433Y0229128D01*
X0117662Y0229128D01*
X0116025Y0228450D01*
X0114772Y0227197D01*
X0114094Y0225561D01*
X0114319Y0226102D02*
X0112765Y0226102D01*
X0112289Y0227101D02*
X0114732Y0227101D01*
X0115674Y0228100D02*
X0111410Y0228100D01*
X0109031Y0228100D02*
X0108063Y0228100D01*
X0108063Y0229098D02*
X0109031Y0229098D01*
X0109087Y0229098D02*
X0117589Y0229098D01*
X0119505Y0229098D02*
X0164386Y0229098D01*
X0164386Y0229309D02*
X0164386Y0228309D01*
X0165386Y0228309D01*
X0165386Y0229309D01*
X0173079Y0229309D01*
X0173079Y0229346D01*
X0172939Y0230411D01*
X0172661Y0231448D01*
X0172250Y0232440D01*
X0171713Y0233371D01*
X0171059Y0234223D01*
X0170299Y0234982D01*
X0169447Y0235636D01*
X0168517Y0236173D01*
X0167525Y0236584D01*
X0166488Y0236862D01*
X0165423Y0237002D01*
X0165386Y0237002D01*
X0165386Y0229309D01*
X0164386Y0229309D01*
X0164386Y0237002D01*
X0164349Y0237002D01*
X0163284Y0236862D01*
X0162247Y0236584D01*
X0161254Y0236173D01*
X0160324Y0235636D01*
X0159472Y0234982D01*
X0158713Y0234223D01*
X0158059Y0233371D01*
X0157522Y0232440D01*
X0157111Y0231448D01*
X0156833Y0230411D01*
X0156693Y0229346D01*
X0156693Y0229309D01*
X0164386Y0229309D01*
X0164386Y0230097D02*
X0165386Y0230097D01*
X0165386Y0231095D02*
X0164386Y0231095D01*
X0164386Y0232094D02*
X0165386Y0232094D01*
X0165386Y0233092D02*
X0164386Y0233092D01*
X0164386Y0234091D02*
X0165386Y0234091D01*
X0165386Y0235089D02*
X0164386Y0235089D01*
X0164386Y0236088D02*
X0165386Y0236088D01*
X0168665Y0236088D02*
X0177404Y0236088D01*
X0177878Y0235613D02*
X0176021Y0237471D01*
X0175016Y0239897D01*
X0175016Y0242524D01*
X0176021Y0244951D01*
X0177878Y0246808D01*
X0180305Y0247813D01*
X0182931Y0247813D01*
X0185358Y0246808D01*
X0187215Y0244951D01*
X0188220Y0242524D01*
X0188220Y0239897D01*
X0187215Y0237471D01*
X0185358Y0235613D01*
X0182931Y0234608D01*
X0180305Y0234608D01*
X0177878Y0235613D01*
X0179144Y0235089D02*
X0170160Y0235089D01*
X0171160Y0234091D02*
X0225541Y0234091D01*
X0225642Y0234223D02*
X0224988Y0233371D01*
X0224451Y0232440D01*
X0224040Y0231448D01*
X0223762Y0230411D01*
X0223622Y0229346D01*
X0223622Y0229309D01*
X0231315Y0229309D01*
X0231315Y0228309D01*
X0232315Y0228309D01*
X0232315Y0229309D01*
X0240008Y0229309D01*
X0240008Y0229346D01*
X0239868Y0230411D01*
X0239590Y0231448D01*
X0239179Y0232440D01*
X0238642Y0233371D01*
X0237988Y0234223D01*
X0237229Y0234982D01*
X0236376Y0235636D01*
X0235446Y0236173D01*
X0234454Y0236584D01*
X0233417Y0236862D01*
X0232352Y0237002D01*
X0232315Y0237002D01*
X0232315Y0229309D01*
X0231315Y0229309D01*
X0231315Y0237002D01*
X0231278Y0237002D01*
X0230213Y0236862D01*
X0229176Y0236584D01*
X0228184Y0236173D01*
X0227253Y0235636D01*
X0226401Y0234982D01*
X0225642Y0234223D01*
X0226541Y0235089D02*
X0217557Y0235089D01*
X0216396Y0234608D02*
X0218823Y0235613D01*
X0220680Y0237471D01*
X0221685Y0239897D01*
X0221685Y0242524D01*
X0220680Y0244951D01*
X0218823Y0246808D01*
X0216396Y0247813D01*
X0213769Y0247813D01*
X0211343Y0246808D01*
X0209485Y0244951D01*
X0208480Y0242524D01*
X0208480Y0239897D01*
X0209485Y0237471D01*
X0211343Y0235613D01*
X0213769Y0234608D01*
X0216396Y0234608D01*
X0219297Y0236088D02*
X0228036Y0236088D01*
X0231315Y0236088D02*
X0232315Y0236088D01*
X0232315Y0235089D02*
X0231315Y0235089D01*
X0231315Y0234091D02*
X0232315Y0234091D01*
X0232315Y0233092D02*
X0231315Y0233092D01*
X0231315Y0232094D02*
X0232315Y0232094D01*
X0232315Y0231095D02*
X0231315Y0231095D01*
X0231315Y0230097D02*
X0232315Y0230097D01*
X0232315Y0229098D02*
X0298244Y0229098D01*
X0298244Y0229309D02*
X0298244Y0228309D01*
X0290551Y0228309D01*
X0290551Y0228272D01*
X0290691Y0227207D01*
X0290969Y0226170D01*
X0291380Y0225178D01*
X0291917Y0224248D01*
X0292571Y0223395D01*
X0293331Y0222636D01*
X0294183Y0221982D01*
X0295113Y0221445D01*
X0296105Y0221034D01*
X0297142Y0220756D01*
X0298207Y0220616D01*
X0298244Y0220616D01*
X0298244Y0228309D01*
X0299244Y0228309D01*
X0299244Y0220616D01*
X0299281Y0220616D01*
X0300346Y0220756D01*
X0301383Y0221034D01*
X0302375Y0221445D01*
X0303306Y0221982D01*
X0304158Y0222636D01*
X0304917Y0223395D01*
X0305571Y0224248D01*
X0306108Y0225178D01*
X0306519Y0226170D01*
X0306797Y0227207D01*
X0306937Y0228272D01*
X0306937Y0228309D01*
X0299244Y0228309D01*
X0299244Y0229309D01*
X0298244Y0229309D01*
X0290551Y0229309D01*
X0290551Y0229346D01*
X0290691Y0230411D01*
X0290969Y0231448D01*
X0291380Y0232440D01*
X0291917Y0233371D01*
X0292571Y0234223D01*
X0293331Y0234982D01*
X0294183Y0235636D01*
X0295113Y0236173D01*
X0296105Y0236584D01*
X0297142Y0236862D01*
X0298207Y0237002D01*
X0298244Y0237002D01*
X0298244Y0229309D01*
X0298244Y0230097D02*
X0299244Y0230097D01*
X0299244Y0229309D02*
X0299244Y0237002D01*
X0299281Y0237002D01*
X0300346Y0236862D01*
X0301383Y0236584D01*
X0302375Y0236173D01*
X0303306Y0235636D01*
X0304158Y0234982D01*
X0304917Y0234223D01*
X0305571Y0233371D01*
X0306108Y0232440D01*
X0306519Y0231448D01*
X0306797Y0230411D01*
X0306937Y0229346D01*
X0306937Y0229309D01*
X0299244Y0229309D01*
X0299244Y0229098D02*
X0357499Y0229098D01*
X0357480Y0228952D02*
X0357480Y0228915D01*
X0365173Y0228915D01*
X0365173Y0227915D01*
X0366173Y0227915D01*
X0366173Y0220222D01*
X0366210Y0220222D01*
X0367275Y0220363D01*
X0368312Y0220641D01*
X0369305Y0221052D01*
X0370235Y0221589D01*
X0371087Y0222242D01*
X0371846Y0223002D01*
X0372500Y0223854D01*
X0373037Y0224784D01*
X0373448Y0225776D01*
X0373726Y0226814D01*
X0373866Y0227878D01*
X0373866Y0227915D01*
X0366173Y0227915D01*
X0366173Y0228915D01*
X0373866Y0228915D01*
X0373866Y0228952D01*
X0373726Y0230017D01*
X0373448Y0231055D01*
X0373037Y0232047D01*
X0372500Y0232977D01*
X0371846Y0233829D01*
X0371087Y0234588D01*
X0370235Y0235242D01*
X0369305Y0235779D01*
X0368312Y0236190D01*
X0367275Y0236468D01*
X0366210Y0236608D01*
X0366173Y0236608D01*
X0366173Y0228915D01*
X0365173Y0228915D01*
X0365173Y0236608D01*
X0365136Y0236608D01*
X0364071Y0236468D01*
X0363034Y0236190D01*
X0362042Y0235779D01*
X0361112Y0235242D01*
X0360260Y0234588D01*
X0359500Y0233829D01*
X0358846Y0232977D01*
X0358309Y0232047D01*
X0357898Y0231055D01*
X0357620Y0230017D01*
X0357480Y0228952D01*
X0357480Y0227915D02*
X0357480Y0227878D01*
X0357620Y0226814D01*
X0357898Y0225776D01*
X0358309Y0224784D01*
X0358846Y0223854D01*
X0359500Y0223002D01*
X0360260Y0222242D01*
X0361112Y0221589D01*
X0362042Y0221052D01*
X0363034Y0220641D01*
X0364071Y0220363D01*
X0365136Y0220222D01*
X0365173Y0220222D01*
X0365173Y0227915D01*
X0357480Y0227915D01*
X0357583Y0227101D02*
X0306768Y0227101D01*
X0306914Y0228100D02*
X0365173Y0228100D01*
X0365173Y0229098D02*
X0366173Y0229098D01*
X0366173Y0228100D02*
X0461630Y0228100D01*
X0461630Y0229098D02*
X0373847Y0229098D01*
X0373705Y0230097D02*
X0461630Y0230097D01*
X0461630Y0231095D02*
X0373431Y0231095D01*
X0373010Y0232094D02*
X0461630Y0232094D01*
X0461630Y0233092D02*
X0372412Y0233092D01*
X0371585Y0234091D02*
X0450286Y0234091D01*
X0447875Y0235089D02*
X0385830Y0235089D01*
X0386145Y0235220D02*
X0388003Y0237077D01*
X0389008Y0239504D01*
X0389008Y0242130D01*
X0388003Y0244557D01*
X0386145Y0246414D01*
X0383719Y0247419D01*
X0381092Y0247419D01*
X0378666Y0246414D01*
X0376808Y0244557D01*
X0375803Y0242130D01*
X0375803Y0239504D01*
X0376808Y0237077D01*
X0378666Y0235220D01*
X0381092Y0234215D01*
X0383719Y0234215D01*
X0386145Y0235220D01*
X0387013Y0236088D02*
X0446783Y0236088D01*
X0445784Y0237086D02*
X0388006Y0237086D01*
X0388420Y0238085D02*
X0445057Y0238085D01*
X0444643Y0239083D02*
X0388834Y0239083D01*
X0389008Y0240082D02*
X0444229Y0240082D01*
X0443913Y0241080D02*
X0389008Y0241080D01*
X0389008Y0242079D02*
X0443913Y0242079D01*
X0443913Y0243077D02*
X0388616Y0243077D01*
X0388202Y0244076D02*
X0443913Y0244076D01*
X0444221Y0245074D02*
X0387485Y0245074D01*
X0386487Y0246073D02*
X0444634Y0246073D01*
X0445048Y0247071D02*
X0384559Y0247071D01*
X0380252Y0247071D02*
X0351095Y0247071D01*
X0350254Y0247419D02*
X0352681Y0246414D01*
X0354538Y0244557D01*
X0355543Y0242130D01*
X0355543Y0239504D01*
X0354538Y0237077D01*
X0352681Y0235220D01*
X0350254Y0234215D01*
X0347628Y0234215D01*
X0345201Y0235220D01*
X0343344Y0237077D01*
X0342339Y0239504D01*
X0342339Y0242130D01*
X0343344Y0244557D01*
X0345201Y0246414D01*
X0347628Y0247419D01*
X0350254Y0247419D01*
X0353022Y0246073D02*
X0378324Y0246073D01*
X0377326Y0245074D02*
X0354021Y0245074D01*
X0354737Y0244076D02*
X0376609Y0244076D01*
X0376195Y0243077D02*
X0355151Y0243077D01*
X0355543Y0242079D02*
X0375803Y0242079D01*
X0375803Y0241080D02*
X0355543Y0241080D01*
X0355543Y0240082D02*
X0375803Y0240082D01*
X0375977Y0239083D02*
X0355369Y0239083D01*
X0354956Y0238085D02*
X0376391Y0238085D01*
X0376805Y0237086D02*
X0354542Y0237086D01*
X0353549Y0236088D02*
X0362787Y0236088D01*
X0360912Y0235089D02*
X0352366Y0235089D01*
X0358336Y0232094D02*
X0306252Y0232094D01*
X0306613Y0231095D02*
X0357915Y0231095D01*
X0357642Y0230097D02*
X0306838Y0230097D01*
X0305732Y0233092D02*
X0358935Y0233092D01*
X0359762Y0234091D02*
X0305018Y0234091D01*
X0304018Y0235089D02*
X0313002Y0235089D01*
X0314163Y0234608D02*
X0316790Y0234608D01*
X0319216Y0235613D01*
X0321074Y0237471D01*
X0322079Y0239897D01*
X0322079Y0242524D01*
X0321074Y0244951D01*
X0319216Y0246808D01*
X0316790Y0247813D01*
X0314163Y0247813D01*
X0311736Y0246808D01*
X0309879Y0244951D01*
X0308874Y0242524D01*
X0308874Y0239897D01*
X0309879Y0237471D01*
X0311736Y0235613D01*
X0314163Y0234608D01*
X0311262Y0236088D02*
X0302523Y0236088D01*
X0299244Y0236088D02*
X0298244Y0236088D01*
X0298244Y0235089D02*
X0299244Y0235089D01*
X0299244Y0234091D02*
X0298244Y0234091D01*
X0298244Y0233092D02*
X0299244Y0233092D01*
X0299244Y0232094D02*
X0298244Y0232094D01*
X0298244Y0231095D02*
X0299244Y0231095D01*
X0299244Y0228100D02*
X0298244Y0228100D01*
X0298244Y0227101D02*
X0299244Y0227101D01*
X0299244Y0226102D02*
X0298244Y0226102D01*
X0298244Y0225104D02*
X0299244Y0225104D01*
X0299244Y0224105D02*
X0298244Y0224105D01*
X0298244Y0223107D02*
X0299244Y0223107D01*
X0299244Y0222108D02*
X0298244Y0222108D01*
X0298244Y0221110D02*
X0299244Y0221110D01*
X0301566Y0221110D02*
X0361941Y0221110D01*
X0360434Y0222108D02*
X0303470Y0222108D01*
X0304629Y0223107D02*
X0359420Y0223107D01*
X0358701Y0224105D02*
X0305462Y0224105D01*
X0306065Y0225104D02*
X0358177Y0225104D01*
X0357811Y0226102D02*
X0306491Y0226102D01*
X0303162Y0217704D02*
X0300295Y0218892D01*
X0297193Y0218892D01*
X0294326Y0217704D01*
X0292132Y0215510D01*
X0290945Y0212644D01*
X0290945Y0209541D01*
X0292132Y0206675D01*
X0294326Y0204481D01*
X0297193Y0203293D01*
X0300295Y0203293D01*
X0303162Y0204481D01*
X0305356Y0206675D01*
X0306543Y0209541D01*
X0306543Y0212644D01*
X0305356Y0215510D01*
X0303162Y0217704D01*
X0303750Y0217116D02*
X0361061Y0217116D01*
X0361255Y0217311D02*
X0359061Y0215117D01*
X0357874Y0212250D01*
X0357874Y0209147D01*
X0359061Y0206281D01*
X0361255Y0204087D01*
X0364122Y0202900D01*
X0367225Y0202900D01*
X0370091Y0204087D01*
X0372285Y0206281D01*
X0373472Y0209147D01*
X0373472Y0212250D01*
X0372285Y0215117D01*
X0370091Y0217311D01*
X0367225Y0218498D01*
X0364122Y0218498D01*
X0361255Y0217311D01*
X0360062Y0216117D02*
X0304749Y0216117D01*
X0305518Y0215119D02*
X0359064Y0215119D01*
X0358649Y0214120D02*
X0305932Y0214120D01*
X0306345Y0213122D02*
X0358235Y0213122D01*
X0357874Y0212123D02*
X0306543Y0212123D01*
X0306543Y0211125D02*
X0357874Y0211125D01*
X0357874Y0210126D02*
X0306543Y0210126D01*
X0306372Y0209128D02*
X0357882Y0209128D01*
X0358296Y0208129D02*
X0305958Y0208129D01*
X0305545Y0207131D02*
X0358709Y0207131D01*
X0359210Y0206132D02*
X0304814Y0206132D01*
X0303815Y0205134D02*
X0360209Y0205134D01*
X0361207Y0204135D02*
X0302328Y0204135D01*
X0295160Y0204135D02*
X0235399Y0204135D01*
X0236233Y0204481D02*
X0238427Y0206675D01*
X0239614Y0209541D01*
X0239614Y0212644D01*
X0238427Y0215510D01*
X0236233Y0217704D01*
X0233366Y0218892D01*
X0230264Y0218892D01*
X0227397Y0217704D01*
X0225203Y0215510D01*
X0224016Y0212644D01*
X0224016Y0209541D01*
X0225203Y0206675D01*
X0227397Y0204481D01*
X0230264Y0203293D01*
X0233366Y0203293D01*
X0236233Y0204481D01*
X0236886Y0205134D02*
X0293673Y0205134D01*
X0292675Y0206132D02*
X0237884Y0206132D01*
X0238616Y0207131D02*
X0291943Y0207131D01*
X0291530Y0208129D02*
X0239029Y0208129D01*
X0239443Y0209128D02*
X0291116Y0209128D01*
X0290945Y0210126D02*
X0239614Y0210126D01*
X0239614Y0211125D02*
X0290945Y0211125D01*
X0290945Y0212123D02*
X0239614Y0212123D01*
X0239416Y0213122D02*
X0291143Y0213122D01*
X0291556Y0214120D02*
X0239003Y0214120D01*
X0238589Y0215119D02*
X0291970Y0215119D01*
X0292739Y0216117D02*
X0237820Y0216117D01*
X0236821Y0217116D02*
X0293738Y0217116D01*
X0295316Y0218114D02*
X0235243Y0218114D01*
X0234454Y0221034D02*
X0235446Y0221445D01*
X0236376Y0221982D01*
X0237229Y0222636D01*
X0237988Y0223395D01*
X0238642Y0224248D01*
X0239179Y0225178D01*
X0239590Y0226170D01*
X0239868Y0227207D01*
X0240008Y0228272D01*
X0240008Y0228309D01*
X0232315Y0228309D01*
X0232315Y0220616D01*
X0232352Y0220616D01*
X0233417Y0220756D01*
X0234454Y0221034D01*
X0234637Y0221110D02*
X0295922Y0221110D01*
X0294018Y0222108D02*
X0236541Y0222108D01*
X0237699Y0223107D02*
X0292860Y0223107D01*
X0292026Y0224105D02*
X0238533Y0224105D01*
X0239136Y0225104D02*
X0291423Y0225104D01*
X0290997Y0226102D02*
X0239562Y0226102D01*
X0239839Y0227101D02*
X0290720Y0227101D01*
X0290574Y0228100D02*
X0239985Y0228100D01*
X0239909Y0230097D02*
X0290650Y0230097D01*
X0290875Y0231095D02*
X0239684Y0231095D01*
X0239322Y0232094D02*
X0291237Y0232094D01*
X0291757Y0233092D02*
X0238803Y0233092D01*
X0238089Y0234091D02*
X0292470Y0234091D01*
X0293470Y0235089D02*
X0284486Y0235089D01*
X0283325Y0234608D02*
X0285752Y0235613D01*
X0287609Y0237471D01*
X0288614Y0239897D01*
X0288614Y0242524D01*
X0287609Y0244951D01*
X0285752Y0246808D01*
X0283325Y0247813D01*
X0280699Y0247813D01*
X0278272Y0246808D01*
X0276415Y0244951D01*
X0275409Y0242524D01*
X0275409Y0239897D01*
X0276415Y0237471D01*
X0278272Y0235613D01*
X0280699Y0234608D01*
X0283325Y0234608D01*
X0286226Y0236088D02*
X0294965Y0236088D01*
X0288277Y0239083D02*
X0309211Y0239083D01*
X0308874Y0240082D02*
X0288614Y0240082D01*
X0288614Y0241080D02*
X0308874Y0241080D01*
X0308874Y0242079D02*
X0288614Y0242079D01*
X0288385Y0243077D02*
X0309103Y0243077D01*
X0309517Y0244076D02*
X0287971Y0244076D01*
X0287485Y0245074D02*
X0310003Y0245074D01*
X0311001Y0246073D02*
X0286487Y0246073D01*
X0285116Y0247071D02*
X0312372Y0247071D01*
X0318580Y0247071D02*
X0346787Y0247071D01*
X0344860Y0246073D02*
X0319951Y0246073D01*
X0320950Y0245074D02*
X0343861Y0245074D01*
X0343144Y0244076D02*
X0321436Y0244076D01*
X0321850Y0243077D02*
X0342731Y0243077D01*
X0342339Y0242079D02*
X0322079Y0242079D01*
X0322079Y0241080D02*
X0342339Y0241080D01*
X0342339Y0240082D02*
X0322079Y0240082D01*
X0321741Y0239083D02*
X0342513Y0239083D01*
X0342926Y0238085D02*
X0321328Y0238085D01*
X0320689Y0237086D02*
X0343340Y0237086D01*
X0344333Y0236088D02*
X0319691Y0236088D01*
X0317950Y0235089D02*
X0345516Y0235089D01*
X0365173Y0235089D02*
X0366173Y0235089D01*
X0366173Y0234091D02*
X0365173Y0234091D01*
X0365173Y0233092D02*
X0366173Y0233092D01*
X0366173Y0232094D02*
X0365173Y0232094D01*
X0365173Y0231095D02*
X0366173Y0231095D01*
X0366173Y0230097D02*
X0365173Y0230097D01*
X0365173Y0227101D02*
X0366173Y0227101D01*
X0366173Y0226102D02*
X0365173Y0226102D01*
X0365173Y0225104D02*
X0366173Y0225104D01*
X0366173Y0224105D02*
X0365173Y0224105D01*
X0365173Y0223107D02*
X0366173Y0223107D01*
X0366173Y0222108D02*
X0365173Y0222108D01*
X0365173Y0221110D02*
X0366173Y0221110D01*
X0369406Y0221110D02*
X0461630Y0221110D01*
X0461630Y0222108D02*
X0370912Y0222108D01*
X0371927Y0223107D02*
X0461630Y0223107D01*
X0461630Y0224105D02*
X0372645Y0224105D01*
X0373170Y0225104D02*
X0461630Y0225104D01*
X0461630Y0226102D02*
X0373535Y0226102D01*
X0373764Y0227101D02*
X0461630Y0227101D01*
X0461630Y0220111D02*
X0090592Y0220111D01*
X0090554Y0220203D02*
X0089744Y0221013D01*
X0088687Y0221451D01*
X0087542Y0221451D01*
X0086484Y0221013D01*
X0085674Y0220203D01*
X0085236Y0219145D01*
X0085236Y0218000D01*
X0085674Y0216943D01*
X0086484Y0216133D01*
X0087542Y0215695D01*
X0088687Y0215695D01*
X0089744Y0216133D01*
X0090554Y0216943D01*
X0090992Y0218000D01*
X0090992Y0219145D01*
X0090554Y0220203D01*
X0090992Y0219113D02*
X0107625Y0219113D01*
X0105689Y0218114D02*
X0090992Y0218114D01*
X0090626Y0217116D02*
X0104739Y0217116D01*
X0104325Y0216117D02*
X0089707Y0216117D01*
X0086522Y0216117D02*
X0072291Y0216117D01*
X0072291Y0216032D02*
X0072291Y0216482D01*
X0073135Y0216482D01*
X0074193Y0216920D01*
X0075003Y0217730D01*
X0075441Y0218788D01*
X0075441Y0219933D01*
X0075003Y0220990D01*
X0074193Y0221800D01*
X0073135Y0222238D01*
X0071991Y0222238D01*
X0070933Y0221800D01*
X0070123Y0220990D01*
X0069685Y0219933D01*
X0069685Y0219482D01*
X0069142Y0219482D01*
X0069142Y0219933D01*
X0068704Y0220990D01*
X0067894Y0221800D01*
X0066836Y0222238D01*
X0065691Y0222238D01*
X0064634Y0221800D01*
X0063824Y0220990D01*
X0063386Y0219933D01*
X0063386Y0219482D01*
X0062843Y0219482D01*
X0062843Y0219933D01*
X0062404Y0220990D01*
X0061595Y0221800D01*
X0060537Y0222238D01*
X0059392Y0222238D01*
X0058334Y0221800D01*
X0057525Y0220990D01*
X0057087Y0219933D01*
X0057087Y0219482D01*
X0056242Y0219482D01*
X0055185Y0219044D01*
X0054375Y0218235D01*
X0053937Y0217177D01*
X0053937Y0216032D01*
X0054375Y0214974D01*
X0055185Y0214165D01*
X0056242Y0213726D01*
X0057387Y0213726D01*
X0058445Y0214165D01*
X0059255Y0214974D01*
X0059693Y0216032D01*
X0059693Y0216482D01*
X0060236Y0216482D01*
X0060236Y0216032D01*
X0060674Y0214974D01*
X0061484Y0214165D01*
X0062542Y0213726D01*
X0063687Y0213726D01*
X0064744Y0214165D01*
X0065554Y0214974D01*
X0065992Y0216032D01*
X0065992Y0216482D01*
X0066535Y0216482D01*
X0066535Y0216032D01*
X0066974Y0214974D01*
X0067783Y0214165D01*
X0068841Y0213726D01*
X0069986Y0213726D01*
X0071044Y0214165D01*
X0071853Y0214974D01*
X0072291Y0216032D01*
X0071913Y0215119D02*
X0104094Y0215119D01*
X0104094Y0214120D02*
X0070937Y0214120D01*
X0067890Y0214120D02*
X0064638Y0214120D01*
X0065614Y0215119D02*
X0066914Y0215119D01*
X0066535Y0216117D02*
X0065992Y0216117D01*
X0061591Y0214120D02*
X0058339Y0214120D01*
X0059315Y0215119D02*
X0060614Y0215119D01*
X0060236Y0216117D02*
X0059693Y0216117D01*
X0055291Y0214120D02*
X0003968Y0214120D01*
X0003968Y0213122D02*
X0104371Y0213122D01*
X0104802Y0212123D02*
X0089738Y0212123D01*
X0090138Y0211958D02*
X0089080Y0212396D01*
X0087935Y0212396D01*
X0086878Y0211958D01*
X0086068Y0211148D01*
X0085630Y0210090D01*
X0085630Y0208945D01*
X0086068Y0207887D01*
X0086878Y0207078D01*
X0087935Y0206640D01*
X0089080Y0206640D01*
X0090138Y0207078D01*
X0090948Y0207887D01*
X0091386Y0208945D01*
X0091386Y0210090D01*
X0090948Y0211148D01*
X0090138Y0211958D01*
X0090957Y0211125D02*
X0105800Y0211125D01*
X0107661Y0209128D02*
X0091386Y0209128D01*
X0091371Y0210126D02*
X0157087Y0210126D01*
X0157087Y0209541D02*
X0158274Y0206675D01*
X0160468Y0204481D01*
X0163334Y0203293D01*
X0166437Y0203293D01*
X0169304Y0204481D01*
X0171498Y0206675D01*
X0172685Y0209541D01*
X0172685Y0212644D01*
X0171498Y0215510D01*
X0169304Y0217704D01*
X0166437Y0218892D01*
X0163334Y0218892D01*
X0160468Y0217704D01*
X0158274Y0215510D01*
X0157087Y0212644D01*
X0157087Y0209541D01*
X0157258Y0209128D02*
X0119433Y0209128D01*
X0121390Y0208129D02*
X0157671Y0208129D01*
X0158085Y0207131D02*
X0122350Y0207131D01*
X0122763Y0206132D02*
X0158816Y0206132D01*
X0159815Y0205134D02*
X0123000Y0205134D01*
X0123000Y0204135D02*
X0161302Y0204135D01*
X0168470Y0204135D02*
X0228231Y0204135D01*
X0226744Y0205134D02*
X0169957Y0205134D01*
X0170955Y0206132D02*
X0225745Y0206132D01*
X0225014Y0207131D02*
X0171687Y0207131D01*
X0172100Y0208129D02*
X0224601Y0208129D01*
X0224187Y0209128D02*
X0172514Y0209128D01*
X0172685Y0210126D02*
X0224016Y0210126D01*
X0224016Y0211125D02*
X0172685Y0211125D01*
X0172685Y0212123D02*
X0224016Y0212123D01*
X0224214Y0213122D02*
X0172487Y0213122D01*
X0172073Y0214120D02*
X0224627Y0214120D01*
X0225041Y0215119D02*
X0171660Y0215119D01*
X0170891Y0216117D02*
X0225810Y0216117D01*
X0226809Y0217116D02*
X0169892Y0217116D01*
X0168314Y0218114D02*
X0228387Y0218114D01*
X0229176Y0221034D02*
X0230213Y0220756D01*
X0231278Y0220616D01*
X0231315Y0220616D01*
X0231315Y0228309D01*
X0223622Y0228309D01*
X0223622Y0228272D01*
X0223762Y0227207D01*
X0224040Y0226170D01*
X0224451Y0225178D01*
X0224988Y0224248D01*
X0225642Y0223395D01*
X0226401Y0222636D01*
X0227253Y0221982D01*
X0228184Y0221445D01*
X0229176Y0221034D01*
X0228993Y0221110D02*
X0167708Y0221110D01*
X0167525Y0221034D02*
X0168517Y0221445D01*
X0169447Y0221982D01*
X0170299Y0222636D01*
X0171059Y0223395D01*
X0171713Y0224248D01*
X0172250Y0225178D01*
X0172661Y0226170D01*
X0172939Y0227207D01*
X0173079Y0228272D01*
X0173079Y0228309D01*
X0165386Y0228309D01*
X0165386Y0220616D01*
X0165423Y0220616D01*
X0166488Y0220756D01*
X0167525Y0221034D01*
X0165386Y0221110D02*
X0164386Y0221110D01*
X0164386Y0220616D02*
X0164386Y0228309D01*
X0156693Y0228309D01*
X0156693Y0228272D01*
X0156833Y0227207D01*
X0157111Y0226170D01*
X0157522Y0225178D01*
X0158059Y0224248D01*
X0158713Y0223395D01*
X0159472Y0222636D01*
X0160324Y0221982D01*
X0161254Y0221445D01*
X0162247Y0221034D01*
X0163284Y0220756D01*
X0164349Y0220616D01*
X0164386Y0220616D01*
X0164386Y0222108D02*
X0165386Y0222108D01*
X0165386Y0223107D02*
X0164386Y0223107D01*
X0164386Y0224105D02*
X0165386Y0224105D01*
X0165386Y0225104D02*
X0164386Y0225104D01*
X0164386Y0226102D02*
X0165386Y0226102D01*
X0165386Y0227101D02*
X0164386Y0227101D01*
X0164386Y0228100D02*
X0165386Y0228100D01*
X0165386Y0229098D02*
X0231315Y0229098D01*
X0231315Y0228100D02*
X0232315Y0228100D01*
X0232315Y0227101D02*
X0231315Y0227101D01*
X0231315Y0226102D02*
X0232315Y0226102D01*
X0232315Y0225104D02*
X0231315Y0225104D01*
X0231315Y0224105D02*
X0232315Y0224105D01*
X0232315Y0223107D02*
X0231315Y0223107D01*
X0231315Y0222108D02*
X0232315Y0222108D01*
X0232315Y0221110D02*
X0231315Y0221110D01*
X0227089Y0222108D02*
X0169612Y0222108D01*
X0170770Y0223107D02*
X0225931Y0223107D01*
X0225097Y0224105D02*
X0171604Y0224105D01*
X0172207Y0225104D02*
X0224494Y0225104D01*
X0224068Y0226102D02*
X0172633Y0226102D01*
X0172910Y0227101D02*
X0223791Y0227101D01*
X0223645Y0228100D02*
X0173056Y0228100D01*
X0172980Y0230097D02*
X0223721Y0230097D01*
X0223946Y0231095D02*
X0172755Y0231095D01*
X0172393Y0232094D02*
X0224308Y0232094D01*
X0224827Y0233092D02*
X0171873Y0233092D01*
X0176405Y0237086D02*
X0153366Y0237086D01*
X0153751Y0237471D02*
X0154756Y0239897D01*
X0154756Y0242524D01*
X0153751Y0244951D01*
X0151893Y0246808D01*
X0149467Y0247813D01*
X0146840Y0247813D01*
X0144414Y0246808D01*
X0142556Y0244951D01*
X0141551Y0242524D01*
X0141551Y0239897D01*
X0142556Y0237471D01*
X0144414Y0235613D01*
X0146840Y0234608D01*
X0149467Y0234608D01*
X0151893Y0235613D01*
X0153751Y0237471D01*
X0154005Y0238085D02*
X0175767Y0238085D01*
X0175353Y0239083D02*
X0154419Y0239083D01*
X0154756Y0240082D02*
X0175016Y0240082D01*
X0175016Y0241080D02*
X0154756Y0241080D01*
X0154756Y0242079D02*
X0175016Y0242079D01*
X0175245Y0243077D02*
X0154527Y0243077D01*
X0154113Y0244076D02*
X0175659Y0244076D01*
X0176145Y0245074D02*
X0153627Y0245074D01*
X0152629Y0246073D02*
X0177143Y0246073D01*
X0178514Y0247071D02*
X0151258Y0247071D01*
X0145049Y0247071D02*
X0043823Y0247071D01*
X0043823Y0246073D02*
X0143678Y0246073D01*
X0142680Y0245074D02*
X0043823Y0245074D01*
X0043823Y0244076D02*
X0142194Y0244076D01*
X0141780Y0243077D02*
X0043823Y0243077D01*
X0043823Y0242079D02*
X0141551Y0242079D01*
X0141551Y0241080D02*
X0043823Y0241080D01*
X0043823Y0240082D02*
X0141551Y0240082D01*
X0141888Y0239083D02*
X0043823Y0239083D01*
X0043823Y0238085D02*
X0142302Y0238085D01*
X0142941Y0237086D02*
X0043823Y0237086D01*
X0043823Y0236088D02*
X0143939Y0236088D01*
X0145679Y0235089D02*
X0043823Y0235089D01*
X0043823Y0234091D02*
X0158612Y0234091D01*
X0157898Y0233092D02*
X0043823Y0233092D01*
X0043823Y0232094D02*
X0157378Y0232094D01*
X0157016Y0231095D02*
X0043823Y0231095D01*
X0043823Y0230097D02*
X0156792Y0230097D01*
X0156716Y0228100D02*
X0121420Y0228100D01*
X0122362Y0227101D02*
X0156862Y0227101D01*
X0157139Y0226102D02*
X0122776Y0226102D01*
X0123000Y0225104D02*
X0157565Y0225104D01*
X0158168Y0224105D02*
X0123000Y0224105D01*
X0122717Y0223107D02*
X0159001Y0223107D01*
X0160160Y0222108D02*
X0122278Y0222108D01*
X0121279Y0221110D02*
X0162064Y0221110D01*
X0161458Y0218114D02*
X0121405Y0218114D01*
X0122356Y0217116D02*
X0159879Y0217116D01*
X0158881Y0216117D02*
X0122770Y0216117D01*
X0123000Y0215119D02*
X0158112Y0215119D01*
X0157698Y0214120D02*
X0123000Y0214120D01*
X0122723Y0213122D02*
X0157285Y0213122D01*
X0157087Y0212123D02*
X0122293Y0212123D01*
X0121294Y0211125D02*
X0157087Y0211125D01*
X0122730Y0203137D02*
X0363549Y0203137D01*
X0367797Y0203137D02*
X0461630Y0203137D01*
X0461630Y0204135D02*
X0370139Y0204135D01*
X0371138Y0205134D02*
X0461630Y0205134D01*
X0461630Y0206132D02*
X0372136Y0206132D01*
X0372637Y0207131D02*
X0461630Y0207131D01*
X0461630Y0208129D02*
X0373051Y0208129D01*
X0373464Y0209128D02*
X0461630Y0209128D01*
X0461630Y0210126D02*
X0373472Y0210126D01*
X0373472Y0211125D02*
X0461630Y0211125D01*
X0461630Y0212123D02*
X0373472Y0212123D01*
X0373111Y0213122D02*
X0461630Y0213122D01*
X0461630Y0214120D02*
X0372698Y0214120D01*
X0372283Y0215119D02*
X0461630Y0215119D01*
X0461630Y0216117D02*
X0371284Y0216117D01*
X0370286Y0217116D02*
X0461630Y0217116D01*
X0461630Y0218114D02*
X0368151Y0218114D01*
X0363196Y0218114D02*
X0302172Y0218114D01*
X0279538Y0235089D02*
X0251021Y0235089D01*
X0249861Y0234608D02*
X0252287Y0235613D01*
X0254144Y0237471D01*
X0255150Y0239897D01*
X0255150Y0242524D01*
X0254144Y0244951D01*
X0252287Y0246808D01*
X0249861Y0247813D01*
X0247234Y0247813D01*
X0244807Y0246808D01*
X0242950Y0244951D01*
X0241945Y0242524D01*
X0241945Y0239897D01*
X0242950Y0237471D01*
X0244807Y0235613D01*
X0247234Y0234608D01*
X0249861Y0234608D01*
X0252761Y0236088D02*
X0277798Y0236088D01*
X0276799Y0237086D02*
X0253760Y0237086D01*
X0254399Y0238085D02*
X0276160Y0238085D01*
X0275747Y0239083D02*
X0254812Y0239083D01*
X0255150Y0240082D02*
X0275409Y0240082D01*
X0275409Y0241080D02*
X0255150Y0241080D01*
X0255150Y0242079D02*
X0275409Y0242079D01*
X0275639Y0243077D02*
X0254920Y0243077D01*
X0254507Y0244076D02*
X0276052Y0244076D01*
X0276538Y0245074D02*
X0254021Y0245074D01*
X0253022Y0246073D02*
X0277537Y0246073D01*
X0278908Y0247071D02*
X0251651Y0247071D01*
X0245443Y0247071D02*
X0218187Y0247071D01*
X0219558Y0246073D02*
X0244072Y0246073D01*
X0243074Y0245074D02*
X0220556Y0245074D01*
X0221042Y0244076D02*
X0242588Y0244076D01*
X0242174Y0243077D02*
X0221456Y0243077D01*
X0221685Y0242079D02*
X0241945Y0242079D01*
X0241945Y0241080D02*
X0221685Y0241080D01*
X0221685Y0240082D02*
X0241945Y0240082D01*
X0242282Y0239083D02*
X0221348Y0239083D01*
X0220934Y0238085D02*
X0242696Y0238085D01*
X0243335Y0237086D02*
X0220295Y0237086D01*
X0212609Y0235089D02*
X0184092Y0235089D01*
X0185832Y0236088D02*
X0210869Y0236088D01*
X0209870Y0237086D02*
X0186831Y0237086D01*
X0187470Y0238085D02*
X0209231Y0238085D01*
X0208818Y0239083D02*
X0187883Y0239083D01*
X0188220Y0240082D02*
X0208480Y0240082D01*
X0208480Y0241080D02*
X0188220Y0241080D01*
X0188220Y0242079D02*
X0208480Y0242079D01*
X0208709Y0243077D02*
X0187991Y0243077D01*
X0187578Y0244076D02*
X0209123Y0244076D01*
X0209609Y0245074D02*
X0187092Y0245074D01*
X0186093Y0246073D02*
X0210608Y0246073D01*
X0211979Y0247071D02*
X0184722Y0247071D01*
X0161107Y0236088D02*
X0152368Y0236088D01*
X0150628Y0235089D02*
X0159612Y0235089D01*
X0119469Y0219113D02*
X0461630Y0219113D01*
X0461630Y0234091D02*
X0455076Y0234091D01*
X0457487Y0235089D02*
X0461630Y0235089D01*
X0461630Y0236088D02*
X0458580Y0236088D01*
X0459578Y0237086D02*
X0461630Y0237086D01*
X0461630Y0238085D02*
X0460306Y0238085D01*
X0460719Y0239083D02*
X0461630Y0239083D01*
X0461630Y0240082D02*
X0461133Y0240082D01*
X0461449Y0241080D02*
X0461630Y0241080D01*
X0461630Y0242079D02*
X0461449Y0242079D01*
X0461449Y0243077D02*
X0461630Y0243077D01*
X0461630Y0244076D02*
X0461449Y0244076D01*
X0461630Y0245074D02*
X0461142Y0245074D01*
X0460728Y0246073D02*
X0461630Y0246073D01*
X0461630Y0247071D02*
X0460314Y0247071D01*
X0459599Y0248070D02*
X0461630Y0248070D01*
X0461630Y0249068D02*
X0458601Y0249068D01*
X0446761Y0249068D02*
X0043823Y0249068D01*
X0043823Y0248070D02*
X0445763Y0248070D01*
X0378981Y0235089D02*
X0370434Y0235089D01*
X0368560Y0236088D02*
X0377798Y0236088D01*
X0366173Y0236088D02*
X0365173Y0236088D01*
X0310264Y0237086D02*
X0287224Y0237086D01*
X0287863Y0238085D02*
X0309625Y0238085D01*
X0246073Y0235089D02*
X0237089Y0235089D01*
X0235594Y0236088D02*
X0244333Y0236088D01*
X0244113Y0197146D02*
X0122344Y0197146D01*
X0122757Y0196147D02*
X0243369Y0196147D01*
X0243110Y0195149D02*
X0123000Y0195149D01*
X0123000Y0194150D02*
X0243205Y0194150D01*
X0243717Y0193152D02*
X0122736Y0193152D01*
X0122322Y0192153D02*
X0121070Y0190900D01*
X0119433Y0190222D01*
X0117662Y0190222D01*
X0116025Y0190900D01*
X0114772Y0192153D01*
X0115771Y0191155D02*
X0111324Y0191155D01*
X0111361Y0188159D02*
X0115734Y0188159D01*
X0114757Y0187161D02*
X0112337Y0187161D01*
X0112751Y0186162D02*
X0114343Y0186162D01*
X0114094Y0185164D02*
X0113000Y0185164D01*
X0113000Y0184165D02*
X0114094Y0184165D01*
X0114353Y0183166D02*
X0112742Y0183166D01*
X0112328Y0182168D02*
X0114766Y0182168D01*
X0115756Y0181169D02*
X0111339Y0181169D01*
X0105756Y0181169D02*
X0089425Y0181169D01*
X0085858Y0181169D02*
X0079425Y0181169D01*
X0080191Y0180852D02*
X0078537Y0181537D01*
X0076747Y0181537D01*
X0075093Y0180852D01*
X0073827Y0179586D01*
X0073142Y0177933D01*
X0073142Y0176142D01*
X0073827Y0174488D01*
X0075093Y0173222D01*
X0076747Y0172537D01*
X0078537Y0172537D01*
X0080191Y0173222D01*
X0081457Y0174488D01*
X0082142Y0176142D01*
X0082142Y0177933D01*
X0081457Y0179586D01*
X0080191Y0180852D01*
X0080872Y0180171D02*
X0084411Y0180171D01*
X0083655Y0179172D02*
X0081628Y0179172D01*
X0082042Y0178174D02*
X0083242Y0178174D01*
X0083142Y0177175D02*
X0082142Y0177175D01*
X0082142Y0176177D02*
X0083142Y0176177D01*
X0083541Y0175178D02*
X0081742Y0175178D01*
X0081148Y0174180D02*
X0084135Y0174180D01*
X0085192Y0173181D02*
X0080092Y0173181D01*
X0075192Y0173181D02*
X0070092Y0173181D01*
X0071148Y0174180D02*
X0074135Y0174180D01*
X0073541Y0175178D02*
X0071742Y0175178D01*
X0072142Y0176177D02*
X0073142Y0176177D01*
X0073142Y0177175D02*
X0072142Y0177175D01*
X0072042Y0178174D02*
X0073242Y0178174D01*
X0073655Y0179172D02*
X0071628Y0179172D01*
X0070872Y0180171D02*
X0074411Y0180171D01*
X0075858Y0181169D02*
X0069425Y0181169D01*
X0070056Y0183166D02*
X0075228Y0183166D01*
X0075093Y0183222D02*
X0076747Y0182537D01*
X0078537Y0182537D01*
X0080191Y0183222D01*
X0081457Y0184488D01*
X0082142Y0186142D01*
X0082142Y0187933D01*
X0081457Y0189586D01*
X0080191Y0190852D01*
X0078537Y0191537D01*
X0076747Y0191537D01*
X0075093Y0190852D01*
X0073827Y0189586D01*
X0073142Y0187933D01*
X0073142Y0186142D01*
X0073827Y0184488D01*
X0075093Y0183222D01*
X0074150Y0184165D02*
X0071133Y0184165D01*
X0071736Y0185164D02*
X0073547Y0185164D01*
X0073142Y0186162D02*
X0072142Y0186162D01*
X0072142Y0187161D02*
X0073142Y0187161D01*
X0073236Y0188159D02*
X0072048Y0188159D01*
X0071634Y0189158D02*
X0073649Y0189158D01*
X0074396Y0190156D02*
X0070887Y0190156D01*
X0069461Y0191155D02*
X0075822Y0191155D01*
X0079461Y0191155D02*
X0085822Y0191155D01*
X0084396Y0190156D02*
X0080887Y0190156D01*
X0081634Y0189158D02*
X0083649Y0189158D01*
X0083236Y0188159D02*
X0082048Y0188159D01*
X0082142Y0187161D02*
X0083142Y0187161D01*
X0083142Y0186162D02*
X0082142Y0186162D01*
X0081736Y0185164D02*
X0083547Y0185164D01*
X0084150Y0184165D02*
X0081133Y0184165D01*
X0080056Y0183166D02*
X0085228Y0183166D01*
X0089461Y0191155D02*
X0105771Y0191155D01*
X0106025Y0190900D02*
X0104772Y0192153D01*
X0121309Y0201140D02*
X0461630Y0201140D01*
X0461630Y0202138D02*
X0122307Y0202138D01*
X0121375Y0198144D02*
X0461630Y0198144D01*
X0461630Y0197146D02*
X0247863Y0197146D01*
X0248608Y0196147D02*
X0461630Y0196147D01*
X0461630Y0195149D02*
X0248866Y0195149D01*
X0248772Y0194150D02*
X0461630Y0194150D01*
X0461630Y0193152D02*
X0248259Y0193152D01*
X0276497Y0180171D02*
X0283432Y0180171D01*
X0284069Y0180435D02*
X0282416Y0179750D01*
X0281150Y0178484D01*
X0280465Y0176830D01*
X0280465Y0175040D01*
X0281150Y0173386D01*
X0282416Y0172120D01*
X0284069Y0171435D01*
X0285860Y0171435D01*
X0287514Y0172120D01*
X0288779Y0173386D01*
X0289465Y0175040D01*
X0289465Y0176830D01*
X0288779Y0178484D01*
X0287514Y0179750D01*
X0285860Y0180435D01*
X0284069Y0180435D01*
X0286497Y0180171D02*
X0293432Y0180171D01*
X0291838Y0179172D02*
X0288091Y0179172D01*
X0288908Y0178174D02*
X0291021Y0178174D01*
X0290608Y0177175D02*
X0289322Y0177175D01*
X0289465Y0176177D02*
X0290465Y0176177D01*
X0290465Y0175178D02*
X0289465Y0175178D01*
X0289108Y0174180D02*
X0290821Y0174180D01*
X0291354Y0173181D02*
X0288575Y0173181D01*
X0287576Y0172183D02*
X0292353Y0172183D01*
X0293468Y0170186D02*
X0286461Y0170186D01*
X0285860Y0170435D02*
X0287514Y0169750D01*
X0288779Y0168484D01*
X0289465Y0166830D01*
X0289465Y0165040D01*
X0288779Y0163386D01*
X0287514Y0162120D01*
X0285860Y0161435D01*
X0284069Y0161435D01*
X0282416Y0162120D01*
X0281150Y0163386D01*
X0280465Y0165040D01*
X0280465Y0166830D01*
X0281150Y0168484D01*
X0282416Y0169750D01*
X0284069Y0170435D01*
X0285860Y0170435D01*
X0283468Y0170186D02*
X0276461Y0170186D01*
X0278076Y0169187D02*
X0281853Y0169187D01*
X0281027Y0168189D02*
X0278902Y0168189D01*
X0279315Y0167190D02*
X0280614Y0167190D01*
X0280465Y0166192D02*
X0279465Y0166192D01*
X0279465Y0165193D02*
X0280465Y0165193D01*
X0280815Y0164195D02*
X0279114Y0164195D01*
X0278590Y0163196D02*
X0281339Y0163196D01*
X0282338Y0162198D02*
X0277591Y0162198D01*
X0287591Y0162198D02*
X0292338Y0162198D01*
X0291339Y0163196D02*
X0288590Y0163196D01*
X0289114Y0164195D02*
X0290815Y0164195D01*
X0290465Y0165193D02*
X0289465Y0165193D01*
X0289465Y0166192D02*
X0290465Y0166192D01*
X0290614Y0167190D02*
X0289315Y0167190D01*
X0288902Y0168189D02*
X0291027Y0168189D01*
X0291853Y0169187D02*
X0288076Y0169187D01*
X0282353Y0172183D02*
X0277576Y0172183D01*
X0278575Y0173181D02*
X0281354Y0173181D01*
X0280821Y0174180D02*
X0279108Y0174180D01*
X0279465Y0175178D02*
X0280465Y0175178D01*
X0280465Y0176177D02*
X0279465Y0176177D01*
X0279322Y0177175D02*
X0280608Y0177175D01*
X0281021Y0178174D02*
X0278908Y0178174D01*
X0278091Y0179172D02*
X0281838Y0179172D01*
X0298076Y0169187D02*
X0340123Y0169187D01*
X0339347Y0168189D02*
X0298902Y0168189D01*
X0299315Y0167190D02*
X0338976Y0167190D01*
X0338976Y0166192D02*
X0299465Y0166192D01*
X0299465Y0165193D02*
X0339275Y0165193D01*
X0339949Y0164195D02*
X0299114Y0164195D01*
X0344439Y0191155D02*
X0121324Y0191155D01*
X0104094Y0205134D02*
X0003968Y0205134D01*
X0003968Y0206132D02*
X0104331Y0206132D01*
X0104745Y0207131D02*
X0090191Y0207131D01*
X0091048Y0208129D02*
X0105704Y0208129D01*
X0087278Y0212123D02*
X0003968Y0212123D01*
X0003968Y0211125D02*
X0086058Y0211125D01*
X0085645Y0210126D02*
X0003968Y0210126D01*
X0003968Y0209128D02*
X0085630Y0209128D01*
X0085968Y0208129D02*
X0003968Y0208129D01*
X0003968Y0207131D02*
X0086825Y0207131D01*
X0085603Y0217116D02*
X0074389Y0217116D01*
X0075162Y0218114D02*
X0085236Y0218114D01*
X0085236Y0219113D02*
X0075441Y0219113D01*
X0075367Y0220111D02*
X0085636Y0220111D01*
X0086719Y0221110D02*
X0074883Y0221110D01*
X0073449Y0222108D02*
X0104908Y0222108D01*
X0104375Y0223107D02*
X0053383Y0223107D01*
X0053394Y0223082D02*
X0052956Y0224140D01*
X0052146Y0224950D01*
X0051088Y0225388D01*
X0049943Y0225388D01*
X0048886Y0224950D01*
X0048076Y0224140D01*
X0047638Y0223082D01*
X0047638Y0221937D01*
X0048076Y0220880D01*
X0048886Y0220070D01*
X0049943Y0219632D01*
X0051088Y0219632D01*
X0052146Y0220070D01*
X0052956Y0220880D01*
X0053394Y0221937D01*
X0053394Y0223082D01*
X0053394Y0222108D02*
X0059079Y0222108D01*
X0057644Y0221110D02*
X0053051Y0221110D01*
X0052187Y0220111D02*
X0057161Y0220111D01*
X0055351Y0219113D02*
X0003968Y0219113D01*
X0003968Y0218114D02*
X0054325Y0218114D01*
X0053937Y0217116D02*
X0003968Y0217116D01*
X0003968Y0216117D02*
X0053937Y0216117D01*
X0054315Y0215119D02*
X0003968Y0215119D01*
X0043823Y0220111D02*
X0048844Y0220111D01*
X0047981Y0221110D02*
X0043823Y0221110D01*
X0043823Y0222108D02*
X0047638Y0222108D01*
X0047648Y0223107D02*
X0043823Y0223107D01*
X0043823Y0224105D02*
X0048062Y0224105D01*
X0049258Y0225104D02*
X0043823Y0225104D01*
X0043823Y0226102D02*
X0104329Y0226102D01*
X0104806Y0227101D02*
X0043823Y0227101D01*
X0043823Y0228100D02*
X0105685Y0228100D01*
X0108008Y0229098D02*
X0043823Y0229098D01*
X0051773Y0225104D02*
X0108063Y0225104D01*
X0108063Y0226102D02*
X0109031Y0226102D01*
X0109031Y0227101D02*
X0108063Y0227101D01*
X0104129Y0224105D02*
X0052970Y0224105D01*
X0060850Y0222108D02*
X0065378Y0222108D01*
X0063943Y0221110D02*
X0062285Y0221110D01*
X0062768Y0220111D02*
X0063460Y0220111D01*
X0067149Y0222108D02*
X0071677Y0222108D01*
X0070243Y0221110D02*
X0068584Y0221110D01*
X0069068Y0220111D02*
X0069759Y0220111D01*
X0089510Y0221110D02*
X0105879Y0221110D01*
X0111216Y0221110D02*
X0115815Y0221110D01*
X0114817Y0222108D02*
X0112186Y0222108D01*
X0112720Y0223107D02*
X0114377Y0223107D01*
X0114094Y0224105D02*
X0112965Y0224105D01*
X0141097Y0167190D02*
X0144817Y0167190D01*
X0144008Y0166192D02*
X0141906Y0166192D01*
X0142319Y0165193D02*
X0143594Y0165193D01*
X0143457Y0164195D02*
X0142457Y0164195D01*
X0142457Y0163196D02*
X0143457Y0163196D01*
X0143819Y0162198D02*
X0142095Y0162198D01*
X0141553Y0161199D02*
X0144360Y0161199D01*
X0145359Y0160201D02*
X0140555Y0160201D01*
X0128637Y0155208D02*
X0104217Y0155208D01*
X0103459Y0154210D02*
X0127161Y0154210D01*
X0126842Y0151214D02*
X0089349Y0151214D01*
X0090827Y0150216D02*
X0127598Y0150216D01*
X0136611Y0148219D02*
X0091990Y0148219D01*
X0091582Y0149217D02*
X0137146Y0149217D01*
X0150555Y0160201D02*
X0155359Y0160201D01*
X0154360Y0161199D02*
X0151553Y0161199D01*
X0152095Y0162198D02*
X0153819Y0162198D01*
X0153457Y0163196D02*
X0152457Y0163196D01*
X0152457Y0164195D02*
X0153457Y0164195D01*
X0153594Y0165193D02*
X0152319Y0165193D01*
X0151906Y0166192D02*
X0154008Y0166192D01*
X0154817Y0167190D02*
X0151097Y0167190D01*
X0161097Y0167190D02*
X0203480Y0167190D01*
X0202721Y0166192D02*
X0161906Y0166192D01*
X0162319Y0165193D02*
X0202362Y0165193D01*
X0202362Y0164195D02*
X0162457Y0164195D01*
X0162457Y0163196D02*
X0202673Y0163196D01*
X0203364Y0162198D02*
X0162095Y0162198D01*
X0206365Y0138233D02*
X0092248Y0138233D01*
X0092248Y0137235D02*
X0207037Y0137235D01*
X0206333Y0136236D02*
X0092248Y0136236D01*
X0092248Y0135238D02*
X0206102Y0135238D01*
X0206225Y0134239D02*
X0092248Y0134239D01*
X0092248Y0133241D02*
X0206778Y0133241D01*
X0203889Y0129247D02*
X0199620Y0129247D01*
X0200489Y0128248D02*
X0202381Y0128248D01*
X0201867Y0127250D02*
X0200835Y0127250D01*
X0200828Y0126251D02*
X0201772Y0126251D01*
X0202029Y0125253D02*
X0200414Y0125253D01*
X0199233Y0124254D02*
X0202772Y0124254D01*
X0178982Y0116266D02*
X0099138Y0116266D01*
X0099138Y0115268D02*
X0178107Y0115268D01*
X0177756Y0114269D02*
X0099138Y0114269D01*
X0099138Y0113271D02*
X0177758Y0113271D01*
X0178172Y0112272D02*
X0099138Y0112272D01*
X0099138Y0111274D02*
X0099926Y0111274D01*
X0103862Y0111274D02*
X0150478Y0111274D01*
X0150810Y0111411D02*
X0149535Y0110883D01*
X0148560Y0109908D01*
X0148031Y0108633D01*
X0148031Y0107253D01*
X0148560Y0105978D01*
X0149535Y0105002D01*
X0150810Y0104474D01*
X0152190Y0104474D01*
X0153465Y0105002D01*
X0154440Y0105978D01*
X0154968Y0107253D01*
X0154968Y0108633D01*
X0154440Y0109908D01*
X0153465Y0110883D01*
X0152190Y0111411D01*
X0150810Y0111411D01*
X0152522Y0111274D02*
X0179329Y0111274D01*
X0154968Y0108278D02*
X0283465Y0108278D01*
X0283465Y0107280D02*
X0154968Y0107280D01*
X0154566Y0106281D02*
X0283867Y0106281D01*
X0284688Y0105283D02*
X0153745Y0105283D01*
X0149255Y0105283D02*
X0134090Y0105283D01*
X0133968Y0105577D02*
X0134496Y0104302D01*
X0134496Y0102922D01*
X0133968Y0101647D01*
X0132992Y0100672D01*
X0131717Y0100144D01*
X0130338Y0100144D01*
X0129063Y0100672D01*
X0128087Y0101647D01*
X0127559Y0102922D01*
X0127559Y0104302D01*
X0128087Y0105577D01*
X0129063Y0106553D01*
X0130338Y0107081D01*
X0131717Y0107081D01*
X0132992Y0106553D01*
X0133968Y0105577D01*
X0133264Y0106281D02*
X0148434Y0106281D01*
X0148031Y0107280D02*
X0105210Y0107280D01*
X0105362Y0108278D02*
X0148031Y0108278D01*
X0148298Y0109277D02*
X0105259Y0109277D01*
X0104845Y0110275D02*
X0148927Y0110275D01*
X0154073Y0110275D02*
X0284360Y0110275D01*
X0283731Y0109277D02*
X0154702Y0109277D01*
X0140864Y0117265D02*
X0099138Y0117265D01*
X0099138Y0118263D02*
X0140178Y0118263D01*
X0139961Y0119262D02*
X0099138Y0119262D01*
X0099138Y0120260D02*
X0140096Y0120260D01*
X0138017Y0123256D02*
X0099138Y0123256D01*
X0099138Y0124254D02*
X0137059Y0124254D01*
X0136534Y0125253D02*
X0099138Y0125253D01*
X0092248Y0126251D02*
X0136291Y0126251D01*
X0128791Y0106281D02*
X0104743Y0106281D01*
X0105119Y0105283D02*
X0127965Y0105283D01*
X0127559Y0104284D02*
X0105362Y0104284D01*
X0105350Y0103286D02*
X0127559Y0103286D01*
X0127822Y0102287D02*
X0104936Y0102287D01*
X0104980Y0101289D02*
X0128446Y0101289D01*
X0129984Y0100290D02*
X0105362Y0100290D01*
X0105362Y0099292D02*
X0461630Y0099292D01*
X0461630Y0100290D02*
X0132071Y0100290D01*
X0133609Y0101289D02*
X0461630Y0101289D01*
X0461630Y0102287D02*
X0134233Y0102287D01*
X0134496Y0103286D02*
X0461630Y0103286D01*
X0461630Y0104284D02*
X0134496Y0104284D01*
X0108193Y0096296D02*
X0461630Y0096296D01*
X0461630Y0095298D02*
X0364884Y0095298D01*
X0365276Y0095135D02*
X0364001Y0095663D01*
X0362621Y0095663D01*
X0361346Y0095135D01*
X0360371Y0094160D01*
X0359843Y0092885D01*
X0359843Y0091505D01*
X0360371Y0090230D01*
X0361346Y0089254D01*
X0362621Y0088726D01*
X0364001Y0088726D01*
X0365276Y0089254D01*
X0366251Y0090230D01*
X0366780Y0091505D01*
X0366780Y0092885D01*
X0366251Y0094160D01*
X0365276Y0095135D01*
X0366112Y0094299D02*
X0461630Y0094299D01*
X0461630Y0093300D02*
X0366607Y0093300D01*
X0366780Y0092302D02*
X0461630Y0092302D01*
X0461630Y0091303D02*
X0366696Y0091303D01*
X0366282Y0090305D02*
X0393179Y0090305D01*
X0393177Y0090304D02*
X0392367Y0089494D01*
X0391929Y0088437D01*
X0391929Y0087292D01*
X0392367Y0086234D01*
X0393177Y0085424D01*
X0394235Y0084986D01*
X0395380Y0084986D01*
X0396437Y0085424D01*
X0397247Y0086234D01*
X0397685Y0087292D01*
X0397685Y0088437D01*
X0397247Y0089494D01*
X0396437Y0090304D01*
X0395380Y0090742D01*
X0394235Y0090742D01*
X0393177Y0090304D01*
X0392289Y0089306D02*
X0365328Y0089306D01*
X0361294Y0089306D02*
X0350801Y0089306D01*
X0350835Y0089224D02*
X0350396Y0090282D01*
X0349587Y0091091D01*
X0348529Y0091530D01*
X0347384Y0091530D01*
X0346326Y0091091D01*
X0345517Y0090282D01*
X0345079Y0089224D01*
X0345079Y0088079D01*
X0345517Y0087021D01*
X0346326Y0086212D01*
X0347384Y0085774D01*
X0348529Y0085774D01*
X0349587Y0086212D01*
X0350396Y0087021D01*
X0350835Y0088079D01*
X0350835Y0089224D01*
X0350835Y0088308D02*
X0391929Y0088308D01*
X0391929Y0087309D02*
X0350516Y0087309D01*
X0349686Y0086311D02*
X0392335Y0086311D01*
X0393447Y0085312D02*
X0108193Y0085312D01*
X0108193Y0084314D02*
X0332506Y0084314D01*
X0332817Y0084443D02*
X0331760Y0084005D01*
X0330950Y0083195D01*
X0330512Y0082137D01*
X0330512Y0080992D01*
X0330950Y0079935D01*
X0331760Y0079125D01*
X0332817Y0078687D01*
X0333962Y0078687D01*
X0335020Y0079125D01*
X0335830Y0079935D01*
X0336268Y0080992D01*
X0336268Y0082137D01*
X0335830Y0083195D01*
X0335020Y0084005D01*
X0333962Y0084443D01*
X0332817Y0084443D01*
X0334274Y0084314D02*
X0461630Y0084314D01*
X0461630Y0085312D02*
X0396167Y0085312D01*
X0397279Y0086311D02*
X0461630Y0086311D01*
X0461630Y0087309D02*
X0397685Y0087309D01*
X0397685Y0088308D02*
X0461630Y0088308D01*
X0461630Y0089306D02*
X0397325Y0089306D01*
X0396435Y0090305D02*
X0461630Y0090305D01*
X0461630Y0083315D02*
X0335709Y0083315D01*
X0336193Y0082317D02*
X0461630Y0082317D01*
X0461630Y0081318D02*
X0336268Y0081318D01*
X0335989Y0080320D02*
X0461630Y0080320D01*
X0461630Y0079321D02*
X0335216Y0079321D01*
X0331563Y0079321D02*
X0315823Y0079321D01*
X0315751Y0079147D02*
X0316189Y0080205D01*
X0316189Y0081350D01*
X0315751Y0082408D01*
X0314941Y0083217D01*
X0313883Y0083655D01*
X0312739Y0083655D01*
X0311681Y0083217D01*
X0310871Y0082408D01*
X0310433Y0081350D01*
X0310433Y0080205D01*
X0310871Y0079147D01*
X0311681Y0078338D01*
X0312739Y0077900D01*
X0313883Y0077900D01*
X0314941Y0078338D01*
X0315751Y0079147D01*
X0314905Y0078323D02*
X0461630Y0078323D01*
X0461630Y0077324D02*
X0108193Y0077324D01*
X0108193Y0076326D02*
X0461630Y0076326D01*
X0461630Y0075327D02*
X0108193Y0075327D01*
X0108193Y0074329D02*
X0461630Y0074329D01*
X0461630Y0073330D02*
X0108193Y0073330D01*
X0108193Y0072332D02*
X0461630Y0072332D01*
X0461630Y0071333D02*
X0108193Y0071333D01*
X0108193Y0070335D02*
X0461630Y0070335D01*
X0461630Y0069336D02*
X0108193Y0069336D01*
X0108193Y0068338D02*
X0461630Y0068338D01*
X0461630Y0067339D02*
X0104881Y0067339D01*
X0105880Y0066341D02*
X0461630Y0066341D01*
X0461630Y0065342D02*
X0106316Y0065342D01*
X0106642Y0064344D02*
X0461630Y0064344D01*
X0461630Y0063345D02*
X0106642Y0063345D01*
X0106509Y0062347D02*
X0461630Y0062347D01*
X0461630Y0061348D02*
X0106095Y0061348D01*
X0105346Y0060350D02*
X0461630Y0060350D01*
X0461630Y0059351D02*
X0104014Y0059351D01*
X0102857Y0058353D02*
X0461630Y0058353D01*
X0461630Y0057354D02*
X0104867Y0057354D01*
X0104583Y0057637D02*
X0102838Y0058360D01*
X0100949Y0058360D01*
X0099204Y0057637D01*
X0097869Y0056302D01*
X0097146Y0054557D01*
X0097146Y0052668D01*
X0097869Y0050923D01*
X0099204Y0049587D01*
X0100949Y0048864D01*
X0102838Y0048864D01*
X0104583Y0049587D01*
X0105919Y0050923D01*
X0106642Y0052668D01*
X0106642Y0054557D01*
X0105919Y0056302D01*
X0104583Y0057637D01*
X0105865Y0056356D02*
X0461630Y0056356D01*
X0461630Y0055357D02*
X0106310Y0055357D01*
X0106642Y0054359D02*
X0461630Y0054359D01*
X0461630Y0053360D02*
X0106642Y0053360D01*
X0106515Y0052362D02*
X0461630Y0052362D01*
X0461630Y0051363D02*
X0106101Y0051363D01*
X0105361Y0050364D02*
X0461630Y0050364D01*
X0461630Y0049366D02*
X0388896Y0049366D01*
X0388330Y0049600D02*
X0386324Y0049600D01*
X0384470Y0048833D01*
X0383051Y0047414D01*
X0382283Y0045560D01*
X0382283Y0043554D01*
X0383051Y0041700D01*
X0384470Y0040282D01*
X0386324Y0039514D01*
X0388330Y0039514D01*
X0390184Y0040282D01*
X0391602Y0041700D01*
X0392370Y0043554D01*
X0392370Y0045560D01*
X0391602Y0047414D01*
X0390184Y0048833D01*
X0388330Y0049600D01*
X0385758Y0049366D02*
X0310156Y0049366D01*
X0309590Y0049600D02*
X0307583Y0049600D01*
X0305730Y0048833D01*
X0304311Y0047414D01*
X0303543Y0045560D01*
X0303543Y0043554D01*
X0304311Y0041700D01*
X0305730Y0040282D01*
X0307583Y0039514D01*
X0309590Y0039514D01*
X0311443Y0040282D01*
X0312862Y0041700D01*
X0313630Y0043554D01*
X0313630Y0045560D01*
X0312862Y0047414D01*
X0311443Y0048833D01*
X0309590Y0049600D01*
X0307018Y0049366D02*
X0223542Y0049366D01*
X0222976Y0049600D02*
X0224829Y0048833D01*
X0226248Y0047414D01*
X0227016Y0045560D01*
X0227016Y0043554D01*
X0226248Y0041700D01*
X0224829Y0040282D01*
X0222976Y0039514D01*
X0220969Y0039514D01*
X0219116Y0040282D01*
X0217697Y0041700D01*
X0216929Y0043554D01*
X0216929Y0045560D01*
X0217697Y0047414D01*
X0219116Y0048833D01*
X0220969Y0049600D01*
X0222976Y0049600D01*
X0220403Y0049366D02*
X0144801Y0049366D01*
X0144235Y0049600D02*
X0142229Y0049600D01*
X0140375Y0048833D01*
X0138957Y0047414D01*
X0138189Y0045560D01*
X0138189Y0043554D01*
X0138957Y0041700D01*
X0140375Y0040282D01*
X0142229Y0039514D01*
X0144235Y0039514D01*
X0146089Y0040282D01*
X0147508Y0041700D01*
X0148276Y0043554D01*
X0148276Y0045560D01*
X0147508Y0047414D01*
X0146089Y0048833D01*
X0144235Y0049600D01*
X0141663Y0049366D02*
X0104050Y0049366D01*
X0099738Y0049366D02*
X0095594Y0049366D01*
X0095594Y0050364D02*
X0098427Y0050364D01*
X0097686Y0051363D02*
X0095594Y0051363D01*
X0095594Y0052362D02*
X0097273Y0052362D01*
X0097146Y0053360D02*
X0095594Y0053360D01*
X0095594Y0054359D02*
X0097146Y0054359D01*
X0097477Y0055357D02*
X0095594Y0055357D01*
X0095594Y0056356D02*
X0097922Y0056356D01*
X0098921Y0057354D02*
X0095594Y0057354D01*
X0095594Y0058353D02*
X0100931Y0058353D01*
X0099774Y0059351D02*
X0095594Y0059351D01*
X0095594Y0060350D02*
X0098442Y0060350D01*
X0097692Y0061348D02*
X0095594Y0061348D01*
X0095594Y0062347D02*
X0097279Y0062347D01*
X0097146Y0063345D02*
X0095594Y0063345D01*
X0095594Y0064344D02*
X0097146Y0064344D01*
X0097471Y0065342D02*
X0095594Y0065342D01*
X0095594Y0066341D02*
X0097907Y0066341D01*
X0098906Y0067339D02*
X0095594Y0067339D01*
X0108193Y0078323D02*
X0311717Y0078323D01*
X0310799Y0079321D02*
X0108193Y0079321D01*
X0108193Y0080320D02*
X0310433Y0080320D01*
X0310433Y0081318D02*
X0108193Y0081318D01*
X0108193Y0082317D02*
X0310834Y0082317D01*
X0311917Y0083315D02*
X0108193Y0083315D01*
X0108193Y0086311D02*
X0173983Y0086311D01*
X0173666Y0086628D02*
X0174476Y0085818D01*
X0175534Y0085380D01*
X0176679Y0085380D01*
X0177737Y0085818D01*
X0178546Y0086628D01*
X0178984Y0087685D01*
X0178984Y0088830D01*
X0178546Y0089888D01*
X0177737Y0090698D01*
X0176679Y0091136D01*
X0175534Y0091136D01*
X0174721Y0090799D01*
X0174609Y0091069D01*
X0173800Y0091879D01*
X0172742Y0092317D01*
X0171597Y0092317D01*
X0170539Y0091879D01*
X0169729Y0091069D01*
X0169291Y0090011D01*
X0169291Y0088867D01*
X0169729Y0087809D01*
X0170539Y0086999D01*
X0171597Y0086561D01*
X0172742Y0086561D01*
X0173555Y0086898D01*
X0173666Y0086628D01*
X0170229Y0087309D02*
X0108193Y0087309D01*
X0108193Y0088308D02*
X0169523Y0088308D01*
X0169291Y0089306D02*
X0108193Y0089306D01*
X0108193Y0090305D02*
X0169413Y0090305D01*
X0169964Y0091303D02*
X0108193Y0091303D01*
X0108193Y0092302D02*
X0171561Y0092302D01*
X0172778Y0092302D02*
X0224803Y0092302D01*
X0224803Y0092885D02*
X0224803Y0091505D01*
X0225331Y0090230D01*
X0226307Y0089254D01*
X0226686Y0089098D01*
X0226575Y0088830D01*
X0226575Y0087685D01*
X0227013Y0086628D01*
X0227823Y0085818D01*
X0228880Y0085380D01*
X0230025Y0085380D01*
X0231083Y0085818D01*
X0231893Y0086628D01*
X0232331Y0087685D01*
X0232331Y0088830D01*
X0231893Y0089888D01*
X0231311Y0090469D01*
X0231740Y0091505D01*
X0231740Y0092885D01*
X0231212Y0094160D01*
X0230236Y0095135D01*
X0228962Y0095663D01*
X0227582Y0095663D01*
X0226307Y0095135D01*
X0225331Y0094160D01*
X0224803Y0092885D01*
X0224975Y0093300D02*
X0108193Y0093300D01*
X0108193Y0094299D02*
X0225471Y0094299D01*
X0226698Y0095298D02*
X0108193Y0095298D01*
X0104418Y0097295D02*
X0461630Y0097295D01*
X0461630Y0098293D02*
X0105075Y0098293D01*
X0174375Y0091303D02*
X0224887Y0091303D01*
X0225300Y0090305D02*
X0178129Y0090305D01*
X0178787Y0089306D02*
X0226255Y0089306D01*
X0226575Y0088308D02*
X0178984Y0088308D01*
X0178828Y0087309D02*
X0226731Y0087309D01*
X0227330Y0086311D02*
X0178229Y0086311D01*
X0229845Y0095298D02*
X0361738Y0095298D01*
X0360510Y0094299D02*
X0231073Y0094299D01*
X0231568Y0093300D02*
X0360015Y0093300D01*
X0359843Y0092302D02*
X0231740Y0092302D01*
X0231657Y0091303D02*
X0346838Y0091303D01*
X0345540Y0090305D02*
X0231476Y0090305D01*
X0232133Y0089306D02*
X0345113Y0089306D01*
X0345079Y0088308D02*
X0232331Y0088308D01*
X0232175Y0087309D02*
X0345398Y0087309D01*
X0346227Y0086311D02*
X0231576Y0086311D01*
X0279228Y0114269D02*
X0353702Y0114269D01*
X0352876Y0115268D02*
X0352265Y0115268D01*
X0348373Y0115268D02*
X0279613Y0115268D01*
X0279613Y0116266D02*
X0347670Y0116266D01*
X0347441Y0117265D02*
X0279399Y0117265D01*
X0278939Y0118263D02*
X0347565Y0118263D01*
X0348119Y0119262D02*
X0284212Y0119262D01*
X0280206Y0119262D02*
X0277941Y0119262D01*
X0279406Y0127250D02*
X0319977Y0127250D01*
X0320491Y0128248D02*
X0278954Y0128248D01*
X0289506Y0110275D02*
X0461630Y0110275D01*
X0461630Y0109277D02*
X0290135Y0109277D01*
X0290402Y0108278D02*
X0461630Y0108278D01*
X0461630Y0107280D02*
X0290402Y0107280D01*
X0289999Y0106281D02*
X0461630Y0106281D01*
X0461630Y0105283D02*
X0289178Y0105283D01*
X0314705Y0083315D02*
X0331070Y0083315D01*
X0330586Y0082317D02*
X0315788Y0082317D01*
X0316189Y0081318D02*
X0330512Y0081318D01*
X0330790Y0080320D02*
X0316189Y0080320D01*
X0349075Y0091303D02*
X0359926Y0091303D01*
X0360340Y0090305D02*
X0350373Y0090305D01*
X0382404Y0120260D02*
X0407762Y0120260D01*
X0406771Y0121259D02*
X0383394Y0121259D01*
X0383808Y0122257D02*
X0406357Y0122257D01*
X0406183Y0123256D02*
X0383983Y0123256D01*
X0383973Y0124254D02*
X0406193Y0124254D01*
X0406606Y0125253D02*
X0383559Y0125253D01*
X0382801Y0126251D02*
X0407364Y0126251D01*
X0390649Y0048367D02*
X0461630Y0048367D01*
X0461630Y0047369D02*
X0391621Y0047369D01*
X0392034Y0046370D02*
X0417150Y0046370D01*
X0417820Y0046648D02*
X0415966Y0045880D01*
X0414547Y0044461D01*
X0413780Y0042608D01*
X0413780Y0040601D01*
X0414547Y0038748D01*
X0415966Y0037329D01*
X0417820Y0036561D01*
X0419826Y0036561D01*
X0421680Y0037329D01*
X0423098Y0038748D01*
X0423866Y0040601D01*
X0423866Y0042608D01*
X0423098Y0044461D01*
X0421680Y0045880D01*
X0419826Y0046648D01*
X0417820Y0046648D01*
X0415458Y0045372D02*
X0392370Y0045372D01*
X0392370Y0044373D02*
X0414511Y0044373D01*
X0414097Y0043375D02*
X0392296Y0043375D01*
X0391882Y0042376D02*
X0413780Y0042376D01*
X0413780Y0041378D02*
X0391280Y0041378D01*
X0390281Y0040379D02*
X0413871Y0040379D01*
X0414285Y0039381D02*
X0377504Y0039381D01*
X0376157Y0039939D02*
X0372512Y0039939D01*
X0369145Y0038544D01*
X0366568Y0035967D01*
X0365173Y0032600D01*
X0365173Y0028955D01*
X0366568Y0025588D01*
X0369145Y0023011D01*
X0372512Y0021616D01*
X0376157Y0021616D01*
X0379524Y0023011D01*
X0382101Y0025588D01*
X0383496Y0028955D01*
X0383496Y0032600D01*
X0382101Y0035967D01*
X0379524Y0038544D01*
X0376157Y0039939D01*
X0379686Y0038382D02*
X0414912Y0038382D01*
X0415911Y0037384D02*
X0380685Y0037384D01*
X0381683Y0036385D02*
X0424467Y0036385D01*
X0424048Y0035967D02*
X0426625Y0038544D01*
X0429993Y0039939D01*
X0433637Y0039939D01*
X0437004Y0038544D01*
X0439582Y0035967D01*
X0440976Y0032600D01*
X0440976Y0028955D01*
X0439582Y0025588D01*
X0437004Y0023011D01*
X0433637Y0021616D01*
X0429993Y0021616D01*
X0426625Y0023011D01*
X0424048Y0025588D01*
X0422654Y0028955D01*
X0422654Y0032600D01*
X0424048Y0035967D01*
X0423808Y0035387D02*
X0382342Y0035387D01*
X0382755Y0034388D02*
X0423394Y0034388D01*
X0422981Y0033390D02*
X0405193Y0033390D01*
X0405011Y0033483D02*
X0404256Y0033728D01*
X0403575Y0033836D01*
X0403575Y0029309D01*
X0408102Y0029309D01*
X0407994Y0029990D01*
X0407749Y0030745D01*
X0407388Y0031452D01*
X0406922Y0032095D01*
X0406360Y0032656D01*
X0405718Y0033122D01*
X0405011Y0033483D01*
X0403575Y0033390D02*
X0402575Y0033390D01*
X0402575Y0033836D02*
X0401894Y0033728D01*
X0401139Y0033483D01*
X0400432Y0033122D01*
X0399789Y0032656D01*
X0399228Y0032095D01*
X0398761Y0031452D01*
X0398401Y0030745D01*
X0398156Y0029990D01*
X0398048Y0029309D01*
X0402575Y0029309D01*
X0402575Y0033836D01*
X0402575Y0032391D02*
X0403575Y0032391D01*
X0403575Y0031393D02*
X0402575Y0031393D01*
X0402575Y0030394D02*
X0403575Y0030394D01*
X0403575Y0029396D02*
X0402575Y0029396D01*
X0402575Y0029309D02*
X0403575Y0029309D01*
X0403575Y0028309D01*
X0408102Y0028309D01*
X0407994Y0027628D01*
X0407749Y0026873D01*
X0407388Y0026166D01*
X0406922Y0025524D01*
X0406360Y0024962D01*
X0405718Y0024496D01*
X0405011Y0024135D01*
X0404256Y0023890D01*
X0403575Y0023782D01*
X0403575Y0028309D01*
X0402575Y0028309D01*
X0402575Y0023782D01*
X0401894Y0023890D01*
X0401139Y0024135D01*
X0400432Y0024496D01*
X0399789Y0024962D01*
X0399228Y0025524D01*
X0398761Y0026166D01*
X0398401Y0026873D01*
X0398156Y0027628D01*
X0398048Y0028309D01*
X0402575Y0028309D01*
X0402575Y0029309D01*
X0402575Y0028397D02*
X0383265Y0028397D01*
X0383496Y0029396D02*
X0398062Y0029396D01*
X0398287Y0030394D02*
X0383496Y0030394D01*
X0383496Y0031393D02*
X0398731Y0031393D01*
X0399525Y0032391D02*
X0383496Y0032391D01*
X0383169Y0033390D02*
X0400956Y0033390D01*
X0406625Y0032391D02*
X0422654Y0032391D01*
X0422654Y0031393D02*
X0407419Y0031393D01*
X0407863Y0030394D02*
X0422654Y0030394D01*
X0422654Y0029396D02*
X0408088Y0029396D01*
X0407919Y0027399D02*
X0423298Y0027399D01*
X0422885Y0028397D02*
X0403575Y0028397D01*
X0403575Y0027399D02*
X0402575Y0027399D01*
X0402575Y0026400D02*
X0403575Y0026400D01*
X0403575Y0025402D02*
X0402575Y0025402D01*
X0402575Y0024403D02*
X0403575Y0024403D01*
X0405537Y0024403D02*
X0425233Y0024403D01*
X0426232Y0023405D02*
X0379918Y0023405D01*
X0380916Y0024403D02*
X0400613Y0024403D01*
X0399350Y0025402D02*
X0381915Y0025402D01*
X0382438Y0026400D02*
X0398642Y0026400D01*
X0398230Y0027399D02*
X0382851Y0027399D01*
X0378064Y0022406D02*
X0428085Y0022406D01*
X0424235Y0025402D02*
X0406800Y0025402D01*
X0407508Y0026400D02*
X0423712Y0026400D01*
X0435545Y0022406D02*
X0445897Y0022406D01*
X0445103Y0023405D02*
X0437398Y0023405D01*
X0438397Y0024403D02*
X0444690Y0024403D01*
X0444276Y0025402D02*
X0439395Y0025402D01*
X0439918Y0026400D02*
X0443913Y0026400D01*
X0443913Y0027399D02*
X0440332Y0027399D01*
X0440745Y0028397D02*
X0443913Y0028397D01*
X0443913Y0029396D02*
X0440976Y0029396D01*
X0440976Y0030394D02*
X0444174Y0030394D01*
X0444587Y0031393D02*
X0440976Y0031393D01*
X0440976Y0032391D02*
X0445001Y0032391D01*
X0445650Y0033390D02*
X0440649Y0033390D01*
X0440236Y0034388D02*
X0446648Y0034388D01*
X0447647Y0035387D02*
X0439822Y0035387D01*
X0439163Y0036385D02*
X0449962Y0036385D01*
X0455401Y0036385D02*
X0461630Y0036385D01*
X0461630Y0035387D02*
X0457715Y0035387D01*
X0458714Y0034388D02*
X0461630Y0034388D01*
X0461630Y0033390D02*
X0459712Y0033390D01*
X0460361Y0032391D02*
X0461630Y0032391D01*
X0461630Y0031393D02*
X0460775Y0031393D01*
X0461188Y0030394D02*
X0461630Y0030394D01*
X0461630Y0029396D02*
X0461449Y0029396D01*
X0461449Y0028397D02*
X0461630Y0028397D01*
X0461630Y0027399D02*
X0461449Y0027399D01*
X0461449Y0026400D02*
X0461630Y0026400D01*
X0461630Y0025402D02*
X0461086Y0025402D01*
X0460672Y0024403D02*
X0461630Y0024403D01*
X0461630Y0023405D02*
X0460259Y0023405D01*
X0459465Y0022406D02*
X0461630Y0022406D01*
X0461630Y0021408D02*
X0458467Y0021408D01*
X0446896Y0021408D02*
X0095594Y0021408D01*
X0095594Y0022406D02*
X0126511Y0022406D01*
X0125051Y0023011D02*
X0122473Y0025588D01*
X0121079Y0028955D01*
X0121079Y0032600D01*
X0122473Y0035967D01*
X0125051Y0038544D01*
X0128418Y0039939D01*
X0132062Y0039939D01*
X0135430Y0038544D01*
X0138007Y0035967D01*
X0139402Y0032600D01*
X0139402Y0028955D01*
X0138007Y0025588D01*
X0135430Y0023011D01*
X0132062Y0021616D01*
X0128418Y0021616D01*
X0125051Y0023011D01*
X0124657Y0023405D02*
X0095594Y0023405D01*
X0095594Y0024403D02*
X0123658Y0024403D01*
X0122660Y0025402D02*
X0095594Y0025402D01*
X0095594Y0026400D02*
X0122137Y0026400D01*
X0121723Y0027399D02*
X0095594Y0027399D01*
X0095594Y0028397D02*
X0121310Y0028397D01*
X0121079Y0029396D02*
X0103823Y0029396D01*
X0104519Y0029684D02*
X0105822Y0030987D01*
X0106528Y0032690D01*
X0106528Y0034534D01*
X0105822Y0036237D01*
X0104519Y0037541D01*
X0102815Y0038246D01*
X0100972Y0038246D01*
X0099269Y0037541D01*
X0097965Y0036237D01*
X0097260Y0034534D01*
X0097260Y0032690D01*
X0097965Y0030987D01*
X0099269Y0029684D01*
X0100972Y0028978D01*
X0102815Y0028978D01*
X0104519Y0029684D01*
X0105229Y0030394D02*
X0121079Y0030394D01*
X0121079Y0031393D02*
X0105990Y0031393D01*
X0106404Y0032391D02*
X0121079Y0032391D01*
X0121406Y0033390D02*
X0106528Y0033390D01*
X0106528Y0034388D02*
X0121820Y0034388D01*
X0122233Y0035387D02*
X0106174Y0035387D01*
X0105674Y0036385D02*
X0122892Y0036385D01*
X0123890Y0037384D02*
X0104675Y0037384D01*
X0099112Y0037384D02*
X0095594Y0037384D01*
X0095594Y0038382D02*
X0124889Y0038382D01*
X0127070Y0039381D02*
X0095594Y0039381D01*
X0095594Y0040379D02*
X0140278Y0040379D01*
X0139279Y0041378D02*
X0095594Y0041378D01*
X0095594Y0042376D02*
X0138677Y0042376D01*
X0138263Y0043375D02*
X0095594Y0043375D01*
X0095594Y0044373D02*
X0138189Y0044373D01*
X0138189Y0045372D02*
X0095594Y0045372D01*
X0095594Y0046370D02*
X0138525Y0046370D01*
X0138938Y0047369D02*
X0095594Y0047369D01*
X0095594Y0048367D02*
X0139910Y0048367D01*
X0146554Y0048367D02*
X0218651Y0048367D01*
X0217678Y0047369D02*
X0147526Y0047369D01*
X0147940Y0046370D02*
X0173056Y0046370D01*
X0173725Y0046648D02*
X0171872Y0045880D01*
X0170453Y0044461D01*
X0169685Y0042608D01*
X0169685Y0040601D01*
X0170453Y0038748D01*
X0171872Y0037329D01*
X0173725Y0036561D01*
X0175732Y0036561D01*
X0177585Y0037329D01*
X0179004Y0038748D01*
X0179772Y0040601D01*
X0179772Y0042608D01*
X0179004Y0044461D01*
X0177585Y0045880D01*
X0175732Y0046648D01*
X0173725Y0046648D01*
X0171364Y0045372D02*
X0148276Y0045372D01*
X0148276Y0044373D02*
X0170417Y0044373D01*
X0170003Y0043375D02*
X0148201Y0043375D01*
X0147788Y0042376D02*
X0169685Y0042376D01*
X0169685Y0041378D02*
X0147185Y0041378D01*
X0146187Y0040379D02*
X0169777Y0040379D01*
X0170190Y0039381D02*
X0133410Y0039381D01*
X0135592Y0038382D02*
X0170818Y0038382D01*
X0171817Y0037384D02*
X0136590Y0037384D01*
X0137589Y0036385D02*
X0180372Y0036385D01*
X0179954Y0035967D02*
X0182531Y0038544D01*
X0185898Y0039939D01*
X0189543Y0039939D01*
X0192910Y0038544D01*
X0195487Y0035967D01*
X0196882Y0032600D01*
X0196882Y0028955D01*
X0195487Y0025588D01*
X0192910Y0023011D01*
X0189543Y0021616D01*
X0185898Y0021616D01*
X0182531Y0023011D01*
X0179954Y0025588D01*
X0178559Y0028955D01*
X0178559Y0032600D01*
X0179954Y0035967D01*
X0179713Y0035387D02*
X0138247Y0035387D01*
X0138661Y0034388D02*
X0179300Y0034388D01*
X0178886Y0033390D02*
X0161099Y0033390D01*
X0160916Y0033483D02*
X0160161Y0033728D01*
X0159480Y0033836D01*
X0159480Y0029309D01*
X0158480Y0029309D01*
X0158480Y0028309D01*
X0153953Y0028309D01*
X0154061Y0027628D01*
X0154306Y0026873D01*
X0154667Y0026166D01*
X0155133Y0025524D01*
X0155695Y0024962D01*
X0156337Y0024496D01*
X0157044Y0024135D01*
X0157799Y0023890D01*
X0158480Y0023782D01*
X0158480Y0028309D01*
X0159480Y0028309D01*
X0159480Y0023782D01*
X0160161Y0023890D01*
X0160916Y0024135D01*
X0161624Y0024496D01*
X0162266Y0024962D01*
X0162827Y0025524D01*
X0163294Y0026166D01*
X0163654Y0026873D01*
X0163899Y0027628D01*
X0164007Y0028309D01*
X0159480Y0028309D01*
X0159480Y0029309D01*
X0164007Y0029309D01*
X0163899Y0029990D01*
X0163654Y0030745D01*
X0163294Y0031452D01*
X0162827Y0032095D01*
X0162266Y0032656D01*
X0161624Y0033122D01*
X0160916Y0033483D01*
X0159480Y0033390D02*
X0158480Y0033390D01*
X0158480Y0033836D02*
X0157799Y0033728D01*
X0157044Y0033483D01*
X0156337Y0033122D01*
X0155695Y0032656D01*
X0155133Y0032095D01*
X0154667Y0031452D01*
X0154306Y0030745D01*
X0154061Y0029990D01*
X0153953Y0029309D01*
X0158480Y0029309D01*
X0158480Y0033836D01*
X0158480Y0032391D02*
X0159480Y0032391D01*
X0159480Y0031393D02*
X0158480Y0031393D01*
X0158480Y0030394D02*
X0159480Y0030394D01*
X0159480Y0029396D02*
X0158480Y0029396D01*
X0158480Y0028397D02*
X0139170Y0028397D01*
X0139402Y0029396D02*
X0153967Y0029396D01*
X0154193Y0030394D02*
X0139402Y0030394D01*
X0139402Y0031393D02*
X0154637Y0031393D01*
X0155430Y0032391D02*
X0139402Y0032391D01*
X0139074Y0033390D02*
X0156862Y0033390D01*
X0162530Y0032391D02*
X0178559Y0032391D01*
X0178559Y0031393D02*
X0163324Y0031393D01*
X0163768Y0030394D02*
X0178559Y0030394D01*
X0178559Y0029396D02*
X0163994Y0029396D01*
X0163825Y0027399D02*
X0179204Y0027399D01*
X0178790Y0028397D02*
X0159480Y0028397D01*
X0159480Y0027399D02*
X0158480Y0027399D01*
X0158480Y0026400D02*
X0159480Y0026400D01*
X0159480Y0025402D02*
X0158480Y0025402D01*
X0158480Y0024403D02*
X0159480Y0024403D01*
X0161442Y0024403D02*
X0181139Y0024403D01*
X0182137Y0023405D02*
X0135823Y0023405D01*
X0136822Y0024403D02*
X0156518Y0024403D01*
X0155255Y0025402D02*
X0137820Y0025402D01*
X0138343Y0026400D02*
X0154547Y0026400D01*
X0154136Y0027399D02*
X0138757Y0027399D01*
X0133970Y0022406D02*
X0183991Y0022406D01*
X0180140Y0025402D02*
X0162705Y0025402D01*
X0163413Y0026400D02*
X0179617Y0026400D01*
X0191450Y0022406D02*
X0205251Y0022406D01*
X0203791Y0023011D02*
X0201214Y0025588D01*
X0199819Y0028955D01*
X0199819Y0032600D01*
X0201214Y0035967D01*
X0203791Y0038544D01*
X0207158Y0039939D01*
X0210803Y0039939D01*
X0214170Y0038544D01*
X0216747Y0035967D01*
X0218142Y0032600D01*
X0218142Y0028955D01*
X0216747Y0025588D01*
X0214170Y0023011D01*
X0210803Y0021616D01*
X0207158Y0021616D01*
X0203791Y0023011D01*
X0203397Y0023405D02*
X0193304Y0023405D01*
X0194302Y0024403D02*
X0202398Y0024403D01*
X0201400Y0025402D02*
X0195301Y0025402D01*
X0195824Y0026400D02*
X0200877Y0026400D01*
X0200464Y0027399D02*
X0196237Y0027399D01*
X0196651Y0028397D02*
X0200050Y0028397D01*
X0199819Y0029396D02*
X0196882Y0029396D01*
X0196882Y0030394D02*
X0199819Y0030394D01*
X0199819Y0031393D02*
X0196882Y0031393D01*
X0196882Y0032391D02*
X0199819Y0032391D01*
X0200146Y0033390D02*
X0196555Y0033390D01*
X0196141Y0034388D02*
X0200560Y0034388D01*
X0200973Y0035387D02*
X0195727Y0035387D01*
X0195069Y0036385D02*
X0201632Y0036385D01*
X0202630Y0037384D02*
X0194070Y0037384D01*
X0193072Y0038382D02*
X0203629Y0038382D01*
X0205811Y0039381D02*
X0190890Y0039381D01*
X0184551Y0039381D02*
X0179266Y0039381D01*
X0179680Y0040379D02*
X0219018Y0040379D01*
X0218019Y0041378D02*
X0179772Y0041378D01*
X0179772Y0042376D02*
X0217417Y0042376D01*
X0217003Y0043375D02*
X0179454Y0043375D01*
X0179040Y0044373D02*
X0216929Y0044373D01*
X0216929Y0045372D02*
X0178093Y0045372D01*
X0176401Y0046370D02*
X0217265Y0046370D01*
X0225294Y0048367D02*
X0305265Y0048367D01*
X0304292Y0047369D02*
X0226267Y0047369D01*
X0226680Y0046370D02*
X0251796Y0046370D01*
X0252465Y0046648D02*
X0250612Y0045880D01*
X0249193Y0044461D01*
X0248425Y0042608D01*
X0248425Y0040601D01*
X0249193Y0038748D01*
X0250612Y0037329D01*
X0252465Y0036561D01*
X0254472Y0036561D01*
X0256325Y0037329D01*
X0257744Y0038748D01*
X0258512Y0040601D01*
X0258512Y0042608D01*
X0257744Y0044461D01*
X0256325Y0045880D01*
X0254472Y0046648D01*
X0252465Y0046648D01*
X0250104Y0045372D02*
X0227016Y0045372D01*
X0227016Y0044373D02*
X0249157Y0044373D01*
X0248743Y0043375D02*
X0226942Y0043375D01*
X0226528Y0042376D02*
X0248425Y0042376D01*
X0248425Y0041378D02*
X0225926Y0041378D01*
X0224927Y0040379D02*
X0248517Y0040379D01*
X0248931Y0039381D02*
X0212150Y0039381D01*
X0214332Y0038382D02*
X0249558Y0038382D01*
X0250557Y0037384D02*
X0215330Y0037384D01*
X0216329Y0036385D02*
X0259112Y0036385D01*
X0258694Y0035967D02*
X0261271Y0038544D01*
X0264638Y0039939D01*
X0268283Y0039939D01*
X0271650Y0038544D01*
X0274227Y0035967D01*
X0275622Y0032600D01*
X0275622Y0028955D01*
X0274227Y0025588D01*
X0271650Y0023011D01*
X0268283Y0021616D01*
X0264638Y0021616D01*
X0261271Y0023011D01*
X0258694Y0025588D01*
X0257299Y0028955D01*
X0257299Y0032600D01*
X0258694Y0035967D01*
X0258454Y0035387D02*
X0216987Y0035387D01*
X0217401Y0034388D02*
X0258040Y0034388D01*
X0257626Y0033390D02*
X0239839Y0033390D01*
X0239656Y0033483D02*
X0238901Y0033728D01*
X0238220Y0033836D01*
X0238220Y0029309D01*
X0237220Y0029309D01*
X0237220Y0028309D01*
X0232693Y0028309D01*
X0232801Y0027628D01*
X0233047Y0026873D01*
X0233407Y0026166D01*
X0233874Y0025524D01*
X0234435Y0024962D01*
X0235077Y0024496D01*
X0235785Y0024135D01*
X0236539Y0023890D01*
X0237220Y0023782D01*
X0237220Y0028309D01*
X0238220Y0028309D01*
X0238220Y0023782D01*
X0238901Y0023890D01*
X0239656Y0024135D01*
X0240364Y0024496D01*
X0241006Y0024962D01*
X0241567Y0025524D01*
X0242034Y0026166D01*
X0242394Y0026873D01*
X0242640Y0027628D01*
X0242747Y0028309D01*
X0238221Y0028309D01*
X0238221Y0029309D01*
X0242747Y0029309D01*
X0242640Y0029990D01*
X0242394Y0030745D01*
X0242034Y0031452D01*
X0241567Y0032095D01*
X0241006Y0032656D01*
X0240364Y0033122D01*
X0239656Y0033483D01*
X0238220Y0033390D02*
X0237220Y0033390D01*
X0237220Y0033836D02*
X0236539Y0033728D01*
X0235785Y0033483D01*
X0235077Y0033122D01*
X0234435Y0032656D01*
X0233874Y0032095D01*
X0233407Y0031452D01*
X0233047Y0030745D01*
X0232801Y0029990D01*
X0232693Y0029309D01*
X0237220Y0029309D01*
X0237220Y0033836D01*
X0237220Y0032391D02*
X0238220Y0032391D01*
X0238220Y0031393D02*
X0237220Y0031393D01*
X0237220Y0030394D02*
X0238220Y0030394D01*
X0238220Y0029396D02*
X0237220Y0029396D01*
X0237220Y0028397D02*
X0217911Y0028397D01*
X0218142Y0029396D02*
X0232707Y0029396D01*
X0232933Y0030394D02*
X0218142Y0030394D01*
X0218142Y0031393D02*
X0233377Y0031393D01*
X0234170Y0032391D02*
X0218142Y0032391D01*
X0217815Y0033390D02*
X0235602Y0033390D01*
X0241271Y0032391D02*
X0257299Y0032391D01*
X0257299Y0031393D02*
X0242064Y0031393D01*
X0242508Y0030394D02*
X0257299Y0030394D01*
X0257299Y0029396D02*
X0242734Y0029396D01*
X0242565Y0027399D02*
X0257944Y0027399D01*
X0257530Y0028397D02*
X0238221Y0028397D01*
X0238220Y0027399D02*
X0237220Y0027399D01*
X0237220Y0026400D02*
X0238220Y0026400D01*
X0238220Y0025402D02*
X0237220Y0025402D01*
X0237220Y0024403D02*
X0238220Y0024403D01*
X0240182Y0024403D02*
X0259879Y0024403D01*
X0260877Y0023405D02*
X0214564Y0023405D01*
X0215562Y0024403D02*
X0235259Y0024403D01*
X0233995Y0025402D02*
X0216561Y0025402D01*
X0217083Y0026400D02*
X0233288Y0026400D01*
X0232876Y0027399D02*
X0217497Y0027399D01*
X0212710Y0022406D02*
X0262731Y0022406D01*
X0258880Y0025402D02*
X0241445Y0025402D01*
X0242153Y0026400D02*
X0258358Y0026400D01*
X0270190Y0022406D02*
X0291865Y0022406D01*
X0290405Y0023011D02*
X0287828Y0025588D01*
X0286433Y0028955D01*
X0286433Y0032600D01*
X0287828Y0035967D01*
X0290405Y0038544D01*
X0293772Y0039939D01*
X0297417Y0039939D01*
X0300784Y0038544D01*
X0303361Y0035967D01*
X0304756Y0032600D01*
X0304756Y0028955D01*
X0303361Y0025588D01*
X0300784Y0023011D01*
X0297417Y0021616D01*
X0293772Y0021616D01*
X0290405Y0023011D01*
X0290011Y0023405D02*
X0272044Y0023405D01*
X0273042Y0024403D02*
X0289013Y0024403D01*
X0288014Y0025402D02*
X0274041Y0025402D01*
X0274564Y0026400D02*
X0287491Y0026400D01*
X0287078Y0027399D02*
X0274977Y0027399D01*
X0275391Y0028397D02*
X0286664Y0028397D01*
X0286433Y0029396D02*
X0275622Y0029396D01*
X0275622Y0030394D02*
X0286433Y0030394D01*
X0286433Y0031393D02*
X0275622Y0031393D01*
X0275622Y0032391D02*
X0286433Y0032391D01*
X0286760Y0033390D02*
X0275295Y0033390D01*
X0274881Y0034388D02*
X0287174Y0034388D01*
X0287587Y0035387D02*
X0274468Y0035387D01*
X0273809Y0036385D02*
X0288246Y0036385D01*
X0289245Y0037384D02*
X0272811Y0037384D01*
X0271812Y0038382D02*
X0290243Y0038382D01*
X0292425Y0039381D02*
X0269630Y0039381D01*
X0263291Y0039381D02*
X0258006Y0039381D01*
X0258420Y0040379D02*
X0305632Y0040379D01*
X0304633Y0041378D02*
X0258512Y0041378D01*
X0258512Y0042376D02*
X0304031Y0042376D01*
X0303617Y0043375D02*
X0258194Y0043375D01*
X0257780Y0044373D02*
X0303543Y0044373D01*
X0303543Y0045372D02*
X0256833Y0045372D01*
X0255141Y0046370D02*
X0303879Y0046370D01*
X0311909Y0048367D02*
X0384005Y0048367D01*
X0383033Y0047369D02*
X0312881Y0047369D01*
X0313294Y0046370D02*
X0338410Y0046370D01*
X0339079Y0046648D02*
X0337226Y0045880D01*
X0335807Y0044461D01*
X0335039Y0042608D01*
X0335039Y0040601D01*
X0335807Y0038748D01*
X0337226Y0037329D01*
X0339079Y0036561D01*
X0341086Y0036561D01*
X0342939Y0037329D01*
X0344358Y0038748D01*
X0345126Y0040601D01*
X0345126Y0042608D01*
X0344358Y0044461D01*
X0342939Y0045880D01*
X0341086Y0046648D01*
X0339079Y0046648D01*
X0336718Y0045372D02*
X0313630Y0045372D01*
X0313630Y0044373D02*
X0335771Y0044373D01*
X0335357Y0043375D02*
X0313556Y0043375D01*
X0313142Y0042376D02*
X0335039Y0042376D01*
X0335039Y0041378D02*
X0312540Y0041378D01*
X0311541Y0040379D02*
X0335131Y0040379D01*
X0335545Y0039381D02*
X0298764Y0039381D01*
X0300946Y0038382D02*
X0336172Y0038382D01*
X0337171Y0037384D02*
X0301944Y0037384D01*
X0302943Y0036385D02*
X0345726Y0036385D01*
X0345308Y0035967D02*
X0347885Y0038544D01*
X0351252Y0039939D01*
X0354897Y0039939D01*
X0358264Y0038544D01*
X0360841Y0035967D01*
X0362236Y0032600D01*
X0362236Y0028955D01*
X0360841Y0025588D01*
X0358264Y0023011D01*
X0354897Y0021616D01*
X0351252Y0021616D01*
X0347885Y0023011D01*
X0345308Y0025588D01*
X0343913Y0028955D01*
X0343913Y0032600D01*
X0345308Y0035967D01*
X0345068Y0035387D02*
X0303602Y0035387D01*
X0304015Y0034388D02*
X0344654Y0034388D01*
X0344241Y0033390D02*
X0326453Y0033390D01*
X0326271Y0033483D02*
X0325516Y0033728D01*
X0324835Y0033836D01*
X0324835Y0029309D01*
X0329362Y0029309D01*
X0329254Y0029990D01*
X0329008Y0030745D01*
X0328648Y0031452D01*
X0328181Y0032095D01*
X0327620Y0032656D01*
X0326978Y0033122D01*
X0326271Y0033483D01*
X0324835Y0033390D02*
X0323835Y0033390D01*
X0323835Y0033836D02*
X0323154Y0033728D01*
X0322399Y0033483D01*
X0321691Y0033122D01*
X0321049Y0032656D01*
X0320488Y0032095D01*
X0320021Y0031452D01*
X0319661Y0030745D01*
X0319416Y0029990D01*
X0319308Y0029309D01*
X0323835Y0029309D01*
X0323835Y0033836D01*
X0323835Y0032391D02*
X0324835Y0032391D01*
X0324835Y0031393D02*
X0323835Y0031393D01*
X0323835Y0030394D02*
X0324835Y0030394D01*
X0324835Y0029396D02*
X0323835Y0029396D01*
X0323835Y0029309D02*
X0324835Y0029309D01*
X0324835Y0028309D01*
X0329362Y0028309D01*
X0329254Y0027628D01*
X0329008Y0026873D01*
X0328648Y0026166D01*
X0328181Y0025524D01*
X0327620Y0024962D01*
X0326978Y0024496D01*
X0326271Y0024135D01*
X0325516Y0023890D01*
X0324835Y0023782D01*
X0324835Y0028309D01*
X0323835Y0028309D01*
X0323835Y0023782D01*
X0323154Y0023890D01*
X0322399Y0024135D01*
X0321691Y0024496D01*
X0321049Y0024962D01*
X0320488Y0025524D01*
X0320021Y0026166D01*
X0319661Y0026873D01*
X0319416Y0027628D01*
X0319308Y0028309D01*
X0323835Y0028309D01*
X0323835Y0029309D01*
X0323835Y0028397D02*
X0304525Y0028397D01*
X0304756Y0029396D02*
X0319321Y0029396D01*
X0319547Y0030394D02*
X0304756Y0030394D01*
X0304756Y0031393D02*
X0319991Y0031393D01*
X0320785Y0032391D02*
X0304756Y0032391D01*
X0304429Y0033390D02*
X0322216Y0033390D01*
X0327885Y0032391D02*
X0343913Y0032391D01*
X0343913Y0031393D02*
X0328678Y0031393D01*
X0329122Y0030394D02*
X0343913Y0030394D01*
X0343913Y0029396D02*
X0329348Y0029396D01*
X0329179Y0027399D02*
X0344558Y0027399D01*
X0344145Y0028397D02*
X0324835Y0028397D01*
X0324835Y0027399D02*
X0323835Y0027399D01*
X0323835Y0026400D02*
X0324835Y0026400D01*
X0324835Y0025402D02*
X0323835Y0025402D01*
X0323835Y0024403D02*
X0324835Y0024403D01*
X0326796Y0024403D02*
X0346493Y0024403D01*
X0347491Y0023405D02*
X0301178Y0023405D01*
X0302176Y0024403D02*
X0321873Y0024403D01*
X0320610Y0025402D02*
X0303175Y0025402D01*
X0303698Y0026400D02*
X0319902Y0026400D01*
X0319490Y0027399D02*
X0304111Y0027399D01*
X0299324Y0022406D02*
X0349345Y0022406D01*
X0345494Y0025402D02*
X0328060Y0025402D01*
X0328768Y0026400D02*
X0344972Y0026400D01*
X0356804Y0022406D02*
X0370605Y0022406D01*
X0368751Y0023405D02*
X0358658Y0023405D01*
X0359657Y0024403D02*
X0367753Y0024403D01*
X0366754Y0025402D02*
X0360655Y0025402D01*
X0361178Y0026400D02*
X0366232Y0026400D01*
X0365818Y0027399D02*
X0361591Y0027399D01*
X0362005Y0028397D02*
X0365404Y0028397D01*
X0365173Y0029396D02*
X0362236Y0029396D01*
X0362236Y0030394D02*
X0365173Y0030394D01*
X0365173Y0031393D02*
X0362236Y0031393D01*
X0362236Y0032391D02*
X0365173Y0032391D01*
X0365500Y0033390D02*
X0361909Y0033390D01*
X0361495Y0034388D02*
X0365914Y0034388D01*
X0366328Y0035387D02*
X0361082Y0035387D01*
X0360423Y0036385D02*
X0366986Y0036385D01*
X0367985Y0037384D02*
X0359425Y0037384D01*
X0358426Y0038382D02*
X0368983Y0038382D01*
X0371165Y0039381D02*
X0356244Y0039381D01*
X0349905Y0039381D02*
X0344621Y0039381D01*
X0345034Y0040379D02*
X0384372Y0040379D01*
X0383374Y0041378D02*
X0345126Y0041378D01*
X0345126Y0042376D02*
X0382771Y0042376D01*
X0382358Y0043375D02*
X0344808Y0043375D01*
X0344395Y0044373D02*
X0382283Y0044373D01*
X0382283Y0045372D02*
X0343447Y0045372D01*
X0341755Y0046370D02*
X0382619Y0046370D01*
X0347723Y0038382D02*
X0343993Y0038382D01*
X0342995Y0037384D02*
X0346725Y0037384D01*
X0420495Y0046370D02*
X0461630Y0046370D01*
X0461630Y0045372D02*
X0422188Y0045372D01*
X0423135Y0044373D02*
X0461630Y0044373D01*
X0461630Y0043375D02*
X0423548Y0043375D01*
X0423866Y0042376D02*
X0461630Y0042376D01*
X0461630Y0041378D02*
X0423866Y0041378D01*
X0423774Y0040379D02*
X0461630Y0040379D01*
X0461630Y0039381D02*
X0434985Y0039381D01*
X0437166Y0038382D02*
X0461630Y0038382D01*
X0461630Y0037384D02*
X0438165Y0037384D01*
X0428645Y0039381D02*
X0423361Y0039381D01*
X0422733Y0038382D02*
X0426464Y0038382D01*
X0425465Y0037384D02*
X0421735Y0037384D01*
X0261109Y0038382D02*
X0257379Y0038382D01*
X0256380Y0037384D02*
X0260111Y0037384D01*
X0182369Y0038382D02*
X0178639Y0038382D01*
X0177640Y0037384D02*
X0181371Y0037384D01*
X0099964Y0029396D02*
X0095594Y0029396D01*
X0095594Y0030394D02*
X0098558Y0030394D01*
X0097797Y0031393D02*
X0095594Y0031393D01*
X0095594Y0032391D02*
X0097384Y0032391D01*
X0097260Y0033390D02*
X0095594Y0033390D01*
X0095594Y0034388D02*
X0097260Y0034388D01*
X0097613Y0035387D02*
X0095594Y0035387D01*
X0095594Y0036385D02*
X0098114Y0036385D01*
X0013248Y0135238D02*
X0003968Y0135238D01*
X0003968Y0136236D02*
X0011870Y0136236D01*
X0011150Y0137235D02*
X0003968Y0137235D01*
X0003968Y0138233D02*
X0010737Y0138233D01*
X0010669Y0139232D02*
X0003968Y0139232D01*
X0003968Y0140231D02*
X0010696Y0140231D01*
X0011109Y0141229D02*
X0003968Y0141229D01*
X0003968Y0142228D02*
X0011771Y0142228D01*
X0013009Y0143226D02*
X0003968Y0143226D01*
X0003968Y0156207D02*
X0011900Y0156207D01*
X0011162Y0157205D02*
X0003968Y0157205D01*
X0003968Y0158204D02*
X0010749Y0158204D01*
X0010669Y0159202D02*
X0003968Y0159202D01*
X0003968Y0160201D02*
X0010683Y0160201D01*
X0011097Y0161199D02*
X0003968Y0161199D01*
X0003968Y0162198D02*
X0011741Y0162198D01*
X0012938Y0163196D02*
X0003968Y0163196D01*
X0003968Y0176177D02*
X0011929Y0176177D01*
X0011198Y0177175D02*
X0003968Y0177175D01*
X0003968Y0178174D02*
X0010800Y0178174D01*
X0060842Y0160201D02*
X0064441Y0160201D01*
X0063668Y0159202D02*
X0061616Y0159202D01*
X0062029Y0158204D02*
X0063254Y0158204D01*
X0063142Y0157205D02*
X0062142Y0157205D01*
X0062142Y0156207D02*
X0063142Y0156207D01*
X0063529Y0155208D02*
X0061755Y0155208D01*
X0061178Y0154210D02*
X0064105Y0154210D01*
X0065120Y0153211D02*
X0060163Y0153211D01*
X0070163Y0153211D02*
X0075120Y0153211D01*
X0074105Y0154210D02*
X0071178Y0154210D01*
X0071755Y0155208D02*
X0073529Y0155208D01*
X0073142Y0156207D02*
X0072142Y0156207D01*
X0072142Y0157205D02*
X0073142Y0157205D01*
X0073254Y0158204D02*
X0072029Y0158204D01*
X0071616Y0159202D02*
X0073668Y0159202D01*
X0074441Y0160201D02*
X0070842Y0160201D01*
X0080842Y0160201D02*
X0084441Y0160201D01*
X0083668Y0159202D02*
X0081616Y0159202D01*
X0082029Y0158204D02*
X0083254Y0158204D01*
X0083142Y0157205D02*
X0082142Y0157205D01*
X0082142Y0156207D02*
X0083142Y0156207D01*
X0083529Y0155208D02*
X0081755Y0155208D01*
X0081178Y0154210D02*
X0084105Y0154210D01*
X0085120Y0153211D02*
X0080163Y0153211D01*
X0068142Y0145223D02*
X0067142Y0145223D01*
X0067142Y0144225D02*
X0068142Y0144225D01*
X0068142Y0143226D02*
X0067142Y0143226D01*
D22*
X0062524Y0139045D02*
X0090083Y0139045D01*
X0090083Y0124085D01*
X0097169Y0124085D01*
X0097169Y0094557D01*
X0106224Y0094557D01*
X0106224Y0075305D01*
X0106195Y0075394D01*
X0105864Y0076045D01*
X0105434Y0076636D01*
X0104918Y0077153D01*
X0104326Y0077582D01*
X0103676Y0077914D01*
X0102981Y0078140D01*
X0102287Y0078249D01*
X0102287Y0074006D01*
X0101500Y0074006D01*
X0101500Y0078249D01*
X0100807Y0078140D01*
X0100112Y0077914D01*
X0099461Y0077582D01*
X0098870Y0077153D01*
X0098353Y0076636D01*
X0097924Y0076045D01*
X0097592Y0075394D01*
X0097366Y0074699D01*
X0097256Y0074006D01*
X0101500Y0074006D01*
X0101500Y0073219D01*
X0097256Y0073219D01*
X0097366Y0072525D01*
X0097592Y0071830D01*
X0097924Y0071179D01*
X0098353Y0070588D01*
X0098794Y0070148D01*
X0094020Y0070148D01*
X0094020Y0069754D01*
X0064680Y0069754D01*
X0062477Y0070667D01*
X0058633Y0070667D01*
X0056430Y0069754D01*
X0003862Y0069754D01*
X0003862Y0116604D01*
X0062524Y0116604D01*
X0062524Y0131253D01*
X0062760Y0131156D01*
X0063862Y0131156D01*
X0064881Y0131577D01*
X0065661Y0132357D01*
X0066083Y0133376D01*
X0066083Y0134478D01*
X0065661Y0135497D01*
X0064881Y0136277D01*
X0063862Y0136699D01*
X0062760Y0136699D01*
X0062524Y0136601D01*
X0062524Y0139045D01*
X0062524Y0138474D02*
X0090083Y0138474D01*
X0090083Y0137688D02*
X0062524Y0137688D01*
X0062524Y0136902D02*
X0090083Y0136902D01*
X0090083Y0136116D02*
X0065042Y0136116D01*
X0065730Y0135330D02*
X0090083Y0135330D01*
X0090083Y0134544D02*
X0066056Y0134544D01*
X0066083Y0133758D02*
X0090083Y0133758D01*
X0090083Y0132972D02*
X0065915Y0132972D01*
X0065490Y0132186D02*
X0090083Y0132186D01*
X0090083Y0131400D02*
X0064454Y0131400D01*
X0062524Y0130614D02*
X0090083Y0130614D01*
X0090083Y0129829D02*
X0062524Y0129829D01*
X0062524Y0129043D02*
X0090083Y0129043D01*
X0090083Y0128257D02*
X0062524Y0128257D01*
X0062524Y0127471D02*
X0090083Y0127471D01*
X0090083Y0126685D02*
X0062524Y0126685D01*
X0062524Y0125899D02*
X0090083Y0125899D01*
X0090083Y0125113D02*
X0062524Y0125113D01*
X0062524Y0124327D02*
X0090083Y0124327D01*
X0097169Y0123541D02*
X0062524Y0123541D01*
X0062524Y0122755D02*
X0097169Y0122755D01*
X0097169Y0121969D02*
X0062524Y0121969D01*
X0062524Y0121184D02*
X0097169Y0121184D01*
X0097169Y0120398D02*
X0062524Y0120398D01*
X0062524Y0119612D02*
X0097169Y0119612D01*
X0097169Y0118826D02*
X0062524Y0118826D01*
X0062524Y0118040D02*
X0097169Y0118040D01*
X0097169Y0117254D02*
X0062524Y0117254D01*
X0085371Y0097702D02*
X0084949Y0096683D01*
X0084949Y0095581D01*
X0085371Y0094562D01*
X0086150Y0093782D01*
X0087169Y0093360D01*
X0088272Y0093360D01*
X0089290Y0093782D01*
X0090070Y0094562D01*
X0090492Y0095581D01*
X0090492Y0096683D01*
X0090070Y0097702D01*
X0089290Y0098482D01*
X0088272Y0098904D01*
X0087169Y0098904D01*
X0086150Y0098482D01*
X0085371Y0097702D01*
X0085331Y0097606D02*
X0003862Y0097606D01*
X0003862Y0096820D02*
X0085006Y0096820D01*
X0084949Y0096034D02*
X0003862Y0096034D01*
X0003862Y0095248D02*
X0085086Y0095248D01*
X0085470Y0094462D02*
X0003862Y0094462D01*
X0003862Y0093677D02*
X0086405Y0093677D01*
X0089036Y0093677D02*
X0106224Y0093677D01*
X0106224Y0094462D02*
X0089971Y0094462D01*
X0090355Y0095248D02*
X0097169Y0095248D01*
X0097169Y0096034D02*
X0090492Y0096034D01*
X0090435Y0096820D02*
X0097169Y0096820D01*
X0097169Y0097606D02*
X0090110Y0097606D01*
X0089380Y0098392D02*
X0097169Y0098392D01*
X0097169Y0099178D02*
X0003862Y0099178D01*
X0003862Y0099964D02*
X0097169Y0099964D01*
X0097169Y0100750D02*
X0003862Y0100750D01*
X0003862Y0101536D02*
X0097169Y0101536D01*
X0097169Y0102322D02*
X0003862Y0102322D01*
X0003862Y0103108D02*
X0097169Y0103108D01*
X0097169Y0103893D02*
X0003862Y0103893D01*
X0003862Y0104679D02*
X0097169Y0104679D01*
X0097169Y0105465D02*
X0003862Y0105465D01*
X0003862Y0106251D02*
X0097169Y0106251D01*
X0097169Y0107037D02*
X0003862Y0107037D01*
X0003862Y0107823D02*
X0097169Y0107823D01*
X0097169Y0108609D02*
X0003862Y0108609D01*
X0003862Y0109395D02*
X0097169Y0109395D01*
X0097169Y0110181D02*
X0003862Y0110181D01*
X0003862Y0110967D02*
X0097169Y0110967D01*
X0097169Y0111753D02*
X0003862Y0111753D01*
X0003862Y0112538D02*
X0097169Y0112538D01*
X0097169Y0113324D02*
X0003862Y0113324D01*
X0003862Y0114110D02*
X0097169Y0114110D01*
X0097169Y0114896D02*
X0003862Y0114896D01*
X0003862Y0115682D02*
X0097169Y0115682D01*
X0097169Y0116468D02*
X0003862Y0116468D01*
X0003862Y0098392D02*
X0086061Y0098392D01*
X0070779Y0086285D02*
X0069999Y0087064D01*
X0068980Y0087486D01*
X0067878Y0087486D01*
X0066859Y0087064D01*
X0066079Y0086285D01*
X0065657Y0085266D01*
X0065657Y0084163D01*
X0066079Y0083145D01*
X0066859Y0082365D01*
X0067878Y0081943D01*
X0068980Y0081943D01*
X0069999Y0082365D01*
X0070779Y0083145D01*
X0071201Y0084163D01*
X0071201Y0085266D01*
X0070779Y0086285D01*
X0070460Y0086603D02*
X0106224Y0086603D01*
X0106224Y0085817D02*
X0070972Y0085817D01*
X0071201Y0085032D02*
X0106224Y0085032D01*
X0106224Y0084246D02*
X0071201Y0084246D01*
X0070909Y0083460D02*
X0106224Y0083460D01*
X0106224Y0082674D02*
X0070308Y0082674D01*
X0066550Y0082674D02*
X0003862Y0082674D01*
X0003862Y0083460D02*
X0065949Y0083460D01*
X0065657Y0084246D02*
X0003862Y0084246D01*
X0003862Y0085032D02*
X0065657Y0085032D01*
X0065886Y0085817D02*
X0003862Y0085817D01*
X0003862Y0086603D02*
X0066398Y0086603D01*
X0067644Y0087389D02*
X0003862Y0087389D01*
X0003862Y0088175D02*
X0106224Y0088175D01*
X0106224Y0087389D02*
X0069214Y0087389D01*
X0063847Y0070099D02*
X0094020Y0070099D01*
X0097673Y0071671D02*
X0003862Y0071671D01*
X0003862Y0070885D02*
X0098138Y0070885D01*
X0097388Y0072457D02*
X0003862Y0072457D01*
X0003862Y0073243D02*
X0101500Y0073243D01*
X0101500Y0074029D02*
X0102287Y0074029D01*
X0102287Y0074815D02*
X0101500Y0074815D01*
X0101500Y0075601D02*
X0102287Y0075601D01*
X0102287Y0076387D02*
X0101500Y0076387D01*
X0101500Y0077172D02*
X0102287Y0077172D01*
X0102287Y0077958D02*
X0101500Y0077958D01*
X0100249Y0077958D02*
X0003862Y0077958D01*
X0003862Y0077172D02*
X0098897Y0077172D01*
X0098172Y0076387D02*
X0003862Y0076387D01*
X0003862Y0075601D02*
X0097697Y0075601D01*
X0097404Y0074815D02*
X0003862Y0074815D01*
X0003862Y0074029D02*
X0097260Y0074029D01*
X0104890Y0077172D02*
X0106224Y0077172D01*
X0106224Y0076387D02*
X0105616Y0076387D01*
X0106090Y0075601D02*
X0106224Y0075601D01*
X0106224Y0077958D02*
X0103539Y0077958D01*
X0106224Y0078744D02*
X0003862Y0078744D01*
X0003862Y0079530D02*
X0106224Y0079530D01*
X0106224Y0080316D02*
X0003862Y0080316D01*
X0003862Y0081102D02*
X0106224Y0081102D01*
X0106224Y0081888D02*
X0003862Y0081888D01*
X0003862Y0088961D02*
X0106224Y0088961D01*
X0106224Y0089747D02*
X0003862Y0089747D01*
X0003862Y0090533D02*
X0106224Y0090533D01*
X0106224Y0091319D02*
X0003862Y0091319D01*
X0003862Y0092105D02*
X0106224Y0092105D01*
X0106224Y0092891D02*
X0003862Y0092891D01*
X0003862Y0070099D02*
X0057264Y0070099D01*
M02*
