G75*
%MOIN*%
%OFA0B0*%
%FSLAX25Y25*%
%IPPOS*%
%LPD*%
%AMOC8*
5,1,8,0,0,1.08239X$1,22.5*
%
%ADD10C,0.13398*%
%ADD11R,0.06600X0.01900*%
%ADD12R,0.01900X0.06600*%
%ADD13R,0.03162X0.09461*%
%ADD14R,0.06706X0.05918*%
%ADD15R,0.04737X0.05131*%
%ADD16R,0.18910X0.04737*%
%ADD17R,0.14186X0.07099*%
%ADD18R,0.03674X0.01981*%
%ADD19R,0.01981X0.03674*%
%ADD20R,0.10643X0.10643*%
%ADD21R,0.05131X0.04737*%
%ADD22R,0.03950X0.03950*%
%ADD23R,0.05918X0.06706*%
%ADD24OC8,0.06000*%
%ADD25OC8,0.06800*%
%ADD26R,0.02769X0.08674*%
%ADD27R,0.08674X0.02769*%
%ADD28R,0.06312X0.04737*%
%ADD29R,0.05524X0.06312*%
%ADD30C,0.05906*%
%ADD31C,0.06706*%
%ADD32R,0.04500X0.06000*%
%ADD33R,0.03000X0.07000*%
%ADD34C,0.06600*%
%ADD35C,0.07400*%
%ADD36C,0.04800*%
%ADD37C,0.05600*%
%ADD38R,0.08477X0.10643*%
%ADD39C,0.09068*%
%ADD40C,0.12598*%
%ADD41C,0.13386*%
%ADD42C,0.14186*%
%ADD43C,0.06000*%
%ADD44C,0.06800*%
%ADD45C,0.07087*%
%ADD46C,0.07887*%
%ADD47C,0.06496*%
%ADD48C,0.07296*%
%ADD49C,0.05131*%
%ADD50C,0.16535*%
%ADD51C,0.17335*%
%ADD52C,0.16200*%
%ADD53C,0.17000*%
%ADD54C,0.03543*%
%ADD55C,0.04343*%
%ADD56C,0.02362*%
D10*
X0011343Y0028022D03*
X0164886Y0211093D03*
X0231815Y0211093D03*
X0298744Y0211093D03*
X0365673Y0210699D03*
X0452681Y0242589D03*
X0452681Y0028022D03*
X0011343Y0242589D03*
D11*
X0181750Y0145121D03*
X0181750Y0143221D03*
X0181750Y0141221D03*
X0181750Y0139221D03*
X0181750Y0137321D03*
X0181750Y0135321D03*
X0181750Y0133321D03*
X0181750Y0131321D03*
X0181750Y0129421D03*
X0181750Y0127421D03*
X0181750Y0125421D03*
X0181750Y0123521D03*
X0214950Y0123521D03*
X0214950Y0125421D03*
X0214950Y0127421D03*
X0214950Y0129421D03*
X0214950Y0131321D03*
X0214950Y0133321D03*
X0214950Y0135321D03*
X0214950Y0137321D03*
X0214950Y0139221D03*
X0214950Y0141221D03*
X0214950Y0143221D03*
X0214950Y0145121D03*
X0317183Y0145121D03*
X0317183Y0143221D03*
X0317183Y0141221D03*
X0317183Y0139221D03*
X0317183Y0137321D03*
X0317183Y0135321D03*
X0317183Y0133321D03*
X0317183Y0131321D03*
X0317183Y0129421D03*
X0317183Y0127421D03*
X0317183Y0125421D03*
X0317183Y0123521D03*
X0350383Y0123521D03*
X0350383Y0125421D03*
X0350383Y0127421D03*
X0350383Y0129421D03*
X0350383Y0131321D03*
X0350383Y0133321D03*
X0350383Y0135321D03*
X0350383Y0137321D03*
X0350383Y0139221D03*
X0350383Y0141221D03*
X0350383Y0143221D03*
X0350383Y0145121D03*
D12*
X0344583Y0150921D03*
X0342683Y0150921D03*
X0340683Y0150921D03*
X0338683Y0150921D03*
X0336783Y0150921D03*
X0334783Y0150921D03*
X0332783Y0150921D03*
X0330783Y0150921D03*
X0328883Y0150921D03*
X0326883Y0150921D03*
X0324883Y0150921D03*
X0322983Y0150921D03*
X0322983Y0117721D03*
X0324883Y0117721D03*
X0326883Y0117721D03*
X0328883Y0117721D03*
X0330783Y0117721D03*
X0332783Y0117721D03*
X0334783Y0117721D03*
X0336783Y0117721D03*
X0338683Y0117721D03*
X0340683Y0117721D03*
X0342683Y0117721D03*
X0344583Y0117721D03*
X0209150Y0117721D03*
X0207250Y0117721D03*
X0205250Y0117721D03*
X0203250Y0117721D03*
X0201350Y0117721D03*
X0199350Y0117721D03*
X0197350Y0117721D03*
X0195350Y0117721D03*
X0193450Y0117721D03*
X0191450Y0117721D03*
X0189450Y0117721D03*
X0187550Y0117721D03*
X0187550Y0150921D03*
X0189450Y0150921D03*
X0191450Y0150921D03*
X0193450Y0150921D03*
X0195350Y0150921D03*
X0197350Y0150921D03*
X0199350Y0150921D03*
X0201350Y0150921D03*
X0203250Y0150921D03*
X0205250Y0150921D03*
X0207250Y0150921D03*
X0209150Y0150921D03*
D13*
X0124157Y0114734D03*
X0119157Y0114734D03*
X0114157Y0114734D03*
X0109157Y0114734D03*
X0109157Y0089262D03*
X0114157Y0089262D03*
X0119157Y0089262D03*
X0124157Y0089262D03*
D14*
X0101894Y0089400D03*
X0089768Y0089518D03*
X0089768Y0082825D03*
X0101894Y0082707D03*
X0075516Y0079360D03*
X0075516Y0072667D03*
X0058665Y0084596D03*
X0058665Y0091289D03*
X0101894Y0114793D03*
X0101894Y0121486D03*
X0119295Y0125423D03*
X0119295Y0132116D03*
X0107366Y0149793D03*
X0107366Y0156486D03*
X0157799Y0140423D03*
X0157799Y0133730D03*
X0174335Y0161289D03*
X0174335Y0168770D03*
X0182602Y0168376D03*
X0182602Y0161683D03*
X0191264Y0161289D03*
X0191264Y0168770D03*
X0199531Y0168376D03*
X0199531Y0161683D03*
X0219610Y0188061D03*
X0230240Y0188061D03*
X0230240Y0194754D03*
X0219610Y0194754D03*
X0163311Y0194754D03*
X0153075Y0194754D03*
X0153075Y0188061D03*
X0163311Y0188061D03*
X0287720Y0188455D03*
X0298350Y0188455D03*
X0298350Y0195148D03*
X0287720Y0195148D03*
X0305831Y0170738D03*
X0315673Y0170344D03*
X0327484Y0170738D03*
X0335752Y0170344D03*
X0335752Y0163652D03*
X0327484Y0163258D03*
X0315673Y0163652D03*
X0305831Y0163258D03*
X0294020Y0140030D03*
X0294020Y0133337D03*
X0368429Y0187667D03*
X0368429Y0194360D03*
X0378665Y0194360D03*
X0378665Y0187667D03*
D15*
X0388902Y0187667D03*
X0388902Y0194360D03*
X0359374Y0194360D03*
X0359374Y0187667D03*
X0348350Y0168376D03*
X0348350Y0161683D03*
X0307406Y0188455D03*
X0307406Y0195148D03*
X0278272Y0195148D03*
X0278272Y0188455D03*
X0240083Y0188061D03*
X0240083Y0194754D03*
X0210161Y0194754D03*
X0210161Y0188061D03*
X0212130Y0168376D03*
X0212130Y0161683D03*
X0172760Y0188061D03*
X0172760Y0194754D03*
X0143626Y0194754D03*
X0143626Y0188061D03*
X0083469Y0122707D03*
X0075201Y0122707D03*
X0066933Y0122707D03*
X0066933Y0116014D03*
X0075201Y0116014D03*
X0083469Y0116014D03*
X0088980Y0107707D03*
X0088980Y0101014D03*
X0131461Y0108297D03*
X0131461Y0114990D03*
D16*
X0042760Y0091998D03*
X0042760Y0084124D03*
D17*
X0022287Y0074675D03*
X0022287Y0101447D03*
D18*
X0067425Y0099163D03*
X0067425Y0097195D03*
X0067425Y0095226D03*
X0067425Y0093258D03*
X0067425Y0091289D03*
X0082898Y0091289D03*
X0082898Y0093258D03*
X0082898Y0095226D03*
X0082898Y0097195D03*
X0082898Y0099163D03*
D19*
X0079098Y0102963D03*
X0077130Y0102963D03*
X0075161Y0102963D03*
X0073193Y0102963D03*
X0071224Y0102963D03*
X0071224Y0087490D03*
X0073193Y0087490D03*
X0075161Y0087490D03*
X0077130Y0087490D03*
X0079098Y0087490D03*
D20*
X0075161Y0095226D03*
D21*
X0060004Y0100030D03*
X0053311Y0100030D03*
X0053350Y0108297D03*
X0060043Y0108297D03*
X0136343Y0060305D03*
X0143035Y0060305D03*
X0150516Y0069360D03*
X0157209Y0069360D03*
X0168232Y0060305D03*
X0174925Y0060305D03*
X0182406Y0069360D03*
X0189098Y0069360D03*
X0207602Y0068967D03*
X0214295Y0068967D03*
X0221776Y0059911D03*
X0228469Y0059911D03*
X0239295Y0068967D03*
X0245988Y0068967D03*
X0253665Y0059518D03*
X0260358Y0059518D03*
X0293823Y0069754D03*
X0300516Y0069754D03*
X0308390Y0059911D03*
X0315083Y0059911D03*
X0333587Y0059911D03*
X0340280Y0059911D03*
X0347760Y0069754D03*
X0354453Y0069754D03*
X0372957Y0069754D03*
X0379650Y0069754D03*
X0387130Y0059911D03*
X0393823Y0059911D03*
X0404846Y0069754D03*
X0411539Y0069754D03*
X0419020Y0059911D03*
X0425713Y0059911D03*
X0366579Y0116368D03*
X0359886Y0116368D03*
X0359846Y0125266D03*
X0366539Y0125266D03*
X0366579Y0134321D03*
X0359886Y0134321D03*
X0359846Y0143376D03*
X0366539Y0143376D03*
X0366579Y0152392D03*
X0359886Y0152392D03*
X0307602Y0148888D03*
X0300909Y0148888D03*
X0293823Y0116211D03*
X0287130Y0116211D03*
X0233193Y0117392D03*
X0226500Y0117392D03*
X0226500Y0126053D03*
X0233193Y0126053D03*
X0233193Y0134715D03*
X0226500Y0134715D03*
X0226500Y0143376D03*
X0233193Y0143376D03*
X0233193Y0152037D03*
X0226500Y0152037D03*
X0172169Y0149675D03*
X0165476Y0149675D03*
X0158390Y0116211D03*
X0151697Y0116211D03*
D22*
X0083508Y0127825D03*
X0083508Y0133730D03*
X0075240Y0133730D03*
X0075240Y0127825D03*
X0066972Y0127825D03*
X0066972Y0133730D03*
X0143626Y0205337D03*
X0143626Y0211337D03*
X0210161Y0211337D03*
X0210161Y0205337D03*
X0278272Y0206518D03*
X0278272Y0212518D03*
X0388902Y0211730D03*
X0388902Y0205730D03*
D23*
X0365083Y0175659D03*
X0358390Y0175659D03*
X0307602Y0124478D03*
X0300909Y0124478D03*
X0300909Y0116211D03*
X0307602Y0116211D03*
X0307602Y0107943D03*
X0300909Y0107943D03*
X0300909Y0099675D03*
X0294217Y0099675D03*
X0294217Y0091407D03*
X0300909Y0091407D03*
X0316657Y0098100D03*
X0323350Y0098100D03*
X0332406Y0098100D03*
X0339098Y0098100D03*
X0348154Y0098100D03*
X0354846Y0098100D03*
X0363508Y0098100D03*
X0370988Y0098100D03*
X0370594Y0107943D03*
X0363902Y0107943D03*
X0354846Y0107943D03*
X0348154Y0107943D03*
X0339098Y0107943D03*
X0332406Y0107943D03*
X0323350Y0107943D03*
X0316657Y0107943D03*
X0314689Y0069754D03*
X0307996Y0069754D03*
X0333587Y0069754D03*
X0340280Y0069754D03*
X0387130Y0069754D03*
X0393823Y0069754D03*
X0419020Y0069754D03*
X0425713Y0069754D03*
X0260358Y0068967D03*
X0253665Y0068967D03*
X0228469Y0068967D03*
X0221776Y0068967D03*
X0174925Y0069360D03*
X0168232Y0069360D03*
X0143035Y0069360D03*
X0136343Y0069360D03*
X0158783Y0091014D03*
X0165476Y0091014D03*
X0165476Y0099281D03*
X0158783Y0099281D03*
X0165476Y0107943D03*
X0172169Y0107943D03*
X0181224Y0107943D03*
X0187917Y0107943D03*
X0196972Y0107943D03*
X0203665Y0107943D03*
X0212720Y0107943D03*
X0219413Y0107943D03*
X0228469Y0107943D03*
X0235161Y0107943D03*
X0235555Y0098100D03*
X0228075Y0098100D03*
X0219413Y0098100D03*
X0212720Y0098100D03*
X0203665Y0098100D03*
X0196972Y0098100D03*
X0187917Y0098100D03*
X0181224Y0098100D03*
X0172169Y0116211D03*
X0165476Y0116211D03*
X0165476Y0124478D03*
X0172169Y0124478D03*
X0235949Y0164636D03*
X0242642Y0164636D03*
X0075909Y0200463D03*
X0069217Y0200463D03*
X0054256Y0200463D03*
X0047563Y0200463D03*
D24*
X0047642Y0187037D03*
X0057642Y0187037D03*
X0067642Y0187037D03*
X0077642Y0187037D03*
X0087642Y0187037D03*
X0087642Y0177037D03*
X0077642Y0177037D03*
X0067642Y0177037D03*
X0057642Y0177037D03*
X0047642Y0177037D03*
X0047642Y0157037D03*
X0057642Y0157037D03*
X0067642Y0157037D03*
X0077642Y0157037D03*
X0087642Y0157037D03*
X0087642Y0147037D03*
X0077642Y0147037D03*
X0067642Y0147037D03*
X0057642Y0147037D03*
X0047642Y0147037D03*
X0137957Y0173967D03*
X0147957Y0173967D03*
X0157957Y0173967D03*
X0157957Y0163967D03*
X0147957Y0163967D03*
X0274965Y0175935D03*
X0284965Y0175935D03*
X0294965Y0175935D03*
X0294965Y0165935D03*
X0284965Y0165935D03*
D25*
X0284965Y0165935D03*
X0294965Y0165935D03*
X0294965Y0175935D03*
X0284965Y0175935D03*
X0274965Y0175935D03*
X0157957Y0173967D03*
X0147957Y0173967D03*
X0137957Y0173967D03*
X0147957Y0163967D03*
X0157957Y0163967D03*
X0087642Y0157037D03*
X0077642Y0157037D03*
X0067642Y0157037D03*
X0057642Y0157037D03*
X0047642Y0157037D03*
X0047642Y0147037D03*
X0057642Y0147037D03*
X0067642Y0147037D03*
X0077642Y0147037D03*
X0087642Y0147037D03*
X0087642Y0177037D03*
X0077642Y0177037D03*
X0067642Y0177037D03*
X0057642Y0177037D03*
X0047642Y0177037D03*
X0047642Y0187037D03*
X0057642Y0187037D03*
X0067642Y0187037D03*
X0077642Y0187037D03*
X0087642Y0187037D03*
D26*
X0078862Y0210404D03*
X0075713Y0210404D03*
X0072563Y0210404D03*
X0069413Y0210404D03*
X0066264Y0210404D03*
X0063114Y0210404D03*
X0059965Y0210404D03*
X0056815Y0210404D03*
X0053665Y0210404D03*
X0050516Y0210404D03*
X0047366Y0210404D03*
X0044217Y0210404D03*
X0041067Y0210404D03*
X0037917Y0210404D03*
X0034768Y0210404D03*
X0031618Y0210404D03*
X0028469Y0210404D03*
X0025319Y0210404D03*
X0044217Y0239341D03*
X0047366Y0239341D03*
X0050516Y0239341D03*
X0053665Y0239341D03*
X0056815Y0239341D03*
X0059965Y0239341D03*
X0063114Y0239341D03*
X0066264Y0239341D03*
X0069413Y0239341D03*
X0072563Y0239341D03*
X0075713Y0239341D03*
X0078862Y0239341D03*
D27*
X0081028Y0232746D03*
X0081028Y0229596D03*
X0081028Y0226447D03*
X0081028Y0223297D03*
X0081028Y0220148D03*
X0081028Y0216998D03*
D28*
X0219217Y0168376D03*
X0227878Y0164636D03*
X0219217Y0160896D03*
X0357012Y0161289D03*
X0357012Y0168770D03*
X0365673Y0165030D03*
D29*
X0307602Y0140226D03*
X0300909Y0140226D03*
X0300909Y0131565D03*
X0307602Y0131565D03*
X0172169Y0131959D03*
X0165476Y0131959D03*
X0165476Y0140620D03*
X0172169Y0140620D03*
D30*
X0140713Y0146486D03*
X0118547Y0184675D03*
X0108547Y0184675D03*
X0108547Y0194675D03*
X0118547Y0194675D03*
X0118547Y0204675D03*
X0108547Y0204675D03*
X0108547Y0214675D03*
X0118547Y0214675D03*
X0118547Y0224675D03*
X0108547Y0224675D03*
X0025122Y0179281D03*
X0015122Y0179281D03*
X0015122Y0169281D03*
X0025122Y0169281D03*
X0025122Y0159281D03*
X0015122Y0159281D03*
X0015122Y0149281D03*
X0025122Y0149281D03*
X0025122Y0139281D03*
X0015122Y0139281D03*
D31*
X0015122Y0139281D03*
X0025122Y0139281D03*
X0025122Y0149281D03*
X0015122Y0149281D03*
X0015122Y0159281D03*
X0025122Y0159281D03*
X0025122Y0169281D03*
X0015122Y0169281D03*
X0015122Y0179281D03*
X0025122Y0179281D03*
X0108547Y0184675D03*
X0118547Y0184675D03*
X0118547Y0194675D03*
X0108547Y0194675D03*
X0108547Y0204675D03*
X0118547Y0204675D03*
X0118547Y0214675D03*
X0108547Y0214675D03*
X0108547Y0224675D03*
X0118547Y0224675D03*
X0140713Y0146486D03*
D32*
X0117076Y0148864D03*
D33*
X0124676Y0148864D03*
X0124676Y0156364D03*
X0116276Y0156364D03*
D34*
X0140713Y0126801D03*
D35*
X0140713Y0126801D03*
D36*
X0243313Y0125974D02*
X0248113Y0125974D01*
X0248113Y0135974D02*
X0243313Y0135974D01*
X0243313Y0145974D02*
X0248113Y0145974D01*
X0273313Y0145974D02*
X0278113Y0145974D01*
X0278113Y0135974D02*
X0273313Y0135974D01*
X0273313Y0125974D02*
X0278113Y0125974D01*
X0278113Y0115974D02*
X0273313Y0115974D01*
X0248113Y0115974D02*
X0243313Y0115974D01*
X0377683Y0123455D02*
X0382483Y0123455D01*
X0382483Y0133455D02*
X0377683Y0133455D01*
X0377683Y0143455D02*
X0382483Y0143455D01*
X0382483Y0153455D02*
X0377683Y0153455D01*
X0407683Y0153455D02*
X0412483Y0153455D01*
X0412483Y0143455D02*
X0407683Y0143455D01*
X0407683Y0133455D02*
X0412483Y0133455D01*
X0412483Y0123455D02*
X0407683Y0123455D01*
D37*
X0412483Y0123455D01*
X0412483Y0133455D02*
X0407683Y0133455D01*
X0407683Y0143455D02*
X0412483Y0143455D01*
X0412483Y0153455D02*
X0407683Y0153455D01*
X0382483Y0153455D02*
X0377683Y0153455D01*
X0377683Y0143455D02*
X0382483Y0143455D01*
X0382483Y0133455D02*
X0377683Y0133455D01*
X0377683Y0123455D02*
X0382483Y0123455D01*
X0278113Y0125974D02*
X0273313Y0125974D01*
X0273313Y0135974D02*
X0278113Y0135974D01*
X0278113Y0145974D02*
X0273313Y0145974D01*
X0248113Y0145974D02*
X0243313Y0145974D01*
X0243313Y0135974D02*
X0248113Y0135974D01*
X0248113Y0125974D02*
X0243313Y0125974D01*
X0243313Y0115974D02*
X0248113Y0115974D01*
X0273313Y0115974D02*
X0278113Y0115974D01*
D38*
X0295102Y0080974D03*
X0307110Y0080974D03*
X0341165Y0080974D03*
X0353173Y0080974D03*
X0374236Y0080974D03*
X0386244Y0080974D03*
X0395102Y0080974D03*
X0407110Y0080974D03*
X0241559Y0080974D03*
X0229551Y0080974D03*
X0220890Y0080974D03*
X0208882Y0080974D03*
X0187819Y0080974D03*
X0175811Y0080974D03*
X0166953Y0080974D03*
X0154945Y0080974D03*
D39*
X0148154Y0241211D03*
X0181618Y0241211D03*
X0215083Y0241211D03*
X0248547Y0241211D03*
X0282012Y0241211D03*
X0315476Y0241211D03*
X0348941Y0240817D03*
X0382406Y0240817D03*
D40*
X0365673Y0210699D03*
X0298744Y0211093D03*
X0231815Y0211093D03*
X0164886Y0211093D03*
D41*
X0164886Y0228809D03*
X0231815Y0228809D03*
X0298744Y0228809D03*
X0365673Y0228415D03*
D42*
X0365673Y0228415D03*
X0298744Y0228809D03*
X0231815Y0228809D03*
X0164886Y0228809D03*
X0187720Y0030778D03*
X0208980Y0030778D03*
X0266461Y0030778D03*
X0295594Y0030778D03*
X0353075Y0030778D03*
X0374335Y0030778D03*
X0431815Y0030778D03*
X0130240Y0030778D03*
D43*
X0137957Y0163967D03*
X0274965Y0165935D03*
D44*
X0274965Y0165935D03*
X0137957Y0163967D03*
D45*
X0143232Y0044557D03*
X0158980Y0028809D03*
X0174728Y0041604D03*
X0221972Y0044557D03*
X0237720Y0028809D03*
X0253469Y0041604D03*
X0308587Y0044557D03*
X0324335Y0028809D03*
X0340083Y0041604D03*
X0387327Y0044557D03*
X0403075Y0028809D03*
X0418823Y0041604D03*
D46*
X0418823Y0041604D03*
X0403075Y0028809D03*
X0387327Y0044557D03*
X0340083Y0041604D03*
X0324335Y0028809D03*
X0308587Y0044557D03*
X0253469Y0041604D03*
X0237720Y0028809D03*
X0221972Y0044557D03*
X0174728Y0041604D03*
X0158980Y0028809D03*
X0143232Y0044557D03*
D47*
X0101894Y0053612D03*
X0101894Y0063612D03*
X0101894Y0073612D03*
D48*
X0101894Y0073612D03*
X0101894Y0063612D03*
X0101894Y0053612D03*
D49*
X0101894Y0033612D03*
D50*
X0060555Y0061005D03*
D51*
X0060555Y0061005D03*
D52*
X0075365Y0048494D03*
X0060655Y0032183D03*
D53*
X0060655Y0032183D03*
X0075365Y0048494D03*
D54*
X0081815Y0072904D03*
X0058587Y0077628D03*
X0101894Y0099675D03*
X0101894Y0104006D03*
X0101894Y0108337D03*
X0089689Y0112667D03*
X0095988Y0121722D03*
X0101894Y0128022D03*
X0101106Y0149675D03*
X0101106Y0156762D03*
X0157799Y0124478D03*
X0151500Y0107943D03*
X0131028Y0103612D03*
X0181028Y0092195D03*
X0203469Y0092195D03*
X0219217Y0092195D03*
X0228272Y0092195D03*
X0235358Y0092195D03*
X0286933Y0107943D03*
X0294020Y0124478D03*
X0316461Y0091998D03*
X0338902Y0092195D03*
X0354650Y0091998D03*
X0363311Y0092195D03*
X0370791Y0092195D03*
X0342445Y0166604D03*
X0351500Y0175659D03*
X0315673Y0176841D03*
X0205831Y0164636D03*
X0191264Y0174872D03*
X0168035Y0169754D03*
X0082406Y0200463D03*
X0061539Y0200463D03*
X0046972Y0194557D03*
X0066067Y0105581D03*
X0048744Y0100069D03*
D55*
X0048744Y0100069D03*
X0066067Y0105581D03*
X0089689Y0112667D03*
X0101894Y0108337D03*
X0101894Y0104006D03*
X0101894Y0099675D03*
X0131028Y0103612D03*
X0151500Y0107943D03*
X0157799Y0124478D03*
X0181028Y0092195D03*
X0203469Y0092195D03*
X0219217Y0092195D03*
X0228272Y0092195D03*
X0235358Y0092195D03*
X0286933Y0107943D03*
X0294020Y0124478D03*
X0316461Y0091998D03*
X0338902Y0092195D03*
X0354650Y0091998D03*
X0363311Y0092195D03*
X0370791Y0092195D03*
X0342445Y0166604D03*
X0351500Y0175659D03*
X0315673Y0176841D03*
X0205831Y0164636D03*
X0191264Y0174872D03*
X0168035Y0169754D03*
X0101106Y0156762D03*
X0101106Y0149675D03*
X0101894Y0128022D03*
X0095988Y0121722D03*
X0058587Y0077628D03*
X0081815Y0072904D03*
X0046972Y0194557D03*
X0061539Y0200463D03*
X0082406Y0200463D03*
D56*
X0082012Y0210305D03*
X0088508Y0209518D03*
X0088114Y0218573D03*
X0072563Y0219360D03*
X0069413Y0216604D03*
X0066264Y0219360D03*
X0063114Y0216604D03*
X0059965Y0219360D03*
X0056815Y0216604D03*
X0050516Y0222510D03*
X0082012Y0239439D03*
X0044217Y0246132D03*
X0041067Y0203612D03*
X0034768Y0203612D03*
X0028469Y0203612D03*
X0129453Y0152431D03*
X0155043Y0149281D03*
X0180240Y0148100D03*
X0184571Y0153219D03*
X0196382Y0155974D03*
X0206224Y0156762D03*
X0218429Y0148100D03*
X0209768Y0143376D03*
X0208980Y0139439D03*
X0208980Y0135108D03*
X0221579Y0131171D03*
X0221972Y0127234D03*
X0216461Y0120541D03*
X0211736Y0116998D03*
X0204650Y0126447D03*
X0197957Y0126841D03*
X0195594Y0129990D03*
X0192839Y0127234D03*
X0191657Y0123297D03*
X0195201Y0123691D03*
X0186933Y0127234D03*
X0186933Y0132746D03*
X0201106Y0142982D03*
X0198744Y0145738D03*
X0203469Y0146132D03*
X0193626Y0145738D03*
X0190083Y0145344D03*
X0237720Y0143376D03*
X0237720Y0134715D03*
X0237720Y0126053D03*
X0259768Y0120935D03*
X0282209Y0121329D03*
X0286146Y0122510D03*
X0322760Y0126447D03*
X0328272Y0126447D03*
X0329846Y0129596D03*
X0331815Y0132352D03*
X0338902Y0128022D03*
X0342051Y0129596D03*
X0345201Y0128415D03*
X0341657Y0122904D03*
X0335358Y0127234D03*
X0331815Y0126447D03*
X0331815Y0122904D03*
X0321972Y0135108D03*
X0327091Y0142195D03*
X0331421Y0145738D03*
X0335358Y0145738D03*
X0335358Y0141801D03*
X0342445Y0143376D03*
X0342445Y0139833D03*
X0342445Y0136289D03*
X0355437Y0129596D03*
X0355437Y0122116D03*
X0350319Y0120935D03*
X0350319Y0117392D03*
X0355437Y0116604D03*
X0370791Y0135305D03*
X0370791Y0144163D03*
X0370791Y0153219D03*
X0354650Y0154006D03*
X0351894Y0148100D03*
X0344413Y0157943D03*
X0316461Y0148100D03*
X0259768Y0176447D03*
X0248744Y0164636D03*
X0251106Y0161486D03*
X0223547Y0173297D03*
X0245988Y0194951D03*
X0186933Y0184715D03*
X0184965Y0181171D03*
X0180634Y0188258D03*
X0176697Y0178415D03*
X0147169Y0121722D03*
X0142839Y0119360D03*
X0180634Y0113848D03*
X0185358Y0113061D03*
X0172169Y0089439D03*
X0176106Y0088258D03*
X0229453Y0088258D03*
X0313311Y0080778D03*
X0333390Y0081565D03*
X0347957Y0088652D03*
X0394807Y0087864D03*
X0339295Y0183927D03*
X0347169Y0190226D03*
X0087720Y0096132D03*
X0068429Y0084715D03*
X0063311Y0133927D03*
M02*
