G75*
%MOIN*%
%OFA0B0*%
%FSLAX25Y25*%
%IPPOS*%
%LPD*%
%AMOC8*
5,1,8,0,0,1.08239X$1,22.5*
%
%ADD10OC8,0.06000*%
%ADD11C,0.05906*%
%ADD12C,0.06600*%
%ADD13C,0.12598*%
%ADD14C,0.13386*%
%ADD15C,0.06000*%
%ADD16C,0.07087*%
%ADD17C,0.06496*%
%ADD18C,0.16535*%
%ADD19C,0.16200*%
%ADD20C,0.04800*%
%ADD21C,0.03543*%
%ADD22C,0.02362*%
%ADD23C,0.04134*%
%ADD24C,0.04724*%
%ADD25C,0.04000*%
%ADD26C,0.01600*%
%ADD27C,0.00787*%
%ADD28C,0.02400*%
D10*
X0047942Y0115669D03*
X0057942Y0115669D03*
X0067942Y0115669D03*
X0077942Y0115669D03*
X0087942Y0115669D03*
X0097942Y0115669D03*
X0097942Y0125669D03*
X0087942Y0125669D03*
X0077942Y0125669D03*
X0067942Y0125669D03*
X0057942Y0125669D03*
X0047942Y0125669D03*
X0047942Y0145669D03*
X0057942Y0145669D03*
X0067942Y0145669D03*
X0077942Y0145669D03*
X0087942Y0145669D03*
X0097942Y0145669D03*
X0097942Y0155669D03*
X0087942Y0155669D03*
X0077942Y0155669D03*
X0067942Y0155669D03*
X0057942Y0155669D03*
X0047942Y0155669D03*
X0047942Y0175669D03*
X0057942Y0175669D03*
X0067942Y0175669D03*
X0077942Y0175669D03*
X0087942Y0175669D03*
X0087942Y0185669D03*
X0077942Y0185669D03*
X0067942Y0185669D03*
X0057942Y0185669D03*
X0047942Y0185669D03*
X0138257Y0172598D03*
X0148257Y0172598D03*
X0158257Y0172598D03*
X0158257Y0162598D03*
X0148257Y0162598D03*
X0257548Y0174370D03*
X0267548Y0174370D03*
X0277548Y0174370D03*
X0277548Y0164370D03*
X0267548Y0164370D03*
D11*
X0147312Y0140000D03*
X0118847Y0183307D03*
X0108847Y0183307D03*
X0108847Y0193307D03*
X0118847Y0193307D03*
X0118847Y0203307D03*
X0108847Y0203307D03*
X0108847Y0213307D03*
X0118847Y0213307D03*
X0118847Y0223307D03*
X0108847Y0223307D03*
X0025894Y0176535D03*
X0015894Y0176535D03*
X0015894Y0166535D03*
X0025894Y0166535D03*
X0025894Y0156535D03*
X0015894Y0156535D03*
X0015894Y0146535D03*
X0025894Y0146535D03*
X0025894Y0136535D03*
X0015894Y0136535D03*
X0015894Y0126535D03*
X0025894Y0126535D03*
X0025894Y0116535D03*
X0015894Y0116535D03*
X0015894Y0106535D03*
X0025894Y0106535D03*
X0025894Y0096535D03*
X0015894Y0096535D03*
X0015894Y0086535D03*
X0025894Y0086535D03*
D12*
X0166997Y0140000D03*
D13*
X0165186Y0209724D03*
X0226209Y0209724D03*
X0287233Y0209724D03*
X0348257Y0209331D03*
D14*
X0348257Y0227047D03*
X0287233Y0227441D03*
X0226209Y0227441D03*
X0165186Y0227441D03*
D15*
X0257548Y0164370D03*
X0138257Y0162598D03*
D16*
X0143532Y0047913D03*
X0159280Y0032165D03*
X0175028Y0044961D03*
X0217548Y0047913D03*
X0233296Y0032165D03*
X0249044Y0044961D03*
X0295107Y0047913D03*
X0310855Y0032165D03*
X0326603Y0044961D03*
X0369123Y0047913D03*
X0384871Y0032165D03*
X0400619Y0044961D03*
D17*
X0102194Y0052244D03*
X0102194Y0062244D03*
X0102194Y0072244D03*
D18*
X0060855Y0059637D03*
D19*
X0075665Y0047126D03*
X0060955Y0030815D03*
D20*
X0243061Y0134646D02*
X0247861Y0134646D01*
X0247861Y0144646D02*
X0243061Y0144646D01*
X0273061Y0144646D02*
X0277861Y0144646D01*
X0277861Y0134646D02*
X0273061Y0134646D01*
X0364321Y0142520D02*
X0369121Y0142520D01*
X0369121Y0152520D02*
X0364321Y0152520D01*
X0394321Y0152520D02*
X0399121Y0152520D01*
X0399121Y0142520D02*
X0394321Y0142520D01*
D21*
X0354438Y0159488D03*
X0352115Y0167992D03*
X0328965Y0165236D03*
X0328769Y0174961D03*
X0302194Y0176654D03*
X0242395Y0160477D03*
X0206131Y0163268D03*
X0191564Y0174685D03*
X0167351Y0167992D03*
X0109674Y0149488D03*
X0109674Y0142402D03*
X0172194Y0108975D03*
X0188020Y0129803D03*
X0247076Y0120748D03*
X0262149Y0096743D03*
X0272779Y0090443D03*
X0295044Y0110150D03*
X0302981Y0090630D03*
X0325422Y0090827D03*
X0341170Y0090630D03*
X0349241Y0090630D03*
X0358493Y0090630D03*
X0297469Y0130591D03*
X0236839Y0090827D03*
X0227391Y0090827D03*
X0219517Y0090827D03*
X0204950Y0090827D03*
X0150306Y0090543D03*
X0047272Y0193189D03*
X0061839Y0199094D03*
X0082706Y0199094D03*
D22*
X0082312Y0208937D03*
X0088808Y0208150D03*
X0088414Y0217205D03*
X0072863Y0217992D03*
X0069713Y0215236D03*
X0066564Y0217992D03*
X0063414Y0215236D03*
X0060265Y0217992D03*
X0057115Y0215236D03*
X0050816Y0221142D03*
X0041367Y0202244D03*
X0035068Y0202244D03*
X0028769Y0202244D03*
X0082312Y0238071D03*
X0044517Y0244764D03*
X0180934Y0186890D03*
X0187233Y0183346D03*
X0185265Y0179803D03*
X0176997Y0177047D03*
X0206524Y0155394D03*
X0196682Y0154606D03*
X0199044Y0144370D03*
X0201406Y0141614D03*
X0203769Y0144764D03*
X0210068Y0142008D03*
X0209280Y0138071D03*
X0209280Y0133740D03*
X0221879Y0129803D03*
X0222272Y0125866D03*
X0216761Y0119173D03*
X0205343Y0124291D03*
X0198257Y0124291D03*
X0195501Y0121535D03*
X0191957Y0121929D03*
X0185658Y0111693D03*
X0177832Y0113415D03*
X0176632Y0101615D03*
X0185106Y0086790D03*
X0173269Y0079771D03*
X0228965Y0086890D03*
X0238020Y0124685D03*
X0255343Y0124685D03*
X0238020Y0133346D03*
X0238020Y0142008D03*
X0218729Y0146732D03*
X0230277Y0159906D03*
X0245698Y0163465D03*
X0240847Y0172029D03*
X0246682Y0177047D03*
X0239989Y0193386D03*
X0184871Y0151457D03*
X0180934Y0147913D03*
X0190383Y0143976D03*
X0193926Y0144370D03*
X0176997Y0132559D03*
X0138020Y0145157D03*
X0114005Y0157362D03*
X0298753Y0101815D03*
X0306682Y0113189D03*
X0305113Y0116344D03*
X0312580Y0121779D03*
X0318335Y0121535D03*
X0318335Y0125079D03*
X0321879Y0125866D03*
X0325422Y0126654D03*
X0328572Y0128228D03*
X0331721Y0127047D03*
X0328178Y0121535D03*
X0336839Y0119567D03*
X0341957Y0120748D03*
X0341957Y0115236D03*
X0336839Y0116024D03*
X0358493Y0125079D03*
X0364005Y0119567D03*
X0358099Y0133937D03*
X0358099Y0142795D03*
X0357902Y0152047D03*
X0341170Y0152638D03*
X0338414Y0146732D03*
X0328965Y0142008D03*
X0321879Y0140433D03*
X0328965Y0138465D03*
X0328965Y0134921D03*
X0318335Y0130984D03*
X0308493Y0133740D03*
X0313611Y0140827D03*
X0317942Y0144370D03*
X0321879Y0144370D03*
X0330934Y0156575D03*
X0302981Y0146732D03*
X0341957Y0128228D03*
X0334477Y0087283D03*
X0319910Y0080197D03*
X0310331Y0087809D03*
X0376603Y0086496D03*
X0325383Y0182677D03*
X0333690Y0188858D03*
X0035658Y0044764D03*
D23*
X0130934Y0082165D03*
X0130934Y0088071D03*
X0137036Y0088071D03*
X0137036Y0094764D03*
X0122666Y0102047D03*
X0122666Y0107165D03*
X0122666Y0112283D03*
D24*
X0078769Y0091614D03*
X0070501Y0067598D03*
D25*
X0070501Y0083937D01*
X0078178Y0091614D01*
X0078769Y0091614D01*
X0098139Y0072244D01*
X0102194Y0072244D01*
X0113020Y0091614D02*
X0078769Y0091614D01*
X0113020Y0091614D02*
X0116170Y0094764D01*
X0137036Y0094764D01*
X0075665Y0047126D02*
X0075665Y0045524D01*
X0060955Y0030815D01*
D26*
X0019330Y0021517D02*
X0017392Y0019580D01*
X0039989Y0019580D01*
X0039989Y0104213D01*
X0118532Y0104213D01*
X0118532Y0115827D01*
X0121116Y0115827D01*
X0121897Y0116150D01*
X0123435Y0116150D01*
X0124217Y0115827D01*
X0126603Y0115827D01*
X0126603Y0098898D01*
X0140186Y0098898D01*
X0140186Y0090630D01*
X0118926Y0090630D01*
X0118926Y0019580D01*
X0427153Y0019580D01*
X0425215Y0021517D01*
X0423835Y0024850D01*
X0423835Y0028457D01*
X0425215Y0031790D01*
X0427766Y0034341D01*
X0431099Y0035721D01*
X0434706Y0035721D01*
X0438039Y0034341D01*
X0439976Y0032403D01*
X0439976Y0235471D01*
X0438039Y0233533D01*
X0434706Y0232153D01*
X0431099Y0232153D01*
X0427766Y0233533D01*
X0425215Y0236084D01*
X0423835Y0239417D01*
X0423835Y0243024D01*
X0425215Y0246357D01*
X0427153Y0248294D01*
X0044713Y0248294D01*
X0044713Y0244317D01*
X0044781Y0244250D01*
X0044781Y0218132D01*
X0044713Y0218065D01*
X0044713Y0217402D01*
X0044050Y0217402D01*
X0043727Y0217078D01*
X0022216Y0217078D01*
X0021892Y0217402D01*
X0004568Y0217402D01*
X0004568Y0032403D01*
X0006506Y0034341D01*
X0009839Y0035721D01*
X0013446Y0035721D01*
X0016779Y0034341D01*
X0019330Y0031790D01*
X0020710Y0028457D01*
X0020710Y0024850D01*
X0019330Y0021517D01*
X0019367Y0021607D02*
X0039989Y0021607D01*
X0039989Y0023205D02*
X0020029Y0023205D01*
X0020691Y0024804D02*
X0039989Y0024804D01*
X0039989Y0026402D02*
X0020710Y0026402D01*
X0020710Y0028001D02*
X0039989Y0028001D01*
X0039989Y0029599D02*
X0020237Y0029599D01*
X0019575Y0031198D02*
X0039989Y0031198D01*
X0039989Y0032796D02*
X0018324Y0032796D01*
X0016649Y0034395D02*
X0039989Y0034395D01*
X0039989Y0035993D02*
X0004568Y0035993D01*
X0004568Y0034395D02*
X0006636Y0034395D01*
X0004961Y0032796D02*
X0004568Y0032796D01*
X0004568Y0037592D02*
X0039989Y0037592D01*
X0039989Y0039190D02*
X0004568Y0039190D01*
X0004568Y0040789D02*
X0039989Y0040789D01*
X0039989Y0042387D02*
X0037498Y0042387D01*
X0037347Y0042237D02*
X0038186Y0043075D01*
X0038639Y0044171D01*
X0038639Y0045357D01*
X0038186Y0046452D01*
X0037347Y0047291D01*
X0036251Y0047745D01*
X0035065Y0047745D01*
X0033970Y0047291D01*
X0033131Y0046452D01*
X0032677Y0045357D01*
X0032677Y0044171D01*
X0033131Y0043075D01*
X0033970Y0042237D01*
X0035065Y0041783D01*
X0036251Y0041783D01*
X0037347Y0042237D01*
X0038563Y0043986D02*
X0039989Y0043986D01*
X0039989Y0045584D02*
X0038545Y0045584D01*
X0037455Y0047183D02*
X0039989Y0047183D01*
X0039989Y0048781D02*
X0004568Y0048781D01*
X0004568Y0047183D02*
X0033861Y0047183D01*
X0032771Y0045584D02*
X0004568Y0045584D01*
X0004568Y0043986D02*
X0032754Y0043986D01*
X0033819Y0042387D02*
X0004568Y0042387D01*
X0004568Y0050380D02*
X0039989Y0050380D01*
X0039989Y0051978D02*
X0004568Y0051978D01*
X0004568Y0053577D02*
X0039989Y0053577D01*
X0039989Y0055175D02*
X0004568Y0055175D01*
X0004568Y0056774D02*
X0039989Y0056774D01*
X0039989Y0058372D02*
X0004568Y0058372D01*
X0004568Y0059971D02*
X0039989Y0059971D01*
X0039989Y0061569D02*
X0004568Y0061569D01*
X0004568Y0063168D02*
X0039989Y0063168D01*
X0039989Y0064766D02*
X0004568Y0064766D01*
X0004568Y0066365D02*
X0039989Y0066365D01*
X0039989Y0067963D02*
X0004568Y0067963D01*
X0004568Y0069562D02*
X0039989Y0069562D01*
X0039989Y0071160D02*
X0004568Y0071160D01*
X0004568Y0072759D02*
X0039989Y0072759D01*
X0039989Y0074357D02*
X0004568Y0074357D01*
X0004568Y0075956D02*
X0039989Y0075956D01*
X0039989Y0077554D02*
X0004568Y0077554D01*
X0004568Y0079153D02*
X0039989Y0079153D01*
X0039989Y0080751D02*
X0004568Y0080751D01*
X0004568Y0082350D02*
X0013579Y0082350D01*
X0013202Y0082506D02*
X0014949Y0081783D01*
X0016840Y0081783D01*
X0018587Y0082506D01*
X0019924Y0083843D01*
X0020647Y0085590D01*
X0020647Y0087481D01*
X0019924Y0089228D01*
X0018587Y0090565D01*
X0016840Y0091288D01*
X0014949Y0091288D01*
X0013202Y0090565D01*
X0011865Y0089228D01*
X0011142Y0087481D01*
X0011142Y0085590D01*
X0011865Y0083843D01*
X0013202Y0082506D01*
X0011822Y0083948D02*
X0004568Y0083948D01*
X0004568Y0085547D02*
X0011160Y0085547D01*
X0011142Y0087146D02*
X0004568Y0087146D01*
X0004568Y0088744D02*
X0011665Y0088744D01*
X0012980Y0090343D02*
X0004568Y0090343D01*
X0004568Y0091941D02*
X0014654Y0091941D01*
X0014782Y0091900D02*
X0015520Y0091783D01*
X0015710Y0091783D01*
X0015710Y0096351D01*
X0011142Y0096351D01*
X0011142Y0096161D01*
X0011259Y0095422D01*
X0011490Y0094711D01*
X0011830Y0094044D01*
X0012269Y0093439D01*
X0012798Y0092910D01*
X0013403Y0092471D01*
X0014070Y0092131D01*
X0014782Y0091900D01*
X0015710Y0091941D02*
X0016079Y0091941D01*
X0016079Y0091783D02*
X0016269Y0091783D01*
X0017007Y0091900D01*
X0017719Y0092131D01*
X0018385Y0092471D01*
X0018991Y0092910D01*
X0019520Y0093439D01*
X0019959Y0094044D01*
X0020299Y0094711D01*
X0020530Y0095422D01*
X0020647Y0096161D01*
X0020647Y0096351D01*
X0016079Y0096351D01*
X0016079Y0096720D01*
X0015710Y0096720D01*
X0015710Y0101288D01*
X0015520Y0101288D01*
X0014782Y0101171D01*
X0014070Y0100940D01*
X0013403Y0100600D01*
X0012798Y0100161D01*
X0012269Y0099632D01*
X0011830Y0099026D01*
X0011490Y0098360D01*
X0011259Y0097648D01*
X0011142Y0096909D01*
X0011142Y0096720D01*
X0015710Y0096720D01*
X0015710Y0096351D01*
X0016079Y0096351D01*
X0016079Y0091783D01*
X0017135Y0091941D02*
X0024567Y0091941D01*
X0024949Y0091783D02*
X0026840Y0091783D01*
X0028587Y0092506D01*
X0029924Y0093843D01*
X0030647Y0095590D01*
X0030647Y0097481D01*
X0029924Y0099228D01*
X0028587Y0100565D01*
X0026840Y0101288D01*
X0024949Y0101288D01*
X0023202Y0100565D01*
X0021865Y0099228D01*
X0021142Y0097481D01*
X0021142Y0095590D01*
X0021865Y0093843D01*
X0023202Y0092506D01*
X0024949Y0091783D01*
X0024949Y0091288D02*
X0023202Y0090565D01*
X0021865Y0089228D01*
X0021142Y0087481D01*
X0021142Y0085590D01*
X0021865Y0083843D01*
X0023202Y0082506D01*
X0024949Y0081783D01*
X0026840Y0081783D01*
X0028587Y0082506D01*
X0029924Y0083843D01*
X0030647Y0085590D01*
X0030647Y0087481D01*
X0029924Y0089228D01*
X0028587Y0090565D01*
X0026840Y0091288D01*
X0024949Y0091288D01*
X0022980Y0090343D02*
X0018809Y0090343D01*
X0020124Y0088744D02*
X0021665Y0088744D01*
X0021142Y0087146D02*
X0020647Y0087146D01*
X0020629Y0085547D02*
X0021160Y0085547D01*
X0021822Y0083948D02*
X0019967Y0083948D01*
X0018209Y0082350D02*
X0023579Y0082350D01*
X0028209Y0082350D02*
X0039989Y0082350D01*
X0039989Y0083948D02*
X0029967Y0083948D01*
X0030629Y0085547D02*
X0039989Y0085547D01*
X0039989Y0087146D02*
X0030647Y0087146D01*
X0030124Y0088744D02*
X0039989Y0088744D01*
X0039989Y0090343D02*
X0028809Y0090343D01*
X0027222Y0091941D02*
X0039989Y0091941D01*
X0039989Y0093540D02*
X0029620Y0093540D01*
X0030460Y0095138D02*
X0039989Y0095138D01*
X0039989Y0096737D02*
X0030647Y0096737D01*
X0030293Y0098335D02*
X0039989Y0098335D01*
X0039989Y0099934D02*
X0029218Y0099934D01*
X0028587Y0102506D02*
X0026840Y0101783D01*
X0024949Y0101783D01*
X0023202Y0102506D01*
X0021865Y0103843D01*
X0021142Y0105590D01*
X0021142Y0107481D01*
X0021865Y0109228D01*
X0023202Y0110565D01*
X0024949Y0111288D01*
X0026840Y0111288D01*
X0028587Y0110565D01*
X0029924Y0109228D01*
X0030647Y0107481D01*
X0030647Y0105590D01*
X0029924Y0103843D01*
X0028587Y0102506D01*
X0029211Y0103131D02*
X0039989Y0103131D01*
X0039989Y0101532D02*
X0004568Y0101532D01*
X0004568Y0099934D02*
X0012571Y0099934D01*
X0011482Y0098335D02*
X0004568Y0098335D01*
X0004568Y0096737D02*
X0011142Y0096737D01*
X0011351Y0095138D02*
X0004568Y0095138D01*
X0004568Y0093540D02*
X0012196Y0093540D01*
X0015710Y0093540D02*
X0016079Y0093540D01*
X0016079Y0095138D02*
X0015710Y0095138D01*
X0015710Y0096737D02*
X0016079Y0096737D01*
X0016079Y0096720D02*
X0016079Y0101288D01*
X0016269Y0101288D01*
X0017007Y0101171D01*
X0017719Y0100940D01*
X0018385Y0100600D01*
X0018991Y0100161D01*
X0019520Y0099632D01*
X0019959Y0099026D01*
X0020299Y0098360D01*
X0020530Y0097648D01*
X0020647Y0096909D01*
X0020647Y0096720D01*
X0016079Y0096720D01*
X0016079Y0098335D02*
X0015710Y0098335D01*
X0015710Y0099934D02*
X0016079Y0099934D01*
X0016079Y0101783D02*
X0016269Y0101783D01*
X0017007Y0101900D01*
X0017719Y0102131D01*
X0018385Y0102471D01*
X0018991Y0102910D01*
X0019520Y0103439D01*
X0019959Y0104044D01*
X0020299Y0104711D01*
X0020530Y0105422D01*
X0020647Y0106161D01*
X0020647Y0106351D01*
X0016079Y0106351D01*
X0016079Y0106720D01*
X0015710Y0106720D01*
X0015710Y0111288D01*
X0015520Y0111288D01*
X0014782Y0111171D01*
X0014070Y0110940D01*
X0013403Y0110600D01*
X0012798Y0110161D01*
X0012269Y0109632D01*
X0011830Y0109026D01*
X0011490Y0108360D01*
X0011259Y0107648D01*
X0011142Y0106909D01*
X0011142Y0106720D01*
X0015710Y0106720D01*
X0015710Y0106351D01*
X0011142Y0106351D01*
X0011142Y0106161D01*
X0011259Y0105422D01*
X0011490Y0104711D01*
X0011830Y0104044D01*
X0012269Y0103439D01*
X0012798Y0102910D01*
X0013403Y0102471D01*
X0014070Y0102131D01*
X0014782Y0101900D01*
X0015520Y0101783D01*
X0015710Y0101783D01*
X0015710Y0106351D01*
X0016079Y0106351D01*
X0016079Y0101783D01*
X0016079Y0103131D02*
X0015710Y0103131D01*
X0015710Y0104729D02*
X0016079Y0104729D01*
X0016079Y0106328D02*
X0015710Y0106328D01*
X0016079Y0106720D02*
X0016079Y0111288D01*
X0016269Y0111288D01*
X0017007Y0111171D01*
X0017719Y0110940D01*
X0018385Y0110600D01*
X0018991Y0110161D01*
X0019520Y0109632D01*
X0019959Y0109026D01*
X0020299Y0108360D01*
X0020530Y0107648D01*
X0020647Y0106909D01*
X0020647Y0106720D01*
X0016079Y0106720D01*
X0016079Y0107926D02*
X0015710Y0107926D01*
X0015710Y0109525D02*
X0016079Y0109525D01*
X0016079Y0111123D02*
X0015710Y0111123D01*
X0015710Y0111783D02*
X0015710Y0116351D01*
X0011142Y0116351D01*
X0011142Y0116161D01*
X0011259Y0115422D01*
X0011490Y0114711D01*
X0011830Y0114044D01*
X0012269Y0113439D01*
X0012798Y0112910D01*
X0013403Y0112471D01*
X0014070Y0112131D01*
X0014782Y0111900D01*
X0015520Y0111783D01*
X0015710Y0111783D01*
X0016079Y0111783D02*
X0016269Y0111783D01*
X0017007Y0111900D01*
X0017719Y0112131D01*
X0018385Y0112471D01*
X0018991Y0112910D01*
X0019520Y0113439D01*
X0019959Y0114044D01*
X0020299Y0114711D01*
X0020530Y0115422D01*
X0020647Y0116161D01*
X0020647Y0116351D01*
X0016079Y0116351D01*
X0016079Y0116720D01*
X0015710Y0116720D01*
X0015710Y0121288D01*
X0015520Y0121288D01*
X0014782Y0121171D01*
X0014070Y0120940D01*
X0013403Y0120600D01*
X0012798Y0120161D01*
X0012269Y0119632D01*
X0011830Y0119026D01*
X0011490Y0118360D01*
X0011259Y0117648D01*
X0011142Y0116909D01*
X0011142Y0116720D01*
X0015710Y0116720D01*
X0015710Y0116351D01*
X0016079Y0116351D01*
X0016079Y0111783D01*
X0016079Y0112722D02*
X0015710Y0112722D01*
X0015710Y0114320D02*
X0016079Y0114320D01*
X0016079Y0115919D02*
X0015710Y0115919D01*
X0016079Y0116720D02*
X0020647Y0116720D01*
X0020647Y0116909D01*
X0020530Y0117648D01*
X0020299Y0118360D01*
X0019959Y0119026D01*
X0019520Y0119632D01*
X0018991Y0120161D01*
X0018385Y0120600D01*
X0017719Y0120940D01*
X0017007Y0121171D01*
X0016269Y0121288D01*
X0016079Y0121288D01*
X0016079Y0116720D01*
X0016079Y0117517D02*
X0015710Y0117517D01*
X0015710Y0119116D02*
X0016079Y0119116D01*
X0016079Y0120714D02*
X0015710Y0120714D01*
X0015710Y0121783D02*
X0015710Y0126351D01*
X0011142Y0126351D01*
X0011142Y0126161D01*
X0011259Y0125422D01*
X0011490Y0124711D01*
X0011830Y0124044D01*
X0012269Y0123439D01*
X0012798Y0122910D01*
X0013403Y0122471D01*
X0014070Y0122131D01*
X0014782Y0121900D01*
X0015520Y0121783D01*
X0015710Y0121783D01*
X0016079Y0121783D02*
X0016269Y0121783D01*
X0017007Y0121900D01*
X0017719Y0122131D01*
X0018385Y0122471D01*
X0018991Y0122910D01*
X0019520Y0123439D01*
X0019959Y0124044D01*
X0020299Y0124711D01*
X0020530Y0125422D01*
X0020647Y0126161D01*
X0020647Y0126351D01*
X0016079Y0126351D01*
X0016079Y0126720D01*
X0015710Y0126720D01*
X0015710Y0131288D01*
X0015520Y0131288D01*
X0014782Y0131171D01*
X0014070Y0130940D01*
X0013403Y0130600D01*
X0012798Y0130161D01*
X0012269Y0129632D01*
X0011830Y0129026D01*
X0011490Y0128360D01*
X0011259Y0127648D01*
X0011142Y0126909D01*
X0011142Y0126720D01*
X0015710Y0126720D01*
X0015710Y0126351D01*
X0016079Y0126351D01*
X0016079Y0121783D01*
X0016079Y0122313D02*
X0015710Y0122313D01*
X0015710Y0123911D02*
X0016079Y0123911D01*
X0016079Y0125510D02*
X0015710Y0125510D01*
X0016079Y0126720D02*
X0020647Y0126720D01*
X0020647Y0126909D01*
X0020530Y0127648D01*
X0020299Y0128360D01*
X0019959Y0129026D01*
X0019520Y0129632D01*
X0018991Y0130161D01*
X0018385Y0130600D01*
X0017719Y0130940D01*
X0017007Y0131171D01*
X0016269Y0131288D01*
X0016079Y0131288D01*
X0016079Y0126720D01*
X0016079Y0127108D02*
X0015710Y0127108D01*
X0015710Y0128707D02*
X0016079Y0128707D01*
X0016079Y0130305D02*
X0015710Y0130305D01*
X0015710Y0131783D02*
X0015710Y0136351D01*
X0011142Y0136351D01*
X0011142Y0136161D01*
X0011259Y0135422D01*
X0011490Y0134711D01*
X0011830Y0134044D01*
X0012269Y0133439D01*
X0012798Y0132910D01*
X0013403Y0132471D01*
X0014070Y0132131D01*
X0014782Y0131900D01*
X0015520Y0131783D01*
X0015710Y0131783D01*
X0015710Y0131904D02*
X0016079Y0131904D01*
X0016079Y0131783D02*
X0016269Y0131783D01*
X0017007Y0131900D01*
X0017719Y0132131D01*
X0018385Y0132471D01*
X0018991Y0132910D01*
X0019520Y0133439D01*
X0019959Y0134044D01*
X0020299Y0134711D01*
X0020530Y0135422D01*
X0020647Y0136161D01*
X0020647Y0136351D01*
X0016079Y0136351D01*
X0016079Y0136720D01*
X0015710Y0136720D01*
X0015710Y0141288D01*
X0015520Y0141288D01*
X0014782Y0141171D01*
X0014070Y0140940D01*
X0013403Y0140600D01*
X0012798Y0140161D01*
X0012269Y0139632D01*
X0011830Y0139026D01*
X0011490Y0138360D01*
X0011259Y0137648D01*
X0011142Y0136909D01*
X0011142Y0136720D01*
X0015710Y0136720D01*
X0015710Y0136351D01*
X0016079Y0136351D01*
X0016079Y0131783D01*
X0017020Y0131904D02*
X0024657Y0131904D01*
X0024949Y0131783D02*
X0026840Y0131783D01*
X0028587Y0132506D01*
X0029924Y0133843D01*
X0030647Y0135590D01*
X0030647Y0137481D01*
X0029924Y0139228D01*
X0028587Y0140565D01*
X0026840Y0141288D01*
X0024949Y0141288D01*
X0023202Y0140565D01*
X0021865Y0139228D01*
X0021142Y0137481D01*
X0021142Y0135590D01*
X0021865Y0133843D01*
X0023202Y0132506D01*
X0024949Y0131783D01*
X0024949Y0131288D02*
X0023202Y0130565D01*
X0021865Y0129228D01*
X0021142Y0127481D01*
X0021142Y0125590D01*
X0021865Y0123843D01*
X0023202Y0122506D01*
X0024949Y0121783D01*
X0026840Y0121783D01*
X0028587Y0122506D01*
X0029924Y0123843D01*
X0030647Y0125590D01*
X0030647Y0127481D01*
X0029924Y0129228D01*
X0028587Y0130565D01*
X0026840Y0131288D01*
X0024949Y0131288D01*
X0022943Y0130305D02*
X0018792Y0130305D01*
X0020122Y0128707D02*
X0021650Y0128707D01*
X0021142Y0127108D02*
X0020616Y0127108D01*
X0020544Y0125510D02*
X0021175Y0125510D01*
X0021837Y0123911D02*
X0019863Y0123911D01*
X0018076Y0122313D02*
X0023669Y0122313D01*
X0023564Y0120714D02*
X0018162Y0120714D01*
X0019895Y0119116D02*
X0021819Y0119116D01*
X0021865Y0119228D02*
X0021142Y0117481D01*
X0021142Y0115590D01*
X0021865Y0113843D01*
X0023202Y0112506D01*
X0024949Y0111783D01*
X0026840Y0111783D01*
X0028587Y0112506D01*
X0029924Y0113843D01*
X0030647Y0115590D01*
X0030647Y0117481D01*
X0029924Y0119228D01*
X0028587Y0120565D01*
X0026840Y0121288D01*
X0024949Y0121288D01*
X0023202Y0120565D01*
X0021865Y0119228D01*
X0021157Y0117517D02*
X0020551Y0117517D01*
X0020609Y0115919D02*
X0021142Y0115919D01*
X0021668Y0114320D02*
X0020100Y0114320D01*
X0018731Y0112722D02*
X0022987Y0112722D01*
X0024551Y0111123D02*
X0017155Y0111123D01*
X0014634Y0111123D02*
X0004568Y0111123D01*
X0004568Y0109525D02*
X0012192Y0109525D01*
X0011349Y0107926D02*
X0004568Y0107926D01*
X0004568Y0106328D02*
X0011142Y0106328D01*
X0011484Y0104729D02*
X0004568Y0104729D01*
X0004568Y0103131D02*
X0012578Y0103131D01*
X0019211Y0103131D02*
X0022578Y0103131D01*
X0021498Y0104729D02*
X0020305Y0104729D01*
X0020647Y0106328D02*
X0021142Y0106328D01*
X0021326Y0107926D02*
X0020440Y0107926D01*
X0019597Y0109525D02*
X0022162Y0109525D01*
X0027238Y0111123D02*
X0045700Y0111123D01*
X0045954Y0110869D02*
X0047742Y0110869D01*
X0047742Y0115469D01*
X0048142Y0115469D01*
X0048142Y0115869D01*
X0052742Y0115869D01*
X0052742Y0117658D01*
X0049930Y0120469D01*
X0048142Y0120469D01*
X0048142Y0115869D01*
X0047742Y0115869D01*
X0047742Y0115469D01*
X0043142Y0115469D01*
X0043142Y0113681D01*
X0045954Y0110869D01*
X0047742Y0111123D02*
X0048142Y0111123D01*
X0048142Y0110869D02*
X0049930Y0110869D01*
X0052742Y0113681D01*
X0052742Y0115469D01*
X0048142Y0115469D01*
X0048142Y0110869D01*
X0048142Y0112722D02*
X0047742Y0112722D01*
X0047742Y0114320D02*
X0048142Y0114320D01*
X0048142Y0115919D02*
X0047742Y0115919D01*
X0047742Y0115869D02*
X0047742Y0120469D01*
X0045954Y0120469D01*
X0043142Y0117658D01*
X0043142Y0115869D01*
X0047742Y0115869D01*
X0047742Y0117517D02*
X0048142Y0117517D01*
X0048142Y0119116D02*
X0047742Y0119116D01*
X0045954Y0120869D02*
X0049930Y0120869D01*
X0052742Y0123681D01*
X0052742Y0127658D01*
X0049930Y0130469D01*
X0045954Y0130469D01*
X0043142Y0127658D01*
X0043142Y0123681D01*
X0045954Y0120869D01*
X0044510Y0122313D02*
X0028120Y0122313D01*
X0028225Y0120714D02*
X0189234Y0120714D01*
X0189430Y0120240D02*
X0190269Y0119402D01*
X0191364Y0118948D01*
X0192550Y0118948D01*
X0193307Y0119261D01*
X0193307Y0117292D01*
X0179206Y0103191D01*
X0179160Y0103304D01*
X0178826Y0103637D01*
X0178826Y0109806D01*
X0180026Y0111006D01*
X0180026Y0111393D01*
X0180360Y0111726D01*
X0180813Y0112822D01*
X0180813Y0114008D01*
X0180360Y0115104D01*
X0179521Y0115942D01*
X0178425Y0116396D01*
X0177239Y0116396D01*
X0176144Y0115942D01*
X0175305Y0115104D01*
X0174851Y0114008D01*
X0174851Y0112822D01*
X0175081Y0112266D01*
X0174517Y0111702D01*
X0174217Y0112003D01*
X0172904Y0112546D01*
X0171483Y0112546D01*
X0170171Y0112003D01*
X0169166Y0110998D01*
X0168622Y0109685D01*
X0168622Y0108264D01*
X0169166Y0106952D01*
X0170171Y0105947D01*
X0171483Y0105403D01*
X0172904Y0105403D01*
X0174217Y0105947D01*
X0174439Y0106169D01*
X0174439Y0103637D01*
X0174105Y0103304D01*
X0173651Y0102208D01*
X0173651Y0101022D01*
X0174105Y0099926D01*
X0174944Y0099088D01*
X0175056Y0099041D01*
X0174439Y0098424D01*
X0174439Y0084043D01*
X0173148Y0082752D01*
X0172676Y0082752D01*
X0171581Y0082298D01*
X0170742Y0081460D01*
X0170288Y0080364D01*
X0170288Y0079178D01*
X0170742Y0078082D01*
X0171581Y0077244D01*
X0172676Y0076790D01*
X0173862Y0076790D01*
X0174958Y0077244D01*
X0175797Y0078082D01*
X0176250Y0079178D01*
X0176250Y0079650D01*
X0178826Y0082225D01*
X0178826Y0096606D01*
X0190551Y0108332D01*
X0190551Y0092129D01*
X0187505Y0089083D01*
X0187029Y0089083D01*
X0186795Y0089317D01*
X0185699Y0089771D01*
X0184513Y0089771D01*
X0183418Y0089317D01*
X0182579Y0088478D01*
X0182125Y0087383D01*
X0182125Y0086197D01*
X0182579Y0085101D01*
X0183418Y0084263D01*
X0184513Y0083809D01*
X0185699Y0083809D01*
X0186795Y0084263D01*
X0187229Y0084696D01*
X0189323Y0084696D01*
X0190608Y0085981D01*
X0194939Y0090312D01*
X0194939Y0110391D01*
X0200450Y0115902D01*
X0200450Y0122269D01*
X0200784Y0122603D01*
X0201238Y0123698D01*
X0201238Y0124835D01*
X0202362Y0124835D01*
X0202362Y0123698D01*
X0202816Y0122603D01*
X0203655Y0121764D01*
X0204750Y0121310D01*
X0205222Y0121310D01*
X0206299Y0120233D01*
X0206299Y0089918D01*
X0210236Y0085981D01*
X0211521Y0084696D01*
X0226943Y0084696D01*
X0227277Y0084363D01*
X0228372Y0083909D01*
X0229558Y0083909D01*
X0230654Y0084363D01*
X0231493Y0085201D01*
X0231946Y0086297D01*
X0231946Y0087483D01*
X0231493Y0088578D01*
X0230667Y0089404D01*
X0230962Y0090116D01*
X0230962Y0091537D01*
X0230418Y0092850D01*
X0229414Y0093855D01*
X0228101Y0094398D01*
X0226680Y0094398D01*
X0225367Y0093855D01*
X0224363Y0092850D01*
X0223819Y0091537D01*
X0223819Y0090116D01*
X0224247Y0089083D01*
X0213339Y0089083D01*
X0210687Y0091735D01*
X0210687Y0122050D01*
X0209402Y0123335D01*
X0208324Y0124413D01*
X0208324Y0124835D01*
X0212368Y0124835D01*
X0218998Y0118205D01*
X0220101Y0117748D01*
X0245025Y0117748D01*
X0245052Y0117720D01*
X0246365Y0117176D01*
X0247786Y0117176D01*
X0249099Y0117720D01*
X0249127Y0117748D01*
X0277200Y0117748D01*
X0278303Y0118205D01*
X0287688Y0127591D01*
X0295418Y0127591D01*
X0295446Y0127563D01*
X0296759Y0127019D01*
X0298180Y0127019D01*
X0299492Y0127563D01*
X0300497Y0128567D01*
X0300909Y0129561D01*
X0301679Y0128791D01*
X0316313Y0128791D01*
X0316647Y0128457D01*
X0317674Y0128031D01*
X0316647Y0127606D01*
X0315808Y0126767D01*
X0315354Y0125672D01*
X0315354Y0125319D01*
X0314305Y0124270D01*
X0314269Y0124306D01*
X0313173Y0124760D01*
X0311987Y0124760D01*
X0310892Y0124306D01*
X0310053Y0123467D01*
X0309599Y0122372D01*
X0309599Y0121186D01*
X0310053Y0120090D01*
X0310892Y0119251D01*
X0311987Y0118798D01*
X0313173Y0118798D01*
X0313659Y0118999D01*
X0313659Y0117599D01*
X0309553Y0113493D01*
X0308268Y0112208D01*
X0308268Y0089962D01*
X0307804Y0089498D01*
X0307350Y0088402D01*
X0307350Y0087216D01*
X0307804Y0086121D01*
X0308643Y0085282D01*
X0309739Y0084828D01*
X0310924Y0084828D01*
X0312020Y0085282D01*
X0312205Y0085467D01*
X0312205Y0084800D01*
X0316929Y0080076D01*
X0316929Y0079604D01*
X0317383Y0078508D01*
X0318222Y0077670D01*
X0319317Y0077216D01*
X0320503Y0077216D01*
X0321599Y0077670D01*
X0322437Y0078508D01*
X0322891Y0079604D01*
X0322891Y0080790D01*
X0322437Y0081886D01*
X0321599Y0082724D01*
X0320503Y0083178D01*
X0320031Y0083178D01*
X0316592Y0086617D01*
X0316592Y0108712D01*
X0321213Y0108712D01*
X0322498Y0109997D01*
X0324072Y0111572D01*
X0324072Y0111909D01*
X0324120Y0111861D01*
X0326378Y0109603D01*
X0326378Y0092280D01*
X0331496Y0087162D01*
X0331496Y0086690D01*
X0331950Y0085595D01*
X0332788Y0084756D01*
X0333884Y0084302D01*
X0335070Y0084302D01*
X0336166Y0084756D01*
X0337004Y0085595D01*
X0337176Y0086010D01*
X0337899Y0085287D01*
X0373877Y0085287D01*
X0374076Y0084807D01*
X0374914Y0083969D01*
X0376010Y0083515D01*
X0377196Y0083515D01*
X0378292Y0083969D01*
X0379130Y0084807D01*
X0379584Y0085903D01*
X0379584Y0087089D01*
X0379130Y0088185D01*
X0378292Y0089023D01*
X0377196Y0089477D01*
X0376724Y0089477D01*
X0376528Y0089674D01*
X0352711Y0089674D01*
X0352813Y0089919D01*
X0352813Y0091340D01*
X0352269Y0092653D01*
X0351264Y0093658D01*
X0349951Y0094202D01*
X0348530Y0094202D01*
X0347218Y0093658D01*
X0346213Y0092653D01*
X0345669Y0091340D01*
X0345669Y0089919D01*
X0345771Y0089674D01*
X0339717Y0089674D01*
X0332340Y0097050D01*
X0332340Y0112602D01*
X0330372Y0114570D01*
X0330372Y0119513D01*
X0330705Y0119847D01*
X0331159Y0120942D01*
X0331159Y0122128D01*
X0330705Y0123224D01*
X0329867Y0124063D01*
X0328771Y0124517D01*
X0327585Y0124517D01*
X0327442Y0124457D01*
X0327949Y0124965D01*
X0328066Y0125247D01*
X0329165Y0125247D01*
X0329264Y0125288D01*
X0330033Y0124520D01*
X0331128Y0124066D01*
X0332314Y0124066D01*
X0332342Y0124078D01*
X0331890Y0123625D01*
X0331890Y0117871D01*
X0333858Y0115902D01*
X0333858Y0115431D01*
X0334312Y0114335D01*
X0335151Y0113496D01*
X0336246Y0113043D01*
X0337432Y0113043D01*
X0338528Y0113496D01*
X0339181Y0114149D01*
X0339430Y0113548D01*
X0340269Y0112709D01*
X0341364Y0112255D01*
X0342550Y0112255D01*
X0343646Y0112709D01*
X0344485Y0113548D01*
X0344939Y0114643D01*
X0344939Y0115829D01*
X0344485Y0116925D01*
X0344151Y0117258D01*
X0344151Y0118726D01*
X0344485Y0119059D01*
X0344939Y0120155D01*
X0344939Y0121341D01*
X0344788Y0121704D01*
X0344789Y0121704D01*
X0347835Y0118658D01*
X0349120Y0117373D01*
X0361982Y0117373D01*
X0362316Y0117040D01*
X0363412Y0116586D01*
X0364598Y0116586D01*
X0365693Y0117040D01*
X0366532Y0117878D01*
X0366986Y0118974D01*
X0366986Y0120160D01*
X0366532Y0121256D01*
X0365693Y0122094D01*
X0364598Y0122548D01*
X0363412Y0122548D01*
X0362316Y0122094D01*
X0361982Y0121761D01*
X0350937Y0121761D01*
X0346606Y0126091D01*
X0344036Y0126091D01*
X0344485Y0126540D01*
X0344939Y0127635D01*
X0344939Y0128821D01*
X0344485Y0129917D01*
X0343646Y0130756D01*
X0342550Y0131209D01*
X0342079Y0131209D01*
X0340898Y0132391D01*
X0338142Y0132391D01*
X0335883Y0134649D01*
X0335883Y0186836D01*
X0336217Y0187170D01*
X0336562Y0188002D01*
X0338976Y0185587D01*
X0338976Y0154660D01*
X0338643Y0154326D01*
X0338189Y0153231D01*
X0338189Y0152045D01*
X0338643Y0150949D01*
X0339481Y0150111D01*
X0340577Y0149657D01*
X0341763Y0149657D01*
X0342859Y0150111D01*
X0343697Y0150949D01*
X0344151Y0152045D01*
X0344151Y0153231D01*
X0343697Y0154326D01*
X0343364Y0154660D01*
X0343364Y0187405D01*
X0337065Y0193704D01*
X0335780Y0194989D01*
X0303647Y0194989D01*
X0292624Y0183965D01*
X0256403Y0183965D01*
X0251482Y0179044D01*
X0250197Y0177759D01*
X0250197Y0168619D01*
X0252966Y0165850D01*
X0252748Y0165325D01*
X0252748Y0163415D01*
X0253479Y0161651D01*
X0254829Y0160301D01*
X0256593Y0159570D01*
X0258503Y0159570D01*
X0260267Y0160301D01*
X0261617Y0161651D01*
X0262348Y0163415D01*
X0262348Y0165325D01*
X0261617Y0167089D01*
X0260267Y0168439D01*
X0258503Y0169170D01*
X0256593Y0169170D01*
X0256068Y0168952D01*
X0254584Y0170436D01*
X0254584Y0170546D01*
X0255560Y0169570D01*
X0259536Y0169570D01*
X0262348Y0172382D01*
X0262348Y0176358D01*
X0259536Y0179170D01*
X0257813Y0179170D01*
X0258220Y0179578D01*
X0269654Y0179578D01*
X0269246Y0179170D01*
X0265560Y0179170D01*
X0262748Y0176358D01*
X0262748Y0172382D01*
X0265560Y0169570D01*
X0269536Y0169570D01*
X0272348Y0172382D01*
X0272348Y0176068D01*
X0273890Y0177609D01*
X0273999Y0177609D01*
X0272748Y0176358D01*
X0272748Y0172382D01*
X0275560Y0169570D01*
X0279536Y0169570D01*
X0282348Y0172382D01*
X0282348Y0176358D01*
X0281097Y0177609D01*
X0294835Y0177609D01*
X0296120Y0178894D01*
X0301134Y0183909D01*
X0322666Y0183909D01*
X0322402Y0183270D01*
X0322402Y0182084D01*
X0322855Y0180988D01*
X0323189Y0180655D01*
X0323189Y0157973D01*
X0321606Y0159556D01*
X0233258Y0159556D01*
X0233258Y0160499D01*
X0232804Y0161595D01*
X0231966Y0162434D01*
X0230870Y0162887D01*
X0229684Y0162887D01*
X0228588Y0162434D01*
X0227750Y0161595D01*
X0227296Y0160499D01*
X0227296Y0159556D01*
X0207584Y0159556D01*
X0206403Y0158375D01*
X0205931Y0158375D01*
X0204836Y0157921D01*
X0203997Y0157082D01*
X0203768Y0156528D01*
X0203102Y0157194D01*
X0198225Y0157194D01*
X0197275Y0157587D01*
X0196089Y0157587D01*
X0195726Y0157437D01*
X0195726Y0168658D01*
X0196803Y0169735D01*
X0196855Y0169735D01*
X0201841Y0174721D01*
X0235053Y0174721D01*
X0237866Y0171908D01*
X0237866Y0171436D01*
X0238320Y0170340D01*
X0239159Y0169502D01*
X0240254Y0169048D01*
X0241440Y0169048D01*
X0242536Y0169502D01*
X0243374Y0170340D01*
X0243441Y0170501D01*
X0243504Y0170438D01*
X0243504Y0165487D01*
X0243170Y0165153D01*
X0242717Y0164058D01*
X0242717Y0162872D01*
X0243170Y0161776D01*
X0244009Y0160937D01*
X0245105Y0160483D01*
X0246291Y0160483D01*
X0247386Y0160937D01*
X0248225Y0161776D01*
X0248679Y0162872D01*
X0248679Y0164058D01*
X0248225Y0165153D01*
X0247891Y0165487D01*
X0247891Y0172255D01*
X0246074Y0174072D01*
X0246089Y0174066D01*
X0247275Y0174066D01*
X0248371Y0174520D01*
X0249209Y0175359D01*
X0249663Y0176454D01*
X0249663Y0177640D01*
X0249209Y0178736D01*
X0248876Y0179069D01*
X0248876Y0187602D01*
X0242970Y0193507D01*
X0242970Y0193979D01*
X0242516Y0195074D01*
X0241678Y0195913D01*
X0240582Y0196367D01*
X0239396Y0196367D01*
X0238300Y0195913D01*
X0237462Y0195074D01*
X0237008Y0193979D01*
X0237008Y0192793D01*
X0237462Y0191697D01*
X0238300Y0190859D01*
X0239396Y0190405D01*
X0239868Y0190405D01*
X0244488Y0185784D01*
X0244488Y0179069D01*
X0244155Y0178736D01*
X0243701Y0177640D01*
X0243701Y0176454D01*
X0243707Y0176440D01*
X0239435Y0180712D01*
X0238150Y0181997D01*
X0196803Y0181997D01*
X0191002Y0187798D01*
X0191002Y0187798D01*
X0189717Y0189083D01*
X0182956Y0189083D01*
X0182623Y0189417D01*
X0181527Y0189871D01*
X0180341Y0189871D01*
X0179245Y0189417D01*
X0178407Y0188578D01*
X0177953Y0187483D01*
X0177953Y0186297D01*
X0178407Y0185201D01*
X0179245Y0184362D01*
X0180204Y0183965D01*
X0131291Y0183965D01*
X0123393Y0191863D01*
X0123600Y0192362D01*
X0123600Y0194252D01*
X0122876Y0195999D01*
X0121539Y0197336D01*
X0119793Y0198060D01*
X0117902Y0198060D01*
X0117403Y0197853D01*
X0116041Y0199216D01*
X0114756Y0200501D01*
X0112762Y0200501D01*
X0112876Y0200615D01*
X0113600Y0202362D01*
X0113600Y0204252D01*
X0112876Y0205999D01*
X0111539Y0207336D01*
X0109793Y0208060D01*
X0107902Y0208060D01*
X0106155Y0207336D01*
X0104818Y0205999D01*
X0104094Y0204252D01*
X0104094Y0202362D01*
X0104163Y0202196D01*
X0090892Y0215467D01*
X0090941Y0215516D01*
X0091395Y0216612D01*
X0091395Y0217798D01*
X0090941Y0218893D01*
X0090103Y0219732D01*
X0089007Y0220186D01*
X0087821Y0220186D01*
X0086726Y0219732D01*
X0085887Y0218893D01*
X0085433Y0217798D01*
X0085433Y0216612D01*
X0085887Y0215516D01*
X0086220Y0215182D01*
X0086220Y0213934D01*
X0089024Y0211131D01*
X0088443Y0211131D01*
X0088443Y0211420D01*
X0087157Y0212705D01*
X0076528Y0223335D01*
X0052838Y0223335D01*
X0052504Y0223669D01*
X0051409Y0224123D01*
X0050223Y0224123D01*
X0049127Y0223669D01*
X0048288Y0222830D01*
X0047835Y0221735D01*
X0047835Y0220549D01*
X0048288Y0219453D01*
X0049127Y0218614D01*
X0050223Y0218161D01*
X0051409Y0218161D01*
X0052504Y0218614D01*
X0052838Y0218948D01*
X0057434Y0218948D01*
X0057283Y0218585D01*
X0057283Y0218217D01*
X0056522Y0218217D01*
X0055426Y0217763D01*
X0054588Y0216925D01*
X0054134Y0215829D01*
X0054134Y0214643D01*
X0054588Y0213548D01*
X0054921Y0213214D01*
X0054921Y0198035D01*
X0050827Y0193940D01*
X0050300Y0195212D01*
X0049296Y0196217D01*
X0047983Y0196761D01*
X0046562Y0196761D01*
X0045249Y0196217D01*
X0044245Y0195212D01*
X0043701Y0193899D01*
X0043701Y0192479D01*
X0044245Y0191166D01*
X0045249Y0190161D01*
X0045529Y0190045D01*
X0043142Y0187658D01*
X0043142Y0183681D01*
X0045954Y0180869D01*
X0049930Y0180869D01*
X0050787Y0181727D01*
X0050787Y0181617D01*
X0049639Y0180469D01*
X0045954Y0180469D01*
X0043142Y0177658D01*
X0043142Y0173681D01*
X0045954Y0170869D01*
X0049930Y0170869D01*
X0052742Y0173681D01*
X0052742Y0177367D01*
X0055175Y0179800D01*
X0055175Y0181648D01*
X0055954Y0180869D01*
X0059930Y0180869D01*
X0060630Y0181569D01*
X0060630Y0181460D01*
X0059639Y0180469D01*
X0055954Y0180469D01*
X0053142Y0177658D01*
X0053142Y0173681D01*
X0055954Y0170869D01*
X0059930Y0170869D01*
X0062742Y0173681D01*
X0062742Y0177367D01*
X0065017Y0179643D01*
X0065017Y0181805D01*
X0065954Y0180869D01*
X0069930Y0180869D01*
X0070866Y0181805D01*
X0070866Y0181696D01*
X0069639Y0180469D01*
X0065954Y0180469D01*
X0063142Y0177658D01*
X0063142Y0173681D01*
X0065954Y0170869D01*
X0069930Y0170869D01*
X0072742Y0173681D01*
X0072742Y0177367D01*
X0075254Y0179879D01*
X0075254Y0181569D01*
X0075954Y0180869D01*
X0079930Y0180869D01*
X0082742Y0183681D01*
X0082742Y0187658D01*
X0079930Y0190469D01*
X0075954Y0190469D01*
X0075057Y0189572D01*
X0075057Y0215970D01*
X0075390Y0216303D01*
X0075844Y0217399D01*
X0075844Y0217814D01*
X0084055Y0209603D01*
X0084055Y0202401D01*
X0083416Y0202666D01*
X0081995Y0202666D01*
X0080682Y0202122D01*
X0079678Y0201118D01*
X0079134Y0199805D01*
X0079134Y0198384D01*
X0079678Y0197071D01*
X0080682Y0196067D01*
X0081995Y0195523D01*
X0083416Y0195523D01*
X0084220Y0195856D01*
X0089606Y0190469D01*
X0085954Y0190469D01*
X0083142Y0187658D01*
X0083142Y0183681D01*
X0085954Y0180869D01*
X0089930Y0180869D01*
X0092742Y0183681D01*
X0092742Y0187334D01*
X0135039Y0145036D01*
X0135039Y0144564D01*
X0135493Y0143469D01*
X0136332Y0142630D01*
X0137427Y0142176D01*
X0138613Y0142176D01*
X0139709Y0142630D01*
X0140043Y0142964D01*
X0143554Y0142964D01*
X0143283Y0142692D01*
X0142559Y0140945D01*
X0142559Y0139055D01*
X0143283Y0137308D01*
X0144620Y0135971D01*
X0146366Y0135247D01*
X0148257Y0135247D01*
X0150004Y0135971D01*
X0151341Y0137308D01*
X0152065Y0139055D01*
X0152065Y0140945D01*
X0151341Y0142692D01*
X0151069Y0142964D01*
X0162846Y0142964D01*
X0162635Y0142673D01*
X0162270Y0141958D01*
X0162022Y0141194D01*
X0161897Y0140401D01*
X0161897Y0140184D01*
X0166813Y0140184D01*
X0166813Y0139816D01*
X0167181Y0139816D01*
X0167181Y0140184D01*
X0172097Y0140184D01*
X0172097Y0140401D01*
X0171971Y0141194D01*
X0171723Y0141958D01*
X0171359Y0142673D01*
X0171147Y0142964D01*
X0182387Y0142964D01*
X0194517Y0130835D01*
X0191459Y0130835D01*
X0191048Y0131826D01*
X0190044Y0132831D01*
X0188731Y0133375D01*
X0187310Y0133375D01*
X0185997Y0132831D01*
X0184993Y0131826D01*
X0184449Y0130514D01*
X0184449Y0129093D01*
X0184993Y0127780D01*
X0185997Y0126775D01*
X0187310Y0126231D01*
X0187349Y0126231D01*
X0188290Y0125291D01*
X0189392Y0124835D01*
X0191182Y0124835D01*
X0190269Y0124456D01*
X0189430Y0123618D01*
X0188976Y0122522D01*
X0188976Y0121336D01*
X0189430Y0120240D01*
X0190960Y0119116D02*
X0101283Y0119116D01*
X0099930Y0120469D02*
X0098142Y0120469D01*
X0098142Y0115869D01*
X0102742Y0115869D01*
X0102742Y0117658D01*
X0099930Y0120469D01*
X0099930Y0120869D02*
X0102742Y0123681D01*
X0102742Y0127658D01*
X0099930Y0130469D01*
X0095954Y0130469D01*
X0093142Y0127658D01*
X0093142Y0123681D01*
X0095954Y0120869D01*
X0099930Y0120869D01*
X0101373Y0122313D02*
X0188976Y0122313D01*
X0189724Y0123911D02*
X0102742Y0123911D01*
X0102742Y0125510D02*
X0188071Y0125510D01*
X0185664Y0127108D02*
X0102742Y0127108D01*
X0101692Y0128707D02*
X0184609Y0128707D01*
X0184449Y0130305D02*
X0100094Y0130305D01*
X0095790Y0130305D02*
X0090094Y0130305D01*
X0089930Y0130469D02*
X0092742Y0127658D01*
X0092742Y0123681D01*
X0089930Y0120869D01*
X0085954Y0120869D01*
X0083142Y0123681D01*
X0083142Y0127658D01*
X0085954Y0130469D01*
X0089930Y0130469D01*
X0091692Y0128707D02*
X0094191Y0128707D01*
X0093142Y0127108D02*
X0092742Y0127108D01*
X0092742Y0125510D02*
X0093142Y0125510D01*
X0093142Y0123911D02*
X0092742Y0123911D01*
X0091373Y0122313D02*
X0094510Y0122313D01*
X0095954Y0120469D02*
X0093142Y0117658D01*
X0093142Y0115869D01*
X0097742Y0115869D01*
X0097742Y0115469D01*
X0098142Y0115469D01*
X0098142Y0115869D01*
X0097742Y0115869D01*
X0097742Y0120469D01*
X0095954Y0120469D01*
X0094600Y0119116D02*
X0091283Y0119116D01*
X0089930Y0120469D02*
X0092742Y0117658D01*
X0092742Y0115869D01*
X0088142Y0115869D01*
X0088142Y0115469D01*
X0092742Y0115469D01*
X0092742Y0113681D01*
X0089930Y0110869D01*
X0088142Y0110869D01*
X0088142Y0115469D01*
X0087742Y0115469D01*
X0087742Y0110869D01*
X0085954Y0110869D01*
X0083142Y0113681D01*
X0083142Y0115469D01*
X0087742Y0115469D01*
X0087742Y0115869D01*
X0083142Y0115869D01*
X0083142Y0117658D01*
X0085954Y0120469D01*
X0087742Y0120469D01*
X0087742Y0115869D01*
X0088142Y0115869D01*
X0088142Y0120469D01*
X0089930Y0120469D01*
X0088142Y0119116D02*
X0087742Y0119116D01*
X0087742Y0117517D02*
X0088142Y0117517D01*
X0088142Y0115919D02*
X0087742Y0115919D01*
X0087742Y0114320D02*
X0088142Y0114320D01*
X0088142Y0112722D02*
X0087742Y0112722D01*
X0087742Y0111123D02*
X0088142Y0111123D01*
X0090184Y0111123D02*
X0095700Y0111123D01*
X0095954Y0110869D02*
X0097742Y0110869D01*
X0097742Y0115469D01*
X0093142Y0115469D01*
X0093142Y0113681D01*
X0095954Y0110869D01*
X0097742Y0111123D02*
X0098142Y0111123D01*
X0098142Y0110869D02*
X0099930Y0110869D01*
X0102742Y0113681D01*
X0102742Y0115469D01*
X0098142Y0115469D01*
X0098142Y0110869D01*
X0098142Y0112722D02*
X0097742Y0112722D01*
X0097742Y0114320D02*
X0098142Y0114320D01*
X0098142Y0115919D02*
X0097742Y0115919D01*
X0097742Y0117517D02*
X0098142Y0117517D01*
X0098142Y0119116D02*
X0097742Y0119116D01*
X0093142Y0117517D02*
X0092742Y0117517D01*
X0092742Y0115919D02*
X0093142Y0115919D01*
X0093142Y0114320D02*
X0092742Y0114320D01*
X0091782Y0112722D02*
X0094101Y0112722D01*
X0100184Y0111123D02*
X0118532Y0111123D01*
X0118532Y0109525D02*
X0029627Y0109525D01*
X0030463Y0107926D02*
X0118532Y0107926D01*
X0118532Y0106328D02*
X0030647Y0106328D01*
X0030291Y0104729D02*
X0118532Y0104729D01*
X0126603Y0104729D02*
X0174439Y0104729D01*
X0174033Y0103131D02*
X0126603Y0103131D01*
X0126603Y0101532D02*
X0173651Y0101532D01*
X0174102Y0099934D02*
X0126603Y0099934D01*
X0126603Y0106328D02*
X0169790Y0106328D01*
X0168762Y0107926D02*
X0126603Y0107926D01*
X0126603Y0109525D02*
X0168622Y0109525D01*
X0169291Y0111123D02*
X0126603Y0111123D01*
X0126603Y0112722D02*
X0174893Y0112722D01*
X0174981Y0114320D02*
X0126603Y0114320D01*
X0123995Y0115919D02*
X0176120Y0115919D01*
X0179544Y0115919D02*
X0191934Y0115919D01*
X0193307Y0117517D02*
X0102742Y0117517D01*
X0102742Y0115919D02*
X0121338Y0115919D01*
X0118532Y0114320D02*
X0102742Y0114320D01*
X0101782Y0112722D02*
X0118532Y0112722D01*
X0140186Y0098335D02*
X0174439Y0098335D01*
X0174439Y0096737D02*
X0140186Y0096737D01*
X0140186Y0095138D02*
X0174439Y0095138D01*
X0174439Y0093540D02*
X0152361Y0093540D01*
X0152329Y0093571D02*
X0151017Y0094115D01*
X0149596Y0094115D01*
X0148283Y0093571D01*
X0147278Y0092566D01*
X0146735Y0091254D01*
X0146735Y0089833D01*
X0147278Y0088520D01*
X0148283Y0087515D01*
X0149596Y0086972D01*
X0151017Y0086972D01*
X0152329Y0087515D01*
X0153334Y0088520D01*
X0153878Y0089833D01*
X0153878Y0091254D01*
X0153334Y0092566D01*
X0152329Y0093571D01*
X0153593Y0091941D02*
X0174439Y0091941D01*
X0174439Y0090343D02*
X0153878Y0090343D01*
X0153427Y0088744D02*
X0174439Y0088744D01*
X0174439Y0087146D02*
X0151436Y0087146D01*
X0149176Y0087146D02*
X0118926Y0087146D01*
X0118926Y0088744D02*
X0147186Y0088744D01*
X0146735Y0090343D02*
X0118926Y0090343D01*
X0118926Y0085547D02*
X0174439Y0085547D01*
X0174345Y0083948D02*
X0118926Y0083948D01*
X0118926Y0082350D02*
X0171706Y0082350D01*
X0170449Y0080751D02*
X0118926Y0080751D01*
X0118926Y0079153D02*
X0170298Y0079153D01*
X0171270Y0077554D02*
X0118926Y0077554D01*
X0118926Y0075956D02*
X0439976Y0075956D01*
X0439976Y0077554D02*
X0321321Y0077554D01*
X0322705Y0079153D02*
X0439976Y0079153D01*
X0439976Y0080751D02*
X0322891Y0080751D01*
X0321973Y0082350D02*
X0439976Y0082350D01*
X0439976Y0083948D02*
X0378243Y0083948D01*
X0379437Y0085547D02*
X0439976Y0085547D01*
X0439976Y0087146D02*
X0379561Y0087146D01*
X0378571Y0088744D02*
X0439976Y0088744D01*
X0439976Y0090343D02*
X0352813Y0090343D01*
X0352564Y0091941D02*
X0439976Y0091941D01*
X0439976Y0093540D02*
X0351382Y0093540D01*
X0347100Y0093540D02*
X0335851Y0093540D01*
X0334252Y0095138D02*
X0439976Y0095138D01*
X0439976Y0096737D02*
X0332654Y0096737D01*
X0332340Y0098335D02*
X0439976Y0098335D01*
X0439976Y0099934D02*
X0332340Y0099934D01*
X0332340Y0101532D02*
X0439976Y0101532D01*
X0439976Y0103131D02*
X0332340Y0103131D01*
X0332340Y0104729D02*
X0439976Y0104729D01*
X0439976Y0106328D02*
X0332340Y0106328D01*
X0332340Y0107926D02*
X0439976Y0107926D01*
X0439976Y0109525D02*
X0332340Y0109525D01*
X0332340Y0111123D02*
X0439976Y0111123D01*
X0439976Y0112722D02*
X0343659Y0112722D01*
X0344805Y0114320D02*
X0439976Y0114320D01*
X0439976Y0115919D02*
X0344901Y0115919D01*
X0344151Y0117517D02*
X0348976Y0117517D01*
X0347377Y0119116D02*
X0344508Y0119116D01*
X0344939Y0120714D02*
X0345779Y0120714D01*
X0348786Y0123911D02*
X0355750Y0123911D01*
X0355966Y0123390D02*
X0356804Y0122551D01*
X0357900Y0122098D01*
X0359086Y0122098D01*
X0360182Y0122551D01*
X0361020Y0123390D01*
X0361474Y0124486D01*
X0361474Y0125672D01*
X0361020Y0126767D01*
X0360182Y0127606D01*
X0359086Y0128060D01*
X0357900Y0128060D01*
X0356804Y0127606D01*
X0355966Y0126767D01*
X0355512Y0125672D01*
X0355512Y0124486D01*
X0355966Y0123390D01*
X0357381Y0122313D02*
X0350385Y0122313D01*
X0347188Y0125510D02*
X0355512Y0125510D01*
X0356307Y0127108D02*
X0344720Y0127108D01*
X0344939Y0128707D02*
X0439976Y0128707D01*
X0439976Y0130305D02*
X0344096Y0130305D01*
X0341384Y0131904D02*
X0439976Y0131904D01*
X0439976Y0133502D02*
X0337030Y0133502D01*
X0335883Y0135101D02*
X0439976Y0135101D01*
X0439976Y0136699D02*
X0335883Y0136699D01*
X0335883Y0138298D02*
X0439976Y0138298D01*
X0439976Y0139896D02*
X0402438Y0139896D01*
X0402682Y0140141D02*
X0403321Y0141684D01*
X0403321Y0143355D01*
X0402682Y0144899D01*
X0401500Y0146080D01*
X0399957Y0146720D01*
X0393486Y0146720D01*
X0391942Y0146080D01*
X0390761Y0144899D01*
X0390121Y0143355D01*
X0390121Y0141684D01*
X0390761Y0140141D01*
X0391942Y0138959D01*
X0393486Y0138320D01*
X0399957Y0138320D01*
X0401500Y0138959D01*
X0402682Y0140141D01*
X0403243Y0141495D02*
X0439976Y0141495D01*
X0439976Y0143093D02*
X0403321Y0143093D01*
X0402768Y0144692D02*
X0439976Y0144692D01*
X0439976Y0146290D02*
X0400993Y0146290D01*
X0399957Y0148320D02*
X0401500Y0148959D01*
X0402682Y0150141D01*
X0403321Y0151684D01*
X0403321Y0153355D01*
X0402682Y0154899D01*
X0401500Y0156080D01*
X0399957Y0156720D01*
X0393486Y0156720D01*
X0391942Y0156080D01*
X0390761Y0154899D01*
X0390121Y0153355D01*
X0390121Y0151684D01*
X0390761Y0150141D01*
X0391942Y0148959D01*
X0393486Y0148320D01*
X0399957Y0148320D01*
X0402029Y0149487D02*
X0439976Y0149487D01*
X0439976Y0147889D02*
X0335883Y0147889D01*
X0335883Y0149487D02*
X0361414Y0149487D01*
X0361942Y0148959D02*
X0360761Y0150141D01*
X0360121Y0151684D01*
X0360121Y0153355D01*
X0360761Y0154899D01*
X0361942Y0156080D01*
X0363486Y0156720D01*
X0369957Y0156720D01*
X0371500Y0156080D01*
X0372682Y0154899D01*
X0373321Y0153355D01*
X0373321Y0151684D01*
X0372682Y0150141D01*
X0371500Y0148959D01*
X0369957Y0148320D01*
X0363486Y0148320D01*
X0361942Y0148959D01*
X0360369Y0151086D02*
X0343754Y0151086D01*
X0344151Y0152684D02*
X0360121Y0152684D01*
X0360506Y0154283D02*
X0343715Y0154283D01*
X0343364Y0155882D02*
X0361743Y0155882D01*
X0357472Y0157480D02*
X0439976Y0157480D01*
X0439976Y0155882D02*
X0401699Y0155882D01*
X0402937Y0154283D02*
X0439976Y0154283D01*
X0439976Y0152684D02*
X0403321Y0152684D01*
X0403073Y0151086D02*
X0439976Y0151086D01*
X0439976Y0159079D02*
X0358009Y0159079D01*
X0358009Y0158778D02*
X0357466Y0157465D01*
X0356461Y0156460D01*
X0355148Y0155917D01*
X0353727Y0155917D01*
X0352415Y0156460D01*
X0351410Y0157465D01*
X0350866Y0158778D01*
X0350866Y0160199D01*
X0351410Y0161511D01*
X0352415Y0162516D01*
X0353727Y0163060D01*
X0355148Y0163060D01*
X0356461Y0162516D01*
X0357466Y0161511D01*
X0358009Y0160199D01*
X0358009Y0158778D01*
X0357811Y0160677D02*
X0439976Y0160677D01*
X0439976Y0162276D02*
X0356701Y0162276D01*
X0352174Y0162276D02*
X0343364Y0162276D01*
X0343364Y0163874D02*
X0439976Y0163874D01*
X0439976Y0165473D02*
X0343364Y0165473D01*
X0343364Y0167071D02*
X0439976Y0167071D01*
X0439976Y0168670D02*
X0343364Y0168670D01*
X0343364Y0170268D02*
X0439976Y0170268D01*
X0439976Y0171867D02*
X0343364Y0171867D01*
X0343364Y0173465D02*
X0439976Y0173465D01*
X0439976Y0175064D02*
X0343364Y0175064D01*
X0343364Y0176662D02*
X0439976Y0176662D01*
X0439976Y0178261D02*
X0343364Y0178261D01*
X0343364Y0179859D02*
X0439976Y0179859D01*
X0439976Y0181458D02*
X0343364Y0181458D01*
X0343364Y0183056D02*
X0439976Y0183056D01*
X0439976Y0184655D02*
X0343364Y0184655D01*
X0343364Y0186253D02*
X0439976Y0186253D01*
X0439976Y0187852D02*
X0342917Y0187852D01*
X0341318Y0189450D02*
X0439976Y0189450D01*
X0439976Y0191049D02*
X0339720Y0191049D01*
X0338121Y0192647D02*
X0439976Y0192647D01*
X0439976Y0194246D02*
X0336523Y0194246D01*
X0336500Y0187852D02*
X0336712Y0187852D01*
X0335883Y0186253D02*
X0338311Y0186253D01*
X0338976Y0184655D02*
X0335883Y0184655D01*
X0335883Y0183056D02*
X0338976Y0183056D01*
X0338976Y0181458D02*
X0335883Y0181458D01*
X0335883Y0179859D02*
X0338976Y0179859D01*
X0338976Y0178261D02*
X0335883Y0178261D01*
X0335883Y0176662D02*
X0338976Y0176662D01*
X0338976Y0175064D02*
X0335883Y0175064D01*
X0335883Y0173465D02*
X0338976Y0173465D01*
X0338976Y0171867D02*
X0335883Y0171867D01*
X0335883Y0170268D02*
X0338976Y0170268D01*
X0338976Y0168670D02*
X0335883Y0168670D01*
X0335883Y0167071D02*
X0338976Y0167071D01*
X0338976Y0165473D02*
X0335883Y0165473D01*
X0335883Y0163874D02*
X0338976Y0163874D01*
X0338976Y0162276D02*
X0335883Y0162276D01*
X0335883Y0160677D02*
X0338976Y0160677D01*
X0338976Y0159079D02*
X0335883Y0159079D01*
X0335883Y0157480D02*
X0338976Y0157480D01*
X0338976Y0155882D02*
X0335883Y0155882D01*
X0335883Y0154283D02*
X0338625Y0154283D01*
X0338189Y0152684D02*
X0335883Y0152684D01*
X0335883Y0151086D02*
X0338586Y0151086D01*
X0335883Y0146290D02*
X0362450Y0146290D01*
X0361942Y0146080D02*
X0360761Y0144899D01*
X0360121Y0143355D01*
X0360121Y0141684D01*
X0360761Y0140141D01*
X0361942Y0138959D01*
X0363486Y0138320D01*
X0369957Y0138320D01*
X0371500Y0138959D01*
X0372682Y0140141D01*
X0373321Y0141684D01*
X0373321Y0143355D01*
X0372682Y0144899D01*
X0371500Y0146080D01*
X0369957Y0146720D01*
X0363486Y0146720D01*
X0361942Y0146080D01*
X0360675Y0144692D02*
X0335883Y0144692D01*
X0335883Y0143093D02*
X0360121Y0143093D01*
X0360200Y0141495D02*
X0335883Y0141495D01*
X0335883Y0139896D02*
X0361005Y0139896D01*
X0372438Y0139896D02*
X0391005Y0139896D01*
X0390200Y0141495D02*
X0373243Y0141495D01*
X0373321Y0143093D02*
X0390121Y0143093D01*
X0390675Y0144692D02*
X0372768Y0144692D01*
X0370993Y0146290D02*
X0392450Y0146290D01*
X0391414Y0149487D02*
X0372029Y0149487D01*
X0373073Y0151086D02*
X0390369Y0151086D01*
X0390121Y0152684D02*
X0373321Y0152684D01*
X0372937Y0154283D02*
X0390506Y0154283D01*
X0391743Y0155882D02*
X0371699Y0155882D01*
X0351404Y0157480D02*
X0343364Y0157480D01*
X0343364Y0159079D02*
X0350866Y0159079D01*
X0351064Y0160677D02*
X0343364Y0160677D01*
X0329921Y0168706D02*
X0329676Y0168808D01*
X0328255Y0168808D01*
X0327576Y0168527D01*
X0327576Y0180655D01*
X0327910Y0180988D01*
X0328364Y0182084D01*
X0328364Y0183208D01*
X0329921Y0181650D01*
X0329921Y0168706D01*
X0329921Y0170268D02*
X0327576Y0170268D01*
X0327576Y0168670D02*
X0327921Y0168670D01*
X0327576Y0171867D02*
X0329921Y0171867D01*
X0329921Y0173465D02*
X0327576Y0173465D01*
X0327576Y0175064D02*
X0329921Y0175064D01*
X0329921Y0176662D02*
X0327576Y0176662D01*
X0327576Y0178261D02*
X0329921Y0178261D01*
X0329921Y0179859D02*
X0327576Y0179859D01*
X0328104Y0181458D02*
X0329921Y0181458D01*
X0328515Y0183056D02*
X0328364Y0183056D01*
X0322661Y0181458D02*
X0298683Y0181458D01*
X0300281Y0183056D02*
X0322402Y0183056D01*
X0323189Y0179859D02*
X0297084Y0179859D01*
X0295486Y0178261D02*
X0323189Y0178261D01*
X0323189Y0176662D02*
X0282044Y0176662D01*
X0282348Y0175064D02*
X0323189Y0175064D01*
X0323189Y0173465D02*
X0282348Y0173465D01*
X0281833Y0171867D02*
X0323189Y0171867D01*
X0323189Y0170268D02*
X0280234Y0170268D01*
X0279536Y0169170D02*
X0275560Y0169170D01*
X0272748Y0166358D01*
X0272748Y0162382D01*
X0275560Y0159570D01*
X0279536Y0159570D01*
X0282348Y0162382D01*
X0282348Y0166358D01*
X0279536Y0169170D01*
X0280037Y0168670D02*
X0323189Y0168670D01*
X0323189Y0167071D02*
X0281635Y0167071D01*
X0282348Y0165473D02*
X0323189Y0165473D01*
X0323189Y0163874D02*
X0282348Y0163874D01*
X0282242Y0162276D02*
X0323189Y0162276D01*
X0323189Y0160677D02*
X0280643Y0160677D01*
X0274453Y0160677D02*
X0270643Y0160677D01*
X0269536Y0159570D02*
X0272348Y0162382D01*
X0272348Y0166358D01*
X0269536Y0169170D01*
X0265560Y0169170D01*
X0262748Y0166358D01*
X0262748Y0162382D01*
X0265560Y0159570D01*
X0269536Y0159570D01*
X0272242Y0162276D02*
X0272854Y0162276D01*
X0272748Y0163874D02*
X0272348Y0163874D01*
X0272348Y0165473D02*
X0272748Y0165473D01*
X0273461Y0167071D02*
X0271635Y0167071D01*
X0270037Y0168670D02*
X0275059Y0168670D01*
X0274862Y0170268D02*
X0270234Y0170268D01*
X0271833Y0171867D02*
X0273263Y0171867D01*
X0272748Y0173465D02*
X0272348Y0173465D01*
X0272348Y0175064D02*
X0272748Y0175064D01*
X0272942Y0176662D02*
X0273052Y0176662D01*
X0264650Y0178261D02*
X0260446Y0178261D01*
X0262044Y0176662D02*
X0263052Y0176662D01*
X0262748Y0175064D02*
X0262348Y0175064D01*
X0262348Y0173465D02*
X0262748Y0173465D01*
X0263263Y0171867D02*
X0261833Y0171867D01*
X0260234Y0170268D02*
X0264862Y0170268D01*
X0265059Y0168670D02*
X0259711Y0168670D01*
X0261625Y0167071D02*
X0263461Y0167071D01*
X0262748Y0165473D02*
X0262287Y0165473D01*
X0262348Y0163874D02*
X0262748Y0163874D01*
X0262854Y0162276D02*
X0261876Y0162276D01*
X0260643Y0160677D02*
X0264453Y0160677D01*
X0254453Y0160677D02*
X0246758Y0160677D01*
X0244637Y0160677D02*
X0233185Y0160677D01*
X0232124Y0162276D02*
X0242963Y0162276D01*
X0242717Y0163874D02*
X0209702Y0163874D01*
X0209702Y0163978D02*
X0209159Y0165291D01*
X0208154Y0166296D01*
X0206841Y0166839D01*
X0205420Y0166839D01*
X0204108Y0166296D01*
X0203103Y0165291D01*
X0202559Y0163978D01*
X0202559Y0162557D01*
X0203103Y0161245D01*
X0204108Y0160240D01*
X0205420Y0159696D01*
X0206841Y0159696D01*
X0208154Y0160240D01*
X0209159Y0161245D01*
X0209702Y0162557D01*
X0209702Y0163978D01*
X0208977Y0165473D02*
X0243490Y0165473D01*
X0243504Y0167071D02*
X0195726Y0167071D01*
X0195726Y0165473D02*
X0203284Y0165473D01*
X0202559Y0163874D02*
X0195726Y0163874D01*
X0195726Y0162276D02*
X0202676Y0162276D01*
X0203670Y0160677D02*
X0195726Y0160677D01*
X0195726Y0159079D02*
X0207107Y0159079D01*
X0208591Y0160677D02*
X0227370Y0160677D01*
X0228430Y0162276D02*
X0209586Y0162276D01*
X0204395Y0157480D02*
X0197534Y0157480D01*
X0195830Y0157480D02*
X0195726Y0157480D01*
X0191339Y0157480D02*
X0189824Y0157480D01*
X0189033Y0158271D02*
X0189033Y0175745D01*
X0189323Y0176035D01*
X0190608Y0177320D01*
X0190608Y0181987D01*
X0193701Y0178894D01*
X0193701Y0178894D01*
X0194986Y0177609D01*
X0198524Y0177609D01*
X0195038Y0174123D01*
X0194986Y0174123D01*
X0193701Y0172838D01*
X0191339Y0170476D01*
X0191339Y0155965D01*
X0189033Y0158271D01*
X0189033Y0159079D02*
X0191339Y0159079D01*
X0191339Y0160677D02*
X0189033Y0160677D01*
X0189033Y0162276D02*
X0191339Y0162276D01*
X0191339Y0163874D02*
X0189033Y0163874D01*
X0189033Y0165473D02*
X0191339Y0165473D01*
X0191339Y0167071D02*
X0189033Y0167071D01*
X0189033Y0168670D02*
X0191339Y0168670D01*
X0191339Y0170268D02*
X0189033Y0170268D01*
X0189033Y0171867D02*
X0192730Y0171867D01*
X0194328Y0173465D02*
X0189033Y0173465D01*
X0189033Y0175064D02*
X0195979Y0175064D01*
X0197577Y0176662D02*
X0189950Y0176662D01*
X0190608Y0178261D02*
X0194335Y0178261D01*
X0192736Y0179859D02*
X0190608Y0179859D01*
X0190608Y0181458D02*
X0191138Y0181458D01*
X0195744Y0183056D02*
X0244488Y0183056D01*
X0244488Y0181458D02*
X0238689Y0181458D01*
X0239435Y0180712D02*
X0239435Y0180712D01*
X0240287Y0179859D02*
X0244488Y0179859D01*
X0243958Y0178261D02*
X0241886Y0178261D01*
X0243484Y0176662D02*
X0243701Y0176662D01*
X0248914Y0175064D02*
X0250197Y0175064D01*
X0250197Y0176662D02*
X0249663Y0176662D01*
X0249406Y0178261D02*
X0250698Y0178261D01*
X0252297Y0179859D02*
X0248876Y0179859D01*
X0248876Y0181458D02*
X0253895Y0181458D01*
X0255494Y0183056D02*
X0248876Y0183056D01*
X0248876Y0184655D02*
X0293313Y0184655D01*
X0294911Y0186253D02*
X0248876Y0186253D01*
X0248625Y0187852D02*
X0296510Y0187852D01*
X0298109Y0189450D02*
X0247027Y0189450D01*
X0245428Y0191049D02*
X0299707Y0191049D01*
X0301306Y0192647D02*
X0243830Y0192647D01*
X0242859Y0194246D02*
X0302904Y0194246D01*
X0294099Y0205137D02*
X0291821Y0202858D01*
X0288844Y0201625D01*
X0285622Y0201625D01*
X0282645Y0202858D01*
X0280367Y0205137D01*
X0279134Y0208113D01*
X0279134Y0211335D01*
X0280367Y0214312D01*
X0282645Y0216591D01*
X0285622Y0217824D01*
X0288844Y0217824D01*
X0291821Y0216591D01*
X0294099Y0214312D01*
X0295332Y0211335D01*
X0295332Y0208113D01*
X0294099Y0205137D01*
X0294223Y0205435D02*
X0341104Y0205435D01*
X0341391Y0204743D02*
X0343669Y0202465D01*
X0346646Y0201231D01*
X0349868Y0201231D01*
X0352845Y0202465D01*
X0355123Y0204743D01*
X0356356Y0207720D01*
X0356356Y0210942D01*
X0355123Y0213919D01*
X0352845Y0216197D01*
X0349868Y0217430D01*
X0346646Y0217430D01*
X0343669Y0216197D01*
X0341391Y0213919D01*
X0340157Y0210942D01*
X0340157Y0207720D01*
X0341391Y0204743D01*
X0342297Y0203837D02*
X0292800Y0203837D01*
X0290324Y0202238D02*
X0344215Y0202238D01*
X0340442Y0207034D02*
X0294885Y0207034D01*
X0295332Y0208632D02*
X0340157Y0208632D01*
X0340157Y0210231D02*
X0295332Y0210231D01*
X0295128Y0211829D02*
X0340525Y0211829D01*
X0341187Y0213428D02*
X0294466Y0213428D01*
X0293385Y0215026D02*
X0342498Y0215026D01*
X0344702Y0216625D02*
X0291738Y0216625D01*
X0290997Y0219808D02*
X0291962Y0220364D01*
X0292845Y0221042D01*
X0293632Y0221829D01*
X0294310Y0222712D01*
X0294866Y0223677D01*
X0295293Y0224705D01*
X0295581Y0225780D01*
X0295694Y0226641D01*
X0288033Y0226641D01*
X0288033Y0218980D01*
X0288894Y0219093D01*
X0289969Y0219381D01*
X0290997Y0219808D01*
X0291022Y0219822D02*
X0343785Y0219822D01*
X0343528Y0219970D02*
X0344492Y0219414D01*
X0345521Y0218988D01*
X0346596Y0218700D01*
X0347457Y0218586D01*
X0347457Y0226247D01*
X0349057Y0226247D01*
X0349057Y0227847D01*
X0356718Y0227847D01*
X0356604Y0228708D01*
X0356316Y0229783D01*
X0355890Y0230812D01*
X0355333Y0231776D01*
X0354656Y0232659D01*
X0353868Y0233446D01*
X0352985Y0234124D01*
X0352021Y0234681D01*
X0350993Y0235107D01*
X0349917Y0235395D01*
X0349057Y0235508D01*
X0349057Y0227847D01*
X0347457Y0227847D01*
X0347457Y0226247D01*
X0339796Y0226247D01*
X0339909Y0225387D01*
X0340197Y0224311D01*
X0340623Y0223283D01*
X0341180Y0222319D01*
X0341858Y0221435D01*
X0342645Y0220648D01*
X0343528Y0219970D01*
X0341873Y0221420D02*
X0293223Y0221420D01*
X0294487Y0223019D02*
X0340776Y0223019D01*
X0340115Y0224617D02*
X0295256Y0224617D01*
X0295638Y0226216D02*
X0339800Y0226216D01*
X0339796Y0227847D02*
X0347457Y0227847D01*
X0347457Y0235508D01*
X0346596Y0235395D01*
X0345521Y0235107D01*
X0344492Y0234681D01*
X0343528Y0234124D01*
X0342645Y0233446D01*
X0341858Y0232659D01*
X0341180Y0231776D01*
X0340623Y0230812D01*
X0340197Y0229783D01*
X0339909Y0228708D01*
X0339796Y0227847D01*
X0340098Y0229413D02*
X0295497Y0229413D01*
X0295581Y0229101D02*
X0295293Y0230177D01*
X0294866Y0231205D01*
X0294310Y0232169D01*
X0293632Y0233053D01*
X0292845Y0233840D01*
X0291962Y0234518D01*
X0290997Y0235074D01*
X0289969Y0235500D01*
X0288894Y0235789D01*
X0288033Y0235902D01*
X0288033Y0228241D01*
X0286433Y0228241D01*
X0286433Y0226641D01*
X0278772Y0226641D01*
X0278885Y0225780D01*
X0279174Y0224705D01*
X0279600Y0223677D01*
X0280156Y0222712D01*
X0280834Y0221829D01*
X0281621Y0221042D01*
X0282505Y0220364D01*
X0283469Y0219808D01*
X0284497Y0219381D01*
X0285573Y0219093D01*
X0286433Y0218980D01*
X0286433Y0226641D01*
X0288033Y0226641D01*
X0288033Y0228241D01*
X0295694Y0228241D01*
X0295581Y0229101D01*
X0294947Y0231012D02*
X0340739Y0231012D01*
X0341820Y0232610D02*
X0333051Y0232610D01*
X0332897Y0232546D02*
X0335434Y0233597D01*
X0337376Y0235539D01*
X0338427Y0238076D01*
X0338427Y0240822D01*
X0337376Y0243359D01*
X0335434Y0245300D01*
X0332897Y0246351D01*
X0330151Y0246351D01*
X0327615Y0245300D01*
X0325673Y0243359D01*
X0324622Y0240822D01*
X0324622Y0238076D01*
X0325673Y0235539D01*
X0327615Y0233597D01*
X0330151Y0232546D01*
X0332897Y0232546D01*
X0329998Y0232610D02*
X0293972Y0232610D01*
X0292364Y0234209D02*
X0299838Y0234209D01*
X0300055Y0233991D02*
X0302592Y0232940D01*
X0305338Y0232940D01*
X0307875Y0233991D01*
X0309817Y0235933D01*
X0310868Y0238470D01*
X0310868Y0241215D01*
X0309817Y0243752D01*
X0307875Y0245694D01*
X0305338Y0246745D01*
X0302592Y0246745D01*
X0300055Y0245694D01*
X0298114Y0243752D01*
X0297063Y0241215D01*
X0297063Y0238470D01*
X0298114Y0235933D01*
X0300055Y0233991D01*
X0298239Y0235807D02*
X0288753Y0235807D01*
X0288033Y0235807D02*
X0286433Y0235807D01*
X0286433Y0235902D02*
X0285573Y0235789D01*
X0284497Y0235500D01*
X0283469Y0235074D01*
X0282505Y0234518D01*
X0281621Y0233840D01*
X0280834Y0233053D01*
X0280156Y0232169D01*
X0279600Y0231205D01*
X0279174Y0230177D01*
X0278885Y0229101D01*
X0278772Y0228241D01*
X0286433Y0228241D01*
X0286433Y0235902D01*
X0285713Y0235807D02*
X0276227Y0235807D01*
X0276352Y0235933D02*
X0277403Y0238470D01*
X0277403Y0241215D01*
X0276352Y0243752D01*
X0274411Y0245694D01*
X0271874Y0246745D01*
X0269128Y0246745D01*
X0266591Y0245694D01*
X0264649Y0243752D01*
X0263598Y0241215D01*
X0263598Y0238470D01*
X0264649Y0235933D01*
X0266591Y0233991D01*
X0269128Y0232940D01*
X0271874Y0232940D01*
X0274411Y0233991D01*
X0276352Y0235933D01*
X0276962Y0237406D02*
X0297504Y0237406D01*
X0297063Y0239004D02*
X0277403Y0239004D01*
X0277403Y0240603D02*
X0297063Y0240603D01*
X0297471Y0242201D02*
X0276995Y0242201D01*
X0276305Y0243800D02*
X0298161Y0243800D01*
X0299760Y0245398D02*
X0274707Y0245398D01*
X0266295Y0245398D02*
X0247148Y0245398D01*
X0246852Y0245694D02*
X0244315Y0246745D01*
X0241569Y0246745D01*
X0239032Y0245694D01*
X0237090Y0243752D01*
X0236039Y0241215D01*
X0236039Y0238470D01*
X0237090Y0235933D01*
X0239032Y0233991D01*
X0241569Y0232940D01*
X0244315Y0232940D01*
X0246852Y0233991D01*
X0248793Y0235933D01*
X0249844Y0238470D01*
X0249844Y0241215D01*
X0248793Y0243752D01*
X0246852Y0245694D01*
X0248746Y0243800D02*
X0264696Y0243800D01*
X0264007Y0242201D02*
X0249436Y0242201D01*
X0249844Y0240603D02*
X0263598Y0240603D01*
X0263598Y0239004D02*
X0249844Y0239004D01*
X0249403Y0237406D02*
X0264039Y0237406D01*
X0264775Y0235807D02*
X0248668Y0235807D01*
X0247069Y0234209D02*
X0266373Y0234209D01*
X0274628Y0234209D02*
X0282102Y0234209D01*
X0280494Y0232610D02*
X0232948Y0232610D01*
X0233286Y0232169D02*
X0232608Y0233053D01*
X0231821Y0233840D01*
X0230938Y0234518D01*
X0229974Y0235074D01*
X0228945Y0235500D01*
X0227870Y0235789D01*
X0227009Y0235902D01*
X0227009Y0228241D01*
X0225409Y0228241D01*
X0225409Y0226641D01*
X0217749Y0226641D01*
X0217862Y0225780D01*
X0218150Y0224705D01*
X0218576Y0223677D01*
X0219133Y0222712D01*
X0219810Y0221829D01*
X0220598Y0221042D01*
X0221481Y0220364D01*
X0222445Y0219808D01*
X0223474Y0219381D01*
X0224549Y0219093D01*
X0225409Y0218980D01*
X0225409Y0226641D01*
X0227009Y0226641D01*
X0227009Y0218980D01*
X0227870Y0219093D01*
X0228945Y0219381D01*
X0229974Y0219808D01*
X0230938Y0220364D01*
X0231821Y0221042D01*
X0232608Y0221829D01*
X0233286Y0222712D01*
X0233843Y0223677D01*
X0234269Y0224705D01*
X0234557Y0225780D01*
X0234670Y0226641D01*
X0227009Y0226641D01*
X0227009Y0228241D01*
X0234670Y0228241D01*
X0234557Y0229101D01*
X0234269Y0230177D01*
X0233843Y0231205D01*
X0233286Y0232169D01*
X0233923Y0231012D02*
X0279519Y0231012D01*
X0278969Y0229413D02*
X0234474Y0229413D01*
X0234614Y0226216D02*
X0278828Y0226216D01*
X0279210Y0224617D02*
X0234233Y0224617D01*
X0233463Y0223019D02*
X0279979Y0223019D01*
X0281243Y0221420D02*
X0232200Y0221420D01*
X0229999Y0219822D02*
X0283444Y0219822D01*
X0286433Y0219822D02*
X0288033Y0219822D01*
X0288033Y0221420D02*
X0286433Y0221420D01*
X0286433Y0223019D02*
X0288033Y0223019D01*
X0288033Y0224617D02*
X0286433Y0224617D01*
X0286433Y0226216D02*
X0288033Y0226216D01*
X0288033Y0227815D02*
X0347457Y0227815D01*
X0347457Y0229413D02*
X0349057Y0229413D01*
X0349057Y0227815D02*
X0439976Y0227815D01*
X0439976Y0229413D02*
X0356415Y0229413D01*
X0355775Y0231012D02*
X0439976Y0231012D01*
X0439976Y0232610D02*
X0435810Y0232610D01*
X0438714Y0234209D02*
X0439976Y0234209D01*
X0429995Y0232610D02*
X0366515Y0232610D01*
X0366362Y0232546D02*
X0368899Y0233597D01*
X0370841Y0235539D01*
X0371891Y0238076D01*
X0371891Y0240822D01*
X0370841Y0243359D01*
X0368899Y0245300D01*
X0366362Y0246351D01*
X0363616Y0246351D01*
X0361079Y0245300D01*
X0359137Y0243359D01*
X0358087Y0240822D01*
X0358087Y0238076D01*
X0359137Y0235539D01*
X0361079Y0233597D01*
X0363616Y0232546D01*
X0366362Y0232546D01*
X0363462Y0232610D02*
X0354693Y0232610D01*
X0352839Y0234209D02*
X0360468Y0234209D01*
X0359026Y0235807D02*
X0337487Y0235807D01*
X0338149Y0237406D02*
X0358364Y0237406D01*
X0358087Y0239004D02*
X0338427Y0239004D01*
X0338427Y0240603D02*
X0358087Y0240603D01*
X0358658Y0242201D02*
X0337855Y0242201D01*
X0336935Y0243800D02*
X0359578Y0243800D01*
X0361315Y0245398D02*
X0335198Y0245398D01*
X0327851Y0245398D02*
X0308171Y0245398D01*
X0309770Y0243800D02*
X0326114Y0243800D01*
X0325193Y0242201D02*
X0310459Y0242201D01*
X0310868Y0240603D02*
X0324622Y0240603D01*
X0324622Y0239004D02*
X0310868Y0239004D01*
X0310427Y0237406D02*
X0324900Y0237406D01*
X0325562Y0235807D02*
X0309691Y0235807D01*
X0308093Y0234209D02*
X0327003Y0234209D01*
X0336046Y0234209D02*
X0343675Y0234209D01*
X0347457Y0234209D02*
X0349057Y0234209D01*
X0349057Y0232610D02*
X0347457Y0232610D01*
X0347457Y0231012D02*
X0349057Y0231012D01*
X0349057Y0226247D02*
X0356718Y0226247D01*
X0356604Y0225387D01*
X0356316Y0224311D01*
X0355890Y0223283D01*
X0355333Y0222319D01*
X0354656Y0221435D01*
X0353868Y0220648D01*
X0352985Y0219970D01*
X0352021Y0219414D01*
X0350993Y0218988D01*
X0349917Y0218700D01*
X0349057Y0218586D01*
X0349057Y0226247D01*
X0349057Y0226216D02*
X0347457Y0226216D01*
X0347457Y0224617D02*
X0349057Y0224617D01*
X0349057Y0223019D02*
X0347457Y0223019D01*
X0347457Y0221420D02*
X0349057Y0221420D01*
X0349057Y0219822D02*
X0347457Y0219822D01*
X0352728Y0219822D02*
X0439976Y0219822D01*
X0439976Y0221420D02*
X0354641Y0221420D01*
X0355738Y0223019D02*
X0439976Y0223019D01*
X0439976Y0224617D02*
X0356398Y0224617D01*
X0356713Y0226216D02*
X0439976Y0226216D01*
X0439976Y0218223D02*
X0091219Y0218223D01*
X0091395Y0216625D02*
X0105444Y0216625D01*
X0104818Y0215999D02*
X0104094Y0214252D01*
X0104094Y0212362D01*
X0104818Y0210615D01*
X0106155Y0209278D01*
X0107902Y0208554D01*
X0109793Y0208554D01*
X0111539Y0209278D01*
X0112876Y0210615D01*
X0113600Y0212362D01*
X0113600Y0214252D01*
X0112876Y0215999D01*
X0111539Y0217336D01*
X0109793Y0218060D01*
X0107902Y0218060D01*
X0106155Y0217336D01*
X0104818Y0215999D01*
X0104415Y0215026D02*
X0091333Y0215026D01*
X0092931Y0213428D02*
X0104094Y0213428D01*
X0104315Y0211829D02*
X0094530Y0211829D01*
X0096128Y0210231D02*
X0105202Y0210231D01*
X0107713Y0208632D02*
X0097727Y0208632D01*
X0099325Y0207034D02*
X0105853Y0207034D01*
X0104584Y0205435D02*
X0100924Y0205435D01*
X0102522Y0203837D02*
X0104094Y0203837D01*
X0104121Y0202238D02*
X0104146Y0202238D01*
X0109981Y0208632D02*
X0117713Y0208632D01*
X0117902Y0208554D02*
X0119793Y0208554D01*
X0121539Y0209278D01*
X0122876Y0210615D01*
X0123600Y0212362D01*
X0123600Y0214252D01*
X0122876Y0215999D01*
X0121539Y0217336D01*
X0119793Y0218060D01*
X0117902Y0218060D01*
X0116155Y0217336D01*
X0114818Y0215999D01*
X0114094Y0214252D01*
X0114094Y0212362D01*
X0114818Y0210615D01*
X0116155Y0209278D01*
X0117902Y0208554D01*
X0117902Y0208060D02*
X0116155Y0207336D01*
X0114818Y0205999D01*
X0114094Y0204252D01*
X0114094Y0202362D01*
X0114818Y0200615D01*
X0116155Y0199278D01*
X0117902Y0198554D01*
X0119793Y0198554D01*
X0121539Y0199278D01*
X0122876Y0200615D01*
X0123600Y0202362D01*
X0123600Y0204252D01*
X0122876Y0205999D01*
X0121539Y0207336D01*
X0119793Y0208060D01*
X0117902Y0208060D01*
X0119981Y0208632D02*
X0157087Y0208632D01*
X0157087Y0208113D02*
X0158320Y0205137D01*
X0160598Y0202858D01*
X0163575Y0201625D01*
X0166797Y0201625D01*
X0169774Y0202858D01*
X0172052Y0205137D01*
X0173285Y0208113D01*
X0173285Y0211335D01*
X0172052Y0214312D01*
X0169774Y0216591D01*
X0166797Y0217824D01*
X0163575Y0217824D01*
X0160598Y0216591D01*
X0158320Y0214312D01*
X0157087Y0211335D01*
X0157087Y0208113D01*
X0157534Y0207034D02*
X0121842Y0207034D01*
X0123110Y0205435D02*
X0158196Y0205435D01*
X0159619Y0203837D02*
X0123600Y0203837D01*
X0123549Y0202238D02*
X0162095Y0202238D01*
X0168277Y0202238D02*
X0223118Y0202238D01*
X0224598Y0201625D02*
X0221622Y0202858D01*
X0219343Y0205137D01*
X0218110Y0208113D01*
X0218110Y0211335D01*
X0219343Y0214312D01*
X0221622Y0216591D01*
X0224598Y0217824D01*
X0227820Y0217824D01*
X0230797Y0216591D01*
X0233076Y0214312D01*
X0234309Y0211335D01*
X0234309Y0208113D01*
X0233076Y0205137D01*
X0230797Y0202858D01*
X0227820Y0201625D01*
X0224598Y0201625D01*
X0220643Y0203837D02*
X0170752Y0203837D01*
X0172176Y0205435D02*
X0219220Y0205435D01*
X0218557Y0207034D02*
X0172838Y0207034D01*
X0173285Y0208632D02*
X0218110Y0208632D01*
X0218110Y0210231D02*
X0173285Y0210231D01*
X0173080Y0211829D02*
X0218315Y0211829D01*
X0218977Y0213428D02*
X0172418Y0213428D01*
X0171338Y0215026D02*
X0220057Y0215026D01*
X0221705Y0216625D02*
X0169691Y0216625D01*
X0168950Y0219808D02*
X0169914Y0220364D01*
X0170798Y0221042D01*
X0171585Y0221829D01*
X0172263Y0222712D01*
X0172819Y0223677D01*
X0173245Y0224705D01*
X0173533Y0225780D01*
X0173647Y0226641D01*
X0165986Y0226641D01*
X0165986Y0228241D01*
X0173647Y0228241D01*
X0173533Y0229101D01*
X0173245Y0230177D01*
X0172819Y0231205D01*
X0172263Y0232169D01*
X0171585Y0233053D01*
X0170798Y0233840D01*
X0169914Y0234518D01*
X0168950Y0235074D01*
X0167922Y0235500D01*
X0166846Y0235789D01*
X0165986Y0235902D01*
X0165986Y0228241D01*
X0164386Y0228241D01*
X0164386Y0235902D01*
X0163525Y0235789D01*
X0162450Y0235500D01*
X0161421Y0235074D01*
X0160457Y0234518D01*
X0159574Y0233840D01*
X0158787Y0233053D01*
X0158109Y0232169D01*
X0157552Y0231205D01*
X0157126Y0230177D01*
X0156838Y0229101D01*
X0156725Y0228241D01*
X0164386Y0228241D01*
X0164386Y0226641D01*
X0165986Y0226641D01*
X0165986Y0218980D01*
X0166846Y0219093D01*
X0167922Y0219381D01*
X0168950Y0219808D01*
X0168975Y0219822D02*
X0222420Y0219822D01*
X0220219Y0221420D02*
X0171176Y0221420D01*
X0172440Y0223019D02*
X0218956Y0223019D01*
X0218186Y0224617D02*
X0173209Y0224617D01*
X0173591Y0226216D02*
X0217805Y0226216D01*
X0217749Y0228241D02*
X0225409Y0228241D01*
X0225409Y0235902D01*
X0224549Y0235789D01*
X0223474Y0235500D01*
X0222445Y0235074D01*
X0221481Y0234518D01*
X0220598Y0233840D01*
X0219810Y0233053D01*
X0219133Y0232169D01*
X0218576Y0231205D01*
X0218150Y0230177D01*
X0217862Y0229101D01*
X0217749Y0228241D01*
X0217945Y0229413D02*
X0173450Y0229413D01*
X0172899Y0231012D02*
X0218496Y0231012D01*
X0219471Y0232610D02*
X0171925Y0232610D01*
X0170317Y0234209D02*
X0177791Y0234209D01*
X0178008Y0233991D02*
X0180545Y0232940D01*
X0183291Y0232940D01*
X0185828Y0233991D01*
X0187770Y0235933D01*
X0188820Y0238470D01*
X0188820Y0241215D01*
X0187770Y0243752D01*
X0185828Y0245694D01*
X0183291Y0246745D01*
X0180545Y0246745D01*
X0178008Y0245694D01*
X0176067Y0243752D01*
X0175016Y0241215D01*
X0175016Y0238470D01*
X0176067Y0235933D01*
X0178008Y0233991D01*
X0176192Y0235807D02*
X0166705Y0235807D01*
X0165986Y0235807D02*
X0164386Y0235807D01*
X0163666Y0235807D02*
X0154180Y0235807D01*
X0154305Y0235933D02*
X0155356Y0238470D01*
X0155356Y0241215D01*
X0154305Y0243752D01*
X0152363Y0245694D01*
X0149827Y0246745D01*
X0147081Y0246745D01*
X0144544Y0245694D01*
X0142602Y0243752D01*
X0141551Y0241215D01*
X0141551Y0238470D01*
X0142602Y0235933D01*
X0144544Y0233991D01*
X0147081Y0232940D01*
X0149827Y0232940D01*
X0152363Y0233991D01*
X0154305Y0235933D01*
X0154915Y0237406D02*
X0175456Y0237406D01*
X0175016Y0239004D02*
X0155356Y0239004D01*
X0155356Y0240603D02*
X0175016Y0240603D01*
X0175424Y0242201D02*
X0154948Y0242201D01*
X0154258Y0243800D02*
X0176114Y0243800D01*
X0177712Y0245398D02*
X0152659Y0245398D01*
X0144248Y0245398D02*
X0044713Y0245398D01*
X0044713Y0246997D02*
X0425855Y0246997D01*
X0424818Y0245398D02*
X0368663Y0245398D01*
X0370400Y0243800D02*
X0424156Y0243800D01*
X0423835Y0242201D02*
X0371320Y0242201D01*
X0371891Y0240603D02*
X0423835Y0240603D01*
X0424006Y0239004D02*
X0371891Y0239004D01*
X0371614Y0237406D02*
X0424668Y0237406D01*
X0425492Y0235807D02*
X0370952Y0235807D01*
X0369510Y0234209D02*
X0427091Y0234209D01*
X0439976Y0216625D02*
X0351811Y0216625D01*
X0354015Y0215026D02*
X0439976Y0215026D01*
X0439976Y0213428D02*
X0355326Y0213428D01*
X0355988Y0211829D02*
X0439976Y0211829D01*
X0439976Y0210231D02*
X0356356Y0210231D01*
X0356356Y0208632D02*
X0439976Y0208632D01*
X0439976Y0207034D02*
X0356072Y0207034D01*
X0355410Y0205435D02*
X0439976Y0205435D01*
X0439976Y0203837D02*
X0354217Y0203837D01*
X0352298Y0202238D02*
X0439976Y0202238D01*
X0439976Y0200640D02*
X0122887Y0200640D01*
X0120968Y0199041D02*
X0439976Y0199041D01*
X0439976Y0197443D02*
X0121282Y0197443D01*
X0122941Y0195844D02*
X0238232Y0195844D01*
X0237118Y0194246D02*
X0123600Y0194246D01*
X0123600Y0192647D02*
X0237068Y0192647D01*
X0238110Y0191049D02*
X0124208Y0191049D01*
X0125806Y0189450D02*
X0179325Y0189450D01*
X0178106Y0187852D02*
X0127405Y0187852D01*
X0129003Y0186253D02*
X0177971Y0186253D01*
X0178953Y0184655D02*
X0130602Y0184655D01*
X0136268Y0177398D02*
X0133457Y0174587D01*
X0133457Y0170610D01*
X0136268Y0167798D01*
X0140245Y0167798D01*
X0143057Y0170610D01*
X0143057Y0174587D01*
X0140245Y0177398D01*
X0136268Y0177398D01*
X0135532Y0176662D02*
X0109618Y0176662D01*
X0109793Y0178554D02*
X0111539Y0179278D01*
X0112876Y0180615D01*
X0113600Y0182362D01*
X0113600Y0184252D01*
X0112927Y0185877D01*
X0113175Y0185877D01*
X0114301Y0184751D01*
X0114094Y0184252D01*
X0114094Y0182362D01*
X0114818Y0180615D01*
X0116155Y0179278D01*
X0117902Y0178554D01*
X0119793Y0178554D01*
X0120291Y0178761D01*
X0121049Y0178003D01*
X0174166Y0178003D01*
X0174016Y0177640D01*
X0174016Y0176454D01*
X0174470Y0175359D01*
X0175308Y0174520D01*
X0176404Y0174066D01*
X0177590Y0174066D01*
X0178686Y0174520D01*
X0179019Y0174854D01*
X0180813Y0174854D01*
X0181496Y0174170D01*
X0181496Y0155965D01*
X0181159Y0156302D01*
X0179874Y0157587D01*
X0172000Y0157587D01*
X0168954Y0160633D01*
X0168954Y0162995D01*
X0167669Y0164280D01*
X0163443Y0168507D01*
X0162198Y0169752D01*
X0163057Y0170610D01*
X0163057Y0174587D01*
X0160245Y0177398D01*
X0156268Y0177398D01*
X0153457Y0174587D01*
X0153457Y0170610D01*
X0154275Y0169792D01*
X0154165Y0169792D01*
X0153057Y0170901D01*
X0153057Y0174587D01*
X0150245Y0177398D01*
X0146268Y0177398D01*
X0143457Y0174587D01*
X0143457Y0170610D01*
X0146268Y0167798D01*
X0149954Y0167798D01*
X0152348Y0165405D01*
X0154275Y0165405D01*
X0153457Y0164587D01*
X0153457Y0160610D01*
X0156268Y0157798D01*
X0160245Y0157798D01*
X0163057Y0160610D01*
X0163057Y0162688D01*
X0164567Y0161178D01*
X0164567Y0158816D01*
X0165852Y0157531D01*
X0170183Y0153200D01*
X0178057Y0153200D01*
X0178740Y0152517D01*
X0178740Y0150942D01*
X0180025Y0149657D01*
X0182331Y0147351D01*
X0140043Y0147351D01*
X0139709Y0147685D01*
X0138613Y0148139D01*
X0138142Y0148139D01*
X0107602Y0178679D01*
X0107902Y0178554D01*
X0109793Y0178554D01*
X0108020Y0178261D02*
X0120791Y0178261D01*
X0115574Y0179859D02*
X0112121Y0179859D01*
X0113226Y0181458D02*
X0114469Y0181458D01*
X0114094Y0183056D02*
X0113600Y0183056D01*
X0113433Y0184655D02*
X0114261Y0184655D01*
X0103413Y0176662D02*
X0092742Y0176662D01*
X0092742Y0177658D02*
X0089930Y0180469D01*
X0085954Y0180469D01*
X0083142Y0177658D01*
X0083142Y0173681D01*
X0085954Y0170869D01*
X0089930Y0170869D01*
X0092742Y0173681D01*
X0092742Y0177658D01*
X0092139Y0178261D02*
X0101815Y0178261D01*
X0100216Y0179859D02*
X0090540Y0179859D01*
X0090518Y0181458D02*
X0098618Y0181458D01*
X0097019Y0183056D02*
X0092117Y0183056D01*
X0092742Y0184655D02*
X0095421Y0184655D01*
X0093822Y0186253D02*
X0092742Y0186253D01*
X0084934Y0189450D02*
X0080949Y0189450D01*
X0082547Y0187852D02*
X0083336Y0187852D01*
X0083142Y0186253D02*
X0082742Y0186253D01*
X0082742Y0184655D02*
X0083142Y0184655D01*
X0083767Y0183056D02*
X0082117Y0183056D01*
X0080518Y0181458D02*
X0085365Y0181458D01*
X0085343Y0179859D02*
X0080540Y0179859D01*
X0079930Y0180469D02*
X0075954Y0180469D01*
X0073142Y0177658D01*
X0073142Y0173681D01*
X0075954Y0170869D01*
X0079930Y0170869D01*
X0082742Y0173681D01*
X0082742Y0177658D01*
X0079930Y0180469D01*
X0082139Y0178261D02*
X0083745Y0178261D01*
X0083142Y0176662D02*
X0082742Y0176662D01*
X0082742Y0175064D02*
X0083142Y0175064D01*
X0083358Y0173465D02*
X0082526Y0173465D01*
X0080927Y0171867D02*
X0084956Y0171867D01*
X0090927Y0171867D02*
X0108209Y0171867D01*
X0106610Y0173465D02*
X0092526Y0173465D01*
X0092742Y0175064D02*
X0105012Y0175064D01*
X0111217Y0175064D02*
X0133934Y0175064D01*
X0133457Y0173465D02*
X0112815Y0173465D01*
X0114414Y0171867D02*
X0133457Y0171867D01*
X0133799Y0170268D02*
X0116012Y0170268D01*
X0117611Y0168670D02*
X0135397Y0168670D01*
X0136512Y0167071D02*
X0119209Y0167071D01*
X0120808Y0165473D02*
X0134343Y0165473D01*
X0134187Y0165317D02*
X0133457Y0163553D01*
X0133457Y0161644D01*
X0134187Y0159879D01*
X0135538Y0158529D01*
X0137302Y0157798D01*
X0139211Y0157798D01*
X0140976Y0158529D01*
X0142326Y0159879D01*
X0143057Y0161644D01*
X0143057Y0163553D01*
X0142326Y0165317D01*
X0140976Y0166668D01*
X0139211Y0167398D01*
X0137302Y0167398D01*
X0135538Y0166668D01*
X0134187Y0165317D01*
X0133590Y0163874D02*
X0122406Y0163874D01*
X0124005Y0162276D02*
X0133457Y0162276D01*
X0133857Y0160677D02*
X0125603Y0160677D01*
X0127202Y0159079D02*
X0134988Y0159079D01*
X0130399Y0155882D02*
X0167501Y0155882D01*
X0165903Y0157480D02*
X0128800Y0157480D01*
X0125793Y0154283D02*
X0102742Y0154283D01*
X0102742Y0153681D02*
X0102742Y0157658D01*
X0100913Y0159487D01*
X0108203Y0159487D01*
X0111096Y0156594D01*
X0111477Y0155674D01*
X0112316Y0154835D01*
X0113412Y0154381D01*
X0114598Y0154381D01*
X0115693Y0154835D01*
X0116532Y0155674D01*
X0116986Y0156769D01*
X0116986Y0157955D01*
X0116532Y0159051D01*
X0115693Y0159889D01*
X0114773Y0160271D01*
X0110753Y0164291D01*
X0109797Y0164687D01*
X0043409Y0164687D01*
X0042453Y0164291D01*
X0041722Y0163559D01*
X0037298Y0159135D01*
X0029962Y0159135D01*
X0029924Y0159228D01*
X0028587Y0160565D01*
X0026840Y0161288D01*
X0024949Y0161288D01*
X0023202Y0160565D01*
X0021865Y0159228D01*
X0021142Y0157481D01*
X0021142Y0155590D01*
X0021865Y0153843D01*
X0023202Y0152506D01*
X0024949Y0151783D01*
X0026840Y0151783D01*
X0028587Y0152506D01*
X0029924Y0153843D01*
X0029962Y0153935D01*
X0038892Y0153935D01*
X0039848Y0154331D01*
X0043142Y0157625D01*
X0043142Y0153681D01*
X0045954Y0150869D01*
X0049930Y0150869D01*
X0052742Y0153681D01*
X0052742Y0157658D01*
X0050913Y0159487D01*
X0054971Y0159487D01*
X0053142Y0157658D01*
X0053142Y0153681D01*
X0055954Y0150869D01*
X0059930Y0150869D01*
X0062742Y0153681D01*
X0062742Y0157658D01*
X0060913Y0159487D01*
X0064971Y0159487D01*
X0063142Y0157658D01*
X0063142Y0153681D01*
X0065954Y0150869D01*
X0069930Y0150869D01*
X0072742Y0153681D01*
X0072742Y0157658D01*
X0070913Y0159487D01*
X0074971Y0159487D01*
X0073142Y0157658D01*
X0073142Y0153681D01*
X0075954Y0150869D01*
X0079930Y0150869D01*
X0082742Y0153681D01*
X0082742Y0157658D01*
X0080913Y0159487D01*
X0084971Y0159487D01*
X0083142Y0157658D01*
X0083142Y0153681D01*
X0085954Y0150869D01*
X0089930Y0150869D01*
X0092742Y0153681D01*
X0092742Y0157658D01*
X0090913Y0159487D01*
X0094971Y0159487D01*
X0093142Y0157658D01*
X0093142Y0153681D01*
X0095954Y0150869D01*
X0099930Y0150869D01*
X0102742Y0153681D01*
X0101745Y0152684D02*
X0108057Y0152684D01*
X0107651Y0152516D02*
X0106646Y0151511D01*
X0106102Y0150199D01*
X0106102Y0148778D01*
X0106646Y0147465D01*
X0107651Y0146460D01*
X0108964Y0145917D01*
X0110384Y0145917D01*
X0111697Y0146460D01*
X0112702Y0147465D01*
X0113246Y0148778D01*
X0113246Y0150199D01*
X0112702Y0151511D01*
X0111697Y0152516D01*
X0110384Y0153060D01*
X0108964Y0153060D01*
X0107651Y0152516D01*
X0106470Y0151086D02*
X0100147Y0151086D01*
X0099930Y0150469D02*
X0098142Y0150469D01*
X0098142Y0145869D01*
X0102742Y0145869D01*
X0102742Y0147658D01*
X0099930Y0150469D01*
X0100912Y0149487D02*
X0106102Y0149487D01*
X0106470Y0147889D02*
X0102510Y0147889D01*
X0102742Y0146290D02*
X0108061Y0146290D01*
X0111287Y0146290D02*
X0133785Y0146290D01*
X0135039Y0144692D02*
X0102742Y0144692D01*
X0102742Y0145469D02*
X0098142Y0145469D01*
X0098142Y0145869D01*
X0097742Y0145869D01*
X0097742Y0145469D01*
X0098142Y0145469D01*
X0098142Y0140869D01*
X0099930Y0140869D01*
X0102742Y0143681D01*
X0102742Y0145469D01*
X0102154Y0143093D02*
X0135869Y0143093D01*
X0142787Y0141495D02*
X0100556Y0141495D01*
X0098142Y0141495D02*
X0097742Y0141495D01*
X0097742Y0140869D02*
X0097742Y0145469D01*
X0093142Y0145469D01*
X0093142Y0143681D01*
X0095954Y0140869D01*
X0097742Y0140869D01*
X0097742Y0143093D02*
X0098142Y0143093D01*
X0098142Y0144692D02*
X0097742Y0144692D01*
X0097742Y0145869D02*
X0093142Y0145869D01*
X0093142Y0147658D01*
X0095954Y0150469D01*
X0097742Y0150469D01*
X0097742Y0145869D01*
X0097742Y0146290D02*
X0098142Y0146290D01*
X0098142Y0147889D02*
X0097742Y0147889D01*
X0097742Y0149487D02*
X0098142Y0149487D01*
X0095737Y0151086D02*
X0090147Y0151086D01*
X0089930Y0150469D02*
X0088142Y0150469D01*
X0088142Y0145869D01*
X0092742Y0145869D01*
X0092742Y0147658D01*
X0089930Y0150469D01*
X0090912Y0149487D02*
X0094972Y0149487D01*
X0093373Y0147889D02*
X0092510Y0147889D01*
X0092742Y0146290D02*
X0093142Y0146290D01*
X0092742Y0145469D02*
X0092742Y0143681D01*
X0089930Y0140869D01*
X0088142Y0140869D01*
X0088142Y0145469D01*
X0088142Y0145869D01*
X0087742Y0145869D01*
X0087742Y0145469D01*
X0088142Y0145469D01*
X0092742Y0145469D01*
X0092742Y0144692D02*
X0093142Y0144692D01*
X0093729Y0143093D02*
X0092154Y0143093D01*
X0090556Y0141495D02*
X0095328Y0141495D01*
X0088142Y0141495D02*
X0087742Y0141495D01*
X0087742Y0140869D02*
X0087742Y0145469D01*
X0083142Y0145469D01*
X0083142Y0143681D01*
X0085954Y0140869D01*
X0087742Y0140869D01*
X0087742Y0143093D02*
X0088142Y0143093D01*
X0088142Y0144692D02*
X0087742Y0144692D01*
X0087742Y0145869D02*
X0083142Y0145869D01*
X0083142Y0147658D01*
X0085954Y0150469D01*
X0087742Y0150469D01*
X0087742Y0145869D01*
X0087742Y0146290D02*
X0088142Y0146290D01*
X0088142Y0147889D02*
X0087742Y0147889D01*
X0087742Y0149487D02*
X0088142Y0149487D01*
X0085737Y0151086D02*
X0080147Y0151086D01*
X0079930Y0150469D02*
X0078142Y0150469D01*
X0078142Y0145869D01*
X0082742Y0145869D01*
X0082742Y0147658D01*
X0079930Y0150469D01*
X0080912Y0149487D02*
X0084972Y0149487D01*
X0083373Y0147889D02*
X0082510Y0147889D01*
X0082742Y0146290D02*
X0083142Y0146290D01*
X0082742Y0145469D02*
X0078142Y0145469D01*
X0078142Y0145869D01*
X0077742Y0145869D01*
X0077742Y0145469D01*
X0078142Y0145469D01*
X0078142Y0140869D01*
X0079930Y0140869D01*
X0082742Y0143681D01*
X0082742Y0145469D01*
X0082742Y0144692D02*
X0083142Y0144692D01*
X0083729Y0143093D02*
X0082154Y0143093D01*
X0080556Y0141495D02*
X0085328Y0141495D01*
X0078142Y0141495D02*
X0077742Y0141495D01*
X0077742Y0140869D02*
X0077742Y0145469D01*
X0073142Y0145469D01*
X0073142Y0143681D01*
X0075954Y0140869D01*
X0077742Y0140869D01*
X0077742Y0143093D02*
X0078142Y0143093D01*
X0078142Y0144692D02*
X0077742Y0144692D01*
X0077742Y0145869D02*
X0073142Y0145869D01*
X0073142Y0147658D01*
X0075954Y0150469D01*
X0077742Y0150469D01*
X0077742Y0145869D01*
X0077742Y0146290D02*
X0078142Y0146290D01*
X0078142Y0147889D02*
X0077742Y0147889D01*
X0077742Y0149487D02*
X0078142Y0149487D01*
X0075737Y0151086D02*
X0070147Y0151086D01*
X0069930Y0150469D02*
X0068142Y0150469D01*
X0068142Y0145869D01*
X0072742Y0145869D01*
X0072742Y0147658D01*
X0069930Y0150469D01*
X0070912Y0149487D02*
X0074972Y0149487D01*
X0073373Y0147889D02*
X0072510Y0147889D01*
X0072742Y0146290D02*
X0073142Y0146290D01*
X0072742Y0145469D02*
X0068142Y0145469D01*
X0068142Y0145869D01*
X0067742Y0145869D01*
X0067742Y0145469D01*
X0068142Y0145469D01*
X0068142Y0140869D01*
X0069930Y0140869D01*
X0072742Y0143681D01*
X0072742Y0145469D01*
X0072742Y0144692D02*
X0073142Y0144692D01*
X0073729Y0143093D02*
X0072154Y0143093D01*
X0070556Y0141495D02*
X0075328Y0141495D01*
X0068142Y0141495D02*
X0067742Y0141495D01*
X0067742Y0140869D02*
X0067742Y0145469D01*
X0063142Y0145469D01*
X0063142Y0143681D01*
X0065954Y0140869D01*
X0067742Y0140869D01*
X0067742Y0143093D02*
X0068142Y0143093D01*
X0068142Y0144692D02*
X0067742Y0144692D01*
X0067742Y0145869D02*
X0063142Y0145869D01*
X0063142Y0147658D01*
X0065954Y0150469D01*
X0067742Y0150469D01*
X0067742Y0145869D01*
X0067742Y0146290D02*
X0068142Y0146290D01*
X0068142Y0147889D02*
X0067742Y0147889D01*
X0067742Y0149487D02*
X0068142Y0149487D01*
X0065737Y0151086D02*
X0060147Y0151086D01*
X0059930Y0150469D02*
X0058142Y0150469D01*
X0058142Y0145869D01*
X0062742Y0145869D01*
X0062742Y0147658D01*
X0059930Y0150469D01*
X0060912Y0149487D02*
X0064972Y0149487D01*
X0063373Y0147889D02*
X0062510Y0147889D01*
X0062742Y0146290D02*
X0063142Y0146290D01*
X0062742Y0145469D02*
X0058142Y0145469D01*
X0058142Y0145869D01*
X0057742Y0145869D01*
X0057742Y0145469D01*
X0058142Y0145469D01*
X0058142Y0140869D01*
X0059930Y0140869D01*
X0062742Y0143681D01*
X0062742Y0145469D01*
X0062742Y0144692D02*
X0063142Y0144692D01*
X0063729Y0143093D02*
X0062154Y0143093D01*
X0060556Y0141495D02*
X0065328Y0141495D01*
X0058142Y0141495D02*
X0057742Y0141495D01*
X0057742Y0140869D02*
X0057742Y0145469D01*
X0053142Y0145469D01*
X0053142Y0143681D01*
X0055954Y0140869D01*
X0057742Y0140869D01*
X0057742Y0143093D02*
X0058142Y0143093D01*
X0058142Y0144692D02*
X0057742Y0144692D01*
X0057742Y0145869D02*
X0053142Y0145869D01*
X0053142Y0147658D01*
X0055954Y0150469D01*
X0057742Y0150469D01*
X0057742Y0145869D01*
X0057742Y0146290D02*
X0058142Y0146290D01*
X0058142Y0147889D02*
X0057742Y0147889D01*
X0057742Y0149487D02*
X0058142Y0149487D01*
X0055737Y0151086D02*
X0050147Y0151086D01*
X0049930Y0150469D02*
X0048142Y0150469D01*
X0048142Y0145869D01*
X0052742Y0145869D01*
X0052742Y0147658D01*
X0049930Y0150469D01*
X0050912Y0149487D02*
X0054972Y0149487D01*
X0053373Y0147889D02*
X0052510Y0147889D01*
X0052742Y0146290D02*
X0053142Y0146290D01*
X0052742Y0145469D02*
X0048142Y0145469D01*
X0048142Y0145869D01*
X0047742Y0145869D01*
X0047742Y0145469D01*
X0048142Y0145469D01*
X0048142Y0140869D01*
X0049930Y0140869D01*
X0052742Y0143681D01*
X0052742Y0145469D01*
X0052742Y0144692D02*
X0053142Y0144692D01*
X0053729Y0143093D02*
X0052154Y0143093D01*
X0050556Y0141495D02*
X0055328Y0141495D01*
X0048142Y0141495D02*
X0047742Y0141495D01*
X0047742Y0140869D02*
X0045954Y0140869D01*
X0043142Y0143681D01*
X0043142Y0145469D01*
X0047742Y0145469D01*
X0047742Y0140869D01*
X0047742Y0143093D02*
X0048142Y0143093D01*
X0048142Y0144692D02*
X0047742Y0144692D01*
X0047742Y0145869D02*
X0043142Y0145869D01*
X0043142Y0147658D01*
X0045954Y0150469D01*
X0047742Y0150469D01*
X0047742Y0145869D01*
X0047742Y0146290D02*
X0048142Y0146290D01*
X0048142Y0147889D02*
X0047742Y0147889D01*
X0047742Y0149487D02*
X0048142Y0149487D01*
X0045737Y0151086D02*
X0027328Y0151086D01*
X0026840Y0151288D02*
X0024949Y0151288D01*
X0023202Y0150565D01*
X0021865Y0149228D01*
X0021142Y0147481D01*
X0021142Y0145590D01*
X0021865Y0143843D01*
X0023202Y0142506D01*
X0024949Y0141783D01*
X0026840Y0141783D01*
X0028587Y0142506D01*
X0029924Y0143843D01*
X0030647Y0145590D01*
X0030647Y0147481D01*
X0029924Y0149228D01*
X0028587Y0150565D01*
X0026840Y0151288D01*
X0028765Y0152684D02*
X0044138Y0152684D01*
X0043142Y0154283D02*
X0039731Y0154283D01*
X0041398Y0155882D02*
X0043142Y0155882D01*
X0043142Y0157480D02*
X0042996Y0157480D01*
X0043926Y0162087D02*
X0038375Y0156535D01*
X0025894Y0156535D01*
X0021683Y0154283D02*
X0020081Y0154283D01*
X0019959Y0154044D02*
X0020299Y0154711D01*
X0020530Y0155422D01*
X0020647Y0156161D01*
X0020647Y0156351D01*
X0016079Y0156351D01*
X0016079Y0156720D01*
X0015710Y0156720D01*
X0015710Y0161288D01*
X0015520Y0161288D01*
X0014782Y0161171D01*
X0014070Y0160940D01*
X0013403Y0160600D01*
X0012798Y0160161D01*
X0012269Y0159632D01*
X0011830Y0159026D01*
X0011490Y0158360D01*
X0011259Y0157648D01*
X0011142Y0156909D01*
X0011142Y0156720D01*
X0015710Y0156720D01*
X0015710Y0156351D01*
X0011142Y0156351D01*
X0011142Y0156161D01*
X0011259Y0155422D01*
X0011490Y0154711D01*
X0011830Y0154044D01*
X0012269Y0153439D01*
X0012798Y0152910D01*
X0013403Y0152471D01*
X0014070Y0152131D01*
X0014782Y0151900D01*
X0015520Y0151783D01*
X0015710Y0151783D01*
X0015710Y0156351D01*
X0016079Y0156351D01*
X0016079Y0151783D01*
X0016269Y0151783D01*
X0017007Y0151900D01*
X0017719Y0152131D01*
X0018385Y0152471D01*
X0018991Y0152910D01*
X0019520Y0153439D01*
X0019959Y0154044D01*
X0018680Y0152684D02*
X0023024Y0152684D01*
X0024461Y0151086D02*
X0017270Y0151086D01*
X0017007Y0151171D02*
X0016269Y0151288D01*
X0016079Y0151288D01*
X0016079Y0146720D01*
X0015710Y0146720D01*
X0015710Y0151288D01*
X0015520Y0151288D01*
X0014782Y0151171D01*
X0014070Y0150940D01*
X0013403Y0150600D01*
X0012798Y0150161D01*
X0012269Y0149632D01*
X0011830Y0149026D01*
X0011490Y0148360D01*
X0011259Y0147648D01*
X0011142Y0146909D01*
X0011142Y0146720D01*
X0015710Y0146720D01*
X0015710Y0146351D01*
X0011142Y0146351D01*
X0011142Y0146161D01*
X0011259Y0145422D01*
X0011490Y0144711D01*
X0011830Y0144044D01*
X0012269Y0143439D01*
X0012798Y0142910D01*
X0013403Y0142471D01*
X0014070Y0142131D01*
X0014782Y0141900D01*
X0015520Y0141783D01*
X0015710Y0141783D01*
X0015710Y0146351D01*
X0016079Y0146351D01*
X0016079Y0146720D01*
X0020647Y0146720D01*
X0020647Y0146909D01*
X0020530Y0147648D01*
X0020299Y0148360D01*
X0019959Y0149026D01*
X0019520Y0149632D01*
X0018991Y0150161D01*
X0018385Y0150600D01*
X0017719Y0150940D01*
X0017007Y0151171D01*
X0016079Y0151086D02*
X0015710Y0151086D01*
X0014519Y0151086D02*
X0004568Y0151086D01*
X0004568Y0152684D02*
X0013109Y0152684D01*
X0011708Y0154283D02*
X0004568Y0154283D01*
X0004568Y0155882D02*
X0011186Y0155882D01*
X0011232Y0157480D02*
X0004568Y0157480D01*
X0004568Y0159079D02*
X0011867Y0159079D01*
X0013554Y0160677D02*
X0004568Y0160677D01*
X0004568Y0162276D02*
X0013786Y0162276D01*
X0014070Y0162131D02*
X0013403Y0162471D01*
X0012798Y0162910D01*
X0012269Y0163439D01*
X0011830Y0164044D01*
X0011490Y0164711D01*
X0011259Y0165422D01*
X0011142Y0166161D01*
X0011142Y0166351D01*
X0015710Y0166351D01*
X0015710Y0166720D01*
X0015710Y0171288D01*
X0015520Y0171288D01*
X0014782Y0171171D01*
X0014070Y0170940D01*
X0013403Y0170600D01*
X0012798Y0170161D01*
X0012269Y0169632D01*
X0011830Y0169026D01*
X0011490Y0168360D01*
X0011259Y0167648D01*
X0011142Y0166909D01*
X0011142Y0166720D01*
X0015710Y0166720D01*
X0016079Y0166720D01*
X0016079Y0171288D01*
X0016269Y0171288D01*
X0017007Y0171171D01*
X0017719Y0170940D01*
X0018385Y0170600D01*
X0018991Y0170161D01*
X0019520Y0169632D01*
X0019959Y0169026D01*
X0020299Y0168360D01*
X0020530Y0167648D01*
X0020647Y0166909D01*
X0020647Y0166720D01*
X0016079Y0166720D01*
X0016079Y0166351D01*
X0020647Y0166351D01*
X0020647Y0166161D01*
X0020530Y0165422D01*
X0020299Y0164711D01*
X0019959Y0164044D01*
X0019520Y0163439D01*
X0018991Y0162910D01*
X0018385Y0162471D01*
X0017719Y0162131D01*
X0017007Y0161900D01*
X0016269Y0161783D01*
X0016079Y0161783D01*
X0016079Y0166351D01*
X0015710Y0166351D01*
X0015710Y0161783D01*
X0015520Y0161783D01*
X0014782Y0161900D01*
X0014070Y0162131D01*
X0015710Y0162276D02*
X0016079Y0162276D01*
X0016079Y0161288D02*
X0016079Y0156720D01*
X0020647Y0156720D01*
X0020647Y0156909D01*
X0020530Y0157648D01*
X0020299Y0158360D01*
X0019959Y0159026D01*
X0019520Y0159632D01*
X0018991Y0160161D01*
X0018385Y0160600D01*
X0017719Y0160940D01*
X0017007Y0161171D01*
X0016269Y0161288D01*
X0016079Y0161288D01*
X0016079Y0160677D02*
X0015710Y0160677D01*
X0015710Y0159079D02*
X0016079Y0159079D01*
X0016079Y0157480D02*
X0015710Y0157480D01*
X0015710Y0155882D02*
X0016079Y0155882D01*
X0016079Y0154283D02*
X0015710Y0154283D01*
X0015710Y0152684D02*
X0016079Y0152684D01*
X0016079Y0149487D02*
X0015710Y0149487D01*
X0015710Y0147889D02*
X0016079Y0147889D01*
X0016079Y0146351D02*
X0020647Y0146351D01*
X0020647Y0146161D01*
X0020530Y0145422D01*
X0020299Y0144711D01*
X0019959Y0144044D01*
X0019520Y0143439D01*
X0018991Y0142910D01*
X0018385Y0142471D01*
X0017719Y0142131D01*
X0017007Y0141900D01*
X0016269Y0141783D01*
X0016079Y0141783D01*
X0016079Y0146351D01*
X0016079Y0146290D02*
X0015710Y0146290D01*
X0015710Y0144692D02*
X0016079Y0144692D01*
X0016079Y0143093D02*
X0015710Y0143093D01*
X0016079Y0141288D02*
X0016079Y0136720D01*
X0020647Y0136720D01*
X0020647Y0136909D01*
X0020530Y0137648D01*
X0020299Y0138360D01*
X0019959Y0139026D01*
X0019520Y0139632D01*
X0018991Y0140161D01*
X0018385Y0140600D01*
X0017719Y0140940D01*
X0017007Y0141171D01*
X0016269Y0141288D01*
X0016079Y0141288D01*
X0016079Y0139896D02*
X0015710Y0139896D01*
X0015710Y0138298D02*
X0016079Y0138298D01*
X0016079Y0136699D02*
X0021142Y0136699D01*
X0021344Y0135101D02*
X0020426Y0135101D01*
X0019566Y0133502D02*
X0022206Y0133502D01*
X0021480Y0138298D02*
X0020319Y0138298D01*
X0019255Y0139896D02*
X0022534Y0139896D01*
X0022615Y0143093D02*
X0019174Y0143093D01*
X0020289Y0144692D02*
X0021514Y0144692D01*
X0021142Y0146290D02*
X0020647Y0146290D01*
X0020452Y0147889D02*
X0021311Y0147889D01*
X0022125Y0149487D02*
X0019624Y0149487D01*
X0020603Y0155882D02*
X0021142Y0155882D01*
X0021142Y0157480D02*
X0020557Y0157480D01*
X0019922Y0159079D02*
X0021804Y0159079D01*
X0023474Y0160677D02*
X0018235Y0160677D01*
X0018003Y0162276D02*
X0023759Y0162276D01*
X0023202Y0162506D02*
X0024949Y0161783D01*
X0026840Y0161783D01*
X0028587Y0162506D01*
X0029924Y0163843D01*
X0030647Y0165590D01*
X0030647Y0167481D01*
X0029924Y0169228D01*
X0028587Y0170565D01*
X0026840Y0171288D01*
X0024949Y0171288D01*
X0023202Y0170565D01*
X0021865Y0169228D01*
X0021142Y0167481D01*
X0021142Y0165590D01*
X0021865Y0163843D01*
X0023202Y0162506D01*
X0021853Y0163874D02*
X0019836Y0163874D01*
X0020538Y0165473D02*
X0021190Y0165473D01*
X0021142Y0167071D02*
X0020622Y0167071D01*
X0020141Y0168670D02*
X0021634Y0168670D01*
X0022906Y0170268D02*
X0018843Y0170268D01*
X0017719Y0172131D02*
X0018385Y0172471D01*
X0018991Y0172910D01*
X0019520Y0173439D01*
X0019959Y0174044D01*
X0020299Y0174711D01*
X0020530Y0175422D01*
X0020647Y0176161D01*
X0020647Y0176351D01*
X0016079Y0176351D01*
X0016079Y0176720D01*
X0015710Y0176720D01*
X0015710Y0181288D01*
X0015520Y0181288D01*
X0014782Y0181171D01*
X0014070Y0180940D01*
X0013403Y0180600D01*
X0012798Y0180161D01*
X0012269Y0179632D01*
X0011830Y0179026D01*
X0011490Y0178360D01*
X0011259Y0177648D01*
X0011142Y0176909D01*
X0011142Y0176720D01*
X0015710Y0176720D01*
X0015710Y0176351D01*
X0011142Y0176351D01*
X0011142Y0176161D01*
X0011259Y0175422D01*
X0011490Y0174711D01*
X0011830Y0174044D01*
X0012269Y0173439D01*
X0012798Y0172910D01*
X0013403Y0172471D01*
X0014070Y0172131D01*
X0014782Y0171900D01*
X0015520Y0171783D01*
X0015710Y0171783D01*
X0015710Y0176351D01*
X0016079Y0176351D01*
X0016079Y0171783D01*
X0016269Y0171783D01*
X0017007Y0171900D01*
X0017719Y0172131D01*
X0016799Y0171867D02*
X0024746Y0171867D01*
X0024949Y0171783D02*
X0026840Y0171783D01*
X0028587Y0172506D01*
X0029924Y0173843D01*
X0030647Y0175590D01*
X0030647Y0177481D01*
X0029924Y0179228D01*
X0028587Y0180565D01*
X0026840Y0181288D01*
X0024949Y0181288D01*
X0023202Y0180565D01*
X0021865Y0179228D01*
X0021142Y0177481D01*
X0021142Y0175590D01*
X0021865Y0173843D01*
X0023202Y0172506D01*
X0024949Y0171783D01*
X0027043Y0171867D02*
X0044956Y0171867D01*
X0043358Y0173465D02*
X0029546Y0173465D01*
X0030429Y0175064D02*
X0043142Y0175064D01*
X0043142Y0176662D02*
X0030647Y0176662D01*
X0030324Y0178261D02*
X0043745Y0178261D01*
X0045343Y0179859D02*
X0029292Y0179859D01*
X0022497Y0179859D02*
X0019292Y0179859D01*
X0019520Y0179632D02*
X0018991Y0180161D01*
X0018385Y0180600D01*
X0017719Y0180940D01*
X0017007Y0181171D01*
X0016269Y0181288D01*
X0016079Y0181288D01*
X0016079Y0176720D01*
X0020647Y0176720D01*
X0020647Y0176909D01*
X0020530Y0177648D01*
X0020299Y0178360D01*
X0019959Y0179026D01*
X0019520Y0179632D01*
X0020331Y0178261D02*
X0021465Y0178261D01*
X0021142Y0176662D02*
X0016079Y0176662D01*
X0015710Y0176662D02*
X0004568Y0176662D01*
X0004568Y0175064D02*
X0011375Y0175064D01*
X0012250Y0173465D02*
X0004568Y0173465D01*
X0004568Y0171867D02*
X0014990Y0171867D01*
X0015710Y0171867D02*
X0016079Y0171867D01*
X0016079Y0173465D02*
X0015710Y0173465D01*
X0015710Y0175064D02*
X0016079Y0175064D01*
X0016079Y0178261D02*
X0015710Y0178261D01*
X0015710Y0179859D02*
X0016079Y0179859D01*
X0012497Y0179859D02*
X0004568Y0179859D01*
X0004568Y0178261D02*
X0011458Y0178261D01*
X0004568Y0181458D02*
X0045365Y0181458D01*
X0043767Y0183056D02*
X0004568Y0183056D01*
X0004568Y0184655D02*
X0043142Y0184655D01*
X0043142Y0186253D02*
X0004568Y0186253D01*
X0004568Y0187852D02*
X0043336Y0187852D01*
X0044934Y0189450D02*
X0004568Y0189450D01*
X0004568Y0191049D02*
X0044362Y0191049D01*
X0043701Y0192647D02*
X0004568Y0192647D01*
X0004568Y0194246D02*
X0043844Y0194246D01*
X0044877Y0195844D02*
X0004568Y0195844D01*
X0004568Y0197443D02*
X0054329Y0197443D01*
X0054921Y0199041D02*
X0004568Y0199041D01*
X0004568Y0200640D02*
X0054921Y0200640D01*
X0054921Y0202238D02*
X0004568Y0202238D01*
X0004568Y0203837D02*
X0054921Y0203837D01*
X0054921Y0205435D02*
X0004568Y0205435D01*
X0004568Y0207034D02*
X0054921Y0207034D01*
X0054921Y0208632D02*
X0004568Y0208632D01*
X0004568Y0210231D02*
X0054921Y0210231D01*
X0054921Y0211829D02*
X0004568Y0211829D01*
X0004568Y0213428D02*
X0054707Y0213428D01*
X0054134Y0215026D02*
X0004568Y0215026D01*
X0004568Y0216625D02*
X0054463Y0216625D01*
X0057283Y0218223D02*
X0051560Y0218223D01*
X0050071Y0218223D02*
X0044781Y0218223D01*
X0044781Y0219822D02*
X0048136Y0219822D01*
X0047835Y0221420D02*
X0044781Y0221420D01*
X0044781Y0223019D02*
X0048477Y0223019D01*
X0044781Y0224617D02*
X0104276Y0224617D01*
X0104212Y0224420D02*
X0104094Y0223681D01*
X0104094Y0223491D01*
X0108663Y0223491D01*
X0108663Y0223123D01*
X0104094Y0223123D01*
X0104094Y0222933D01*
X0104212Y0222194D01*
X0104443Y0221483D01*
X0104782Y0220816D01*
X0105222Y0220211D01*
X0105751Y0219682D01*
X0106356Y0219242D01*
X0107023Y0218903D01*
X0107734Y0218671D01*
X0108473Y0218554D01*
X0108663Y0218554D01*
X0108663Y0223123D01*
X0109031Y0223123D01*
X0109031Y0218554D01*
X0109221Y0218554D01*
X0109960Y0218671D01*
X0110672Y0218903D01*
X0111338Y0219242D01*
X0111943Y0219682D01*
X0112472Y0220211D01*
X0112912Y0220816D01*
X0113252Y0221483D01*
X0113483Y0222194D01*
X0113600Y0222933D01*
X0113600Y0223123D01*
X0109032Y0223123D01*
X0109032Y0223491D01*
X0113600Y0223491D01*
X0113600Y0223681D01*
X0113483Y0224420D01*
X0113252Y0225132D01*
X0112912Y0225798D01*
X0112472Y0226403D01*
X0111943Y0226932D01*
X0111338Y0227372D01*
X0110672Y0227712D01*
X0109960Y0227943D01*
X0109221Y0228060D01*
X0109031Y0228060D01*
X0109031Y0223491D01*
X0108663Y0223491D01*
X0108663Y0228060D01*
X0108473Y0228060D01*
X0107734Y0227943D01*
X0107023Y0227712D01*
X0106356Y0227372D01*
X0105751Y0226932D01*
X0105222Y0226403D01*
X0104782Y0225798D01*
X0104443Y0225132D01*
X0104212Y0224420D01*
X0104094Y0223019D02*
X0076844Y0223019D01*
X0078443Y0221420D02*
X0104474Y0221420D01*
X0105611Y0219822D02*
X0089886Y0219822D01*
X0086943Y0219822D02*
X0080041Y0219822D01*
X0081640Y0218223D02*
X0085609Y0218223D01*
X0085433Y0216625D02*
X0083238Y0216625D01*
X0084837Y0215026D02*
X0086220Y0215026D01*
X0086435Y0213428D02*
X0086726Y0213428D01*
X0088034Y0211829D02*
X0088325Y0211829D01*
X0083427Y0210231D02*
X0075057Y0210231D01*
X0075057Y0211829D02*
X0081829Y0211829D01*
X0080230Y0213428D02*
X0075057Y0213428D01*
X0075057Y0215026D02*
X0078632Y0215026D01*
X0077033Y0216625D02*
X0075523Y0216625D01*
X0075057Y0208632D02*
X0084055Y0208632D01*
X0084055Y0207034D02*
X0075057Y0207034D01*
X0075057Y0205435D02*
X0084055Y0205435D01*
X0084055Y0203837D02*
X0075057Y0203837D01*
X0075057Y0202238D02*
X0080962Y0202238D01*
X0079480Y0200640D02*
X0075057Y0200640D01*
X0075057Y0199041D02*
X0079134Y0199041D01*
X0079524Y0197443D02*
X0075057Y0197443D01*
X0075057Y0195844D02*
X0081219Y0195844D01*
X0084192Y0195844D02*
X0084231Y0195844D01*
X0085830Y0194246D02*
X0075057Y0194246D01*
X0075057Y0192647D02*
X0087428Y0192647D01*
X0089027Y0191049D02*
X0075057Y0191049D01*
X0063189Y0194019D02*
X0059639Y0190469D01*
X0058088Y0190469D01*
X0060883Y0193265D01*
X0060883Y0195082D01*
X0060883Y0202123D01*
X0061446Y0202685D01*
X0063189Y0200942D01*
X0063189Y0194019D01*
X0063189Y0194246D02*
X0060883Y0194246D01*
X0060883Y0195844D02*
X0063189Y0195844D01*
X0063189Y0197443D02*
X0060883Y0197443D01*
X0060883Y0199041D02*
X0063189Y0199041D01*
X0063189Y0200640D02*
X0060883Y0200640D01*
X0060999Y0202238D02*
X0061892Y0202238D01*
X0052731Y0195844D02*
X0049668Y0195844D01*
X0050701Y0194246D02*
X0051132Y0194246D01*
X0058668Y0191049D02*
X0060219Y0191049D01*
X0060266Y0192647D02*
X0061817Y0192647D01*
X0060628Y0181458D02*
X0060518Y0181458D01*
X0063635Y0178261D02*
X0063745Y0178261D01*
X0063142Y0176662D02*
X0062742Y0176662D01*
X0062742Y0175064D02*
X0063142Y0175064D01*
X0063358Y0173465D02*
X0062526Y0173465D01*
X0060927Y0171867D02*
X0064956Y0171867D01*
X0070927Y0171867D02*
X0074956Y0171867D01*
X0073358Y0173465D02*
X0072526Y0173465D01*
X0072742Y0175064D02*
X0073142Y0175064D01*
X0073142Y0176662D02*
X0072742Y0176662D01*
X0073635Y0178261D02*
X0073745Y0178261D01*
X0075234Y0179859D02*
X0075343Y0179859D01*
X0075365Y0181458D02*
X0075254Y0181458D01*
X0070628Y0181458D02*
X0070518Y0181458D01*
X0065365Y0181458D02*
X0065017Y0181458D01*
X0065017Y0179859D02*
X0065343Y0179859D01*
X0055343Y0179859D02*
X0055175Y0179859D01*
X0055175Y0181458D02*
X0055365Y0181458D01*
X0053745Y0178261D02*
X0053635Y0178261D01*
X0053142Y0176662D02*
X0052742Y0176662D01*
X0052742Y0175064D02*
X0053142Y0175064D01*
X0053358Y0173465D02*
X0052526Y0173465D01*
X0050927Y0171867D02*
X0054956Y0171867D01*
X0050628Y0181458D02*
X0050518Y0181458D01*
X0030155Y0168670D02*
X0111406Y0168670D01*
X0109807Y0170268D02*
X0028883Y0170268D01*
X0030647Y0167071D02*
X0113004Y0167071D01*
X0114603Y0165473D02*
X0030599Y0165473D01*
X0029936Y0163874D02*
X0042036Y0163874D01*
X0040438Y0162276D02*
X0028030Y0162276D01*
X0028315Y0160677D02*
X0038839Y0160677D01*
X0043926Y0162087D02*
X0109280Y0162087D01*
X0114005Y0157362D01*
X0116986Y0157480D02*
X0122596Y0157480D01*
X0124194Y0155882D02*
X0116618Y0155882D01*
X0116504Y0159079D02*
X0120997Y0159079D01*
X0119399Y0160677D02*
X0114367Y0160677D01*
X0112768Y0162276D02*
X0117800Y0162276D01*
X0116202Y0163874D02*
X0111170Y0163874D01*
X0108611Y0159079D02*
X0101321Y0159079D01*
X0102742Y0157480D02*
X0110210Y0157480D01*
X0111391Y0155882D02*
X0102742Y0155882D01*
X0111291Y0152684D02*
X0127391Y0152684D01*
X0128990Y0151086D02*
X0112878Y0151086D01*
X0113246Y0149487D02*
X0130588Y0149487D01*
X0132187Y0147889D02*
X0112878Y0147889D01*
X0094138Y0152684D02*
X0091745Y0152684D01*
X0092742Y0154283D02*
X0093142Y0154283D01*
X0093142Y0155882D02*
X0092742Y0155882D01*
X0092742Y0157480D02*
X0093142Y0157480D01*
X0094563Y0159079D02*
X0091321Y0159079D01*
X0084563Y0159079D02*
X0081321Y0159079D01*
X0082742Y0157480D02*
X0083142Y0157480D01*
X0083142Y0155882D02*
X0082742Y0155882D01*
X0082742Y0154283D02*
X0083142Y0154283D01*
X0084138Y0152684D02*
X0081745Y0152684D01*
X0074138Y0152684D02*
X0071745Y0152684D01*
X0072742Y0154283D02*
X0073142Y0154283D01*
X0073142Y0155882D02*
X0072742Y0155882D01*
X0072742Y0157480D02*
X0073142Y0157480D01*
X0074563Y0159079D02*
X0071321Y0159079D01*
X0064563Y0159079D02*
X0061321Y0159079D01*
X0062742Y0157480D02*
X0063142Y0157480D01*
X0063142Y0155882D02*
X0062742Y0155882D01*
X0062742Y0154283D02*
X0063142Y0154283D01*
X0064138Y0152684D02*
X0061745Y0152684D01*
X0054138Y0152684D02*
X0051745Y0152684D01*
X0052742Y0154283D02*
X0053142Y0154283D01*
X0053142Y0155882D02*
X0052742Y0155882D01*
X0052742Y0157480D02*
X0053142Y0157480D01*
X0054563Y0159079D02*
X0051321Y0159079D01*
X0044972Y0149487D02*
X0029664Y0149487D01*
X0030478Y0147889D02*
X0043373Y0147889D01*
X0043142Y0146290D02*
X0030647Y0146290D01*
X0030275Y0144692D02*
X0043142Y0144692D01*
X0043729Y0143093D02*
X0029174Y0143093D01*
X0029255Y0139896D02*
X0142559Y0139896D01*
X0142872Y0138298D02*
X0030309Y0138298D01*
X0030647Y0136699D02*
X0143891Y0136699D01*
X0150733Y0136699D02*
X0163091Y0136699D01*
X0163107Y0136678D02*
X0163674Y0136110D01*
X0164324Y0135638D01*
X0165039Y0135274D01*
X0165803Y0135026D01*
X0166595Y0134900D01*
X0166813Y0134900D01*
X0166813Y0139816D01*
X0161897Y0139816D01*
X0161897Y0139599D01*
X0162022Y0138806D01*
X0162270Y0138042D01*
X0162635Y0137327D01*
X0163107Y0136678D01*
X0162187Y0138298D02*
X0151751Y0138298D01*
X0152065Y0139896D02*
X0166813Y0139896D01*
X0167181Y0139896D02*
X0185455Y0139896D01*
X0187053Y0138298D02*
X0171806Y0138298D01*
X0171723Y0138042D02*
X0171971Y0138806D01*
X0172097Y0139599D01*
X0172097Y0139816D01*
X0167181Y0139816D01*
X0167181Y0134900D01*
X0167398Y0134900D01*
X0168191Y0135026D01*
X0168955Y0135274D01*
X0169670Y0135638D01*
X0170319Y0136110D01*
X0170887Y0136678D01*
X0171359Y0137327D01*
X0171723Y0138042D01*
X0170903Y0136699D02*
X0188652Y0136699D01*
X0190250Y0135101D02*
X0168423Y0135101D01*
X0167181Y0135101D02*
X0166813Y0135101D01*
X0165571Y0135101D02*
X0030445Y0135101D01*
X0029583Y0133502D02*
X0191849Y0133502D01*
X0190971Y0131904D02*
X0193447Y0131904D01*
X0185070Y0131904D02*
X0027132Y0131904D01*
X0028846Y0130305D02*
X0045790Y0130305D01*
X0044191Y0128707D02*
X0030139Y0128707D01*
X0030647Y0127108D02*
X0043142Y0127108D01*
X0043142Y0125510D02*
X0030614Y0125510D01*
X0029952Y0123911D02*
X0043142Y0123911D01*
X0044600Y0119116D02*
X0029970Y0119116D01*
X0030632Y0117517D02*
X0043142Y0117517D01*
X0043142Y0115919D02*
X0030647Y0115919D01*
X0030121Y0114320D02*
X0043142Y0114320D01*
X0044101Y0112722D02*
X0028802Y0112722D01*
X0013058Y0112722D02*
X0004568Y0112722D01*
X0004568Y0114320D02*
X0011689Y0114320D01*
X0011180Y0115919D02*
X0004568Y0115919D01*
X0004568Y0117517D02*
X0011238Y0117517D01*
X0011894Y0119116D02*
X0004568Y0119116D01*
X0004568Y0120714D02*
X0013627Y0120714D01*
X0013713Y0122313D02*
X0004568Y0122313D01*
X0004568Y0123911D02*
X0011926Y0123911D01*
X0011245Y0125510D02*
X0004568Y0125510D01*
X0004568Y0127108D02*
X0011173Y0127108D01*
X0011667Y0128707D02*
X0004568Y0128707D01*
X0004568Y0130305D02*
X0012997Y0130305D01*
X0014769Y0131904D02*
X0004568Y0131904D01*
X0004568Y0133502D02*
X0012223Y0133502D01*
X0011363Y0135101D02*
X0004568Y0135101D01*
X0004568Y0136699D02*
X0015710Y0136699D01*
X0015710Y0135101D02*
X0016079Y0135101D01*
X0016079Y0133502D02*
X0015710Y0133502D01*
X0011470Y0138298D02*
X0004568Y0138298D01*
X0004568Y0139896D02*
X0012534Y0139896D01*
X0012615Y0143093D02*
X0004568Y0143093D01*
X0004568Y0141495D02*
X0045328Y0141495D01*
X0055954Y0130469D02*
X0053142Y0127658D01*
X0053142Y0123681D01*
X0055954Y0120869D01*
X0059930Y0120869D01*
X0062742Y0123681D01*
X0062742Y0127658D01*
X0059930Y0130469D01*
X0055954Y0130469D01*
X0055790Y0130305D02*
X0050094Y0130305D01*
X0051692Y0128707D02*
X0054191Y0128707D01*
X0053142Y0127108D02*
X0052742Y0127108D01*
X0052742Y0125510D02*
X0053142Y0125510D01*
X0053142Y0123911D02*
X0052742Y0123911D01*
X0051373Y0122313D02*
X0054510Y0122313D01*
X0055954Y0120469D02*
X0053142Y0117658D01*
X0053142Y0115869D01*
X0057742Y0115869D01*
X0057742Y0115469D01*
X0058142Y0115469D01*
X0058142Y0115869D01*
X0062742Y0115869D01*
X0062742Y0117658D01*
X0059930Y0120469D01*
X0058142Y0120469D01*
X0058142Y0115869D01*
X0057742Y0115869D01*
X0057742Y0120469D01*
X0055954Y0120469D01*
X0054600Y0119116D02*
X0051283Y0119116D01*
X0052742Y0117517D02*
X0053142Y0117517D01*
X0053142Y0115919D02*
X0052742Y0115919D01*
X0053142Y0115469D02*
X0053142Y0113681D01*
X0055954Y0110869D01*
X0057742Y0110869D01*
X0057742Y0115469D01*
X0053142Y0115469D01*
X0053142Y0114320D02*
X0052742Y0114320D01*
X0051782Y0112722D02*
X0054101Y0112722D01*
X0055700Y0111123D02*
X0050184Y0111123D01*
X0057742Y0111123D02*
X0058142Y0111123D01*
X0058142Y0110869D02*
X0059930Y0110869D01*
X0062742Y0113681D01*
X0062742Y0115469D01*
X0058142Y0115469D01*
X0058142Y0110869D01*
X0058142Y0112722D02*
X0057742Y0112722D01*
X0057742Y0114320D02*
X0058142Y0114320D01*
X0058142Y0115919D02*
X0057742Y0115919D01*
X0057742Y0117517D02*
X0058142Y0117517D01*
X0058142Y0119116D02*
X0057742Y0119116D01*
X0061283Y0119116D02*
X0064600Y0119116D01*
X0065954Y0120469D02*
X0063142Y0117658D01*
X0063142Y0115869D01*
X0067742Y0115869D01*
X0067742Y0115469D01*
X0068142Y0115469D01*
X0068142Y0115869D01*
X0072742Y0115869D01*
X0072742Y0117658D01*
X0069930Y0120469D01*
X0068142Y0120469D01*
X0068142Y0115869D01*
X0067742Y0115869D01*
X0067742Y0120469D01*
X0065954Y0120469D01*
X0065954Y0120869D02*
X0069930Y0120869D01*
X0072742Y0123681D01*
X0072742Y0127658D01*
X0069930Y0130469D01*
X0065954Y0130469D01*
X0063142Y0127658D01*
X0063142Y0123681D01*
X0065954Y0120869D01*
X0064510Y0122313D02*
X0061373Y0122313D01*
X0062742Y0123911D02*
X0063142Y0123911D01*
X0063142Y0125510D02*
X0062742Y0125510D01*
X0062742Y0127108D02*
X0063142Y0127108D01*
X0064191Y0128707D02*
X0061692Y0128707D01*
X0060094Y0130305D02*
X0065790Y0130305D01*
X0070094Y0130305D02*
X0075790Y0130305D01*
X0075954Y0130469D02*
X0073142Y0127658D01*
X0073142Y0123681D01*
X0075954Y0120869D01*
X0079930Y0120869D01*
X0082742Y0123681D01*
X0082742Y0127658D01*
X0079930Y0130469D01*
X0075954Y0130469D01*
X0074191Y0128707D02*
X0071692Y0128707D01*
X0072742Y0127108D02*
X0073142Y0127108D01*
X0073142Y0125510D02*
X0072742Y0125510D01*
X0072742Y0123911D02*
X0073142Y0123911D01*
X0074510Y0122313D02*
X0071373Y0122313D01*
X0075954Y0120469D02*
X0073142Y0117658D01*
X0073142Y0115869D01*
X0077742Y0115869D01*
X0077742Y0115469D01*
X0078142Y0115469D01*
X0078142Y0115869D01*
X0082742Y0115869D01*
X0082742Y0117658D01*
X0079930Y0120469D01*
X0078142Y0120469D01*
X0078142Y0115869D01*
X0077742Y0115869D01*
X0077742Y0120469D01*
X0075954Y0120469D01*
X0074600Y0119116D02*
X0071283Y0119116D01*
X0072742Y0117517D02*
X0073142Y0117517D01*
X0073142Y0115919D02*
X0072742Y0115919D01*
X0072742Y0115469D02*
X0068142Y0115469D01*
X0068142Y0110869D01*
X0069930Y0110869D01*
X0072742Y0113681D01*
X0072742Y0115469D01*
X0073142Y0115469D02*
X0073142Y0113681D01*
X0075954Y0110869D01*
X0077742Y0110869D01*
X0077742Y0115469D01*
X0073142Y0115469D01*
X0073142Y0114320D02*
X0072742Y0114320D01*
X0071782Y0112722D02*
X0074101Y0112722D01*
X0075700Y0111123D02*
X0070184Y0111123D01*
X0068142Y0111123D02*
X0067742Y0111123D01*
X0067742Y0110869D02*
X0067742Y0115469D01*
X0063142Y0115469D01*
X0063142Y0113681D01*
X0065954Y0110869D01*
X0067742Y0110869D01*
X0067742Y0112722D02*
X0068142Y0112722D01*
X0068142Y0114320D02*
X0067742Y0114320D01*
X0067742Y0115919D02*
X0068142Y0115919D01*
X0068142Y0117517D02*
X0067742Y0117517D01*
X0067742Y0119116D02*
X0068142Y0119116D01*
X0063142Y0117517D02*
X0062742Y0117517D01*
X0062742Y0115919D02*
X0063142Y0115919D01*
X0063142Y0114320D02*
X0062742Y0114320D01*
X0061782Y0112722D02*
X0064101Y0112722D01*
X0065700Y0111123D02*
X0060184Y0111123D01*
X0077742Y0111123D02*
X0078142Y0111123D01*
X0078142Y0110869D02*
X0079930Y0110869D01*
X0082742Y0113681D01*
X0082742Y0115469D01*
X0078142Y0115469D01*
X0078142Y0110869D01*
X0078142Y0112722D02*
X0077742Y0112722D01*
X0077742Y0114320D02*
X0078142Y0114320D01*
X0078142Y0115919D02*
X0077742Y0115919D01*
X0077742Y0117517D02*
X0078142Y0117517D01*
X0078142Y0119116D02*
X0077742Y0119116D01*
X0081283Y0119116D02*
X0084600Y0119116D01*
X0083142Y0117517D02*
X0082742Y0117517D01*
X0082742Y0115919D02*
X0083142Y0115919D01*
X0083142Y0114320D02*
X0082742Y0114320D01*
X0081782Y0112722D02*
X0084101Y0112722D01*
X0085700Y0111123D02*
X0080184Y0111123D01*
X0081373Y0122313D02*
X0084510Y0122313D01*
X0083142Y0123911D02*
X0082742Y0123911D01*
X0082742Y0125510D02*
X0083142Y0125510D01*
X0083142Y0127108D02*
X0082742Y0127108D01*
X0081692Y0128707D02*
X0084191Y0128707D01*
X0085790Y0130305D02*
X0080094Y0130305D01*
X0131997Y0154283D02*
X0169100Y0154283D01*
X0170509Y0159079D02*
X0181496Y0159079D01*
X0181496Y0160677D02*
X0168954Y0160677D01*
X0168954Y0162276D02*
X0181496Y0162276D01*
X0181496Y0163874D02*
X0168076Y0163874D01*
X0166477Y0165473D02*
X0181496Y0165473D01*
X0181496Y0167071D02*
X0164879Y0167071D01*
X0163280Y0168670D02*
X0181496Y0168670D01*
X0181496Y0170268D02*
X0162715Y0170268D01*
X0163057Y0171867D02*
X0181496Y0171867D01*
X0181496Y0173465D02*
X0163057Y0173465D01*
X0162580Y0175064D02*
X0174765Y0175064D01*
X0174016Y0176662D02*
X0160981Y0176662D01*
X0155532Y0176662D02*
X0150981Y0176662D01*
X0152580Y0175064D02*
X0153934Y0175064D01*
X0153457Y0173465D02*
X0153057Y0173465D01*
X0153057Y0171867D02*
X0153457Y0171867D01*
X0153689Y0170268D02*
X0153799Y0170268D01*
X0150682Y0167071D02*
X0150572Y0167071D01*
X0150245Y0167398D02*
X0146268Y0167398D01*
X0143457Y0164587D01*
X0143457Y0160610D01*
X0146268Y0157798D01*
X0150245Y0157798D01*
X0153057Y0160610D01*
X0153057Y0164587D01*
X0150245Y0167398D01*
X0152171Y0165473D02*
X0152280Y0165473D01*
X0153057Y0163874D02*
X0153457Y0163874D01*
X0153457Y0162276D02*
X0153057Y0162276D01*
X0153057Y0160677D02*
X0153457Y0160677D01*
X0154988Y0159079D02*
X0151525Y0159079D01*
X0144988Y0159079D02*
X0141525Y0159079D01*
X0142656Y0160677D02*
X0143457Y0160677D01*
X0143457Y0162276D02*
X0143057Y0162276D01*
X0142924Y0163874D02*
X0143457Y0163874D01*
X0144343Y0165473D02*
X0142171Y0165473D01*
X0140002Y0167071D02*
X0145941Y0167071D01*
X0145397Y0168670D02*
X0141116Y0168670D01*
X0142715Y0170268D02*
X0143799Y0170268D01*
X0143457Y0171867D02*
X0143057Y0171867D01*
X0143057Y0173465D02*
X0143457Y0173465D01*
X0143934Y0175064D02*
X0142580Y0175064D01*
X0140981Y0176662D02*
X0145532Y0176662D01*
X0163057Y0162276D02*
X0163469Y0162276D01*
X0163057Y0160677D02*
X0164567Y0160677D01*
X0164567Y0159079D02*
X0161525Y0159079D01*
X0178572Y0152684D02*
X0133596Y0152684D01*
X0135194Y0151086D02*
X0178740Y0151086D01*
X0180194Y0149487D02*
X0136793Y0149487D01*
X0139216Y0147889D02*
X0181793Y0147889D01*
X0183856Y0141495D02*
X0171874Y0141495D01*
X0167181Y0138298D02*
X0166813Y0138298D01*
X0166813Y0136699D02*
X0167181Y0136699D01*
X0162120Y0141495D02*
X0151837Y0141495D01*
X0179981Y0157480D02*
X0181496Y0157480D01*
X0195737Y0168670D02*
X0243504Y0168670D01*
X0243504Y0170268D02*
X0243302Y0170268D01*
X0247891Y0170268D02*
X0250197Y0170268D01*
X0250197Y0168670D02*
X0247891Y0168670D01*
X0247891Y0167071D02*
X0251745Y0167071D01*
X0252809Y0165473D02*
X0247906Y0165473D01*
X0248679Y0163874D02*
X0252748Y0163874D01*
X0253220Y0162276D02*
X0248432Y0162276D01*
X0254752Y0170268D02*
X0254862Y0170268D01*
X0250197Y0171867D02*
X0247891Y0171867D01*
X0246681Y0173465D02*
X0250197Y0173465D01*
X0238392Y0170268D02*
X0197388Y0170268D01*
X0198986Y0171867D02*
X0237866Y0171867D01*
X0236309Y0173465D02*
X0200585Y0173465D01*
X0194145Y0184655D02*
X0244488Y0184655D01*
X0244019Y0186253D02*
X0192547Y0186253D01*
X0190948Y0187852D02*
X0242421Y0187852D01*
X0240822Y0189450D02*
X0182542Y0189450D01*
X0157087Y0210231D02*
X0122492Y0210231D01*
X0123380Y0211829D02*
X0157291Y0211829D01*
X0157953Y0213428D02*
X0123600Y0213428D01*
X0123279Y0215026D02*
X0159034Y0215026D01*
X0160681Y0216625D02*
X0122251Y0216625D01*
X0121539Y0219278D02*
X0119793Y0218554D01*
X0117902Y0218554D01*
X0116155Y0219278D01*
X0114818Y0220615D01*
X0114094Y0222362D01*
X0114094Y0224252D01*
X0114818Y0225999D01*
X0116155Y0227336D01*
X0117902Y0228060D01*
X0119793Y0228060D01*
X0121539Y0227336D01*
X0122876Y0225999D01*
X0123600Y0224252D01*
X0123600Y0222362D01*
X0122876Y0220615D01*
X0121539Y0219278D01*
X0122084Y0219822D02*
X0161396Y0219822D01*
X0161421Y0219808D02*
X0162450Y0219381D01*
X0163525Y0219093D01*
X0164386Y0218980D01*
X0164386Y0226641D01*
X0156725Y0226641D01*
X0156838Y0225780D01*
X0157126Y0224705D01*
X0157552Y0223677D01*
X0158109Y0222712D01*
X0158787Y0221829D01*
X0159574Y0221042D01*
X0160457Y0220364D01*
X0161421Y0219808D01*
X0159195Y0221420D02*
X0123210Y0221420D01*
X0123600Y0223019D02*
X0157932Y0223019D01*
X0157163Y0224617D02*
X0123449Y0224617D01*
X0122660Y0226216D02*
X0156781Y0226216D01*
X0156922Y0229413D02*
X0044781Y0229413D01*
X0044781Y0227815D02*
X0107339Y0227815D01*
X0108663Y0227815D02*
X0109031Y0227815D01*
X0110355Y0227815D02*
X0117310Y0227815D01*
X0115035Y0226216D02*
X0112609Y0226216D01*
X0113419Y0224617D02*
X0114246Y0224617D01*
X0114094Y0223019D02*
X0113600Y0223019D01*
X0113220Y0221420D02*
X0114484Y0221420D01*
X0115611Y0219822D02*
X0112084Y0219822D01*
X0109031Y0219822D02*
X0108663Y0219822D01*
X0108663Y0221420D02*
X0109031Y0221420D01*
X0109031Y0223019D02*
X0108663Y0223019D01*
X0108663Y0224617D02*
X0109031Y0224617D01*
X0109031Y0226216D02*
X0108663Y0226216D01*
X0105086Y0226216D02*
X0044781Y0226216D01*
X0044781Y0231012D02*
X0157472Y0231012D01*
X0158447Y0232610D02*
X0044781Y0232610D01*
X0044781Y0234209D02*
X0144326Y0234209D01*
X0142728Y0235807D02*
X0044781Y0235807D01*
X0044781Y0237406D02*
X0141992Y0237406D01*
X0141551Y0239004D02*
X0044781Y0239004D01*
X0044781Y0240603D02*
X0141551Y0240603D01*
X0141959Y0242201D02*
X0044781Y0242201D01*
X0044781Y0243800D02*
X0142649Y0243800D01*
X0152581Y0234209D02*
X0160054Y0234209D01*
X0164386Y0234209D02*
X0165986Y0234209D01*
X0165986Y0232610D02*
X0164386Y0232610D01*
X0164386Y0231012D02*
X0165986Y0231012D01*
X0165986Y0229413D02*
X0164386Y0229413D01*
X0164386Y0227815D02*
X0120385Y0227815D01*
X0115444Y0216625D02*
X0112251Y0216625D01*
X0113279Y0215026D02*
X0114415Y0215026D01*
X0114094Y0213428D02*
X0113600Y0213428D01*
X0113380Y0211829D02*
X0114315Y0211829D01*
X0115202Y0210231D02*
X0112492Y0210231D01*
X0111842Y0207034D02*
X0115853Y0207034D01*
X0114584Y0205435D02*
X0113110Y0205435D01*
X0113600Y0203837D02*
X0114094Y0203837D01*
X0114146Y0202238D02*
X0113549Y0202238D01*
X0112887Y0200640D02*
X0114808Y0200640D01*
X0116041Y0199216D02*
X0116041Y0199216D01*
X0116215Y0199041D02*
X0116726Y0199041D01*
X0164386Y0219822D02*
X0165986Y0219822D01*
X0165986Y0221420D02*
X0164386Y0221420D01*
X0164386Y0223019D02*
X0165986Y0223019D01*
X0165986Y0224617D02*
X0164386Y0224617D01*
X0164386Y0226216D02*
X0165986Y0226216D01*
X0165986Y0227815D02*
X0225409Y0227815D01*
X0225409Y0229413D02*
X0227009Y0229413D01*
X0227009Y0227815D02*
X0286433Y0227815D01*
X0286433Y0229413D02*
X0288033Y0229413D01*
X0288033Y0231012D02*
X0286433Y0231012D01*
X0286433Y0232610D02*
X0288033Y0232610D01*
X0288033Y0234209D02*
X0286433Y0234209D01*
X0282728Y0216625D02*
X0230714Y0216625D01*
X0232361Y0215026D02*
X0281081Y0215026D01*
X0280001Y0213428D02*
X0233442Y0213428D01*
X0234104Y0211829D02*
X0279338Y0211829D01*
X0279134Y0210231D02*
X0234309Y0210231D01*
X0234309Y0208632D02*
X0279134Y0208632D01*
X0279581Y0207034D02*
X0233862Y0207034D01*
X0233199Y0205435D02*
X0280243Y0205435D01*
X0281667Y0203837D02*
X0231776Y0203837D01*
X0229301Y0202238D02*
X0284142Y0202238D01*
X0241746Y0195844D02*
X0439976Y0195844D01*
X0323189Y0159079D02*
X0322084Y0159079D01*
X0308661Y0143068D02*
X0304435Y0147294D01*
X0281152Y0147294D01*
X0281422Y0147025D01*
X0282061Y0145481D01*
X0282061Y0143810D01*
X0281422Y0142267D01*
X0280241Y0141085D01*
X0278697Y0140446D01*
X0272226Y0140446D01*
X0270682Y0141085D01*
X0269501Y0142267D01*
X0268861Y0143810D01*
X0268861Y0145481D01*
X0269501Y0147025D01*
X0269771Y0147294D01*
X0251152Y0147294D01*
X0251422Y0147025D01*
X0252061Y0145481D01*
X0252061Y0143810D01*
X0251422Y0142267D01*
X0250241Y0141085D01*
X0248697Y0140446D01*
X0242226Y0140446D01*
X0240682Y0141085D01*
X0239501Y0142267D01*
X0238861Y0143810D01*
X0238861Y0145481D01*
X0239501Y0147025D01*
X0239771Y0147294D01*
X0217669Y0147294D01*
X0216198Y0145824D01*
X0216198Y0137556D01*
X0214913Y0136271D01*
X0212261Y0133619D01*
X0212261Y0133178D01*
X0221606Y0133178D01*
X0222000Y0132784D01*
X0222472Y0132784D01*
X0223567Y0132330D01*
X0223901Y0131997D01*
X0239771Y0131997D01*
X0239501Y0132267D01*
X0238861Y0133810D01*
X0238861Y0135481D01*
X0239501Y0137025D01*
X0240682Y0138206D01*
X0242226Y0138846D01*
X0248697Y0138846D01*
X0250241Y0138206D01*
X0251422Y0137025D01*
X0252061Y0135481D01*
X0252061Y0133810D01*
X0251422Y0132267D01*
X0251152Y0131997D01*
X0269771Y0131997D01*
X0269501Y0132267D01*
X0268861Y0133810D01*
X0268861Y0135481D01*
X0269501Y0137025D01*
X0270682Y0138206D01*
X0272226Y0138846D01*
X0278697Y0138846D01*
X0280241Y0138206D01*
X0281422Y0137025D01*
X0282061Y0135481D01*
X0282061Y0133810D01*
X0281941Y0133519D01*
X0284252Y0135830D01*
X0285537Y0137115D01*
X0299559Y0137115D01*
X0303496Y0133178D01*
X0316313Y0133178D01*
X0316647Y0133512D01*
X0317742Y0133965D01*
X0318928Y0133965D01*
X0320024Y0133512D01*
X0320863Y0132673D01*
X0321317Y0131577D01*
X0321317Y0130391D01*
X0320863Y0129296D01*
X0320024Y0128457D01*
X0318997Y0128031D01*
X0319585Y0127788D01*
X0320190Y0128393D01*
X0321286Y0128847D01*
X0322472Y0128847D01*
X0323128Y0128575D01*
X0323733Y0129181D01*
X0324287Y0129410D01*
X0319685Y0134013D01*
X0319685Y0138411D01*
X0319353Y0138742D01*
X0317380Y0136768D01*
X0316094Y0135483D01*
X0311915Y0135483D01*
X0310630Y0136768D01*
X0308661Y0138737D01*
X0308661Y0143068D01*
X0308636Y0143093D02*
X0281764Y0143093D01*
X0282061Y0144692D02*
X0307037Y0144692D01*
X0305439Y0146290D02*
X0281726Y0146290D01*
X0280650Y0141495D02*
X0308661Y0141495D01*
X0308661Y0139896D02*
X0216198Y0139896D01*
X0216198Y0138298D02*
X0240904Y0138298D01*
X0239366Y0136699D02*
X0215342Y0136699D01*
X0213743Y0135101D02*
X0238861Y0135101D01*
X0238989Y0133502D02*
X0212261Y0133502D01*
X0216198Y0141495D02*
X0240272Y0141495D01*
X0239158Y0143093D02*
X0216198Y0143093D01*
X0216198Y0144692D02*
X0238861Y0144692D01*
X0239197Y0146290D02*
X0216665Y0146290D01*
X0250019Y0138298D02*
X0270904Y0138298D01*
X0269366Y0136699D02*
X0251557Y0136699D01*
X0252061Y0135101D02*
X0268861Y0135101D01*
X0268989Y0133502D02*
X0251934Y0133502D01*
X0250650Y0141495D02*
X0270272Y0141495D01*
X0269158Y0143093D02*
X0251764Y0143093D01*
X0252061Y0144692D02*
X0268861Y0144692D01*
X0269197Y0146290D02*
X0251726Y0146290D01*
X0280019Y0138298D02*
X0309101Y0138298D01*
X0310699Y0136699D02*
X0299975Y0136699D01*
X0301573Y0135101D02*
X0319685Y0135101D01*
X0319685Y0136699D02*
X0317310Y0136699D01*
X0318909Y0138298D02*
X0319685Y0138298D01*
X0320033Y0133502D02*
X0320195Y0133502D01*
X0321181Y0131904D02*
X0321794Y0131904D01*
X0321281Y0130305D02*
X0323392Y0130305D01*
X0323259Y0128707D02*
X0322811Y0128707D01*
X0320947Y0128707D02*
X0320274Y0128707D01*
X0316397Y0128707D02*
X0300555Y0128707D01*
X0298396Y0127108D02*
X0316149Y0127108D01*
X0315354Y0125510D02*
X0285608Y0125510D01*
X0287206Y0127108D02*
X0296543Y0127108D01*
X0303172Y0133502D02*
X0316638Y0133502D01*
X0310497Y0123911D02*
X0284009Y0123911D01*
X0282411Y0122313D02*
X0309599Y0122313D01*
X0309795Y0120714D02*
X0280812Y0120714D01*
X0279214Y0119116D02*
X0304015Y0119116D01*
X0304520Y0119325D02*
X0303425Y0118871D01*
X0303046Y0118493D01*
X0301561Y0118493D01*
X0300276Y0117208D01*
X0296559Y0113491D01*
X0296559Y0113388D01*
X0295755Y0113721D01*
X0294334Y0113721D01*
X0293021Y0113177D01*
X0292016Y0112173D01*
X0291472Y0110860D01*
X0291472Y0109439D01*
X0292016Y0108126D01*
X0293021Y0107122D01*
X0294334Y0106578D01*
X0295755Y0106578D01*
X0296559Y0106911D01*
X0296559Y0103837D01*
X0296225Y0103504D01*
X0295772Y0102408D01*
X0295772Y0101222D01*
X0296225Y0100126D01*
X0297064Y0099288D01*
X0298160Y0098834D01*
X0299346Y0098834D01*
X0300441Y0099288D01*
X0301280Y0100126D01*
X0301734Y0101222D01*
X0301734Y0102408D01*
X0301280Y0103504D01*
X0300946Y0103837D01*
X0300946Y0111674D01*
X0303257Y0113985D01*
X0303425Y0113817D01*
X0304520Y0113363D01*
X0305706Y0113363D01*
X0306802Y0113817D01*
X0307641Y0114655D01*
X0308094Y0115751D01*
X0308094Y0116937D01*
X0307641Y0118033D01*
X0306802Y0118871D01*
X0305706Y0119325D01*
X0304520Y0119325D01*
X0306212Y0119116D02*
X0311219Y0119116D01*
X0313577Y0117517D02*
X0307854Y0117517D01*
X0308094Y0115919D02*
X0311979Y0115919D01*
X0310380Y0114320D02*
X0307305Y0114320D01*
X0308782Y0112722D02*
X0301994Y0112722D01*
X0300946Y0111123D02*
X0308268Y0111123D01*
X0308268Y0109525D02*
X0300946Y0109525D01*
X0300946Y0107926D02*
X0308268Y0107926D01*
X0308268Y0106328D02*
X0300946Y0106328D01*
X0300946Y0104729D02*
X0308268Y0104729D01*
X0308268Y0103131D02*
X0301435Y0103131D01*
X0301734Y0101532D02*
X0308268Y0101532D01*
X0308268Y0099934D02*
X0301087Y0099934D01*
X0296418Y0099934D02*
X0263778Y0099934D01*
X0264172Y0099770D02*
X0262859Y0100314D01*
X0261438Y0100314D01*
X0260126Y0099770D01*
X0259121Y0098766D01*
X0258577Y0097453D01*
X0258577Y0096032D01*
X0259121Y0094719D01*
X0260126Y0093715D01*
X0261438Y0093171D01*
X0262859Y0093171D01*
X0264172Y0093715D01*
X0265177Y0094719D01*
X0265720Y0096032D01*
X0265720Y0097453D01*
X0265177Y0098766D01*
X0264172Y0099770D01*
X0265355Y0098335D02*
X0308268Y0098335D01*
X0308268Y0096737D02*
X0265720Y0096737D01*
X0265350Y0095138D02*
X0308268Y0095138D01*
X0308268Y0093540D02*
X0274637Y0093540D01*
X0274802Y0093471D02*
X0273489Y0094015D01*
X0272068Y0094015D01*
X0270756Y0093471D01*
X0269751Y0092466D01*
X0269207Y0091154D01*
X0269207Y0089733D01*
X0269751Y0088420D01*
X0270756Y0087415D01*
X0272068Y0086872D01*
X0273489Y0086872D01*
X0274802Y0087415D01*
X0275807Y0088420D01*
X0276350Y0089733D01*
X0276350Y0091154D01*
X0275807Y0092466D01*
X0274802Y0093471D01*
X0276024Y0091941D02*
X0308268Y0091941D01*
X0308268Y0090343D02*
X0276350Y0090343D01*
X0275941Y0088744D02*
X0307492Y0088744D01*
X0307380Y0087146D02*
X0274150Y0087146D01*
X0271407Y0087146D02*
X0231946Y0087146D01*
X0231636Y0085547D02*
X0308378Y0085547D01*
X0313056Y0083948D02*
X0229655Y0083948D01*
X0228276Y0083948D02*
X0186037Y0083948D01*
X0184176Y0083948D02*
X0178826Y0083948D01*
X0178826Y0082350D02*
X0314655Y0082350D01*
X0316253Y0080751D02*
X0177352Y0080751D01*
X0176240Y0079153D02*
X0317116Y0079153D01*
X0318500Y0077554D02*
X0175269Y0077554D01*
X0178826Y0085547D02*
X0182394Y0085547D01*
X0182125Y0087146D02*
X0178826Y0087146D01*
X0178826Y0088744D02*
X0182845Y0088744D01*
X0178826Y0090343D02*
X0188765Y0090343D01*
X0190363Y0091941D02*
X0178826Y0091941D01*
X0178826Y0093540D02*
X0190551Y0093540D01*
X0190551Y0095138D02*
X0178826Y0095138D01*
X0178956Y0096737D02*
X0190551Y0096737D01*
X0190551Y0098335D02*
X0180555Y0098335D01*
X0182153Y0099934D02*
X0190551Y0099934D01*
X0190551Y0101532D02*
X0183752Y0101532D01*
X0185350Y0103131D02*
X0190551Y0103131D01*
X0190551Y0104729D02*
X0186949Y0104729D01*
X0188547Y0106328D02*
X0190551Y0106328D01*
X0190551Y0107926D02*
X0190146Y0107926D01*
X0187138Y0111123D02*
X0180026Y0111123D01*
X0180772Y0112722D02*
X0188737Y0112722D01*
X0190335Y0114320D02*
X0180684Y0114320D01*
X0178826Y0109525D02*
X0185540Y0109525D01*
X0183941Y0107926D02*
X0178826Y0107926D01*
X0178826Y0106328D02*
X0182343Y0106328D01*
X0180744Y0104729D02*
X0178826Y0104729D01*
X0194939Y0104729D02*
X0206299Y0104729D01*
X0206299Y0103131D02*
X0194939Y0103131D01*
X0194939Y0101532D02*
X0206299Y0101532D01*
X0206299Y0099934D02*
X0194939Y0099934D01*
X0194939Y0098335D02*
X0206299Y0098335D01*
X0206299Y0096737D02*
X0194939Y0096737D01*
X0194939Y0095138D02*
X0206299Y0095138D01*
X0206299Y0093540D02*
X0194939Y0093540D01*
X0194939Y0091941D02*
X0206299Y0091941D01*
X0206299Y0090343D02*
X0194939Y0090343D01*
X0193371Y0088744D02*
X0207473Y0088744D01*
X0209072Y0087146D02*
X0191772Y0087146D01*
X0190174Y0085547D02*
X0210670Y0085547D01*
X0212079Y0090343D02*
X0223819Y0090343D01*
X0223986Y0091941D02*
X0210687Y0091941D01*
X0210687Y0093540D02*
X0225052Y0093540D01*
X0229729Y0093540D02*
X0260548Y0093540D01*
X0258947Y0095138D02*
X0210687Y0095138D01*
X0210687Y0096737D02*
X0258577Y0096737D01*
X0258943Y0098335D02*
X0210687Y0098335D01*
X0210687Y0099934D02*
X0260520Y0099934D01*
X0263749Y0093540D02*
X0270921Y0093540D01*
X0269533Y0091941D02*
X0230795Y0091941D01*
X0230962Y0090343D02*
X0269207Y0090343D01*
X0269617Y0088744D02*
X0231327Y0088744D01*
X0210687Y0101532D02*
X0295772Y0101532D01*
X0296071Y0103131D02*
X0210687Y0103131D01*
X0210687Y0104729D02*
X0296559Y0104729D01*
X0296559Y0106328D02*
X0210687Y0106328D01*
X0210687Y0107926D02*
X0292216Y0107926D01*
X0291472Y0109525D02*
X0210687Y0109525D01*
X0210687Y0111123D02*
X0291581Y0111123D01*
X0292565Y0112722D02*
X0210687Y0112722D01*
X0210687Y0114320D02*
X0297388Y0114320D01*
X0298986Y0115919D02*
X0210687Y0115919D01*
X0210687Y0117517D02*
X0245542Y0117517D01*
X0248609Y0117517D02*
X0300585Y0117517D01*
X0315364Y0113099D02*
X0316761Y0114497D01*
X0318046Y0115782D01*
X0318046Y0121806D01*
X0318338Y0122098D01*
X0318928Y0122098D01*
X0319685Y0122411D01*
X0319685Y0113389D01*
X0319395Y0113099D01*
X0315364Y0113099D01*
X0316585Y0114320D02*
X0319685Y0114320D01*
X0319685Y0115919D02*
X0318046Y0115919D01*
X0318046Y0117517D02*
X0319685Y0117517D01*
X0319685Y0119116D02*
X0318046Y0119116D01*
X0318046Y0120714D02*
X0319685Y0120714D01*
X0319685Y0122313D02*
X0319448Y0122313D01*
X0330018Y0123911D02*
X0332176Y0123911D01*
X0331890Y0122313D02*
X0331083Y0122313D01*
X0331065Y0120714D02*
X0331890Y0120714D01*
X0331890Y0119116D02*
X0330372Y0119116D01*
X0330372Y0117517D02*
X0332243Y0117517D01*
X0333842Y0115919D02*
X0330372Y0115919D01*
X0330622Y0114320D02*
X0334327Y0114320D01*
X0332220Y0112722D02*
X0340256Y0112722D01*
X0339616Y0117111D02*
X0339367Y0117712D01*
X0338528Y0118551D01*
X0337432Y0119005D01*
X0336961Y0119005D01*
X0336277Y0119688D01*
X0336277Y0121704D01*
X0339127Y0121704D01*
X0338976Y0121341D01*
X0338976Y0120155D01*
X0339430Y0119059D01*
X0339764Y0118726D01*
X0339764Y0117258D01*
X0339616Y0117111D01*
X0339764Y0117517D02*
X0339447Y0117517D01*
X0339407Y0119116D02*
X0336850Y0119116D01*
X0336277Y0120714D02*
X0338976Y0120714D01*
X0326378Y0109525D02*
X0322025Y0109525D01*
X0323624Y0111123D02*
X0324858Y0111123D01*
X0326378Y0107926D02*
X0316592Y0107926D01*
X0316592Y0106328D02*
X0326378Y0106328D01*
X0326378Y0104729D02*
X0316592Y0104729D01*
X0316592Y0103131D02*
X0326378Y0103131D01*
X0326378Y0101532D02*
X0316592Y0101532D01*
X0316592Y0099934D02*
X0326378Y0099934D01*
X0326378Y0098335D02*
X0316592Y0098335D01*
X0316592Y0096737D02*
X0326378Y0096737D01*
X0326378Y0095138D02*
X0316592Y0095138D01*
X0316592Y0093540D02*
X0326378Y0093540D01*
X0326717Y0091941D02*
X0316592Y0091941D01*
X0316592Y0090343D02*
X0328316Y0090343D01*
X0329914Y0088744D02*
X0316592Y0088744D01*
X0316592Y0087146D02*
X0331496Y0087146D01*
X0331998Y0085547D02*
X0317662Y0085547D01*
X0319261Y0083948D02*
X0374963Y0083948D01*
X0345669Y0090343D02*
X0339048Y0090343D01*
X0337449Y0091941D02*
X0345918Y0091941D01*
X0337639Y0085547D02*
X0336957Y0085547D01*
X0366171Y0117517D02*
X0439976Y0117517D01*
X0439976Y0119116D02*
X0366986Y0119116D01*
X0366756Y0120714D02*
X0439976Y0120714D01*
X0439976Y0122313D02*
X0365166Y0122313D01*
X0362844Y0122313D02*
X0359605Y0122313D01*
X0361236Y0123911D02*
X0439976Y0123911D01*
X0439976Y0125510D02*
X0361474Y0125510D01*
X0360679Y0127108D02*
X0439976Y0127108D01*
X0439976Y0074357D02*
X0118926Y0074357D01*
X0118926Y0072759D02*
X0439976Y0072759D01*
X0439976Y0071160D02*
X0118926Y0071160D01*
X0118926Y0069562D02*
X0439976Y0069562D01*
X0439976Y0067963D02*
X0118926Y0067963D01*
X0118926Y0066365D02*
X0439976Y0066365D01*
X0439976Y0064766D02*
X0118926Y0064766D01*
X0118926Y0063168D02*
X0439976Y0063168D01*
X0439976Y0061569D02*
X0118926Y0061569D01*
X0118926Y0059971D02*
X0439976Y0059971D01*
X0439976Y0058372D02*
X0118926Y0058372D01*
X0118926Y0056774D02*
X0439976Y0056774D01*
X0439976Y0055175D02*
X0118926Y0055175D01*
X0118926Y0053577D02*
X0439976Y0053577D01*
X0439976Y0051978D02*
X0372615Y0051978D01*
X0372150Y0052443D02*
X0373653Y0050940D01*
X0374466Y0048976D01*
X0374466Y0046851D01*
X0373653Y0044887D01*
X0372150Y0043384D01*
X0370186Y0042570D01*
X0368060Y0042570D01*
X0366096Y0043384D01*
X0364593Y0044887D01*
X0363780Y0046851D01*
X0363780Y0048976D01*
X0364593Y0050940D01*
X0366096Y0052443D01*
X0368060Y0053257D01*
X0370186Y0053257D01*
X0372150Y0052443D01*
X0373885Y0050380D02*
X0439976Y0050380D01*
X0439976Y0048781D02*
X0404355Y0048781D01*
X0403646Y0049490D02*
X0401682Y0050304D01*
X0399556Y0050304D01*
X0397592Y0049490D01*
X0396089Y0047987D01*
X0395276Y0046023D01*
X0395276Y0043898D01*
X0396089Y0041934D01*
X0397592Y0040431D01*
X0399556Y0039617D01*
X0401682Y0039617D01*
X0403646Y0040431D01*
X0405149Y0041934D01*
X0405962Y0043898D01*
X0405962Y0046023D01*
X0405149Y0047987D01*
X0403646Y0049490D01*
X0405482Y0047183D02*
X0439976Y0047183D01*
X0439976Y0045584D02*
X0405962Y0045584D01*
X0405962Y0043986D02*
X0439976Y0043986D01*
X0439976Y0042387D02*
X0417895Y0042387D01*
X0418859Y0041988D02*
X0415454Y0043398D01*
X0411768Y0043398D01*
X0408363Y0041988D01*
X0405757Y0039382D01*
X0404346Y0035977D01*
X0404346Y0032291D01*
X0405757Y0028886D01*
X0408363Y0026280D01*
X0411768Y0024869D01*
X0415454Y0024869D01*
X0418859Y0026280D01*
X0421465Y0028886D01*
X0422876Y0032291D01*
X0422876Y0035977D01*
X0421465Y0039382D01*
X0418859Y0041988D01*
X0420058Y0040789D02*
X0439976Y0040789D01*
X0439976Y0039190D02*
X0421545Y0039190D01*
X0422207Y0037592D02*
X0439976Y0037592D01*
X0439976Y0035993D02*
X0422869Y0035993D01*
X0422876Y0034395D02*
X0427896Y0034395D01*
X0426221Y0032796D02*
X0422876Y0032796D01*
X0422423Y0031198D02*
X0424970Y0031198D01*
X0424308Y0029599D02*
X0421761Y0029599D01*
X0420580Y0028001D02*
X0423835Y0028001D01*
X0423835Y0026402D02*
X0418981Y0026402D01*
X0423854Y0024804D02*
X0118926Y0024804D01*
X0118926Y0026402D02*
X0125170Y0026402D01*
X0125292Y0026280D02*
X0128697Y0024869D01*
X0132383Y0024869D01*
X0135788Y0026280D01*
X0138394Y0028886D01*
X0139805Y0032291D01*
X0139805Y0035977D01*
X0138394Y0039382D01*
X0135788Y0041988D01*
X0132383Y0043398D01*
X0128697Y0043398D01*
X0125292Y0041988D01*
X0122686Y0039382D01*
X0121276Y0035977D01*
X0121276Y0032291D01*
X0122686Y0028886D01*
X0125292Y0026280D01*
X0123571Y0028001D02*
X0118926Y0028001D01*
X0118926Y0029599D02*
X0122391Y0029599D01*
X0121728Y0031198D02*
X0118926Y0031198D01*
X0118926Y0032796D02*
X0121276Y0032796D01*
X0121276Y0034395D02*
X0118926Y0034395D01*
X0118926Y0035993D02*
X0121282Y0035993D01*
X0121945Y0037592D02*
X0118926Y0037592D01*
X0118926Y0039190D02*
X0122607Y0039190D01*
X0124093Y0040789D02*
X0118926Y0040789D01*
X0118926Y0042387D02*
X0126256Y0042387D01*
X0134824Y0042387D02*
X0170311Y0042387D01*
X0170499Y0041934D02*
X0172002Y0040431D01*
X0173965Y0039617D01*
X0176091Y0039617D01*
X0178055Y0040431D01*
X0179558Y0041934D01*
X0180372Y0043898D01*
X0180372Y0046023D01*
X0179558Y0047987D01*
X0178055Y0049490D01*
X0176091Y0050304D01*
X0173965Y0050304D01*
X0172002Y0049490D01*
X0170499Y0047987D01*
X0169685Y0046023D01*
X0169685Y0043898D01*
X0170499Y0041934D01*
X0171644Y0040789D02*
X0136987Y0040789D01*
X0138474Y0039190D02*
X0180087Y0039190D01*
X0180166Y0039382D02*
X0178756Y0035977D01*
X0178756Y0032291D01*
X0180166Y0028886D01*
X0182773Y0026280D01*
X0186178Y0024869D01*
X0189863Y0024869D01*
X0193268Y0026280D01*
X0195875Y0028886D01*
X0196288Y0029884D01*
X0196702Y0028886D01*
X0199308Y0026280D01*
X0202713Y0024869D01*
X0206399Y0024869D01*
X0209804Y0026280D01*
X0212410Y0028886D01*
X0213820Y0032291D01*
X0213820Y0035977D01*
X0212410Y0039382D01*
X0209804Y0041988D01*
X0206399Y0043398D01*
X0202713Y0043398D01*
X0199308Y0041988D01*
X0196702Y0039382D01*
X0196288Y0038383D01*
X0195875Y0039382D01*
X0193268Y0041988D01*
X0189863Y0043398D01*
X0186178Y0043398D01*
X0182773Y0041988D01*
X0180166Y0039382D01*
X0179425Y0037592D02*
X0139136Y0037592D01*
X0139798Y0035993D02*
X0155552Y0035993D01*
X0155799Y0036241D02*
X0155205Y0035646D01*
X0154710Y0034966D01*
X0154328Y0034216D01*
X0154069Y0033417D01*
X0153937Y0032586D01*
X0153937Y0032546D01*
X0158899Y0032546D01*
X0158899Y0031784D01*
X0159661Y0031784D01*
X0159661Y0026822D01*
X0159701Y0026822D01*
X0160532Y0026954D01*
X0161331Y0027214D01*
X0162081Y0027595D01*
X0162761Y0028090D01*
X0163356Y0028684D01*
X0163850Y0029365D01*
X0164232Y0030114D01*
X0164492Y0030914D01*
X0164624Y0031745D01*
X0164624Y0031784D01*
X0159661Y0031784D01*
X0159661Y0032546D01*
X0164624Y0032546D01*
X0164624Y0032586D01*
X0164492Y0033417D01*
X0164232Y0034216D01*
X0163850Y0034966D01*
X0163356Y0035646D01*
X0162761Y0036241D01*
X0162081Y0036735D01*
X0161331Y0037117D01*
X0160532Y0037377D01*
X0159701Y0037509D01*
X0159661Y0037509D01*
X0159661Y0032547D01*
X0158899Y0032547D01*
X0158899Y0037509D01*
X0158860Y0037509D01*
X0158029Y0037377D01*
X0157229Y0037117D01*
X0156480Y0036735D01*
X0155799Y0036241D01*
X0154419Y0034395D02*
X0139805Y0034395D01*
X0139805Y0032796D02*
X0153970Y0032796D01*
X0153937Y0031784D02*
X0153937Y0031745D01*
X0154069Y0030914D01*
X0154328Y0030114D01*
X0154710Y0029365D01*
X0155205Y0028684D01*
X0155799Y0028090D01*
X0156480Y0027595D01*
X0157229Y0027214D01*
X0158029Y0026954D01*
X0158860Y0026822D01*
X0158899Y0026822D01*
X0158899Y0031784D01*
X0153937Y0031784D01*
X0154024Y0031198D02*
X0139352Y0031198D01*
X0138690Y0029599D02*
X0154591Y0029599D01*
X0155922Y0028001D02*
X0137509Y0028001D01*
X0135910Y0026402D02*
X0182650Y0026402D01*
X0181052Y0028001D02*
X0162639Y0028001D01*
X0163970Y0029599D02*
X0179871Y0029599D01*
X0179209Y0031198D02*
X0164537Y0031198D01*
X0164590Y0032796D02*
X0178756Y0032796D01*
X0178756Y0034395D02*
X0164141Y0034395D01*
X0163009Y0035993D02*
X0178763Y0035993D01*
X0178413Y0040789D02*
X0181573Y0040789D01*
X0179746Y0042387D02*
X0183736Y0042387D01*
X0180372Y0043986D02*
X0213919Y0043986D01*
X0214521Y0043384D02*
X0213018Y0044887D01*
X0212205Y0046851D01*
X0212205Y0048976D01*
X0213018Y0050940D01*
X0214521Y0052443D01*
X0216485Y0053257D01*
X0218611Y0053257D01*
X0220575Y0052443D01*
X0222078Y0050940D01*
X0222891Y0048976D01*
X0222891Y0046851D01*
X0222078Y0044887D01*
X0220575Y0043384D01*
X0218611Y0042570D01*
X0216485Y0042570D01*
X0214521Y0043384D01*
X0212729Y0045584D02*
X0180372Y0045584D01*
X0179891Y0047183D02*
X0212205Y0047183D01*
X0212205Y0048781D02*
X0178764Y0048781D01*
X0171292Y0048781D02*
X0148876Y0048781D01*
X0148876Y0048976D02*
X0148876Y0046851D01*
X0148062Y0044887D01*
X0146559Y0043384D01*
X0144595Y0042570D01*
X0142469Y0042570D01*
X0140506Y0043384D01*
X0139002Y0044887D01*
X0138189Y0046851D01*
X0138189Y0048976D01*
X0139002Y0050940D01*
X0140506Y0052443D01*
X0142469Y0053257D01*
X0144595Y0053257D01*
X0146559Y0052443D01*
X0148062Y0050940D01*
X0148876Y0048976D01*
X0148294Y0050380D02*
X0212786Y0050380D01*
X0214056Y0051978D02*
X0147024Y0051978D01*
X0140041Y0051978D02*
X0118926Y0051978D01*
X0118926Y0050380D02*
X0138770Y0050380D01*
X0138189Y0048781D02*
X0118926Y0048781D01*
X0118926Y0047183D02*
X0138189Y0047183D01*
X0138713Y0045584D02*
X0118926Y0045584D01*
X0118926Y0043986D02*
X0139903Y0043986D01*
X0147161Y0043986D02*
X0169685Y0043986D01*
X0169685Y0045584D02*
X0148351Y0045584D01*
X0148876Y0047183D02*
X0170165Y0047183D01*
X0159661Y0035993D02*
X0158899Y0035993D01*
X0158899Y0034395D02*
X0159661Y0034395D01*
X0159661Y0032796D02*
X0158899Y0032796D01*
X0158899Y0031198D02*
X0159661Y0031198D01*
X0159661Y0029599D02*
X0158899Y0029599D01*
X0158899Y0028001D02*
X0159661Y0028001D01*
X0193391Y0026402D02*
X0199186Y0026402D01*
X0197587Y0028001D02*
X0194989Y0028001D01*
X0196170Y0029599D02*
X0196406Y0029599D01*
X0209926Y0026402D02*
X0256666Y0026402D01*
X0256788Y0026280D02*
X0260193Y0024869D01*
X0263879Y0024869D01*
X0267284Y0026280D01*
X0269890Y0028886D01*
X0271301Y0032291D01*
X0271301Y0035977D01*
X0269890Y0039382D01*
X0267284Y0041988D01*
X0263879Y0043398D01*
X0260193Y0043398D01*
X0256788Y0041988D01*
X0254182Y0039382D01*
X0252772Y0035977D01*
X0252772Y0032291D01*
X0254182Y0028886D01*
X0256788Y0026280D01*
X0255067Y0028001D02*
X0236654Y0028001D01*
X0236777Y0028090D02*
X0237372Y0028684D01*
X0237866Y0029365D01*
X0238248Y0030114D01*
X0238508Y0030914D01*
X0238639Y0031745D01*
X0238639Y0031784D01*
X0233677Y0031784D01*
X0233677Y0026822D01*
X0233717Y0026822D01*
X0234547Y0026954D01*
X0235347Y0027214D01*
X0236097Y0027595D01*
X0236777Y0028090D01*
X0237985Y0029599D02*
X0253887Y0029599D01*
X0253225Y0031198D02*
X0238553Y0031198D01*
X0238639Y0032546D02*
X0238639Y0032586D01*
X0238508Y0033417D01*
X0238248Y0034216D01*
X0237866Y0034966D01*
X0237372Y0035646D01*
X0236777Y0036241D01*
X0236097Y0036735D01*
X0235347Y0037117D01*
X0234547Y0037377D01*
X0233717Y0037509D01*
X0233677Y0037509D01*
X0233677Y0032547D01*
X0232915Y0032547D01*
X0232915Y0037509D01*
X0232876Y0037509D01*
X0232045Y0037377D01*
X0231245Y0037117D01*
X0230496Y0036735D01*
X0229815Y0036241D01*
X0229220Y0035646D01*
X0228726Y0034966D01*
X0228344Y0034216D01*
X0228084Y0033417D01*
X0227953Y0032586D01*
X0227953Y0032546D01*
X0232915Y0032546D01*
X0232915Y0031784D01*
X0233677Y0031784D01*
X0233677Y0032546D01*
X0238639Y0032546D01*
X0238606Y0032796D02*
X0252772Y0032796D01*
X0252772Y0034395D02*
X0238157Y0034395D01*
X0237025Y0035993D02*
X0252778Y0035993D01*
X0253441Y0037592D02*
X0213152Y0037592D01*
X0212489Y0039190D02*
X0254103Y0039190D01*
X0255589Y0040789D02*
X0252429Y0040789D01*
X0252071Y0040431D02*
X0253574Y0041934D01*
X0254387Y0043898D01*
X0254387Y0046023D01*
X0253574Y0047987D01*
X0252071Y0049490D01*
X0250107Y0050304D01*
X0247981Y0050304D01*
X0246017Y0049490D01*
X0244514Y0047987D01*
X0243701Y0046023D01*
X0243701Y0043898D01*
X0244514Y0041934D01*
X0246017Y0040431D01*
X0247981Y0039617D01*
X0250107Y0039617D01*
X0252071Y0040431D01*
X0253762Y0042387D02*
X0257752Y0042387D01*
X0254387Y0043986D02*
X0291478Y0043986D01*
X0292080Y0043384D02*
X0290577Y0044887D01*
X0289764Y0046851D01*
X0289764Y0048976D01*
X0290577Y0050940D01*
X0292080Y0052443D01*
X0294044Y0053257D01*
X0296170Y0053257D01*
X0298134Y0052443D01*
X0299637Y0050940D01*
X0300450Y0048976D01*
X0300450Y0046851D01*
X0299637Y0044887D01*
X0298134Y0043384D01*
X0296170Y0042570D01*
X0294044Y0042570D01*
X0292080Y0043384D01*
X0290288Y0045584D02*
X0254387Y0045584D01*
X0253907Y0047183D02*
X0289764Y0047183D01*
X0289764Y0048781D02*
X0252780Y0048781D01*
X0245308Y0048781D02*
X0222891Y0048781D01*
X0222891Y0047183D02*
X0244181Y0047183D01*
X0243701Y0045584D02*
X0222367Y0045584D01*
X0221177Y0043986D02*
X0243701Y0043986D01*
X0244326Y0042387D02*
X0208840Y0042387D01*
X0211003Y0040789D02*
X0245659Y0040789D01*
X0233677Y0035993D02*
X0232915Y0035993D01*
X0232915Y0034395D02*
X0233677Y0034395D01*
X0233677Y0032796D02*
X0232915Y0032796D01*
X0232915Y0031784D02*
X0227953Y0031784D01*
X0227953Y0031745D01*
X0228084Y0030914D01*
X0228344Y0030114D01*
X0228726Y0029365D01*
X0229220Y0028684D01*
X0229815Y0028090D01*
X0230496Y0027595D01*
X0231245Y0027214D01*
X0232045Y0026954D01*
X0232876Y0026822D01*
X0232915Y0026822D01*
X0232915Y0031784D01*
X0232915Y0031198D02*
X0233677Y0031198D01*
X0233677Y0029599D02*
X0232915Y0029599D01*
X0232915Y0028001D02*
X0233677Y0028001D01*
X0229938Y0028001D02*
X0211525Y0028001D01*
X0212705Y0029599D02*
X0228607Y0029599D01*
X0228039Y0031198D02*
X0213368Y0031198D01*
X0213820Y0032796D02*
X0227986Y0032796D01*
X0228435Y0034395D02*
X0213820Y0034395D01*
X0213814Y0035993D02*
X0229567Y0035993D01*
X0222310Y0050380D02*
X0290345Y0050380D01*
X0291615Y0051978D02*
X0221040Y0051978D01*
X0200272Y0042387D02*
X0192305Y0042387D01*
X0194468Y0040789D02*
X0198109Y0040789D01*
X0196622Y0039190D02*
X0195954Y0039190D01*
X0266320Y0042387D02*
X0277831Y0042387D01*
X0276867Y0041988D02*
X0274261Y0039382D01*
X0272850Y0035977D01*
X0272850Y0032291D01*
X0274261Y0028886D01*
X0276867Y0026280D01*
X0280272Y0024869D01*
X0283958Y0024869D01*
X0287363Y0026280D01*
X0289969Y0028886D01*
X0291380Y0032291D01*
X0291380Y0035977D01*
X0289969Y0039382D01*
X0287363Y0041988D01*
X0283958Y0043398D01*
X0280272Y0043398D01*
X0276867Y0041988D01*
X0275668Y0040789D02*
X0268483Y0040789D01*
X0269970Y0039190D02*
X0274181Y0039190D01*
X0273519Y0037592D02*
X0270632Y0037592D01*
X0271294Y0035993D02*
X0272857Y0035993D01*
X0272850Y0034395D02*
X0271301Y0034395D01*
X0271301Y0032796D02*
X0272850Y0032796D01*
X0273303Y0031198D02*
X0270848Y0031198D01*
X0270186Y0029599D02*
X0273965Y0029599D01*
X0275146Y0028001D02*
X0269005Y0028001D01*
X0267407Y0026402D02*
X0276745Y0026402D01*
X0287485Y0026402D02*
X0334225Y0026402D01*
X0334347Y0026280D02*
X0337752Y0024869D01*
X0341438Y0024869D01*
X0344843Y0026280D01*
X0347449Y0028886D01*
X0347863Y0029884D01*
X0348277Y0028886D01*
X0350883Y0026280D01*
X0354288Y0024869D01*
X0357974Y0024869D01*
X0361379Y0026280D01*
X0363985Y0028886D01*
X0365395Y0032291D01*
X0365395Y0035977D01*
X0363985Y0039382D01*
X0361379Y0041988D01*
X0357974Y0043398D01*
X0354288Y0043398D01*
X0350883Y0041988D01*
X0348277Y0039382D01*
X0347863Y0038383D01*
X0347449Y0039382D01*
X0344843Y0041988D01*
X0341438Y0043398D01*
X0337752Y0043398D01*
X0334347Y0041988D01*
X0331741Y0039382D01*
X0330331Y0035977D01*
X0330331Y0032291D01*
X0331741Y0028886D01*
X0334347Y0026280D01*
X0332626Y0028001D02*
X0314213Y0028001D01*
X0314336Y0028090D02*
X0314931Y0028684D01*
X0315425Y0029365D01*
X0315807Y0030114D01*
X0316067Y0030914D01*
X0316198Y0031745D01*
X0316198Y0031784D01*
X0311236Y0031784D01*
X0311236Y0026822D01*
X0311276Y0026822D01*
X0312106Y0026954D01*
X0312906Y0027214D01*
X0313656Y0027595D01*
X0314336Y0028090D01*
X0315544Y0029599D02*
X0331446Y0029599D01*
X0330784Y0031198D02*
X0316112Y0031198D01*
X0316198Y0032546D02*
X0316198Y0032586D01*
X0316067Y0033417D01*
X0315807Y0034216D01*
X0315425Y0034966D01*
X0314931Y0035646D01*
X0314336Y0036241D01*
X0313656Y0036735D01*
X0312906Y0037117D01*
X0312106Y0037377D01*
X0311276Y0037509D01*
X0311236Y0037509D01*
X0311236Y0032547D01*
X0310474Y0032547D01*
X0310474Y0037509D01*
X0310435Y0037509D01*
X0309604Y0037377D01*
X0308804Y0037117D01*
X0308055Y0036735D01*
X0307374Y0036241D01*
X0306779Y0035646D01*
X0306285Y0034966D01*
X0305903Y0034216D01*
X0305643Y0033417D01*
X0305512Y0032586D01*
X0305512Y0032546D01*
X0310474Y0032546D01*
X0310474Y0031784D01*
X0311236Y0031784D01*
X0311236Y0032546D01*
X0316198Y0032546D01*
X0316165Y0032796D02*
X0330331Y0032796D01*
X0330331Y0034395D02*
X0315716Y0034395D01*
X0314584Y0035993D02*
X0330338Y0035993D01*
X0331000Y0037592D02*
X0290711Y0037592D01*
X0290048Y0039190D02*
X0331662Y0039190D01*
X0333148Y0040789D02*
X0329988Y0040789D01*
X0329630Y0040431D02*
X0331133Y0041934D01*
X0331946Y0043898D01*
X0331946Y0046023D01*
X0331133Y0047987D01*
X0329630Y0049490D01*
X0327666Y0050304D01*
X0325540Y0050304D01*
X0323576Y0049490D01*
X0322073Y0047987D01*
X0321260Y0046023D01*
X0321260Y0043898D01*
X0322073Y0041934D01*
X0323576Y0040431D01*
X0325540Y0039617D01*
X0327666Y0039617D01*
X0329630Y0040431D01*
X0331321Y0042387D02*
X0335311Y0042387D01*
X0331946Y0043986D02*
X0365494Y0043986D01*
X0364304Y0045584D02*
X0331946Y0045584D01*
X0331466Y0047183D02*
X0363780Y0047183D01*
X0363780Y0048781D02*
X0330339Y0048781D01*
X0322867Y0048781D02*
X0300450Y0048781D01*
X0300450Y0047183D02*
X0321740Y0047183D01*
X0321260Y0045584D02*
X0299926Y0045584D01*
X0298736Y0043986D02*
X0321260Y0043986D01*
X0321886Y0042387D02*
X0286399Y0042387D01*
X0288562Y0040789D02*
X0323219Y0040789D01*
X0311236Y0035993D02*
X0310474Y0035993D01*
X0310474Y0034395D02*
X0311236Y0034395D01*
X0311236Y0032796D02*
X0310474Y0032796D01*
X0310474Y0031784D02*
X0305512Y0031784D01*
X0305512Y0031745D01*
X0305643Y0030914D01*
X0305903Y0030114D01*
X0306285Y0029365D01*
X0306779Y0028684D01*
X0307374Y0028090D01*
X0308055Y0027595D01*
X0308804Y0027214D01*
X0309604Y0026954D01*
X0310435Y0026822D01*
X0310474Y0026822D01*
X0310474Y0031784D01*
X0310474Y0031198D02*
X0311236Y0031198D01*
X0311236Y0029599D02*
X0310474Y0029599D01*
X0310474Y0028001D02*
X0311236Y0028001D01*
X0307497Y0028001D02*
X0289084Y0028001D01*
X0290264Y0029599D02*
X0306166Y0029599D01*
X0305598Y0031198D02*
X0290927Y0031198D01*
X0291380Y0032796D02*
X0305545Y0032796D01*
X0305994Y0034395D02*
X0291380Y0034395D01*
X0291373Y0035993D02*
X0307126Y0035993D01*
X0299869Y0050380D02*
X0364361Y0050380D01*
X0365631Y0051978D02*
X0298599Y0051978D01*
X0343879Y0042387D02*
X0351847Y0042387D01*
X0349683Y0040789D02*
X0346042Y0040789D01*
X0347529Y0039190D02*
X0348197Y0039190D01*
X0360415Y0042387D02*
X0395901Y0042387D01*
X0395276Y0043986D02*
X0372752Y0043986D01*
X0373942Y0045584D02*
X0395276Y0045584D01*
X0395756Y0047183D02*
X0374466Y0047183D01*
X0374466Y0048781D02*
X0396883Y0048781D01*
X0397234Y0040789D02*
X0362578Y0040789D01*
X0364064Y0039190D02*
X0405678Y0039190D01*
X0405015Y0037592D02*
X0364726Y0037592D01*
X0365388Y0035993D02*
X0381142Y0035993D01*
X0381390Y0036241D02*
X0380795Y0035646D01*
X0380301Y0034966D01*
X0379919Y0034216D01*
X0379659Y0033417D01*
X0379528Y0032586D01*
X0379528Y0032546D01*
X0384490Y0032546D01*
X0384490Y0031784D01*
X0385252Y0031784D01*
X0385252Y0026822D01*
X0385291Y0026822D01*
X0386122Y0026954D01*
X0386922Y0027214D01*
X0387671Y0027595D01*
X0388352Y0028090D01*
X0388947Y0028684D01*
X0389441Y0029365D01*
X0389823Y0030114D01*
X0390083Y0030914D01*
X0390214Y0031745D01*
X0390214Y0031784D01*
X0385252Y0031784D01*
X0385252Y0032546D01*
X0390214Y0032546D01*
X0390214Y0032586D01*
X0390083Y0033417D01*
X0389823Y0034216D01*
X0389441Y0034966D01*
X0388947Y0035646D01*
X0388352Y0036241D01*
X0387671Y0036735D01*
X0386922Y0037117D01*
X0386122Y0037377D01*
X0385291Y0037509D01*
X0385252Y0037509D01*
X0385252Y0032547D01*
X0384490Y0032547D01*
X0384490Y0037509D01*
X0384450Y0037509D01*
X0383620Y0037377D01*
X0382820Y0037117D01*
X0382070Y0036735D01*
X0381390Y0036241D01*
X0380010Y0034395D02*
X0365395Y0034395D01*
X0365395Y0032796D02*
X0379561Y0032796D01*
X0379528Y0031784D02*
X0379528Y0031745D01*
X0379659Y0030914D01*
X0379919Y0030114D01*
X0380301Y0029365D01*
X0380795Y0028684D01*
X0381390Y0028090D01*
X0382070Y0027595D01*
X0382820Y0027214D01*
X0383620Y0026954D01*
X0384450Y0026822D01*
X0384490Y0026822D01*
X0384490Y0031784D01*
X0379528Y0031784D01*
X0379614Y0031198D02*
X0364942Y0031198D01*
X0364280Y0029599D02*
X0380181Y0029599D01*
X0381513Y0028001D02*
X0363100Y0028001D01*
X0361501Y0026402D02*
X0408241Y0026402D01*
X0406642Y0028001D02*
X0388229Y0028001D01*
X0389560Y0029599D02*
X0405461Y0029599D01*
X0404799Y0031198D02*
X0390127Y0031198D01*
X0390181Y0032796D02*
X0404346Y0032796D01*
X0404346Y0034395D02*
X0389732Y0034395D01*
X0388600Y0035993D02*
X0404353Y0035993D01*
X0404004Y0040789D02*
X0407164Y0040789D01*
X0405336Y0042387D02*
X0409327Y0042387D01*
X0385252Y0035993D02*
X0384490Y0035993D01*
X0384490Y0034395D02*
X0385252Y0034395D01*
X0385252Y0032796D02*
X0384490Y0032796D01*
X0384490Y0031198D02*
X0385252Y0031198D01*
X0385252Y0029599D02*
X0384490Y0029599D01*
X0384490Y0028001D02*
X0385252Y0028001D01*
X0350760Y0026402D02*
X0344966Y0026402D01*
X0346564Y0028001D02*
X0349162Y0028001D01*
X0347981Y0029599D02*
X0347745Y0029599D01*
X0424516Y0023205D02*
X0118926Y0023205D01*
X0118926Y0021607D02*
X0425178Y0021607D01*
X0426724Y0020008D02*
X0118926Y0020008D01*
X0039989Y0020008D02*
X0017821Y0020008D01*
X0019593Y0093540D02*
X0022169Y0093540D01*
X0021329Y0095138D02*
X0020438Y0095138D01*
X0020647Y0096737D02*
X0021142Y0096737D01*
X0021496Y0098335D02*
X0020307Y0098335D01*
X0019218Y0099934D02*
X0022571Y0099934D01*
X0011500Y0144692D02*
X0004568Y0144692D01*
X0004568Y0146290D02*
X0011142Y0146290D01*
X0011337Y0147889D02*
X0004568Y0147889D01*
X0004568Y0149487D02*
X0012165Y0149487D01*
X0011953Y0163874D02*
X0004568Y0163874D01*
X0004568Y0165473D02*
X0011251Y0165473D01*
X0011167Y0167071D02*
X0004568Y0167071D01*
X0004568Y0168670D02*
X0011648Y0168670D01*
X0012946Y0170268D02*
X0004568Y0170268D01*
X0015710Y0170268D02*
X0016079Y0170268D01*
X0016079Y0168670D02*
X0015710Y0168670D01*
X0015710Y0167071D02*
X0016079Y0167071D01*
X0016079Y0165473D02*
X0015710Y0165473D01*
X0015710Y0163874D02*
X0016079Y0163874D01*
X0019538Y0173465D02*
X0022243Y0173465D01*
X0021360Y0175064D02*
X0020414Y0175064D01*
X0140186Y0093540D02*
X0148251Y0093540D01*
X0147019Y0091941D02*
X0140186Y0091941D01*
X0194939Y0106328D02*
X0206299Y0106328D01*
X0206299Y0107926D02*
X0194939Y0107926D01*
X0194939Y0109525D02*
X0206299Y0109525D01*
X0206299Y0111123D02*
X0195671Y0111123D01*
X0197270Y0112722D02*
X0206299Y0112722D01*
X0206299Y0114320D02*
X0198868Y0114320D01*
X0200450Y0115919D02*
X0206299Y0115919D01*
X0206299Y0117517D02*
X0200450Y0117517D01*
X0200450Y0119116D02*
X0206299Y0119116D01*
X0205818Y0120714D02*
X0200450Y0120714D01*
X0200494Y0122313D02*
X0203106Y0122313D01*
X0202362Y0123911D02*
X0201238Y0123911D01*
X0208826Y0123911D02*
X0213292Y0123911D01*
X0214890Y0122313D02*
X0210424Y0122313D01*
X0210687Y0120714D02*
X0216489Y0120714D01*
X0218087Y0119116D02*
X0210687Y0119116D01*
X0193307Y0119116D02*
X0192955Y0119116D01*
X0281557Y0136699D02*
X0285121Y0136699D01*
X0283523Y0135101D02*
X0282061Y0135101D01*
X0227009Y0219822D02*
X0225409Y0219822D01*
X0225409Y0221420D02*
X0227009Y0221420D01*
X0227009Y0223019D02*
X0225409Y0223019D01*
X0225409Y0224617D02*
X0227009Y0224617D01*
X0227009Y0226216D02*
X0225409Y0226216D01*
X0225409Y0231012D02*
X0227009Y0231012D01*
X0227009Y0232610D02*
X0225409Y0232610D01*
X0225409Y0234209D02*
X0227009Y0234209D01*
X0227009Y0235807D02*
X0225409Y0235807D01*
X0224690Y0235807D02*
X0215203Y0235807D01*
X0215329Y0235933D02*
X0216380Y0238470D01*
X0216380Y0241215D01*
X0215329Y0243752D01*
X0213387Y0245694D01*
X0210850Y0246745D01*
X0208104Y0246745D01*
X0205567Y0245694D01*
X0203626Y0243752D01*
X0202575Y0241215D01*
X0202575Y0238470D01*
X0203626Y0235933D01*
X0205567Y0233991D01*
X0208104Y0232940D01*
X0210850Y0232940D01*
X0213387Y0233991D01*
X0215329Y0235933D01*
X0215939Y0237406D02*
X0236480Y0237406D01*
X0236039Y0239004D02*
X0216380Y0239004D01*
X0216380Y0240603D02*
X0236039Y0240603D01*
X0236448Y0242201D02*
X0215971Y0242201D01*
X0215281Y0243800D02*
X0237137Y0243800D01*
X0238736Y0245398D02*
X0213683Y0245398D01*
X0205271Y0245398D02*
X0186124Y0245398D01*
X0187722Y0243800D02*
X0203673Y0243800D01*
X0202983Y0242201D02*
X0188412Y0242201D01*
X0188820Y0240603D02*
X0202575Y0240603D01*
X0202575Y0239004D02*
X0188820Y0239004D01*
X0188380Y0237406D02*
X0203016Y0237406D01*
X0203751Y0235807D02*
X0187644Y0235807D01*
X0186046Y0234209D02*
X0205350Y0234209D01*
X0213605Y0234209D02*
X0221078Y0234209D01*
X0227729Y0235807D02*
X0237216Y0235807D01*
X0238814Y0234209D02*
X0231341Y0234209D01*
X0437909Y0034395D02*
X0439976Y0034395D01*
X0439976Y0032796D02*
X0439583Y0032796D01*
D27*
X0376603Y0086496D02*
X0375619Y0087480D01*
X0338808Y0087480D01*
X0330146Y0096142D01*
X0330146Y0111693D01*
X0328178Y0113661D01*
X0328178Y0121535D01*
X0334083Y0122717D02*
X0334083Y0118780D01*
X0336839Y0116024D01*
X0341957Y0115236D02*
X0341957Y0120748D01*
X0345698Y0123898D02*
X0350028Y0119567D01*
X0364005Y0119567D01*
X0345698Y0123898D02*
X0335265Y0123898D01*
X0334083Y0122717D01*
X0331721Y0127047D02*
X0331721Y0151063D01*
X0325383Y0157402D01*
X0325383Y0182677D01*
X0328572Y0186102D02*
X0300225Y0186102D01*
X0293926Y0179803D01*
X0272981Y0179803D01*
X0267548Y0174370D01*
X0257312Y0181772D02*
X0252391Y0176850D01*
X0252391Y0169528D01*
X0257548Y0164370D01*
X0245698Y0163465D02*
X0245698Y0171346D01*
X0237241Y0179803D01*
X0237241Y0179795D01*
X0237241Y0179803D02*
X0195894Y0179803D01*
X0188808Y0186890D01*
X0180934Y0186890D01*
X0184477Y0183346D02*
X0182902Y0181772D01*
X0130383Y0181772D01*
X0118847Y0193307D01*
X0113847Y0198307D01*
X0104950Y0198307D01*
X0088414Y0214843D01*
X0088414Y0217205D01*
X0086249Y0210512D02*
X0075619Y0221142D01*
X0050816Y0221142D01*
X0057115Y0215236D02*
X0057115Y0197126D01*
X0047863Y0187874D01*
X0047863Y0185748D01*
X0047942Y0185669D01*
X0052981Y0188465D02*
X0058690Y0194173D01*
X0058690Y0203031D01*
X0060265Y0204606D01*
X0060265Y0217992D01*
X0063414Y0215236D02*
X0063414Y0203819D01*
X0065383Y0201850D01*
X0065383Y0193110D01*
X0057942Y0185669D01*
X0062824Y0188071D02*
X0067351Y0192598D01*
X0067351Y0202638D01*
X0066564Y0203425D01*
X0066564Y0217992D01*
X0069713Y0215236D02*
X0069713Y0187441D01*
X0067942Y0185669D01*
X0072863Y0188268D02*
X0073060Y0188071D01*
X0073060Y0180787D01*
X0067942Y0175669D01*
X0062824Y0180551D02*
X0057942Y0175669D01*
X0062824Y0180551D02*
X0062824Y0188071D01*
X0052981Y0188465D02*
X0052981Y0180709D01*
X0047942Y0175669D01*
X0072863Y0188268D02*
X0072863Y0217992D01*
X0086249Y0210512D02*
X0086249Y0196929D01*
X0138020Y0145157D01*
X0183296Y0145157D01*
X0197469Y0130984D01*
X0220698Y0130984D01*
X0221879Y0129803D01*
X0281328Y0129803D01*
X0286446Y0134921D01*
X0298650Y0134921D01*
X0302587Y0130984D01*
X0318335Y0130984D01*
X0321879Y0134921D02*
X0328572Y0128228D01*
X0325422Y0126654D02*
X0325028Y0126260D01*
X0325028Y0114055D01*
X0328572Y0110512D01*
X0328572Y0093189D01*
X0334477Y0087283D01*
X0319910Y0080197D02*
X0314398Y0085709D01*
X0314398Y0110118D01*
X0315186Y0110906D01*
X0320304Y0110906D01*
X0321879Y0112480D01*
X0321879Y0125866D01*
X0318335Y0125079D02*
X0318217Y0125079D01*
X0315853Y0122715D01*
X0315853Y0116691D01*
X0310461Y0111299D01*
X0310461Y0087939D01*
X0310331Y0087809D01*
X0298753Y0101815D02*
X0298753Y0112583D01*
X0302469Y0116299D01*
X0305069Y0116299D01*
X0305113Y0116344D01*
X0318335Y0124998D02*
X0318335Y0125079D01*
X0321879Y0134921D02*
X0321879Y0140433D01*
X0326209Y0141220D02*
X0328965Y0138465D01*
X0328965Y0134921D02*
X0326603Y0134921D01*
X0324635Y0136890D01*
X0324635Y0148701D01*
X0319123Y0154213D01*
X0213217Y0154213D01*
X0203769Y0144764D01*
X0206524Y0143976D02*
X0215186Y0152638D01*
X0306918Y0152638D01*
X0315186Y0144370D01*
X0317942Y0144370D01*
X0321879Y0144370D02*
X0315186Y0137677D01*
X0312824Y0137677D01*
X0310855Y0139646D01*
X0310855Y0143976D01*
X0305343Y0149488D01*
X0216761Y0149488D01*
X0214005Y0146732D01*
X0214005Y0138465D01*
X0209280Y0133740D01*
X0209280Y0138071D02*
X0206524Y0140827D01*
X0206524Y0143976D01*
X0210068Y0145157D02*
X0210068Y0142008D01*
X0210068Y0145157D02*
X0215973Y0151063D01*
X0306131Y0151063D01*
X0313611Y0143583D01*
X0313611Y0140827D01*
X0326209Y0141220D02*
X0326209Y0149488D01*
X0319910Y0155787D01*
X0212824Y0155787D01*
X0209280Y0152244D01*
X0204950Y0152244D01*
X0202194Y0155000D01*
X0197076Y0155000D01*
X0196682Y0154606D01*
X0193532Y0153425D02*
X0193532Y0169567D01*
X0195894Y0171929D01*
X0195946Y0171929D01*
X0200932Y0176915D01*
X0235961Y0176915D01*
X0240847Y0172029D01*
X0246682Y0177047D02*
X0246682Y0186693D01*
X0239989Y0193386D01*
X0257312Y0181772D02*
X0293532Y0181772D01*
X0304556Y0192795D01*
X0334871Y0192795D01*
X0341170Y0186496D01*
X0341170Y0152638D01*
X0332115Y0157756D02*
X0332115Y0182559D01*
X0328572Y0186102D01*
X0333690Y0188858D02*
X0333690Y0133740D01*
X0337233Y0130197D01*
X0339989Y0130197D01*
X0341957Y0128228D01*
X0328965Y0142008D02*
X0328965Y0149094D01*
X0320698Y0157362D01*
X0208493Y0157362D01*
X0206524Y0155394D01*
X0199044Y0147913D02*
X0199044Y0144370D01*
X0199044Y0147913D02*
X0193532Y0153425D01*
X0193532Y0150669D02*
X0186839Y0157362D01*
X0186839Y0176654D01*
X0188414Y0178228D01*
X0188414Y0182165D01*
X0187233Y0183346D01*
X0184477Y0183346D01*
X0184871Y0180197D02*
X0185265Y0179803D01*
X0185265Y0156575D01*
X0190383Y0151457D01*
X0190383Y0143976D01*
X0187627Y0142795D02*
X0187627Y0145157D01*
X0180934Y0151850D01*
X0180934Y0153425D01*
X0178965Y0155394D01*
X0171091Y0155394D01*
X0166761Y0159724D01*
X0166761Y0162087D01*
X0161249Y0167598D01*
X0153257Y0167598D01*
X0148257Y0172598D01*
X0121957Y0180197D02*
X0118847Y0183307D01*
X0114083Y0188071D01*
X0103769Y0188071D01*
X0088808Y0203031D01*
X0088808Y0208150D01*
X0121957Y0180197D02*
X0184871Y0180197D01*
X0181721Y0177047D02*
X0176997Y0177047D01*
X0181721Y0177047D02*
X0183690Y0175079D01*
X0183690Y0155394D01*
X0184871Y0154213D01*
X0184871Y0151457D01*
X0193532Y0150669D02*
X0193532Y0144764D01*
X0193926Y0144370D01*
X0191564Y0138858D02*
X0187627Y0142795D01*
X0191564Y0138858D02*
X0200225Y0138858D01*
X0201406Y0140039D01*
X0201406Y0141614D01*
X0222272Y0125866D02*
X0224241Y0127835D01*
X0240383Y0127835D01*
X0243532Y0124685D01*
X0255343Y0124685D01*
X0208493Y0121142D02*
X0208493Y0090827D01*
X0212430Y0086890D01*
X0228965Y0086890D01*
X0192745Y0091220D02*
X0188414Y0086890D01*
X0185206Y0086890D01*
X0185106Y0086790D01*
X0192745Y0091220D02*
X0192745Y0111299D01*
X0198257Y0116811D01*
X0198257Y0124291D01*
X0195501Y0121535D02*
X0195501Y0116383D01*
X0176632Y0097515D01*
X0176632Y0083134D01*
X0173269Y0079771D01*
X0176632Y0101615D02*
X0176632Y0110715D01*
X0177832Y0111915D01*
X0177832Y0113415D01*
X0205343Y0124291D02*
X0208493Y0121142D01*
X0330934Y0156575D02*
X0332115Y0157756D01*
D28*
X0297469Y0130591D02*
X0286446Y0130591D01*
X0276603Y0120748D01*
X0247076Y0120748D01*
X0220698Y0120748D01*
X0213611Y0127835D01*
X0189989Y0127835D01*
X0188020Y0129803D01*
M02*
