G75*
%MOIN*%
%OFA0B0*%
%FSLAX25Y25*%
%IPPOS*%
%LPD*%
%AMOC8*
5,1,8,0,0,1.08239X$1,22.5*
%
%ADD10C,0.06000*%
%ADD11C,0.05906*%
%ADD12C,0.04800*%
%ADD13C,0.12598*%
%ADD14C,0.13386*%
%ADD15C,0.07087*%
%ADD16C,0.06496*%
%ADD17C,0.16535*%
%ADD18C,0.15737*%
%ADD19C,0.03937*%
%ADD20C,0.02756*%
%ADD21C,0.01600*%
%ADD22C,0.04331*%
%ADD23C,0.04724*%
D10*
X0047942Y0117037D03*
X0057942Y0117037D03*
X0067942Y0117037D03*
X0077942Y0117037D03*
X0087942Y0117037D03*
X0087942Y0127037D03*
X0077942Y0127037D03*
X0067942Y0127037D03*
X0057942Y0127037D03*
X0047942Y0127037D03*
X0047942Y0147037D03*
X0057942Y0147037D03*
X0067942Y0147037D03*
X0077942Y0147037D03*
X0087942Y0147037D03*
X0087942Y0157037D03*
X0077942Y0157037D03*
X0067942Y0157037D03*
X0057942Y0157037D03*
X0047942Y0157037D03*
X0047942Y0177037D03*
X0057942Y0177037D03*
X0067942Y0177037D03*
X0077942Y0177037D03*
X0087942Y0177037D03*
X0087942Y0187037D03*
X0077942Y0187037D03*
X0067942Y0187037D03*
X0057942Y0187037D03*
X0047942Y0187037D03*
X0138257Y0173967D03*
X0148257Y0173967D03*
X0158257Y0173967D03*
X0158257Y0163967D03*
X0148257Y0163967D03*
X0138257Y0163967D03*
X0271328Y0165738D03*
X0281328Y0165738D03*
X0291328Y0165738D03*
X0291328Y0175738D03*
X0281328Y0175738D03*
X0271328Y0175738D03*
D11*
X0141013Y0146486D03*
X0141013Y0126801D03*
X0118847Y0184675D03*
X0108847Y0184675D03*
X0108847Y0194675D03*
X0118847Y0194675D03*
X0118847Y0204675D03*
X0108847Y0204675D03*
X0108847Y0214675D03*
X0118847Y0214675D03*
X0118847Y0224675D03*
X0108847Y0224675D03*
X0025894Y0177904D03*
X0015894Y0177904D03*
X0015894Y0167904D03*
X0025894Y0167904D03*
X0025894Y0157904D03*
X0015894Y0157904D03*
X0015894Y0147904D03*
X0025894Y0147904D03*
X0025894Y0137904D03*
X0015894Y0137904D03*
X0015894Y0127904D03*
X0025894Y0127904D03*
X0025894Y0117904D03*
X0015894Y0117904D03*
X0015894Y0107904D03*
X0025894Y0107904D03*
X0025894Y0097904D03*
X0015894Y0097904D03*
X0015894Y0087904D03*
X0025894Y0087904D03*
D12*
X0246013Y0115974D03*
X0246013Y0125974D03*
X0246013Y0135974D03*
X0246013Y0145974D03*
X0276013Y0145974D03*
X0276013Y0135974D03*
X0276013Y0125974D03*
X0276013Y0115974D03*
X0380383Y0123455D03*
X0380383Y0133455D03*
X0380383Y0143455D03*
X0380383Y0153455D03*
X0410383Y0153455D03*
X0410383Y0143455D03*
X0410383Y0133455D03*
X0410383Y0123455D03*
D13*
X0365973Y0210699D03*
X0299044Y0211093D03*
X0232115Y0211093D03*
X0165186Y0211093D03*
D14*
X0165186Y0228809D03*
X0232115Y0228809D03*
X0299044Y0228809D03*
X0365973Y0228415D03*
D15*
X0387627Y0044557D03*
X0403375Y0028809D03*
X0419123Y0041604D03*
X0340383Y0041604D03*
X0324635Y0028809D03*
X0308887Y0044557D03*
X0253769Y0041604D03*
X0238020Y0028809D03*
X0222272Y0044557D03*
X0175028Y0041604D03*
X0159280Y0028809D03*
X0143532Y0044557D03*
D16*
X0102194Y0053612D03*
X0102194Y0063612D03*
X0102194Y0073612D03*
D17*
X0060855Y0061005D03*
D18*
X0075665Y0048494D03*
X0060955Y0032183D03*
D19*
X0150306Y0091911D03*
X0171800Y0110343D03*
X0158099Y0124478D03*
X0203769Y0092195D03*
X0219517Y0092195D03*
X0227391Y0092195D03*
X0236839Y0092195D03*
X0286558Y0091811D03*
X0308233Y0109943D03*
X0294320Y0124478D03*
X0316761Y0091998D03*
X0339202Y0092195D03*
X0354950Y0091998D03*
X0363020Y0091998D03*
X0372272Y0091998D03*
X0368217Y0160856D03*
X0365894Y0169360D03*
X0342745Y0166604D03*
X0342548Y0176329D03*
X0315973Y0178022D03*
X0242395Y0161845D03*
X0206131Y0164636D03*
X0191564Y0176053D03*
X0167351Y0169360D03*
X0101406Y0156762D03*
X0101406Y0149675D03*
X0047272Y0194557D03*
X0061839Y0200463D03*
X0082706Y0200463D03*
D20*
X0082312Y0210305D03*
X0088808Y0209518D03*
X0088414Y0218573D03*
X0072863Y0219360D03*
X0069713Y0216604D03*
X0066564Y0219360D03*
X0063414Y0216604D03*
X0060265Y0219360D03*
X0057115Y0216604D03*
X0050816Y0222510D03*
X0082312Y0239439D03*
X0044517Y0246132D03*
X0041367Y0203612D03*
X0035068Y0203612D03*
X0028769Y0203612D03*
X0129753Y0152431D03*
X0155343Y0149281D03*
X0180540Y0148100D03*
X0184871Y0152825D03*
X0196682Y0155974D03*
X0206524Y0156762D03*
X0218729Y0148100D03*
X0210068Y0143376D03*
X0209280Y0139439D03*
X0209280Y0135108D03*
X0221879Y0131171D03*
X0222272Y0127234D03*
X0216761Y0120541D03*
X0204950Y0126447D03*
X0198257Y0126841D03*
X0195894Y0129990D03*
X0193139Y0127234D03*
X0191957Y0123297D03*
X0195501Y0123691D03*
X0187233Y0132746D03*
X0201406Y0142982D03*
X0199044Y0145738D03*
X0203769Y0146132D03*
X0193926Y0145738D03*
X0190383Y0145344D03*
X0230277Y0161274D03*
X0240847Y0173397D03*
X0251406Y0161486D03*
X0260068Y0176447D03*
X0246288Y0194951D03*
X0187233Y0184715D03*
X0185265Y0181171D03*
X0180934Y0188258D03*
X0176997Y0178415D03*
X0238020Y0143376D03*
X0238020Y0134715D03*
X0238020Y0126053D03*
X0260068Y0120935D03*
X0282509Y0121329D03*
X0286446Y0122510D03*
X0312532Y0103183D03*
X0320461Y0114557D03*
X0318893Y0117712D03*
X0326360Y0123147D03*
X0328472Y0126547D03*
X0330146Y0129596D03*
X0332115Y0132352D03*
X0339202Y0128022D03*
X0342351Y0129596D03*
X0345501Y0128415D03*
X0341957Y0122904D03*
X0335658Y0127234D03*
X0332115Y0126447D03*
X0332115Y0122904D03*
X0322272Y0135108D03*
X0327391Y0142195D03*
X0331721Y0145738D03*
X0335658Y0145738D03*
X0335658Y0141801D03*
X0342745Y0143376D03*
X0342745Y0139833D03*
X0342745Y0136289D03*
X0355737Y0129596D03*
X0355737Y0122116D03*
X0350619Y0120935D03*
X0350619Y0117392D03*
X0355737Y0116604D03*
X0372076Y0126250D03*
X0371879Y0135305D03*
X0371879Y0144163D03*
X0371682Y0153415D03*
X0354950Y0154006D03*
X0352194Y0148100D03*
X0344713Y0157943D03*
X0316761Y0148100D03*
X0339162Y0184045D03*
X0347469Y0190226D03*
X0185658Y0113061D03*
X0183734Y0116548D03*
X0177832Y0114783D03*
X0176632Y0102983D03*
X0185106Y0088158D03*
X0173269Y0081139D03*
X0229753Y0088258D03*
X0147469Y0121722D03*
X0143139Y0119360D03*
X0324111Y0089178D03*
X0333690Y0081565D03*
X0348257Y0088652D03*
X0395107Y0087864D03*
D21*
X0019330Y0022885D02*
X0017392Y0020948D01*
X0039989Y0020948D01*
X0039989Y0105581D01*
X0118532Y0105581D01*
X0118532Y0117195D01*
X0120858Y0117195D01*
X0121877Y0117617D01*
X0123455Y0117617D01*
X0124474Y0117195D01*
X0126603Y0117195D01*
X0126603Y0114509D01*
X0126631Y0114440D01*
X0126631Y0112863D01*
X0126603Y0112794D01*
X0126603Y0109391D01*
X0126631Y0109322D01*
X0126631Y0107745D01*
X0126603Y0107676D01*
X0126603Y0104273D01*
X0126631Y0104204D01*
X0126631Y0102627D01*
X0126603Y0102558D01*
X0126603Y0100266D01*
X0140186Y0100266D01*
X0140186Y0091998D01*
X0118926Y0091998D01*
X0118926Y0020948D01*
X0447231Y0020948D01*
X0445294Y0022885D01*
X0443913Y0026218D01*
X0443913Y0029825D01*
X0445294Y0033158D01*
X0447845Y0035709D01*
X0451177Y0037089D01*
X0454785Y0037089D01*
X0458118Y0035709D01*
X0460668Y0033158D01*
X0461630Y0030837D01*
X0461630Y0239774D01*
X0460668Y0237452D01*
X0458118Y0234901D01*
X0454785Y0233521D01*
X0451177Y0233521D01*
X0447845Y0234901D01*
X0445294Y0237452D01*
X0443913Y0240785D01*
X0443913Y0244392D01*
X0445294Y0247725D01*
X0447231Y0249663D01*
X0044713Y0249663D01*
X0044713Y0218770D01*
X0004568Y0218770D01*
X0004568Y0033771D01*
X0006506Y0035709D01*
X0009839Y0037089D01*
X0013446Y0037089D01*
X0016779Y0035709D01*
X0019330Y0033158D01*
X0020710Y0029825D01*
X0020710Y0026218D01*
X0019330Y0022885D01*
X0019671Y0023709D02*
X0039989Y0023709D01*
X0039989Y0025307D02*
X0020333Y0025307D01*
X0020710Y0026906D02*
X0039989Y0026906D01*
X0039989Y0028504D02*
X0020710Y0028504D01*
X0020595Y0030103D02*
X0039989Y0030103D01*
X0039989Y0031701D02*
X0019933Y0031701D01*
X0019188Y0033300D02*
X0039989Y0033300D01*
X0039989Y0034898D02*
X0017589Y0034898D01*
X0014876Y0036497D02*
X0039989Y0036497D01*
X0039989Y0038095D02*
X0004568Y0038095D01*
X0004568Y0036497D02*
X0008409Y0036497D01*
X0005696Y0034898D02*
X0004568Y0034898D01*
X0004568Y0039694D02*
X0039989Y0039694D01*
X0039989Y0041293D02*
X0004568Y0041293D01*
X0004568Y0042891D02*
X0039989Y0042891D01*
X0039989Y0044490D02*
X0004568Y0044490D01*
X0004568Y0046088D02*
X0039989Y0046088D01*
X0039989Y0047687D02*
X0004568Y0047687D01*
X0004568Y0049285D02*
X0039989Y0049285D01*
X0039989Y0050884D02*
X0004568Y0050884D01*
X0004568Y0052482D02*
X0039989Y0052482D01*
X0039989Y0054081D02*
X0004568Y0054081D01*
X0004568Y0055679D02*
X0039989Y0055679D01*
X0039989Y0057278D02*
X0004568Y0057278D01*
X0004568Y0058876D02*
X0039989Y0058876D01*
X0039989Y0060475D02*
X0004568Y0060475D01*
X0004568Y0062073D02*
X0039989Y0062073D01*
X0039989Y0063672D02*
X0004568Y0063672D01*
X0004568Y0065270D02*
X0039989Y0065270D01*
X0039989Y0066869D02*
X0004568Y0066869D01*
X0004568Y0068467D02*
X0039989Y0068467D01*
X0039989Y0070066D02*
X0004568Y0070066D01*
X0004568Y0071664D02*
X0039989Y0071664D01*
X0039989Y0073263D02*
X0004568Y0073263D01*
X0004568Y0074861D02*
X0039989Y0074861D01*
X0039989Y0076460D02*
X0004568Y0076460D01*
X0004568Y0078058D02*
X0039989Y0078058D01*
X0039989Y0079657D02*
X0004568Y0079657D01*
X0004568Y0081255D02*
X0039989Y0081255D01*
X0039989Y0082854D02*
X0004568Y0082854D01*
X0004568Y0084452D02*
X0012624Y0084452D01*
X0013202Y0083874D02*
X0014949Y0083151D01*
X0016840Y0083151D01*
X0018587Y0083874D01*
X0019924Y0085211D01*
X0020647Y0086958D01*
X0020647Y0088849D01*
X0019924Y0090596D01*
X0018587Y0091933D01*
X0016840Y0092656D01*
X0014949Y0092656D01*
X0013202Y0091933D01*
X0011865Y0090596D01*
X0011142Y0088849D01*
X0011142Y0086958D01*
X0011865Y0085211D01*
X0013202Y0083874D01*
X0011518Y0086051D02*
X0004568Y0086051D01*
X0004568Y0087649D02*
X0011142Y0087649D01*
X0011307Y0089248D02*
X0004568Y0089248D01*
X0004568Y0090846D02*
X0012116Y0090846D01*
X0014439Y0092445D02*
X0004568Y0092445D01*
X0004568Y0094043D02*
X0013122Y0094043D01*
X0013403Y0093839D02*
X0014070Y0093499D01*
X0014782Y0093268D01*
X0015520Y0093151D01*
X0015710Y0093151D01*
X0015710Y0097719D01*
X0016079Y0097719D01*
X0016079Y0098088D01*
X0020647Y0098088D01*
X0020647Y0098278D01*
X0020530Y0099016D01*
X0020299Y0099728D01*
X0019959Y0100395D01*
X0019520Y0101000D01*
X0018991Y0101529D01*
X0018385Y0101968D01*
X0017719Y0102308D01*
X0017007Y0102539D01*
X0016269Y0102656D01*
X0016079Y0102656D01*
X0016079Y0098088D01*
X0015710Y0098088D01*
X0015710Y0097719D01*
X0011142Y0097719D01*
X0011142Y0097529D01*
X0011259Y0096791D01*
X0011490Y0096079D01*
X0011830Y0095413D01*
X0012269Y0094807D01*
X0012798Y0094278D01*
X0013403Y0093839D01*
X0015710Y0094043D02*
X0016079Y0094043D01*
X0016079Y0093151D02*
X0016269Y0093151D01*
X0017007Y0093268D01*
X0017719Y0093499D01*
X0018385Y0093839D01*
X0018991Y0094278D01*
X0019520Y0094807D01*
X0019959Y0095413D01*
X0020299Y0096079D01*
X0020530Y0096791D01*
X0020647Y0097529D01*
X0020647Y0097719D01*
X0016079Y0097719D01*
X0016079Y0093151D01*
X0017350Y0092445D02*
X0024439Y0092445D01*
X0024949Y0092656D02*
X0023202Y0091933D01*
X0021865Y0090596D01*
X0021142Y0088849D01*
X0021142Y0086958D01*
X0021865Y0085211D01*
X0023202Y0083874D01*
X0024949Y0083151D01*
X0026840Y0083151D01*
X0028587Y0083874D01*
X0029924Y0085211D01*
X0030647Y0086958D01*
X0030647Y0088849D01*
X0029924Y0090596D01*
X0028587Y0091933D01*
X0026840Y0092656D01*
X0024949Y0092656D01*
X0024949Y0093151D02*
X0026840Y0093151D01*
X0028587Y0093874D01*
X0029924Y0095211D01*
X0030647Y0096958D01*
X0030647Y0098849D01*
X0029924Y0100596D01*
X0028587Y0101933D01*
X0026840Y0102656D01*
X0024949Y0102656D01*
X0023202Y0101933D01*
X0021865Y0100596D01*
X0021142Y0098849D01*
X0021142Y0096958D01*
X0021865Y0095211D01*
X0023202Y0093874D01*
X0024949Y0093151D01*
X0023033Y0094043D02*
X0018667Y0094043D01*
X0020076Y0095642D02*
X0021687Y0095642D01*
X0021142Y0097240D02*
X0020601Y0097240D01*
X0020558Y0098839D02*
X0021142Y0098839D01*
X0021800Y0100437D02*
X0019928Y0100437D01*
X0018253Y0102036D02*
X0023451Y0102036D01*
X0023781Y0103634D02*
X0017985Y0103634D01*
X0017719Y0103499D02*
X0018385Y0103839D01*
X0018991Y0104278D01*
X0019520Y0104807D01*
X0019959Y0105413D01*
X0020299Y0106079D01*
X0020530Y0106791D01*
X0020647Y0107529D01*
X0020647Y0107719D01*
X0016079Y0107719D01*
X0016079Y0108088D01*
X0020647Y0108088D01*
X0020647Y0108278D01*
X0020530Y0109016D01*
X0020299Y0109728D01*
X0019959Y0110395D01*
X0019520Y0111000D01*
X0018991Y0111529D01*
X0018385Y0111968D01*
X0017719Y0112308D01*
X0017007Y0112539D01*
X0016269Y0112656D01*
X0016079Y0112656D01*
X0016079Y0108088D01*
X0015710Y0108088D01*
X0015710Y0107719D01*
X0016079Y0107719D01*
X0016079Y0103151D01*
X0016269Y0103151D01*
X0017007Y0103268D01*
X0017719Y0103499D01*
X0016079Y0103634D02*
X0015710Y0103634D01*
X0015710Y0103151D02*
X0015710Y0107719D01*
X0011142Y0107719D01*
X0011142Y0107529D01*
X0011259Y0106791D01*
X0011490Y0106079D01*
X0011830Y0105413D01*
X0012269Y0104807D01*
X0012798Y0104278D01*
X0013403Y0103839D01*
X0014070Y0103499D01*
X0014782Y0103268D01*
X0015520Y0103151D01*
X0015710Y0103151D01*
X0015710Y0102656D02*
X0015520Y0102656D01*
X0014782Y0102539D01*
X0014070Y0102308D01*
X0013403Y0101968D01*
X0012798Y0101529D01*
X0012269Y0101000D01*
X0011830Y0100395D01*
X0011490Y0099728D01*
X0011259Y0099016D01*
X0011142Y0098278D01*
X0011142Y0098088D01*
X0015710Y0098088D01*
X0015710Y0102656D01*
X0015710Y0102036D02*
X0016079Y0102036D01*
X0016079Y0100437D02*
X0015710Y0100437D01*
X0015710Y0098839D02*
X0016079Y0098839D01*
X0016079Y0097240D02*
X0015710Y0097240D01*
X0015710Y0095642D02*
X0016079Y0095642D01*
X0011713Y0095642D02*
X0004568Y0095642D01*
X0004568Y0097240D02*
X0011188Y0097240D01*
X0011231Y0098839D02*
X0004568Y0098839D01*
X0004568Y0100437D02*
X0011861Y0100437D01*
X0013536Y0102036D02*
X0004568Y0102036D01*
X0004568Y0103634D02*
X0013804Y0103634D01*
X0011960Y0105233D02*
X0004568Y0105233D01*
X0004568Y0106831D02*
X0011252Y0106831D01*
X0011142Y0108088D02*
X0015710Y0108088D01*
X0015710Y0112656D01*
X0015520Y0112656D01*
X0014782Y0112539D01*
X0014070Y0112308D01*
X0013403Y0111968D01*
X0012798Y0111529D01*
X0012269Y0111000D01*
X0011830Y0110395D01*
X0011490Y0109728D01*
X0011259Y0109016D01*
X0011142Y0108278D01*
X0011142Y0108088D01*
X0011166Y0108430D02*
X0004568Y0108430D01*
X0004568Y0110029D02*
X0011643Y0110029D01*
X0012934Y0111627D02*
X0004568Y0111627D01*
X0004568Y0113226D02*
X0015049Y0113226D01*
X0014782Y0113268D02*
X0015520Y0113151D01*
X0015710Y0113151D01*
X0015710Y0117719D01*
X0016079Y0117719D01*
X0016079Y0118088D01*
X0020647Y0118088D01*
X0020647Y0118278D01*
X0020530Y0119016D01*
X0020299Y0119728D01*
X0019959Y0120395D01*
X0019520Y0121000D01*
X0018991Y0121529D01*
X0018385Y0121968D01*
X0017719Y0122308D01*
X0017007Y0122539D01*
X0016269Y0122656D01*
X0016079Y0122656D01*
X0016079Y0118088D01*
X0015710Y0118088D01*
X0015710Y0117719D01*
X0011142Y0117719D01*
X0011142Y0117529D01*
X0011259Y0116791D01*
X0011490Y0116079D01*
X0011830Y0115413D01*
X0012269Y0114807D01*
X0012798Y0114278D01*
X0013403Y0113839D01*
X0014070Y0113499D01*
X0014782Y0113268D01*
X0015710Y0113226D02*
X0016079Y0113226D01*
X0016079Y0113151D02*
X0016269Y0113151D01*
X0017007Y0113268D01*
X0017719Y0113499D01*
X0018385Y0113839D01*
X0018991Y0114278D01*
X0019520Y0114807D01*
X0019959Y0115413D01*
X0020299Y0116079D01*
X0020530Y0116791D01*
X0020647Y0117529D01*
X0020647Y0117719D01*
X0016079Y0117719D01*
X0016079Y0113151D01*
X0016740Y0113226D02*
X0024769Y0113226D01*
X0024949Y0113151D02*
X0026840Y0113151D01*
X0028587Y0113874D01*
X0029924Y0115211D01*
X0030647Y0116958D01*
X0030647Y0118849D01*
X0029924Y0120596D01*
X0028587Y0121933D01*
X0026840Y0122656D01*
X0024949Y0122656D01*
X0023202Y0121933D01*
X0021865Y0120596D01*
X0021142Y0118849D01*
X0021142Y0116958D01*
X0021865Y0115211D01*
X0023202Y0113874D01*
X0024949Y0113151D01*
X0024949Y0112656D02*
X0023202Y0111933D01*
X0021865Y0110596D01*
X0021142Y0108849D01*
X0021142Y0106958D01*
X0021865Y0105211D01*
X0023202Y0103874D01*
X0024949Y0103151D01*
X0026840Y0103151D01*
X0028587Y0103874D01*
X0029924Y0105211D01*
X0030647Y0106958D01*
X0030647Y0108849D01*
X0029924Y0110596D01*
X0028587Y0111933D01*
X0026840Y0112656D01*
X0024949Y0112656D01*
X0027020Y0113226D02*
X0045022Y0113226D01*
X0044815Y0113376D02*
X0045426Y0112932D01*
X0046099Y0112589D01*
X0046818Y0112356D01*
X0047564Y0112237D01*
X0047742Y0112237D01*
X0047742Y0116837D01*
X0048142Y0116837D01*
X0048142Y0117237D01*
X0052742Y0117237D01*
X0052742Y0117415D01*
X0052624Y0118161D01*
X0052390Y0118880D01*
X0052047Y0119553D01*
X0051603Y0120164D01*
X0051069Y0120699D01*
X0050457Y0121143D01*
X0049784Y0121486D01*
X0049066Y0121719D01*
X0048320Y0121837D01*
X0048142Y0121837D01*
X0048142Y0117237D01*
X0047742Y0117237D01*
X0047742Y0116837D01*
X0043142Y0116837D01*
X0043142Y0116660D01*
X0043260Y0115913D01*
X0043493Y0115195D01*
X0043836Y0114522D01*
X0044280Y0113910D01*
X0044815Y0113376D01*
X0043682Y0114824D02*
X0029536Y0114824D01*
X0030425Y0116423D02*
X0043179Y0116423D01*
X0043142Y0117237D02*
X0047742Y0117237D01*
X0047742Y0121837D01*
X0047564Y0121837D01*
X0046818Y0121719D01*
X0046099Y0121486D01*
X0045426Y0121143D01*
X0044815Y0120699D01*
X0044280Y0120164D01*
X0043836Y0119553D01*
X0043493Y0118880D01*
X0043260Y0118161D01*
X0043142Y0117415D01*
X0043142Y0117237D01*
X0043238Y0118021D02*
X0030647Y0118021D01*
X0030328Y0119620D02*
X0043885Y0119620D01*
X0045574Y0121218D02*
X0029301Y0121218D01*
X0028587Y0123874D02*
X0029924Y0125211D01*
X0030647Y0126958D01*
X0030647Y0128849D01*
X0029924Y0130596D01*
X0028587Y0131933D01*
X0026840Y0132656D01*
X0024949Y0132656D01*
X0023202Y0131933D01*
X0021865Y0130596D01*
X0021142Y0128849D01*
X0021142Y0126958D01*
X0021865Y0125211D01*
X0023202Y0123874D01*
X0024949Y0123151D01*
X0026840Y0123151D01*
X0028587Y0123874D01*
X0029127Y0124415D02*
X0043832Y0124415D01*
X0043872Y0124318D02*
X0045223Y0122968D01*
X0046987Y0122237D01*
X0048897Y0122237D01*
X0050661Y0122968D01*
X0052011Y0124318D01*
X0052742Y0126083D01*
X0052742Y0127992D01*
X0052011Y0129756D01*
X0050661Y0131107D01*
X0048897Y0131837D01*
X0046987Y0131837D01*
X0045223Y0131107D01*
X0043872Y0129756D01*
X0043142Y0127992D01*
X0043142Y0126083D01*
X0043872Y0124318D01*
X0043170Y0126014D02*
X0030256Y0126014D01*
X0030647Y0127612D02*
X0043142Y0127612D01*
X0043646Y0129211D02*
X0030497Y0129211D01*
X0029710Y0130809D02*
X0044925Y0130809D01*
X0050958Y0130809D02*
X0054925Y0130809D01*
X0055223Y0131107D02*
X0053872Y0129756D01*
X0053142Y0127992D01*
X0053142Y0126083D01*
X0053872Y0124318D01*
X0055223Y0122968D01*
X0056987Y0122237D01*
X0058897Y0122237D01*
X0060661Y0122968D01*
X0062011Y0124318D01*
X0062742Y0126083D01*
X0062742Y0127992D01*
X0062011Y0129756D01*
X0060661Y0131107D01*
X0058897Y0131837D01*
X0056987Y0131837D01*
X0055223Y0131107D01*
X0053646Y0129211D02*
X0052237Y0129211D01*
X0052742Y0127612D02*
X0053142Y0127612D01*
X0053170Y0126014D02*
X0052713Y0126014D01*
X0052051Y0124415D02*
X0053832Y0124415D01*
X0055589Y0122817D02*
X0050295Y0122817D01*
X0050310Y0121218D02*
X0055574Y0121218D01*
X0055426Y0121143D02*
X0054815Y0120699D01*
X0054280Y0120164D01*
X0053836Y0119553D01*
X0053493Y0118880D01*
X0053260Y0118161D01*
X0053142Y0117415D01*
X0053142Y0117237D01*
X0057742Y0117237D01*
X0057742Y0116837D01*
X0058142Y0116837D01*
X0058142Y0117237D01*
X0062742Y0117237D01*
X0062742Y0117415D01*
X0062624Y0118161D01*
X0062390Y0118880D01*
X0062047Y0119553D01*
X0061603Y0120164D01*
X0061069Y0120699D01*
X0060457Y0121143D01*
X0059784Y0121486D01*
X0059066Y0121719D01*
X0058320Y0121837D01*
X0058142Y0121837D01*
X0058142Y0117237D01*
X0057742Y0117237D01*
X0057742Y0121837D01*
X0057564Y0121837D01*
X0056818Y0121719D01*
X0056099Y0121486D01*
X0055426Y0121143D01*
X0053885Y0119620D02*
X0051999Y0119620D01*
X0052646Y0118021D02*
X0053238Y0118021D01*
X0053142Y0116837D02*
X0053142Y0116660D01*
X0053260Y0115913D01*
X0053493Y0115195D01*
X0053836Y0114522D01*
X0054280Y0113910D01*
X0054815Y0113376D01*
X0055426Y0112932D01*
X0056099Y0112589D01*
X0056818Y0112356D01*
X0057564Y0112237D01*
X0057742Y0112237D01*
X0057742Y0116837D01*
X0053142Y0116837D01*
X0052742Y0116837D02*
X0048142Y0116837D01*
X0048142Y0112237D01*
X0048320Y0112237D01*
X0049066Y0112356D01*
X0049784Y0112589D01*
X0050457Y0112932D01*
X0051069Y0113376D01*
X0051603Y0113910D01*
X0052047Y0114522D01*
X0052390Y0115195D01*
X0052624Y0115913D01*
X0052742Y0116660D01*
X0052742Y0116837D01*
X0052704Y0116423D02*
X0053179Y0116423D01*
X0053682Y0114824D02*
X0052201Y0114824D01*
X0050861Y0113226D02*
X0055022Y0113226D01*
X0057742Y0113226D02*
X0058142Y0113226D01*
X0058142Y0112237D02*
X0058320Y0112237D01*
X0059066Y0112356D01*
X0059784Y0112589D01*
X0060457Y0112932D01*
X0061069Y0113376D01*
X0061603Y0113910D01*
X0062047Y0114522D01*
X0062390Y0115195D01*
X0062624Y0115913D01*
X0062742Y0116660D01*
X0062742Y0116837D01*
X0058142Y0116837D01*
X0058142Y0112237D01*
X0058142Y0114824D02*
X0057742Y0114824D01*
X0057742Y0116423D02*
X0058142Y0116423D01*
X0058142Y0118021D02*
X0057742Y0118021D01*
X0057742Y0119620D02*
X0058142Y0119620D01*
X0058142Y0121218D02*
X0057742Y0121218D01*
X0060310Y0121218D02*
X0065574Y0121218D01*
X0065426Y0121143D02*
X0064815Y0120699D01*
X0064280Y0120164D01*
X0063836Y0119553D01*
X0063493Y0118880D01*
X0063260Y0118161D01*
X0063142Y0117415D01*
X0063142Y0117237D01*
X0067742Y0117237D01*
X0067742Y0116837D01*
X0068142Y0116837D01*
X0068142Y0117237D01*
X0072742Y0117237D01*
X0072742Y0117415D01*
X0072624Y0118161D01*
X0072390Y0118880D01*
X0072047Y0119553D01*
X0071603Y0120164D01*
X0071069Y0120699D01*
X0070457Y0121143D01*
X0069784Y0121486D01*
X0069066Y0121719D01*
X0068320Y0121837D01*
X0068142Y0121837D01*
X0068142Y0117237D01*
X0067742Y0117237D01*
X0067742Y0121837D01*
X0067564Y0121837D01*
X0066818Y0121719D01*
X0066099Y0121486D01*
X0065426Y0121143D01*
X0065589Y0122817D02*
X0060295Y0122817D01*
X0062051Y0124415D02*
X0063832Y0124415D01*
X0063872Y0124318D02*
X0065223Y0122968D01*
X0066987Y0122237D01*
X0068897Y0122237D01*
X0070661Y0122968D01*
X0072011Y0124318D01*
X0072742Y0126083D01*
X0072742Y0127992D01*
X0072011Y0129756D01*
X0070661Y0131107D01*
X0068897Y0131837D01*
X0066987Y0131837D01*
X0065223Y0131107D01*
X0063872Y0129756D01*
X0063142Y0127992D01*
X0063142Y0126083D01*
X0063872Y0124318D01*
X0063170Y0126014D02*
X0062713Y0126014D01*
X0062742Y0127612D02*
X0063142Y0127612D01*
X0063646Y0129211D02*
X0062237Y0129211D01*
X0060958Y0130809D02*
X0064925Y0130809D01*
X0070958Y0130809D02*
X0074925Y0130809D01*
X0075223Y0131107D02*
X0073872Y0129756D01*
X0073142Y0127992D01*
X0073142Y0126083D01*
X0073872Y0124318D01*
X0075223Y0122968D01*
X0076987Y0122237D01*
X0078897Y0122237D01*
X0080661Y0122968D01*
X0082011Y0124318D01*
X0082742Y0126083D01*
X0082742Y0127992D01*
X0082011Y0129756D01*
X0080661Y0131107D01*
X0078897Y0131837D01*
X0076987Y0131837D01*
X0075223Y0131107D01*
X0073646Y0129211D02*
X0072237Y0129211D01*
X0072742Y0127612D02*
X0073142Y0127612D01*
X0073170Y0126014D02*
X0072713Y0126014D01*
X0072051Y0124415D02*
X0073832Y0124415D01*
X0075589Y0122817D02*
X0070295Y0122817D01*
X0070310Y0121218D02*
X0075574Y0121218D01*
X0075426Y0121143D02*
X0074815Y0120699D01*
X0074280Y0120164D01*
X0073836Y0119553D01*
X0073493Y0118880D01*
X0073260Y0118161D01*
X0073142Y0117415D01*
X0073142Y0117237D01*
X0077742Y0117237D01*
X0077742Y0116837D01*
X0078142Y0116837D01*
X0078142Y0117237D01*
X0082742Y0117237D01*
X0082742Y0117415D01*
X0082624Y0118161D01*
X0082390Y0118880D01*
X0082047Y0119553D01*
X0081603Y0120164D01*
X0081069Y0120699D01*
X0080457Y0121143D01*
X0079784Y0121486D01*
X0079066Y0121719D01*
X0078320Y0121837D01*
X0078142Y0121837D01*
X0078142Y0117237D01*
X0077742Y0117237D01*
X0077742Y0121837D01*
X0077564Y0121837D01*
X0076818Y0121719D01*
X0076099Y0121486D01*
X0075426Y0121143D01*
X0073885Y0119620D02*
X0071999Y0119620D01*
X0072646Y0118021D02*
X0073238Y0118021D01*
X0073142Y0116837D02*
X0073142Y0116660D01*
X0073260Y0115913D01*
X0073493Y0115195D01*
X0073836Y0114522D01*
X0074280Y0113910D01*
X0074815Y0113376D01*
X0075426Y0112932D01*
X0076099Y0112589D01*
X0076818Y0112356D01*
X0077564Y0112237D01*
X0077742Y0112237D01*
X0077742Y0116837D01*
X0073142Y0116837D01*
X0072742Y0116837D02*
X0068142Y0116837D01*
X0068142Y0112237D01*
X0068320Y0112237D01*
X0069066Y0112356D01*
X0069784Y0112589D01*
X0070457Y0112932D01*
X0071069Y0113376D01*
X0071603Y0113910D01*
X0072047Y0114522D01*
X0072390Y0115195D01*
X0072624Y0115913D01*
X0072742Y0116660D01*
X0072742Y0116837D01*
X0072704Y0116423D02*
X0073179Y0116423D01*
X0073682Y0114824D02*
X0072201Y0114824D01*
X0070861Y0113226D02*
X0075022Y0113226D01*
X0077742Y0113226D02*
X0078142Y0113226D01*
X0078142Y0112237D02*
X0078320Y0112237D01*
X0079066Y0112356D01*
X0079784Y0112589D01*
X0080457Y0112932D01*
X0081069Y0113376D01*
X0081603Y0113910D01*
X0082047Y0114522D01*
X0082390Y0115195D01*
X0082624Y0115913D01*
X0082742Y0116660D01*
X0082742Y0116837D01*
X0078142Y0116837D01*
X0078142Y0112237D01*
X0078142Y0114824D02*
X0077742Y0114824D01*
X0077742Y0116423D02*
X0078142Y0116423D01*
X0078142Y0118021D02*
X0077742Y0118021D01*
X0077742Y0119620D02*
X0078142Y0119620D01*
X0078142Y0121218D02*
X0077742Y0121218D01*
X0080310Y0121218D02*
X0085574Y0121218D01*
X0085426Y0121143D02*
X0084815Y0120699D01*
X0084280Y0120164D01*
X0083836Y0119553D01*
X0083493Y0118880D01*
X0083260Y0118161D01*
X0083142Y0117415D01*
X0083142Y0117237D01*
X0087742Y0117237D01*
X0087742Y0116837D01*
X0088142Y0116837D01*
X0088142Y0117237D01*
X0092742Y0117237D01*
X0092742Y0117415D01*
X0092624Y0118161D01*
X0092390Y0118880D01*
X0092047Y0119553D01*
X0091603Y0120164D01*
X0091069Y0120699D01*
X0090457Y0121143D01*
X0089784Y0121486D01*
X0089066Y0121719D01*
X0088320Y0121837D01*
X0088142Y0121837D01*
X0088142Y0117237D01*
X0087742Y0117237D01*
X0087742Y0121837D01*
X0087564Y0121837D01*
X0086818Y0121719D01*
X0086099Y0121486D01*
X0085426Y0121143D01*
X0085589Y0122817D02*
X0080295Y0122817D01*
X0082051Y0124415D02*
X0083832Y0124415D01*
X0083872Y0124318D02*
X0085223Y0122968D01*
X0086987Y0122237D01*
X0088897Y0122237D01*
X0090661Y0122968D01*
X0092011Y0124318D01*
X0092742Y0126083D01*
X0092742Y0127992D01*
X0092011Y0129756D01*
X0090661Y0131107D01*
X0088897Y0131837D01*
X0086987Y0131837D01*
X0085223Y0131107D01*
X0083872Y0129756D01*
X0083142Y0127992D01*
X0083142Y0126083D01*
X0083872Y0124318D01*
X0083170Y0126014D02*
X0082713Y0126014D01*
X0082742Y0127612D02*
X0083142Y0127612D01*
X0083646Y0129211D02*
X0082237Y0129211D01*
X0080958Y0130809D02*
X0084925Y0130809D01*
X0090958Y0130809D02*
X0138443Y0130809D01*
X0138522Y0130866D02*
X0137916Y0130426D01*
X0137387Y0129897D01*
X0136948Y0129292D01*
X0136608Y0128626D01*
X0136377Y0127914D01*
X0136260Y0127175D01*
X0136260Y0126985D01*
X0140828Y0126985D01*
X0140828Y0126617D01*
X0136260Y0126617D01*
X0136260Y0126427D01*
X0136377Y0125688D01*
X0136608Y0124977D01*
X0136948Y0124310D01*
X0137387Y0123705D01*
X0137916Y0123176D01*
X0138522Y0122736D01*
X0139188Y0122397D01*
X0139900Y0122165D01*
X0140639Y0122048D01*
X0140828Y0122048D01*
X0140828Y0126617D01*
X0141197Y0126617D01*
X0141197Y0126985D01*
X0145765Y0126985D01*
X0145765Y0127175D01*
X0145648Y0127914D01*
X0145417Y0128626D01*
X0145078Y0129292D01*
X0144638Y0129897D01*
X0144109Y0130426D01*
X0143504Y0130866D01*
X0142837Y0131206D01*
X0142126Y0131437D01*
X0141387Y0131554D01*
X0141197Y0131554D01*
X0141197Y0126986D01*
X0140828Y0126986D01*
X0140828Y0131554D01*
X0140639Y0131554D01*
X0139900Y0131437D01*
X0139188Y0131206D01*
X0138522Y0130866D01*
X0140828Y0130809D02*
X0141197Y0130809D01*
X0141197Y0129211D02*
X0140828Y0129211D01*
X0140828Y0127612D02*
X0141197Y0127612D01*
X0141197Y0126617D02*
X0145765Y0126617D01*
X0145765Y0126427D01*
X0145648Y0125688D01*
X0145417Y0124977D01*
X0145078Y0124310D01*
X0144638Y0123705D01*
X0144109Y0123176D01*
X0143504Y0122736D01*
X0143115Y0122538D01*
X0143771Y0122538D01*
X0144291Y0122323D01*
X0144291Y0122355D01*
X0144775Y0123523D01*
X0145669Y0124417D01*
X0146837Y0124900D01*
X0148101Y0124900D01*
X0149269Y0124417D01*
X0150163Y0123523D01*
X0150647Y0122355D01*
X0150647Y0121090D01*
X0150163Y0119922D01*
X0149269Y0119028D01*
X0148101Y0118544D01*
X0146837Y0118544D01*
X0146317Y0118760D01*
X0146317Y0118728D01*
X0145833Y0117560D01*
X0144939Y0116666D01*
X0143771Y0116182D01*
X0142506Y0116182D01*
X0141338Y0116666D01*
X0140444Y0117560D01*
X0139961Y0118728D01*
X0139961Y0119992D01*
X0140444Y0121160D01*
X0141332Y0122048D01*
X0141197Y0122048D01*
X0141197Y0126617D01*
X0141197Y0126014D02*
X0140828Y0126014D01*
X0140828Y0124415D02*
X0141197Y0124415D01*
X0141197Y0122817D02*
X0140828Y0122817D01*
X0140502Y0121218D02*
X0090310Y0121218D01*
X0090295Y0122817D02*
X0138411Y0122817D01*
X0136894Y0124415D02*
X0092051Y0124415D01*
X0092713Y0126014D02*
X0136325Y0126014D01*
X0136329Y0127612D02*
X0092742Y0127612D01*
X0092237Y0129211D02*
X0136906Y0129211D01*
X0143582Y0130809D02*
X0192794Y0130809D01*
X0192717Y0130622D02*
X0192717Y0130412D01*
X0192506Y0130412D01*
X0191338Y0129928D01*
X0190444Y0129034D01*
X0189961Y0127866D01*
X0189961Y0126602D01*
X0190205Y0126011D01*
X0190157Y0125991D01*
X0189263Y0125097D01*
X0188780Y0123929D01*
X0188780Y0122665D01*
X0189263Y0121497D01*
X0190157Y0120603D01*
X0191325Y0120119D01*
X0192590Y0120119D01*
X0193758Y0120603D01*
X0194019Y0120865D01*
X0194869Y0120513D01*
X0196133Y0120513D01*
X0197301Y0120997D01*
X0198195Y0121891D01*
X0198679Y0123059D01*
X0198679Y0123663D01*
X0198889Y0123663D01*
X0200057Y0124146D01*
X0200951Y0125040D01*
X0201435Y0126208D01*
X0201435Y0127473D01*
X0200951Y0128641D01*
X0200057Y0129535D01*
X0199072Y0129942D01*
X0199072Y0130622D01*
X0198589Y0131790D01*
X0197695Y0132684D01*
X0196527Y0133168D01*
X0195262Y0133168D01*
X0194094Y0132684D01*
X0193200Y0131790D01*
X0192717Y0130622D01*
X0193818Y0132408D02*
X0027440Y0132408D01*
X0026840Y0133151D02*
X0028587Y0133874D01*
X0029924Y0135211D01*
X0030647Y0136958D01*
X0030647Y0138849D01*
X0029924Y0140596D01*
X0028587Y0141933D01*
X0026840Y0142656D01*
X0024949Y0142656D01*
X0023202Y0141933D01*
X0021865Y0140596D01*
X0021142Y0138849D01*
X0021142Y0136958D01*
X0021865Y0135211D01*
X0023202Y0133874D01*
X0024949Y0133151D01*
X0026840Y0133151D01*
X0028719Y0134006D02*
X0206297Y0134006D01*
X0206102Y0134476D02*
X0206586Y0133308D01*
X0207480Y0132414D01*
X0208648Y0131930D01*
X0209912Y0131930D01*
X0211080Y0132414D01*
X0211974Y0133308D01*
X0212458Y0134476D01*
X0212458Y0135740D01*
X0211974Y0136908D01*
X0211609Y0137274D01*
X0211974Y0137639D01*
X0212458Y0138807D01*
X0212458Y0140071D01*
X0212106Y0140920D01*
X0212762Y0141576D01*
X0213246Y0142744D01*
X0213246Y0144008D01*
X0212762Y0145176D01*
X0211868Y0146070D01*
X0210700Y0146554D01*
X0209436Y0146554D01*
X0208268Y0146070D01*
X0207374Y0145176D01*
X0206890Y0144008D01*
X0206890Y0142744D01*
X0207242Y0141895D01*
X0206586Y0141239D01*
X0206102Y0140071D01*
X0206102Y0138807D01*
X0206586Y0137639D01*
X0206951Y0137274D01*
X0206586Y0136908D01*
X0206102Y0135740D01*
X0206102Y0134476D01*
X0206102Y0135605D02*
X0030087Y0135605D01*
X0030647Y0137203D02*
X0206881Y0137203D01*
X0206104Y0138802D02*
X0030647Y0138802D01*
X0030005Y0140400D02*
X0199494Y0140400D01*
X0199606Y0140288D02*
X0200774Y0139804D01*
X0202038Y0139804D01*
X0203206Y0140288D01*
X0204100Y0141182D01*
X0204584Y0142350D01*
X0204584Y0143030D01*
X0205569Y0143438D01*
X0206463Y0144332D01*
X0206946Y0145500D01*
X0206946Y0146764D01*
X0206463Y0147932D01*
X0205569Y0148826D01*
X0204401Y0149310D01*
X0203136Y0149310D01*
X0201968Y0148826D01*
X0201209Y0148067D01*
X0200844Y0148432D01*
X0199676Y0148916D01*
X0198412Y0148916D01*
X0197244Y0148432D01*
X0196485Y0147673D01*
X0195726Y0148432D01*
X0194558Y0148916D01*
X0193294Y0148916D01*
X0192126Y0148432D01*
X0191864Y0148171D01*
X0191015Y0148522D01*
X0189751Y0148522D01*
X0188583Y0148039D01*
X0187689Y0147145D01*
X0187205Y0145977D01*
X0187205Y0144712D01*
X0187689Y0143544D01*
X0188583Y0142650D01*
X0189751Y0142167D01*
X0191015Y0142167D01*
X0192183Y0142650D01*
X0192445Y0142912D01*
X0193294Y0142560D01*
X0194558Y0142560D01*
X0195726Y0143044D01*
X0196485Y0143803D01*
X0197244Y0143044D01*
X0198228Y0142636D01*
X0198228Y0142350D01*
X0198712Y0141182D01*
X0199606Y0140288D01*
X0198374Y0141999D02*
X0142598Y0141999D01*
X0141958Y0141733D02*
X0143705Y0142457D01*
X0145042Y0143794D01*
X0145765Y0145541D01*
X0145765Y0147432D01*
X0145042Y0149178D01*
X0143705Y0150515D01*
X0141958Y0151239D01*
X0140067Y0151239D01*
X0138320Y0150515D01*
X0136983Y0149178D01*
X0136260Y0147432D01*
X0136260Y0145541D01*
X0136983Y0143794D01*
X0138320Y0142457D01*
X0140067Y0141733D01*
X0141958Y0141733D01*
X0139427Y0141999D02*
X0028427Y0141999D01*
X0027918Y0143597D02*
X0044594Y0143597D01*
X0044815Y0143376D02*
X0045426Y0142932D01*
X0046099Y0142589D01*
X0046818Y0142356D01*
X0047564Y0142237D01*
X0047742Y0142237D01*
X0047742Y0146837D01*
X0048142Y0146837D01*
X0048142Y0147237D01*
X0052742Y0147237D01*
X0052742Y0147415D01*
X0052624Y0148161D01*
X0052390Y0148880D01*
X0052047Y0149553D01*
X0051603Y0150164D01*
X0051069Y0150699D01*
X0050457Y0151143D01*
X0049784Y0151486D01*
X0049066Y0151719D01*
X0048320Y0151837D01*
X0048142Y0151837D01*
X0048142Y0147237D01*
X0047742Y0147237D01*
X0047742Y0146837D01*
X0043142Y0146837D01*
X0043142Y0146660D01*
X0043260Y0145913D01*
X0043493Y0145195D01*
X0043836Y0144522D01*
X0044280Y0143910D01*
X0044815Y0143376D01*
X0043493Y0145196D02*
X0029908Y0145196D01*
X0029924Y0145211D02*
X0030647Y0146958D01*
X0030647Y0148849D01*
X0029924Y0150596D01*
X0028587Y0151933D01*
X0026840Y0152656D01*
X0024949Y0152656D01*
X0023202Y0151933D01*
X0021865Y0150596D01*
X0021142Y0148849D01*
X0021142Y0146958D01*
X0021865Y0145211D01*
X0023202Y0143874D01*
X0024949Y0143151D01*
X0026840Y0143151D01*
X0028587Y0143874D01*
X0029924Y0145211D01*
X0030579Y0146794D02*
X0043142Y0146794D01*
X0043142Y0147237D02*
X0047742Y0147237D01*
X0047742Y0151837D01*
X0047564Y0151837D01*
X0046818Y0151719D01*
X0046099Y0151486D01*
X0045426Y0151143D01*
X0044815Y0150699D01*
X0044280Y0150164D01*
X0043836Y0149553D01*
X0043493Y0148880D01*
X0043260Y0148161D01*
X0043142Y0147415D01*
X0043142Y0147237D01*
X0043335Y0148393D02*
X0030647Y0148393D01*
X0030174Y0149991D02*
X0044155Y0149991D01*
X0046419Y0151590D02*
X0028930Y0151590D01*
X0028587Y0153874D02*
X0029924Y0155211D01*
X0030647Y0156958D01*
X0030647Y0158849D01*
X0029924Y0160596D01*
X0028587Y0161933D01*
X0026840Y0162656D01*
X0024949Y0162656D01*
X0023202Y0161933D01*
X0021865Y0160596D01*
X0021142Y0158849D01*
X0021142Y0156958D01*
X0021865Y0155211D01*
X0023202Y0153874D01*
X0024949Y0153151D01*
X0026840Y0153151D01*
X0028587Y0153874D01*
X0029499Y0154787D02*
X0043678Y0154787D01*
X0043872Y0154318D02*
X0043142Y0156083D01*
X0043142Y0157992D01*
X0043872Y0159756D01*
X0045223Y0161107D01*
X0046987Y0161837D01*
X0048897Y0161837D01*
X0050661Y0161107D01*
X0052011Y0159756D01*
X0052742Y0157992D01*
X0052742Y0156083D01*
X0052011Y0154318D01*
X0050661Y0152968D01*
X0048897Y0152237D01*
X0046987Y0152237D01*
X0045223Y0152968D01*
X0043872Y0154318D01*
X0045003Y0153188D02*
X0026930Y0153188D01*
X0024859Y0153188D02*
X0016505Y0153188D01*
X0016269Y0153151D02*
X0017007Y0153268D01*
X0017719Y0153499D01*
X0018385Y0153839D01*
X0018991Y0154278D01*
X0019520Y0154807D01*
X0019959Y0155413D01*
X0020299Y0156079D01*
X0020530Y0156791D01*
X0020647Y0157529D01*
X0020647Y0157719D01*
X0016079Y0157719D01*
X0016079Y0158088D01*
X0020647Y0158088D01*
X0020647Y0158278D01*
X0020530Y0159016D01*
X0020299Y0159728D01*
X0019959Y0160395D01*
X0019520Y0161000D01*
X0018991Y0161529D01*
X0018385Y0161968D01*
X0017719Y0162308D01*
X0017007Y0162539D01*
X0016269Y0162656D01*
X0016079Y0162656D01*
X0016079Y0158088D01*
X0015710Y0158088D01*
X0015710Y0157719D01*
X0016079Y0157719D01*
X0016079Y0153151D01*
X0016269Y0153151D01*
X0016079Y0153188D02*
X0015710Y0153188D01*
X0015710Y0153151D02*
X0015710Y0157719D01*
X0011142Y0157719D01*
X0011142Y0157529D01*
X0011259Y0156791D01*
X0011490Y0156079D01*
X0011830Y0155413D01*
X0012269Y0154807D01*
X0012798Y0154278D01*
X0013403Y0153839D01*
X0014070Y0153499D01*
X0014782Y0153268D01*
X0015520Y0153151D01*
X0015710Y0153151D01*
X0015283Y0153188D02*
X0004568Y0153188D01*
X0004568Y0151590D02*
X0012882Y0151590D01*
X0012798Y0151529D02*
X0012269Y0151000D01*
X0011830Y0150395D01*
X0011490Y0149728D01*
X0011259Y0149016D01*
X0011142Y0148278D01*
X0011142Y0148088D01*
X0015710Y0148088D01*
X0015710Y0147719D01*
X0016079Y0147719D01*
X0016079Y0148088D01*
X0020647Y0148088D01*
X0020647Y0148278D01*
X0020530Y0149016D01*
X0020299Y0149728D01*
X0019959Y0150395D01*
X0019520Y0151000D01*
X0018991Y0151529D01*
X0018385Y0151968D01*
X0017719Y0152308D01*
X0017007Y0152539D01*
X0016269Y0152656D01*
X0016079Y0152656D01*
X0016079Y0148088D01*
X0015710Y0148088D01*
X0015710Y0152656D01*
X0015520Y0152656D01*
X0014782Y0152539D01*
X0014070Y0152308D01*
X0013403Y0151968D01*
X0012798Y0151529D01*
X0011624Y0149991D02*
X0004568Y0149991D01*
X0004568Y0148393D02*
X0011160Y0148393D01*
X0011142Y0147719D02*
X0011142Y0147529D01*
X0011259Y0146791D01*
X0011490Y0146079D01*
X0011830Y0145413D01*
X0012269Y0144807D01*
X0012798Y0144278D01*
X0013403Y0143839D01*
X0014070Y0143499D01*
X0014782Y0143268D01*
X0015520Y0143151D01*
X0015710Y0143151D01*
X0015710Y0147719D01*
X0011142Y0147719D01*
X0011258Y0146794D02*
X0004568Y0146794D01*
X0004568Y0145196D02*
X0011987Y0145196D01*
X0013877Y0143597D02*
X0004568Y0143597D01*
X0004568Y0141999D02*
X0013463Y0141999D01*
X0013403Y0141968D02*
X0012798Y0141529D01*
X0012269Y0141000D01*
X0011830Y0140395D01*
X0011490Y0139728D01*
X0011259Y0139016D01*
X0011142Y0138278D01*
X0011142Y0138088D01*
X0015710Y0138088D01*
X0015710Y0137719D01*
X0016079Y0137719D01*
X0016079Y0138088D01*
X0020647Y0138088D01*
X0020647Y0138278D01*
X0020530Y0139016D01*
X0020299Y0139728D01*
X0019959Y0140395D01*
X0019520Y0141000D01*
X0018991Y0141529D01*
X0018385Y0141968D01*
X0017719Y0142308D01*
X0017007Y0142539D01*
X0016269Y0142656D01*
X0016079Y0142656D01*
X0016079Y0138088D01*
X0015710Y0138088D01*
X0015710Y0142656D01*
X0015520Y0142656D01*
X0014782Y0142539D01*
X0014070Y0142308D01*
X0013403Y0141968D01*
X0011834Y0140400D02*
X0004568Y0140400D01*
X0004568Y0138802D02*
X0011225Y0138802D01*
X0011142Y0137719D02*
X0011142Y0137529D01*
X0011259Y0136791D01*
X0011490Y0136079D01*
X0011830Y0135413D01*
X0012269Y0134807D01*
X0012798Y0134278D01*
X0013403Y0133839D01*
X0014070Y0133499D01*
X0014782Y0133268D01*
X0015520Y0133151D01*
X0015710Y0133151D01*
X0015710Y0137719D01*
X0011142Y0137719D01*
X0011193Y0137203D02*
X0004568Y0137203D01*
X0004568Y0135605D02*
X0011732Y0135605D01*
X0013173Y0134006D02*
X0004568Y0134006D01*
X0004568Y0132408D02*
X0014377Y0132408D01*
X0014070Y0132308D02*
X0013403Y0131968D01*
X0012798Y0131529D01*
X0012269Y0131000D01*
X0011830Y0130395D01*
X0011490Y0129728D01*
X0011259Y0129016D01*
X0011142Y0128278D01*
X0011142Y0128088D01*
X0015710Y0128088D01*
X0015710Y0127719D01*
X0016079Y0127719D01*
X0016079Y0128088D01*
X0020647Y0128088D01*
X0020647Y0128278D01*
X0020530Y0129016D01*
X0020299Y0129728D01*
X0019959Y0130395D01*
X0019520Y0131000D01*
X0018991Y0131529D01*
X0018385Y0131968D01*
X0017719Y0132308D01*
X0017007Y0132539D01*
X0016269Y0132656D01*
X0016079Y0132656D01*
X0016079Y0128088D01*
X0015710Y0128088D01*
X0015710Y0132656D01*
X0015520Y0132656D01*
X0014782Y0132539D01*
X0014070Y0132308D01*
X0015710Y0132408D02*
X0016079Y0132408D01*
X0016079Y0133151D02*
X0016269Y0133151D01*
X0017007Y0133268D01*
X0017719Y0133499D01*
X0018385Y0133839D01*
X0018991Y0134278D01*
X0019520Y0134807D01*
X0019959Y0135413D01*
X0020299Y0136079D01*
X0020530Y0136791D01*
X0020647Y0137529D01*
X0020647Y0137719D01*
X0016079Y0137719D01*
X0016079Y0133151D01*
X0016079Y0134006D02*
X0015710Y0134006D01*
X0015710Y0135605D02*
X0016079Y0135605D01*
X0016079Y0137203D02*
X0015710Y0137203D01*
X0015710Y0138802D02*
X0016079Y0138802D01*
X0016079Y0140400D02*
X0015710Y0140400D01*
X0015710Y0141999D02*
X0016079Y0141999D01*
X0016079Y0143151D02*
X0016269Y0143151D01*
X0017007Y0143268D01*
X0017719Y0143499D01*
X0018385Y0143839D01*
X0018991Y0144278D01*
X0019520Y0144807D01*
X0019959Y0145413D01*
X0020299Y0146079D01*
X0020530Y0146791D01*
X0020647Y0147529D01*
X0020647Y0147719D01*
X0016079Y0147719D01*
X0016079Y0143151D01*
X0016079Y0143597D02*
X0015710Y0143597D01*
X0015710Y0145196D02*
X0016079Y0145196D01*
X0016079Y0146794D02*
X0015710Y0146794D01*
X0015710Y0148393D02*
X0016079Y0148393D01*
X0016079Y0149991D02*
X0015710Y0149991D01*
X0015710Y0151590D02*
X0016079Y0151590D01*
X0018907Y0151590D02*
X0022859Y0151590D01*
X0021615Y0149991D02*
X0020165Y0149991D01*
X0020629Y0148393D02*
X0021142Y0148393D01*
X0021210Y0146794D02*
X0020531Y0146794D01*
X0019802Y0145196D02*
X0021881Y0145196D01*
X0023871Y0143597D02*
X0017912Y0143597D01*
X0018326Y0141999D02*
X0023362Y0141999D01*
X0021784Y0140400D02*
X0019955Y0140400D01*
X0020564Y0138802D02*
X0021142Y0138802D01*
X0021142Y0137203D02*
X0020596Y0137203D01*
X0020057Y0135605D02*
X0021702Y0135605D01*
X0023070Y0134006D02*
X0018616Y0134006D01*
X0017412Y0132408D02*
X0024349Y0132408D01*
X0022079Y0130809D02*
X0019658Y0130809D01*
X0020467Y0129211D02*
X0021292Y0129211D01*
X0021142Y0127612D02*
X0020647Y0127612D01*
X0020647Y0127529D02*
X0020647Y0127719D01*
X0016079Y0127719D01*
X0016079Y0123151D01*
X0016269Y0123151D01*
X0017007Y0123268D01*
X0017719Y0123499D01*
X0018385Y0123839D01*
X0018991Y0124278D01*
X0019520Y0124807D01*
X0019959Y0125413D01*
X0020299Y0126079D01*
X0020530Y0126791D01*
X0020647Y0127529D01*
X0020266Y0126014D02*
X0021533Y0126014D01*
X0022662Y0124415D02*
X0019127Y0124415D01*
X0016079Y0124415D02*
X0015710Y0124415D01*
X0015710Y0123151D02*
X0015710Y0127719D01*
X0011142Y0127719D01*
X0011142Y0127529D01*
X0011259Y0126791D01*
X0011490Y0126079D01*
X0011830Y0125413D01*
X0012269Y0124807D01*
X0012798Y0124278D01*
X0013403Y0123839D01*
X0014070Y0123499D01*
X0014782Y0123268D01*
X0015520Y0123151D01*
X0015710Y0123151D01*
X0015710Y0122656D02*
X0015520Y0122656D01*
X0014782Y0122539D01*
X0014070Y0122308D01*
X0013403Y0121968D01*
X0012798Y0121529D01*
X0012269Y0121000D01*
X0011830Y0120395D01*
X0011490Y0119728D01*
X0011259Y0119016D01*
X0011142Y0118278D01*
X0011142Y0118088D01*
X0015710Y0118088D01*
X0015710Y0122656D01*
X0015710Y0121218D02*
X0016079Y0121218D01*
X0016079Y0119620D02*
X0015710Y0119620D01*
X0015710Y0118021D02*
X0004568Y0118021D01*
X0004568Y0116423D02*
X0011378Y0116423D01*
X0012257Y0114824D02*
X0004568Y0114824D01*
X0004568Y0119620D02*
X0011455Y0119620D01*
X0012488Y0121218D02*
X0004568Y0121218D01*
X0004568Y0122817D02*
X0045589Y0122817D01*
X0047742Y0121218D02*
X0048142Y0121218D01*
X0048142Y0119620D02*
X0047742Y0119620D01*
X0047742Y0118021D02*
X0048142Y0118021D01*
X0048142Y0116423D02*
X0047742Y0116423D01*
X0047742Y0114824D02*
X0048142Y0114824D01*
X0048142Y0113226D02*
X0047742Y0113226D01*
X0039989Y0105233D02*
X0029933Y0105233D01*
X0030595Y0106831D02*
X0118532Y0106831D01*
X0118532Y0108430D02*
X0030647Y0108430D01*
X0030159Y0110029D02*
X0118532Y0110029D01*
X0118532Y0111627D02*
X0028892Y0111627D01*
X0022897Y0111627D02*
X0018855Y0111627D01*
X0020146Y0110029D02*
X0021630Y0110029D01*
X0021142Y0108430D02*
X0020623Y0108430D01*
X0020537Y0106831D02*
X0021194Y0106831D01*
X0021856Y0105233D02*
X0019829Y0105233D01*
X0016079Y0105233D02*
X0015710Y0105233D01*
X0015710Y0106831D02*
X0016079Y0106831D01*
X0016079Y0108430D02*
X0015710Y0108430D01*
X0015710Y0110029D02*
X0016079Y0110029D01*
X0016079Y0111627D02*
X0015710Y0111627D01*
X0015710Y0114824D02*
X0016079Y0114824D01*
X0016079Y0116423D02*
X0015710Y0116423D01*
X0016079Y0118021D02*
X0021142Y0118021D01*
X0021364Y0116423D02*
X0020411Y0116423D01*
X0019532Y0114824D02*
X0022253Y0114824D01*
X0021461Y0119620D02*
X0020334Y0119620D01*
X0019301Y0121218D02*
X0022488Y0121218D01*
X0016079Y0126014D02*
X0015710Y0126014D01*
X0015710Y0127612D02*
X0016079Y0127612D01*
X0016079Y0129211D02*
X0015710Y0129211D01*
X0015710Y0130809D02*
X0016079Y0130809D01*
X0012131Y0130809D02*
X0004568Y0130809D01*
X0004568Y0129211D02*
X0011322Y0129211D01*
X0011142Y0127612D02*
X0004568Y0127612D01*
X0004568Y0126014D02*
X0011523Y0126014D01*
X0012662Y0124415D02*
X0004568Y0124415D01*
X0028008Y0103634D02*
X0039989Y0103634D01*
X0039989Y0102036D02*
X0028337Y0102036D01*
X0029989Y0100437D02*
X0039989Y0100437D01*
X0039989Y0098839D02*
X0030647Y0098839D01*
X0030647Y0097240D02*
X0039989Y0097240D01*
X0039989Y0095642D02*
X0030102Y0095642D01*
X0028756Y0094043D02*
X0039989Y0094043D01*
X0039989Y0092445D02*
X0027350Y0092445D01*
X0029673Y0090846D02*
X0039989Y0090846D01*
X0039989Y0089248D02*
X0030482Y0089248D01*
X0030647Y0087649D02*
X0039989Y0087649D01*
X0039989Y0086051D02*
X0030271Y0086051D01*
X0029165Y0084452D02*
X0039989Y0084452D01*
X0022624Y0084452D02*
X0019165Y0084452D01*
X0020271Y0086051D02*
X0021518Y0086051D01*
X0021142Y0087649D02*
X0020647Y0087649D01*
X0020482Y0089248D02*
X0021307Y0089248D01*
X0022116Y0090846D02*
X0019673Y0090846D01*
X0060861Y0113226D02*
X0065022Y0113226D01*
X0064815Y0113376D02*
X0065426Y0112932D01*
X0066099Y0112589D01*
X0066818Y0112356D01*
X0067564Y0112237D01*
X0067742Y0112237D01*
X0067742Y0116837D01*
X0063142Y0116837D01*
X0063142Y0116660D01*
X0063260Y0115913D01*
X0063493Y0115195D01*
X0063836Y0114522D01*
X0064280Y0113910D01*
X0064815Y0113376D01*
X0063682Y0114824D02*
X0062201Y0114824D01*
X0062704Y0116423D02*
X0063179Y0116423D01*
X0063238Y0118021D02*
X0062646Y0118021D01*
X0061999Y0119620D02*
X0063885Y0119620D01*
X0067742Y0119620D02*
X0068142Y0119620D01*
X0068142Y0121218D02*
X0067742Y0121218D01*
X0067742Y0118021D02*
X0068142Y0118021D01*
X0068142Y0116423D02*
X0067742Y0116423D01*
X0067742Y0114824D02*
X0068142Y0114824D01*
X0068142Y0113226D02*
X0067742Y0113226D01*
X0080861Y0113226D02*
X0085022Y0113226D01*
X0084815Y0113376D02*
X0085426Y0112932D01*
X0086099Y0112589D01*
X0086818Y0112356D01*
X0087564Y0112237D01*
X0087742Y0112237D01*
X0087742Y0116837D01*
X0083142Y0116837D01*
X0083142Y0116660D01*
X0083260Y0115913D01*
X0083493Y0115195D01*
X0083836Y0114522D01*
X0084280Y0113910D01*
X0084815Y0113376D01*
X0083682Y0114824D02*
X0082201Y0114824D01*
X0082704Y0116423D02*
X0083179Y0116423D01*
X0083238Y0118021D02*
X0082646Y0118021D01*
X0081999Y0119620D02*
X0083885Y0119620D01*
X0087742Y0119620D02*
X0088142Y0119620D01*
X0088142Y0121218D02*
X0087742Y0121218D01*
X0087742Y0118021D02*
X0088142Y0118021D01*
X0088142Y0116837D02*
X0092742Y0116837D01*
X0092742Y0116660D01*
X0092624Y0115913D01*
X0092390Y0115195D01*
X0092047Y0114522D01*
X0091603Y0113910D01*
X0091069Y0113376D01*
X0090457Y0112932D01*
X0089784Y0112589D01*
X0089066Y0112356D01*
X0088320Y0112237D01*
X0088142Y0112237D01*
X0088142Y0116837D01*
X0088142Y0116423D02*
X0087742Y0116423D01*
X0087742Y0114824D02*
X0088142Y0114824D01*
X0088142Y0113226D02*
X0087742Y0113226D01*
X0090861Y0113226D02*
X0118532Y0113226D01*
X0118532Y0114824D02*
X0092201Y0114824D01*
X0092704Y0116423D02*
X0118532Y0116423D01*
X0126603Y0116423D02*
X0141926Y0116423D01*
X0140253Y0118021D02*
X0092646Y0118021D01*
X0091999Y0119620D02*
X0139961Y0119620D01*
X0143614Y0122817D02*
X0144483Y0122817D01*
X0145131Y0124415D02*
X0145668Y0124415D01*
X0145700Y0126014D02*
X0190204Y0126014D01*
X0189961Y0127612D02*
X0145696Y0127612D01*
X0145119Y0129211D02*
X0190621Y0129211D01*
X0197971Y0132408D02*
X0207496Y0132408D01*
X0206582Y0129211D02*
X0219345Y0129211D01*
X0219185Y0129371D02*
X0219562Y0128994D01*
X0219094Y0127866D01*
X0219094Y0126602D01*
X0219578Y0125434D01*
X0220472Y0124540D01*
X0221640Y0124056D01*
X0222905Y0124056D01*
X0224073Y0124540D01*
X0224967Y0125434D01*
X0225450Y0126602D01*
X0225450Y0127866D01*
X0224967Y0129034D01*
X0224590Y0129411D01*
X0225057Y0130539D01*
X0225057Y0131803D01*
X0224573Y0132971D01*
X0223679Y0133865D01*
X0222511Y0134349D01*
X0221247Y0134349D01*
X0220079Y0133865D01*
X0219185Y0132971D01*
X0218701Y0131803D01*
X0218701Y0130539D01*
X0219185Y0129371D01*
X0218701Y0130809D02*
X0198995Y0130809D01*
X0200381Y0129211D02*
X0203318Y0129211D01*
X0203149Y0129141D02*
X0202255Y0128247D01*
X0201772Y0127079D01*
X0201772Y0125815D01*
X0202255Y0124647D01*
X0203149Y0123753D01*
X0204317Y0123269D01*
X0205582Y0123269D01*
X0206750Y0123753D01*
X0207644Y0124647D01*
X0208128Y0125815D01*
X0208128Y0127079D01*
X0207644Y0128247D01*
X0206750Y0129141D01*
X0205582Y0129625D01*
X0204317Y0129625D01*
X0203149Y0129141D01*
X0201992Y0127612D02*
X0201377Y0127612D01*
X0201354Y0126014D02*
X0201772Y0126014D01*
X0202487Y0124415D02*
X0200326Y0124415D01*
X0198578Y0122817D02*
X0243231Y0122817D01*
X0243633Y0122414D02*
X0245177Y0121774D01*
X0246848Y0121774D01*
X0248392Y0122414D01*
X0249573Y0123595D01*
X0250213Y0125139D01*
X0250213Y0126810D01*
X0249573Y0128354D01*
X0248392Y0129535D01*
X0246848Y0130174D01*
X0245177Y0130174D01*
X0243633Y0129535D01*
X0242452Y0128354D01*
X0241813Y0126810D01*
X0241813Y0125139D01*
X0242452Y0123595D01*
X0243633Y0122414D01*
X0242112Y0124415D02*
X0223771Y0124415D01*
X0225207Y0126014D02*
X0241813Y0126014D01*
X0242145Y0127612D02*
X0225450Y0127612D01*
X0224790Y0129211D02*
X0243309Y0129211D01*
X0245177Y0131774D02*
X0246848Y0131774D01*
X0248392Y0132414D01*
X0249573Y0133595D01*
X0250213Y0135139D01*
X0250213Y0136810D01*
X0249573Y0138354D01*
X0248392Y0139535D01*
X0246848Y0140174D01*
X0245177Y0140174D01*
X0243633Y0139535D01*
X0242452Y0138354D01*
X0241813Y0136810D01*
X0241813Y0135139D01*
X0242452Y0133595D01*
X0243633Y0132414D01*
X0245177Y0131774D01*
X0243648Y0132408D02*
X0224806Y0132408D01*
X0225057Y0130809D02*
X0327209Y0130809D01*
X0326969Y0130229D02*
X0327452Y0131397D01*
X0328346Y0132291D01*
X0328937Y0132535D01*
X0328937Y0132984D01*
X0329421Y0134153D01*
X0330315Y0135046D01*
X0331483Y0135530D01*
X0332747Y0135530D01*
X0333915Y0135046D01*
X0334809Y0134153D01*
X0335293Y0132984D01*
X0335293Y0131720D01*
X0334809Y0130552D01*
X0334417Y0130160D01*
X0335026Y0130412D01*
X0336290Y0130412D01*
X0336861Y0130176D01*
X0337401Y0130716D01*
X0338569Y0131200D01*
X0339575Y0131200D01*
X0339657Y0131397D01*
X0340551Y0132291D01*
X0341719Y0132774D01*
X0342983Y0132774D01*
X0344151Y0132291D01*
X0344854Y0131587D01*
X0344869Y0131593D01*
X0346133Y0131593D01*
X0347301Y0131109D01*
X0348195Y0130216D01*
X0348679Y0129047D01*
X0348679Y0127783D01*
X0348195Y0126615D01*
X0347301Y0125721D01*
X0346133Y0125237D01*
X0344869Y0125237D01*
X0343701Y0125721D01*
X0342997Y0126424D01*
X0342983Y0126419D01*
X0341977Y0126419D01*
X0341896Y0126221D01*
X0341756Y0126081D01*
X0342590Y0126081D01*
X0343758Y0125598D01*
X0344652Y0124704D01*
X0345135Y0123536D01*
X0345135Y0122271D01*
X0344652Y0121103D01*
X0343758Y0120209D01*
X0342590Y0119726D01*
X0341325Y0119726D01*
X0340157Y0120209D01*
X0339263Y0121103D01*
X0338780Y0122271D01*
X0338780Y0123536D01*
X0339263Y0124704D01*
X0339403Y0124844D01*
X0338569Y0124844D01*
X0337998Y0125080D01*
X0337458Y0124540D01*
X0336290Y0124056D01*
X0335026Y0124056D01*
X0334455Y0124293D01*
X0333915Y0123753D01*
X0332747Y0123269D01*
X0331483Y0123269D01*
X0330315Y0123753D01*
X0330231Y0123836D01*
X0329538Y0123549D01*
X0329538Y0122515D01*
X0329054Y0121347D01*
X0328160Y0120453D01*
X0326992Y0119969D01*
X0325728Y0119969D01*
X0324560Y0120453D01*
X0323666Y0121347D01*
X0323182Y0122515D01*
X0323182Y0123779D01*
X0323666Y0124947D01*
X0324560Y0125841D01*
X0325294Y0126145D01*
X0325294Y0127179D01*
X0325778Y0128347D01*
X0326671Y0129241D01*
X0326969Y0129364D01*
X0326969Y0130229D01*
X0326641Y0129211D02*
X0278716Y0129211D01*
X0278392Y0129535D02*
X0276848Y0130174D01*
X0275177Y0130174D01*
X0273633Y0129535D01*
X0272452Y0128354D01*
X0271813Y0126810D01*
X0271813Y0125139D01*
X0272452Y0123595D01*
X0273633Y0122414D01*
X0275177Y0121774D01*
X0276848Y0121774D01*
X0278392Y0122414D01*
X0279573Y0123595D01*
X0280213Y0125139D01*
X0280213Y0126810D01*
X0279573Y0128354D01*
X0278392Y0129535D01*
X0279880Y0127612D02*
X0325473Y0127612D01*
X0324976Y0126014D02*
X0280213Y0126014D01*
X0279913Y0124415D02*
X0281655Y0124415D01*
X0281877Y0124507D02*
X0280708Y0124023D01*
X0279815Y0123129D01*
X0279331Y0121961D01*
X0279331Y0120697D01*
X0279815Y0119529D01*
X0280708Y0118635D01*
X0281877Y0118151D01*
X0283141Y0118151D01*
X0284309Y0118635D01*
X0285203Y0119529D01*
X0285223Y0119577D01*
X0285814Y0119332D01*
X0287078Y0119332D01*
X0288246Y0119816D01*
X0289140Y0120710D01*
X0289624Y0121878D01*
X0289624Y0123142D01*
X0289140Y0124310D01*
X0288246Y0125204D01*
X0287078Y0125688D01*
X0285814Y0125688D01*
X0284645Y0125204D01*
X0283752Y0124310D01*
X0283732Y0124262D01*
X0283141Y0124507D01*
X0281877Y0124507D01*
X0283362Y0124415D02*
X0283857Y0124415D01*
X0279685Y0122817D02*
X0278794Y0122817D01*
X0279331Y0121218D02*
X0263246Y0121218D01*
X0263246Y0121567D02*
X0262762Y0122735D01*
X0261868Y0123629D01*
X0260700Y0124113D01*
X0259436Y0124113D01*
X0258268Y0123629D01*
X0257374Y0122735D01*
X0256890Y0121567D01*
X0256890Y0120303D01*
X0257374Y0119135D01*
X0258268Y0118241D01*
X0259436Y0117757D01*
X0260700Y0117757D01*
X0261868Y0118241D01*
X0262762Y0119135D01*
X0263246Y0120303D01*
X0263246Y0121567D01*
X0262680Y0122817D02*
X0273231Y0122817D01*
X0272112Y0124415D02*
X0249913Y0124415D01*
X0250213Y0126014D02*
X0271813Y0126014D01*
X0272145Y0127612D02*
X0249880Y0127612D01*
X0248716Y0129211D02*
X0273309Y0129211D01*
X0275177Y0131774D02*
X0276848Y0131774D01*
X0278392Y0132414D01*
X0279573Y0133595D01*
X0280213Y0135139D01*
X0280213Y0136810D01*
X0279573Y0138354D01*
X0278392Y0139535D01*
X0276848Y0140174D01*
X0275177Y0140174D01*
X0273633Y0139535D01*
X0272452Y0138354D01*
X0271813Y0136810D01*
X0271813Y0135139D01*
X0272452Y0133595D01*
X0273633Y0132414D01*
X0275177Y0131774D01*
X0273648Y0132408D02*
X0248377Y0132408D01*
X0249743Y0134006D02*
X0272282Y0134006D01*
X0271813Y0135605D02*
X0250213Y0135605D01*
X0250050Y0137203D02*
X0271976Y0137203D01*
X0272900Y0138802D02*
X0249125Y0138802D01*
X0242900Y0138802D02*
X0212456Y0138802D01*
X0212322Y0140400D02*
X0324694Y0140400D01*
X0324696Y0140395D02*
X0325590Y0139501D01*
X0326758Y0139017D01*
X0328023Y0139017D01*
X0329191Y0139501D01*
X0330085Y0140395D01*
X0330568Y0141563D01*
X0330568Y0142776D01*
X0331089Y0142560D01*
X0332353Y0142560D01*
X0332570Y0142650D01*
X0332480Y0142433D01*
X0332480Y0141169D01*
X0332964Y0140001D01*
X0333858Y0139107D01*
X0335026Y0138623D01*
X0336290Y0138623D01*
X0337458Y0139107D01*
X0338352Y0140001D01*
X0338836Y0141169D01*
X0338836Y0142433D01*
X0338352Y0143601D01*
X0338184Y0143770D01*
X0338352Y0143938D01*
X0338836Y0145106D01*
X0338836Y0146370D01*
X0338352Y0147538D01*
X0337458Y0148432D01*
X0336290Y0148916D01*
X0335026Y0148916D01*
X0333858Y0148432D01*
X0333690Y0148264D01*
X0333521Y0148432D01*
X0332353Y0148916D01*
X0331089Y0148916D01*
X0329921Y0148432D01*
X0329027Y0147538D01*
X0328543Y0146370D01*
X0328543Y0145157D01*
X0328023Y0145373D01*
X0326758Y0145373D01*
X0325590Y0144889D01*
X0324696Y0143995D01*
X0324213Y0142827D01*
X0324213Y0141563D01*
X0324696Y0140395D01*
X0324213Y0141999D02*
X0277390Y0141999D01*
X0276848Y0141774D02*
X0278392Y0142414D01*
X0279573Y0143595D01*
X0280213Y0145139D01*
X0280213Y0146810D01*
X0279573Y0148354D01*
X0278392Y0149535D01*
X0276848Y0150174D01*
X0275177Y0150174D01*
X0273633Y0149535D01*
X0272452Y0148354D01*
X0271813Y0146810D01*
X0271813Y0145139D01*
X0272452Y0143595D01*
X0273633Y0142414D01*
X0275177Y0141774D01*
X0276848Y0141774D01*
X0274636Y0141999D02*
X0247390Y0141999D01*
X0246848Y0141774D02*
X0248392Y0142414D01*
X0249573Y0143595D01*
X0250213Y0145139D01*
X0250213Y0146810D01*
X0249573Y0148354D01*
X0248392Y0149535D01*
X0246848Y0150174D01*
X0245177Y0150174D01*
X0243633Y0149535D01*
X0242452Y0148354D01*
X0241813Y0146810D01*
X0241813Y0145139D01*
X0242452Y0143595D01*
X0243633Y0142414D01*
X0245177Y0141774D01*
X0246848Y0141774D01*
X0244636Y0141999D02*
X0212937Y0141999D01*
X0213246Y0143597D02*
X0242451Y0143597D01*
X0241813Y0145196D02*
X0212742Y0145196D01*
X0207393Y0145196D02*
X0206821Y0145196D01*
X0206890Y0143597D02*
X0205728Y0143597D01*
X0204439Y0141999D02*
X0207198Y0141999D01*
X0206239Y0140400D02*
X0203319Y0140400D01*
X0196691Y0143597D02*
X0196279Y0143597D01*
X0195766Y0148393D02*
X0197204Y0148393D01*
X0200884Y0148393D02*
X0201535Y0148393D01*
X0206002Y0148393D02*
X0242491Y0148393D01*
X0241813Y0146794D02*
X0206934Y0146794D01*
X0207157Y0153584D02*
X0208325Y0154068D01*
X0209219Y0154962D01*
X0209702Y0156130D01*
X0209702Y0157394D01*
X0209219Y0158562D01*
X0208325Y0159456D01*
X0207157Y0159940D01*
X0205892Y0159940D01*
X0204724Y0159456D01*
X0203830Y0158562D01*
X0203346Y0157394D01*
X0203346Y0156130D01*
X0203830Y0154962D01*
X0204724Y0154068D01*
X0205892Y0153584D01*
X0207157Y0153584D01*
X0209044Y0154787D02*
X0344028Y0154787D01*
X0344081Y0154765D02*
X0345346Y0154765D01*
X0346514Y0155249D01*
X0347408Y0156143D01*
X0347891Y0157311D01*
X0347891Y0158575D01*
X0347408Y0159743D01*
X0346514Y0160637D01*
X0345346Y0161121D01*
X0344081Y0161121D01*
X0342913Y0160637D01*
X0342019Y0159743D01*
X0341535Y0158575D01*
X0341535Y0157311D01*
X0342019Y0156143D01*
X0342913Y0155249D01*
X0344081Y0154765D01*
X0345398Y0154787D02*
X0351833Y0154787D01*
X0351772Y0154638D02*
X0351772Y0153374D01*
X0352255Y0152206D01*
X0353149Y0151312D01*
X0354317Y0150828D01*
X0355582Y0150828D01*
X0356750Y0151312D01*
X0357644Y0152206D01*
X0358128Y0153374D01*
X0358128Y0154638D01*
X0357644Y0155806D01*
X0356750Y0156700D01*
X0355582Y0157184D01*
X0354317Y0157184D01*
X0353149Y0156700D01*
X0352255Y0155806D01*
X0351772Y0154638D01*
X0351848Y0153188D02*
X0198260Y0153188D01*
X0198482Y0153280D02*
X0199376Y0154174D01*
X0199860Y0155342D01*
X0199860Y0156607D01*
X0199376Y0157775D01*
X0198482Y0158669D01*
X0197314Y0159152D01*
X0196050Y0159152D01*
X0194882Y0158669D01*
X0193988Y0157775D01*
X0193504Y0156607D01*
X0193504Y0155342D01*
X0193988Y0154174D01*
X0194882Y0153280D01*
X0196050Y0152796D01*
X0197314Y0152796D01*
X0198482Y0153280D01*
X0199630Y0154787D02*
X0204005Y0154787D01*
X0203346Y0156385D02*
X0199860Y0156385D01*
X0199167Y0157984D02*
X0203591Y0157984D01*
X0205029Y0159582D02*
X0160215Y0159582D01*
X0160976Y0159897D02*
X0159211Y0159167D01*
X0157302Y0159167D01*
X0155538Y0159897D01*
X0154187Y0161248D01*
X0153457Y0163012D01*
X0153457Y0164921D01*
X0154187Y0166686D01*
X0155538Y0168036D01*
X0157302Y0168767D01*
X0159211Y0168767D01*
X0160976Y0168036D01*
X0162326Y0166686D01*
X0163057Y0164921D01*
X0163057Y0163012D01*
X0162326Y0161248D01*
X0160976Y0159897D01*
X0162259Y0161181D02*
X0204624Y0161181D01*
X0203996Y0161441D02*
X0205381Y0160867D01*
X0206880Y0160867D01*
X0208265Y0161441D01*
X0209325Y0162501D01*
X0209899Y0163886D01*
X0209899Y0165385D01*
X0209325Y0166771D01*
X0208265Y0167831D01*
X0206880Y0168404D01*
X0205381Y0168404D01*
X0203996Y0167831D01*
X0202936Y0166771D01*
X0202362Y0165385D01*
X0202362Y0163886D01*
X0202936Y0162501D01*
X0203996Y0161441D01*
X0202821Y0162779D02*
X0162960Y0162779D01*
X0163057Y0164378D02*
X0202362Y0164378D01*
X0202607Y0165976D02*
X0162620Y0165976D01*
X0161437Y0167575D02*
X0203740Y0167575D01*
X0208521Y0167575D02*
X0266893Y0167575D01*
X0266528Y0166693D02*
X0266528Y0164783D01*
X0267258Y0163019D01*
X0268609Y0161669D01*
X0270373Y0160938D01*
X0272282Y0160938D01*
X0274047Y0161669D01*
X0275397Y0163019D01*
X0276128Y0164783D01*
X0276128Y0166693D01*
X0275397Y0168457D01*
X0274047Y0169807D01*
X0272282Y0170538D01*
X0270373Y0170538D01*
X0268609Y0169807D01*
X0267258Y0168457D01*
X0266528Y0166693D01*
X0266528Y0165976D02*
X0209654Y0165976D01*
X0209899Y0164378D02*
X0229465Y0164378D01*
X0229645Y0164452D02*
X0228477Y0163969D01*
X0227583Y0163075D01*
X0227099Y0161907D01*
X0227099Y0160642D01*
X0227583Y0159474D01*
X0228477Y0158580D01*
X0229645Y0158096D01*
X0230909Y0158096D01*
X0232077Y0158580D01*
X0232971Y0159474D01*
X0233455Y0160642D01*
X0233455Y0161907D01*
X0232971Y0163075D01*
X0232077Y0163969D01*
X0230909Y0164452D01*
X0229645Y0164452D01*
X0231089Y0164378D02*
X0250083Y0164378D01*
X0249606Y0164180D02*
X0248712Y0163286D01*
X0248228Y0162118D01*
X0248228Y0160854D01*
X0248712Y0159686D01*
X0249606Y0158792D01*
X0250774Y0158308D01*
X0252038Y0158308D01*
X0253206Y0158792D01*
X0254100Y0159686D01*
X0254584Y0160854D01*
X0254584Y0162118D01*
X0254100Y0163286D01*
X0253206Y0164180D01*
X0252038Y0164664D01*
X0250774Y0164664D01*
X0249606Y0164180D01*
X0248502Y0162779D02*
X0233094Y0162779D01*
X0233455Y0161181D02*
X0248228Y0161181D01*
X0248816Y0159582D02*
X0233016Y0159582D01*
X0227538Y0159582D02*
X0208019Y0159582D01*
X0207637Y0161181D02*
X0227099Y0161181D01*
X0227461Y0162779D02*
X0209441Y0162779D01*
X0209458Y0157984D02*
X0341535Y0157984D01*
X0341919Y0156385D02*
X0209702Y0156385D01*
X0195104Y0153188D02*
X0188049Y0153188D01*
X0188049Y0153457D02*
X0187565Y0154625D01*
X0186671Y0155519D01*
X0185503Y0156003D01*
X0184239Y0156003D01*
X0183071Y0155519D01*
X0182177Y0154625D01*
X0181693Y0153457D01*
X0181693Y0152193D01*
X0182177Y0151025D01*
X0183071Y0150131D01*
X0184239Y0149647D01*
X0185503Y0149647D01*
X0186671Y0150131D01*
X0187565Y0151025D01*
X0188049Y0152193D01*
X0188049Y0153457D01*
X0187403Y0154787D02*
X0193734Y0154787D01*
X0193504Y0156385D02*
X0105175Y0156385D01*
X0105175Y0156012D02*
X0104601Y0154627D01*
X0103541Y0153567D01*
X0102156Y0152993D01*
X0100657Y0152993D01*
X0099272Y0153567D01*
X0098212Y0154627D01*
X0097638Y0156012D01*
X0097638Y0157511D01*
X0098212Y0158896D01*
X0099272Y0159957D01*
X0100657Y0160530D01*
X0102156Y0160530D01*
X0103541Y0159957D01*
X0104601Y0158896D01*
X0105175Y0157511D01*
X0105175Y0156012D01*
X0104667Y0154787D02*
X0127614Y0154787D01*
X0127953Y0155125D02*
X0127059Y0154231D01*
X0126575Y0153063D01*
X0126575Y0151799D01*
X0127059Y0150631D01*
X0127953Y0149737D01*
X0129121Y0149253D01*
X0130385Y0149253D01*
X0131553Y0149737D01*
X0132447Y0150631D01*
X0132931Y0151799D01*
X0132931Y0153063D01*
X0132447Y0154231D01*
X0131553Y0155125D01*
X0130385Y0155609D01*
X0129121Y0155609D01*
X0127953Y0155125D01*
X0126627Y0153188D02*
X0102627Y0153188D01*
X0100186Y0153188D02*
X0090881Y0153188D01*
X0090661Y0152968D02*
X0092011Y0154318D01*
X0092742Y0156083D01*
X0092742Y0157992D01*
X0092011Y0159756D01*
X0090661Y0161107D01*
X0088897Y0161837D01*
X0086987Y0161837D01*
X0085223Y0161107D01*
X0083872Y0159756D01*
X0083142Y0157992D01*
X0083142Y0156083D01*
X0083872Y0154318D01*
X0085223Y0152968D01*
X0086987Y0152237D01*
X0088897Y0152237D01*
X0090661Y0152968D01*
X0089784Y0151486D02*
X0089066Y0151719D01*
X0088320Y0151837D01*
X0088142Y0151837D01*
X0088142Y0147237D01*
X0092742Y0147237D01*
X0092742Y0147415D01*
X0092624Y0148161D01*
X0092390Y0148880D01*
X0092047Y0149553D01*
X0091603Y0150164D01*
X0091069Y0150699D01*
X0090457Y0151143D01*
X0089784Y0151486D01*
X0089464Y0151590D02*
X0126661Y0151590D01*
X0127698Y0149991D02*
X0091729Y0149991D01*
X0092548Y0148393D02*
X0136658Y0148393D01*
X0136260Y0146794D02*
X0092742Y0146794D01*
X0092742Y0146837D02*
X0088142Y0146837D01*
X0088142Y0147237D01*
X0087742Y0147237D01*
X0087742Y0146837D01*
X0088142Y0146837D01*
X0088142Y0142237D01*
X0088320Y0142237D01*
X0089066Y0142356D01*
X0089784Y0142589D01*
X0090457Y0142932D01*
X0091069Y0143376D01*
X0091603Y0143910D01*
X0092047Y0144522D01*
X0092390Y0145195D01*
X0092624Y0145913D01*
X0092742Y0146660D01*
X0092742Y0146837D01*
X0092390Y0145196D02*
X0136403Y0145196D01*
X0137180Y0143597D02*
X0091290Y0143597D01*
X0088142Y0143597D02*
X0087742Y0143597D01*
X0087742Y0142237D02*
X0087742Y0146837D01*
X0083142Y0146837D01*
X0083142Y0146660D01*
X0083260Y0145913D01*
X0083493Y0145195D01*
X0083836Y0144522D01*
X0084280Y0143910D01*
X0084815Y0143376D01*
X0085426Y0142932D01*
X0086099Y0142589D01*
X0086818Y0142356D01*
X0087564Y0142237D01*
X0087742Y0142237D01*
X0087742Y0145196D02*
X0088142Y0145196D01*
X0088142Y0146794D02*
X0087742Y0146794D01*
X0087742Y0147237D02*
X0083142Y0147237D01*
X0083142Y0147415D01*
X0083260Y0148161D01*
X0083493Y0148880D01*
X0083836Y0149553D01*
X0084280Y0150164D01*
X0084815Y0150699D01*
X0085426Y0151143D01*
X0086099Y0151486D01*
X0086818Y0151719D01*
X0087564Y0151837D01*
X0087742Y0151837D01*
X0087742Y0147237D01*
X0087742Y0148393D02*
X0088142Y0148393D01*
X0088142Y0149991D02*
X0087742Y0149991D01*
X0087742Y0151590D02*
X0088142Y0151590D01*
X0086419Y0151590D02*
X0079464Y0151590D01*
X0079784Y0151486D02*
X0079066Y0151719D01*
X0078320Y0151837D01*
X0078142Y0151837D01*
X0078142Y0147237D01*
X0082742Y0147237D01*
X0082742Y0147415D01*
X0082624Y0148161D01*
X0082390Y0148880D01*
X0082047Y0149553D01*
X0081603Y0150164D01*
X0081069Y0150699D01*
X0080457Y0151143D01*
X0079784Y0151486D01*
X0078897Y0152237D02*
X0080661Y0152968D01*
X0082011Y0154318D01*
X0082742Y0156083D01*
X0082742Y0157992D01*
X0082011Y0159756D01*
X0080661Y0161107D01*
X0078897Y0161837D01*
X0076987Y0161837D01*
X0075223Y0161107D01*
X0073872Y0159756D01*
X0073142Y0157992D01*
X0073142Y0156083D01*
X0073872Y0154318D01*
X0075223Y0152968D01*
X0076987Y0152237D01*
X0078897Y0152237D01*
X0078142Y0151590D02*
X0077742Y0151590D01*
X0077742Y0151837D02*
X0077564Y0151837D01*
X0076818Y0151719D01*
X0076099Y0151486D01*
X0075426Y0151143D01*
X0074815Y0150699D01*
X0074280Y0150164D01*
X0073836Y0149553D01*
X0073493Y0148880D01*
X0073260Y0148161D01*
X0073142Y0147415D01*
X0073142Y0147237D01*
X0077742Y0147237D01*
X0077742Y0146837D01*
X0078142Y0146837D01*
X0078142Y0147237D01*
X0077742Y0147237D01*
X0077742Y0151837D01*
X0076419Y0151590D02*
X0069464Y0151590D01*
X0069784Y0151486D02*
X0069066Y0151719D01*
X0068320Y0151837D01*
X0068142Y0151837D01*
X0068142Y0147237D01*
X0072742Y0147237D01*
X0072742Y0147415D01*
X0072624Y0148161D01*
X0072390Y0148880D01*
X0072047Y0149553D01*
X0071603Y0150164D01*
X0071069Y0150699D01*
X0070457Y0151143D01*
X0069784Y0151486D01*
X0068897Y0152237D02*
X0070661Y0152968D01*
X0072011Y0154318D01*
X0072742Y0156083D01*
X0072742Y0157992D01*
X0072011Y0159756D01*
X0070661Y0161107D01*
X0068897Y0161837D01*
X0066987Y0161837D01*
X0065223Y0161107D01*
X0063872Y0159756D01*
X0063142Y0157992D01*
X0063142Y0156083D01*
X0063872Y0154318D01*
X0065223Y0152968D01*
X0066987Y0152237D01*
X0068897Y0152237D01*
X0068142Y0151590D02*
X0067742Y0151590D01*
X0067742Y0151837D02*
X0067564Y0151837D01*
X0066818Y0151719D01*
X0066099Y0151486D01*
X0065426Y0151143D01*
X0064815Y0150699D01*
X0064280Y0150164D01*
X0063836Y0149553D01*
X0063493Y0148880D01*
X0063260Y0148161D01*
X0063142Y0147415D01*
X0063142Y0147237D01*
X0067742Y0147237D01*
X0067742Y0146837D01*
X0068142Y0146837D01*
X0068142Y0147237D01*
X0067742Y0147237D01*
X0067742Y0151837D01*
X0066419Y0151590D02*
X0059464Y0151590D01*
X0059784Y0151486D02*
X0059066Y0151719D01*
X0058320Y0151837D01*
X0058142Y0151837D01*
X0058142Y0147237D01*
X0062742Y0147237D01*
X0062742Y0147415D01*
X0062624Y0148161D01*
X0062390Y0148880D01*
X0062047Y0149553D01*
X0061603Y0150164D01*
X0061069Y0150699D01*
X0060457Y0151143D01*
X0059784Y0151486D01*
X0058897Y0152237D02*
X0060661Y0152968D01*
X0062011Y0154318D01*
X0062742Y0156083D01*
X0062742Y0157992D01*
X0062011Y0159756D01*
X0060661Y0161107D01*
X0058897Y0161837D01*
X0056987Y0161837D01*
X0055223Y0161107D01*
X0053872Y0159756D01*
X0053142Y0157992D01*
X0053142Y0156083D01*
X0053872Y0154318D01*
X0055223Y0152968D01*
X0056987Y0152237D01*
X0058897Y0152237D01*
X0058142Y0151590D02*
X0057742Y0151590D01*
X0057742Y0151837D02*
X0057564Y0151837D01*
X0056818Y0151719D01*
X0056099Y0151486D01*
X0055426Y0151143D01*
X0054815Y0150699D01*
X0054280Y0150164D01*
X0053836Y0149553D01*
X0053493Y0148880D01*
X0053260Y0148161D01*
X0053142Y0147415D01*
X0053142Y0147237D01*
X0057742Y0147237D01*
X0057742Y0146837D01*
X0058142Y0146837D01*
X0058142Y0147237D01*
X0057742Y0147237D01*
X0057742Y0151837D01*
X0056419Y0151590D02*
X0049464Y0151590D01*
X0048142Y0151590D02*
X0047742Y0151590D01*
X0047742Y0149991D02*
X0048142Y0149991D01*
X0048142Y0148393D02*
X0047742Y0148393D01*
X0047742Y0146794D02*
X0048142Y0146794D01*
X0048142Y0146837D02*
X0048142Y0142237D01*
X0048320Y0142237D01*
X0049066Y0142356D01*
X0049784Y0142589D01*
X0050457Y0142932D01*
X0051069Y0143376D01*
X0051603Y0143910D01*
X0052047Y0144522D01*
X0052390Y0145195D01*
X0052624Y0145913D01*
X0052742Y0146660D01*
X0052742Y0146837D01*
X0048142Y0146837D01*
X0048142Y0145196D02*
X0047742Y0145196D01*
X0047742Y0143597D02*
X0048142Y0143597D01*
X0051290Y0143597D02*
X0054594Y0143597D01*
X0054815Y0143376D02*
X0055426Y0142932D01*
X0056099Y0142589D01*
X0056818Y0142356D01*
X0057564Y0142237D01*
X0057742Y0142237D01*
X0057742Y0146837D01*
X0053142Y0146837D01*
X0053142Y0146660D01*
X0053260Y0145913D01*
X0053493Y0145195D01*
X0053836Y0144522D01*
X0054280Y0143910D01*
X0054815Y0143376D01*
X0053493Y0145196D02*
X0052390Y0145196D01*
X0052742Y0146794D02*
X0053142Y0146794D01*
X0053335Y0148393D02*
X0052548Y0148393D01*
X0051729Y0149991D02*
X0054155Y0149991D01*
X0055003Y0153188D02*
X0050881Y0153188D01*
X0052205Y0154787D02*
X0053678Y0154787D01*
X0053142Y0156385D02*
X0052742Y0156385D01*
X0052742Y0157984D02*
X0053142Y0157984D01*
X0053800Y0159582D02*
X0052083Y0159582D01*
X0050481Y0161181D02*
X0055402Y0161181D01*
X0060481Y0161181D02*
X0065402Y0161181D01*
X0063800Y0159582D02*
X0062083Y0159582D01*
X0062742Y0157984D02*
X0063142Y0157984D01*
X0063142Y0156385D02*
X0062742Y0156385D01*
X0062205Y0154787D02*
X0063678Y0154787D01*
X0065003Y0153188D02*
X0060881Y0153188D01*
X0061729Y0149991D02*
X0064155Y0149991D01*
X0063335Y0148393D02*
X0062548Y0148393D01*
X0062742Y0146837D02*
X0058142Y0146837D01*
X0058142Y0142237D01*
X0058320Y0142237D01*
X0059066Y0142356D01*
X0059784Y0142589D01*
X0060457Y0142932D01*
X0061069Y0143376D01*
X0061603Y0143910D01*
X0062047Y0144522D01*
X0062390Y0145195D01*
X0062624Y0145913D01*
X0062742Y0146660D01*
X0062742Y0146837D01*
X0062742Y0146794D02*
X0063142Y0146794D01*
X0063142Y0146837D02*
X0063142Y0146660D01*
X0063260Y0145913D01*
X0063493Y0145195D01*
X0063836Y0144522D01*
X0064280Y0143910D01*
X0064815Y0143376D01*
X0065426Y0142932D01*
X0066099Y0142589D01*
X0066818Y0142356D01*
X0067564Y0142237D01*
X0067742Y0142237D01*
X0067742Y0146837D01*
X0063142Y0146837D01*
X0063493Y0145196D02*
X0062390Y0145196D01*
X0061290Y0143597D02*
X0064594Y0143597D01*
X0067742Y0143597D02*
X0068142Y0143597D01*
X0068142Y0142237D02*
X0068320Y0142237D01*
X0069066Y0142356D01*
X0069784Y0142589D01*
X0070457Y0142932D01*
X0071069Y0143376D01*
X0071603Y0143910D01*
X0072047Y0144522D01*
X0072390Y0145195D01*
X0072624Y0145913D01*
X0072742Y0146660D01*
X0072742Y0146837D01*
X0068142Y0146837D01*
X0068142Y0142237D01*
X0068142Y0145196D02*
X0067742Y0145196D01*
X0067742Y0146794D02*
X0068142Y0146794D01*
X0068142Y0148393D02*
X0067742Y0148393D01*
X0067742Y0149991D02*
X0068142Y0149991D01*
X0071729Y0149991D02*
X0074155Y0149991D01*
X0073335Y0148393D02*
X0072548Y0148393D01*
X0072742Y0146794D02*
X0073142Y0146794D01*
X0073142Y0146837D02*
X0073142Y0146660D01*
X0073260Y0145913D01*
X0073493Y0145195D01*
X0073836Y0144522D01*
X0074280Y0143910D01*
X0074815Y0143376D01*
X0075426Y0142932D01*
X0076099Y0142589D01*
X0076818Y0142356D01*
X0077564Y0142237D01*
X0077742Y0142237D01*
X0077742Y0146837D01*
X0073142Y0146837D01*
X0073493Y0145196D02*
X0072390Y0145196D01*
X0071290Y0143597D02*
X0074594Y0143597D01*
X0077742Y0143597D02*
X0078142Y0143597D01*
X0078142Y0142237D02*
X0078320Y0142237D01*
X0079066Y0142356D01*
X0079784Y0142589D01*
X0080457Y0142932D01*
X0081069Y0143376D01*
X0081603Y0143910D01*
X0082047Y0144522D01*
X0082390Y0145195D01*
X0082624Y0145913D01*
X0082742Y0146660D01*
X0082742Y0146837D01*
X0078142Y0146837D01*
X0078142Y0142237D01*
X0078142Y0145196D02*
X0077742Y0145196D01*
X0077742Y0146794D02*
X0078142Y0146794D01*
X0078142Y0148393D02*
X0077742Y0148393D01*
X0077742Y0149991D02*
X0078142Y0149991D01*
X0081729Y0149991D02*
X0084155Y0149991D01*
X0083335Y0148393D02*
X0082548Y0148393D01*
X0082742Y0146794D02*
X0083142Y0146794D01*
X0083493Y0145196D02*
X0082390Y0145196D01*
X0081290Y0143597D02*
X0084594Y0143597D01*
X0085003Y0153188D02*
X0080881Y0153188D01*
X0082205Y0154787D02*
X0083678Y0154787D01*
X0083142Y0156385D02*
X0082742Y0156385D01*
X0082742Y0157984D02*
X0083142Y0157984D01*
X0083800Y0159582D02*
X0082083Y0159582D01*
X0080481Y0161181D02*
X0085402Y0161181D01*
X0090481Y0161181D02*
X0134254Y0161181D01*
X0134187Y0161248D02*
X0135538Y0159897D01*
X0137302Y0159167D01*
X0139211Y0159167D01*
X0140976Y0159897D01*
X0142326Y0161248D01*
X0143057Y0163012D01*
X0143057Y0164921D01*
X0142326Y0166686D01*
X0140976Y0168036D01*
X0139211Y0168767D01*
X0137302Y0168767D01*
X0135538Y0168036D01*
X0134187Y0166686D01*
X0133457Y0164921D01*
X0133457Y0163012D01*
X0134187Y0161248D01*
X0133553Y0162779D02*
X0004568Y0162779D01*
X0004568Y0161181D02*
X0012450Y0161181D01*
X0012269Y0161000D02*
X0012798Y0161529D01*
X0013403Y0161968D01*
X0014070Y0162308D01*
X0014782Y0162539D01*
X0015520Y0162656D01*
X0015710Y0162656D01*
X0015710Y0158088D01*
X0011142Y0158088D01*
X0011142Y0158278D01*
X0011259Y0159016D01*
X0011490Y0159728D01*
X0011830Y0160395D01*
X0012269Y0161000D01*
X0011443Y0159582D02*
X0004568Y0159582D01*
X0004568Y0157984D02*
X0015710Y0157984D01*
X0016079Y0157984D02*
X0021142Y0157984D01*
X0021379Y0156385D02*
X0020399Y0156385D01*
X0019499Y0154787D02*
X0022290Y0154787D01*
X0016079Y0154787D02*
X0015710Y0154787D01*
X0015710Y0156385D02*
X0016079Y0156385D01*
X0016079Y0159582D02*
X0015710Y0159582D01*
X0015710Y0161181D02*
X0016079Y0161181D01*
X0016079Y0163151D02*
X0016269Y0163151D01*
X0017007Y0163268D01*
X0017719Y0163499D01*
X0018385Y0163839D01*
X0018991Y0164278D01*
X0019520Y0164807D01*
X0019959Y0165413D01*
X0020299Y0166079D01*
X0020530Y0166791D01*
X0020647Y0167529D01*
X0020647Y0167719D01*
X0016079Y0167719D01*
X0016079Y0168088D01*
X0020647Y0168088D01*
X0020647Y0168278D01*
X0020530Y0169016D01*
X0020299Y0169728D01*
X0019959Y0170395D01*
X0019520Y0171000D01*
X0018991Y0171529D01*
X0018385Y0171968D01*
X0017719Y0172308D01*
X0017007Y0172539D01*
X0016269Y0172656D01*
X0016079Y0172656D01*
X0016079Y0168088D01*
X0015710Y0168088D01*
X0015710Y0167719D01*
X0016079Y0167719D01*
X0016079Y0163151D01*
X0015710Y0163151D02*
X0015710Y0167719D01*
X0011142Y0167719D01*
X0011142Y0167529D01*
X0011259Y0166791D01*
X0011490Y0166079D01*
X0011830Y0165413D01*
X0012269Y0164807D01*
X0012798Y0164278D01*
X0013403Y0163839D01*
X0014070Y0163499D01*
X0014782Y0163268D01*
X0015520Y0163151D01*
X0015710Y0163151D01*
X0015710Y0164378D02*
X0016079Y0164378D01*
X0016079Y0165976D02*
X0015710Y0165976D01*
X0015710Y0167575D02*
X0016079Y0167575D01*
X0015710Y0168088D02*
X0011142Y0168088D01*
X0011142Y0168278D01*
X0011259Y0169016D01*
X0011490Y0169728D01*
X0011830Y0170395D01*
X0012269Y0171000D01*
X0012798Y0171529D01*
X0013403Y0171968D01*
X0014070Y0172308D01*
X0014782Y0172539D01*
X0015520Y0172656D01*
X0015710Y0172656D01*
X0015710Y0168088D01*
X0015710Y0169173D02*
X0016079Y0169173D01*
X0016079Y0170772D02*
X0015710Y0170772D01*
X0015710Y0172370D02*
X0016079Y0172370D01*
X0016079Y0173151D02*
X0016269Y0173151D01*
X0017007Y0173268D01*
X0017719Y0173499D01*
X0018385Y0173839D01*
X0018991Y0174278D01*
X0019520Y0174807D01*
X0019959Y0175413D01*
X0020299Y0176079D01*
X0020530Y0176791D01*
X0020647Y0177529D01*
X0020647Y0177719D01*
X0016079Y0177719D01*
X0016079Y0178088D01*
X0020647Y0178088D01*
X0020647Y0178278D01*
X0020530Y0179016D01*
X0020299Y0179728D01*
X0019959Y0180395D01*
X0019520Y0181000D01*
X0018991Y0181529D01*
X0018385Y0181968D01*
X0017719Y0182308D01*
X0017007Y0182539D01*
X0016269Y0182656D01*
X0016079Y0182656D01*
X0016079Y0178088D01*
X0015710Y0178088D01*
X0015710Y0177719D01*
X0016079Y0177719D01*
X0016079Y0173151D01*
X0015710Y0173151D02*
X0015710Y0177719D01*
X0011142Y0177719D01*
X0011142Y0177529D01*
X0011259Y0176791D01*
X0011490Y0176079D01*
X0011830Y0175413D01*
X0012269Y0174807D01*
X0012798Y0174278D01*
X0013403Y0173839D01*
X0014070Y0173499D01*
X0014782Y0173268D01*
X0015520Y0173151D01*
X0015710Y0173151D01*
X0015710Y0173969D02*
X0016079Y0173969D01*
X0016079Y0175567D02*
X0015710Y0175567D01*
X0015710Y0177166D02*
X0016079Y0177166D01*
X0015710Y0178088D02*
X0011142Y0178088D01*
X0011142Y0178278D01*
X0011259Y0179016D01*
X0011490Y0179728D01*
X0011830Y0180395D01*
X0012269Y0181000D01*
X0012798Y0181529D01*
X0013403Y0181968D01*
X0014070Y0182308D01*
X0014782Y0182539D01*
X0015520Y0182656D01*
X0015710Y0182656D01*
X0015710Y0178088D01*
X0015710Y0178764D02*
X0016079Y0178764D01*
X0016079Y0180363D02*
X0015710Y0180363D01*
X0015710Y0181962D02*
X0016079Y0181962D01*
X0018395Y0181962D02*
X0023272Y0181962D01*
X0023202Y0181933D02*
X0021865Y0180596D01*
X0021142Y0178849D01*
X0021142Y0176958D01*
X0021865Y0175211D01*
X0023202Y0173874D01*
X0024949Y0173151D01*
X0026840Y0173151D01*
X0028587Y0173874D01*
X0029924Y0175211D01*
X0030647Y0176958D01*
X0030647Y0178849D01*
X0029924Y0180596D01*
X0028587Y0181933D01*
X0026840Y0182656D01*
X0024949Y0182656D01*
X0023202Y0181933D01*
X0021769Y0180363D02*
X0019975Y0180363D01*
X0020570Y0178764D02*
X0021142Y0178764D01*
X0021142Y0177166D02*
X0020590Y0177166D01*
X0020038Y0175567D02*
X0021718Y0175567D01*
X0023108Y0173969D02*
X0018565Y0173969D01*
X0017527Y0172370D02*
X0024259Y0172370D01*
X0024949Y0172656D02*
X0023202Y0171933D01*
X0021865Y0170596D01*
X0021142Y0168849D01*
X0021142Y0166958D01*
X0021865Y0165211D01*
X0023202Y0163874D01*
X0024949Y0163151D01*
X0026840Y0163151D01*
X0028587Y0163874D01*
X0029924Y0165211D01*
X0030647Y0166958D01*
X0030647Y0168849D01*
X0029924Y0170596D01*
X0028587Y0171933D01*
X0026840Y0172656D01*
X0024949Y0172656D01*
X0027530Y0172370D02*
X0046666Y0172370D01*
X0046987Y0172237D02*
X0048897Y0172237D01*
X0050661Y0172968D01*
X0052011Y0174318D01*
X0052742Y0176083D01*
X0052742Y0177992D01*
X0052011Y0179756D01*
X0050661Y0181107D01*
X0048897Y0181837D01*
X0046987Y0181837D01*
X0045223Y0181107D01*
X0043872Y0179756D01*
X0043142Y0177992D01*
X0043142Y0176083D01*
X0043872Y0174318D01*
X0045223Y0172968D01*
X0046987Y0172237D01*
X0049218Y0172370D02*
X0056666Y0172370D01*
X0056987Y0172237D02*
X0058897Y0172237D01*
X0060661Y0172968D01*
X0062011Y0174318D01*
X0062742Y0176083D01*
X0062742Y0177992D01*
X0062011Y0179756D01*
X0060661Y0181107D01*
X0058897Y0181837D01*
X0056987Y0181837D01*
X0055223Y0181107D01*
X0053872Y0179756D01*
X0053142Y0177992D01*
X0053142Y0176083D01*
X0053872Y0174318D01*
X0055223Y0172968D01*
X0056987Y0172237D01*
X0059218Y0172370D02*
X0066666Y0172370D01*
X0066987Y0172237D02*
X0068897Y0172237D01*
X0070661Y0172968D01*
X0072011Y0174318D01*
X0072742Y0176083D01*
X0072742Y0177992D01*
X0072011Y0179756D01*
X0070661Y0181107D01*
X0068897Y0181837D01*
X0066987Y0181837D01*
X0065223Y0181107D01*
X0063872Y0179756D01*
X0063142Y0177992D01*
X0063142Y0176083D01*
X0063872Y0174318D01*
X0065223Y0172968D01*
X0066987Y0172237D01*
X0069218Y0172370D02*
X0076666Y0172370D01*
X0076987Y0172237D02*
X0078897Y0172237D01*
X0080661Y0172968D01*
X0082011Y0174318D01*
X0082742Y0176083D01*
X0082742Y0177992D01*
X0082011Y0179756D01*
X0080661Y0181107D01*
X0078897Y0181837D01*
X0076987Y0181837D01*
X0075223Y0181107D01*
X0073872Y0179756D01*
X0073142Y0177992D01*
X0073142Y0176083D01*
X0073872Y0174318D01*
X0075223Y0172968D01*
X0076987Y0172237D01*
X0079218Y0172370D02*
X0086666Y0172370D01*
X0086987Y0172237D02*
X0088897Y0172237D01*
X0090661Y0172968D01*
X0092011Y0174318D01*
X0092742Y0176083D01*
X0092742Y0177992D01*
X0092011Y0179756D01*
X0090661Y0181107D01*
X0088897Y0181837D01*
X0086987Y0181837D01*
X0085223Y0181107D01*
X0083872Y0179756D01*
X0083142Y0177992D01*
X0083142Y0176083D01*
X0083872Y0174318D01*
X0085223Y0172968D01*
X0086987Y0172237D01*
X0089218Y0172370D02*
X0133722Y0172370D01*
X0133457Y0173012D02*
X0134187Y0171248D01*
X0135538Y0169897D01*
X0137302Y0169167D01*
X0139211Y0169167D01*
X0140976Y0169897D01*
X0142326Y0171248D01*
X0143057Y0173012D01*
X0143057Y0174921D01*
X0142326Y0176686D01*
X0140976Y0178036D01*
X0139211Y0178767D01*
X0137302Y0178767D01*
X0135538Y0178036D01*
X0134187Y0176686D01*
X0133457Y0174921D01*
X0133457Y0173012D01*
X0133457Y0173969D02*
X0091662Y0173969D01*
X0092528Y0175567D02*
X0133724Y0175567D01*
X0134668Y0177166D02*
X0092742Y0177166D01*
X0092422Y0178764D02*
X0137297Y0178764D01*
X0139216Y0178764D02*
X0147297Y0178764D01*
X0147302Y0178767D02*
X0145538Y0178036D01*
X0144187Y0176686D01*
X0143457Y0174921D01*
X0143457Y0173012D01*
X0144187Y0171248D01*
X0145538Y0169897D01*
X0147302Y0169167D01*
X0149211Y0169167D01*
X0150976Y0169897D01*
X0152326Y0171248D01*
X0153057Y0173012D01*
X0153057Y0174921D01*
X0152326Y0176686D01*
X0150976Y0178036D01*
X0149211Y0178767D01*
X0147302Y0178767D01*
X0149216Y0178764D02*
X0157297Y0178764D01*
X0157302Y0178767D02*
X0155538Y0178036D01*
X0154187Y0176686D01*
X0153457Y0174921D01*
X0153457Y0173012D01*
X0154187Y0171248D01*
X0155538Y0169897D01*
X0157302Y0169167D01*
X0159211Y0169167D01*
X0160976Y0169897D01*
X0162326Y0171248D01*
X0163057Y0173012D01*
X0163057Y0174921D01*
X0162326Y0176686D01*
X0160976Y0178036D01*
X0159211Y0178767D01*
X0157302Y0178767D01*
X0159216Y0178764D02*
X0173819Y0178764D01*
X0173819Y0179047D02*
X0173819Y0177783D01*
X0174303Y0176615D01*
X0175197Y0175721D01*
X0176365Y0175237D01*
X0177629Y0175237D01*
X0178797Y0175721D01*
X0179691Y0176615D01*
X0180175Y0177783D01*
X0180175Y0179047D01*
X0179691Y0180216D01*
X0178797Y0181109D01*
X0177629Y0181593D01*
X0176365Y0181593D01*
X0175197Y0181109D01*
X0174303Y0180216D01*
X0173819Y0179047D01*
X0174450Y0180363D02*
X0120856Y0180363D01*
X0121539Y0180646D02*
X0119793Y0179922D01*
X0117902Y0179922D01*
X0116155Y0180646D01*
X0114818Y0181983D01*
X0114094Y0183730D01*
X0114094Y0185621D01*
X0114818Y0187367D01*
X0116155Y0188704D01*
X0117902Y0189428D01*
X0119793Y0189428D01*
X0121539Y0188704D01*
X0122876Y0187367D01*
X0123600Y0185621D01*
X0123600Y0183730D01*
X0122876Y0181983D01*
X0121539Y0180646D01*
X0122855Y0181962D02*
X0182152Y0181962D01*
X0182087Y0181803D02*
X0182087Y0180539D01*
X0182570Y0179371D01*
X0183464Y0178477D01*
X0184632Y0177993D01*
X0185897Y0177993D01*
X0187065Y0178477D01*
X0187959Y0179371D01*
X0188443Y0180539D01*
X0188443Y0181776D01*
X0189033Y0182020D01*
X0189927Y0182914D01*
X0190411Y0184082D01*
X0190411Y0185347D01*
X0189927Y0186515D01*
X0189033Y0187409D01*
X0187865Y0187893D01*
X0186601Y0187893D01*
X0185433Y0187409D01*
X0184539Y0186515D01*
X0184055Y0185347D01*
X0184055Y0184110D01*
X0183464Y0183865D01*
X0182570Y0182971D01*
X0182087Y0181803D01*
X0182160Y0180363D02*
X0179543Y0180363D01*
X0180175Y0178764D02*
X0183177Y0178764D01*
X0179919Y0177166D02*
X0256926Y0177166D01*
X0256890Y0177079D02*
X0256890Y0175815D01*
X0257374Y0174647D01*
X0258268Y0173753D01*
X0259436Y0173269D01*
X0260700Y0173269D01*
X0261868Y0173753D01*
X0262762Y0174647D01*
X0263246Y0175815D01*
X0263246Y0177079D01*
X0262762Y0178247D01*
X0261868Y0179141D01*
X0260700Y0179625D01*
X0259436Y0179625D01*
X0258268Y0179141D01*
X0257374Y0178247D01*
X0256890Y0177079D01*
X0256992Y0175567D02*
X0243171Y0175567D01*
X0243541Y0175197D02*
X0242647Y0176091D01*
X0241479Y0176575D01*
X0240215Y0176575D01*
X0239047Y0176091D01*
X0238153Y0175197D01*
X0237669Y0174029D01*
X0237669Y0172765D01*
X0238153Y0171597D01*
X0239047Y0170703D01*
X0240215Y0170219D01*
X0241479Y0170219D01*
X0242647Y0170703D01*
X0243541Y0171597D01*
X0244025Y0172765D01*
X0244025Y0174029D01*
X0243541Y0175197D01*
X0244025Y0173969D02*
X0258051Y0173969D01*
X0262084Y0173969D02*
X0266865Y0173969D01*
X0266528Y0174783D02*
X0267258Y0173019D01*
X0268609Y0171669D01*
X0270373Y0170938D01*
X0272282Y0170938D01*
X0274047Y0171669D01*
X0275397Y0173019D01*
X0276128Y0174783D01*
X0276128Y0176693D01*
X0275397Y0178457D01*
X0274047Y0179807D01*
X0272282Y0180538D01*
X0270373Y0180538D01*
X0268609Y0179807D01*
X0267258Y0178457D01*
X0266528Y0176693D01*
X0266528Y0174783D01*
X0266528Y0175567D02*
X0263143Y0175567D01*
X0263210Y0177166D02*
X0266723Y0177166D01*
X0267566Y0178764D02*
X0262244Y0178764D01*
X0257891Y0178764D02*
X0187352Y0178764D01*
X0188370Y0180363D02*
X0269950Y0180363D01*
X0272705Y0180363D02*
X0279950Y0180363D01*
X0280373Y0180538D02*
X0278609Y0179807D01*
X0277258Y0178457D01*
X0276528Y0176693D01*
X0276528Y0174783D01*
X0277258Y0173019D01*
X0278609Y0171669D01*
X0280373Y0170938D01*
X0282282Y0170938D01*
X0284047Y0171669D01*
X0285397Y0173019D01*
X0286128Y0174783D01*
X0286128Y0176693D01*
X0285397Y0178457D01*
X0284047Y0179807D01*
X0282282Y0180538D01*
X0280373Y0180538D01*
X0282705Y0180363D02*
X0289950Y0180363D01*
X0290373Y0180538D02*
X0288609Y0179807D01*
X0287258Y0178457D01*
X0286528Y0176693D01*
X0286528Y0174783D01*
X0287258Y0173019D01*
X0288609Y0171669D01*
X0290373Y0170938D01*
X0292282Y0170938D01*
X0294047Y0171669D01*
X0295397Y0173019D01*
X0296128Y0174783D01*
X0296128Y0176693D01*
X0295397Y0178457D01*
X0294047Y0179807D01*
X0292282Y0180538D01*
X0290373Y0180538D01*
X0292705Y0180363D02*
X0461630Y0180363D01*
X0461630Y0178764D02*
X0295089Y0178764D01*
X0295932Y0177166D02*
X0461630Y0177166D01*
X0461630Y0175567D02*
X0296128Y0175567D01*
X0295790Y0173969D02*
X0461630Y0173969D01*
X0461630Y0172370D02*
X0294748Y0172370D01*
X0294047Y0169807D02*
X0292282Y0170538D01*
X0290373Y0170538D01*
X0288609Y0169807D01*
X0287258Y0168457D01*
X0286528Y0166693D01*
X0286528Y0164783D01*
X0287258Y0163019D01*
X0288609Y0161669D01*
X0290373Y0160938D01*
X0292282Y0160938D01*
X0294047Y0161669D01*
X0295397Y0163019D01*
X0296128Y0164783D01*
X0296128Y0166693D01*
X0295397Y0168457D01*
X0294047Y0169807D01*
X0294681Y0169173D02*
X0339985Y0169173D01*
X0339550Y0168739D02*
X0340610Y0169799D01*
X0341995Y0170373D01*
X0343494Y0170373D01*
X0344880Y0169799D01*
X0345940Y0168739D01*
X0346513Y0167354D01*
X0346513Y0165855D01*
X0345940Y0164470D01*
X0344880Y0163410D01*
X0343494Y0162836D01*
X0341995Y0162836D01*
X0340610Y0163410D01*
X0339550Y0164470D01*
X0338976Y0165855D01*
X0338976Y0167354D01*
X0339550Y0168739D01*
X0339068Y0167575D02*
X0295762Y0167575D01*
X0296128Y0165976D02*
X0338976Y0165976D01*
X0339642Y0164378D02*
X0295960Y0164378D01*
X0295157Y0162779D02*
X0364935Y0162779D01*
X0365023Y0162991D02*
X0364449Y0161606D01*
X0364449Y0160107D01*
X0365023Y0158722D01*
X0366083Y0157662D01*
X0367468Y0157088D01*
X0368967Y0157088D01*
X0370352Y0157662D01*
X0371412Y0158722D01*
X0371986Y0160107D01*
X0371986Y0161606D01*
X0371412Y0162991D01*
X0370352Y0164051D01*
X0368967Y0164625D01*
X0367468Y0164625D01*
X0366083Y0164051D01*
X0365023Y0162991D01*
X0364449Y0161181D02*
X0292868Y0161181D01*
X0289787Y0161181D02*
X0282868Y0161181D01*
X0282282Y0160938D02*
X0284047Y0161669D01*
X0285397Y0163019D01*
X0286128Y0164783D01*
X0286128Y0166693D01*
X0285397Y0168457D01*
X0284047Y0169807D01*
X0282282Y0170538D01*
X0280373Y0170538D01*
X0278609Y0169807D01*
X0277258Y0168457D01*
X0276528Y0166693D01*
X0276528Y0164783D01*
X0277258Y0163019D01*
X0278609Y0161669D01*
X0280373Y0160938D01*
X0282282Y0160938D01*
X0279787Y0161181D02*
X0272868Y0161181D01*
X0275157Y0162779D02*
X0277498Y0162779D01*
X0276696Y0164378D02*
X0275960Y0164378D01*
X0276128Y0165976D02*
X0276528Y0165976D01*
X0276893Y0167575D02*
X0275762Y0167575D01*
X0274681Y0169173D02*
X0277975Y0169173D01*
X0284681Y0169173D02*
X0287975Y0169173D01*
X0286893Y0167575D02*
X0285762Y0167575D01*
X0286128Y0165976D02*
X0286528Y0165976D01*
X0286696Y0164378D02*
X0285960Y0164378D01*
X0285157Y0162779D02*
X0287498Y0162779D01*
X0287907Y0172370D02*
X0284748Y0172370D01*
X0285790Y0173969D02*
X0286865Y0173969D01*
X0286528Y0175567D02*
X0286128Y0175567D01*
X0285932Y0177166D02*
X0286723Y0177166D01*
X0287566Y0178764D02*
X0285089Y0178764D01*
X0277566Y0178764D02*
X0275089Y0178764D01*
X0275932Y0177166D02*
X0276723Y0177166D01*
X0276528Y0175567D02*
X0276128Y0175567D01*
X0275790Y0173969D02*
X0276865Y0173969D01*
X0277907Y0172370D02*
X0274748Y0172370D01*
X0267907Y0172370D02*
X0243862Y0172370D01*
X0242716Y0170772D02*
X0461630Y0170772D01*
X0461630Y0169173D02*
X0345505Y0169173D01*
X0346422Y0167575D02*
X0461630Y0167575D01*
X0461630Y0165976D02*
X0346513Y0165976D01*
X0345848Y0164378D02*
X0366872Y0164378D01*
X0369563Y0164378D02*
X0461630Y0164378D01*
X0461630Y0162779D02*
X0371500Y0162779D01*
X0371986Y0161181D02*
X0461630Y0161181D01*
X0461630Y0159582D02*
X0371769Y0159582D01*
X0370674Y0157984D02*
X0461630Y0157984D01*
X0461630Y0156385D02*
X0413392Y0156385D01*
X0413943Y0155834D02*
X0412762Y0157015D01*
X0411218Y0157655D01*
X0409547Y0157655D01*
X0408004Y0157015D01*
X0406822Y0155834D01*
X0406183Y0154290D01*
X0406183Y0152619D01*
X0406822Y0151076D01*
X0408004Y0149894D01*
X0409547Y0149255D01*
X0411218Y0149255D01*
X0412762Y0149894D01*
X0413943Y0151076D01*
X0414583Y0152619D01*
X0414583Y0154290D01*
X0413943Y0155834D01*
X0414377Y0154787D02*
X0461630Y0154787D01*
X0461630Y0153188D02*
X0414583Y0153188D01*
X0414156Y0151590D02*
X0461630Y0151590D01*
X0461630Y0149991D02*
X0412859Y0149991D01*
X0411218Y0147655D02*
X0409547Y0147655D01*
X0408004Y0147015D01*
X0406822Y0145834D01*
X0406183Y0144290D01*
X0406183Y0142619D01*
X0406822Y0141076D01*
X0408004Y0139894D01*
X0409547Y0139255D01*
X0411218Y0139255D01*
X0412762Y0139894D01*
X0413943Y0141076D01*
X0414583Y0142619D01*
X0414583Y0144290D01*
X0413943Y0145834D01*
X0412762Y0147015D01*
X0411218Y0147655D01*
X0412983Y0146794D02*
X0461630Y0146794D01*
X0461630Y0145196D02*
X0414208Y0145196D01*
X0414583Y0143597D02*
X0461630Y0143597D01*
X0461630Y0141999D02*
X0414326Y0141999D01*
X0413268Y0140400D02*
X0461630Y0140400D01*
X0461630Y0138802D02*
X0345758Y0138802D01*
X0345923Y0139201D02*
X0345451Y0138061D01*
X0345923Y0136922D01*
X0345923Y0135657D01*
X0345439Y0134489D01*
X0344545Y0133595D01*
X0343377Y0133111D01*
X0342113Y0133111D01*
X0340945Y0133595D01*
X0340051Y0134489D01*
X0339567Y0135657D01*
X0339567Y0136922D01*
X0340039Y0138061D01*
X0339567Y0139201D01*
X0339567Y0140465D01*
X0340039Y0141604D01*
X0339567Y0142744D01*
X0339567Y0144008D01*
X0340051Y0145176D01*
X0340945Y0146070D01*
X0342113Y0146554D01*
X0343377Y0146554D01*
X0344545Y0146070D01*
X0345439Y0145176D01*
X0345923Y0144008D01*
X0345923Y0142744D01*
X0345451Y0141604D01*
X0345923Y0140465D01*
X0345923Y0139201D01*
X0345923Y0140400D02*
X0377497Y0140400D01*
X0378004Y0139894D02*
X0379547Y0139255D01*
X0381218Y0139255D01*
X0382762Y0139894D01*
X0383943Y0141076D01*
X0384583Y0142619D01*
X0384583Y0144290D01*
X0383943Y0145834D01*
X0382762Y0147015D01*
X0381218Y0147655D01*
X0379547Y0147655D01*
X0378004Y0147015D01*
X0376822Y0145834D01*
X0376183Y0144290D01*
X0376183Y0142619D01*
X0376822Y0141076D01*
X0378004Y0139894D01*
X0376440Y0141999D02*
X0345614Y0141999D01*
X0345923Y0143597D02*
X0376183Y0143597D01*
X0376558Y0145196D02*
X0345419Y0145196D01*
X0340070Y0145196D02*
X0338836Y0145196D01*
X0338661Y0146794D02*
X0377783Y0146794D01*
X0379547Y0149255D02*
X0378004Y0149894D01*
X0376822Y0151076D01*
X0376183Y0152619D01*
X0376183Y0154290D01*
X0376822Y0155834D01*
X0378004Y0157015D01*
X0379547Y0157655D01*
X0381218Y0157655D01*
X0382762Y0157015D01*
X0383943Y0155834D01*
X0384583Y0154290D01*
X0384583Y0152619D01*
X0383943Y0151076D01*
X0382762Y0149894D01*
X0381218Y0149255D01*
X0379547Y0149255D01*
X0377906Y0149991D02*
X0277290Y0149991D01*
X0274735Y0149991D02*
X0247290Y0149991D01*
X0244735Y0149991D02*
X0186335Y0149991D01*
X0187799Y0151590D02*
X0352871Y0151590D01*
X0357028Y0151590D02*
X0376609Y0151590D01*
X0376183Y0153188D02*
X0358051Y0153188D01*
X0358066Y0154787D02*
X0376388Y0154787D01*
X0377374Y0156385D02*
X0357064Y0156385D01*
X0352835Y0156385D02*
X0347508Y0156385D01*
X0347891Y0157984D02*
X0365760Y0157984D01*
X0364666Y0159582D02*
X0347474Y0159582D01*
X0341953Y0159582D02*
X0253997Y0159582D01*
X0254584Y0161181D02*
X0269787Y0161181D01*
X0267498Y0162779D02*
X0254310Y0162779D01*
X0252730Y0164378D02*
X0266696Y0164378D01*
X0267975Y0169173D02*
X0159228Y0169173D01*
X0157285Y0169173D02*
X0149228Y0169173D01*
X0149211Y0168767D02*
X0147302Y0168767D01*
X0145538Y0168036D01*
X0144187Y0166686D01*
X0143457Y0164921D01*
X0143457Y0163012D01*
X0144187Y0161248D01*
X0145538Y0159897D01*
X0147302Y0159167D01*
X0149211Y0159167D01*
X0150976Y0159897D01*
X0152326Y0161248D01*
X0153057Y0163012D01*
X0153057Y0164921D01*
X0152326Y0166686D01*
X0150976Y0168036D01*
X0149211Y0168767D01*
X0147285Y0169173D02*
X0139228Y0169173D01*
X0137285Y0169173D02*
X0030513Y0169173D01*
X0030647Y0167575D02*
X0135077Y0167575D01*
X0133894Y0165976D02*
X0030241Y0165976D01*
X0029090Y0164378D02*
X0133457Y0164378D01*
X0136298Y0159582D02*
X0103915Y0159582D01*
X0104979Y0157984D02*
X0194197Y0157984D01*
X0182339Y0154787D02*
X0131891Y0154787D01*
X0132879Y0153188D02*
X0181693Y0153188D01*
X0181943Y0151590D02*
X0157529Y0151590D01*
X0157143Y0151976D02*
X0155975Y0152459D01*
X0154711Y0152459D01*
X0153543Y0151976D01*
X0152649Y0151082D01*
X0152165Y0149914D01*
X0152165Y0148649D01*
X0152649Y0147481D01*
X0153543Y0146587D01*
X0154711Y0146104D01*
X0155975Y0146104D01*
X0157143Y0146587D01*
X0158037Y0147481D01*
X0158521Y0148649D01*
X0158521Y0149914D01*
X0158037Y0151082D01*
X0157143Y0151976D01*
X0158489Y0149991D02*
X0183407Y0149991D01*
X0187543Y0146794D02*
X0157350Y0146794D01*
X0158415Y0148393D02*
X0189438Y0148393D01*
X0191328Y0148393D02*
X0192086Y0148393D01*
X0187205Y0145196D02*
X0145622Y0145196D01*
X0145765Y0146794D02*
X0153336Y0146794D01*
X0152272Y0148393D02*
X0145367Y0148393D01*
X0144229Y0149991D02*
X0152198Y0149991D01*
X0153157Y0151590D02*
X0132844Y0151590D01*
X0131807Y0149991D02*
X0137796Y0149991D01*
X0144845Y0143597D02*
X0187667Y0143597D01*
X0211680Y0137203D02*
X0241976Y0137203D01*
X0241813Y0135605D02*
X0212458Y0135605D01*
X0212264Y0134006D02*
X0220418Y0134006D01*
X0218951Y0132408D02*
X0211065Y0132408D01*
X0207907Y0127612D02*
X0219094Y0127612D01*
X0219338Y0126014D02*
X0208128Y0126014D01*
X0207412Y0124415D02*
X0220774Y0124415D01*
X0223339Y0134006D02*
X0242282Y0134006D01*
X0249574Y0143597D02*
X0272451Y0143597D01*
X0271813Y0145196D02*
X0250213Y0145196D01*
X0250213Y0146794D02*
X0271813Y0146794D01*
X0272491Y0148393D02*
X0249534Y0148393D01*
X0279534Y0148393D02*
X0329882Y0148393D01*
X0328719Y0146794D02*
X0280213Y0146794D01*
X0280213Y0145196D02*
X0326331Y0145196D01*
X0328450Y0145196D02*
X0328543Y0145196D01*
X0330568Y0141999D02*
X0332480Y0141999D01*
X0332799Y0140400D02*
X0330087Y0140400D01*
X0334595Y0138802D02*
X0279125Y0138802D01*
X0280050Y0137203D02*
X0339684Y0137203D01*
X0339732Y0138802D02*
X0336721Y0138802D01*
X0338518Y0140400D02*
X0339567Y0140400D01*
X0339876Y0141999D02*
X0338836Y0141999D01*
X0338354Y0143597D02*
X0339567Y0143597D01*
X0337498Y0148393D02*
X0461630Y0148393D01*
X0461630Y0137203D02*
X0412308Y0137203D01*
X0412762Y0137015D02*
X0411218Y0137655D01*
X0409547Y0137655D01*
X0408004Y0137015D01*
X0406822Y0135834D01*
X0406183Y0134290D01*
X0406183Y0132619D01*
X0406822Y0131076D01*
X0408004Y0129894D01*
X0409547Y0129255D01*
X0411218Y0129255D01*
X0412762Y0129894D01*
X0413943Y0131076D01*
X0414583Y0132619D01*
X0414583Y0134290D01*
X0413943Y0135834D01*
X0412762Y0137015D01*
X0414038Y0135605D02*
X0461630Y0135605D01*
X0461630Y0134006D02*
X0414583Y0134006D01*
X0414495Y0132408D02*
X0461630Y0132408D01*
X0461630Y0130809D02*
X0413677Y0130809D01*
X0412762Y0127015D02*
X0411218Y0127655D01*
X0409547Y0127655D01*
X0408004Y0127015D01*
X0406822Y0125834D01*
X0406183Y0124290D01*
X0406183Y0122619D01*
X0406822Y0121076D01*
X0408004Y0119894D01*
X0409547Y0119255D01*
X0411218Y0119255D01*
X0412762Y0119894D01*
X0413943Y0121076D01*
X0414583Y0122619D01*
X0414583Y0124290D01*
X0413943Y0125834D01*
X0412762Y0127015D01*
X0413763Y0126014D02*
X0461630Y0126014D01*
X0461630Y0127612D02*
X0411321Y0127612D01*
X0409444Y0127612D02*
X0381321Y0127612D01*
X0381218Y0127655D02*
X0379547Y0127655D01*
X0378004Y0127015D01*
X0376822Y0125834D01*
X0376183Y0124290D01*
X0376183Y0122619D01*
X0376822Y0121076D01*
X0378004Y0119894D01*
X0379547Y0119255D01*
X0381218Y0119255D01*
X0382762Y0119894D01*
X0383943Y0121076D01*
X0384583Y0122619D01*
X0384583Y0124290D01*
X0383943Y0125834D01*
X0382762Y0127015D01*
X0381218Y0127655D01*
X0381218Y0129255D02*
X0382762Y0129894D01*
X0383943Y0131076D01*
X0384583Y0132619D01*
X0384583Y0134290D01*
X0383943Y0135834D01*
X0382762Y0137015D01*
X0381218Y0137655D01*
X0379547Y0137655D01*
X0378004Y0137015D01*
X0376822Y0135834D01*
X0376183Y0134290D01*
X0376183Y0132619D01*
X0376822Y0131076D01*
X0378004Y0129894D01*
X0379547Y0129255D01*
X0381218Y0129255D01*
X0379444Y0127612D02*
X0358247Y0127612D01*
X0358431Y0127796D02*
X0357537Y0126902D01*
X0356369Y0126419D01*
X0355105Y0126419D01*
X0353937Y0126902D01*
X0353043Y0127796D01*
X0352559Y0128964D01*
X0352559Y0130229D01*
X0353043Y0131397D01*
X0353937Y0132291D01*
X0355105Y0132774D01*
X0356369Y0132774D01*
X0357537Y0132291D01*
X0358431Y0131397D01*
X0358915Y0130229D01*
X0358915Y0128964D01*
X0358431Y0127796D01*
X0358915Y0129211D02*
X0461630Y0129211D01*
X0461630Y0124415D02*
X0414531Y0124415D01*
X0414583Y0122817D02*
X0461630Y0122817D01*
X0461630Y0121218D02*
X0414002Y0121218D01*
X0412099Y0119620D02*
X0461630Y0119620D01*
X0461630Y0118021D02*
X0358590Y0118021D01*
X0358431Y0118404D02*
X0357537Y0119298D01*
X0357388Y0119360D01*
X0357537Y0119422D01*
X0358431Y0120316D01*
X0358915Y0121484D01*
X0358915Y0122748D01*
X0358431Y0123916D01*
X0357537Y0124810D01*
X0356369Y0125294D01*
X0355105Y0125294D01*
X0353937Y0124810D01*
X0353043Y0123916D01*
X0352559Y0122748D01*
X0352559Y0121484D01*
X0353043Y0120316D01*
X0353937Y0119422D01*
X0354086Y0119360D01*
X0353937Y0119298D01*
X0353465Y0118826D01*
X0353313Y0119192D01*
X0352419Y0120086D01*
X0351251Y0120570D01*
X0349987Y0120570D01*
X0348819Y0120086D01*
X0347925Y0119192D01*
X0347441Y0118024D01*
X0347441Y0116760D01*
X0347925Y0115592D01*
X0348819Y0114698D01*
X0349987Y0114214D01*
X0351251Y0114214D01*
X0352419Y0114698D01*
X0352891Y0115170D01*
X0353043Y0114804D01*
X0353937Y0113910D01*
X0355105Y0113426D01*
X0356369Y0113426D01*
X0357537Y0113910D01*
X0358431Y0114804D01*
X0358915Y0115972D01*
X0358915Y0117236D01*
X0358431Y0118404D01*
X0357735Y0119620D02*
X0378666Y0119620D01*
X0376763Y0121218D02*
X0358805Y0121218D01*
X0358887Y0122817D02*
X0376183Y0122817D01*
X0376234Y0124415D02*
X0357932Y0124415D01*
X0353542Y0124415D02*
X0344771Y0124415D01*
X0345135Y0122817D02*
X0352587Y0122817D01*
X0352669Y0121218D02*
X0344699Y0121218D01*
X0348352Y0119620D02*
X0321480Y0119620D01*
X0321587Y0119512D02*
X0320693Y0120406D01*
X0319525Y0120890D01*
X0318261Y0120890D01*
X0317093Y0120406D01*
X0316199Y0119512D01*
X0315715Y0118344D01*
X0315715Y0117080D01*
X0316199Y0115912D01*
X0317093Y0115018D01*
X0318261Y0114534D01*
X0319525Y0114534D01*
X0320693Y0115018D01*
X0321587Y0115912D01*
X0322071Y0117080D01*
X0322071Y0118344D01*
X0321587Y0119512D01*
X0322071Y0118021D02*
X0347441Y0118021D01*
X0347581Y0116423D02*
X0321798Y0116423D01*
X0320225Y0114824D02*
X0348692Y0114824D01*
X0352545Y0114824D02*
X0353035Y0114824D01*
X0358439Y0114824D02*
X0461630Y0114824D01*
X0461630Y0113226D02*
X0310156Y0113226D01*
X0310368Y0113138D02*
X0308983Y0113711D01*
X0307483Y0113711D01*
X0306098Y0113138D01*
X0305038Y0112078D01*
X0304465Y0110693D01*
X0304465Y0109193D01*
X0305038Y0107808D01*
X0306098Y0106748D01*
X0307483Y0106174D01*
X0308983Y0106174D01*
X0310368Y0106748D01*
X0311428Y0107808D01*
X0312002Y0109193D01*
X0312002Y0110693D01*
X0311428Y0112078D01*
X0310368Y0113138D01*
X0311614Y0111627D02*
X0461630Y0111627D01*
X0461630Y0110029D02*
X0312002Y0110029D01*
X0311685Y0108430D02*
X0461630Y0108430D01*
X0461630Y0106831D02*
X0310451Y0106831D01*
X0310732Y0105877D02*
X0309838Y0104983D01*
X0309354Y0103815D01*
X0309354Y0102551D01*
X0309838Y0101383D01*
X0310732Y0100489D01*
X0311900Y0100005D01*
X0313164Y0100005D01*
X0314332Y0100489D01*
X0315226Y0101383D01*
X0315710Y0102551D01*
X0315710Y0103815D01*
X0315226Y0104983D01*
X0314332Y0105877D01*
X0313164Y0106361D01*
X0311900Y0106361D01*
X0310732Y0105877D01*
X0310088Y0105233D02*
X0178877Y0105233D01*
X0178432Y0105677D02*
X0179326Y0104783D01*
X0179810Y0103615D01*
X0179810Y0102351D01*
X0179326Y0101183D01*
X0178432Y0100289D01*
X0177264Y0099805D01*
X0176000Y0099805D01*
X0174832Y0100289D01*
X0173938Y0101183D01*
X0173454Y0102351D01*
X0173454Y0103615D01*
X0173938Y0104783D01*
X0174832Y0105677D01*
X0176000Y0106161D01*
X0177264Y0106161D01*
X0178432Y0105677D01*
X0179802Y0103634D02*
X0309354Y0103634D01*
X0309568Y0102036D02*
X0179680Y0102036D01*
X0178581Y0100437D02*
X0310856Y0100437D01*
X0314208Y0100437D02*
X0461630Y0100437D01*
X0461630Y0098839D02*
X0140186Y0098839D01*
X0140186Y0097240D02*
X0461630Y0097240D01*
X0461630Y0095642D02*
X0364071Y0095642D01*
X0363770Y0095767D02*
X0362271Y0095767D01*
X0360886Y0095193D01*
X0359826Y0094133D01*
X0359252Y0092748D01*
X0359252Y0091248D01*
X0359826Y0089863D01*
X0360886Y0088803D01*
X0362271Y0088230D01*
X0363770Y0088230D01*
X0365155Y0088803D01*
X0366215Y0089863D01*
X0366789Y0091248D01*
X0366789Y0092748D01*
X0366215Y0094133D01*
X0365155Y0095193D01*
X0363770Y0095767D01*
X0361970Y0095642D02*
X0228916Y0095642D01*
X0229525Y0095390D02*
X0228140Y0095963D01*
X0226641Y0095963D01*
X0225256Y0095390D01*
X0224196Y0094330D01*
X0223622Y0092944D01*
X0223622Y0091445D01*
X0224196Y0090060D01*
X0225256Y0089000D01*
X0226575Y0088454D01*
X0226575Y0087626D01*
X0227059Y0086458D01*
X0227953Y0085564D01*
X0229121Y0085080D01*
X0230385Y0085080D01*
X0231553Y0085564D01*
X0232447Y0086458D01*
X0232931Y0087626D01*
X0232931Y0088890D01*
X0232447Y0090058D01*
X0231553Y0090952D01*
X0231042Y0091163D01*
X0231159Y0091445D01*
X0231159Y0092944D01*
X0230585Y0094330D01*
X0229525Y0095390D01*
X0230704Y0094043D02*
X0283461Y0094043D01*
X0283363Y0093946D02*
X0282790Y0092561D01*
X0282790Y0091062D01*
X0283363Y0089677D01*
X0284424Y0088617D01*
X0285809Y0088043D01*
X0287308Y0088043D01*
X0288693Y0088617D01*
X0289753Y0089677D01*
X0290327Y0091062D01*
X0290327Y0092561D01*
X0289753Y0093946D01*
X0288693Y0095006D01*
X0287308Y0095580D01*
X0285809Y0095580D01*
X0284424Y0095006D01*
X0283363Y0093946D01*
X0282790Y0092445D02*
X0231159Y0092445D01*
X0231659Y0090846D02*
X0282879Y0090846D01*
X0283792Y0089248D02*
X0232782Y0089248D01*
X0232931Y0087649D02*
X0321304Y0087649D01*
X0321417Y0087377D02*
X0322311Y0086483D01*
X0323479Y0086000D01*
X0324743Y0086000D01*
X0325911Y0086483D01*
X0326805Y0087377D01*
X0327289Y0088545D01*
X0327289Y0089810D01*
X0326805Y0090978D01*
X0325911Y0091872D01*
X0324743Y0092355D01*
X0323479Y0092355D01*
X0322311Y0091872D01*
X0321417Y0090978D01*
X0320933Y0089810D01*
X0320933Y0088545D01*
X0321417Y0087377D01*
X0320933Y0089248D02*
X0289324Y0089248D01*
X0290238Y0090846D02*
X0321362Y0090846D01*
X0326860Y0090846D02*
X0345957Y0090846D01*
X0345563Y0090452D02*
X0345079Y0089284D01*
X0345079Y0088019D01*
X0345563Y0086851D01*
X0346457Y0085957D01*
X0347625Y0085474D01*
X0348889Y0085474D01*
X0350057Y0085957D01*
X0350951Y0086851D01*
X0351435Y0088019D01*
X0351435Y0089284D01*
X0350951Y0090452D01*
X0350057Y0091346D01*
X0348889Y0091830D01*
X0347625Y0091830D01*
X0346457Y0091346D01*
X0345563Y0090452D01*
X0345079Y0089248D02*
X0327289Y0089248D01*
X0326918Y0087649D02*
X0345232Y0087649D01*
X0346363Y0086051D02*
X0324867Y0086051D01*
X0323355Y0086051D02*
X0232040Y0086051D01*
X0227465Y0086051D02*
X0187494Y0086051D01*
X0187800Y0086358D02*
X0186906Y0085464D01*
X0185738Y0084980D01*
X0184474Y0084980D01*
X0183306Y0085464D01*
X0182412Y0086358D01*
X0181928Y0087526D01*
X0181928Y0088790D01*
X0182412Y0089958D01*
X0183306Y0090852D01*
X0184474Y0091336D01*
X0185738Y0091336D01*
X0186906Y0090852D01*
X0187800Y0089958D01*
X0188284Y0088790D01*
X0188284Y0087526D01*
X0187800Y0086358D01*
X0188284Y0087649D02*
X0226575Y0087649D01*
X0225008Y0089248D02*
X0188095Y0089248D01*
X0186912Y0090846D02*
X0223870Y0090846D01*
X0223622Y0092445D02*
X0154075Y0092445D01*
X0154075Y0092661D02*
X0153501Y0094046D01*
X0152441Y0095106D01*
X0151056Y0095680D01*
X0149557Y0095680D01*
X0148172Y0095106D01*
X0147112Y0094046D01*
X0146538Y0092661D01*
X0146538Y0091162D01*
X0147112Y0089777D01*
X0148172Y0088717D01*
X0149557Y0088143D01*
X0151056Y0088143D01*
X0152441Y0088717D01*
X0153501Y0089777D01*
X0154075Y0091162D01*
X0154075Y0092661D01*
X0153502Y0094043D02*
X0224077Y0094043D01*
X0225865Y0095642D02*
X0151148Y0095642D01*
X0149465Y0095642D02*
X0140186Y0095642D01*
X0140186Y0094043D02*
X0147110Y0094043D01*
X0146538Y0092445D02*
X0140186Y0092445D01*
X0146668Y0090846D02*
X0118926Y0090846D01*
X0118926Y0089248D02*
X0147640Y0089248D01*
X0152972Y0089248D02*
X0182118Y0089248D01*
X0181928Y0087649D02*
X0118926Y0087649D01*
X0118926Y0086051D02*
X0182719Y0086051D01*
X0175963Y0082939D02*
X0175069Y0083833D01*
X0173901Y0084317D01*
X0172637Y0084317D01*
X0171469Y0083833D01*
X0170575Y0082939D01*
X0170091Y0081771D01*
X0170091Y0080507D01*
X0170575Y0079339D01*
X0171469Y0078445D01*
X0172637Y0077961D01*
X0173901Y0077961D01*
X0175069Y0078445D01*
X0175963Y0079339D01*
X0176447Y0080507D01*
X0176447Y0081771D01*
X0175963Y0082939D01*
X0175999Y0082854D02*
X0330784Y0082854D01*
X0330996Y0083365D02*
X0330512Y0082197D01*
X0330512Y0080933D01*
X0330996Y0079765D01*
X0331890Y0078871D01*
X0333058Y0078387D01*
X0334322Y0078387D01*
X0335490Y0078871D01*
X0336384Y0079765D01*
X0336868Y0080933D01*
X0336868Y0082197D01*
X0336384Y0083365D01*
X0335490Y0084259D01*
X0334322Y0084743D01*
X0333058Y0084743D01*
X0331890Y0084259D01*
X0330996Y0083365D01*
X0332356Y0084452D02*
X0118926Y0084452D01*
X0118926Y0082854D02*
X0170540Y0082854D01*
X0170091Y0081255D02*
X0118926Y0081255D01*
X0118926Y0079657D02*
X0170443Y0079657D01*
X0172402Y0078058D02*
X0118926Y0078058D01*
X0118926Y0076460D02*
X0461630Y0076460D01*
X0461630Y0078058D02*
X0174136Y0078058D01*
X0176095Y0079657D02*
X0331104Y0079657D01*
X0330512Y0081255D02*
X0176447Y0081255D01*
X0183300Y0090846D02*
X0153944Y0090846D01*
X0173585Y0102036D02*
X0126603Y0102036D01*
X0126603Y0100437D02*
X0174684Y0100437D01*
X0173462Y0103634D02*
X0126631Y0103634D01*
X0126603Y0105233D02*
X0174388Y0105233D01*
X0173935Y0107148D02*
X0174995Y0108208D01*
X0175568Y0109593D01*
X0175568Y0111093D01*
X0174995Y0112478D01*
X0173935Y0113538D01*
X0172550Y0114111D01*
X0171050Y0114111D01*
X0169665Y0113538D01*
X0168605Y0112478D01*
X0168031Y0111093D01*
X0168031Y0109593D01*
X0168605Y0108208D01*
X0169665Y0107148D01*
X0171050Y0106574D01*
X0172550Y0106574D01*
X0173935Y0107148D01*
X0173170Y0106831D02*
X0306015Y0106831D01*
X0304781Y0108430D02*
X0175087Y0108430D01*
X0175568Y0110029D02*
X0304465Y0110029D01*
X0304852Y0111627D02*
X0178517Y0111627D01*
X0178464Y0111605D02*
X0179632Y0112089D01*
X0180526Y0112983D01*
X0181010Y0114151D01*
X0181010Y0114819D01*
X0181040Y0114748D01*
X0181934Y0113854D01*
X0183102Y0113370D01*
X0184366Y0113370D01*
X0185534Y0113854D01*
X0186428Y0114748D01*
X0186912Y0115916D01*
X0186912Y0117181D01*
X0186428Y0118349D01*
X0185534Y0119243D01*
X0184366Y0119726D01*
X0183102Y0119726D01*
X0181934Y0119243D01*
X0181040Y0118349D01*
X0180556Y0117181D01*
X0180556Y0116512D01*
X0180526Y0116583D01*
X0179632Y0117477D01*
X0178464Y0117961D01*
X0177200Y0117961D01*
X0176032Y0117477D01*
X0175138Y0116583D01*
X0174654Y0115415D01*
X0174654Y0114151D01*
X0175138Y0112983D01*
X0176032Y0112089D01*
X0177200Y0111605D01*
X0178464Y0111605D01*
X0177147Y0111627D02*
X0175347Y0111627D01*
X0175038Y0113226D02*
X0174247Y0113226D01*
X0174654Y0114824D02*
X0126603Y0114824D01*
X0126631Y0113226D02*
X0169353Y0113226D01*
X0168253Y0111627D02*
X0126603Y0111627D01*
X0126603Y0110029D02*
X0168031Y0110029D01*
X0168513Y0108430D02*
X0126631Y0108430D01*
X0126603Y0106831D02*
X0170430Y0106831D01*
X0180627Y0113226D02*
X0242822Y0113226D01*
X0242452Y0113595D02*
X0243633Y0112414D01*
X0245177Y0111774D01*
X0246848Y0111774D01*
X0248392Y0112414D01*
X0249573Y0113595D01*
X0250213Y0115139D01*
X0250213Y0116810D01*
X0249573Y0118354D01*
X0248392Y0119535D01*
X0246848Y0120174D01*
X0245177Y0120174D01*
X0243633Y0119535D01*
X0242452Y0118354D01*
X0241813Y0116810D01*
X0241813Y0115139D01*
X0242452Y0113595D01*
X0241943Y0114824D02*
X0186459Y0114824D01*
X0186912Y0116423D02*
X0241813Y0116423D01*
X0242314Y0118021D02*
X0186564Y0118021D01*
X0184624Y0119620D02*
X0243838Y0119620D01*
X0248187Y0119620D02*
X0257173Y0119620D01*
X0256890Y0121218D02*
X0197522Y0121218D01*
X0189542Y0121218D02*
X0150647Y0121218D01*
X0150456Y0122817D02*
X0188780Y0122817D01*
X0188981Y0124415D02*
X0149271Y0124415D01*
X0149861Y0119620D02*
X0182844Y0119620D01*
X0180904Y0118021D02*
X0146024Y0118021D01*
X0144351Y0116423D02*
X0175072Y0116423D01*
X0118926Y0074861D02*
X0461630Y0074861D01*
X0461630Y0073263D02*
X0118926Y0073263D01*
X0118926Y0071664D02*
X0461630Y0071664D01*
X0461630Y0070066D02*
X0118926Y0070066D01*
X0118926Y0068467D02*
X0461630Y0068467D01*
X0461630Y0066869D02*
X0118926Y0066869D01*
X0118926Y0065270D02*
X0461630Y0065270D01*
X0461630Y0063672D02*
X0118926Y0063672D01*
X0118926Y0062073D02*
X0461630Y0062073D01*
X0461630Y0060475D02*
X0118926Y0060475D01*
X0118926Y0058876D02*
X0461630Y0058876D01*
X0461630Y0057278D02*
X0118926Y0057278D01*
X0118926Y0055679D02*
X0461630Y0055679D01*
X0461630Y0054081D02*
X0118926Y0054081D01*
X0118926Y0052482D02*
X0461630Y0052482D01*
X0461630Y0050884D02*
X0118926Y0050884D01*
X0118926Y0049285D02*
X0140984Y0049285D01*
X0140506Y0049087D02*
X0142469Y0049900D01*
X0144595Y0049900D01*
X0146559Y0049087D01*
X0148062Y0047584D01*
X0148876Y0045620D01*
X0148876Y0043494D01*
X0148062Y0041530D01*
X0146559Y0040027D01*
X0144595Y0039214D01*
X0142469Y0039214D01*
X0140506Y0040027D01*
X0139002Y0041530D01*
X0138189Y0043494D01*
X0138189Y0045620D01*
X0139002Y0047584D01*
X0140506Y0049087D01*
X0139105Y0047687D02*
X0118926Y0047687D01*
X0118926Y0046088D02*
X0138383Y0046088D01*
X0138189Y0044490D02*
X0118926Y0044490D01*
X0118926Y0042891D02*
X0138439Y0042891D01*
X0139240Y0041293D02*
X0118926Y0041293D01*
X0118926Y0039694D02*
X0127343Y0039694D01*
X0128658Y0040239D02*
X0125181Y0038799D01*
X0122519Y0036137D01*
X0121079Y0032660D01*
X0121079Y0028896D01*
X0122519Y0025418D01*
X0125181Y0022757D01*
X0128658Y0021316D01*
X0132422Y0021316D01*
X0135900Y0022757D01*
X0138561Y0025418D01*
X0140002Y0028896D01*
X0140002Y0032660D01*
X0138561Y0036137D01*
X0135900Y0038799D01*
X0132422Y0040239D01*
X0128658Y0040239D01*
X0124478Y0038095D02*
X0118926Y0038095D01*
X0118926Y0036497D02*
X0122879Y0036497D01*
X0122006Y0034898D02*
X0118926Y0034898D01*
X0118926Y0033300D02*
X0121344Y0033300D01*
X0121079Y0031701D02*
X0118926Y0031701D01*
X0118926Y0030103D02*
X0121079Y0030103D01*
X0121241Y0028504D02*
X0118926Y0028504D01*
X0118926Y0026906D02*
X0121903Y0026906D01*
X0122630Y0025307D02*
X0118926Y0025307D01*
X0118926Y0023709D02*
X0124228Y0023709D01*
X0126741Y0022110D02*
X0118926Y0022110D01*
X0134340Y0022110D02*
X0184221Y0022110D01*
X0182661Y0022757D02*
X0186138Y0021316D01*
X0189902Y0021316D01*
X0193380Y0022757D01*
X0196041Y0025418D01*
X0197482Y0028896D01*
X0197482Y0032660D01*
X0196041Y0036137D01*
X0193380Y0038799D01*
X0189902Y0040239D01*
X0186138Y0040239D01*
X0182661Y0038799D01*
X0179999Y0036137D01*
X0178559Y0032660D01*
X0178559Y0028896D01*
X0179999Y0025418D01*
X0182661Y0022757D01*
X0181709Y0023709D02*
X0160875Y0023709D01*
X0160532Y0023597D02*
X0161331Y0023857D01*
X0162081Y0024239D01*
X0162761Y0024733D01*
X0163356Y0025328D01*
X0163850Y0026009D01*
X0164232Y0026758D01*
X0164492Y0027558D01*
X0164624Y0028389D01*
X0164624Y0028428D01*
X0159661Y0028428D01*
X0159661Y0023466D01*
X0159701Y0023466D01*
X0160532Y0023597D01*
X0159661Y0023709D02*
X0158899Y0023709D01*
X0158899Y0023466D02*
X0158899Y0028428D01*
X0153937Y0028428D01*
X0153937Y0028389D01*
X0154069Y0027558D01*
X0154328Y0026758D01*
X0154710Y0026009D01*
X0155205Y0025328D01*
X0155799Y0024733D01*
X0156480Y0024239D01*
X0157229Y0023857D01*
X0158029Y0023597D01*
X0158860Y0023466D01*
X0158899Y0023466D01*
X0157686Y0023709D02*
X0136852Y0023709D01*
X0138450Y0025307D02*
X0155225Y0025307D01*
X0154280Y0026906D02*
X0139177Y0026906D01*
X0139840Y0028504D02*
X0158899Y0028504D01*
X0158899Y0028428D02*
X0158899Y0029190D01*
X0153937Y0029190D01*
X0153937Y0029230D01*
X0154069Y0030060D01*
X0154328Y0030860D01*
X0154710Y0031610D01*
X0155205Y0032290D01*
X0155799Y0032885D01*
X0156480Y0033379D01*
X0157229Y0033761D01*
X0158029Y0034021D01*
X0158860Y0034152D01*
X0158899Y0034152D01*
X0158899Y0029190D01*
X0159661Y0029190D01*
X0159661Y0034152D01*
X0159701Y0034152D01*
X0160532Y0034021D01*
X0161331Y0033761D01*
X0162081Y0033379D01*
X0162761Y0032885D01*
X0163356Y0032290D01*
X0163850Y0031610D01*
X0164232Y0030860D01*
X0164492Y0030060D01*
X0164624Y0029230D01*
X0164624Y0029190D01*
X0159661Y0029190D01*
X0159661Y0028428D01*
X0158899Y0028428D01*
X0159661Y0028504D02*
X0178721Y0028504D01*
X0178559Y0030103D02*
X0164478Y0030103D01*
X0163784Y0031701D02*
X0178559Y0031701D01*
X0178824Y0033300D02*
X0162190Y0033300D01*
X0159661Y0033300D02*
X0158899Y0033300D01*
X0158899Y0031701D02*
X0159661Y0031701D01*
X0159661Y0030103D02*
X0158899Y0030103D01*
X0158899Y0026906D02*
X0159661Y0026906D01*
X0159661Y0025307D02*
X0158899Y0025307D01*
X0163335Y0025307D02*
X0180110Y0025307D01*
X0179383Y0026906D02*
X0164280Y0026906D01*
X0156371Y0033300D02*
X0139736Y0033300D01*
X0140002Y0031701D02*
X0154777Y0031701D01*
X0154082Y0030103D02*
X0140002Y0030103D01*
X0139074Y0034898D02*
X0179486Y0034898D01*
X0180359Y0036497D02*
X0176661Y0036497D01*
X0176091Y0036261D02*
X0178055Y0037074D01*
X0179558Y0038578D01*
X0180372Y0040541D01*
X0180372Y0042667D01*
X0179558Y0044631D01*
X0178055Y0046134D01*
X0176091Y0046948D01*
X0173965Y0046948D01*
X0172002Y0046134D01*
X0170499Y0044631D01*
X0169685Y0042667D01*
X0169685Y0040541D01*
X0170499Y0038578D01*
X0172002Y0037074D01*
X0173965Y0036261D01*
X0176091Y0036261D01*
X0173396Y0036497D02*
X0138201Y0036497D01*
X0136603Y0038095D02*
X0170981Y0038095D01*
X0170036Y0039694D02*
X0145754Y0039694D01*
X0147824Y0041293D02*
X0169685Y0041293D01*
X0169778Y0042891D02*
X0148626Y0042891D01*
X0148876Y0044490D02*
X0170440Y0044490D01*
X0171955Y0046088D02*
X0148682Y0046088D01*
X0147959Y0047687D02*
X0217845Y0047687D01*
X0217743Y0047584D02*
X0216929Y0045620D01*
X0216929Y0043494D01*
X0217743Y0041530D01*
X0219246Y0040027D01*
X0221210Y0039214D01*
X0223335Y0039214D01*
X0225299Y0040027D01*
X0226802Y0041530D01*
X0227616Y0043494D01*
X0227616Y0045620D01*
X0226802Y0047584D01*
X0225299Y0049087D01*
X0223335Y0049900D01*
X0221210Y0049900D01*
X0219246Y0049087D01*
X0217743Y0047584D01*
X0217123Y0046088D02*
X0178101Y0046088D01*
X0179617Y0044490D02*
X0216929Y0044490D01*
X0217179Y0042891D02*
X0180279Y0042891D01*
X0180372Y0041293D02*
X0217980Y0041293D01*
X0220050Y0039694D02*
X0212478Y0039694D01*
X0211162Y0040239D02*
X0207398Y0040239D01*
X0203921Y0038799D01*
X0201259Y0036137D01*
X0199819Y0032660D01*
X0199819Y0028896D01*
X0201259Y0025418D01*
X0203921Y0022757D01*
X0207398Y0021316D01*
X0211162Y0021316D01*
X0214640Y0022757D01*
X0217301Y0025418D01*
X0218742Y0028896D01*
X0218742Y0032660D01*
X0217301Y0036137D01*
X0214640Y0038799D01*
X0211162Y0040239D01*
X0215343Y0038095D02*
X0249721Y0038095D01*
X0249239Y0038578D02*
X0250742Y0037074D01*
X0252706Y0036261D01*
X0254831Y0036261D01*
X0256795Y0037074D01*
X0258298Y0038578D01*
X0259112Y0040541D01*
X0259112Y0042667D01*
X0258298Y0044631D01*
X0256795Y0046134D01*
X0254831Y0046948D01*
X0252706Y0046948D01*
X0250742Y0046134D01*
X0249239Y0044631D01*
X0248425Y0042667D01*
X0248425Y0040541D01*
X0249239Y0038578D01*
X0248776Y0039694D02*
X0224495Y0039694D01*
X0226564Y0041293D02*
X0248425Y0041293D01*
X0248518Y0042891D02*
X0227366Y0042891D01*
X0227616Y0044490D02*
X0249180Y0044490D01*
X0250696Y0046088D02*
X0227422Y0046088D01*
X0226700Y0047687D02*
X0304460Y0047687D01*
X0304357Y0047584D02*
X0303543Y0045620D01*
X0303543Y0043494D01*
X0304357Y0041530D01*
X0305860Y0040027D01*
X0307824Y0039214D01*
X0309949Y0039214D01*
X0311913Y0040027D01*
X0313416Y0041530D01*
X0314230Y0043494D01*
X0314230Y0045620D01*
X0313416Y0047584D01*
X0311913Y0049087D01*
X0309949Y0049900D01*
X0307824Y0049900D01*
X0305860Y0049087D01*
X0304357Y0047584D01*
X0303737Y0046088D02*
X0256841Y0046088D01*
X0258357Y0044490D02*
X0303543Y0044490D01*
X0303793Y0042891D02*
X0259019Y0042891D01*
X0259112Y0041293D02*
X0304595Y0041293D01*
X0306664Y0039694D02*
X0299092Y0039694D01*
X0297776Y0040239D02*
X0294012Y0040239D01*
X0290535Y0038799D01*
X0287873Y0036137D01*
X0286433Y0032660D01*
X0286433Y0028896D01*
X0287873Y0025418D01*
X0290535Y0022757D01*
X0294012Y0021316D01*
X0297776Y0021316D01*
X0301254Y0022757D01*
X0303915Y0025418D01*
X0305356Y0028896D01*
X0305356Y0032660D01*
X0303915Y0036137D01*
X0301254Y0038799D01*
X0297776Y0040239D01*
X0301957Y0038095D02*
X0336335Y0038095D01*
X0335853Y0038578D02*
X0337356Y0037074D01*
X0339320Y0036261D01*
X0341446Y0036261D01*
X0343409Y0037074D01*
X0344913Y0038578D01*
X0345726Y0040541D01*
X0345726Y0042667D01*
X0344913Y0044631D01*
X0343409Y0046134D01*
X0341446Y0046948D01*
X0339320Y0046948D01*
X0337356Y0046134D01*
X0335853Y0044631D01*
X0335039Y0042667D01*
X0335039Y0040541D01*
X0335853Y0038578D01*
X0335390Y0039694D02*
X0311109Y0039694D01*
X0313179Y0041293D02*
X0335039Y0041293D01*
X0335132Y0042891D02*
X0313980Y0042891D01*
X0314230Y0044490D02*
X0335794Y0044490D01*
X0337310Y0046088D02*
X0314036Y0046088D01*
X0313314Y0047687D02*
X0383200Y0047687D01*
X0383097Y0047584D02*
X0382283Y0045620D01*
X0382283Y0043494D01*
X0383097Y0041530D01*
X0384600Y0040027D01*
X0386564Y0039214D01*
X0388690Y0039214D01*
X0390654Y0040027D01*
X0392157Y0041530D01*
X0392970Y0043494D01*
X0392970Y0045620D01*
X0392157Y0047584D01*
X0390654Y0049087D01*
X0388690Y0049900D01*
X0386564Y0049900D01*
X0384600Y0049087D01*
X0383097Y0047584D01*
X0382477Y0046088D02*
X0343456Y0046088D01*
X0344971Y0044490D02*
X0382283Y0044490D01*
X0382533Y0042891D02*
X0345633Y0042891D01*
X0345726Y0041293D02*
X0383335Y0041293D01*
X0385405Y0039694D02*
X0377832Y0039694D01*
X0376517Y0040239D02*
X0372753Y0040239D01*
X0369275Y0038799D01*
X0366614Y0036137D01*
X0365173Y0032660D01*
X0365173Y0028896D01*
X0366614Y0025418D01*
X0369275Y0022757D01*
X0372753Y0021316D01*
X0376517Y0021316D01*
X0379994Y0022757D01*
X0382656Y0025418D01*
X0384096Y0028896D01*
X0384096Y0032660D01*
X0382656Y0036137D01*
X0379994Y0038799D01*
X0376517Y0040239D01*
X0380697Y0038095D02*
X0415075Y0038095D01*
X0414593Y0038578D02*
X0416096Y0037074D01*
X0418060Y0036261D01*
X0420186Y0036261D01*
X0422150Y0037074D01*
X0423653Y0038578D01*
X0424466Y0040541D01*
X0424466Y0042667D01*
X0423653Y0044631D01*
X0422150Y0046134D01*
X0420186Y0046948D01*
X0418060Y0046948D01*
X0416096Y0046134D01*
X0414593Y0044631D01*
X0413780Y0042667D01*
X0413780Y0040541D01*
X0414593Y0038578D01*
X0414131Y0039694D02*
X0389849Y0039694D01*
X0391919Y0041293D02*
X0413780Y0041293D01*
X0413872Y0042891D02*
X0392720Y0042891D01*
X0392970Y0044490D02*
X0414534Y0044490D01*
X0416050Y0046088D02*
X0392776Y0046088D01*
X0392054Y0047687D02*
X0461630Y0047687D01*
X0461630Y0049285D02*
X0390175Y0049285D01*
X0385078Y0049285D02*
X0311435Y0049285D01*
X0306338Y0049285D02*
X0224821Y0049285D01*
X0219724Y0049285D02*
X0146081Y0049285D01*
X0141310Y0039694D02*
X0133738Y0039694D01*
X0179076Y0038095D02*
X0181958Y0038095D01*
X0180021Y0039694D02*
X0184823Y0039694D01*
X0191218Y0039694D02*
X0206083Y0039694D01*
X0203218Y0038095D02*
X0194083Y0038095D01*
X0195681Y0036497D02*
X0201619Y0036497D01*
X0200746Y0034898D02*
X0196554Y0034898D01*
X0197217Y0033300D02*
X0200084Y0033300D01*
X0199819Y0031701D02*
X0197482Y0031701D01*
X0197482Y0030103D02*
X0199819Y0030103D01*
X0199981Y0028504D02*
X0197320Y0028504D01*
X0196658Y0026906D02*
X0200643Y0026906D01*
X0201370Y0025307D02*
X0195931Y0025307D01*
X0194332Y0023709D02*
X0202969Y0023709D01*
X0205481Y0022110D02*
X0191820Y0022110D01*
X0213080Y0022110D02*
X0262961Y0022110D01*
X0261401Y0022757D02*
X0264879Y0021316D01*
X0268643Y0021316D01*
X0272120Y0022757D01*
X0274782Y0025418D01*
X0276222Y0028896D01*
X0276222Y0032660D01*
X0274782Y0036137D01*
X0272120Y0038799D01*
X0268643Y0040239D01*
X0264879Y0040239D01*
X0261401Y0038799D01*
X0258740Y0036137D01*
X0257299Y0032660D01*
X0257299Y0028896D01*
X0258740Y0025418D01*
X0261401Y0022757D01*
X0260449Y0023709D02*
X0239615Y0023709D01*
X0239272Y0023597D02*
X0240072Y0023857D01*
X0240821Y0024239D01*
X0241501Y0024733D01*
X0242096Y0025328D01*
X0242590Y0026009D01*
X0242972Y0026758D01*
X0243232Y0027558D01*
X0243364Y0028389D01*
X0243364Y0028428D01*
X0238402Y0028428D01*
X0238402Y0029190D01*
X0243364Y0029190D01*
X0243364Y0029230D01*
X0243232Y0030060D01*
X0242972Y0030860D01*
X0242590Y0031610D01*
X0242096Y0032290D01*
X0241501Y0032885D01*
X0240821Y0033379D01*
X0240072Y0033761D01*
X0239272Y0034021D01*
X0238441Y0034152D01*
X0238402Y0034152D01*
X0238402Y0029190D01*
X0237639Y0029190D01*
X0237639Y0028428D01*
X0232677Y0028428D01*
X0232677Y0028389D01*
X0232809Y0027558D01*
X0233069Y0026758D01*
X0233450Y0026009D01*
X0233945Y0025328D01*
X0234540Y0024733D01*
X0235220Y0024239D01*
X0235969Y0023857D01*
X0236769Y0023597D01*
X0237600Y0023466D01*
X0237639Y0023466D01*
X0237639Y0028428D01*
X0238402Y0028428D01*
X0238402Y0023466D01*
X0238441Y0023466D01*
X0239272Y0023597D01*
X0238402Y0023709D02*
X0237639Y0023709D01*
X0236426Y0023709D02*
X0215592Y0023709D01*
X0217191Y0025307D02*
X0233966Y0025307D01*
X0233021Y0026906D02*
X0217918Y0026906D01*
X0218580Y0028504D02*
X0237639Y0028504D01*
X0237639Y0029190D02*
X0232677Y0029190D01*
X0232677Y0029230D01*
X0232809Y0030060D01*
X0233069Y0030860D01*
X0233450Y0031610D01*
X0233945Y0032290D01*
X0234540Y0032885D01*
X0235220Y0033379D01*
X0235969Y0033761D01*
X0236769Y0034021D01*
X0237600Y0034152D01*
X0237639Y0034152D01*
X0237639Y0029190D01*
X0237639Y0030103D02*
X0238402Y0030103D01*
X0238402Y0031701D02*
X0237639Y0031701D01*
X0237639Y0033300D02*
X0238402Y0033300D01*
X0240930Y0033300D02*
X0257564Y0033300D01*
X0257299Y0031701D02*
X0242524Y0031701D01*
X0243218Y0030103D02*
X0257299Y0030103D01*
X0257461Y0028504D02*
X0238402Y0028504D01*
X0238402Y0026906D02*
X0237639Y0026906D01*
X0237639Y0025307D02*
X0238402Y0025307D01*
X0242075Y0025307D02*
X0258850Y0025307D01*
X0258123Y0026906D02*
X0243020Y0026906D01*
X0235111Y0033300D02*
X0218476Y0033300D01*
X0218742Y0031701D02*
X0233517Y0031701D01*
X0232823Y0030103D02*
X0218742Y0030103D01*
X0217814Y0034898D02*
X0258227Y0034898D01*
X0259100Y0036497D02*
X0255401Y0036497D01*
X0257816Y0038095D02*
X0260698Y0038095D01*
X0258761Y0039694D02*
X0263563Y0039694D01*
X0269958Y0039694D02*
X0292697Y0039694D01*
X0289832Y0038095D02*
X0272823Y0038095D01*
X0274422Y0036497D02*
X0288233Y0036497D01*
X0287360Y0034898D02*
X0275295Y0034898D01*
X0275957Y0033300D02*
X0286698Y0033300D01*
X0286433Y0031701D02*
X0276222Y0031701D01*
X0276222Y0030103D02*
X0286433Y0030103D01*
X0286595Y0028504D02*
X0276060Y0028504D01*
X0275398Y0026906D02*
X0287257Y0026906D01*
X0287984Y0025307D02*
X0274671Y0025307D01*
X0273072Y0023709D02*
X0289583Y0023709D01*
X0292095Y0022110D02*
X0270560Y0022110D01*
X0252136Y0036497D02*
X0216941Y0036497D01*
X0299694Y0022110D02*
X0349575Y0022110D01*
X0348015Y0022757D02*
X0351493Y0021316D01*
X0355257Y0021316D01*
X0358734Y0022757D01*
X0361396Y0025418D01*
X0362836Y0028896D01*
X0362836Y0032660D01*
X0361396Y0036137D01*
X0358734Y0038799D01*
X0355257Y0040239D01*
X0351493Y0040239D01*
X0348015Y0038799D01*
X0345354Y0036137D01*
X0343913Y0032660D01*
X0343913Y0028896D01*
X0345354Y0025418D01*
X0348015Y0022757D01*
X0347063Y0023709D02*
X0326229Y0023709D01*
X0325886Y0023597D02*
X0326686Y0023857D01*
X0327435Y0024239D01*
X0328116Y0024733D01*
X0328710Y0025328D01*
X0329205Y0026009D01*
X0329586Y0026758D01*
X0329846Y0027558D01*
X0329978Y0028389D01*
X0329978Y0028428D01*
X0325016Y0028428D01*
X0325016Y0029190D01*
X0329978Y0029190D01*
X0329978Y0029230D01*
X0329846Y0030060D01*
X0329586Y0030860D01*
X0329205Y0031610D01*
X0328710Y0032290D01*
X0328116Y0032885D01*
X0327435Y0033379D01*
X0326686Y0033761D01*
X0325886Y0034021D01*
X0325055Y0034152D01*
X0325016Y0034152D01*
X0325016Y0029190D01*
X0324254Y0029190D01*
X0324254Y0034152D01*
X0324214Y0034152D01*
X0323383Y0034021D01*
X0322584Y0033761D01*
X0321834Y0033379D01*
X0321154Y0032885D01*
X0320559Y0032290D01*
X0320065Y0031610D01*
X0319683Y0030860D01*
X0319423Y0030060D01*
X0319291Y0029230D01*
X0319291Y0029190D01*
X0324253Y0029190D01*
X0324253Y0028428D01*
X0319291Y0028428D01*
X0319291Y0028389D01*
X0319423Y0027558D01*
X0319683Y0026758D01*
X0320065Y0026009D01*
X0320559Y0025328D01*
X0321154Y0024733D01*
X0321834Y0024239D01*
X0322584Y0023857D01*
X0323383Y0023597D01*
X0324214Y0023466D01*
X0324254Y0023466D01*
X0324254Y0028428D01*
X0325016Y0028428D01*
X0325016Y0023466D01*
X0325055Y0023466D01*
X0325886Y0023597D01*
X0325016Y0023709D02*
X0324254Y0023709D01*
X0323040Y0023709D02*
X0302206Y0023709D01*
X0303805Y0025307D02*
X0320580Y0025307D01*
X0319635Y0026906D02*
X0304532Y0026906D01*
X0305194Y0028504D02*
X0324253Y0028504D01*
X0325016Y0028504D02*
X0344075Y0028504D01*
X0343913Y0030103D02*
X0329833Y0030103D01*
X0329138Y0031701D02*
X0343913Y0031701D01*
X0344179Y0033300D02*
X0327544Y0033300D01*
X0325016Y0033300D02*
X0324254Y0033300D01*
X0324254Y0031701D02*
X0325016Y0031701D01*
X0325016Y0030103D02*
X0324254Y0030103D01*
X0324254Y0026906D02*
X0325016Y0026906D01*
X0325016Y0025307D02*
X0324254Y0025307D01*
X0328690Y0025307D02*
X0345464Y0025307D01*
X0344738Y0026906D02*
X0329635Y0026906D01*
X0321725Y0033300D02*
X0305091Y0033300D01*
X0305356Y0031701D02*
X0320131Y0031701D01*
X0319437Y0030103D02*
X0305356Y0030103D01*
X0304429Y0034898D02*
X0344841Y0034898D01*
X0345714Y0036497D02*
X0342015Y0036497D01*
X0344430Y0038095D02*
X0347312Y0038095D01*
X0345375Y0039694D02*
X0350177Y0039694D01*
X0356572Y0039694D02*
X0371437Y0039694D01*
X0368572Y0038095D02*
X0359437Y0038095D01*
X0361036Y0036497D02*
X0366974Y0036497D01*
X0366101Y0034898D02*
X0361909Y0034898D01*
X0362571Y0033300D02*
X0365439Y0033300D01*
X0365173Y0031701D02*
X0362836Y0031701D01*
X0362836Y0030103D02*
X0365173Y0030103D01*
X0365335Y0028504D02*
X0362674Y0028504D01*
X0362012Y0026906D02*
X0365997Y0026906D01*
X0366724Y0025307D02*
X0361285Y0025307D01*
X0359687Y0023709D02*
X0368323Y0023709D01*
X0370835Y0022110D02*
X0357174Y0022110D01*
X0378434Y0022110D02*
X0428315Y0022110D01*
X0426755Y0022757D02*
X0430233Y0021316D01*
X0433997Y0021316D01*
X0437474Y0022757D01*
X0440136Y0025418D01*
X0441576Y0028896D01*
X0441576Y0032660D01*
X0440136Y0036137D01*
X0437474Y0038799D01*
X0433997Y0040239D01*
X0430233Y0040239D01*
X0426755Y0038799D01*
X0424094Y0036137D01*
X0422654Y0032660D01*
X0422654Y0028896D01*
X0424094Y0025418D01*
X0426755Y0022757D01*
X0425803Y0023709D02*
X0404969Y0023709D01*
X0404626Y0023597D02*
X0405426Y0023857D01*
X0406175Y0024239D01*
X0406856Y0024733D01*
X0407450Y0025328D01*
X0407945Y0026009D01*
X0408327Y0026758D01*
X0408587Y0027558D01*
X0408718Y0028389D01*
X0408718Y0028428D01*
X0403756Y0028428D01*
X0403756Y0029190D01*
X0408718Y0029190D01*
X0408718Y0029230D01*
X0408587Y0030060D01*
X0408327Y0030860D01*
X0407945Y0031610D01*
X0407450Y0032290D01*
X0406856Y0032885D01*
X0406175Y0033379D01*
X0405426Y0033761D01*
X0404626Y0034021D01*
X0403795Y0034152D01*
X0403756Y0034152D01*
X0403756Y0029190D01*
X0402994Y0029190D01*
X0402994Y0034152D01*
X0402954Y0034152D01*
X0402124Y0034021D01*
X0401324Y0033761D01*
X0400574Y0033379D01*
X0399894Y0032885D01*
X0399299Y0032290D01*
X0398805Y0031610D01*
X0398423Y0030860D01*
X0398163Y0030060D01*
X0398031Y0029230D01*
X0398031Y0029190D01*
X0402994Y0029190D01*
X0402994Y0028428D01*
X0403756Y0028428D01*
X0403756Y0023466D01*
X0403795Y0023466D01*
X0404626Y0023597D01*
X0403756Y0023709D02*
X0402994Y0023709D01*
X0402994Y0023466D02*
X0402994Y0028428D01*
X0398031Y0028428D01*
X0398031Y0028389D01*
X0398163Y0027558D01*
X0398423Y0026758D01*
X0398805Y0026009D01*
X0399299Y0025328D01*
X0399894Y0024733D01*
X0400574Y0024239D01*
X0401324Y0023857D01*
X0402124Y0023597D01*
X0402954Y0023466D01*
X0402994Y0023466D01*
X0401780Y0023709D02*
X0380946Y0023709D01*
X0382545Y0025307D02*
X0399320Y0025307D01*
X0398375Y0026906D02*
X0383272Y0026906D01*
X0383934Y0028504D02*
X0402994Y0028504D01*
X0403756Y0028504D02*
X0422816Y0028504D01*
X0422654Y0030103D02*
X0408573Y0030103D01*
X0407878Y0031701D02*
X0422654Y0031701D01*
X0422919Y0033300D02*
X0406284Y0033300D01*
X0403756Y0033300D02*
X0402994Y0033300D01*
X0402994Y0031701D02*
X0403756Y0031701D01*
X0403756Y0030103D02*
X0402994Y0030103D01*
X0402994Y0026906D02*
X0403756Y0026906D01*
X0403756Y0025307D02*
X0402994Y0025307D01*
X0407430Y0025307D02*
X0424205Y0025307D01*
X0423478Y0026906D02*
X0408375Y0026906D01*
X0400465Y0033300D02*
X0383831Y0033300D01*
X0384096Y0031701D02*
X0398872Y0031701D01*
X0398177Y0030103D02*
X0384096Y0030103D01*
X0383169Y0034898D02*
X0423581Y0034898D01*
X0424454Y0036497D02*
X0420755Y0036497D01*
X0423171Y0038095D02*
X0426052Y0038095D01*
X0424115Y0039694D02*
X0428917Y0039694D01*
X0424466Y0041293D02*
X0461630Y0041293D01*
X0461630Y0042891D02*
X0424373Y0042891D01*
X0423711Y0044490D02*
X0461630Y0044490D01*
X0461630Y0046088D02*
X0422196Y0046088D01*
X0417490Y0036497D02*
X0382296Y0036497D01*
X0338750Y0036497D02*
X0303556Y0036497D01*
X0336276Y0079657D02*
X0461630Y0079657D01*
X0461630Y0081255D02*
X0336868Y0081255D01*
X0336596Y0082854D02*
X0461630Y0082854D01*
X0461630Y0084452D02*
X0335023Y0084452D01*
X0350150Y0086051D02*
X0392426Y0086051D01*
X0392413Y0086064D02*
X0393307Y0085170D01*
X0394475Y0084686D01*
X0395739Y0084686D01*
X0396907Y0085170D01*
X0397801Y0086064D01*
X0398285Y0087232D01*
X0398285Y0088496D01*
X0397801Y0089664D01*
X0396907Y0090558D01*
X0395739Y0091042D01*
X0394475Y0091042D01*
X0393307Y0090558D01*
X0392413Y0089664D01*
X0391929Y0088496D01*
X0391929Y0087232D01*
X0392413Y0086064D01*
X0391929Y0087649D02*
X0351281Y0087649D01*
X0351435Y0089248D02*
X0360441Y0089248D01*
X0359419Y0090846D02*
X0350556Y0090846D01*
X0359252Y0092445D02*
X0290327Y0092445D01*
X0289656Y0094043D02*
X0359789Y0094043D01*
X0366252Y0094043D02*
X0461630Y0094043D01*
X0461630Y0092445D02*
X0366789Y0092445D01*
X0366622Y0090846D02*
X0394002Y0090846D01*
X0396212Y0090846D02*
X0461630Y0090846D01*
X0461630Y0089248D02*
X0397974Y0089248D01*
X0398285Y0087649D02*
X0461630Y0087649D01*
X0461630Y0086051D02*
X0397788Y0086051D01*
X0392240Y0089248D02*
X0365600Y0089248D01*
X0358915Y0116423D02*
X0461630Y0116423D01*
X0461630Y0105233D02*
X0314977Y0105233D01*
X0315710Y0103634D02*
X0461630Y0103634D01*
X0461630Y0102036D02*
X0315497Y0102036D01*
X0306310Y0113226D02*
X0279203Y0113226D01*
X0279573Y0113595D02*
X0280213Y0115139D01*
X0280213Y0116810D01*
X0279573Y0118354D01*
X0278392Y0119535D01*
X0276848Y0120174D01*
X0275177Y0120174D01*
X0273633Y0119535D01*
X0272452Y0118354D01*
X0271813Y0116810D01*
X0271813Y0115139D01*
X0272452Y0113595D01*
X0273633Y0112414D01*
X0275177Y0111774D01*
X0276848Y0111774D01*
X0278392Y0112414D01*
X0279573Y0113595D01*
X0280082Y0114824D02*
X0317561Y0114824D01*
X0315987Y0116423D02*
X0280213Y0116423D01*
X0279711Y0118021D02*
X0315715Y0118021D01*
X0316306Y0119620D02*
X0287772Y0119620D01*
X0289350Y0121218D02*
X0323794Y0121218D01*
X0323182Y0122817D02*
X0289624Y0122817D01*
X0289035Y0124415D02*
X0323445Y0124415D01*
X0329538Y0122817D02*
X0338780Y0122817D01*
X0339144Y0124415D02*
X0337157Y0124415D01*
X0339216Y0121218D02*
X0328925Y0121218D01*
X0342753Y0126014D02*
X0343408Y0126014D01*
X0347593Y0126014D02*
X0377002Y0126014D01*
X0377089Y0130809D02*
X0358674Y0130809D01*
X0357255Y0132408D02*
X0376270Y0132408D01*
X0376183Y0134006D02*
X0344956Y0134006D01*
X0345901Y0135605D02*
X0376727Y0135605D01*
X0378457Y0137203D02*
X0345806Y0137203D01*
X0340534Y0134006D02*
X0334870Y0134006D01*
X0335293Y0132408D02*
X0340834Y0132408D01*
X0343869Y0132408D02*
X0354219Y0132408D01*
X0352800Y0130809D02*
X0347601Y0130809D01*
X0348611Y0129211D02*
X0352559Y0129211D01*
X0353227Y0127612D02*
X0348608Y0127612D01*
X0352885Y0119620D02*
X0353739Y0119620D01*
X0337627Y0130809D02*
X0334916Y0130809D01*
X0329360Y0134006D02*
X0279743Y0134006D01*
X0280213Y0135605D02*
X0339589Y0135605D01*
X0328629Y0132408D02*
X0278377Y0132408D01*
X0279574Y0143597D02*
X0324532Y0143597D01*
X0333561Y0148393D02*
X0333819Y0148393D01*
X0382859Y0149991D02*
X0407906Y0149991D01*
X0406609Y0151590D02*
X0384156Y0151590D01*
X0384583Y0153188D02*
X0406183Y0153188D01*
X0406388Y0154787D02*
X0384377Y0154787D01*
X0383392Y0156385D02*
X0407374Y0156385D01*
X0407783Y0146794D02*
X0382983Y0146794D01*
X0384208Y0145196D02*
X0406558Y0145196D01*
X0406183Y0143597D02*
X0384583Y0143597D01*
X0384326Y0141999D02*
X0406440Y0141999D01*
X0407497Y0140400D02*
X0383268Y0140400D01*
X0382308Y0137203D02*
X0408457Y0137203D01*
X0406727Y0135605D02*
X0384038Y0135605D01*
X0384583Y0134006D02*
X0406183Y0134006D01*
X0406270Y0132408D02*
X0384495Y0132408D01*
X0383677Y0130809D02*
X0407089Y0130809D01*
X0407002Y0126014D02*
X0383763Y0126014D01*
X0384531Y0124415D02*
X0406234Y0124415D01*
X0406183Y0122817D02*
X0384583Y0122817D01*
X0384002Y0121218D02*
X0406763Y0121218D01*
X0408666Y0119620D02*
X0382099Y0119620D01*
X0279777Y0119620D02*
X0278188Y0119620D01*
X0273838Y0119620D02*
X0262963Y0119620D01*
X0261337Y0118021D02*
X0272314Y0118021D01*
X0271813Y0116423D02*
X0250213Y0116423D01*
X0250082Y0114824D02*
X0271943Y0114824D01*
X0272822Y0113226D02*
X0249203Y0113226D01*
X0249711Y0118021D02*
X0258798Y0118021D01*
X0257455Y0122817D02*
X0248794Y0122817D01*
X0238978Y0170772D02*
X0161850Y0170772D01*
X0162791Y0172370D02*
X0237833Y0172370D01*
X0237669Y0173969D02*
X0163057Y0173969D01*
X0162789Y0175567D02*
X0175568Y0175567D01*
X0174075Y0177166D02*
X0161845Y0177166D01*
X0154668Y0177166D02*
X0151845Y0177166D01*
X0152789Y0175567D02*
X0153724Y0175567D01*
X0153457Y0173969D02*
X0153057Y0173969D01*
X0152791Y0172370D02*
X0153722Y0172370D01*
X0154663Y0170772D02*
X0151850Y0170772D01*
X0151437Y0167575D02*
X0155077Y0167575D01*
X0153894Y0165976D02*
X0152620Y0165976D01*
X0153057Y0164378D02*
X0153457Y0164378D01*
X0153553Y0162779D02*
X0152960Y0162779D01*
X0152259Y0161181D02*
X0154254Y0161181D01*
X0156298Y0159582D02*
X0150215Y0159582D01*
X0146298Y0159582D02*
X0140215Y0159582D01*
X0142259Y0161181D02*
X0144254Y0161181D01*
X0143553Y0162779D02*
X0142960Y0162779D01*
X0143057Y0164378D02*
X0143457Y0164378D01*
X0143894Y0165976D02*
X0142620Y0165976D01*
X0141437Y0167575D02*
X0145077Y0167575D01*
X0144663Y0170772D02*
X0141850Y0170772D01*
X0142791Y0172370D02*
X0143722Y0172370D01*
X0143457Y0173969D02*
X0143057Y0173969D01*
X0142789Y0175567D02*
X0143724Y0175567D01*
X0144668Y0177166D02*
X0141845Y0177166D01*
X0134663Y0170772D02*
X0029747Y0170772D01*
X0028681Y0173969D02*
X0044222Y0173969D01*
X0043355Y0175567D02*
X0030071Y0175567D01*
X0030647Y0177166D02*
X0043142Y0177166D01*
X0043462Y0178764D02*
X0030647Y0178764D01*
X0030020Y0180363D02*
X0044479Y0180363D01*
X0045223Y0182968D02*
X0046987Y0182237D01*
X0048897Y0182237D01*
X0050661Y0182968D01*
X0052011Y0184318D01*
X0052742Y0186083D01*
X0052742Y0187992D01*
X0052011Y0189756D01*
X0050661Y0191107D01*
X0049593Y0191549D01*
X0050467Y0192422D01*
X0051041Y0193807D01*
X0051041Y0195307D01*
X0050467Y0196692D01*
X0049407Y0197752D01*
X0048022Y0198326D01*
X0046523Y0198326D01*
X0045138Y0197752D01*
X0044078Y0196692D01*
X0043504Y0195307D01*
X0043504Y0193807D01*
X0044078Y0192422D01*
X0045138Y0191362D01*
X0045489Y0191217D01*
X0045223Y0191107D01*
X0043872Y0189756D01*
X0043142Y0187992D01*
X0043142Y0186083D01*
X0043872Y0184318D01*
X0045223Y0182968D01*
X0044631Y0183560D02*
X0004568Y0183560D01*
X0004568Y0181962D02*
X0013394Y0181962D01*
X0011814Y0180363D02*
X0004568Y0180363D01*
X0004568Y0178764D02*
X0011219Y0178764D01*
X0011199Y0177166D02*
X0004568Y0177166D01*
X0004568Y0175567D02*
X0011751Y0175567D01*
X0013224Y0173969D02*
X0004568Y0173969D01*
X0004568Y0172370D02*
X0014262Y0172370D01*
X0012104Y0170772D02*
X0004568Y0170772D01*
X0004568Y0169173D02*
X0011310Y0169173D01*
X0011142Y0167575D02*
X0004568Y0167575D01*
X0004568Y0165976D02*
X0011542Y0165976D01*
X0012699Y0164378D02*
X0004568Y0164378D01*
X0004568Y0156385D02*
X0011390Y0156385D01*
X0012290Y0154787D02*
X0004568Y0154787D01*
X0019339Y0161181D02*
X0022450Y0161181D01*
X0021446Y0159582D02*
X0020346Y0159582D01*
X0019090Y0164378D02*
X0022699Y0164378D01*
X0021548Y0165976D02*
X0020247Y0165976D01*
X0020647Y0167575D02*
X0021142Y0167575D01*
X0021276Y0169173D02*
X0020479Y0169173D01*
X0019685Y0170772D02*
X0022041Y0170772D01*
X0029339Y0161181D02*
X0045402Y0161181D01*
X0043800Y0159582D02*
X0030343Y0159582D01*
X0030647Y0157984D02*
X0043142Y0157984D01*
X0043142Y0156385D02*
X0030410Y0156385D01*
X0057742Y0149991D02*
X0058142Y0149991D01*
X0058142Y0148393D02*
X0057742Y0148393D01*
X0057742Y0146794D02*
X0058142Y0146794D01*
X0058142Y0145196D02*
X0057742Y0145196D01*
X0057742Y0143597D02*
X0058142Y0143597D01*
X0070881Y0153188D02*
X0075003Y0153188D01*
X0073678Y0154787D02*
X0072205Y0154787D01*
X0072742Y0156385D02*
X0073142Y0156385D01*
X0073142Y0157984D02*
X0072742Y0157984D01*
X0072083Y0159582D02*
X0073800Y0159582D01*
X0075402Y0161181D02*
X0070481Y0161181D01*
X0071662Y0173969D02*
X0074222Y0173969D01*
X0073355Y0175567D02*
X0072528Y0175567D01*
X0072742Y0177166D02*
X0073142Y0177166D01*
X0073462Y0178764D02*
X0072422Y0178764D01*
X0071404Y0180363D02*
X0074479Y0180363D01*
X0075223Y0182968D02*
X0076987Y0182237D01*
X0078897Y0182237D01*
X0080661Y0182968D01*
X0082011Y0184318D01*
X0082742Y0186083D01*
X0082742Y0187992D01*
X0082011Y0189756D01*
X0080661Y0191107D01*
X0078897Y0191837D01*
X0076987Y0191837D01*
X0075223Y0191107D01*
X0073872Y0189756D01*
X0073142Y0187992D01*
X0073142Y0186083D01*
X0073872Y0184318D01*
X0075223Y0182968D01*
X0074631Y0183560D02*
X0071253Y0183560D01*
X0070661Y0182968D02*
X0072011Y0184318D01*
X0072742Y0186083D01*
X0072742Y0187992D01*
X0072011Y0189756D01*
X0070661Y0191107D01*
X0068897Y0191837D01*
X0066987Y0191837D01*
X0065223Y0191107D01*
X0063872Y0189756D01*
X0063142Y0187992D01*
X0063142Y0186083D01*
X0063872Y0184318D01*
X0065223Y0182968D01*
X0066987Y0182237D01*
X0068897Y0182237D01*
X0070661Y0182968D01*
X0072359Y0185159D02*
X0073524Y0185159D01*
X0073142Y0186757D02*
X0072742Y0186757D01*
X0072591Y0188356D02*
X0073292Y0188356D01*
X0074070Y0189954D02*
X0071813Y0189954D01*
X0069584Y0191553D02*
X0076299Y0191553D01*
X0079584Y0191553D02*
X0086299Y0191553D01*
X0086987Y0191837D02*
X0085223Y0191107D01*
X0083872Y0189756D01*
X0083142Y0187992D01*
X0083142Y0186083D01*
X0083872Y0184318D01*
X0085223Y0182968D01*
X0086987Y0182237D01*
X0088897Y0182237D01*
X0090661Y0182968D01*
X0092011Y0184318D01*
X0092742Y0186083D01*
X0092742Y0187992D01*
X0092011Y0189756D01*
X0090661Y0191107D01*
X0088897Y0191837D01*
X0086987Y0191837D01*
X0089584Y0191553D02*
X0105248Y0191553D01*
X0104818Y0191983D02*
X0106155Y0190646D01*
X0107902Y0189922D01*
X0109793Y0189922D01*
X0111539Y0190646D01*
X0112876Y0191983D01*
X0113600Y0193730D01*
X0113600Y0195621D01*
X0112876Y0197367D01*
X0111539Y0198704D01*
X0109793Y0199428D01*
X0107902Y0199428D01*
X0106155Y0198704D01*
X0104818Y0197367D01*
X0104094Y0195621D01*
X0104094Y0193730D01*
X0104818Y0191983D01*
X0104334Y0193151D02*
X0050769Y0193151D01*
X0051041Y0194750D02*
X0104094Y0194750D01*
X0104396Y0196348D02*
X0050610Y0196348D01*
X0048937Y0197947D02*
X0079892Y0197947D01*
X0079511Y0198328D02*
X0080571Y0197268D01*
X0081956Y0196694D01*
X0083455Y0196694D01*
X0084840Y0197268D01*
X0085900Y0198328D01*
X0086474Y0199713D01*
X0086474Y0201212D01*
X0085900Y0202597D01*
X0084840Y0203657D01*
X0083455Y0204231D01*
X0081956Y0204231D01*
X0080571Y0203657D01*
X0079511Y0202597D01*
X0078937Y0201212D01*
X0078937Y0199713D01*
X0079511Y0198328D01*
X0079007Y0199545D02*
X0004568Y0199545D01*
X0004568Y0197947D02*
X0045608Y0197947D01*
X0043935Y0196348D02*
X0004568Y0196348D01*
X0004568Y0194750D02*
X0043504Y0194750D01*
X0043776Y0193151D02*
X0004568Y0193151D01*
X0004568Y0191553D02*
X0044947Y0191553D01*
X0044070Y0189954D02*
X0004568Y0189954D01*
X0004568Y0188356D02*
X0043292Y0188356D01*
X0043142Y0186757D02*
X0004568Y0186757D01*
X0004568Y0185159D02*
X0043524Y0185159D01*
X0051253Y0183560D02*
X0054631Y0183560D01*
X0055223Y0182968D02*
X0053872Y0184318D01*
X0053142Y0186083D01*
X0053142Y0187992D01*
X0053872Y0189756D01*
X0055223Y0191107D01*
X0056987Y0191837D01*
X0058897Y0191837D01*
X0060661Y0191107D01*
X0062011Y0189756D01*
X0062742Y0187992D01*
X0062742Y0186083D01*
X0062011Y0184318D01*
X0060661Y0182968D01*
X0058897Y0182237D01*
X0056987Y0182237D01*
X0055223Y0182968D01*
X0054479Y0180363D02*
X0051404Y0180363D01*
X0052422Y0178764D02*
X0053462Y0178764D01*
X0053142Y0177166D02*
X0052742Y0177166D01*
X0052528Y0175567D02*
X0053355Y0175567D01*
X0054222Y0173969D02*
X0051662Y0173969D01*
X0061662Y0173969D02*
X0064222Y0173969D01*
X0063355Y0175567D02*
X0062528Y0175567D01*
X0062742Y0177166D02*
X0063142Y0177166D01*
X0063462Y0178764D02*
X0062422Y0178764D01*
X0061404Y0180363D02*
X0064479Y0180363D01*
X0064631Y0183560D02*
X0061253Y0183560D01*
X0062359Y0185159D02*
X0063524Y0185159D01*
X0063142Y0186757D02*
X0062742Y0186757D01*
X0062591Y0188356D02*
X0063292Y0188356D01*
X0064070Y0189954D02*
X0061813Y0189954D01*
X0059584Y0191553D02*
X0066299Y0191553D01*
X0056299Y0191553D02*
X0049597Y0191553D01*
X0051813Y0189954D02*
X0054070Y0189954D01*
X0053292Y0188356D02*
X0052591Y0188356D01*
X0052742Y0186757D02*
X0053142Y0186757D01*
X0053524Y0185159D02*
X0052359Y0185159D01*
X0028517Y0181962D02*
X0104840Y0181962D01*
X0104818Y0181983D02*
X0106155Y0180646D01*
X0107902Y0179922D01*
X0109793Y0179922D01*
X0111539Y0180646D01*
X0112876Y0181983D01*
X0113600Y0183730D01*
X0113600Y0185621D01*
X0112876Y0187367D01*
X0111539Y0188704D01*
X0109793Y0189428D01*
X0107902Y0189428D01*
X0106155Y0188704D01*
X0104818Y0187367D01*
X0104094Y0185621D01*
X0104094Y0183730D01*
X0104818Y0181983D01*
X0104165Y0183560D02*
X0091253Y0183560D01*
X0092359Y0185159D02*
X0104094Y0185159D01*
X0104565Y0186757D02*
X0092742Y0186757D01*
X0092591Y0188356D02*
X0105806Y0188356D01*
X0107825Y0189954D02*
X0091813Y0189954D01*
X0084070Y0189954D02*
X0081813Y0189954D01*
X0082591Y0188356D02*
X0083292Y0188356D01*
X0083142Y0186757D02*
X0082742Y0186757D01*
X0082359Y0185159D02*
X0083524Y0185159D01*
X0084631Y0183560D02*
X0081253Y0183560D01*
X0081404Y0180363D02*
X0084479Y0180363D01*
X0083462Y0178764D02*
X0082422Y0178764D01*
X0082742Y0177166D02*
X0083142Y0177166D01*
X0083355Y0175567D02*
X0082528Y0175567D01*
X0081662Y0173969D02*
X0084222Y0173969D01*
X0091404Y0180363D02*
X0106838Y0180363D01*
X0110856Y0180363D02*
X0116838Y0180363D01*
X0114840Y0181962D02*
X0112855Y0181962D01*
X0113530Y0183560D02*
X0114165Y0183560D01*
X0114094Y0185159D02*
X0113600Y0185159D01*
X0113129Y0186757D02*
X0114565Y0186757D01*
X0115806Y0188356D02*
X0111888Y0188356D01*
X0109869Y0189954D02*
X0117825Y0189954D01*
X0117902Y0189922D02*
X0119793Y0189922D01*
X0121539Y0190646D01*
X0122876Y0191983D01*
X0123600Y0193730D01*
X0123600Y0195621D01*
X0122876Y0197367D01*
X0121539Y0198704D01*
X0119793Y0199428D01*
X0117902Y0199428D01*
X0116155Y0198704D01*
X0114818Y0197367D01*
X0114094Y0195621D01*
X0114094Y0193730D01*
X0114818Y0191983D01*
X0116155Y0190646D01*
X0117902Y0189922D01*
X0119869Y0189954D02*
X0178197Y0189954D01*
X0178240Y0190058D02*
X0177756Y0188890D01*
X0177756Y0187626D01*
X0178240Y0186458D01*
X0179134Y0185564D01*
X0180302Y0185080D01*
X0181566Y0185080D01*
X0182734Y0185564D01*
X0183628Y0186458D01*
X0184112Y0187626D01*
X0184112Y0188890D01*
X0183628Y0190058D01*
X0182734Y0190952D01*
X0181566Y0191436D01*
X0180302Y0191436D01*
X0179134Y0190952D01*
X0178240Y0190058D01*
X0177756Y0188356D02*
X0121888Y0188356D01*
X0123129Y0186757D02*
X0178116Y0186757D01*
X0180112Y0185159D02*
X0123600Y0185159D01*
X0123530Y0183560D02*
X0183159Y0183560D01*
X0184055Y0185159D02*
X0181756Y0185159D01*
X0183752Y0186757D02*
X0184781Y0186757D01*
X0184112Y0188356D02*
X0344846Y0188356D01*
X0344775Y0188426D02*
X0345669Y0187532D01*
X0346837Y0187048D01*
X0348101Y0187048D01*
X0349269Y0187532D01*
X0350163Y0188426D01*
X0350647Y0189594D01*
X0350647Y0190859D01*
X0350163Y0192027D01*
X0349269Y0192921D01*
X0348101Y0193404D01*
X0346837Y0193404D01*
X0345669Y0192921D01*
X0344775Y0192027D01*
X0344291Y0190859D01*
X0344291Y0189594D01*
X0344775Y0188426D01*
X0344291Y0189954D02*
X0183671Y0189954D01*
X0189685Y0186757D02*
X0337405Y0186757D01*
X0337362Y0186739D02*
X0336468Y0185845D01*
X0335984Y0184677D01*
X0335984Y0183413D01*
X0336468Y0182245D01*
X0337362Y0181351D01*
X0338530Y0180867D01*
X0339794Y0180867D01*
X0340962Y0181351D01*
X0341856Y0182245D01*
X0342340Y0183413D01*
X0342340Y0184677D01*
X0341856Y0185845D01*
X0340962Y0186739D01*
X0339794Y0187223D01*
X0338530Y0187223D01*
X0337362Y0186739D01*
X0336184Y0185159D02*
X0190411Y0185159D01*
X0190195Y0183560D02*
X0335984Y0183560D01*
X0336752Y0181962D02*
X0188891Y0181962D01*
X0178426Y0175567D02*
X0238523Y0175567D01*
X0245656Y0191773D02*
X0246920Y0191773D01*
X0248088Y0192257D01*
X0248982Y0193151D01*
X0249466Y0194319D01*
X0249466Y0195583D01*
X0248982Y0196751D01*
X0248088Y0197645D01*
X0246920Y0198129D01*
X0245656Y0198129D01*
X0244488Y0197645D01*
X0243594Y0196751D01*
X0243110Y0195583D01*
X0243110Y0194319D01*
X0243594Y0193151D01*
X0123360Y0193151D01*
X0123600Y0194750D02*
X0243110Y0194750D01*
X0243427Y0196348D02*
X0123299Y0196348D01*
X0122297Y0197947D02*
X0245216Y0197947D01*
X0247360Y0197947D02*
X0461630Y0197947D01*
X0461630Y0199545D02*
X0086404Y0199545D01*
X0086474Y0201144D02*
X0105657Y0201144D01*
X0106155Y0200646D02*
X0107902Y0199922D01*
X0109793Y0199922D01*
X0111539Y0200646D01*
X0112876Y0201983D01*
X0113600Y0203730D01*
X0113600Y0205621D01*
X0112876Y0207367D01*
X0111539Y0208704D01*
X0109793Y0209428D01*
X0107902Y0209428D01*
X0106155Y0208704D01*
X0104818Y0207367D01*
X0104094Y0205621D01*
X0104094Y0203730D01*
X0104818Y0201983D01*
X0106155Y0200646D01*
X0104504Y0202742D02*
X0085755Y0202742D01*
X0087008Y0206824D02*
X0088176Y0206340D01*
X0089440Y0206340D01*
X0090608Y0206824D01*
X0091502Y0207718D01*
X0091986Y0208886D01*
X0091986Y0210150D01*
X0091502Y0211318D01*
X0090608Y0212212D01*
X0089440Y0212696D01*
X0088176Y0212696D01*
X0087008Y0212212D01*
X0086114Y0211318D01*
X0085630Y0210150D01*
X0085630Y0208886D01*
X0086114Y0207718D01*
X0087008Y0206824D01*
X0086294Y0207538D02*
X0004568Y0207538D01*
X0004568Y0209136D02*
X0085630Y0209136D01*
X0085872Y0210735D02*
X0004568Y0210735D01*
X0004568Y0212333D02*
X0087301Y0212333D01*
X0090315Y0212333D02*
X0104673Y0212333D01*
X0104818Y0211983D02*
X0106155Y0210646D01*
X0107902Y0209922D01*
X0109793Y0209922D01*
X0111539Y0210646D01*
X0112876Y0211983D01*
X0113600Y0213730D01*
X0113600Y0215621D01*
X0112876Y0217367D01*
X0111539Y0218704D01*
X0109793Y0219428D01*
X0107902Y0219428D01*
X0106155Y0218704D01*
X0104818Y0217367D01*
X0104094Y0215621D01*
X0104094Y0213730D01*
X0104818Y0211983D01*
X0106066Y0210735D02*
X0091744Y0210735D01*
X0091986Y0209136D02*
X0107198Y0209136D01*
X0104988Y0207538D02*
X0091322Y0207538D01*
X0079656Y0202742D02*
X0004568Y0202742D01*
X0004568Y0201144D02*
X0078937Y0201144D01*
X0085519Y0197947D02*
X0105397Y0197947D01*
X0104094Y0204341D02*
X0004568Y0204341D01*
X0004568Y0205939D02*
X0104226Y0205939D01*
X0110497Y0209136D02*
X0117198Y0209136D01*
X0117902Y0209428D02*
X0116155Y0208704D01*
X0114818Y0207367D01*
X0114094Y0205621D01*
X0114094Y0203730D01*
X0114818Y0201983D01*
X0116155Y0200646D01*
X0117902Y0199922D01*
X0119793Y0199922D01*
X0121539Y0200646D01*
X0122876Y0201983D01*
X0123600Y0203730D01*
X0123600Y0205621D01*
X0122876Y0207367D01*
X0121539Y0208704D01*
X0119793Y0209428D01*
X0117902Y0209428D01*
X0117902Y0209922D02*
X0119793Y0209922D01*
X0121539Y0210646D01*
X0122876Y0211983D01*
X0123600Y0213730D01*
X0123600Y0215621D01*
X0122876Y0217367D01*
X0121539Y0218704D01*
X0119793Y0219428D01*
X0117902Y0219428D01*
X0116155Y0218704D01*
X0114818Y0217367D01*
X0114094Y0215621D01*
X0114094Y0213730D01*
X0114818Y0211983D01*
X0116155Y0210646D01*
X0117902Y0209922D01*
X0116066Y0210735D02*
X0111628Y0210735D01*
X0113022Y0212333D02*
X0114673Y0212333D01*
X0114094Y0213932D02*
X0113600Y0213932D01*
X0113600Y0215530D02*
X0114094Y0215530D01*
X0114719Y0217129D02*
X0112975Y0217129D01*
X0111484Y0218727D02*
X0116210Y0218727D01*
X0116928Y0220326D02*
X0110780Y0220326D01*
X0110672Y0220271D02*
X0111338Y0220610D01*
X0111943Y0221050D01*
X0112472Y0221579D01*
X0112912Y0222184D01*
X0113252Y0222851D01*
X0113483Y0223562D01*
X0113600Y0224301D01*
X0113600Y0224491D01*
X0109032Y0224491D01*
X0109032Y0224859D01*
X0113600Y0224859D01*
X0113600Y0225049D01*
X0113483Y0225788D01*
X0113252Y0226500D01*
X0112912Y0227166D01*
X0112472Y0227771D01*
X0111943Y0228300D01*
X0111338Y0228740D01*
X0110672Y0229080D01*
X0109960Y0229311D01*
X0109221Y0229428D01*
X0109031Y0229428D01*
X0109031Y0224860D01*
X0108663Y0224860D01*
X0108663Y0229428D01*
X0108473Y0229428D01*
X0107734Y0229311D01*
X0107023Y0229080D01*
X0106356Y0228740D01*
X0105751Y0228300D01*
X0105222Y0227771D01*
X0104782Y0227166D01*
X0104443Y0226500D01*
X0104212Y0225788D01*
X0104094Y0225049D01*
X0104094Y0224859D01*
X0108663Y0224859D01*
X0108663Y0224491D01*
X0104094Y0224491D01*
X0104094Y0224301D01*
X0104212Y0223562D01*
X0104443Y0222851D01*
X0104782Y0222184D01*
X0105222Y0221579D01*
X0105751Y0221050D01*
X0106356Y0220610D01*
X0107023Y0220271D01*
X0107734Y0220039D01*
X0108473Y0219922D01*
X0108663Y0219922D01*
X0108663Y0224491D01*
X0109031Y0224491D01*
X0109031Y0219922D01*
X0109221Y0219922D01*
X0109960Y0220039D01*
X0110672Y0220271D01*
X0109031Y0220326D02*
X0108663Y0220326D01*
X0108663Y0221924D02*
X0109031Y0221924D01*
X0109031Y0223523D02*
X0108663Y0223523D01*
X0108663Y0225121D02*
X0109031Y0225121D01*
X0109031Y0226720D02*
X0108663Y0226720D01*
X0108663Y0228318D02*
X0109031Y0228318D01*
X0111919Y0228318D02*
X0115769Y0228318D01*
X0116155Y0228704D02*
X0114818Y0227367D01*
X0114094Y0225621D01*
X0114094Y0223730D01*
X0114818Y0221983D01*
X0116155Y0220646D01*
X0117902Y0219922D01*
X0119793Y0219922D01*
X0121539Y0220646D01*
X0122876Y0221983D01*
X0123600Y0223730D01*
X0123600Y0225621D01*
X0122876Y0227367D01*
X0121539Y0228704D01*
X0119793Y0229428D01*
X0117902Y0229428D01*
X0116155Y0228704D01*
X0114550Y0226720D02*
X0113140Y0226720D01*
X0113589Y0225121D02*
X0114094Y0225121D01*
X0114180Y0223523D02*
X0113470Y0223523D01*
X0112723Y0221924D02*
X0114877Y0221924D01*
X0120766Y0220326D02*
X0363350Y0220326D01*
X0363237Y0220356D02*
X0364313Y0220068D01*
X0365173Y0219954D01*
X0365173Y0227615D01*
X0366773Y0227615D01*
X0366773Y0219954D01*
X0367634Y0220068D01*
X0368709Y0220356D01*
X0369738Y0220782D01*
X0370702Y0221339D01*
X0371585Y0222016D01*
X0372372Y0222804D01*
X0373050Y0223687D01*
X0373607Y0224651D01*
X0374033Y0225680D01*
X0374321Y0226755D01*
X0374434Y0227615D01*
X0366773Y0227615D01*
X0366773Y0229215D01*
X0374434Y0229215D01*
X0374321Y0230076D01*
X0374033Y0231151D01*
X0373607Y0232180D01*
X0373050Y0233144D01*
X0372372Y0234027D01*
X0371585Y0234814D01*
X0370702Y0235492D01*
X0369738Y0236049D01*
X0368709Y0236475D01*
X0367634Y0236763D01*
X0366773Y0236876D01*
X0366773Y0229215D01*
X0365173Y0229215D01*
X0365173Y0227615D01*
X0357512Y0227615D01*
X0357626Y0226755D01*
X0357914Y0225680D01*
X0358340Y0224651D01*
X0358896Y0223687D01*
X0359574Y0222804D01*
X0360361Y0222016D01*
X0361245Y0221339D01*
X0362209Y0220782D01*
X0363237Y0220356D01*
X0364191Y0218727D02*
X0301776Y0218727D01*
X0300655Y0219192D02*
X0303632Y0217959D01*
X0305910Y0215680D01*
X0307143Y0212704D01*
X0307143Y0209481D01*
X0305910Y0206505D01*
X0303632Y0204226D01*
X0300655Y0202993D01*
X0297433Y0202993D01*
X0294456Y0204226D01*
X0292178Y0206505D01*
X0290945Y0209481D01*
X0290945Y0212704D01*
X0292178Y0215680D01*
X0294456Y0217959D01*
X0297433Y0219192D01*
X0300655Y0219192D01*
X0300705Y0220461D02*
X0301780Y0220750D01*
X0302808Y0221176D01*
X0303773Y0221732D01*
X0304656Y0222410D01*
X0305443Y0223197D01*
X0306121Y0224081D01*
X0306677Y0225045D01*
X0307104Y0226073D01*
X0307392Y0227149D01*
X0307505Y0228009D01*
X0299844Y0228009D01*
X0299844Y0220348D01*
X0300705Y0220461D01*
X0299844Y0221924D02*
X0298244Y0221924D01*
X0298244Y0220348D02*
X0298244Y0228009D01*
X0290583Y0228009D01*
X0290696Y0227149D01*
X0290985Y0226073D01*
X0291411Y0225045D01*
X0291967Y0224081D01*
X0292645Y0223197D01*
X0293432Y0222410D01*
X0294316Y0221732D01*
X0295280Y0221176D01*
X0296308Y0220750D01*
X0297384Y0220461D01*
X0298244Y0220348D01*
X0296312Y0218727D02*
X0234847Y0218727D01*
X0233726Y0219192D02*
X0230504Y0219192D01*
X0227527Y0217959D01*
X0225249Y0215680D01*
X0224016Y0212704D01*
X0224016Y0209481D01*
X0225249Y0206505D01*
X0227527Y0204226D01*
X0230504Y0202993D01*
X0233726Y0202993D01*
X0236703Y0204226D01*
X0238981Y0206505D01*
X0240214Y0209481D01*
X0240214Y0212704D01*
X0238981Y0215680D01*
X0236703Y0217959D01*
X0233726Y0219192D01*
X0233775Y0220461D02*
X0232915Y0220348D01*
X0232915Y0228009D01*
X0232915Y0229609D01*
X0240576Y0229609D01*
X0240463Y0230469D01*
X0240174Y0231545D01*
X0239748Y0232573D01*
X0239192Y0233538D01*
X0238514Y0234421D01*
X0237727Y0235208D01*
X0236843Y0235886D01*
X0235879Y0236442D01*
X0234851Y0236868D01*
X0233775Y0237157D01*
X0232915Y0237270D01*
X0232915Y0229609D01*
X0231315Y0229609D01*
X0231315Y0228009D01*
X0232915Y0228009D01*
X0240576Y0228009D01*
X0240463Y0227149D01*
X0240174Y0226073D01*
X0239748Y0225045D01*
X0239192Y0224081D01*
X0238514Y0223197D01*
X0237727Y0222410D01*
X0236843Y0221732D01*
X0235879Y0221176D01*
X0234851Y0220750D01*
X0233775Y0220461D01*
X0232915Y0221924D02*
X0231315Y0221924D01*
X0231315Y0220348D02*
X0231315Y0228009D01*
X0223654Y0228009D01*
X0223767Y0227149D01*
X0224056Y0226073D01*
X0224482Y0225045D01*
X0225038Y0224081D01*
X0225716Y0223197D01*
X0226503Y0222410D01*
X0227386Y0221732D01*
X0228351Y0221176D01*
X0229379Y0220750D01*
X0230455Y0220461D01*
X0231315Y0220348D01*
X0229383Y0218727D02*
X0167918Y0218727D01*
X0166797Y0219192D02*
X0163575Y0219192D01*
X0160598Y0217959D01*
X0158320Y0215680D01*
X0157087Y0212704D01*
X0157087Y0209481D01*
X0158320Y0206505D01*
X0160598Y0204226D01*
X0163575Y0202993D01*
X0166797Y0202993D01*
X0169774Y0204226D01*
X0172052Y0206505D01*
X0173285Y0209481D01*
X0173285Y0212704D01*
X0172052Y0215680D01*
X0169774Y0217959D01*
X0166797Y0219192D01*
X0166846Y0220461D02*
X0167922Y0220750D01*
X0168950Y0221176D01*
X0169914Y0221732D01*
X0170798Y0222410D01*
X0171585Y0223197D01*
X0172263Y0224081D01*
X0172819Y0225045D01*
X0173245Y0226073D01*
X0173533Y0227149D01*
X0173647Y0228009D01*
X0165986Y0228009D01*
X0165986Y0229609D01*
X0173647Y0229609D01*
X0173533Y0230469D01*
X0173245Y0231545D01*
X0172819Y0232573D01*
X0172263Y0233538D01*
X0171585Y0234421D01*
X0170798Y0235208D01*
X0169914Y0235886D01*
X0168950Y0236442D01*
X0167922Y0236868D01*
X0166846Y0237157D01*
X0165986Y0237270D01*
X0165986Y0229609D01*
X0164386Y0229609D01*
X0164386Y0237270D01*
X0163525Y0237157D01*
X0162450Y0236868D01*
X0161421Y0236442D01*
X0160457Y0235886D01*
X0159574Y0235208D01*
X0158787Y0234421D01*
X0158109Y0233538D01*
X0157552Y0232573D01*
X0157126Y0231545D01*
X0156838Y0230469D01*
X0156725Y0229609D01*
X0164386Y0229609D01*
X0164386Y0228009D01*
X0165986Y0228009D01*
X0165986Y0220348D01*
X0166846Y0220461D01*
X0165986Y0221924D02*
X0164386Y0221924D01*
X0164386Y0220348D02*
X0164386Y0228009D01*
X0156725Y0228009D01*
X0156838Y0227149D01*
X0157126Y0226073D01*
X0157552Y0225045D01*
X0158109Y0224081D01*
X0158787Y0223197D01*
X0159574Y0222410D01*
X0160457Y0221732D01*
X0161421Y0221176D01*
X0162450Y0220750D01*
X0163525Y0220461D01*
X0164386Y0220348D01*
X0162454Y0218727D02*
X0121484Y0218727D01*
X0122975Y0217129D02*
X0159768Y0217129D01*
X0158257Y0215530D02*
X0123600Y0215530D01*
X0123600Y0213932D02*
X0157595Y0213932D01*
X0157087Y0212333D02*
X0123022Y0212333D01*
X0121628Y0210735D02*
X0157087Y0210735D01*
X0157230Y0209136D02*
X0120497Y0209136D01*
X0122706Y0207538D02*
X0157892Y0207538D01*
X0158885Y0205939D02*
X0123468Y0205939D01*
X0123600Y0204341D02*
X0160484Y0204341D01*
X0169888Y0204341D02*
X0227413Y0204341D01*
X0225814Y0205939D02*
X0171487Y0205939D01*
X0172480Y0207538D02*
X0224821Y0207538D01*
X0224159Y0209136D02*
X0173142Y0209136D01*
X0173285Y0210735D02*
X0224016Y0210735D01*
X0224016Y0212333D02*
X0173285Y0212333D01*
X0172776Y0213932D02*
X0224524Y0213932D01*
X0225187Y0215530D02*
X0172114Y0215530D01*
X0170604Y0217129D02*
X0226697Y0217129D01*
X0227136Y0221924D02*
X0170165Y0221924D01*
X0171835Y0223523D02*
X0225466Y0223523D01*
X0224450Y0225121D02*
X0172851Y0225121D01*
X0173419Y0226720D02*
X0223882Y0226720D01*
X0223654Y0229609D02*
X0231315Y0229609D01*
X0231315Y0237270D01*
X0230455Y0237157D01*
X0229379Y0236868D01*
X0228351Y0236442D01*
X0227386Y0235886D01*
X0226503Y0235208D01*
X0225716Y0234421D01*
X0225038Y0233538D01*
X0224482Y0232573D01*
X0224056Y0231545D01*
X0223767Y0230469D01*
X0223654Y0229609D01*
X0223695Y0229917D02*
X0173606Y0229917D01*
X0173253Y0231515D02*
X0224048Y0231515D01*
X0224794Y0233114D02*
X0172507Y0233114D01*
X0171293Y0234712D02*
X0179570Y0234712D01*
X0180545Y0234308D02*
X0178008Y0235359D01*
X0176067Y0237301D01*
X0175016Y0239838D01*
X0175016Y0242584D01*
X0176067Y0245120D01*
X0178008Y0247062D01*
X0180545Y0248113D01*
X0183291Y0248113D01*
X0185828Y0247062D01*
X0187770Y0245120D01*
X0188820Y0242584D01*
X0188820Y0239838D01*
X0187770Y0237301D01*
X0185828Y0235359D01*
X0183291Y0234308D01*
X0180545Y0234308D01*
X0184267Y0234712D02*
X0213034Y0234712D01*
X0214010Y0234308D02*
X0211473Y0235359D01*
X0209531Y0237301D01*
X0208480Y0239838D01*
X0208480Y0242584D01*
X0209531Y0245120D01*
X0211473Y0247062D01*
X0214010Y0248113D01*
X0216756Y0248113D01*
X0219293Y0247062D01*
X0221234Y0245120D01*
X0222285Y0242584D01*
X0222285Y0239838D01*
X0221234Y0237301D01*
X0219293Y0235359D01*
X0216756Y0234308D01*
X0214010Y0234308D01*
X0217731Y0234712D02*
X0226008Y0234712D01*
X0228123Y0236311D02*
X0220244Y0236311D01*
X0221486Y0237909D02*
X0242744Y0237909D01*
X0242996Y0237301D02*
X0241945Y0239838D01*
X0241945Y0242584D01*
X0242996Y0245120D01*
X0244937Y0247062D01*
X0247474Y0248113D01*
X0250220Y0248113D01*
X0252757Y0247062D01*
X0254699Y0245120D01*
X0255750Y0242584D01*
X0255750Y0239838D01*
X0254699Y0237301D01*
X0252757Y0235359D01*
X0250220Y0234308D01*
X0247474Y0234308D01*
X0244937Y0235359D01*
X0242996Y0237301D01*
X0243986Y0236311D02*
X0236107Y0236311D01*
X0238222Y0234712D02*
X0246499Y0234712D01*
X0251196Y0234712D02*
X0279963Y0234712D01*
X0280939Y0234308D02*
X0283685Y0234308D01*
X0286222Y0235359D01*
X0288163Y0237301D01*
X0289214Y0239838D01*
X0289214Y0242584D01*
X0288163Y0245120D01*
X0286222Y0247062D01*
X0283685Y0248113D01*
X0280939Y0248113D01*
X0278402Y0247062D01*
X0276460Y0245120D01*
X0275409Y0242584D01*
X0275409Y0239838D01*
X0276460Y0237301D01*
X0278402Y0235359D01*
X0280939Y0234308D01*
X0284660Y0234712D02*
X0292937Y0234712D01*
X0292645Y0234421D02*
X0291967Y0233538D01*
X0291411Y0232573D01*
X0290985Y0231545D01*
X0290696Y0230469D01*
X0290583Y0229609D01*
X0298244Y0229609D01*
X0298244Y0228009D01*
X0299844Y0228009D01*
X0299844Y0229609D01*
X0298244Y0229609D01*
X0298244Y0237270D01*
X0297384Y0237157D01*
X0296308Y0236868D01*
X0295280Y0236442D01*
X0294316Y0235886D01*
X0293432Y0235208D01*
X0292645Y0234421D01*
X0291723Y0233114D02*
X0239436Y0233114D01*
X0240182Y0231515D02*
X0290977Y0231515D01*
X0290624Y0229917D02*
X0240535Y0229917D01*
X0240348Y0226720D02*
X0290811Y0226720D01*
X0291379Y0225121D02*
X0239780Y0225121D01*
X0238764Y0223523D02*
X0292395Y0223523D01*
X0294065Y0221924D02*
X0237094Y0221924D01*
X0232915Y0223523D02*
X0231315Y0223523D01*
X0231315Y0225121D02*
X0232915Y0225121D01*
X0232915Y0226720D02*
X0231315Y0226720D01*
X0231315Y0228318D02*
X0165986Y0228318D01*
X0165986Y0226720D02*
X0164386Y0226720D01*
X0164386Y0228318D02*
X0121925Y0228318D01*
X0123145Y0226720D02*
X0156953Y0226720D01*
X0157521Y0225121D02*
X0123600Y0225121D01*
X0123514Y0223523D02*
X0158537Y0223523D01*
X0160207Y0221924D02*
X0122818Y0221924D01*
X0106915Y0220326D02*
X0091128Y0220326D01*
X0091108Y0220373D02*
X0090214Y0221267D01*
X0089046Y0221751D01*
X0087782Y0221751D01*
X0086614Y0221267D01*
X0085720Y0220373D01*
X0085236Y0219205D01*
X0085236Y0217941D01*
X0085720Y0216773D01*
X0086614Y0215879D01*
X0087782Y0215395D01*
X0089046Y0215395D01*
X0090214Y0215879D01*
X0091108Y0216773D01*
X0091592Y0217941D01*
X0091592Y0219205D01*
X0091108Y0220373D01*
X0091592Y0218727D02*
X0106210Y0218727D01*
X0104719Y0217129D02*
X0091256Y0217129D01*
X0089373Y0215530D02*
X0104094Y0215530D01*
X0104094Y0213932D02*
X0071535Y0213932D01*
X0071514Y0213910D02*
X0072408Y0214804D01*
X0072891Y0215972D01*
X0072891Y0216182D01*
X0073495Y0216182D01*
X0074663Y0216666D01*
X0075557Y0217560D01*
X0076041Y0218728D01*
X0076041Y0219992D01*
X0075557Y0221160D01*
X0074663Y0222054D01*
X0073495Y0222538D01*
X0072231Y0222538D01*
X0071063Y0222054D01*
X0070169Y0221160D01*
X0069713Y0220061D01*
X0069258Y0221160D01*
X0068364Y0222054D01*
X0067196Y0222538D01*
X0065932Y0222538D01*
X0064764Y0222054D01*
X0063870Y0221160D01*
X0063414Y0220061D01*
X0062959Y0221160D01*
X0062065Y0222054D01*
X0060897Y0222538D01*
X0059632Y0222538D01*
X0058464Y0222054D01*
X0057570Y0221160D01*
X0057087Y0219992D01*
X0057087Y0219782D01*
X0056483Y0219782D01*
X0055315Y0219298D01*
X0054421Y0218404D01*
X0053937Y0217236D01*
X0053937Y0215972D01*
X0054421Y0214804D01*
X0055315Y0213910D01*
X0056483Y0213426D01*
X0057747Y0213426D01*
X0058915Y0213910D01*
X0059809Y0214804D01*
X0060265Y0215904D01*
X0060720Y0214804D01*
X0061614Y0213910D01*
X0062782Y0213426D01*
X0064046Y0213426D01*
X0065214Y0213910D01*
X0066108Y0214804D01*
X0066564Y0215904D01*
X0067019Y0214804D01*
X0067913Y0213910D01*
X0069081Y0213426D01*
X0070346Y0213426D01*
X0071514Y0213910D01*
X0072708Y0215530D02*
X0087455Y0215530D01*
X0085573Y0217129D02*
X0075126Y0217129D01*
X0076041Y0218727D02*
X0085236Y0218727D01*
X0085700Y0220326D02*
X0075903Y0220326D01*
X0074793Y0221924D02*
X0104971Y0221924D01*
X0104224Y0223523D02*
X0053836Y0223523D01*
X0053994Y0223142D02*
X0053510Y0224310D01*
X0052616Y0225204D01*
X0051448Y0225688D01*
X0050184Y0225688D01*
X0049016Y0225204D01*
X0048122Y0224310D01*
X0047638Y0223142D01*
X0047638Y0221878D01*
X0048122Y0220710D01*
X0049016Y0219816D01*
X0050184Y0219332D01*
X0051448Y0219332D01*
X0052616Y0219816D01*
X0053510Y0220710D01*
X0053994Y0221878D01*
X0053994Y0223142D01*
X0053994Y0221924D02*
X0058334Y0221924D01*
X0057225Y0220326D02*
X0053126Y0220326D01*
X0054744Y0218727D02*
X0004568Y0218727D01*
X0004568Y0217129D02*
X0053937Y0217129D01*
X0054120Y0215530D02*
X0004568Y0215530D01*
X0004568Y0213932D02*
X0055293Y0213932D01*
X0058937Y0213932D02*
X0061592Y0213932D01*
X0060419Y0215530D02*
X0060110Y0215530D01*
X0065236Y0213932D02*
X0067892Y0213932D01*
X0066718Y0215530D02*
X0066409Y0215530D01*
X0063524Y0220326D02*
X0063304Y0220326D01*
X0062195Y0221924D02*
X0064634Y0221924D01*
X0068494Y0221924D02*
X0070933Y0221924D01*
X0069823Y0220326D02*
X0069604Y0220326D01*
X0052699Y0225121D02*
X0104106Y0225121D01*
X0104555Y0226720D02*
X0044713Y0226720D01*
X0044713Y0228318D02*
X0105776Y0228318D01*
X0112706Y0207538D02*
X0114988Y0207538D01*
X0114226Y0205939D02*
X0113468Y0205939D01*
X0113600Y0204341D02*
X0114094Y0204341D01*
X0114504Y0202742D02*
X0113191Y0202742D01*
X0112037Y0201144D02*
X0115657Y0201144D01*
X0115397Y0197947D02*
X0112297Y0197947D01*
X0113299Y0196348D02*
X0114396Y0196348D01*
X0114094Y0194750D02*
X0113600Y0194750D01*
X0113360Y0193151D02*
X0114334Y0193151D01*
X0115248Y0191553D02*
X0112446Y0191553D01*
X0122446Y0191553D02*
X0344579Y0191553D01*
X0346226Y0193151D02*
X0248983Y0193151D01*
X0249466Y0194750D02*
X0461630Y0194750D01*
X0461630Y0196348D02*
X0249149Y0196348D01*
X0245656Y0191773D02*
X0244488Y0192257D01*
X0243594Y0193151D01*
X0236817Y0204341D02*
X0294342Y0204341D01*
X0292743Y0205939D02*
X0238416Y0205939D01*
X0239409Y0207538D02*
X0291750Y0207538D01*
X0291088Y0209136D02*
X0240071Y0209136D01*
X0240214Y0210735D02*
X0290945Y0210735D01*
X0290945Y0212333D02*
X0240214Y0212333D01*
X0239705Y0213932D02*
X0291454Y0213932D01*
X0292116Y0215530D02*
X0239043Y0215530D01*
X0237533Y0217129D02*
X0293626Y0217129D01*
X0298244Y0223523D02*
X0299844Y0223523D01*
X0299844Y0225121D02*
X0298244Y0225121D01*
X0298244Y0226720D02*
X0299844Y0226720D01*
X0299844Y0228318D02*
X0365173Y0228318D01*
X0365173Y0229215D02*
X0357512Y0229215D01*
X0357626Y0230076D01*
X0357914Y0231151D01*
X0358340Y0232180D01*
X0358896Y0233144D01*
X0359574Y0234027D01*
X0360361Y0234814D01*
X0361245Y0235492D01*
X0362209Y0236049D01*
X0363237Y0236475D01*
X0364313Y0236763D01*
X0365173Y0236876D01*
X0365173Y0229215D01*
X0365173Y0229917D02*
X0366773Y0229917D01*
X0366773Y0231515D02*
X0365173Y0231515D01*
X0365173Y0233114D02*
X0366773Y0233114D01*
X0366773Y0234712D02*
X0365173Y0234712D01*
X0365173Y0236311D02*
X0366773Y0236311D01*
X0369105Y0236311D02*
X0377450Y0236311D01*
X0376854Y0236907D02*
X0378796Y0234965D01*
X0381333Y0233915D01*
X0384078Y0233915D01*
X0386615Y0234965D01*
X0388557Y0236907D01*
X0389608Y0239444D01*
X0389608Y0242190D01*
X0388557Y0244727D01*
X0386615Y0246668D01*
X0384078Y0247719D01*
X0381333Y0247719D01*
X0378796Y0246668D01*
X0376854Y0244727D01*
X0375803Y0242190D01*
X0375803Y0239444D01*
X0376854Y0236907D01*
X0376439Y0237909D02*
X0355508Y0237909D01*
X0355092Y0236907D02*
X0356143Y0239444D01*
X0356143Y0242190D01*
X0355092Y0244727D01*
X0353151Y0246668D01*
X0350614Y0247719D01*
X0347868Y0247719D01*
X0345331Y0246668D01*
X0343389Y0244727D01*
X0342339Y0242190D01*
X0342339Y0239444D01*
X0343389Y0236907D01*
X0345331Y0234965D01*
X0347868Y0233915D01*
X0350614Y0233915D01*
X0353151Y0234965D01*
X0355092Y0236907D01*
X0354496Y0236311D02*
X0362842Y0236311D01*
X0360259Y0234712D02*
X0352540Y0234712D01*
X0358065Y0231515D02*
X0307111Y0231515D01*
X0307104Y0231545D02*
X0306677Y0232573D01*
X0306121Y0233538D01*
X0305443Y0234421D01*
X0304656Y0235208D01*
X0303773Y0235886D01*
X0302808Y0236442D01*
X0301780Y0236868D01*
X0300705Y0237157D01*
X0299844Y0237270D01*
X0299844Y0229609D01*
X0307505Y0229609D01*
X0307392Y0230469D01*
X0307104Y0231545D01*
X0307464Y0229917D02*
X0357605Y0229917D01*
X0357635Y0226720D02*
X0307277Y0226720D01*
X0306709Y0225121D02*
X0358145Y0225121D01*
X0359022Y0223523D02*
X0305693Y0223523D01*
X0304023Y0221924D02*
X0360481Y0221924D01*
X0361385Y0217565D02*
X0359107Y0215287D01*
X0357874Y0212310D01*
X0357874Y0209088D01*
X0359107Y0206111D01*
X0361385Y0203833D01*
X0364362Y0202600D01*
X0367584Y0202600D01*
X0370561Y0203833D01*
X0372839Y0206111D01*
X0374072Y0209088D01*
X0374072Y0212310D01*
X0372839Y0215287D01*
X0370561Y0217565D01*
X0367584Y0218798D01*
X0364362Y0218798D01*
X0361385Y0217565D01*
X0360949Y0217129D02*
X0304462Y0217129D01*
X0305972Y0215530D02*
X0359351Y0215530D01*
X0358546Y0213932D02*
X0306635Y0213932D01*
X0307143Y0212333D02*
X0357884Y0212333D01*
X0357874Y0210735D02*
X0307143Y0210735D01*
X0307000Y0209136D02*
X0357874Y0209136D01*
X0358516Y0207538D02*
X0306338Y0207538D01*
X0305345Y0205939D02*
X0359279Y0205939D01*
X0360877Y0204341D02*
X0303746Y0204341D01*
X0340920Y0186757D02*
X0461630Y0186757D01*
X0461630Y0185159D02*
X0342141Y0185159D01*
X0342340Y0183560D02*
X0461630Y0183560D01*
X0461630Y0181962D02*
X0341573Y0181962D01*
X0350093Y0188356D02*
X0461630Y0188356D01*
X0461630Y0189954D02*
X0350647Y0189954D01*
X0350360Y0191553D02*
X0461630Y0191553D01*
X0461630Y0193151D02*
X0348713Y0193151D01*
X0364018Y0202742D02*
X0123191Y0202742D01*
X0122037Y0201144D02*
X0461630Y0201144D01*
X0461630Y0202742D02*
X0367928Y0202742D01*
X0371069Y0204341D02*
X0461630Y0204341D01*
X0461630Y0205939D02*
X0372668Y0205939D01*
X0373430Y0207538D02*
X0461630Y0207538D01*
X0461630Y0209136D02*
X0374072Y0209136D01*
X0374072Y0210735D02*
X0461630Y0210735D01*
X0461630Y0212333D02*
X0374063Y0212333D01*
X0373401Y0213932D02*
X0461630Y0213932D01*
X0461630Y0215530D02*
X0372596Y0215530D01*
X0370997Y0217129D02*
X0461630Y0217129D01*
X0461630Y0218727D02*
X0367755Y0218727D01*
X0368597Y0220326D02*
X0461630Y0220326D01*
X0461630Y0221924D02*
X0371465Y0221924D01*
X0372924Y0223523D02*
X0461630Y0223523D01*
X0461630Y0225121D02*
X0373801Y0225121D01*
X0374311Y0226720D02*
X0461630Y0226720D01*
X0461630Y0228318D02*
X0366773Y0228318D01*
X0366773Y0226720D02*
X0365173Y0226720D01*
X0365173Y0225121D02*
X0366773Y0225121D01*
X0366773Y0223523D02*
X0365173Y0223523D01*
X0365173Y0221924D02*
X0366773Y0221924D01*
X0366773Y0220326D02*
X0365173Y0220326D01*
X0374342Y0229917D02*
X0461630Y0229917D01*
X0461630Y0231515D02*
X0373882Y0231515D01*
X0373067Y0233114D02*
X0461630Y0233114D01*
X0461630Y0234712D02*
X0457661Y0234712D01*
X0459527Y0236311D02*
X0461630Y0236311D01*
X0461630Y0237909D02*
X0460858Y0237909D01*
X0461520Y0239508D02*
X0461630Y0239508D01*
X0448301Y0234712D02*
X0386005Y0234712D01*
X0387961Y0236311D02*
X0446435Y0236311D01*
X0445104Y0237909D02*
X0388972Y0237909D01*
X0389608Y0239508D02*
X0444442Y0239508D01*
X0443913Y0241106D02*
X0389608Y0241106D01*
X0389395Y0242705D02*
X0443913Y0242705D01*
X0443913Y0244303D02*
X0388732Y0244303D01*
X0387382Y0245902D02*
X0444539Y0245902D01*
X0445201Y0247500D02*
X0384607Y0247500D01*
X0380804Y0247500D02*
X0351142Y0247500D01*
X0353917Y0245902D02*
X0378029Y0245902D01*
X0376679Y0244303D02*
X0355268Y0244303D01*
X0355930Y0242705D02*
X0376016Y0242705D01*
X0375803Y0241106D02*
X0356143Y0241106D01*
X0356143Y0239508D02*
X0375803Y0239508D01*
X0379406Y0234712D02*
X0371687Y0234712D01*
X0358879Y0233114D02*
X0306365Y0233114D01*
X0305152Y0234712D02*
X0313428Y0234712D01*
X0314403Y0234308D02*
X0317149Y0234308D01*
X0319686Y0235359D01*
X0321628Y0237301D01*
X0322679Y0239838D01*
X0322679Y0242584D01*
X0321628Y0245120D01*
X0319686Y0247062D01*
X0317149Y0248113D01*
X0314403Y0248113D01*
X0311866Y0247062D01*
X0309925Y0245120D01*
X0308874Y0242584D01*
X0308874Y0239838D01*
X0309925Y0237301D01*
X0311866Y0235359D01*
X0314403Y0234308D01*
X0318125Y0234712D02*
X0345942Y0234712D01*
X0343986Y0236311D02*
X0320638Y0236311D01*
X0321880Y0237909D02*
X0342974Y0237909D01*
X0342339Y0239508D02*
X0322542Y0239508D01*
X0322679Y0241106D02*
X0342339Y0241106D01*
X0342552Y0242705D02*
X0322628Y0242705D01*
X0321966Y0244303D02*
X0343214Y0244303D01*
X0344565Y0245902D02*
X0320846Y0245902D01*
X0318628Y0247500D02*
X0347340Y0247500D01*
X0312925Y0247500D02*
X0285163Y0247500D01*
X0287382Y0245902D02*
X0310706Y0245902D01*
X0309586Y0244303D02*
X0288502Y0244303D01*
X0289164Y0242705D02*
X0308924Y0242705D01*
X0308874Y0241106D02*
X0289214Y0241106D01*
X0289078Y0239508D02*
X0309011Y0239508D01*
X0309673Y0237909D02*
X0288415Y0237909D01*
X0287173Y0236311D02*
X0295052Y0236311D01*
X0298244Y0236311D02*
X0299844Y0236311D01*
X0299844Y0234712D02*
X0298244Y0234712D01*
X0298244Y0233114D02*
X0299844Y0233114D01*
X0299844Y0231515D02*
X0298244Y0231515D01*
X0298244Y0229917D02*
X0299844Y0229917D01*
X0298244Y0228318D02*
X0232915Y0228318D01*
X0232915Y0229917D02*
X0231315Y0229917D01*
X0231315Y0231515D02*
X0232915Y0231515D01*
X0232915Y0233114D02*
X0231315Y0233114D01*
X0231315Y0234712D02*
X0232915Y0234712D01*
X0232915Y0236311D02*
X0231315Y0236311D01*
X0222148Y0239508D02*
X0242081Y0239508D01*
X0241945Y0241106D02*
X0222285Y0241106D01*
X0222235Y0242705D02*
X0241995Y0242705D01*
X0242657Y0244303D02*
X0221573Y0244303D01*
X0220453Y0245902D02*
X0243777Y0245902D01*
X0245996Y0247500D02*
X0218234Y0247500D01*
X0212531Y0247500D02*
X0184770Y0247500D01*
X0186988Y0245902D02*
X0210313Y0245902D01*
X0209193Y0244303D02*
X0188108Y0244303D01*
X0188770Y0242705D02*
X0208531Y0242705D01*
X0208480Y0241106D02*
X0188820Y0241106D01*
X0188684Y0239508D02*
X0208617Y0239508D01*
X0209279Y0237909D02*
X0188022Y0237909D01*
X0186780Y0236311D02*
X0210521Y0236311D01*
X0179066Y0247500D02*
X0151305Y0247500D01*
X0152363Y0247062D02*
X0149827Y0248113D01*
X0147081Y0248113D01*
X0144544Y0247062D01*
X0142602Y0245120D01*
X0141551Y0242584D01*
X0141551Y0239838D01*
X0142602Y0237301D01*
X0144544Y0235359D01*
X0147081Y0234308D01*
X0149827Y0234308D01*
X0152363Y0235359D01*
X0154305Y0237301D01*
X0155356Y0239838D01*
X0155356Y0242584D01*
X0154305Y0245120D01*
X0152363Y0247062D01*
X0153524Y0245902D02*
X0176848Y0245902D01*
X0175728Y0244303D02*
X0154644Y0244303D01*
X0155306Y0242705D02*
X0175066Y0242705D01*
X0175016Y0241106D02*
X0155356Y0241106D01*
X0155219Y0239508D02*
X0175152Y0239508D01*
X0175814Y0237909D02*
X0154557Y0237909D01*
X0153315Y0236311D02*
X0161194Y0236311D01*
X0159078Y0234712D02*
X0150802Y0234712D01*
X0146105Y0234712D02*
X0044713Y0234712D01*
X0044713Y0233114D02*
X0157864Y0233114D01*
X0157118Y0231515D02*
X0044713Y0231515D01*
X0044713Y0229917D02*
X0156765Y0229917D01*
X0164386Y0229917D02*
X0165986Y0229917D01*
X0165986Y0231515D02*
X0164386Y0231515D01*
X0164386Y0233114D02*
X0165986Y0233114D01*
X0165986Y0234712D02*
X0164386Y0234712D01*
X0164386Y0236311D02*
X0165986Y0236311D01*
X0169178Y0236311D02*
X0177056Y0236311D01*
X0165986Y0225121D02*
X0164386Y0225121D01*
X0164386Y0223523D02*
X0165986Y0223523D01*
X0143592Y0236311D02*
X0044713Y0236311D01*
X0044713Y0237909D02*
X0142350Y0237909D01*
X0141688Y0239508D02*
X0044713Y0239508D01*
X0044713Y0241106D02*
X0141551Y0241106D01*
X0141601Y0242705D02*
X0044713Y0242705D01*
X0044713Y0244303D02*
X0142264Y0244303D01*
X0143383Y0245902D02*
X0044713Y0245902D01*
X0044713Y0247500D02*
X0145602Y0247500D01*
X0048933Y0225121D02*
X0044713Y0225121D01*
X0044713Y0223523D02*
X0047796Y0223523D01*
X0047638Y0221924D02*
X0044713Y0221924D01*
X0044713Y0220326D02*
X0048505Y0220326D01*
X0044713Y0249099D02*
X0446668Y0249099D01*
X0310915Y0236311D02*
X0303036Y0236311D01*
X0277450Y0236311D02*
X0253709Y0236311D01*
X0254951Y0237909D02*
X0276208Y0237909D01*
X0275546Y0239508D02*
X0255613Y0239508D01*
X0255750Y0241106D02*
X0275409Y0241106D01*
X0275460Y0242705D02*
X0255699Y0242705D01*
X0255037Y0244303D02*
X0276122Y0244303D01*
X0277242Y0245902D02*
X0253917Y0245902D01*
X0251699Y0247500D02*
X0279460Y0247500D01*
X0098897Y0159582D02*
X0092083Y0159582D01*
X0092742Y0157984D02*
X0097833Y0157984D01*
X0097638Y0156385D02*
X0092742Y0156385D01*
X0092205Y0154787D02*
X0098145Y0154787D01*
X0039989Y0022110D02*
X0018555Y0022110D01*
X0435313Y0039694D02*
X0461630Y0039694D01*
X0461630Y0038095D02*
X0438177Y0038095D01*
X0439776Y0036497D02*
X0449747Y0036497D01*
X0447034Y0034898D02*
X0440649Y0034898D01*
X0441311Y0033300D02*
X0445436Y0033300D01*
X0444691Y0031701D02*
X0441576Y0031701D01*
X0441576Y0030103D02*
X0444028Y0030103D01*
X0443913Y0028504D02*
X0441414Y0028504D01*
X0440752Y0026906D02*
X0443913Y0026906D01*
X0444291Y0025307D02*
X0440025Y0025307D01*
X0438427Y0023709D02*
X0444953Y0023709D01*
X0446069Y0022110D02*
X0435914Y0022110D01*
X0458928Y0034898D02*
X0461630Y0034898D01*
X0461630Y0033300D02*
X0460526Y0033300D01*
X0461272Y0031701D02*
X0461630Y0031701D01*
X0461630Y0036497D02*
X0456215Y0036497D01*
D22*
X0137036Y0089439D03*
X0130934Y0089439D03*
X0137036Y0096132D03*
X0122666Y0103415D03*
X0122666Y0108533D03*
X0122666Y0113652D03*
D23*
X0078769Y0092982D03*
M02*
