%
M48
M72
T01C0.01181
T02C0.02362
T03C0.02756
T04C0.03150
T05C0.03200
T06C0.03937
T07C0.04000
T08C0.04331
T09C0.04724
T10C0.08268
T11C0.08661
T12C0.09449
T13C0.11800
T14C0.12598
T15C0.12992
%
T01
X173269Y81139
X185106Y88158
X176632Y102983
X185658Y113061
X177832Y114783
X191957Y123297
X195501Y122904
X198257Y125659
X205343Y125659
X216761Y120541
X222272Y127234
X221879Y131171
X209280Y135108
X209280Y139439
X210068Y143376
X203769Y146132
X201406Y142982
X199044Y145738
X193926Y145738
X190383Y145344
X180934Y149281
X184871Y152825
X196682Y155974
X206524Y156762
X218729Y148100
X230277Y161274
X245698Y164833
X240847Y173397
X246682Y178415
X239989Y194754
X187233Y184715
X185265Y181171
X176997Y178415
X180934Y188258
X114005Y158730
X138020Y146526
X176997Y133927
X238020Y134715
X238020Y143376
X238020Y126053
X255343Y121722
X298753Y103183
X306682Y114557
X305113Y117712
X312580Y123147
X318335Y122904
X318335Y126447
X321879Y127234
X325422Y128022
X328572Y129596
X331721Y128415
X328178Y122904
X336839Y120935
X336839Y117392
X341957Y116604
X341957Y122116
X341957Y129596
X328965Y136289
X328965Y139833
X328965Y143376
X321879Y141801
X321879Y145738
X317942Y145738
X313611Y142195
X302981Y148100
X308493Y135108
X318335Y132352
X338414Y148100
X341170Y154006
X330934Y157943
X357902Y153415
X358099Y144163
X358099Y135305
X358296Y126250
X376603Y87864
X334477Y88652
X319910Y81565
X310331Y89178
X228965Y88258
X325383Y184045
X333690Y190226
X88808Y209518
X82312Y210305
X88414Y218573
X72863Y219360
X69713Y216604
X66564Y219360
X63414Y216604
X60265Y219360
X57115Y216604
X50816Y222510
X41367Y203612
X35068Y203612
X28769Y203612
X82312Y239439
X44517Y246132
T02
X61839Y200463
X47272Y194557
X82706Y200463
X109674Y150856
X109674Y143770
X167351Y169360
X191564Y176053
X206131Y164636
X242395Y161845
X297469Y131959
X295044Y111518
X302981Y91998
X325422Y92195
X341170Y91998
X349241Y91998
X358493Y91998
X272779Y91811
X263724Y81181
X236839Y92195
X227391Y92195
X219517Y92195
X204950Y92195
X172194Y110343
X150306Y91911
X188020Y131171
X248650Y105187
X328965Y166604
X328769Y176329
X352115Y169360
X354438Y160856
X302194Y178022
T03
X137036Y96132
X137036Y89439
X130934Y89439
X130934Y83533
X122666Y103415
X122666Y108533
X122666Y113652
T04
X78769Y92982
X70501Y68967
T05
X246013Y115974
X246013Y125974
X246013Y135974
X246013Y145974
X276013Y145974
X276013Y135974
X276013Y125974
X276013Y115974
X366603Y123455
X366603Y133455
X366603Y143455
X366603Y153455
X396603Y153455
X396603Y143455
X396603Y133455
X396603Y123455
T06
X166997Y141368
X147312Y141368
X118847Y184675
X108847Y184675
X108847Y194675
X118847Y194675
X118847Y204675
X108847Y204675
X108847Y214675
X118847Y214675
X118847Y224675
X108847Y224675
X25894Y177904
X15894Y177904
X15894Y167904
X25894Y167904
X25894Y157904
X15894Y157904
X15894Y147904
X25894Y147904
X25894Y137904
X15894Y137904
X15894Y127904
X25894Y127904
X25894Y117904
X15894Y117904
X15894Y107904
X25894Y107904
X25894Y97904
X15894Y97904
X15894Y87904
X25894Y87904
T07
X47942Y117037
X57942Y117037
X67942Y117037
X77942Y117037
X87942Y117037
X97942Y117037
X97942Y127037
X87942Y127037
X77942Y127037
X67942Y127037
X57942Y127037
X47942Y127037
X47942Y147037
X57942Y147037
X67942Y147037
X77942Y147037
X87942Y147037
X97942Y147037
X97942Y157037
X87942Y157037
X77942Y157037
X67942Y157037
X57942Y157037
X47942Y157037
X47942Y177037
X57942Y177037
X67942Y177037
X77942Y177037
X87942Y177037
X87942Y187037
X77942Y187037
X67942Y187037
X57942Y187037
X47942Y187037
X138257Y173967
X148257Y173967
X158257Y173967
X158257Y163967
X148257Y163967
X138257Y163967
X257548Y165738
X267548Y165738
X277548Y165738
X277548Y175738
X267548Y175738
X257548Y175738
T08
X102194Y73612
X102194Y63612
X102194Y53612
X102194Y33612
T09
X143532Y44557
X159280Y28809
X175028Y41604
X217548Y44557
X233296Y28809
X249044Y41604
X295107Y44557
X310855Y28809
X326603Y41604
X369123Y44557
X384871Y28809
X400619Y41604
T10
X364989Y240817
X331524Y240817
X303965Y241211
X270501Y241211
X242942Y241211
X209477Y241211
X181918Y241211
X148454Y241211
T11
X165186Y211093
X226209Y211093
X287233Y211093
X348257Y210699
T12
X348257Y228415
X287233Y228809
X226209Y228809
X165186Y228809
T13
X75665Y48494
X60955Y32183
T14
X11643Y28022
X60855Y61005
X11643Y242589
X432902Y242589
X432902Y28022
T15
X413611Y30778
X356131Y30778
X339595Y30778
X282115Y30778
X262036Y30778
X204556Y30778
X188020Y30778
X130540Y30778
M30
