G75*
%MOIN*%
%OFA0B0*%
%FSLAX25Y25*%
%IPPOS*%
%LPD*%
%AMOC8*
5,1,8,0,0,1.08239X$1,22.5*
%
%ADD10C,0.00000*%
D10*
X0001800Y0018179D02*
X0442745Y0018179D01*
X0442745Y0252431D01*
X0001800Y0252431D01*
X0001800Y0018179D01*
X0005344Y0028022D02*
X0005346Y0028180D01*
X0005352Y0028338D01*
X0005362Y0028496D01*
X0005376Y0028654D01*
X0005394Y0028811D01*
X0005415Y0028968D01*
X0005441Y0029124D01*
X0005471Y0029280D01*
X0005504Y0029435D01*
X0005542Y0029588D01*
X0005583Y0029741D01*
X0005628Y0029893D01*
X0005677Y0030044D01*
X0005730Y0030193D01*
X0005786Y0030341D01*
X0005846Y0030487D01*
X0005910Y0030632D01*
X0005978Y0030775D01*
X0006049Y0030917D01*
X0006123Y0031057D01*
X0006201Y0031194D01*
X0006283Y0031330D01*
X0006367Y0031464D01*
X0006456Y0031595D01*
X0006547Y0031724D01*
X0006642Y0031851D01*
X0006739Y0031976D01*
X0006840Y0032098D01*
X0006944Y0032217D01*
X0007051Y0032334D01*
X0007161Y0032448D01*
X0007274Y0032559D01*
X0007389Y0032668D01*
X0007507Y0032773D01*
X0007628Y0032875D01*
X0007751Y0032975D01*
X0007877Y0033071D01*
X0008005Y0033164D01*
X0008135Y0033254D01*
X0008268Y0033340D01*
X0008403Y0033424D01*
X0008539Y0033503D01*
X0008678Y0033580D01*
X0008819Y0033652D01*
X0008961Y0033722D01*
X0009105Y0033787D01*
X0009251Y0033849D01*
X0009398Y0033907D01*
X0009547Y0033962D01*
X0009697Y0034013D01*
X0009848Y0034060D01*
X0010000Y0034103D01*
X0010153Y0034142D01*
X0010308Y0034178D01*
X0010463Y0034209D01*
X0010619Y0034237D01*
X0010775Y0034261D01*
X0010932Y0034281D01*
X0011090Y0034297D01*
X0011247Y0034309D01*
X0011406Y0034317D01*
X0011564Y0034321D01*
X0011722Y0034321D01*
X0011880Y0034317D01*
X0012039Y0034309D01*
X0012196Y0034297D01*
X0012354Y0034281D01*
X0012511Y0034261D01*
X0012667Y0034237D01*
X0012823Y0034209D01*
X0012978Y0034178D01*
X0013133Y0034142D01*
X0013286Y0034103D01*
X0013438Y0034060D01*
X0013589Y0034013D01*
X0013739Y0033962D01*
X0013888Y0033907D01*
X0014035Y0033849D01*
X0014181Y0033787D01*
X0014325Y0033722D01*
X0014467Y0033652D01*
X0014608Y0033580D01*
X0014747Y0033503D01*
X0014883Y0033424D01*
X0015018Y0033340D01*
X0015151Y0033254D01*
X0015281Y0033164D01*
X0015409Y0033071D01*
X0015535Y0032975D01*
X0015658Y0032875D01*
X0015779Y0032773D01*
X0015897Y0032668D01*
X0016012Y0032559D01*
X0016125Y0032448D01*
X0016235Y0032334D01*
X0016342Y0032217D01*
X0016446Y0032098D01*
X0016547Y0031976D01*
X0016644Y0031851D01*
X0016739Y0031724D01*
X0016830Y0031595D01*
X0016919Y0031464D01*
X0017003Y0031330D01*
X0017085Y0031194D01*
X0017163Y0031057D01*
X0017237Y0030917D01*
X0017308Y0030775D01*
X0017376Y0030632D01*
X0017440Y0030487D01*
X0017500Y0030341D01*
X0017556Y0030193D01*
X0017609Y0030044D01*
X0017658Y0029893D01*
X0017703Y0029741D01*
X0017744Y0029588D01*
X0017782Y0029435D01*
X0017815Y0029280D01*
X0017845Y0029124D01*
X0017871Y0028968D01*
X0017892Y0028811D01*
X0017910Y0028654D01*
X0017924Y0028496D01*
X0017934Y0028338D01*
X0017940Y0028180D01*
X0017942Y0028022D01*
X0017940Y0027864D01*
X0017934Y0027706D01*
X0017924Y0027548D01*
X0017910Y0027390D01*
X0017892Y0027233D01*
X0017871Y0027076D01*
X0017845Y0026920D01*
X0017815Y0026764D01*
X0017782Y0026609D01*
X0017744Y0026456D01*
X0017703Y0026303D01*
X0017658Y0026151D01*
X0017609Y0026000D01*
X0017556Y0025851D01*
X0017500Y0025703D01*
X0017440Y0025557D01*
X0017376Y0025412D01*
X0017308Y0025269D01*
X0017237Y0025127D01*
X0017163Y0024987D01*
X0017085Y0024850D01*
X0017003Y0024714D01*
X0016919Y0024580D01*
X0016830Y0024449D01*
X0016739Y0024320D01*
X0016644Y0024193D01*
X0016547Y0024068D01*
X0016446Y0023946D01*
X0016342Y0023827D01*
X0016235Y0023710D01*
X0016125Y0023596D01*
X0016012Y0023485D01*
X0015897Y0023376D01*
X0015779Y0023271D01*
X0015658Y0023169D01*
X0015535Y0023069D01*
X0015409Y0022973D01*
X0015281Y0022880D01*
X0015151Y0022790D01*
X0015018Y0022704D01*
X0014883Y0022620D01*
X0014747Y0022541D01*
X0014608Y0022464D01*
X0014467Y0022392D01*
X0014325Y0022322D01*
X0014181Y0022257D01*
X0014035Y0022195D01*
X0013888Y0022137D01*
X0013739Y0022082D01*
X0013589Y0022031D01*
X0013438Y0021984D01*
X0013286Y0021941D01*
X0013133Y0021902D01*
X0012978Y0021866D01*
X0012823Y0021835D01*
X0012667Y0021807D01*
X0012511Y0021783D01*
X0012354Y0021763D01*
X0012196Y0021747D01*
X0012039Y0021735D01*
X0011880Y0021727D01*
X0011722Y0021723D01*
X0011564Y0021723D01*
X0011406Y0021727D01*
X0011247Y0021735D01*
X0011090Y0021747D01*
X0010932Y0021763D01*
X0010775Y0021783D01*
X0010619Y0021807D01*
X0010463Y0021835D01*
X0010308Y0021866D01*
X0010153Y0021902D01*
X0010000Y0021941D01*
X0009848Y0021984D01*
X0009697Y0022031D01*
X0009547Y0022082D01*
X0009398Y0022137D01*
X0009251Y0022195D01*
X0009105Y0022257D01*
X0008961Y0022322D01*
X0008819Y0022392D01*
X0008678Y0022464D01*
X0008539Y0022541D01*
X0008403Y0022620D01*
X0008268Y0022704D01*
X0008135Y0022790D01*
X0008005Y0022880D01*
X0007877Y0022973D01*
X0007751Y0023069D01*
X0007628Y0023169D01*
X0007507Y0023271D01*
X0007389Y0023376D01*
X0007274Y0023485D01*
X0007161Y0023596D01*
X0007051Y0023710D01*
X0006944Y0023827D01*
X0006840Y0023946D01*
X0006739Y0024068D01*
X0006642Y0024193D01*
X0006547Y0024320D01*
X0006456Y0024449D01*
X0006367Y0024580D01*
X0006283Y0024714D01*
X0006201Y0024850D01*
X0006123Y0024987D01*
X0006049Y0025127D01*
X0005978Y0025269D01*
X0005910Y0025412D01*
X0005846Y0025557D01*
X0005786Y0025703D01*
X0005730Y0025851D01*
X0005677Y0026000D01*
X0005628Y0026151D01*
X0005583Y0026303D01*
X0005542Y0026456D01*
X0005504Y0026609D01*
X0005471Y0026764D01*
X0005441Y0026920D01*
X0005415Y0027076D01*
X0005394Y0027233D01*
X0005376Y0027390D01*
X0005362Y0027548D01*
X0005352Y0027706D01*
X0005346Y0027864D01*
X0005344Y0028022D01*
X0100029Y0033612D02*
X0100031Y0033705D01*
X0100037Y0033797D01*
X0100047Y0033889D01*
X0100061Y0033980D01*
X0100078Y0034071D01*
X0100100Y0034161D01*
X0100125Y0034250D01*
X0100154Y0034338D01*
X0100187Y0034424D01*
X0100224Y0034509D01*
X0100264Y0034593D01*
X0100308Y0034674D01*
X0100355Y0034754D01*
X0100405Y0034832D01*
X0100459Y0034907D01*
X0100516Y0034980D01*
X0100576Y0035050D01*
X0100639Y0035118D01*
X0100705Y0035183D01*
X0100773Y0035245D01*
X0100844Y0035305D01*
X0100918Y0035361D01*
X0100994Y0035414D01*
X0101072Y0035463D01*
X0101152Y0035510D01*
X0101234Y0035552D01*
X0101318Y0035592D01*
X0101403Y0035627D01*
X0101490Y0035659D01*
X0101578Y0035688D01*
X0101667Y0035712D01*
X0101757Y0035733D01*
X0101848Y0035749D01*
X0101940Y0035762D01*
X0102032Y0035771D01*
X0102125Y0035776D01*
X0102217Y0035777D01*
X0102310Y0035774D01*
X0102402Y0035767D01*
X0102494Y0035756D01*
X0102585Y0035741D01*
X0102676Y0035723D01*
X0102766Y0035700D01*
X0102854Y0035674D01*
X0102942Y0035644D01*
X0103028Y0035610D01*
X0103112Y0035573D01*
X0103195Y0035531D01*
X0103276Y0035487D01*
X0103356Y0035439D01*
X0103433Y0035388D01*
X0103507Y0035333D01*
X0103580Y0035275D01*
X0103650Y0035215D01*
X0103717Y0035151D01*
X0103781Y0035085D01*
X0103843Y0035015D01*
X0103901Y0034944D01*
X0103956Y0034870D01*
X0104008Y0034793D01*
X0104057Y0034714D01*
X0104103Y0034634D01*
X0104145Y0034551D01*
X0104183Y0034467D01*
X0104218Y0034381D01*
X0104249Y0034294D01*
X0104276Y0034206D01*
X0104299Y0034116D01*
X0104319Y0034026D01*
X0104335Y0033935D01*
X0104347Y0033843D01*
X0104355Y0033751D01*
X0104359Y0033658D01*
X0104359Y0033566D01*
X0104355Y0033473D01*
X0104347Y0033381D01*
X0104335Y0033289D01*
X0104319Y0033198D01*
X0104299Y0033108D01*
X0104276Y0033018D01*
X0104249Y0032930D01*
X0104218Y0032843D01*
X0104183Y0032757D01*
X0104145Y0032673D01*
X0104103Y0032590D01*
X0104057Y0032510D01*
X0104008Y0032431D01*
X0103956Y0032354D01*
X0103901Y0032280D01*
X0103843Y0032209D01*
X0103781Y0032139D01*
X0103717Y0032073D01*
X0103650Y0032009D01*
X0103580Y0031949D01*
X0103507Y0031891D01*
X0103433Y0031836D01*
X0103356Y0031785D01*
X0103277Y0031737D01*
X0103195Y0031693D01*
X0103112Y0031651D01*
X0103028Y0031614D01*
X0102942Y0031580D01*
X0102854Y0031550D01*
X0102766Y0031524D01*
X0102676Y0031501D01*
X0102585Y0031483D01*
X0102494Y0031468D01*
X0102402Y0031457D01*
X0102310Y0031450D01*
X0102217Y0031447D01*
X0102125Y0031448D01*
X0102032Y0031453D01*
X0101940Y0031462D01*
X0101848Y0031475D01*
X0101757Y0031491D01*
X0101667Y0031512D01*
X0101578Y0031536D01*
X0101490Y0031565D01*
X0101403Y0031597D01*
X0101318Y0031632D01*
X0101234Y0031672D01*
X0101152Y0031714D01*
X0101072Y0031761D01*
X0100994Y0031810D01*
X0100918Y0031863D01*
X0100844Y0031919D01*
X0100773Y0031979D01*
X0100705Y0032041D01*
X0100639Y0032106D01*
X0100576Y0032174D01*
X0100516Y0032244D01*
X0100459Y0032317D01*
X0100405Y0032392D01*
X0100355Y0032470D01*
X0100308Y0032550D01*
X0100264Y0032631D01*
X0100224Y0032715D01*
X0100187Y0032800D01*
X0100154Y0032886D01*
X0100125Y0032974D01*
X0100100Y0033063D01*
X0100078Y0033153D01*
X0100061Y0033244D01*
X0100047Y0033335D01*
X0100037Y0033427D01*
X0100031Y0033519D01*
X0100029Y0033612D01*
X0124044Y0030778D02*
X0124046Y0030939D01*
X0124052Y0031099D01*
X0124062Y0031260D01*
X0124076Y0031420D01*
X0124094Y0031579D01*
X0124115Y0031739D01*
X0124141Y0031897D01*
X0124171Y0032055D01*
X0124204Y0032212D01*
X0124242Y0032369D01*
X0124283Y0032524D01*
X0124328Y0032678D01*
X0124377Y0032831D01*
X0124430Y0032983D01*
X0124486Y0033133D01*
X0124546Y0033282D01*
X0124610Y0033430D01*
X0124677Y0033576D01*
X0124748Y0033720D01*
X0124823Y0033862D01*
X0124901Y0034003D01*
X0124982Y0034141D01*
X0125067Y0034278D01*
X0125156Y0034412D01*
X0125247Y0034544D01*
X0125342Y0034674D01*
X0125440Y0034801D01*
X0125541Y0034926D01*
X0125645Y0035049D01*
X0125752Y0035168D01*
X0125862Y0035285D01*
X0125975Y0035400D01*
X0126091Y0035511D01*
X0126209Y0035620D01*
X0126330Y0035725D01*
X0126454Y0035828D01*
X0126580Y0035928D01*
X0126709Y0036024D01*
X0126840Y0036117D01*
X0126973Y0036207D01*
X0127108Y0036294D01*
X0127246Y0036377D01*
X0127385Y0036456D01*
X0127527Y0036533D01*
X0127670Y0036606D01*
X0127815Y0036675D01*
X0127962Y0036740D01*
X0128110Y0036802D01*
X0128260Y0036861D01*
X0128411Y0036915D01*
X0128563Y0036966D01*
X0128717Y0037013D01*
X0128872Y0037056D01*
X0129027Y0037095D01*
X0129184Y0037131D01*
X0129342Y0037163D01*
X0129500Y0037190D01*
X0129659Y0037214D01*
X0129818Y0037234D01*
X0129978Y0037250D01*
X0130139Y0037262D01*
X0130299Y0037270D01*
X0130460Y0037274D01*
X0130620Y0037274D01*
X0130781Y0037270D01*
X0130941Y0037262D01*
X0131102Y0037250D01*
X0131262Y0037234D01*
X0131421Y0037214D01*
X0131580Y0037190D01*
X0131738Y0037163D01*
X0131896Y0037131D01*
X0132053Y0037095D01*
X0132208Y0037056D01*
X0132363Y0037013D01*
X0132517Y0036966D01*
X0132669Y0036915D01*
X0132820Y0036861D01*
X0132970Y0036802D01*
X0133118Y0036740D01*
X0133265Y0036675D01*
X0133410Y0036606D01*
X0133553Y0036533D01*
X0133695Y0036456D01*
X0133834Y0036377D01*
X0133972Y0036294D01*
X0134107Y0036207D01*
X0134240Y0036117D01*
X0134371Y0036024D01*
X0134500Y0035928D01*
X0134626Y0035828D01*
X0134750Y0035725D01*
X0134871Y0035620D01*
X0134989Y0035511D01*
X0135105Y0035400D01*
X0135218Y0035285D01*
X0135328Y0035168D01*
X0135435Y0035049D01*
X0135539Y0034926D01*
X0135640Y0034801D01*
X0135738Y0034674D01*
X0135833Y0034544D01*
X0135924Y0034412D01*
X0136013Y0034278D01*
X0136098Y0034141D01*
X0136179Y0034003D01*
X0136257Y0033862D01*
X0136332Y0033720D01*
X0136403Y0033576D01*
X0136470Y0033430D01*
X0136534Y0033282D01*
X0136594Y0033133D01*
X0136650Y0032983D01*
X0136703Y0032831D01*
X0136752Y0032678D01*
X0136797Y0032524D01*
X0136838Y0032369D01*
X0136876Y0032212D01*
X0136909Y0032055D01*
X0136939Y0031897D01*
X0136965Y0031739D01*
X0136986Y0031579D01*
X0137004Y0031420D01*
X0137018Y0031260D01*
X0137028Y0031099D01*
X0137034Y0030939D01*
X0137036Y0030778D01*
X0137034Y0030617D01*
X0137028Y0030457D01*
X0137018Y0030296D01*
X0137004Y0030136D01*
X0136986Y0029977D01*
X0136965Y0029817D01*
X0136939Y0029659D01*
X0136909Y0029501D01*
X0136876Y0029344D01*
X0136838Y0029187D01*
X0136797Y0029032D01*
X0136752Y0028878D01*
X0136703Y0028725D01*
X0136650Y0028573D01*
X0136594Y0028423D01*
X0136534Y0028274D01*
X0136470Y0028126D01*
X0136403Y0027980D01*
X0136332Y0027836D01*
X0136257Y0027694D01*
X0136179Y0027553D01*
X0136098Y0027415D01*
X0136013Y0027278D01*
X0135924Y0027144D01*
X0135833Y0027012D01*
X0135738Y0026882D01*
X0135640Y0026755D01*
X0135539Y0026630D01*
X0135435Y0026507D01*
X0135328Y0026388D01*
X0135218Y0026271D01*
X0135105Y0026156D01*
X0134989Y0026045D01*
X0134871Y0025936D01*
X0134750Y0025831D01*
X0134626Y0025728D01*
X0134500Y0025628D01*
X0134371Y0025532D01*
X0134240Y0025439D01*
X0134107Y0025349D01*
X0133972Y0025262D01*
X0133834Y0025179D01*
X0133695Y0025100D01*
X0133553Y0025023D01*
X0133410Y0024950D01*
X0133265Y0024881D01*
X0133118Y0024816D01*
X0132970Y0024754D01*
X0132820Y0024695D01*
X0132669Y0024641D01*
X0132517Y0024590D01*
X0132363Y0024543D01*
X0132208Y0024500D01*
X0132053Y0024461D01*
X0131896Y0024425D01*
X0131738Y0024393D01*
X0131580Y0024366D01*
X0131421Y0024342D01*
X0131262Y0024322D01*
X0131102Y0024306D01*
X0130941Y0024294D01*
X0130781Y0024286D01*
X0130620Y0024282D01*
X0130460Y0024282D01*
X0130299Y0024286D01*
X0130139Y0024294D01*
X0129978Y0024306D01*
X0129818Y0024322D01*
X0129659Y0024342D01*
X0129500Y0024366D01*
X0129342Y0024393D01*
X0129184Y0024425D01*
X0129027Y0024461D01*
X0128872Y0024500D01*
X0128717Y0024543D01*
X0128563Y0024590D01*
X0128411Y0024641D01*
X0128260Y0024695D01*
X0128110Y0024754D01*
X0127962Y0024816D01*
X0127815Y0024881D01*
X0127670Y0024950D01*
X0127527Y0025023D01*
X0127385Y0025100D01*
X0127246Y0025179D01*
X0127108Y0025262D01*
X0126973Y0025349D01*
X0126840Y0025439D01*
X0126709Y0025532D01*
X0126580Y0025628D01*
X0126454Y0025728D01*
X0126330Y0025831D01*
X0126209Y0025936D01*
X0126091Y0026045D01*
X0125975Y0026156D01*
X0125862Y0026271D01*
X0125752Y0026388D01*
X0125645Y0026507D01*
X0125541Y0026630D01*
X0125440Y0026755D01*
X0125342Y0026882D01*
X0125247Y0027012D01*
X0125156Y0027144D01*
X0125067Y0027278D01*
X0124982Y0027415D01*
X0124901Y0027553D01*
X0124823Y0027694D01*
X0124748Y0027836D01*
X0124677Y0027980D01*
X0124610Y0028126D01*
X0124546Y0028274D01*
X0124486Y0028423D01*
X0124430Y0028573D01*
X0124377Y0028725D01*
X0124328Y0028878D01*
X0124283Y0029032D01*
X0124242Y0029187D01*
X0124204Y0029344D01*
X0124171Y0029501D01*
X0124141Y0029659D01*
X0124115Y0029817D01*
X0124094Y0029977D01*
X0124076Y0030136D01*
X0124062Y0030296D01*
X0124052Y0030457D01*
X0124046Y0030617D01*
X0124044Y0030778D01*
X0181524Y0030778D02*
X0181526Y0030939D01*
X0181532Y0031099D01*
X0181542Y0031260D01*
X0181556Y0031420D01*
X0181574Y0031579D01*
X0181595Y0031739D01*
X0181621Y0031897D01*
X0181651Y0032055D01*
X0181684Y0032212D01*
X0181722Y0032369D01*
X0181763Y0032524D01*
X0181808Y0032678D01*
X0181857Y0032831D01*
X0181910Y0032983D01*
X0181966Y0033133D01*
X0182026Y0033282D01*
X0182090Y0033430D01*
X0182157Y0033576D01*
X0182228Y0033720D01*
X0182303Y0033862D01*
X0182381Y0034003D01*
X0182462Y0034141D01*
X0182547Y0034278D01*
X0182636Y0034412D01*
X0182727Y0034544D01*
X0182822Y0034674D01*
X0182920Y0034801D01*
X0183021Y0034926D01*
X0183125Y0035049D01*
X0183232Y0035168D01*
X0183342Y0035285D01*
X0183455Y0035400D01*
X0183571Y0035511D01*
X0183689Y0035620D01*
X0183810Y0035725D01*
X0183934Y0035828D01*
X0184060Y0035928D01*
X0184189Y0036024D01*
X0184320Y0036117D01*
X0184453Y0036207D01*
X0184588Y0036294D01*
X0184726Y0036377D01*
X0184865Y0036456D01*
X0185007Y0036533D01*
X0185150Y0036606D01*
X0185295Y0036675D01*
X0185442Y0036740D01*
X0185590Y0036802D01*
X0185740Y0036861D01*
X0185891Y0036915D01*
X0186043Y0036966D01*
X0186197Y0037013D01*
X0186352Y0037056D01*
X0186507Y0037095D01*
X0186664Y0037131D01*
X0186822Y0037163D01*
X0186980Y0037190D01*
X0187139Y0037214D01*
X0187298Y0037234D01*
X0187458Y0037250D01*
X0187619Y0037262D01*
X0187779Y0037270D01*
X0187940Y0037274D01*
X0188100Y0037274D01*
X0188261Y0037270D01*
X0188421Y0037262D01*
X0188582Y0037250D01*
X0188742Y0037234D01*
X0188901Y0037214D01*
X0189060Y0037190D01*
X0189218Y0037163D01*
X0189376Y0037131D01*
X0189533Y0037095D01*
X0189688Y0037056D01*
X0189843Y0037013D01*
X0189997Y0036966D01*
X0190149Y0036915D01*
X0190300Y0036861D01*
X0190450Y0036802D01*
X0190598Y0036740D01*
X0190745Y0036675D01*
X0190890Y0036606D01*
X0191033Y0036533D01*
X0191175Y0036456D01*
X0191314Y0036377D01*
X0191452Y0036294D01*
X0191587Y0036207D01*
X0191720Y0036117D01*
X0191851Y0036024D01*
X0191980Y0035928D01*
X0192106Y0035828D01*
X0192230Y0035725D01*
X0192351Y0035620D01*
X0192469Y0035511D01*
X0192585Y0035400D01*
X0192698Y0035285D01*
X0192808Y0035168D01*
X0192915Y0035049D01*
X0193019Y0034926D01*
X0193120Y0034801D01*
X0193218Y0034674D01*
X0193313Y0034544D01*
X0193404Y0034412D01*
X0193493Y0034278D01*
X0193578Y0034141D01*
X0193659Y0034003D01*
X0193737Y0033862D01*
X0193812Y0033720D01*
X0193883Y0033576D01*
X0193950Y0033430D01*
X0194014Y0033282D01*
X0194074Y0033133D01*
X0194130Y0032983D01*
X0194183Y0032831D01*
X0194232Y0032678D01*
X0194277Y0032524D01*
X0194318Y0032369D01*
X0194356Y0032212D01*
X0194389Y0032055D01*
X0194419Y0031897D01*
X0194445Y0031739D01*
X0194466Y0031579D01*
X0194484Y0031420D01*
X0194498Y0031260D01*
X0194508Y0031099D01*
X0194514Y0030939D01*
X0194516Y0030778D01*
X0194514Y0030617D01*
X0194508Y0030457D01*
X0194498Y0030296D01*
X0194484Y0030136D01*
X0194466Y0029977D01*
X0194445Y0029817D01*
X0194419Y0029659D01*
X0194389Y0029501D01*
X0194356Y0029344D01*
X0194318Y0029187D01*
X0194277Y0029032D01*
X0194232Y0028878D01*
X0194183Y0028725D01*
X0194130Y0028573D01*
X0194074Y0028423D01*
X0194014Y0028274D01*
X0193950Y0028126D01*
X0193883Y0027980D01*
X0193812Y0027836D01*
X0193737Y0027694D01*
X0193659Y0027553D01*
X0193578Y0027415D01*
X0193493Y0027278D01*
X0193404Y0027144D01*
X0193313Y0027012D01*
X0193218Y0026882D01*
X0193120Y0026755D01*
X0193019Y0026630D01*
X0192915Y0026507D01*
X0192808Y0026388D01*
X0192698Y0026271D01*
X0192585Y0026156D01*
X0192469Y0026045D01*
X0192351Y0025936D01*
X0192230Y0025831D01*
X0192106Y0025728D01*
X0191980Y0025628D01*
X0191851Y0025532D01*
X0191720Y0025439D01*
X0191587Y0025349D01*
X0191452Y0025262D01*
X0191314Y0025179D01*
X0191175Y0025100D01*
X0191033Y0025023D01*
X0190890Y0024950D01*
X0190745Y0024881D01*
X0190598Y0024816D01*
X0190450Y0024754D01*
X0190300Y0024695D01*
X0190149Y0024641D01*
X0189997Y0024590D01*
X0189843Y0024543D01*
X0189688Y0024500D01*
X0189533Y0024461D01*
X0189376Y0024425D01*
X0189218Y0024393D01*
X0189060Y0024366D01*
X0188901Y0024342D01*
X0188742Y0024322D01*
X0188582Y0024306D01*
X0188421Y0024294D01*
X0188261Y0024286D01*
X0188100Y0024282D01*
X0187940Y0024282D01*
X0187779Y0024286D01*
X0187619Y0024294D01*
X0187458Y0024306D01*
X0187298Y0024322D01*
X0187139Y0024342D01*
X0186980Y0024366D01*
X0186822Y0024393D01*
X0186664Y0024425D01*
X0186507Y0024461D01*
X0186352Y0024500D01*
X0186197Y0024543D01*
X0186043Y0024590D01*
X0185891Y0024641D01*
X0185740Y0024695D01*
X0185590Y0024754D01*
X0185442Y0024816D01*
X0185295Y0024881D01*
X0185150Y0024950D01*
X0185007Y0025023D01*
X0184865Y0025100D01*
X0184726Y0025179D01*
X0184588Y0025262D01*
X0184453Y0025349D01*
X0184320Y0025439D01*
X0184189Y0025532D01*
X0184060Y0025628D01*
X0183934Y0025728D01*
X0183810Y0025831D01*
X0183689Y0025936D01*
X0183571Y0026045D01*
X0183455Y0026156D01*
X0183342Y0026271D01*
X0183232Y0026388D01*
X0183125Y0026507D01*
X0183021Y0026630D01*
X0182920Y0026755D01*
X0182822Y0026882D01*
X0182727Y0027012D01*
X0182636Y0027144D01*
X0182547Y0027278D01*
X0182462Y0027415D01*
X0182381Y0027553D01*
X0182303Y0027694D01*
X0182228Y0027836D01*
X0182157Y0027980D01*
X0182090Y0028126D01*
X0182026Y0028274D01*
X0181966Y0028423D01*
X0181910Y0028573D01*
X0181857Y0028725D01*
X0181808Y0028878D01*
X0181763Y0029032D01*
X0181722Y0029187D01*
X0181684Y0029344D01*
X0181651Y0029501D01*
X0181621Y0029659D01*
X0181595Y0029817D01*
X0181574Y0029977D01*
X0181556Y0030136D01*
X0181542Y0030296D01*
X0181532Y0030457D01*
X0181526Y0030617D01*
X0181524Y0030778D01*
X0198060Y0030778D02*
X0198062Y0030939D01*
X0198068Y0031099D01*
X0198078Y0031260D01*
X0198092Y0031420D01*
X0198110Y0031579D01*
X0198131Y0031739D01*
X0198157Y0031897D01*
X0198187Y0032055D01*
X0198220Y0032212D01*
X0198258Y0032369D01*
X0198299Y0032524D01*
X0198344Y0032678D01*
X0198393Y0032831D01*
X0198446Y0032983D01*
X0198502Y0033133D01*
X0198562Y0033282D01*
X0198626Y0033430D01*
X0198693Y0033576D01*
X0198764Y0033720D01*
X0198839Y0033862D01*
X0198917Y0034003D01*
X0198998Y0034141D01*
X0199083Y0034278D01*
X0199172Y0034412D01*
X0199263Y0034544D01*
X0199358Y0034674D01*
X0199456Y0034801D01*
X0199557Y0034926D01*
X0199661Y0035049D01*
X0199768Y0035168D01*
X0199878Y0035285D01*
X0199991Y0035400D01*
X0200107Y0035511D01*
X0200225Y0035620D01*
X0200346Y0035725D01*
X0200470Y0035828D01*
X0200596Y0035928D01*
X0200725Y0036024D01*
X0200856Y0036117D01*
X0200989Y0036207D01*
X0201124Y0036294D01*
X0201262Y0036377D01*
X0201401Y0036456D01*
X0201543Y0036533D01*
X0201686Y0036606D01*
X0201831Y0036675D01*
X0201978Y0036740D01*
X0202126Y0036802D01*
X0202276Y0036861D01*
X0202427Y0036915D01*
X0202579Y0036966D01*
X0202733Y0037013D01*
X0202888Y0037056D01*
X0203043Y0037095D01*
X0203200Y0037131D01*
X0203358Y0037163D01*
X0203516Y0037190D01*
X0203675Y0037214D01*
X0203834Y0037234D01*
X0203994Y0037250D01*
X0204155Y0037262D01*
X0204315Y0037270D01*
X0204476Y0037274D01*
X0204636Y0037274D01*
X0204797Y0037270D01*
X0204957Y0037262D01*
X0205118Y0037250D01*
X0205278Y0037234D01*
X0205437Y0037214D01*
X0205596Y0037190D01*
X0205754Y0037163D01*
X0205912Y0037131D01*
X0206069Y0037095D01*
X0206224Y0037056D01*
X0206379Y0037013D01*
X0206533Y0036966D01*
X0206685Y0036915D01*
X0206836Y0036861D01*
X0206986Y0036802D01*
X0207134Y0036740D01*
X0207281Y0036675D01*
X0207426Y0036606D01*
X0207569Y0036533D01*
X0207711Y0036456D01*
X0207850Y0036377D01*
X0207988Y0036294D01*
X0208123Y0036207D01*
X0208256Y0036117D01*
X0208387Y0036024D01*
X0208516Y0035928D01*
X0208642Y0035828D01*
X0208766Y0035725D01*
X0208887Y0035620D01*
X0209005Y0035511D01*
X0209121Y0035400D01*
X0209234Y0035285D01*
X0209344Y0035168D01*
X0209451Y0035049D01*
X0209555Y0034926D01*
X0209656Y0034801D01*
X0209754Y0034674D01*
X0209849Y0034544D01*
X0209940Y0034412D01*
X0210029Y0034278D01*
X0210114Y0034141D01*
X0210195Y0034003D01*
X0210273Y0033862D01*
X0210348Y0033720D01*
X0210419Y0033576D01*
X0210486Y0033430D01*
X0210550Y0033282D01*
X0210610Y0033133D01*
X0210666Y0032983D01*
X0210719Y0032831D01*
X0210768Y0032678D01*
X0210813Y0032524D01*
X0210854Y0032369D01*
X0210892Y0032212D01*
X0210925Y0032055D01*
X0210955Y0031897D01*
X0210981Y0031739D01*
X0211002Y0031579D01*
X0211020Y0031420D01*
X0211034Y0031260D01*
X0211044Y0031099D01*
X0211050Y0030939D01*
X0211052Y0030778D01*
X0211050Y0030617D01*
X0211044Y0030457D01*
X0211034Y0030296D01*
X0211020Y0030136D01*
X0211002Y0029977D01*
X0210981Y0029817D01*
X0210955Y0029659D01*
X0210925Y0029501D01*
X0210892Y0029344D01*
X0210854Y0029187D01*
X0210813Y0029032D01*
X0210768Y0028878D01*
X0210719Y0028725D01*
X0210666Y0028573D01*
X0210610Y0028423D01*
X0210550Y0028274D01*
X0210486Y0028126D01*
X0210419Y0027980D01*
X0210348Y0027836D01*
X0210273Y0027694D01*
X0210195Y0027553D01*
X0210114Y0027415D01*
X0210029Y0027278D01*
X0209940Y0027144D01*
X0209849Y0027012D01*
X0209754Y0026882D01*
X0209656Y0026755D01*
X0209555Y0026630D01*
X0209451Y0026507D01*
X0209344Y0026388D01*
X0209234Y0026271D01*
X0209121Y0026156D01*
X0209005Y0026045D01*
X0208887Y0025936D01*
X0208766Y0025831D01*
X0208642Y0025728D01*
X0208516Y0025628D01*
X0208387Y0025532D01*
X0208256Y0025439D01*
X0208123Y0025349D01*
X0207988Y0025262D01*
X0207850Y0025179D01*
X0207711Y0025100D01*
X0207569Y0025023D01*
X0207426Y0024950D01*
X0207281Y0024881D01*
X0207134Y0024816D01*
X0206986Y0024754D01*
X0206836Y0024695D01*
X0206685Y0024641D01*
X0206533Y0024590D01*
X0206379Y0024543D01*
X0206224Y0024500D01*
X0206069Y0024461D01*
X0205912Y0024425D01*
X0205754Y0024393D01*
X0205596Y0024366D01*
X0205437Y0024342D01*
X0205278Y0024322D01*
X0205118Y0024306D01*
X0204957Y0024294D01*
X0204797Y0024286D01*
X0204636Y0024282D01*
X0204476Y0024282D01*
X0204315Y0024286D01*
X0204155Y0024294D01*
X0203994Y0024306D01*
X0203834Y0024322D01*
X0203675Y0024342D01*
X0203516Y0024366D01*
X0203358Y0024393D01*
X0203200Y0024425D01*
X0203043Y0024461D01*
X0202888Y0024500D01*
X0202733Y0024543D01*
X0202579Y0024590D01*
X0202427Y0024641D01*
X0202276Y0024695D01*
X0202126Y0024754D01*
X0201978Y0024816D01*
X0201831Y0024881D01*
X0201686Y0024950D01*
X0201543Y0025023D01*
X0201401Y0025100D01*
X0201262Y0025179D01*
X0201124Y0025262D01*
X0200989Y0025349D01*
X0200856Y0025439D01*
X0200725Y0025532D01*
X0200596Y0025628D01*
X0200470Y0025728D01*
X0200346Y0025831D01*
X0200225Y0025936D01*
X0200107Y0026045D01*
X0199991Y0026156D01*
X0199878Y0026271D01*
X0199768Y0026388D01*
X0199661Y0026507D01*
X0199557Y0026630D01*
X0199456Y0026755D01*
X0199358Y0026882D01*
X0199263Y0027012D01*
X0199172Y0027144D01*
X0199083Y0027278D01*
X0198998Y0027415D01*
X0198917Y0027553D01*
X0198839Y0027694D01*
X0198764Y0027836D01*
X0198693Y0027980D01*
X0198626Y0028126D01*
X0198562Y0028274D01*
X0198502Y0028423D01*
X0198446Y0028573D01*
X0198393Y0028725D01*
X0198344Y0028878D01*
X0198299Y0029032D01*
X0198258Y0029187D01*
X0198220Y0029344D01*
X0198187Y0029501D01*
X0198157Y0029659D01*
X0198131Y0029817D01*
X0198110Y0029977D01*
X0198092Y0030136D01*
X0198078Y0030296D01*
X0198068Y0030457D01*
X0198062Y0030617D01*
X0198060Y0030778D01*
X0255540Y0030778D02*
X0255542Y0030939D01*
X0255548Y0031099D01*
X0255558Y0031260D01*
X0255572Y0031420D01*
X0255590Y0031579D01*
X0255611Y0031739D01*
X0255637Y0031897D01*
X0255667Y0032055D01*
X0255700Y0032212D01*
X0255738Y0032369D01*
X0255779Y0032524D01*
X0255824Y0032678D01*
X0255873Y0032831D01*
X0255926Y0032983D01*
X0255982Y0033133D01*
X0256042Y0033282D01*
X0256106Y0033430D01*
X0256173Y0033576D01*
X0256244Y0033720D01*
X0256319Y0033862D01*
X0256397Y0034003D01*
X0256478Y0034141D01*
X0256563Y0034278D01*
X0256652Y0034412D01*
X0256743Y0034544D01*
X0256838Y0034674D01*
X0256936Y0034801D01*
X0257037Y0034926D01*
X0257141Y0035049D01*
X0257248Y0035168D01*
X0257358Y0035285D01*
X0257471Y0035400D01*
X0257587Y0035511D01*
X0257705Y0035620D01*
X0257826Y0035725D01*
X0257950Y0035828D01*
X0258076Y0035928D01*
X0258205Y0036024D01*
X0258336Y0036117D01*
X0258469Y0036207D01*
X0258604Y0036294D01*
X0258742Y0036377D01*
X0258881Y0036456D01*
X0259023Y0036533D01*
X0259166Y0036606D01*
X0259311Y0036675D01*
X0259458Y0036740D01*
X0259606Y0036802D01*
X0259756Y0036861D01*
X0259907Y0036915D01*
X0260059Y0036966D01*
X0260213Y0037013D01*
X0260368Y0037056D01*
X0260523Y0037095D01*
X0260680Y0037131D01*
X0260838Y0037163D01*
X0260996Y0037190D01*
X0261155Y0037214D01*
X0261314Y0037234D01*
X0261474Y0037250D01*
X0261635Y0037262D01*
X0261795Y0037270D01*
X0261956Y0037274D01*
X0262116Y0037274D01*
X0262277Y0037270D01*
X0262437Y0037262D01*
X0262598Y0037250D01*
X0262758Y0037234D01*
X0262917Y0037214D01*
X0263076Y0037190D01*
X0263234Y0037163D01*
X0263392Y0037131D01*
X0263549Y0037095D01*
X0263704Y0037056D01*
X0263859Y0037013D01*
X0264013Y0036966D01*
X0264165Y0036915D01*
X0264316Y0036861D01*
X0264466Y0036802D01*
X0264614Y0036740D01*
X0264761Y0036675D01*
X0264906Y0036606D01*
X0265049Y0036533D01*
X0265191Y0036456D01*
X0265330Y0036377D01*
X0265468Y0036294D01*
X0265603Y0036207D01*
X0265736Y0036117D01*
X0265867Y0036024D01*
X0265996Y0035928D01*
X0266122Y0035828D01*
X0266246Y0035725D01*
X0266367Y0035620D01*
X0266485Y0035511D01*
X0266601Y0035400D01*
X0266714Y0035285D01*
X0266824Y0035168D01*
X0266931Y0035049D01*
X0267035Y0034926D01*
X0267136Y0034801D01*
X0267234Y0034674D01*
X0267329Y0034544D01*
X0267420Y0034412D01*
X0267509Y0034278D01*
X0267594Y0034141D01*
X0267675Y0034003D01*
X0267753Y0033862D01*
X0267828Y0033720D01*
X0267899Y0033576D01*
X0267966Y0033430D01*
X0268030Y0033282D01*
X0268090Y0033133D01*
X0268146Y0032983D01*
X0268199Y0032831D01*
X0268248Y0032678D01*
X0268293Y0032524D01*
X0268334Y0032369D01*
X0268372Y0032212D01*
X0268405Y0032055D01*
X0268435Y0031897D01*
X0268461Y0031739D01*
X0268482Y0031579D01*
X0268500Y0031420D01*
X0268514Y0031260D01*
X0268524Y0031099D01*
X0268530Y0030939D01*
X0268532Y0030778D01*
X0268530Y0030617D01*
X0268524Y0030457D01*
X0268514Y0030296D01*
X0268500Y0030136D01*
X0268482Y0029977D01*
X0268461Y0029817D01*
X0268435Y0029659D01*
X0268405Y0029501D01*
X0268372Y0029344D01*
X0268334Y0029187D01*
X0268293Y0029032D01*
X0268248Y0028878D01*
X0268199Y0028725D01*
X0268146Y0028573D01*
X0268090Y0028423D01*
X0268030Y0028274D01*
X0267966Y0028126D01*
X0267899Y0027980D01*
X0267828Y0027836D01*
X0267753Y0027694D01*
X0267675Y0027553D01*
X0267594Y0027415D01*
X0267509Y0027278D01*
X0267420Y0027144D01*
X0267329Y0027012D01*
X0267234Y0026882D01*
X0267136Y0026755D01*
X0267035Y0026630D01*
X0266931Y0026507D01*
X0266824Y0026388D01*
X0266714Y0026271D01*
X0266601Y0026156D01*
X0266485Y0026045D01*
X0266367Y0025936D01*
X0266246Y0025831D01*
X0266122Y0025728D01*
X0265996Y0025628D01*
X0265867Y0025532D01*
X0265736Y0025439D01*
X0265603Y0025349D01*
X0265468Y0025262D01*
X0265330Y0025179D01*
X0265191Y0025100D01*
X0265049Y0025023D01*
X0264906Y0024950D01*
X0264761Y0024881D01*
X0264614Y0024816D01*
X0264466Y0024754D01*
X0264316Y0024695D01*
X0264165Y0024641D01*
X0264013Y0024590D01*
X0263859Y0024543D01*
X0263704Y0024500D01*
X0263549Y0024461D01*
X0263392Y0024425D01*
X0263234Y0024393D01*
X0263076Y0024366D01*
X0262917Y0024342D01*
X0262758Y0024322D01*
X0262598Y0024306D01*
X0262437Y0024294D01*
X0262277Y0024286D01*
X0262116Y0024282D01*
X0261956Y0024282D01*
X0261795Y0024286D01*
X0261635Y0024294D01*
X0261474Y0024306D01*
X0261314Y0024322D01*
X0261155Y0024342D01*
X0260996Y0024366D01*
X0260838Y0024393D01*
X0260680Y0024425D01*
X0260523Y0024461D01*
X0260368Y0024500D01*
X0260213Y0024543D01*
X0260059Y0024590D01*
X0259907Y0024641D01*
X0259756Y0024695D01*
X0259606Y0024754D01*
X0259458Y0024816D01*
X0259311Y0024881D01*
X0259166Y0024950D01*
X0259023Y0025023D01*
X0258881Y0025100D01*
X0258742Y0025179D01*
X0258604Y0025262D01*
X0258469Y0025349D01*
X0258336Y0025439D01*
X0258205Y0025532D01*
X0258076Y0025628D01*
X0257950Y0025728D01*
X0257826Y0025831D01*
X0257705Y0025936D01*
X0257587Y0026045D01*
X0257471Y0026156D01*
X0257358Y0026271D01*
X0257248Y0026388D01*
X0257141Y0026507D01*
X0257037Y0026630D01*
X0256936Y0026755D01*
X0256838Y0026882D01*
X0256743Y0027012D01*
X0256652Y0027144D01*
X0256563Y0027278D01*
X0256478Y0027415D01*
X0256397Y0027553D01*
X0256319Y0027694D01*
X0256244Y0027836D01*
X0256173Y0027980D01*
X0256106Y0028126D01*
X0256042Y0028274D01*
X0255982Y0028423D01*
X0255926Y0028573D01*
X0255873Y0028725D01*
X0255824Y0028878D01*
X0255779Y0029032D01*
X0255738Y0029187D01*
X0255700Y0029344D01*
X0255667Y0029501D01*
X0255637Y0029659D01*
X0255611Y0029817D01*
X0255590Y0029977D01*
X0255572Y0030136D01*
X0255558Y0030296D01*
X0255548Y0030457D01*
X0255542Y0030617D01*
X0255540Y0030778D01*
X0275619Y0030778D02*
X0275621Y0030939D01*
X0275627Y0031099D01*
X0275637Y0031260D01*
X0275651Y0031420D01*
X0275669Y0031579D01*
X0275690Y0031739D01*
X0275716Y0031897D01*
X0275746Y0032055D01*
X0275779Y0032212D01*
X0275817Y0032369D01*
X0275858Y0032524D01*
X0275903Y0032678D01*
X0275952Y0032831D01*
X0276005Y0032983D01*
X0276061Y0033133D01*
X0276121Y0033282D01*
X0276185Y0033430D01*
X0276252Y0033576D01*
X0276323Y0033720D01*
X0276398Y0033862D01*
X0276476Y0034003D01*
X0276557Y0034141D01*
X0276642Y0034278D01*
X0276731Y0034412D01*
X0276822Y0034544D01*
X0276917Y0034674D01*
X0277015Y0034801D01*
X0277116Y0034926D01*
X0277220Y0035049D01*
X0277327Y0035168D01*
X0277437Y0035285D01*
X0277550Y0035400D01*
X0277666Y0035511D01*
X0277784Y0035620D01*
X0277905Y0035725D01*
X0278029Y0035828D01*
X0278155Y0035928D01*
X0278284Y0036024D01*
X0278415Y0036117D01*
X0278548Y0036207D01*
X0278683Y0036294D01*
X0278821Y0036377D01*
X0278960Y0036456D01*
X0279102Y0036533D01*
X0279245Y0036606D01*
X0279390Y0036675D01*
X0279537Y0036740D01*
X0279685Y0036802D01*
X0279835Y0036861D01*
X0279986Y0036915D01*
X0280138Y0036966D01*
X0280292Y0037013D01*
X0280447Y0037056D01*
X0280602Y0037095D01*
X0280759Y0037131D01*
X0280917Y0037163D01*
X0281075Y0037190D01*
X0281234Y0037214D01*
X0281393Y0037234D01*
X0281553Y0037250D01*
X0281714Y0037262D01*
X0281874Y0037270D01*
X0282035Y0037274D01*
X0282195Y0037274D01*
X0282356Y0037270D01*
X0282516Y0037262D01*
X0282677Y0037250D01*
X0282837Y0037234D01*
X0282996Y0037214D01*
X0283155Y0037190D01*
X0283313Y0037163D01*
X0283471Y0037131D01*
X0283628Y0037095D01*
X0283783Y0037056D01*
X0283938Y0037013D01*
X0284092Y0036966D01*
X0284244Y0036915D01*
X0284395Y0036861D01*
X0284545Y0036802D01*
X0284693Y0036740D01*
X0284840Y0036675D01*
X0284985Y0036606D01*
X0285128Y0036533D01*
X0285270Y0036456D01*
X0285409Y0036377D01*
X0285547Y0036294D01*
X0285682Y0036207D01*
X0285815Y0036117D01*
X0285946Y0036024D01*
X0286075Y0035928D01*
X0286201Y0035828D01*
X0286325Y0035725D01*
X0286446Y0035620D01*
X0286564Y0035511D01*
X0286680Y0035400D01*
X0286793Y0035285D01*
X0286903Y0035168D01*
X0287010Y0035049D01*
X0287114Y0034926D01*
X0287215Y0034801D01*
X0287313Y0034674D01*
X0287408Y0034544D01*
X0287499Y0034412D01*
X0287588Y0034278D01*
X0287673Y0034141D01*
X0287754Y0034003D01*
X0287832Y0033862D01*
X0287907Y0033720D01*
X0287978Y0033576D01*
X0288045Y0033430D01*
X0288109Y0033282D01*
X0288169Y0033133D01*
X0288225Y0032983D01*
X0288278Y0032831D01*
X0288327Y0032678D01*
X0288372Y0032524D01*
X0288413Y0032369D01*
X0288451Y0032212D01*
X0288484Y0032055D01*
X0288514Y0031897D01*
X0288540Y0031739D01*
X0288561Y0031579D01*
X0288579Y0031420D01*
X0288593Y0031260D01*
X0288603Y0031099D01*
X0288609Y0030939D01*
X0288611Y0030778D01*
X0288609Y0030617D01*
X0288603Y0030457D01*
X0288593Y0030296D01*
X0288579Y0030136D01*
X0288561Y0029977D01*
X0288540Y0029817D01*
X0288514Y0029659D01*
X0288484Y0029501D01*
X0288451Y0029344D01*
X0288413Y0029187D01*
X0288372Y0029032D01*
X0288327Y0028878D01*
X0288278Y0028725D01*
X0288225Y0028573D01*
X0288169Y0028423D01*
X0288109Y0028274D01*
X0288045Y0028126D01*
X0287978Y0027980D01*
X0287907Y0027836D01*
X0287832Y0027694D01*
X0287754Y0027553D01*
X0287673Y0027415D01*
X0287588Y0027278D01*
X0287499Y0027144D01*
X0287408Y0027012D01*
X0287313Y0026882D01*
X0287215Y0026755D01*
X0287114Y0026630D01*
X0287010Y0026507D01*
X0286903Y0026388D01*
X0286793Y0026271D01*
X0286680Y0026156D01*
X0286564Y0026045D01*
X0286446Y0025936D01*
X0286325Y0025831D01*
X0286201Y0025728D01*
X0286075Y0025628D01*
X0285946Y0025532D01*
X0285815Y0025439D01*
X0285682Y0025349D01*
X0285547Y0025262D01*
X0285409Y0025179D01*
X0285270Y0025100D01*
X0285128Y0025023D01*
X0284985Y0024950D01*
X0284840Y0024881D01*
X0284693Y0024816D01*
X0284545Y0024754D01*
X0284395Y0024695D01*
X0284244Y0024641D01*
X0284092Y0024590D01*
X0283938Y0024543D01*
X0283783Y0024500D01*
X0283628Y0024461D01*
X0283471Y0024425D01*
X0283313Y0024393D01*
X0283155Y0024366D01*
X0282996Y0024342D01*
X0282837Y0024322D01*
X0282677Y0024306D01*
X0282516Y0024294D01*
X0282356Y0024286D01*
X0282195Y0024282D01*
X0282035Y0024282D01*
X0281874Y0024286D01*
X0281714Y0024294D01*
X0281553Y0024306D01*
X0281393Y0024322D01*
X0281234Y0024342D01*
X0281075Y0024366D01*
X0280917Y0024393D01*
X0280759Y0024425D01*
X0280602Y0024461D01*
X0280447Y0024500D01*
X0280292Y0024543D01*
X0280138Y0024590D01*
X0279986Y0024641D01*
X0279835Y0024695D01*
X0279685Y0024754D01*
X0279537Y0024816D01*
X0279390Y0024881D01*
X0279245Y0024950D01*
X0279102Y0025023D01*
X0278960Y0025100D01*
X0278821Y0025179D01*
X0278683Y0025262D01*
X0278548Y0025349D01*
X0278415Y0025439D01*
X0278284Y0025532D01*
X0278155Y0025628D01*
X0278029Y0025728D01*
X0277905Y0025831D01*
X0277784Y0025936D01*
X0277666Y0026045D01*
X0277550Y0026156D01*
X0277437Y0026271D01*
X0277327Y0026388D01*
X0277220Y0026507D01*
X0277116Y0026630D01*
X0277015Y0026755D01*
X0276917Y0026882D01*
X0276822Y0027012D01*
X0276731Y0027144D01*
X0276642Y0027278D01*
X0276557Y0027415D01*
X0276476Y0027553D01*
X0276398Y0027694D01*
X0276323Y0027836D01*
X0276252Y0027980D01*
X0276185Y0028126D01*
X0276121Y0028274D01*
X0276061Y0028423D01*
X0276005Y0028573D01*
X0275952Y0028725D01*
X0275903Y0028878D01*
X0275858Y0029032D01*
X0275817Y0029187D01*
X0275779Y0029344D01*
X0275746Y0029501D01*
X0275716Y0029659D01*
X0275690Y0029817D01*
X0275669Y0029977D01*
X0275651Y0030136D01*
X0275637Y0030296D01*
X0275627Y0030457D01*
X0275621Y0030617D01*
X0275619Y0030778D01*
X0333099Y0030778D02*
X0333101Y0030939D01*
X0333107Y0031099D01*
X0333117Y0031260D01*
X0333131Y0031420D01*
X0333149Y0031579D01*
X0333170Y0031739D01*
X0333196Y0031897D01*
X0333226Y0032055D01*
X0333259Y0032212D01*
X0333297Y0032369D01*
X0333338Y0032524D01*
X0333383Y0032678D01*
X0333432Y0032831D01*
X0333485Y0032983D01*
X0333541Y0033133D01*
X0333601Y0033282D01*
X0333665Y0033430D01*
X0333732Y0033576D01*
X0333803Y0033720D01*
X0333878Y0033862D01*
X0333956Y0034003D01*
X0334037Y0034141D01*
X0334122Y0034278D01*
X0334211Y0034412D01*
X0334302Y0034544D01*
X0334397Y0034674D01*
X0334495Y0034801D01*
X0334596Y0034926D01*
X0334700Y0035049D01*
X0334807Y0035168D01*
X0334917Y0035285D01*
X0335030Y0035400D01*
X0335146Y0035511D01*
X0335264Y0035620D01*
X0335385Y0035725D01*
X0335509Y0035828D01*
X0335635Y0035928D01*
X0335764Y0036024D01*
X0335895Y0036117D01*
X0336028Y0036207D01*
X0336163Y0036294D01*
X0336301Y0036377D01*
X0336440Y0036456D01*
X0336582Y0036533D01*
X0336725Y0036606D01*
X0336870Y0036675D01*
X0337017Y0036740D01*
X0337165Y0036802D01*
X0337315Y0036861D01*
X0337466Y0036915D01*
X0337618Y0036966D01*
X0337772Y0037013D01*
X0337927Y0037056D01*
X0338082Y0037095D01*
X0338239Y0037131D01*
X0338397Y0037163D01*
X0338555Y0037190D01*
X0338714Y0037214D01*
X0338873Y0037234D01*
X0339033Y0037250D01*
X0339194Y0037262D01*
X0339354Y0037270D01*
X0339515Y0037274D01*
X0339675Y0037274D01*
X0339836Y0037270D01*
X0339996Y0037262D01*
X0340157Y0037250D01*
X0340317Y0037234D01*
X0340476Y0037214D01*
X0340635Y0037190D01*
X0340793Y0037163D01*
X0340951Y0037131D01*
X0341108Y0037095D01*
X0341263Y0037056D01*
X0341418Y0037013D01*
X0341572Y0036966D01*
X0341724Y0036915D01*
X0341875Y0036861D01*
X0342025Y0036802D01*
X0342173Y0036740D01*
X0342320Y0036675D01*
X0342465Y0036606D01*
X0342608Y0036533D01*
X0342750Y0036456D01*
X0342889Y0036377D01*
X0343027Y0036294D01*
X0343162Y0036207D01*
X0343295Y0036117D01*
X0343426Y0036024D01*
X0343555Y0035928D01*
X0343681Y0035828D01*
X0343805Y0035725D01*
X0343926Y0035620D01*
X0344044Y0035511D01*
X0344160Y0035400D01*
X0344273Y0035285D01*
X0344383Y0035168D01*
X0344490Y0035049D01*
X0344594Y0034926D01*
X0344695Y0034801D01*
X0344793Y0034674D01*
X0344888Y0034544D01*
X0344979Y0034412D01*
X0345068Y0034278D01*
X0345153Y0034141D01*
X0345234Y0034003D01*
X0345312Y0033862D01*
X0345387Y0033720D01*
X0345458Y0033576D01*
X0345525Y0033430D01*
X0345589Y0033282D01*
X0345649Y0033133D01*
X0345705Y0032983D01*
X0345758Y0032831D01*
X0345807Y0032678D01*
X0345852Y0032524D01*
X0345893Y0032369D01*
X0345931Y0032212D01*
X0345964Y0032055D01*
X0345994Y0031897D01*
X0346020Y0031739D01*
X0346041Y0031579D01*
X0346059Y0031420D01*
X0346073Y0031260D01*
X0346083Y0031099D01*
X0346089Y0030939D01*
X0346091Y0030778D01*
X0346089Y0030617D01*
X0346083Y0030457D01*
X0346073Y0030296D01*
X0346059Y0030136D01*
X0346041Y0029977D01*
X0346020Y0029817D01*
X0345994Y0029659D01*
X0345964Y0029501D01*
X0345931Y0029344D01*
X0345893Y0029187D01*
X0345852Y0029032D01*
X0345807Y0028878D01*
X0345758Y0028725D01*
X0345705Y0028573D01*
X0345649Y0028423D01*
X0345589Y0028274D01*
X0345525Y0028126D01*
X0345458Y0027980D01*
X0345387Y0027836D01*
X0345312Y0027694D01*
X0345234Y0027553D01*
X0345153Y0027415D01*
X0345068Y0027278D01*
X0344979Y0027144D01*
X0344888Y0027012D01*
X0344793Y0026882D01*
X0344695Y0026755D01*
X0344594Y0026630D01*
X0344490Y0026507D01*
X0344383Y0026388D01*
X0344273Y0026271D01*
X0344160Y0026156D01*
X0344044Y0026045D01*
X0343926Y0025936D01*
X0343805Y0025831D01*
X0343681Y0025728D01*
X0343555Y0025628D01*
X0343426Y0025532D01*
X0343295Y0025439D01*
X0343162Y0025349D01*
X0343027Y0025262D01*
X0342889Y0025179D01*
X0342750Y0025100D01*
X0342608Y0025023D01*
X0342465Y0024950D01*
X0342320Y0024881D01*
X0342173Y0024816D01*
X0342025Y0024754D01*
X0341875Y0024695D01*
X0341724Y0024641D01*
X0341572Y0024590D01*
X0341418Y0024543D01*
X0341263Y0024500D01*
X0341108Y0024461D01*
X0340951Y0024425D01*
X0340793Y0024393D01*
X0340635Y0024366D01*
X0340476Y0024342D01*
X0340317Y0024322D01*
X0340157Y0024306D01*
X0339996Y0024294D01*
X0339836Y0024286D01*
X0339675Y0024282D01*
X0339515Y0024282D01*
X0339354Y0024286D01*
X0339194Y0024294D01*
X0339033Y0024306D01*
X0338873Y0024322D01*
X0338714Y0024342D01*
X0338555Y0024366D01*
X0338397Y0024393D01*
X0338239Y0024425D01*
X0338082Y0024461D01*
X0337927Y0024500D01*
X0337772Y0024543D01*
X0337618Y0024590D01*
X0337466Y0024641D01*
X0337315Y0024695D01*
X0337165Y0024754D01*
X0337017Y0024816D01*
X0336870Y0024881D01*
X0336725Y0024950D01*
X0336582Y0025023D01*
X0336440Y0025100D01*
X0336301Y0025179D01*
X0336163Y0025262D01*
X0336028Y0025349D01*
X0335895Y0025439D01*
X0335764Y0025532D01*
X0335635Y0025628D01*
X0335509Y0025728D01*
X0335385Y0025831D01*
X0335264Y0025936D01*
X0335146Y0026045D01*
X0335030Y0026156D01*
X0334917Y0026271D01*
X0334807Y0026388D01*
X0334700Y0026507D01*
X0334596Y0026630D01*
X0334495Y0026755D01*
X0334397Y0026882D01*
X0334302Y0027012D01*
X0334211Y0027144D01*
X0334122Y0027278D01*
X0334037Y0027415D01*
X0333956Y0027553D01*
X0333878Y0027694D01*
X0333803Y0027836D01*
X0333732Y0027980D01*
X0333665Y0028126D01*
X0333601Y0028274D01*
X0333541Y0028423D01*
X0333485Y0028573D01*
X0333432Y0028725D01*
X0333383Y0028878D01*
X0333338Y0029032D01*
X0333297Y0029187D01*
X0333259Y0029344D01*
X0333226Y0029501D01*
X0333196Y0029659D01*
X0333170Y0029817D01*
X0333149Y0029977D01*
X0333131Y0030136D01*
X0333117Y0030296D01*
X0333107Y0030457D01*
X0333101Y0030617D01*
X0333099Y0030778D01*
X0349635Y0030778D02*
X0349637Y0030939D01*
X0349643Y0031099D01*
X0349653Y0031260D01*
X0349667Y0031420D01*
X0349685Y0031579D01*
X0349706Y0031739D01*
X0349732Y0031897D01*
X0349762Y0032055D01*
X0349795Y0032212D01*
X0349833Y0032369D01*
X0349874Y0032524D01*
X0349919Y0032678D01*
X0349968Y0032831D01*
X0350021Y0032983D01*
X0350077Y0033133D01*
X0350137Y0033282D01*
X0350201Y0033430D01*
X0350268Y0033576D01*
X0350339Y0033720D01*
X0350414Y0033862D01*
X0350492Y0034003D01*
X0350573Y0034141D01*
X0350658Y0034278D01*
X0350747Y0034412D01*
X0350838Y0034544D01*
X0350933Y0034674D01*
X0351031Y0034801D01*
X0351132Y0034926D01*
X0351236Y0035049D01*
X0351343Y0035168D01*
X0351453Y0035285D01*
X0351566Y0035400D01*
X0351682Y0035511D01*
X0351800Y0035620D01*
X0351921Y0035725D01*
X0352045Y0035828D01*
X0352171Y0035928D01*
X0352300Y0036024D01*
X0352431Y0036117D01*
X0352564Y0036207D01*
X0352699Y0036294D01*
X0352837Y0036377D01*
X0352976Y0036456D01*
X0353118Y0036533D01*
X0353261Y0036606D01*
X0353406Y0036675D01*
X0353553Y0036740D01*
X0353701Y0036802D01*
X0353851Y0036861D01*
X0354002Y0036915D01*
X0354154Y0036966D01*
X0354308Y0037013D01*
X0354463Y0037056D01*
X0354618Y0037095D01*
X0354775Y0037131D01*
X0354933Y0037163D01*
X0355091Y0037190D01*
X0355250Y0037214D01*
X0355409Y0037234D01*
X0355569Y0037250D01*
X0355730Y0037262D01*
X0355890Y0037270D01*
X0356051Y0037274D01*
X0356211Y0037274D01*
X0356372Y0037270D01*
X0356532Y0037262D01*
X0356693Y0037250D01*
X0356853Y0037234D01*
X0357012Y0037214D01*
X0357171Y0037190D01*
X0357329Y0037163D01*
X0357487Y0037131D01*
X0357644Y0037095D01*
X0357799Y0037056D01*
X0357954Y0037013D01*
X0358108Y0036966D01*
X0358260Y0036915D01*
X0358411Y0036861D01*
X0358561Y0036802D01*
X0358709Y0036740D01*
X0358856Y0036675D01*
X0359001Y0036606D01*
X0359144Y0036533D01*
X0359286Y0036456D01*
X0359425Y0036377D01*
X0359563Y0036294D01*
X0359698Y0036207D01*
X0359831Y0036117D01*
X0359962Y0036024D01*
X0360091Y0035928D01*
X0360217Y0035828D01*
X0360341Y0035725D01*
X0360462Y0035620D01*
X0360580Y0035511D01*
X0360696Y0035400D01*
X0360809Y0035285D01*
X0360919Y0035168D01*
X0361026Y0035049D01*
X0361130Y0034926D01*
X0361231Y0034801D01*
X0361329Y0034674D01*
X0361424Y0034544D01*
X0361515Y0034412D01*
X0361604Y0034278D01*
X0361689Y0034141D01*
X0361770Y0034003D01*
X0361848Y0033862D01*
X0361923Y0033720D01*
X0361994Y0033576D01*
X0362061Y0033430D01*
X0362125Y0033282D01*
X0362185Y0033133D01*
X0362241Y0032983D01*
X0362294Y0032831D01*
X0362343Y0032678D01*
X0362388Y0032524D01*
X0362429Y0032369D01*
X0362467Y0032212D01*
X0362500Y0032055D01*
X0362530Y0031897D01*
X0362556Y0031739D01*
X0362577Y0031579D01*
X0362595Y0031420D01*
X0362609Y0031260D01*
X0362619Y0031099D01*
X0362625Y0030939D01*
X0362627Y0030778D01*
X0362625Y0030617D01*
X0362619Y0030457D01*
X0362609Y0030296D01*
X0362595Y0030136D01*
X0362577Y0029977D01*
X0362556Y0029817D01*
X0362530Y0029659D01*
X0362500Y0029501D01*
X0362467Y0029344D01*
X0362429Y0029187D01*
X0362388Y0029032D01*
X0362343Y0028878D01*
X0362294Y0028725D01*
X0362241Y0028573D01*
X0362185Y0028423D01*
X0362125Y0028274D01*
X0362061Y0028126D01*
X0361994Y0027980D01*
X0361923Y0027836D01*
X0361848Y0027694D01*
X0361770Y0027553D01*
X0361689Y0027415D01*
X0361604Y0027278D01*
X0361515Y0027144D01*
X0361424Y0027012D01*
X0361329Y0026882D01*
X0361231Y0026755D01*
X0361130Y0026630D01*
X0361026Y0026507D01*
X0360919Y0026388D01*
X0360809Y0026271D01*
X0360696Y0026156D01*
X0360580Y0026045D01*
X0360462Y0025936D01*
X0360341Y0025831D01*
X0360217Y0025728D01*
X0360091Y0025628D01*
X0359962Y0025532D01*
X0359831Y0025439D01*
X0359698Y0025349D01*
X0359563Y0025262D01*
X0359425Y0025179D01*
X0359286Y0025100D01*
X0359144Y0025023D01*
X0359001Y0024950D01*
X0358856Y0024881D01*
X0358709Y0024816D01*
X0358561Y0024754D01*
X0358411Y0024695D01*
X0358260Y0024641D01*
X0358108Y0024590D01*
X0357954Y0024543D01*
X0357799Y0024500D01*
X0357644Y0024461D01*
X0357487Y0024425D01*
X0357329Y0024393D01*
X0357171Y0024366D01*
X0357012Y0024342D01*
X0356853Y0024322D01*
X0356693Y0024306D01*
X0356532Y0024294D01*
X0356372Y0024286D01*
X0356211Y0024282D01*
X0356051Y0024282D01*
X0355890Y0024286D01*
X0355730Y0024294D01*
X0355569Y0024306D01*
X0355409Y0024322D01*
X0355250Y0024342D01*
X0355091Y0024366D01*
X0354933Y0024393D01*
X0354775Y0024425D01*
X0354618Y0024461D01*
X0354463Y0024500D01*
X0354308Y0024543D01*
X0354154Y0024590D01*
X0354002Y0024641D01*
X0353851Y0024695D01*
X0353701Y0024754D01*
X0353553Y0024816D01*
X0353406Y0024881D01*
X0353261Y0024950D01*
X0353118Y0025023D01*
X0352976Y0025100D01*
X0352837Y0025179D01*
X0352699Y0025262D01*
X0352564Y0025349D01*
X0352431Y0025439D01*
X0352300Y0025532D01*
X0352171Y0025628D01*
X0352045Y0025728D01*
X0351921Y0025831D01*
X0351800Y0025936D01*
X0351682Y0026045D01*
X0351566Y0026156D01*
X0351453Y0026271D01*
X0351343Y0026388D01*
X0351236Y0026507D01*
X0351132Y0026630D01*
X0351031Y0026755D01*
X0350933Y0026882D01*
X0350838Y0027012D01*
X0350747Y0027144D01*
X0350658Y0027278D01*
X0350573Y0027415D01*
X0350492Y0027553D01*
X0350414Y0027694D01*
X0350339Y0027836D01*
X0350268Y0027980D01*
X0350201Y0028126D01*
X0350137Y0028274D01*
X0350077Y0028423D01*
X0350021Y0028573D01*
X0349968Y0028725D01*
X0349919Y0028878D01*
X0349874Y0029032D01*
X0349833Y0029187D01*
X0349795Y0029344D01*
X0349762Y0029501D01*
X0349732Y0029659D01*
X0349706Y0029817D01*
X0349685Y0029977D01*
X0349667Y0030136D01*
X0349653Y0030296D01*
X0349643Y0030457D01*
X0349637Y0030617D01*
X0349635Y0030778D01*
X0407115Y0030778D02*
X0407117Y0030939D01*
X0407123Y0031099D01*
X0407133Y0031260D01*
X0407147Y0031420D01*
X0407165Y0031579D01*
X0407186Y0031739D01*
X0407212Y0031897D01*
X0407242Y0032055D01*
X0407275Y0032212D01*
X0407313Y0032369D01*
X0407354Y0032524D01*
X0407399Y0032678D01*
X0407448Y0032831D01*
X0407501Y0032983D01*
X0407557Y0033133D01*
X0407617Y0033282D01*
X0407681Y0033430D01*
X0407748Y0033576D01*
X0407819Y0033720D01*
X0407894Y0033862D01*
X0407972Y0034003D01*
X0408053Y0034141D01*
X0408138Y0034278D01*
X0408227Y0034412D01*
X0408318Y0034544D01*
X0408413Y0034674D01*
X0408511Y0034801D01*
X0408612Y0034926D01*
X0408716Y0035049D01*
X0408823Y0035168D01*
X0408933Y0035285D01*
X0409046Y0035400D01*
X0409162Y0035511D01*
X0409280Y0035620D01*
X0409401Y0035725D01*
X0409525Y0035828D01*
X0409651Y0035928D01*
X0409780Y0036024D01*
X0409911Y0036117D01*
X0410044Y0036207D01*
X0410179Y0036294D01*
X0410317Y0036377D01*
X0410456Y0036456D01*
X0410598Y0036533D01*
X0410741Y0036606D01*
X0410886Y0036675D01*
X0411033Y0036740D01*
X0411181Y0036802D01*
X0411331Y0036861D01*
X0411482Y0036915D01*
X0411634Y0036966D01*
X0411788Y0037013D01*
X0411943Y0037056D01*
X0412098Y0037095D01*
X0412255Y0037131D01*
X0412413Y0037163D01*
X0412571Y0037190D01*
X0412730Y0037214D01*
X0412889Y0037234D01*
X0413049Y0037250D01*
X0413210Y0037262D01*
X0413370Y0037270D01*
X0413531Y0037274D01*
X0413691Y0037274D01*
X0413852Y0037270D01*
X0414012Y0037262D01*
X0414173Y0037250D01*
X0414333Y0037234D01*
X0414492Y0037214D01*
X0414651Y0037190D01*
X0414809Y0037163D01*
X0414967Y0037131D01*
X0415124Y0037095D01*
X0415279Y0037056D01*
X0415434Y0037013D01*
X0415588Y0036966D01*
X0415740Y0036915D01*
X0415891Y0036861D01*
X0416041Y0036802D01*
X0416189Y0036740D01*
X0416336Y0036675D01*
X0416481Y0036606D01*
X0416624Y0036533D01*
X0416766Y0036456D01*
X0416905Y0036377D01*
X0417043Y0036294D01*
X0417178Y0036207D01*
X0417311Y0036117D01*
X0417442Y0036024D01*
X0417571Y0035928D01*
X0417697Y0035828D01*
X0417821Y0035725D01*
X0417942Y0035620D01*
X0418060Y0035511D01*
X0418176Y0035400D01*
X0418289Y0035285D01*
X0418399Y0035168D01*
X0418506Y0035049D01*
X0418610Y0034926D01*
X0418711Y0034801D01*
X0418809Y0034674D01*
X0418904Y0034544D01*
X0418995Y0034412D01*
X0419084Y0034278D01*
X0419169Y0034141D01*
X0419250Y0034003D01*
X0419328Y0033862D01*
X0419403Y0033720D01*
X0419474Y0033576D01*
X0419541Y0033430D01*
X0419605Y0033282D01*
X0419665Y0033133D01*
X0419721Y0032983D01*
X0419774Y0032831D01*
X0419823Y0032678D01*
X0419868Y0032524D01*
X0419909Y0032369D01*
X0419947Y0032212D01*
X0419980Y0032055D01*
X0420010Y0031897D01*
X0420036Y0031739D01*
X0420057Y0031579D01*
X0420075Y0031420D01*
X0420089Y0031260D01*
X0420099Y0031099D01*
X0420105Y0030939D01*
X0420107Y0030778D01*
X0420105Y0030617D01*
X0420099Y0030457D01*
X0420089Y0030296D01*
X0420075Y0030136D01*
X0420057Y0029977D01*
X0420036Y0029817D01*
X0420010Y0029659D01*
X0419980Y0029501D01*
X0419947Y0029344D01*
X0419909Y0029187D01*
X0419868Y0029032D01*
X0419823Y0028878D01*
X0419774Y0028725D01*
X0419721Y0028573D01*
X0419665Y0028423D01*
X0419605Y0028274D01*
X0419541Y0028126D01*
X0419474Y0027980D01*
X0419403Y0027836D01*
X0419328Y0027694D01*
X0419250Y0027553D01*
X0419169Y0027415D01*
X0419084Y0027278D01*
X0418995Y0027144D01*
X0418904Y0027012D01*
X0418809Y0026882D01*
X0418711Y0026755D01*
X0418610Y0026630D01*
X0418506Y0026507D01*
X0418399Y0026388D01*
X0418289Y0026271D01*
X0418176Y0026156D01*
X0418060Y0026045D01*
X0417942Y0025936D01*
X0417821Y0025831D01*
X0417697Y0025728D01*
X0417571Y0025628D01*
X0417442Y0025532D01*
X0417311Y0025439D01*
X0417178Y0025349D01*
X0417043Y0025262D01*
X0416905Y0025179D01*
X0416766Y0025100D01*
X0416624Y0025023D01*
X0416481Y0024950D01*
X0416336Y0024881D01*
X0416189Y0024816D01*
X0416041Y0024754D01*
X0415891Y0024695D01*
X0415740Y0024641D01*
X0415588Y0024590D01*
X0415434Y0024543D01*
X0415279Y0024500D01*
X0415124Y0024461D01*
X0414967Y0024425D01*
X0414809Y0024393D01*
X0414651Y0024366D01*
X0414492Y0024342D01*
X0414333Y0024322D01*
X0414173Y0024306D01*
X0414012Y0024294D01*
X0413852Y0024286D01*
X0413691Y0024282D01*
X0413531Y0024282D01*
X0413370Y0024286D01*
X0413210Y0024294D01*
X0413049Y0024306D01*
X0412889Y0024322D01*
X0412730Y0024342D01*
X0412571Y0024366D01*
X0412413Y0024393D01*
X0412255Y0024425D01*
X0412098Y0024461D01*
X0411943Y0024500D01*
X0411788Y0024543D01*
X0411634Y0024590D01*
X0411482Y0024641D01*
X0411331Y0024695D01*
X0411181Y0024754D01*
X0411033Y0024816D01*
X0410886Y0024881D01*
X0410741Y0024950D01*
X0410598Y0025023D01*
X0410456Y0025100D01*
X0410317Y0025179D01*
X0410179Y0025262D01*
X0410044Y0025349D01*
X0409911Y0025439D01*
X0409780Y0025532D01*
X0409651Y0025628D01*
X0409525Y0025728D01*
X0409401Y0025831D01*
X0409280Y0025936D01*
X0409162Y0026045D01*
X0409046Y0026156D01*
X0408933Y0026271D01*
X0408823Y0026388D01*
X0408716Y0026507D01*
X0408612Y0026630D01*
X0408511Y0026755D01*
X0408413Y0026882D01*
X0408318Y0027012D01*
X0408227Y0027144D01*
X0408138Y0027278D01*
X0408053Y0027415D01*
X0407972Y0027553D01*
X0407894Y0027694D01*
X0407819Y0027836D01*
X0407748Y0027980D01*
X0407681Y0028126D01*
X0407617Y0028274D01*
X0407557Y0028423D01*
X0407501Y0028573D01*
X0407448Y0028725D01*
X0407399Y0028878D01*
X0407354Y0029032D01*
X0407313Y0029187D01*
X0407275Y0029344D01*
X0407242Y0029501D01*
X0407212Y0029659D01*
X0407186Y0029817D01*
X0407165Y0029977D01*
X0407147Y0030136D01*
X0407133Y0030296D01*
X0407123Y0030457D01*
X0407117Y0030617D01*
X0407115Y0030778D01*
X0426603Y0028022D02*
X0426605Y0028180D01*
X0426611Y0028338D01*
X0426621Y0028496D01*
X0426635Y0028654D01*
X0426653Y0028811D01*
X0426674Y0028968D01*
X0426700Y0029124D01*
X0426730Y0029280D01*
X0426763Y0029435D01*
X0426801Y0029588D01*
X0426842Y0029741D01*
X0426887Y0029893D01*
X0426936Y0030044D01*
X0426989Y0030193D01*
X0427045Y0030341D01*
X0427105Y0030487D01*
X0427169Y0030632D01*
X0427237Y0030775D01*
X0427308Y0030917D01*
X0427382Y0031057D01*
X0427460Y0031194D01*
X0427542Y0031330D01*
X0427626Y0031464D01*
X0427715Y0031595D01*
X0427806Y0031724D01*
X0427901Y0031851D01*
X0427998Y0031976D01*
X0428099Y0032098D01*
X0428203Y0032217D01*
X0428310Y0032334D01*
X0428420Y0032448D01*
X0428533Y0032559D01*
X0428648Y0032668D01*
X0428766Y0032773D01*
X0428887Y0032875D01*
X0429010Y0032975D01*
X0429136Y0033071D01*
X0429264Y0033164D01*
X0429394Y0033254D01*
X0429527Y0033340D01*
X0429662Y0033424D01*
X0429798Y0033503D01*
X0429937Y0033580D01*
X0430078Y0033652D01*
X0430220Y0033722D01*
X0430364Y0033787D01*
X0430510Y0033849D01*
X0430657Y0033907D01*
X0430806Y0033962D01*
X0430956Y0034013D01*
X0431107Y0034060D01*
X0431259Y0034103D01*
X0431412Y0034142D01*
X0431567Y0034178D01*
X0431722Y0034209D01*
X0431878Y0034237D01*
X0432034Y0034261D01*
X0432191Y0034281D01*
X0432349Y0034297D01*
X0432506Y0034309D01*
X0432665Y0034317D01*
X0432823Y0034321D01*
X0432981Y0034321D01*
X0433139Y0034317D01*
X0433298Y0034309D01*
X0433455Y0034297D01*
X0433613Y0034281D01*
X0433770Y0034261D01*
X0433926Y0034237D01*
X0434082Y0034209D01*
X0434237Y0034178D01*
X0434392Y0034142D01*
X0434545Y0034103D01*
X0434697Y0034060D01*
X0434848Y0034013D01*
X0434998Y0033962D01*
X0435147Y0033907D01*
X0435294Y0033849D01*
X0435440Y0033787D01*
X0435584Y0033722D01*
X0435726Y0033652D01*
X0435867Y0033580D01*
X0436006Y0033503D01*
X0436142Y0033424D01*
X0436277Y0033340D01*
X0436410Y0033254D01*
X0436540Y0033164D01*
X0436668Y0033071D01*
X0436794Y0032975D01*
X0436917Y0032875D01*
X0437038Y0032773D01*
X0437156Y0032668D01*
X0437271Y0032559D01*
X0437384Y0032448D01*
X0437494Y0032334D01*
X0437601Y0032217D01*
X0437705Y0032098D01*
X0437806Y0031976D01*
X0437903Y0031851D01*
X0437998Y0031724D01*
X0438089Y0031595D01*
X0438178Y0031464D01*
X0438262Y0031330D01*
X0438344Y0031194D01*
X0438422Y0031057D01*
X0438496Y0030917D01*
X0438567Y0030775D01*
X0438635Y0030632D01*
X0438699Y0030487D01*
X0438759Y0030341D01*
X0438815Y0030193D01*
X0438868Y0030044D01*
X0438917Y0029893D01*
X0438962Y0029741D01*
X0439003Y0029588D01*
X0439041Y0029435D01*
X0439074Y0029280D01*
X0439104Y0029124D01*
X0439130Y0028968D01*
X0439151Y0028811D01*
X0439169Y0028654D01*
X0439183Y0028496D01*
X0439193Y0028338D01*
X0439199Y0028180D01*
X0439201Y0028022D01*
X0439199Y0027864D01*
X0439193Y0027706D01*
X0439183Y0027548D01*
X0439169Y0027390D01*
X0439151Y0027233D01*
X0439130Y0027076D01*
X0439104Y0026920D01*
X0439074Y0026764D01*
X0439041Y0026609D01*
X0439003Y0026456D01*
X0438962Y0026303D01*
X0438917Y0026151D01*
X0438868Y0026000D01*
X0438815Y0025851D01*
X0438759Y0025703D01*
X0438699Y0025557D01*
X0438635Y0025412D01*
X0438567Y0025269D01*
X0438496Y0025127D01*
X0438422Y0024987D01*
X0438344Y0024850D01*
X0438262Y0024714D01*
X0438178Y0024580D01*
X0438089Y0024449D01*
X0437998Y0024320D01*
X0437903Y0024193D01*
X0437806Y0024068D01*
X0437705Y0023946D01*
X0437601Y0023827D01*
X0437494Y0023710D01*
X0437384Y0023596D01*
X0437271Y0023485D01*
X0437156Y0023376D01*
X0437038Y0023271D01*
X0436917Y0023169D01*
X0436794Y0023069D01*
X0436668Y0022973D01*
X0436540Y0022880D01*
X0436410Y0022790D01*
X0436277Y0022704D01*
X0436142Y0022620D01*
X0436006Y0022541D01*
X0435867Y0022464D01*
X0435726Y0022392D01*
X0435584Y0022322D01*
X0435440Y0022257D01*
X0435294Y0022195D01*
X0435147Y0022137D01*
X0434998Y0022082D01*
X0434848Y0022031D01*
X0434697Y0021984D01*
X0434545Y0021941D01*
X0434392Y0021902D01*
X0434237Y0021866D01*
X0434082Y0021835D01*
X0433926Y0021807D01*
X0433770Y0021783D01*
X0433613Y0021763D01*
X0433455Y0021747D01*
X0433298Y0021735D01*
X0433139Y0021727D01*
X0432981Y0021723D01*
X0432823Y0021723D01*
X0432665Y0021727D01*
X0432506Y0021735D01*
X0432349Y0021747D01*
X0432191Y0021763D01*
X0432034Y0021783D01*
X0431878Y0021807D01*
X0431722Y0021835D01*
X0431567Y0021866D01*
X0431412Y0021902D01*
X0431259Y0021941D01*
X0431107Y0021984D01*
X0430956Y0022031D01*
X0430806Y0022082D01*
X0430657Y0022137D01*
X0430510Y0022195D01*
X0430364Y0022257D01*
X0430220Y0022322D01*
X0430078Y0022392D01*
X0429937Y0022464D01*
X0429798Y0022541D01*
X0429662Y0022620D01*
X0429527Y0022704D01*
X0429394Y0022790D01*
X0429264Y0022880D01*
X0429136Y0022973D01*
X0429010Y0023069D01*
X0428887Y0023169D01*
X0428766Y0023271D01*
X0428648Y0023376D01*
X0428533Y0023485D01*
X0428420Y0023596D01*
X0428310Y0023710D01*
X0428203Y0023827D01*
X0428099Y0023946D01*
X0427998Y0024068D01*
X0427901Y0024193D01*
X0427806Y0024320D01*
X0427715Y0024449D01*
X0427626Y0024580D01*
X0427542Y0024714D01*
X0427460Y0024850D01*
X0427382Y0024987D01*
X0427308Y0025127D01*
X0427237Y0025269D01*
X0427169Y0025412D01*
X0427105Y0025557D01*
X0427045Y0025703D01*
X0426989Y0025851D01*
X0426936Y0026000D01*
X0426887Y0026151D01*
X0426842Y0026303D01*
X0426801Y0026456D01*
X0426763Y0026609D01*
X0426730Y0026764D01*
X0426700Y0026920D01*
X0426674Y0027076D01*
X0426653Y0027233D01*
X0426635Y0027390D01*
X0426621Y0027548D01*
X0426611Y0027706D01*
X0426605Y0027864D01*
X0426603Y0028022D01*
X0426603Y0242589D02*
X0426605Y0242747D01*
X0426611Y0242905D01*
X0426621Y0243063D01*
X0426635Y0243221D01*
X0426653Y0243378D01*
X0426674Y0243535D01*
X0426700Y0243691D01*
X0426730Y0243847D01*
X0426763Y0244002D01*
X0426801Y0244155D01*
X0426842Y0244308D01*
X0426887Y0244460D01*
X0426936Y0244611D01*
X0426989Y0244760D01*
X0427045Y0244908D01*
X0427105Y0245054D01*
X0427169Y0245199D01*
X0427237Y0245342D01*
X0427308Y0245484D01*
X0427382Y0245624D01*
X0427460Y0245761D01*
X0427542Y0245897D01*
X0427626Y0246031D01*
X0427715Y0246162D01*
X0427806Y0246291D01*
X0427901Y0246418D01*
X0427998Y0246543D01*
X0428099Y0246665D01*
X0428203Y0246784D01*
X0428310Y0246901D01*
X0428420Y0247015D01*
X0428533Y0247126D01*
X0428648Y0247235D01*
X0428766Y0247340D01*
X0428887Y0247442D01*
X0429010Y0247542D01*
X0429136Y0247638D01*
X0429264Y0247731D01*
X0429394Y0247821D01*
X0429527Y0247907D01*
X0429662Y0247991D01*
X0429798Y0248070D01*
X0429937Y0248147D01*
X0430078Y0248219D01*
X0430220Y0248289D01*
X0430364Y0248354D01*
X0430510Y0248416D01*
X0430657Y0248474D01*
X0430806Y0248529D01*
X0430956Y0248580D01*
X0431107Y0248627D01*
X0431259Y0248670D01*
X0431412Y0248709D01*
X0431567Y0248745D01*
X0431722Y0248776D01*
X0431878Y0248804D01*
X0432034Y0248828D01*
X0432191Y0248848D01*
X0432349Y0248864D01*
X0432506Y0248876D01*
X0432665Y0248884D01*
X0432823Y0248888D01*
X0432981Y0248888D01*
X0433139Y0248884D01*
X0433298Y0248876D01*
X0433455Y0248864D01*
X0433613Y0248848D01*
X0433770Y0248828D01*
X0433926Y0248804D01*
X0434082Y0248776D01*
X0434237Y0248745D01*
X0434392Y0248709D01*
X0434545Y0248670D01*
X0434697Y0248627D01*
X0434848Y0248580D01*
X0434998Y0248529D01*
X0435147Y0248474D01*
X0435294Y0248416D01*
X0435440Y0248354D01*
X0435584Y0248289D01*
X0435726Y0248219D01*
X0435867Y0248147D01*
X0436006Y0248070D01*
X0436142Y0247991D01*
X0436277Y0247907D01*
X0436410Y0247821D01*
X0436540Y0247731D01*
X0436668Y0247638D01*
X0436794Y0247542D01*
X0436917Y0247442D01*
X0437038Y0247340D01*
X0437156Y0247235D01*
X0437271Y0247126D01*
X0437384Y0247015D01*
X0437494Y0246901D01*
X0437601Y0246784D01*
X0437705Y0246665D01*
X0437806Y0246543D01*
X0437903Y0246418D01*
X0437998Y0246291D01*
X0438089Y0246162D01*
X0438178Y0246031D01*
X0438262Y0245897D01*
X0438344Y0245761D01*
X0438422Y0245624D01*
X0438496Y0245484D01*
X0438567Y0245342D01*
X0438635Y0245199D01*
X0438699Y0245054D01*
X0438759Y0244908D01*
X0438815Y0244760D01*
X0438868Y0244611D01*
X0438917Y0244460D01*
X0438962Y0244308D01*
X0439003Y0244155D01*
X0439041Y0244002D01*
X0439074Y0243847D01*
X0439104Y0243691D01*
X0439130Y0243535D01*
X0439151Y0243378D01*
X0439169Y0243221D01*
X0439183Y0243063D01*
X0439193Y0242905D01*
X0439199Y0242747D01*
X0439201Y0242589D01*
X0439199Y0242431D01*
X0439193Y0242273D01*
X0439183Y0242115D01*
X0439169Y0241957D01*
X0439151Y0241800D01*
X0439130Y0241643D01*
X0439104Y0241487D01*
X0439074Y0241331D01*
X0439041Y0241176D01*
X0439003Y0241023D01*
X0438962Y0240870D01*
X0438917Y0240718D01*
X0438868Y0240567D01*
X0438815Y0240418D01*
X0438759Y0240270D01*
X0438699Y0240124D01*
X0438635Y0239979D01*
X0438567Y0239836D01*
X0438496Y0239694D01*
X0438422Y0239554D01*
X0438344Y0239417D01*
X0438262Y0239281D01*
X0438178Y0239147D01*
X0438089Y0239016D01*
X0437998Y0238887D01*
X0437903Y0238760D01*
X0437806Y0238635D01*
X0437705Y0238513D01*
X0437601Y0238394D01*
X0437494Y0238277D01*
X0437384Y0238163D01*
X0437271Y0238052D01*
X0437156Y0237943D01*
X0437038Y0237838D01*
X0436917Y0237736D01*
X0436794Y0237636D01*
X0436668Y0237540D01*
X0436540Y0237447D01*
X0436410Y0237357D01*
X0436277Y0237271D01*
X0436142Y0237187D01*
X0436006Y0237108D01*
X0435867Y0237031D01*
X0435726Y0236959D01*
X0435584Y0236889D01*
X0435440Y0236824D01*
X0435294Y0236762D01*
X0435147Y0236704D01*
X0434998Y0236649D01*
X0434848Y0236598D01*
X0434697Y0236551D01*
X0434545Y0236508D01*
X0434392Y0236469D01*
X0434237Y0236433D01*
X0434082Y0236402D01*
X0433926Y0236374D01*
X0433770Y0236350D01*
X0433613Y0236330D01*
X0433455Y0236314D01*
X0433298Y0236302D01*
X0433139Y0236294D01*
X0432981Y0236290D01*
X0432823Y0236290D01*
X0432665Y0236294D01*
X0432506Y0236302D01*
X0432349Y0236314D01*
X0432191Y0236330D01*
X0432034Y0236350D01*
X0431878Y0236374D01*
X0431722Y0236402D01*
X0431567Y0236433D01*
X0431412Y0236469D01*
X0431259Y0236508D01*
X0431107Y0236551D01*
X0430956Y0236598D01*
X0430806Y0236649D01*
X0430657Y0236704D01*
X0430510Y0236762D01*
X0430364Y0236824D01*
X0430220Y0236889D01*
X0430078Y0236959D01*
X0429937Y0237031D01*
X0429798Y0237108D01*
X0429662Y0237187D01*
X0429527Y0237271D01*
X0429394Y0237357D01*
X0429264Y0237447D01*
X0429136Y0237540D01*
X0429010Y0237636D01*
X0428887Y0237736D01*
X0428766Y0237838D01*
X0428648Y0237943D01*
X0428533Y0238052D01*
X0428420Y0238163D01*
X0428310Y0238277D01*
X0428203Y0238394D01*
X0428099Y0238513D01*
X0427998Y0238635D01*
X0427901Y0238760D01*
X0427806Y0238887D01*
X0427715Y0239016D01*
X0427626Y0239147D01*
X0427542Y0239281D01*
X0427460Y0239417D01*
X0427382Y0239554D01*
X0427308Y0239694D01*
X0427237Y0239836D01*
X0427169Y0239979D01*
X0427105Y0240124D01*
X0427045Y0240270D01*
X0426989Y0240418D01*
X0426936Y0240567D01*
X0426887Y0240718D01*
X0426842Y0240870D01*
X0426801Y0241023D01*
X0426763Y0241176D01*
X0426730Y0241331D01*
X0426700Y0241487D01*
X0426674Y0241643D01*
X0426653Y0241800D01*
X0426635Y0241957D01*
X0426621Y0242115D01*
X0426611Y0242273D01*
X0426605Y0242431D01*
X0426603Y0242589D01*
X0360855Y0240817D02*
X0360857Y0240945D01*
X0360863Y0241073D01*
X0360873Y0241200D01*
X0360887Y0241328D01*
X0360904Y0241454D01*
X0360926Y0241580D01*
X0360952Y0241706D01*
X0360981Y0241830D01*
X0361014Y0241954D01*
X0361051Y0242076D01*
X0361092Y0242197D01*
X0361137Y0242317D01*
X0361185Y0242436D01*
X0361237Y0242553D01*
X0361293Y0242668D01*
X0361352Y0242782D01*
X0361414Y0242893D01*
X0361480Y0243003D01*
X0361549Y0243110D01*
X0361622Y0243216D01*
X0361698Y0243319D01*
X0361777Y0243419D01*
X0361859Y0243518D01*
X0361944Y0243613D01*
X0362032Y0243706D01*
X0362123Y0243796D01*
X0362216Y0243883D01*
X0362313Y0243968D01*
X0362411Y0244049D01*
X0362513Y0244127D01*
X0362616Y0244202D01*
X0362722Y0244274D01*
X0362830Y0244343D01*
X0362940Y0244408D01*
X0363053Y0244469D01*
X0363167Y0244528D01*
X0363282Y0244582D01*
X0363400Y0244633D01*
X0363518Y0244681D01*
X0363639Y0244724D01*
X0363760Y0244764D01*
X0363883Y0244800D01*
X0364007Y0244833D01*
X0364132Y0244861D01*
X0364257Y0244886D01*
X0364383Y0244906D01*
X0364510Y0244923D01*
X0364638Y0244936D01*
X0364765Y0244945D01*
X0364893Y0244950D01*
X0365021Y0244951D01*
X0365149Y0244948D01*
X0365277Y0244941D01*
X0365404Y0244930D01*
X0365531Y0244915D01*
X0365658Y0244897D01*
X0365784Y0244874D01*
X0365909Y0244847D01*
X0366033Y0244817D01*
X0366156Y0244783D01*
X0366279Y0244745D01*
X0366400Y0244703D01*
X0366519Y0244657D01*
X0366637Y0244608D01*
X0366754Y0244555D01*
X0366869Y0244499D01*
X0366982Y0244439D01*
X0367093Y0244376D01*
X0367202Y0244309D01*
X0367309Y0244239D01*
X0367414Y0244165D01*
X0367516Y0244089D01*
X0367616Y0244009D01*
X0367714Y0243926D01*
X0367809Y0243840D01*
X0367901Y0243751D01*
X0367990Y0243660D01*
X0368077Y0243566D01*
X0368160Y0243469D01*
X0368241Y0243369D01*
X0368318Y0243268D01*
X0368393Y0243163D01*
X0368464Y0243057D01*
X0368531Y0242948D01*
X0368596Y0242838D01*
X0368656Y0242725D01*
X0368714Y0242611D01*
X0368767Y0242495D01*
X0368817Y0242377D01*
X0368864Y0242258D01*
X0368907Y0242137D01*
X0368946Y0242015D01*
X0368981Y0241892D01*
X0369012Y0241768D01*
X0369040Y0241643D01*
X0369063Y0241517D01*
X0369083Y0241391D01*
X0369099Y0241264D01*
X0369111Y0241137D01*
X0369119Y0241009D01*
X0369123Y0240881D01*
X0369123Y0240753D01*
X0369119Y0240625D01*
X0369111Y0240497D01*
X0369099Y0240370D01*
X0369083Y0240243D01*
X0369063Y0240117D01*
X0369040Y0239991D01*
X0369012Y0239866D01*
X0368981Y0239742D01*
X0368946Y0239619D01*
X0368907Y0239497D01*
X0368864Y0239376D01*
X0368817Y0239257D01*
X0368767Y0239139D01*
X0368714Y0239023D01*
X0368656Y0238909D01*
X0368596Y0238796D01*
X0368531Y0238686D01*
X0368464Y0238577D01*
X0368393Y0238471D01*
X0368318Y0238366D01*
X0368241Y0238265D01*
X0368160Y0238165D01*
X0368077Y0238068D01*
X0367990Y0237974D01*
X0367901Y0237883D01*
X0367809Y0237794D01*
X0367714Y0237708D01*
X0367616Y0237625D01*
X0367516Y0237545D01*
X0367414Y0237469D01*
X0367309Y0237395D01*
X0367202Y0237325D01*
X0367093Y0237258D01*
X0366982Y0237195D01*
X0366869Y0237135D01*
X0366754Y0237079D01*
X0366637Y0237026D01*
X0366519Y0236977D01*
X0366400Y0236931D01*
X0366279Y0236889D01*
X0366156Y0236851D01*
X0366033Y0236817D01*
X0365909Y0236787D01*
X0365784Y0236760D01*
X0365658Y0236737D01*
X0365531Y0236719D01*
X0365404Y0236704D01*
X0365277Y0236693D01*
X0365149Y0236686D01*
X0365021Y0236683D01*
X0364893Y0236684D01*
X0364765Y0236689D01*
X0364638Y0236698D01*
X0364510Y0236711D01*
X0364383Y0236728D01*
X0364257Y0236748D01*
X0364132Y0236773D01*
X0364007Y0236801D01*
X0363883Y0236834D01*
X0363760Y0236870D01*
X0363639Y0236910D01*
X0363518Y0236953D01*
X0363400Y0237001D01*
X0363282Y0237052D01*
X0363167Y0237106D01*
X0363053Y0237165D01*
X0362940Y0237226D01*
X0362830Y0237291D01*
X0362722Y0237360D01*
X0362616Y0237432D01*
X0362513Y0237507D01*
X0362411Y0237585D01*
X0362313Y0237666D01*
X0362216Y0237751D01*
X0362123Y0237838D01*
X0362032Y0237928D01*
X0361944Y0238021D01*
X0361859Y0238116D01*
X0361777Y0238215D01*
X0361698Y0238315D01*
X0361622Y0238418D01*
X0361549Y0238524D01*
X0361480Y0238631D01*
X0361414Y0238741D01*
X0361352Y0238852D01*
X0361293Y0238966D01*
X0361237Y0239081D01*
X0361185Y0239198D01*
X0361137Y0239317D01*
X0361092Y0239437D01*
X0361051Y0239558D01*
X0361014Y0239680D01*
X0360981Y0239804D01*
X0360952Y0239928D01*
X0360926Y0240054D01*
X0360904Y0240180D01*
X0360887Y0240306D01*
X0360873Y0240434D01*
X0360863Y0240561D01*
X0360857Y0240689D01*
X0360855Y0240817D01*
X0327390Y0240817D02*
X0327392Y0240945D01*
X0327398Y0241073D01*
X0327408Y0241200D01*
X0327422Y0241328D01*
X0327439Y0241454D01*
X0327461Y0241580D01*
X0327487Y0241706D01*
X0327516Y0241830D01*
X0327549Y0241954D01*
X0327586Y0242076D01*
X0327627Y0242197D01*
X0327672Y0242317D01*
X0327720Y0242436D01*
X0327772Y0242553D01*
X0327828Y0242668D01*
X0327887Y0242782D01*
X0327949Y0242893D01*
X0328015Y0243003D01*
X0328084Y0243110D01*
X0328157Y0243216D01*
X0328233Y0243319D01*
X0328312Y0243419D01*
X0328394Y0243518D01*
X0328479Y0243613D01*
X0328567Y0243706D01*
X0328658Y0243796D01*
X0328751Y0243883D01*
X0328848Y0243968D01*
X0328946Y0244049D01*
X0329048Y0244127D01*
X0329151Y0244202D01*
X0329257Y0244274D01*
X0329365Y0244343D01*
X0329475Y0244408D01*
X0329588Y0244469D01*
X0329702Y0244528D01*
X0329817Y0244582D01*
X0329935Y0244633D01*
X0330053Y0244681D01*
X0330174Y0244724D01*
X0330295Y0244764D01*
X0330418Y0244800D01*
X0330542Y0244833D01*
X0330667Y0244861D01*
X0330792Y0244886D01*
X0330918Y0244906D01*
X0331045Y0244923D01*
X0331173Y0244936D01*
X0331300Y0244945D01*
X0331428Y0244950D01*
X0331556Y0244951D01*
X0331684Y0244948D01*
X0331812Y0244941D01*
X0331939Y0244930D01*
X0332066Y0244915D01*
X0332193Y0244897D01*
X0332319Y0244874D01*
X0332444Y0244847D01*
X0332568Y0244817D01*
X0332691Y0244783D01*
X0332814Y0244745D01*
X0332935Y0244703D01*
X0333054Y0244657D01*
X0333172Y0244608D01*
X0333289Y0244555D01*
X0333404Y0244499D01*
X0333517Y0244439D01*
X0333628Y0244376D01*
X0333737Y0244309D01*
X0333844Y0244239D01*
X0333949Y0244165D01*
X0334051Y0244089D01*
X0334151Y0244009D01*
X0334249Y0243926D01*
X0334344Y0243840D01*
X0334436Y0243751D01*
X0334525Y0243660D01*
X0334612Y0243566D01*
X0334695Y0243469D01*
X0334776Y0243369D01*
X0334853Y0243268D01*
X0334928Y0243163D01*
X0334999Y0243057D01*
X0335066Y0242948D01*
X0335131Y0242838D01*
X0335191Y0242725D01*
X0335249Y0242611D01*
X0335302Y0242495D01*
X0335352Y0242377D01*
X0335399Y0242258D01*
X0335442Y0242137D01*
X0335481Y0242015D01*
X0335516Y0241892D01*
X0335547Y0241768D01*
X0335575Y0241643D01*
X0335598Y0241517D01*
X0335618Y0241391D01*
X0335634Y0241264D01*
X0335646Y0241137D01*
X0335654Y0241009D01*
X0335658Y0240881D01*
X0335658Y0240753D01*
X0335654Y0240625D01*
X0335646Y0240497D01*
X0335634Y0240370D01*
X0335618Y0240243D01*
X0335598Y0240117D01*
X0335575Y0239991D01*
X0335547Y0239866D01*
X0335516Y0239742D01*
X0335481Y0239619D01*
X0335442Y0239497D01*
X0335399Y0239376D01*
X0335352Y0239257D01*
X0335302Y0239139D01*
X0335249Y0239023D01*
X0335191Y0238909D01*
X0335131Y0238796D01*
X0335066Y0238686D01*
X0334999Y0238577D01*
X0334928Y0238471D01*
X0334853Y0238366D01*
X0334776Y0238265D01*
X0334695Y0238165D01*
X0334612Y0238068D01*
X0334525Y0237974D01*
X0334436Y0237883D01*
X0334344Y0237794D01*
X0334249Y0237708D01*
X0334151Y0237625D01*
X0334051Y0237545D01*
X0333949Y0237469D01*
X0333844Y0237395D01*
X0333737Y0237325D01*
X0333628Y0237258D01*
X0333517Y0237195D01*
X0333404Y0237135D01*
X0333289Y0237079D01*
X0333172Y0237026D01*
X0333054Y0236977D01*
X0332935Y0236931D01*
X0332814Y0236889D01*
X0332691Y0236851D01*
X0332568Y0236817D01*
X0332444Y0236787D01*
X0332319Y0236760D01*
X0332193Y0236737D01*
X0332066Y0236719D01*
X0331939Y0236704D01*
X0331812Y0236693D01*
X0331684Y0236686D01*
X0331556Y0236683D01*
X0331428Y0236684D01*
X0331300Y0236689D01*
X0331173Y0236698D01*
X0331045Y0236711D01*
X0330918Y0236728D01*
X0330792Y0236748D01*
X0330667Y0236773D01*
X0330542Y0236801D01*
X0330418Y0236834D01*
X0330295Y0236870D01*
X0330174Y0236910D01*
X0330053Y0236953D01*
X0329935Y0237001D01*
X0329817Y0237052D01*
X0329702Y0237106D01*
X0329588Y0237165D01*
X0329475Y0237226D01*
X0329365Y0237291D01*
X0329257Y0237360D01*
X0329151Y0237432D01*
X0329048Y0237507D01*
X0328946Y0237585D01*
X0328848Y0237666D01*
X0328751Y0237751D01*
X0328658Y0237838D01*
X0328567Y0237928D01*
X0328479Y0238021D01*
X0328394Y0238116D01*
X0328312Y0238215D01*
X0328233Y0238315D01*
X0328157Y0238418D01*
X0328084Y0238524D01*
X0328015Y0238631D01*
X0327949Y0238741D01*
X0327887Y0238852D01*
X0327828Y0238966D01*
X0327772Y0239081D01*
X0327720Y0239198D01*
X0327672Y0239317D01*
X0327627Y0239437D01*
X0327586Y0239558D01*
X0327549Y0239680D01*
X0327516Y0239804D01*
X0327487Y0239928D01*
X0327461Y0240054D01*
X0327439Y0240180D01*
X0327422Y0240306D01*
X0327408Y0240434D01*
X0327398Y0240561D01*
X0327392Y0240689D01*
X0327390Y0240817D01*
X0299831Y0241211D02*
X0299833Y0241339D01*
X0299839Y0241467D01*
X0299849Y0241594D01*
X0299863Y0241722D01*
X0299880Y0241848D01*
X0299902Y0241974D01*
X0299928Y0242100D01*
X0299957Y0242224D01*
X0299990Y0242348D01*
X0300027Y0242470D01*
X0300068Y0242591D01*
X0300113Y0242711D01*
X0300161Y0242830D01*
X0300213Y0242947D01*
X0300269Y0243062D01*
X0300328Y0243176D01*
X0300390Y0243287D01*
X0300456Y0243397D01*
X0300525Y0243504D01*
X0300598Y0243610D01*
X0300674Y0243713D01*
X0300753Y0243813D01*
X0300835Y0243912D01*
X0300920Y0244007D01*
X0301008Y0244100D01*
X0301099Y0244190D01*
X0301192Y0244277D01*
X0301289Y0244362D01*
X0301387Y0244443D01*
X0301489Y0244521D01*
X0301592Y0244596D01*
X0301698Y0244668D01*
X0301806Y0244737D01*
X0301916Y0244802D01*
X0302029Y0244863D01*
X0302143Y0244922D01*
X0302258Y0244976D01*
X0302376Y0245027D01*
X0302494Y0245075D01*
X0302615Y0245118D01*
X0302736Y0245158D01*
X0302859Y0245194D01*
X0302983Y0245227D01*
X0303108Y0245255D01*
X0303233Y0245280D01*
X0303359Y0245300D01*
X0303486Y0245317D01*
X0303614Y0245330D01*
X0303741Y0245339D01*
X0303869Y0245344D01*
X0303997Y0245345D01*
X0304125Y0245342D01*
X0304253Y0245335D01*
X0304380Y0245324D01*
X0304507Y0245309D01*
X0304634Y0245291D01*
X0304760Y0245268D01*
X0304885Y0245241D01*
X0305009Y0245211D01*
X0305132Y0245177D01*
X0305255Y0245139D01*
X0305376Y0245097D01*
X0305495Y0245051D01*
X0305613Y0245002D01*
X0305730Y0244949D01*
X0305845Y0244893D01*
X0305958Y0244833D01*
X0306069Y0244770D01*
X0306178Y0244703D01*
X0306285Y0244633D01*
X0306390Y0244559D01*
X0306492Y0244483D01*
X0306592Y0244403D01*
X0306690Y0244320D01*
X0306785Y0244234D01*
X0306877Y0244145D01*
X0306966Y0244054D01*
X0307053Y0243960D01*
X0307136Y0243863D01*
X0307217Y0243763D01*
X0307294Y0243662D01*
X0307369Y0243557D01*
X0307440Y0243451D01*
X0307507Y0243342D01*
X0307572Y0243232D01*
X0307632Y0243119D01*
X0307690Y0243005D01*
X0307743Y0242889D01*
X0307793Y0242771D01*
X0307840Y0242652D01*
X0307883Y0242531D01*
X0307922Y0242409D01*
X0307957Y0242286D01*
X0307988Y0242162D01*
X0308016Y0242037D01*
X0308039Y0241911D01*
X0308059Y0241785D01*
X0308075Y0241658D01*
X0308087Y0241531D01*
X0308095Y0241403D01*
X0308099Y0241275D01*
X0308099Y0241147D01*
X0308095Y0241019D01*
X0308087Y0240891D01*
X0308075Y0240764D01*
X0308059Y0240637D01*
X0308039Y0240511D01*
X0308016Y0240385D01*
X0307988Y0240260D01*
X0307957Y0240136D01*
X0307922Y0240013D01*
X0307883Y0239891D01*
X0307840Y0239770D01*
X0307793Y0239651D01*
X0307743Y0239533D01*
X0307690Y0239417D01*
X0307632Y0239303D01*
X0307572Y0239190D01*
X0307507Y0239080D01*
X0307440Y0238971D01*
X0307369Y0238865D01*
X0307294Y0238760D01*
X0307217Y0238659D01*
X0307136Y0238559D01*
X0307053Y0238462D01*
X0306966Y0238368D01*
X0306877Y0238277D01*
X0306785Y0238188D01*
X0306690Y0238102D01*
X0306592Y0238019D01*
X0306492Y0237939D01*
X0306390Y0237863D01*
X0306285Y0237789D01*
X0306178Y0237719D01*
X0306069Y0237652D01*
X0305958Y0237589D01*
X0305845Y0237529D01*
X0305730Y0237473D01*
X0305613Y0237420D01*
X0305495Y0237371D01*
X0305376Y0237325D01*
X0305255Y0237283D01*
X0305132Y0237245D01*
X0305009Y0237211D01*
X0304885Y0237181D01*
X0304760Y0237154D01*
X0304634Y0237131D01*
X0304507Y0237113D01*
X0304380Y0237098D01*
X0304253Y0237087D01*
X0304125Y0237080D01*
X0303997Y0237077D01*
X0303869Y0237078D01*
X0303741Y0237083D01*
X0303614Y0237092D01*
X0303486Y0237105D01*
X0303359Y0237122D01*
X0303233Y0237142D01*
X0303108Y0237167D01*
X0302983Y0237195D01*
X0302859Y0237228D01*
X0302736Y0237264D01*
X0302615Y0237304D01*
X0302494Y0237347D01*
X0302376Y0237395D01*
X0302258Y0237446D01*
X0302143Y0237500D01*
X0302029Y0237559D01*
X0301916Y0237620D01*
X0301806Y0237685D01*
X0301698Y0237754D01*
X0301592Y0237826D01*
X0301489Y0237901D01*
X0301387Y0237979D01*
X0301289Y0238060D01*
X0301192Y0238145D01*
X0301099Y0238232D01*
X0301008Y0238322D01*
X0300920Y0238415D01*
X0300835Y0238510D01*
X0300753Y0238609D01*
X0300674Y0238709D01*
X0300598Y0238812D01*
X0300525Y0238918D01*
X0300456Y0239025D01*
X0300390Y0239135D01*
X0300328Y0239246D01*
X0300269Y0239360D01*
X0300213Y0239475D01*
X0300161Y0239592D01*
X0300113Y0239711D01*
X0300068Y0239831D01*
X0300027Y0239952D01*
X0299990Y0240074D01*
X0299957Y0240198D01*
X0299928Y0240322D01*
X0299902Y0240448D01*
X0299880Y0240574D01*
X0299863Y0240700D01*
X0299849Y0240828D01*
X0299839Y0240955D01*
X0299833Y0241083D01*
X0299831Y0241211D01*
X0266367Y0241211D02*
X0266369Y0241339D01*
X0266375Y0241467D01*
X0266385Y0241594D01*
X0266399Y0241722D01*
X0266416Y0241848D01*
X0266438Y0241974D01*
X0266464Y0242100D01*
X0266493Y0242224D01*
X0266526Y0242348D01*
X0266563Y0242470D01*
X0266604Y0242591D01*
X0266649Y0242711D01*
X0266697Y0242830D01*
X0266749Y0242947D01*
X0266805Y0243062D01*
X0266864Y0243176D01*
X0266926Y0243287D01*
X0266992Y0243397D01*
X0267061Y0243504D01*
X0267134Y0243610D01*
X0267210Y0243713D01*
X0267289Y0243813D01*
X0267371Y0243912D01*
X0267456Y0244007D01*
X0267544Y0244100D01*
X0267635Y0244190D01*
X0267728Y0244277D01*
X0267825Y0244362D01*
X0267923Y0244443D01*
X0268025Y0244521D01*
X0268128Y0244596D01*
X0268234Y0244668D01*
X0268342Y0244737D01*
X0268452Y0244802D01*
X0268565Y0244863D01*
X0268679Y0244922D01*
X0268794Y0244976D01*
X0268912Y0245027D01*
X0269030Y0245075D01*
X0269151Y0245118D01*
X0269272Y0245158D01*
X0269395Y0245194D01*
X0269519Y0245227D01*
X0269644Y0245255D01*
X0269769Y0245280D01*
X0269895Y0245300D01*
X0270022Y0245317D01*
X0270150Y0245330D01*
X0270277Y0245339D01*
X0270405Y0245344D01*
X0270533Y0245345D01*
X0270661Y0245342D01*
X0270789Y0245335D01*
X0270916Y0245324D01*
X0271043Y0245309D01*
X0271170Y0245291D01*
X0271296Y0245268D01*
X0271421Y0245241D01*
X0271545Y0245211D01*
X0271668Y0245177D01*
X0271791Y0245139D01*
X0271912Y0245097D01*
X0272031Y0245051D01*
X0272149Y0245002D01*
X0272266Y0244949D01*
X0272381Y0244893D01*
X0272494Y0244833D01*
X0272605Y0244770D01*
X0272714Y0244703D01*
X0272821Y0244633D01*
X0272926Y0244559D01*
X0273028Y0244483D01*
X0273128Y0244403D01*
X0273226Y0244320D01*
X0273321Y0244234D01*
X0273413Y0244145D01*
X0273502Y0244054D01*
X0273589Y0243960D01*
X0273672Y0243863D01*
X0273753Y0243763D01*
X0273830Y0243662D01*
X0273905Y0243557D01*
X0273976Y0243451D01*
X0274043Y0243342D01*
X0274108Y0243232D01*
X0274168Y0243119D01*
X0274226Y0243005D01*
X0274279Y0242889D01*
X0274329Y0242771D01*
X0274376Y0242652D01*
X0274419Y0242531D01*
X0274458Y0242409D01*
X0274493Y0242286D01*
X0274524Y0242162D01*
X0274552Y0242037D01*
X0274575Y0241911D01*
X0274595Y0241785D01*
X0274611Y0241658D01*
X0274623Y0241531D01*
X0274631Y0241403D01*
X0274635Y0241275D01*
X0274635Y0241147D01*
X0274631Y0241019D01*
X0274623Y0240891D01*
X0274611Y0240764D01*
X0274595Y0240637D01*
X0274575Y0240511D01*
X0274552Y0240385D01*
X0274524Y0240260D01*
X0274493Y0240136D01*
X0274458Y0240013D01*
X0274419Y0239891D01*
X0274376Y0239770D01*
X0274329Y0239651D01*
X0274279Y0239533D01*
X0274226Y0239417D01*
X0274168Y0239303D01*
X0274108Y0239190D01*
X0274043Y0239080D01*
X0273976Y0238971D01*
X0273905Y0238865D01*
X0273830Y0238760D01*
X0273753Y0238659D01*
X0273672Y0238559D01*
X0273589Y0238462D01*
X0273502Y0238368D01*
X0273413Y0238277D01*
X0273321Y0238188D01*
X0273226Y0238102D01*
X0273128Y0238019D01*
X0273028Y0237939D01*
X0272926Y0237863D01*
X0272821Y0237789D01*
X0272714Y0237719D01*
X0272605Y0237652D01*
X0272494Y0237589D01*
X0272381Y0237529D01*
X0272266Y0237473D01*
X0272149Y0237420D01*
X0272031Y0237371D01*
X0271912Y0237325D01*
X0271791Y0237283D01*
X0271668Y0237245D01*
X0271545Y0237211D01*
X0271421Y0237181D01*
X0271296Y0237154D01*
X0271170Y0237131D01*
X0271043Y0237113D01*
X0270916Y0237098D01*
X0270789Y0237087D01*
X0270661Y0237080D01*
X0270533Y0237077D01*
X0270405Y0237078D01*
X0270277Y0237083D01*
X0270150Y0237092D01*
X0270022Y0237105D01*
X0269895Y0237122D01*
X0269769Y0237142D01*
X0269644Y0237167D01*
X0269519Y0237195D01*
X0269395Y0237228D01*
X0269272Y0237264D01*
X0269151Y0237304D01*
X0269030Y0237347D01*
X0268912Y0237395D01*
X0268794Y0237446D01*
X0268679Y0237500D01*
X0268565Y0237559D01*
X0268452Y0237620D01*
X0268342Y0237685D01*
X0268234Y0237754D01*
X0268128Y0237826D01*
X0268025Y0237901D01*
X0267923Y0237979D01*
X0267825Y0238060D01*
X0267728Y0238145D01*
X0267635Y0238232D01*
X0267544Y0238322D01*
X0267456Y0238415D01*
X0267371Y0238510D01*
X0267289Y0238609D01*
X0267210Y0238709D01*
X0267134Y0238812D01*
X0267061Y0238918D01*
X0266992Y0239025D01*
X0266926Y0239135D01*
X0266864Y0239246D01*
X0266805Y0239360D01*
X0266749Y0239475D01*
X0266697Y0239592D01*
X0266649Y0239711D01*
X0266604Y0239831D01*
X0266563Y0239952D01*
X0266526Y0240074D01*
X0266493Y0240198D01*
X0266464Y0240322D01*
X0266438Y0240448D01*
X0266416Y0240574D01*
X0266399Y0240700D01*
X0266385Y0240828D01*
X0266375Y0240955D01*
X0266369Y0241083D01*
X0266367Y0241211D01*
X0238808Y0241211D02*
X0238810Y0241339D01*
X0238816Y0241467D01*
X0238826Y0241594D01*
X0238840Y0241722D01*
X0238857Y0241848D01*
X0238879Y0241974D01*
X0238905Y0242100D01*
X0238934Y0242224D01*
X0238967Y0242348D01*
X0239004Y0242470D01*
X0239045Y0242591D01*
X0239090Y0242711D01*
X0239138Y0242830D01*
X0239190Y0242947D01*
X0239246Y0243062D01*
X0239305Y0243176D01*
X0239367Y0243287D01*
X0239433Y0243397D01*
X0239502Y0243504D01*
X0239575Y0243610D01*
X0239651Y0243713D01*
X0239730Y0243813D01*
X0239812Y0243912D01*
X0239897Y0244007D01*
X0239985Y0244100D01*
X0240076Y0244190D01*
X0240169Y0244277D01*
X0240266Y0244362D01*
X0240364Y0244443D01*
X0240466Y0244521D01*
X0240569Y0244596D01*
X0240675Y0244668D01*
X0240783Y0244737D01*
X0240893Y0244802D01*
X0241006Y0244863D01*
X0241120Y0244922D01*
X0241235Y0244976D01*
X0241353Y0245027D01*
X0241471Y0245075D01*
X0241592Y0245118D01*
X0241713Y0245158D01*
X0241836Y0245194D01*
X0241960Y0245227D01*
X0242085Y0245255D01*
X0242210Y0245280D01*
X0242336Y0245300D01*
X0242463Y0245317D01*
X0242591Y0245330D01*
X0242718Y0245339D01*
X0242846Y0245344D01*
X0242974Y0245345D01*
X0243102Y0245342D01*
X0243230Y0245335D01*
X0243357Y0245324D01*
X0243484Y0245309D01*
X0243611Y0245291D01*
X0243737Y0245268D01*
X0243862Y0245241D01*
X0243986Y0245211D01*
X0244109Y0245177D01*
X0244232Y0245139D01*
X0244353Y0245097D01*
X0244472Y0245051D01*
X0244590Y0245002D01*
X0244707Y0244949D01*
X0244822Y0244893D01*
X0244935Y0244833D01*
X0245046Y0244770D01*
X0245155Y0244703D01*
X0245262Y0244633D01*
X0245367Y0244559D01*
X0245469Y0244483D01*
X0245569Y0244403D01*
X0245667Y0244320D01*
X0245762Y0244234D01*
X0245854Y0244145D01*
X0245943Y0244054D01*
X0246030Y0243960D01*
X0246113Y0243863D01*
X0246194Y0243763D01*
X0246271Y0243662D01*
X0246346Y0243557D01*
X0246417Y0243451D01*
X0246484Y0243342D01*
X0246549Y0243232D01*
X0246609Y0243119D01*
X0246667Y0243005D01*
X0246720Y0242889D01*
X0246770Y0242771D01*
X0246817Y0242652D01*
X0246860Y0242531D01*
X0246899Y0242409D01*
X0246934Y0242286D01*
X0246965Y0242162D01*
X0246993Y0242037D01*
X0247016Y0241911D01*
X0247036Y0241785D01*
X0247052Y0241658D01*
X0247064Y0241531D01*
X0247072Y0241403D01*
X0247076Y0241275D01*
X0247076Y0241147D01*
X0247072Y0241019D01*
X0247064Y0240891D01*
X0247052Y0240764D01*
X0247036Y0240637D01*
X0247016Y0240511D01*
X0246993Y0240385D01*
X0246965Y0240260D01*
X0246934Y0240136D01*
X0246899Y0240013D01*
X0246860Y0239891D01*
X0246817Y0239770D01*
X0246770Y0239651D01*
X0246720Y0239533D01*
X0246667Y0239417D01*
X0246609Y0239303D01*
X0246549Y0239190D01*
X0246484Y0239080D01*
X0246417Y0238971D01*
X0246346Y0238865D01*
X0246271Y0238760D01*
X0246194Y0238659D01*
X0246113Y0238559D01*
X0246030Y0238462D01*
X0245943Y0238368D01*
X0245854Y0238277D01*
X0245762Y0238188D01*
X0245667Y0238102D01*
X0245569Y0238019D01*
X0245469Y0237939D01*
X0245367Y0237863D01*
X0245262Y0237789D01*
X0245155Y0237719D01*
X0245046Y0237652D01*
X0244935Y0237589D01*
X0244822Y0237529D01*
X0244707Y0237473D01*
X0244590Y0237420D01*
X0244472Y0237371D01*
X0244353Y0237325D01*
X0244232Y0237283D01*
X0244109Y0237245D01*
X0243986Y0237211D01*
X0243862Y0237181D01*
X0243737Y0237154D01*
X0243611Y0237131D01*
X0243484Y0237113D01*
X0243357Y0237098D01*
X0243230Y0237087D01*
X0243102Y0237080D01*
X0242974Y0237077D01*
X0242846Y0237078D01*
X0242718Y0237083D01*
X0242591Y0237092D01*
X0242463Y0237105D01*
X0242336Y0237122D01*
X0242210Y0237142D01*
X0242085Y0237167D01*
X0241960Y0237195D01*
X0241836Y0237228D01*
X0241713Y0237264D01*
X0241592Y0237304D01*
X0241471Y0237347D01*
X0241353Y0237395D01*
X0241235Y0237446D01*
X0241120Y0237500D01*
X0241006Y0237559D01*
X0240893Y0237620D01*
X0240783Y0237685D01*
X0240675Y0237754D01*
X0240569Y0237826D01*
X0240466Y0237901D01*
X0240364Y0237979D01*
X0240266Y0238060D01*
X0240169Y0238145D01*
X0240076Y0238232D01*
X0239985Y0238322D01*
X0239897Y0238415D01*
X0239812Y0238510D01*
X0239730Y0238609D01*
X0239651Y0238709D01*
X0239575Y0238812D01*
X0239502Y0238918D01*
X0239433Y0239025D01*
X0239367Y0239135D01*
X0239305Y0239246D01*
X0239246Y0239360D01*
X0239190Y0239475D01*
X0239138Y0239592D01*
X0239090Y0239711D01*
X0239045Y0239831D01*
X0239004Y0239952D01*
X0238967Y0240074D01*
X0238934Y0240198D01*
X0238905Y0240322D01*
X0238879Y0240448D01*
X0238857Y0240574D01*
X0238840Y0240700D01*
X0238826Y0240828D01*
X0238816Y0240955D01*
X0238810Y0241083D01*
X0238808Y0241211D01*
X0205343Y0241211D02*
X0205345Y0241339D01*
X0205351Y0241467D01*
X0205361Y0241594D01*
X0205375Y0241722D01*
X0205392Y0241848D01*
X0205414Y0241974D01*
X0205440Y0242100D01*
X0205469Y0242224D01*
X0205502Y0242348D01*
X0205539Y0242470D01*
X0205580Y0242591D01*
X0205625Y0242711D01*
X0205673Y0242830D01*
X0205725Y0242947D01*
X0205781Y0243062D01*
X0205840Y0243176D01*
X0205902Y0243287D01*
X0205968Y0243397D01*
X0206037Y0243504D01*
X0206110Y0243610D01*
X0206186Y0243713D01*
X0206265Y0243813D01*
X0206347Y0243912D01*
X0206432Y0244007D01*
X0206520Y0244100D01*
X0206611Y0244190D01*
X0206704Y0244277D01*
X0206801Y0244362D01*
X0206899Y0244443D01*
X0207001Y0244521D01*
X0207104Y0244596D01*
X0207210Y0244668D01*
X0207318Y0244737D01*
X0207428Y0244802D01*
X0207541Y0244863D01*
X0207655Y0244922D01*
X0207770Y0244976D01*
X0207888Y0245027D01*
X0208006Y0245075D01*
X0208127Y0245118D01*
X0208248Y0245158D01*
X0208371Y0245194D01*
X0208495Y0245227D01*
X0208620Y0245255D01*
X0208745Y0245280D01*
X0208871Y0245300D01*
X0208998Y0245317D01*
X0209126Y0245330D01*
X0209253Y0245339D01*
X0209381Y0245344D01*
X0209509Y0245345D01*
X0209637Y0245342D01*
X0209765Y0245335D01*
X0209892Y0245324D01*
X0210019Y0245309D01*
X0210146Y0245291D01*
X0210272Y0245268D01*
X0210397Y0245241D01*
X0210521Y0245211D01*
X0210644Y0245177D01*
X0210767Y0245139D01*
X0210888Y0245097D01*
X0211007Y0245051D01*
X0211125Y0245002D01*
X0211242Y0244949D01*
X0211357Y0244893D01*
X0211470Y0244833D01*
X0211581Y0244770D01*
X0211690Y0244703D01*
X0211797Y0244633D01*
X0211902Y0244559D01*
X0212004Y0244483D01*
X0212104Y0244403D01*
X0212202Y0244320D01*
X0212297Y0244234D01*
X0212389Y0244145D01*
X0212478Y0244054D01*
X0212565Y0243960D01*
X0212648Y0243863D01*
X0212729Y0243763D01*
X0212806Y0243662D01*
X0212881Y0243557D01*
X0212952Y0243451D01*
X0213019Y0243342D01*
X0213084Y0243232D01*
X0213144Y0243119D01*
X0213202Y0243005D01*
X0213255Y0242889D01*
X0213305Y0242771D01*
X0213352Y0242652D01*
X0213395Y0242531D01*
X0213434Y0242409D01*
X0213469Y0242286D01*
X0213500Y0242162D01*
X0213528Y0242037D01*
X0213551Y0241911D01*
X0213571Y0241785D01*
X0213587Y0241658D01*
X0213599Y0241531D01*
X0213607Y0241403D01*
X0213611Y0241275D01*
X0213611Y0241147D01*
X0213607Y0241019D01*
X0213599Y0240891D01*
X0213587Y0240764D01*
X0213571Y0240637D01*
X0213551Y0240511D01*
X0213528Y0240385D01*
X0213500Y0240260D01*
X0213469Y0240136D01*
X0213434Y0240013D01*
X0213395Y0239891D01*
X0213352Y0239770D01*
X0213305Y0239651D01*
X0213255Y0239533D01*
X0213202Y0239417D01*
X0213144Y0239303D01*
X0213084Y0239190D01*
X0213019Y0239080D01*
X0212952Y0238971D01*
X0212881Y0238865D01*
X0212806Y0238760D01*
X0212729Y0238659D01*
X0212648Y0238559D01*
X0212565Y0238462D01*
X0212478Y0238368D01*
X0212389Y0238277D01*
X0212297Y0238188D01*
X0212202Y0238102D01*
X0212104Y0238019D01*
X0212004Y0237939D01*
X0211902Y0237863D01*
X0211797Y0237789D01*
X0211690Y0237719D01*
X0211581Y0237652D01*
X0211470Y0237589D01*
X0211357Y0237529D01*
X0211242Y0237473D01*
X0211125Y0237420D01*
X0211007Y0237371D01*
X0210888Y0237325D01*
X0210767Y0237283D01*
X0210644Y0237245D01*
X0210521Y0237211D01*
X0210397Y0237181D01*
X0210272Y0237154D01*
X0210146Y0237131D01*
X0210019Y0237113D01*
X0209892Y0237098D01*
X0209765Y0237087D01*
X0209637Y0237080D01*
X0209509Y0237077D01*
X0209381Y0237078D01*
X0209253Y0237083D01*
X0209126Y0237092D01*
X0208998Y0237105D01*
X0208871Y0237122D01*
X0208745Y0237142D01*
X0208620Y0237167D01*
X0208495Y0237195D01*
X0208371Y0237228D01*
X0208248Y0237264D01*
X0208127Y0237304D01*
X0208006Y0237347D01*
X0207888Y0237395D01*
X0207770Y0237446D01*
X0207655Y0237500D01*
X0207541Y0237559D01*
X0207428Y0237620D01*
X0207318Y0237685D01*
X0207210Y0237754D01*
X0207104Y0237826D01*
X0207001Y0237901D01*
X0206899Y0237979D01*
X0206801Y0238060D01*
X0206704Y0238145D01*
X0206611Y0238232D01*
X0206520Y0238322D01*
X0206432Y0238415D01*
X0206347Y0238510D01*
X0206265Y0238609D01*
X0206186Y0238709D01*
X0206110Y0238812D01*
X0206037Y0238918D01*
X0205968Y0239025D01*
X0205902Y0239135D01*
X0205840Y0239246D01*
X0205781Y0239360D01*
X0205725Y0239475D01*
X0205673Y0239592D01*
X0205625Y0239711D01*
X0205580Y0239831D01*
X0205539Y0239952D01*
X0205502Y0240074D01*
X0205469Y0240198D01*
X0205440Y0240322D01*
X0205414Y0240448D01*
X0205392Y0240574D01*
X0205375Y0240700D01*
X0205361Y0240828D01*
X0205351Y0240955D01*
X0205345Y0241083D01*
X0205343Y0241211D01*
X0177784Y0241211D02*
X0177786Y0241339D01*
X0177792Y0241467D01*
X0177802Y0241594D01*
X0177816Y0241722D01*
X0177833Y0241848D01*
X0177855Y0241974D01*
X0177881Y0242100D01*
X0177910Y0242224D01*
X0177943Y0242348D01*
X0177980Y0242470D01*
X0178021Y0242591D01*
X0178066Y0242711D01*
X0178114Y0242830D01*
X0178166Y0242947D01*
X0178222Y0243062D01*
X0178281Y0243176D01*
X0178343Y0243287D01*
X0178409Y0243397D01*
X0178478Y0243504D01*
X0178551Y0243610D01*
X0178627Y0243713D01*
X0178706Y0243813D01*
X0178788Y0243912D01*
X0178873Y0244007D01*
X0178961Y0244100D01*
X0179052Y0244190D01*
X0179145Y0244277D01*
X0179242Y0244362D01*
X0179340Y0244443D01*
X0179442Y0244521D01*
X0179545Y0244596D01*
X0179651Y0244668D01*
X0179759Y0244737D01*
X0179869Y0244802D01*
X0179982Y0244863D01*
X0180096Y0244922D01*
X0180211Y0244976D01*
X0180329Y0245027D01*
X0180447Y0245075D01*
X0180568Y0245118D01*
X0180689Y0245158D01*
X0180812Y0245194D01*
X0180936Y0245227D01*
X0181061Y0245255D01*
X0181186Y0245280D01*
X0181312Y0245300D01*
X0181439Y0245317D01*
X0181567Y0245330D01*
X0181694Y0245339D01*
X0181822Y0245344D01*
X0181950Y0245345D01*
X0182078Y0245342D01*
X0182206Y0245335D01*
X0182333Y0245324D01*
X0182460Y0245309D01*
X0182587Y0245291D01*
X0182713Y0245268D01*
X0182838Y0245241D01*
X0182962Y0245211D01*
X0183085Y0245177D01*
X0183208Y0245139D01*
X0183329Y0245097D01*
X0183448Y0245051D01*
X0183566Y0245002D01*
X0183683Y0244949D01*
X0183798Y0244893D01*
X0183911Y0244833D01*
X0184022Y0244770D01*
X0184131Y0244703D01*
X0184238Y0244633D01*
X0184343Y0244559D01*
X0184445Y0244483D01*
X0184545Y0244403D01*
X0184643Y0244320D01*
X0184738Y0244234D01*
X0184830Y0244145D01*
X0184919Y0244054D01*
X0185006Y0243960D01*
X0185089Y0243863D01*
X0185170Y0243763D01*
X0185247Y0243662D01*
X0185322Y0243557D01*
X0185393Y0243451D01*
X0185460Y0243342D01*
X0185525Y0243232D01*
X0185585Y0243119D01*
X0185643Y0243005D01*
X0185696Y0242889D01*
X0185746Y0242771D01*
X0185793Y0242652D01*
X0185836Y0242531D01*
X0185875Y0242409D01*
X0185910Y0242286D01*
X0185941Y0242162D01*
X0185969Y0242037D01*
X0185992Y0241911D01*
X0186012Y0241785D01*
X0186028Y0241658D01*
X0186040Y0241531D01*
X0186048Y0241403D01*
X0186052Y0241275D01*
X0186052Y0241147D01*
X0186048Y0241019D01*
X0186040Y0240891D01*
X0186028Y0240764D01*
X0186012Y0240637D01*
X0185992Y0240511D01*
X0185969Y0240385D01*
X0185941Y0240260D01*
X0185910Y0240136D01*
X0185875Y0240013D01*
X0185836Y0239891D01*
X0185793Y0239770D01*
X0185746Y0239651D01*
X0185696Y0239533D01*
X0185643Y0239417D01*
X0185585Y0239303D01*
X0185525Y0239190D01*
X0185460Y0239080D01*
X0185393Y0238971D01*
X0185322Y0238865D01*
X0185247Y0238760D01*
X0185170Y0238659D01*
X0185089Y0238559D01*
X0185006Y0238462D01*
X0184919Y0238368D01*
X0184830Y0238277D01*
X0184738Y0238188D01*
X0184643Y0238102D01*
X0184545Y0238019D01*
X0184445Y0237939D01*
X0184343Y0237863D01*
X0184238Y0237789D01*
X0184131Y0237719D01*
X0184022Y0237652D01*
X0183911Y0237589D01*
X0183798Y0237529D01*
X0183683Y0237473D01*
X0183566Y0237420D01*
X0183448Y0237371D01*
X0183329Y0237325D01*
X0183208Y0237283D01*
X0183085Y0237245D01*
X0182962Y0237211D01*
X0182838Y0237181D01*
X0182713Y0237154D01*
X0182587Y0237131D01*
X0182460Y0237113D01*
X0182333Y0237098D01*
X0182206Y0237087D01*
X0182078Y0237080D01*
X0181950Y0237077D01*
X0181822Y0237078D01*
X0181694Y0237083D01*
X0181567Y0237092D01*
X0181439Y0237105D01*
X0181312Y0237122D01*
X0181186Y0237142D01*
X0181061Y0237167D01*
X0180936Y0237195D01*
X0180812Y0237228D01*
X0180689Y0237264D01*
X0180568Y0237304D01*
X0180447Y0237347D01*
X0180329Y0237395D01*
X0180211Y0237446D01*
X0180096Y0237500D01*
X0179982Y0237559D01*
X0179869Y0237620D01*
X0179759Y0237685D01*
X0179651Y0237754D01*
X0179545Y0237826D01*
X0179442Y0237901D01*
X0179340Y0237979D01*
X0179242Y0238060D01*
X0179145Y0238145D01*
X0179052Y0238232D01*
X0178961Y0238322D01*
X0178873Y0238415D01*
X0178788Y0238510D01*
X0178706Y0238609D01*
X0178627Y0238709D01*
X0178551Y0238812D01*
X0178478Y0238918D01*
X0178409Y0239025D01*
X0178343Y0239135D01*
X0178281Y0239246D01*
X0178222Y0239360D01*
X0178166Y0239475D01*
X0178114Y0239592D01*
X0178066Y0239711D01*
X0178021Y0239831D01*
X0177980Y0239952D01*
X0177943Y0240074D01*
X0177910Y0240198D01*
X0177881Y0240322D01*
X0177855Y0240448D01*
X0177833Y0240574D01*
X0177816Y0240700D01*
X0177802Y0240828D01*
X0177792Y0240955D01*
X0177786Y0241083D01*
X0177784Y0241211D01*
X0144320Y0241211D02*
X0144322Y0241339D01*
X0144328Y0241467D01*
X0144338Y0241594D01*
X0144352Y0241722D01*
X0144369Y0241848D01*
X0144391Y0241974D01*
X0144417Y0242100D01*
X0144446Y0242224D01*
X0144479Y0242348D01*
X0144516Y0242470D01*
X0144557Y0242591D01*
X0144602Y0242711D01*
X0144650Y0242830D01*
X0144702Y0242947D01*
X0144758Y0243062D01*
X0144817Y0243176D01*
X0144879Y0243287D01*
X0144945Y0243397D01*
X0145014Y0243504D01*
X0145087Y0243610D01*
X0145163Y0243713D01*
X0145242Y0243813D01*
X0145324Y0243912D01*
X0145409Y0244007D01*
X0145497Y0244100D01*
X0145588Y0244190D01*
X0145681Y0244277D01*
X0145778Y0244362D01*
X0145876Y0244443D01*
X0145978Y0244521D01*
X0146081Y0244596D01*
X0146187Y0244668D01*
X0146295Y0244737D01*
X0146405Y0244802D01*
X0146518Y0244863D01*
X0146632Y0244922D01*
X0146747Y0244976D01*
X0146865Y0245027D01*
X0146983Y0245075D01*
X0147104Y0245118D01*
X0147225Y0245158D01*
X0147348Y0245194D01*
X0147472Y0245227D01*
X0147597Y0245255D01*
X0147722Y0245280D01*
X0147848Y0245300D01*
X0147975Y0245317D01*
X0148103Y0245330D01*
X0148230Y0245339D01*
X0148358Y0245344D01*
X0148486Y0245345D01*
X0148614Y0245342D01*
X0148742Y0245335D01*
X0148869Y0245324D01*
X0148996Y0245309D01*
X0149123Y0245291D01*
X0149249Y0245268D01*
X0149374Y0245241D01*
X0149498Y0245211D01*
X0149621Y0245177D01*
X0149744Y0245139D01*
X0149865Y0245097D01*
X0149984Y0245051D01*
X0150102Y0245002D01*
X0150219Y0244949D01*
X0150334Y0244893D01*
X0150447Y0244833D01*
X0150558Y0244770D01*
X0150667Y0244703D01*
X0150774Y0244633D01*
X0150879Y0244559D01*
X0150981Y0244483D01*
X0151081Y0244403D01*
X0151179Y0244320D01*
X0151274Y0244234D01*
X0151366Y0244145D01*
X0151455Y0244054D01*
X0151542Y0243960D01*
X0151625Y0243863D01*
X0151706Y0243763D01*
X0151783Y0243662D01*
X0151858Y0243557D01*
X0151929Y0243451D01*
X0151996Y0243342D01*
X0152061Y0243232D01*
X0152121Y0243119D01*
X0152179Y0243005D01*
X0152232Y0242889D01*
X0152282Y0242771D01*
X0152329Y0242652D01*
X0152372Y0242531D01*
X0152411Y0242409D01*
X0152446Y0242286D01*
X0152477Y0242162D01*
X0152505Y0242037D01*
X0152528Y0241911D01*
X0152548Y0241785D01*
X0152564Y0241658D01*
X0152576Y0241531D01*
X0152584Y0241403D01*
X0152588Y0241275D01*
X0152588Y0241147D01*
X0152584Y0241019D01*
X0152576Y0240891D01*
X0152564Y0240764D01*
X0152548Y0240637D01*
X0152528Y0240511D01*
X0152505Y0240385D01*
X0152477Y0240260D01*
X0152446Y0240136D01*
X0152411Y0240013D01*
X0152372Y0239891D01*
X0152329Y0239770D01*
X0152282Y0239651D01*
X0152232Y0239533D01*
X0152179Y0239417D01*
X0152121Y0239303D01*
X0152061Y0239190D01*
X0151996Y0239080D01*
X0151929Y0238971D01*
X0151858Y0238865D01*
X0151783Y0238760D01*
X0151706Y0238659D01*
X0151625Y0238559D01*
X0151542Y0238462D01*
X0151455Y0238368D01*
X0151366Y0238277D01*
X0151274Y0238188D01*
X0151179Y0238102D01*
X0151081Y0238019D01*
X0150981Y0237939D01*
X0150879Y0237863D01*
X0150774Y0237789D01*
X0150667Y0237719D01*
X0150558Y0237652D01*
X0150447Y0237589D01*
X0150334Y0237529D01*
X0150219Y0237473D01*
X0150102Y0237420D01*
X0149984Y0237371D01*
X0149865Y0237325D01*
X0149744Y0237283D01*
X0149621Y0237245D01*
X0149498Y0237211D01*
X0149374Y0237181D01*
X0149249Y0237154D01*
X0149123Y0237131D01*
X0148996Y0237113D01*
X0148869Y0237098D01*
X0148742Y0237087D01*
X0148614Y0237080D01*
X0148486Y0237077D01*
X0148358Y0237078D01*
X0148230Y0237083D01*
X0148103Y0237092D01*
X0147975Y0237105D01*
X0147848Y0237122D01*
X0147722Y0237142D01*
X0147597Y0237167D01*
X0147472Y0237195D01*
X0147348Y0237228D01*
X0147225Y0237264D01*
X0147104Y0237304D01*
X0146983Y0237347D01*
X0146865Y0237395D01*
X0146747Y0237446D01*
X0146632Y0237500D01*
X0146518Y0237559D01*
X0146405Y0237620D01*
X0146295Y0237685D01*
X0146187Y0237754D01*
X0146081Y0237826D01*
X0145978Y0237901D01*
X0145876Y0237979D01*
X0145778Y0238060D01*
X0145681Y0238145D01*
X0145588Y0238232D01*
X0145497Y0238322D01*
X0145409Y0238415D01*
X0145324Y0238510D01*
X0145242Y0238609D01*
X0145163Y0238709D01*
X0145087Y0238812D01*
X0145014Y0238918D01*
X0144945Y0239025D01*
X0144879Y0239135D01*
X0144817Y0239246D01*
X0144758Y0239360D01*
X0144702Y0239475D01*
X0144650Y0239592D01*
X0144602Y0239711D01*
X0144557Y0239831D01*
X0144516Y0239952D01*
X0144479Y0240074D01*
X0144446Y0240198D01*
X0144417Y0240322D01*
X0144391Y0240448D01*
X0144369Y0240574D01*
X0144352Y0240700D01*
X0144338Y0240828D01*
X0144328Y0240955D01*
X0144322Y0241083D01*
X0144320Y0241211D01*
X0005344Y0242589D02*
X0005346Y0242747D01*
X0005352Y0242905D01*
X0005362Y0243063D01*
X0005376Y0243221D01*
X0005394Y0243378D01*
X0005415Y0243535D01*
X0005441Y0243691D01*
X0005471Y0243847D01*
X0005504Y0244002D01*
X0005542Y0244155D01*
X0005583Y0244308D01*
X0005628Y0244460D01*
X0005677Y0244611D01*
X0005730Y0244760D01*
X0005786Y0244908D01*
X0005846Y0245054D01*
X0005910Y0245199D01*
X0005978Y0245342D01*
X0006049Y0245484D01*
X0006123Y0245624D01*
X0006201Y0245761D01*
X0006283Y0245897D01*
X0006367Y0246031D01*
X0006456Y0246162D01*
X0006547Y0246291D01*
X0006642Y0246418D01*
X0006739Y0246543D01*
X0006840Y0246665D01*
X0006944Y0246784D01*
X0007051Y0246901D01*
X0007161Y0247015D01*
X0007274Y0247126D01*
X0007389Y0247235D01*
X0007507Y0247340D01*
X0007628Y0247442D01*
X0007751Y0247542D01*
X0007877Y0247638D01*
X0008005Y0247731D01*
X0008135Y0247821D01*
X0008268Y0247907D01*
X0008403Y0247991D01*
X0008539Y0248070D01*
X0008678Y0248147D01*
X0008819Y0248219D01*
X0008961Y0248289D01*
X0009105Y0248354D01*
X0009251Y0248416D01*
X0009398Y0248474D01*
X0009547Y0248529D01*
X0009697Y0248580D01*
X0009848Y0248627D01*
X0010000Y0248670D01*
X0010153Y0248709D01*
X0010308Y0248745D01*
X0010463Y0248776D01*
X0010619Y0248804D01*
X0010775Y0248828D01*
X0010932Y0248848D01*
X0011090Y0248864D01*
X0011247Y0248876D01*
X0011406Y0248884D01*
X0011564Y0248888D01*
X0011722Y0248888D01*
X0011880Y0248884D01*
X0012039Y0248876D01*
X0012196Y0248864D01*
X0012354Y0248848D01*
X0012511Y0248828D01*
X0012667Y0248804D01*
X0012823Y0248776D01*
X0012978Y0248745D01*
X0013133Y0248709D01*
X0013286Y0248670D01*
X0013438Y0248627D01*
X0013589Y0248580D01*
X0013739Y0248529D01*
X0013888Y0248474D01*
X0014035Y0248416D01*
X0014181Y0248354D01*
X0014325Y0248289D01*
X0014467Y0248219D01*
X0014608Y0248147D01*
X0014747Y0248070D01*
X0014883Y0247991D01*
X0015018Y0247907D01*
X0015151Y0247821D01*
X0015281Y0247731D01*
X0015409Y0247638D01*
X0015535Y0247542D01*
X0015658Y0247442D01*
X0015779Y0247340D01*
X0015897Y0247235D01*
X0016012Y0247126D01*
X0016125Y0247015D01*
X0016235Y0246901D01*
X0016342Y0246784D01*
X0016446Y0246665D01*
X0016547Y0246543D01*
X0016644Y0246418D01*
X0016739Y0246291D01*
X0016830Y0246162D01*
X0016919Y0246031D01*
X0017003Y0245897D01*
X0017085Y0245761D01*
X0017163Y0245624D01*
X0017237Y0245484D01*
X0017308Y0245342D01*
X0017376Y0245199D01*
X0017440Y0245054D01*
X0017500Y0244908D01*
X0017556Y0244760D01*
X0017609Y0244611D01*
X0017658Y0244460D01*
X0017703Y0244308D01*
X0017744Y0244155D01*
X0017782Y0244002D01*
X0017815Y0243847D01*
X0017845Y0243691D01*
X0017871Y0243535D01*
X0017892Y0243378D01*
X0017910Y0243221D01*
X0017924Y0243063D01*
X0017934Y0242905D01*
X0017940Y0242747D01*
X0017942Y0242589D01*
X0017940Y0242431D01*
X0017934Y0242273D01*
X0017924Y0242115D01*
X0017910Y0241957D01*
X0017892Y0241800D01*
X0017871Y0241643D01*
X0017845Y0241487D01*
X0017815Y0241331D01*
X0017782Y0241176D01*
X0017744Y0241023D01*
X0017703Y0240870D01*
X0017658Y0240718D01*
X0017609Y0240567D01*
X0017556Y0240418D01*
X0017500Y0240270D01*
X0017440Y0240124D01*
X0017376Y0239979D01*
X0017308Y0239836D01*
X0017237Y0239694D01*
X0017163Y0239554D01*
X0017085Y0239417D01*
X0017003Y0239281D01*
X0016919Y0239147D01*
X0016830Y0239016D01*
X0016739Y0238887D01*
X0016644Y0238760D01*
X0016547Y0238635D01*
X0016446Y0238513D01*
X0016342Y0238394D01*
X0016235Y0238277D01*
X0016125Y0238163D01*
X0016012Y0238052D01*
X0015897Y0237943D01*
X0015779Y0237838D01*
X0015658Y0237736D01*
X0015535Y0237636D01*
X0015409Y0237540D01*
X0015281Y0237447D01*
X0015151Y0237357D01*
X0015018Y0237271D01*
X0014883Y0237187D01*
X0014747Y0237108D01*
X0014608Y0237031D01*
X0014467Y0236959D01*
X0014325Y0236889D01*
X0014181Y0236824D01*
X0014035Y0236762D01*
X0013888Y0236704D01*
X0013739Y0236649D01*
X0013589Y0236598D01*
X0013438Y0236551D01*
X0013286Y0236508D01*
X0013133Y0236469D01*
X0012978Y0236433D01*
X0012823Y0236402D01*
X0012667Y0236374D01*
X0012511Y0236350D01*
X0012354Y0236330D01*
X0012196Y0236314D01*
X0012039Y0236302D01*
X0011880Y0236294D01*
X0011722Y0236290D01*
X0011564Y0236290D01*
X0011406Y0236294D01*
X0011247Y0236302D01*
X0011090Y0236314D01*
X0010932Y0236330D01*
X0010775Y0236350D01*
X0010619Y0236374D01*
X0010463Y0236402D01*
X0010308Y0236433D01*
X0010153Y0236469D01*
X0010000Y0236508D01*
X0009848Y0236551D01*
X0009697Y0236598D01*
X0009547Y0236649D01*
X0009398Y0236704D01*
X0009251Y0236762D01*
X0009105Y0236824D01*
X0008961Y0236889D01*
X0008819Y0236959D01*
X0008678Y0237031D01*
X0008539Y0237108D01*
X0008403Y0237187D01*
X0008268Y0237271D01*
X0008135Y0237357D01*
X0008005Y0237447D01*
X0007877Y0237540D01*
X0007751Y0237636D01*
X0007628Y0237736D01*
X0007507Y0237838D01*
X0007389Y0237943D01*
X0007274Y0238052D01*
X0007161Y0238163D01*
X0007051Y0238277D01*
X0006944Y0238394D01*
X0006840Y0238513D01*
X0006739Y0238635D01*
X0006642Y0238760D01*
X0006547Y0238887D01*
X0006456Y0239016D01*
X0006367Y0239147D01*
X0006283Y0239281D01*
X0006201Y0239417D01*
X0006123Y0239554D01*
X0006049Y0239694D01*
X0005978Y0239836D01*
X0005910Y0239979D01*
X0005846Y0240124D01*
X0005786Y0240270D01*
X0005730Y0240418D01*
X0005677Y0240567D01*
X0005628Y0240718D01*
X0005583Y0240870D01*
X0005542Y0241023D01*
X0005504Y0241176D01*
X0005471Y0241331D01*
X0005441Y0241487D01*
X0005415Y0241643D01*
X0005394Y0241800D01*
X0005376Y0241957D01*
X0005362Y0242115D01*
X0005352Y0242273D01*
X0005346Y0242431D01*
X0005344Y0242589D01*
M02*
