%
M48
M72
T01C0.01181
T02C0.02362
T03C0.02756
T04C0.03150
T05C0.03200
T06C0.03937
T07C0.04000
T08C0.04331
T09C0.04724
T10C0.08268
T11C0.08661
T12C0.09449
T13C0.11800
T14C0.12598
T15C0.12992
%
T01
X35658Y44764
X173269Y79771
X185106Y86790
X176632Y101615
X177832Y113415
X185658Y111693
X191957Y121929
X195501Y121535
X198257Y124291
X205343Y124291
X216761Y119173
X222272Y125866
X221879Y129803
X209280Y133740
X209280Y138071
X210068Y142008
X203769Y144764
X201406Y141614
X199044Y144370
X193926Y144370
X190383Y143976
X184871Y151457
X180934Y147913
X196682Y154606
X206524Y155394
X218729Y146732
X230277Y159906
X245698Y163465
X240847Y172029
X246682Y177047
X239989Y193386
X187233Y183346
X185265Y179803
X176997Y177047
X180934Y186890
X114005Y157362
X138020Y145157
X176997Y132559
X238020Y133346
X238020Y142008
X238020Y124685
X255343Y124685
X298753Y101815
X306682Y113189
X305113Y116344
X312580Y121779
X318335Y121535
X318335Y125079
X321879Y125866
X325422Y126654
X328572Y128228
X331721Y127047
X328178Y121535
X336839Y119567
X341957Y120748
X341957Y115236
X336839Y116024
X358493Y125079
X364005Y119567
X358099Y133937
X358099Y142795
X357902Y152047
X341170Y152638
X338414Y146732
X328965Y142008
X321879Y140433
X328965Y138465
X328965Y134921
X318335Y130984
X308493Y133740
X313611Y140827
X317942Y144370
X321879Y144370
X330934Y156575
X302981Y146732
X341957Y128228
X334477Y87283
X319910Y80197
X310331Y87809
X376603Y86496
X228965Y86890
X325383Y182677
X333690Y188858
X88808Y208150
X82312Y208937
X88414Y217205
X72863Y217992
X69713Y215236
X66564Y217992
X63414Y215236
X60265Y217992
X57115Y215236
X50816Y221142
X41367Y202244
X35068Y202244
X28769Y202244
X82312Y238071
X44517Y244764
T02
X61839Y199094
X47272Y193189
X82706Y199094
X109674Y149488
X109674Y142402
X167351Y167992
X191564Y174685
X206131Y163268
X242395Y160477
X297469Y130591
X295044Y110150
X302981Y90630
X325422Y90827
X341170Y90630
X349241Y90630
X358493Y90630
X272779Y90443
X262149Y96743
X236839Y90827
X227391Y90827
X219517Y90827
X204950Y90827
X172194Y108975
X188020Y129803
X247076Y120748
X328965Y165236
X328769Y174961
X352115Y167992
X354438Y159488
X302194Y176654
X150306Y90543
T03
X137036Y88071
X130934Y88071
X130934Y82165
X137036Y94764
X122666Y102047
X122666Y107165
X122666Y112283
T04
X78769Y91614
X70501Y67598
T05
X245461Y134646
X245461Y144646
X275461Y144646
X275461Y134646
X366721Y142520
X366721Y152520
X396721Y152520
X396721Y142520
T06
X166997Y140000
X147312Y140000
X118847Y183307
X108847Y183307
X108847Y193307
X118847Y193307
X118847Y203307
X108847Y203307
X108847Y213307
X118847Y213307
X118847Y223307
X108847Y223307
X25894Y176535
X15894Y176535
X15894Y166535
X25894Y166535
X25894Y156535
X15894Y156535
X15894Y146535
X25894Y146535
X25894Y136535
X15894Y136535
X15894Y126535
X25894Y126535
X25894Y116535
X15894Y116535
X15894Y106535
X25894Y106535
X25894Y96535
X15894Y96535
X15894Y86535
X25894Y86535
T07
X47942Y115669
X57942Y115669
X67942Y115669
X77942Y115669
X87942Y115669
X97942Y115669
X97942Y125669
X87942Y125669
X77942Y125669
X67942Y125669
X57942Y125669
X47942Y125669
X47942Y145669
X57942Y145669
X67942Y145669
X77942Y145669
X87942Y145669
X97942Y145669
X97942Y155669
X87942Y155669
X77942Y155669
X67942Y155669
X57942Y155669
X47942Y155669
X47942Y175669
X57942Y175669
X67942Y175669
X77942Y175669
X87942Y175669
X87942Y185669
X77942Y185669
X67942Y185669
X57942Y185669
X47942Y185669
X138257Y172598
X148257Y172598
X158257Y172598
X158257Y162598
X148257Y162598
X138257Y162598
X257548Y164370
X267548Y164370
X277548Y164370
X277548Y174370
X267548Y174370
X257548Y174370
T08
X102194Y72244
X102194Y62244
X102194Y52244
X102194Y32244
T09
X143532Y47913
X159280Y32165
X175028Y44961
X217548Y47913
X233296Y32165
X249044Y44961
X295107Y47913
X310855Y32165
X326603Y44961
X369123Y47913
X384871Y32165
X400619Y44961
T10
X364989Y239449
X331524Y239449
X303965Y239843
X270501Y239843
X242942Y239843
X209477Y239843
X181918Y239843
X148454Y239843
T11
X165186Y209724
X226209Y209724
X287233Y209724
X348257Y209331
T12
X348257Y227047
X287233Y227441
X226209Y227441
X165186Y227441
T13
X75665Y47126
X60955Y30815
T14
X11643Y26654
X60855Y59637
X11643Y241220
X432902Y241220
X432902Y26654
T15
X413611Y34134
X356131Y34134
X339595Y34134
X282115Y34134
X262036Y34134
X204556Y34134
X188020Y34134
X130540Y34134
M30
