G75*
%MOIN*%
%OFA0B0*%
%FSLAX25Y25*%
%IPPOS*%
%LPD*%
%AMOC8*
5,1,8,0,0,1.08239X$1,22.5*
%
%ADD10C,0.06000*%
%ADD11C,0.05906*%
%ADD12C,0.12598*%
%ADD13C,0.13386*%
%ADD14C,0.07087*%
%ADD15C,0.06496*%
%ADD16C,0.16535*%
%ADD17C,0.15737*%
%ADD18C,0.04800*%
%ADD19C,0.03937*%
%ADD20C,0.02756*%
%ADD21C,0.01600*%
%ADD22C,0.04331*%
%ADD23C,0.04724*%
D10*
X0047942Y0115669D03*
X0057942Y0115669D03*
X0067942Y0115669D03*
X0077942Y0115669D03*
X0087942Y0115669D03*
X0097942Y0115669D03*
X0097942Y0125669D03*
X0087942Y0125669D03*
X0077942Y0125669D03*
X0067942Y0125669D03*
X0057942Y0125669D03*
X0047942Y0125669D03*
X0047942Y0145669D03*
X0057942Y0145669D03*
X0067942Y0145669D03*
X0077942Y0145669D03*
X0087942Y0145669D03*
X0097942Y0145669D03*
X0097942Y0155669D03*
X0087942Y0155669D03*
X0077942Y0155669D03*
X0067942Y0155669D03*
X0057942Y0155669D03*
X0047942Y0155669D03*
X0047942Y0175669D03*
X0057942Y0175669D03*
X0067942Y0175669D03*
X0077942Y0175669D03*
X0087942Y0175669D03*
X0087942Y0185669D03*
X0077942Y0185669D03*
X0067942Y0185669D03*
X0057942Y0185669D03*
X0047942Y0185669D03*
X0138257Y0172598D03*
X0148257Y0172598D03*
X0158257Y0172598D03*
X0158257Y0162598D03*
X0148257Y0162598D03*
X0138257Y0162598D03*
X0257548Y0164370D03*
X0267548Y0164370D03*
X0277548Y0164370D03*
X0277548Y0174370D03*
X0267548Y0174370D03*
X0257548Y0174370D03*
D11*
X0166997Y0140000D03*
X0147312Y0140000D03*
X0118847Y0183307D03*
X0108847Y0183307D03*
X0108847Y0193307D03*
X0118847Y0193307D03*
X0118847Y0203307D03*
X0108847Y0203307D03*
X0108847Y0213307D03*
X0118847Y0213307D03*
X0118847Y0223307D03*
X0108847Y0223307D03*
X0025894Y0176535D03*
X0015894Y0176535D03*
X0015894Y0166535D03*
X0025894Y0166535D03*
X0025894Y0156535D03*
X0015894Y0156535D03*
X0015894Y0146535D03*
X0025894Y0146535D03*
X0025894Y0136535D03*
X0015894Y0136535D03*
X0015894Y0126535D03*
X0025894Y0126535D03*
X0025894Y0116535D03*
X0015894Y0116535D03*
X0015894Y0106535D03*
X0025894Y0106535D03*
X0025894Y0096535D03*
X0015894Y0096535D03*
X0015894Y0086535D03*
X0025894Y0086535D03*
D12*
X0165186Y0209724D03*
X0226209Y0209724D03*
X0287233Y0209724D03*
X0348257Y0209331D03*
D13*
X0348257Y0227047D03*
X0287233Y0227441D03*
X0226209Y0227441D03*
X0165186Y0227441D03*
D14*
X0143532Y0047913D03*
X0159280Y0032165D03*
X0175028Y0044961D03*
X0217548Y0047913D03*
X0233296Y0032165D03*
X0249044Y0044961D03*
X0295107Y0047913D03*
X0310855Y0032165D03*
X0326603Y0044961D03*
X0369123Y0047913D03*
X0384871Y0032165D03*
X0400619Y0044961D03*
D15*
X0102194Y0052244D03*
X0102194Y0062244D03*
X0102194Y0072244D03*
D16*
X0060855Y0059637D03*
D17*
X0075665Y0047126D03*
X0060955Y0030815D03*
D18*
X0245461Y0134646D03*
X0245461Y0144646D03*
X0275461Y0144646D03*
X0275461Y0134646D03*
X0366721Y0142520D03*
X0366721Y0152520D03*
X0396721Y0152520D03*
X0396721Y0142520D03*
D19*
X0354438Y0159488D03*
X0352115Y0167992D03*
X0328965Y0165236D03*
X0328769Y0174961D03*
X0302194Y0176654D03*
X0242395Y0160477D03*
X0206131Y0163268D03*
X0191564Y0174685D03*
X0167351Y0167992D03*
X0109674Y0149488D03*
X0109674Y0142402D03*
X0172194Y0108975D03*
X0188020Y0129803D03*
X0247076Y0120748D03*
X0262149Y0096743D03*
X0272779Y0090443D03*
X0295044Y0110150D03*
X0302981Y0090630D03*
X0325422Y0090827D03*
X0341170Y0090630D03*
X0349241Y0090630D03*
X0358493Y0090630D03*
X0297469Y0130591D03*
X0236839Y0090827D03*
X0227391Y0090827D03*
X0219517Y0090827D03*
X0204950Y0090827D03*
X0150306Y0090543D03*
X0047272Y0193189D03*
X0061839Y0199094D03*
X0082706Y0199094D03*
D20*
X0082312Y0208937D03*
X0088808Y0208150D03*
X0088414Y0217205D03*
X0072863Y0217992D03*
X0069713Y0215236D03*
X0066564Y0217992D03*
X0063414Y0215236D03*
X0060265Y0217992D03*
X0057115Y0215236D03*
X0050816Y0221142D03*
X0041367Y0202244D03*
X0035068Y0202244D03*
X0028769Y0202244D03*
X0082312Y0238071D03*
X0044517Y0244764D03*
X0180934Y0186890D03*
X0187233Y0183346D03*
X0185265Y0179803D03*
X0176997Y0177047D03*
X0206524Y0155394D03*
X0196682Y0154606D03*
X0199044Y0144370D03*
X0201406Y0141614D03*
X0203769Y0144764D03*
X0210068Y0142008D03*
X0209280Y0138071D03*
X0209280Y0133740D03*
X0221879Y0129803D03*
X0222272Y0125866D03*
X0216761Y0119173D03*
X0205343Y0124291D03*
X0198257Y0124291D03*
X0195501Y0121535D03*
X0191957Y0121929D03*
X0185658Y0111693D03*
X0177832Y0113415D03*
X0176632Y0101615D03*
X0185106Y0086790D03*
X0173269Y0079771D03*
X0228965Y0086890D03*
X0238020Y0124685D03*
X0255343Y0124685D03*
X0238020Y0133346D03*
X0238020Y0142008D03*
X0218729Y0146732D03*
X0230277Y0159906D03*
X0245698Y0163465D03*
X0240847Y0172029D03*
X0246682Y0177047D03*
X0239989Y0193386D03*
X0184871Y0151457D03*
X0180934Y0147913D03*
X0190383Y0143976D03*
X0193926Y0144370D03*
X0176997Y0132559D03*
X0138020Y0145157D03*
X0114005Y0157362D03*
X0298753Y0101815D03*
X0306682Y0113189D03*
X0305113Y0116344D03*
X0312580Y0121779D03*
X0318335Y0121535D03*
X0318335Y0125079D03*
X0321879Y0125866D03*
X0325422Y0126654D03*
X0328572Y0128228D03*
X0331721Y0127047D03*
X0328178Y0121535D03*
X0336839Y0119567D03*
X0341957Y0120748D03*
X0341957Y0115236D03*
X0336839Y0116024D03*
X0358493Y0125079D03*
X0364005Y0119567D03*
X0358099Y0133937D03*
X0358099Y0142795D03*
X0357902Y0152047D03*
X0341170Y0152638D03*
X0338414Y0146732D03*
X0328965Y0142008D03*
X0321879Y0140433D03*
X0328965Y0138465D03*
X0328965Y0134921D03*
X0318335Y0130984D03*
X0308493Y0133740D03*
X0313611Y0140827D03*
X0317942Y0144370D03*
X0321879Y0144370D03*
X0330934Y0156575D03*
X0302981Y0146732D03*
X0341957Y0128228D03*
X0334477Y0087283D03*
X0319910Y0080197D03*
X0310331Y0087809D03*
X0376603Y0086496D03*
X0325383Y0182677D03*
X0333690Y0188858D03*
X0035658Y0044764D03*
D21*
X0019330Y0021517D02*
X0017392Y0019580D01*
X0039989Y0019580D01*
X0039989Y0104213D01*
X0118532Y0104213D01*
X0118532Y0115827D01*
X0120859Y0115827D01*
X0121877Y0116249D01*
X0123455Y0116249D01*
X0124474Y0115827D01*
X0126603Y0115827D01*
X0126603Y0113141D01*
X0126631Y0113072D01*
X0126631Y0111495D01*
X0126603Y0111426D01*
X0126603Y0108023D01*
X0126631Y0107954D01*
X0126631Y0106377D01*
X0126603Y0106308D01*
X0126603Y0102904D01*
X0126631Y0102836D01*
X0126631Y0101258D01*
X0126603Y0101190D01*
X0126603Y0098898D01*
X0140186Y0098898D01*
X0140186Y0090630D01*
X0118926Y0090630D01*
X0118926Y0019580D01*
X0427153Y0019580D01*
X0425215Y0021517D01*
X0423835Y0024850D01*
X0423835Y0028457D01*
X0425215Y0031790D01*
X0427766Y0034341D01*
X0431099Y0035721D01*
X0434706Y0035721D01*
X0438039Y0034341D01*
X0439976Y0032403D01*
X0439976Y0235471D01*
X0438039Y0233533D01*
X0434706Y0232153D01*
X0431099Y0232153D01*
X0427766Y0233533D01*
X0425215Y0236084D01*
X0423835Y0239417D01*
X0423835Y0243024D01*
X0425215Y0246357D01*
X0427153Y0248294D01*
X0044713Y0248294D01*
X0044713Y0217402D01*
X0004568Y0217402D01*
X0004568Y0032403D01*
X0006506Y0034341D01*
X0009839Y0035721D01*
X0013446Y0035721D01*
X0016779Y0034341D01*
X0019330Y0031790D01*
X0020710Y0028457D01*
X0020710Y0024850D01*
X0019330Y0021517D01*
X0019367Y0021607D02*
X0039989Y0021607D01*
X0039989Y0023205D02*
X0020029Y0023205D01*
X0020691Y0024804D02*
X0039989Y0024804D01*
X0039989Y0026402D02*
X0020710Y0026402D01*
X0020710Y0028001D02*
X0039989Y0028001D01*
X0039989Y0029599D02*
X0020237Y0029599D01*
X0019575Y0031198D02*
X0039989Y0031198D01*
X0039989Y0032796D02*
X0018324Y0032796D01*
X0016649Y0034395D02*
X0039989Y0034395D01*
X0039989Y0035993D02*
X0004568Y0035993D01*
X0004568Y0034395D02*
X0006636Y0034395D01*
X0004961Y0032796D02*
X0004568Y0032796D01*
X0004568Y0037592D02*
X0039989Y0037592D01*
X0039989Y0039190D02*
X0004568Y0039190D01*
X0004568Y0040789D02*
X0039989Y0040789D01*
X0039989Y0042387D02*
X0037776Y0042387D01*
X0037458Y0042070D02*
X0038352Y0042964D01*
X0038836Y0044132D01*
X0038836Y0045396D01*
X0038352Y0046564D01*
X0037458Y0047458D01*
X0036290Y0047942D01*
X0035026Y0047942D01*
X0033858Y0047458D01*
X0032964Y0046564D01*
X0032480Y0045396D01*
X0032480Y0044132D01*
X0032964Y0042964D01*
X0033858Y0042070D01*
X0035026Y0041586D01*
X0036290Y0041586D01*
X0037458Y0042070D01*
X0038776Y0043986D02*
X0039989Y0043986D01*
X0039989Y0045584D02*
X0038758Y0045584D01*
X0037734Y0047183D02*
X0039989Y0047183D01*
X0039989Y0048781D02*
X0004568Y0048781D01*
X0004568Y0047183D02*
X0033583Y0047183D01*
X0032558Y0045584D02*
X0004568Y0045584D01*
X0004568Y0043986D02*
X0032541Y0043986D01*
X0033541Y0042387D02*
X0004568Y0042387D01*
X0004568Y0050380D02*
X0039989Y0050380D01*
X0039989Y0051978D02*
X0004568Y0051978D01*
X0004568Y0053577D02*
X0039989Y0053577D01*
X0039989Y0055175D02*
X0004568Y0055175D01*
X0004568Y0056774D02*
X0039989Y0056774D01*
X0039989Y0058372D02*
X0004568Y0058372D01*
X0004568Y0059971D02*
X0039989Y0059971D01*
X0039989Y0061569D02*
X0004568Y0061569D01*
X0004568Y0063168D02*
X0039989Y0063168D01*
X0039989Y0064766D02*
X0004568Y0064766D01*
X0004568Y0066365D02*
X0039989Y0066365D01*
X0039989Y0067963D02*
X0004568Y0067963D01*
X0004568Y0069562D02*
X0039989Y0069562D01*
X0039989Y0071160D02*
X0004568Y0071160D01*
X0004568Y0072759D02*
X0039989Y0072759D01*
X0039989Y0074357D02*
X0004568Y0074357D01*
X0004568Y0075956D02*
X0039989Y0075956D01*
X0039989Y0077554D02*
X0004568Y0077554D01*
X0004568Y0079153D02*
X0039989Y0079153D01*
X0039989Y0080751D02*
X0004568Y0080751D01*
X0004568Y0082350D02*
X0013579Y0082350D01*
X0013202Y0082506D02*
X0014949Y0081783D01*
X0016840Y0081783D01*
X0018587Y0082506D01*
X0019924Y0083843D01*
X0020647Y0085590D01*
X0020647Y0087481D01*
X0019924Y0089228D01*
X0018587Y0090565D01*
X0016840Y0091288D01*
X0014949Y0091288D01*
X0013202Y0090565D01*
X0011865Y0089228D01*
X0011142Y0087481D01*
X0011142Y0085590D01*
X0011865Y0083843D01*
X0013202Y0082506D01*
X0011822Y0083948D02*
X0004568Y0083948D01*
X0004568Y0085547D02*
X0011160Y0085547D01*
X0011142Y0087146D02*
X0004568Y0087146D01*
X0004568Y0088744D02*
X0011665Y0088744D01*
X0012980Y0090343D02*
X0004568Y0090343D01*
X0004568Y0091941D02*
X0014654Y0091941D01*
X0014782Y0091900D02*
X0015520Y0091783D01*
X0015710Y0091783D01*
X0015710Y0096351D01*
X0011142Y0096351D01*
X0011142Y0096161D01*
X0011259Y0095422D01*
X0011490Y0094711D01*
X0011830Y0094044D01*
X0012269Y0093439D01*
X0012798Y0092910D01*
X0013403Y0092471D01*
X0014070Y0092131D01*
X0014782Y0091900D01*
X0015710Y0091941D02*
X0016079Y0091941D01*
X0016079Y0091783D02*
X0016269Y0091783D01*
X0017007Y0091900D01*
X0017719Y0092131D01*
X0018385Y0092471D01*
X0018991Y0092910D01*
X0019520Y0093439D01*
X0019959Y0094044D01*
X0020299Y0094711D01*
X0020530Y0095422D01*
X0020647Y0096161D01*
X0020647Y0096351D01*
X0016079Y0096351D01*
X0016079Y0096720D01*
X0015710Y0096720D01*
X0015710Y0101288D01*
X0015520Y0101288D01*
X0014782Y0101171D01*
X0014070Y0100940D01*
X0013403Y0100600D01*
X0012798Y0100161D01*
X0012269Y0099632D01*
X0011830Y0099026D01*
X0011490Y0098360D01*
X0011259Y0097648D01*
X0011142Y0096909D01*
X0011142Y0096720D01*
X0015710Y0096720D01*
X0015710Y0096351D01*
X0016079Y0096351D01*
X0016079Y0091783D01*
X0017135Y0091941D02*
X0024567Y0091941D01*
X0024949Y0091783D02*
X0026840Y0091783D01*
X0028587Y0092506D01*
X0029924Y0093843D01*
X0030647Y0095590D01*
X0030647Y0097481D01*
X0029924Y0099228D01*
X0028587Y0100565D01*
X0026840Y0101288D01*
X0024949Y0101288D01*
X0023202Y0100565D01*
X0021865Y0099228D01*
X0021142Y0097481D01*
X0021142Y0095590D01*
X0021865Y0093843D01*
X0023202Y0092506D01*
X0024949Y0091783D01*
X0024949Y0091288D02*
X0023202Y0090565D01*
X0021865Y0089228D01*
X0021142Y0087481D01*
X0021142Y0085590D01*
X0021865Y0083843D01*
X0023202Y0082506D01*
X0024949Y0081783D01*
X0026840Y0081783D01*
X0028587Y0082506D01*
X0029924Y0083843D01*
X0030647Y0085590D01*
X0030647Y0087481D01*
X0029924Y0089228D01*
X0028587Y0090565D01*
X0026840Y0091288D01*
X0024949Y0091288D01*
X0022980Y0090343D02*
X0018809Y0090343D01*
X0020124Y0088744D02*
X0021665Y0088744D01*
X0021142Y0087146D02*
X0020647Y0087146D01*
X0020629Y0085547D02*
X0021160Y0085547D01*
X0021822Y0083948D02*
X0019967Y0083948D01*
X0018209Y0082350D02*
X0023579Y0082350D01*
X0028209Y0082350D02*
X0039989Y0082350D01*
X0039989Y0083948D02*
X0029967Y0083948D01*
X0030629Y0085547D02*
X0039989Y0085547D01*
X0039989Y0087146D02*
X0030647Y0087146D01*
X0030124Y0088744D02*
X0039989Y0088744D01*
X0039989Y0090343D02*
X0028809Y0090343D01*
X0027222Y0091941D02*
X0039989Y0091941D01*
X0039989Y0093540D02*
X0029620Y0093540D01*
X0030460Y0095138D02*
X0039989Y0095138D01*
X0039989Y0096737D02*
X0030647Y0096737D01*
X0030293Y0098335D02*
X0039989Y0098335D01*
X0039989Y0099934D02*
X0029218Y0099934D01*
X0028587Y0102506D02*
X0026840Y0101783D01*
X0024949Y0101783D01*
X0023202Y0102506D01*
X0021865Y0103843D01*
X0021142Y0105590D01*
X0021142Y0107481D01*
X0021865Y0109228D01*
X0023202Y0110565D01*
X0024949Y0111288D01*
X0026840Y0111288D01*
X0028587Y0110565D01*
X0029924Y0109228D01*
X0030647Y0107481D01*
X0030647Y0105590D01*
X0029924Y0103843D01*
X0028587Y0102506D01*
X0029211Y0103131D02*
X0039989Y0103131D01*
X0039989Y0101532D02*
X0004568Y0101532D01*
X0004568Y0099934D02*
X0012571Y0099934D01*
X0011482Y0098335D02*
X0004568Y0098335D01*
X0004568Y0096737D02*
X0011142Y0096737D01*
X0011351Y0095138D02*
X0004568Y0095138D01*
X0004568Y0093540D02*
X0012196Y0093540D01*
X0015710Y0093540D02*
X0016079Y0093540D01*
X0016079Y0095138D02*
X0015710Y0095138D01*
X0015710Y0096737D02*
X0016079Y0096737D01*
X0016079Y0096720D02*
X0016079Y0101288D01*
X0016269Y0101288D01*
X0017007Y0101171D01*
X0017719Y0100940D01*
X0018385Y0100600D01*
X0018991Y0100161D01*
X0019520Y0099632D01*
X0019959Y0099026D01*
X0020299Y0098360D01*
X0020530Y0097648D01*
X0020647Y0096909D01*
X0020647Y0096720D01*
X0016079Y0096720D01*
X0016079Y0098335D02*
X0015710Y0098335D01*
X0015710Y0099934D02*
X0016079Y0099934D01*
X0016079Y0101783D02*
X0016269Y0101783D01*
X0017007Y0101900D01*
X0017719Y0102131D01*
X0018385Y0102471D01*
X0018991Y0102910D01*
X0019520Y0103439D01*
X0019959Y0104044D01*
X0020299Y0104711D01*
X0020530Y0105422D01*
X0020647Y0106161D01*
X0020647Y0106351D01*
X0016079Y0106351D01*
X0016079Y0106720D01*
X0015710Y0106720D01*
X0015710Y0111288D01*
X0015520Y0111288D01*
X0014782Y0111171D01*
X0014070Y0110940D01*
X0013403Y0110600D01*
X0012798Y0110161D01*
X0012269Y0109632D01*
X0011830Y0109026D01*
X0011490Y0108360D01*
X0011259Y0107648D01*
X0011142Y0106909D01*
X0011142Y0106720D01*
X0015710Y0106720D01*
X0015710Y0106351D01*
X0011142Y0106351D01*
X0011142Y0106161D01*
X0011259Y0105422D01*
X0011490Y0104711D01*
X0011830Y0104044D01*
X0012269Y0103439D01*
X0012798Y0102910D01*
X0013403Y0102471D01*
X0014070Y0102131D01*
X0014782Y0101900D01*
X0015520Y0101783D01*
X0015710Y0101783D01*
X0015710Y0106351D01*
X0016079Y0106351D01*
X0016079Y0101783D01*
X0016079Y0103131D02*
X0015710Y0103131D01*
X0015710Y0104729D02*
X0016079Y0104729D01*
X0016079Y0106328D02*
X0015710Y0106328D01*
X0016079Y0106720D02*
X0016079Y0111288D01*
X0016269Y0111288D01*
X0017007Y0111171D01*
X0017719Y0110940D01*
X0018385Y0110600D01*
X0018991Y0110161D01*
X0019520Y0109632D01*
X0019959Y0109026D01*
X0020299Y0108360D01*
X0020530Y0107648D01*
X0020647Y0106909D01*
X0020647Y0106720D01*
X0016079Y0106720D01*
X0016079Y0107926D02*
X0015710Y0107926D01*
X0015710Y0109525D02*
X0016079Y0109525D01*
X0016079Y0111123D02*
X0015710Y0111123D01*
X0015710Y0111783D02*
X0015710Y0116351D01*
X0011142Y0116351D01*
X0011142Y0116161D01*
X0011259Y0115422D01*
X0011490Y0114711D01*
X0011830Y0114044D01*
X0012269Y0113439D01*
X0012798Y0112910D01*
X0013403Y0112471D01*
X0014070Y0112131D01*
X0014782Y0111900D01*
X0015520Y0111783D01*
X0015710Y0111783D01*
X0016079Y0111783D02*
X0016269Y0111783D01*
X0017007Y0111900D01*
X0017719Y0112131D01*
X0018385Y0112471D01*
X0018991Y0112910D01*
X0019520Y0113439D01*
X0019959Y0114044D01*
X0020299Y0114711D01*
X0020530Y0115422D01*
X0020647Y0116161D01*
X0020647Y0116351D01*
X0016079Y0116351D01*
X0016079Y0116720D01*
X0015710Y0116720D01*
X0015710Y0121288D01*
X0015520Y0121288D01*
X0014782Y0121171D01*
X0014070Y0120940D01*
X0013403Y0120600D01*
X0012798Y0120161D01*
X0012269Y0119632D01*
X0011830Y0119026D01*
X0011490Y0118360D01*
X0011259Y0117648D01*
X0011142Y0116909D01*
X0011142Y0116720D01*
X0015710Y0116720D01*
X0015710Y0116351D01*
X0016079Y0116351D01*
X0016079Y0111783D01*
X0016079Y0112722D02*
X0015710Y0112722D01*
X0015710Y0114320D02*
X0016079Y0114320D01*
X0016079Y0115919D02*
X0015710Y0115919D01*
X0016079Y0116720D02*
X0020647Y0116720D01*
X0020647Y0116909D01*
X0020530Y0117648D01*
X0020299Y0118360D01*
X0019959Y0119026D01*
X0019520Y0119632D01*
X0018991Y0120161D01*
X0018385Y0120600D01*
X0017719Y0120940D01*
X0017007Y0121171D01*
X0016269Y0121288D01*
X0016079Y0121288D01*
X0016079Y0116720D01*
X0016079Y0117517D02*
X0015710Y0117517D01*
X0015710Y0119116D02*
X0016079Y0119116D01*
X0016079Y0120714D02*
X0015710Y0120714D01*
X0015710Y0121783D02*
X0015710Y0126351D01*
X0011142Y0126351D01*
X0011142Y0126161D01*
X0011259Y0125422D01*
X0011490Y0124711D01*
X0011830Y0124044D01*
X0012269Y0123439D01*
X0012798Y0122910D01*
X0013403Y0122471D01*
X0014070Y0122131D01*
X0014782Y0121900D01*
X0015520Y0121783D01*
X0015710Y0121783D01*
X0016079Y0121783D02*
X0016269Y0121783D01*
X0017007Y0121900D01*
X0017719Y0122131D01*
X0018385Y0122471D01*
X0018991Y0122910D01*
X0019520Y0123439D01*
X0019959Y0124044D01*
X0020299Y0124711D01*
X0020530Y0125422D01*
X0020647Y0126161D01*
X0020647Y0126351D01*
X0016079Y0126351D01*
X0016079Y0126720D01*
X0015710Y0126720D01*
X0015710Y0131288D01*
X0015520Y0131288D01*
X0014782Y0131171D01*
X0014070Y0130940D01*
X0013403Y0130600D01*
X0012798Y0130161D01*
X0012269Y0129632D01*
X0011830Y0129026D01*
X0011490Y0128360D01*
X0011259Y0127648D01*
X0011142Y0126909D01*
X0011142Y0126720D01*
X0015710Y0126720D01*
X0015710Y0126351D01*
X0016079Y0126351D01*
X0016079Y0121783D01*
X0016079Y0122313D02*
X0015710Y0122313D01*
X0015710Y0123911D02*
X0016079Y0123911D01*
X0016079Y0125510D02*
X0015710Y0125510D01*
X0016079Y0126720D02*
X0020647Y0126720D01*
X0020647Y0126909D01*
X0020530Y0127648D01*
X0020299Y0128360D01*
X0019959Y0129026D01*
X0019520Y0129632D01*
X0018991Y0130161D01*
X0018385Y0130600D01*
X0017719Y0130940D01*
X0017007Y0131171D01*
X0016269Y0131288D01*
X0016079Y0131288D01*
X0016079Y0126720D01*
X0016079Y0127108D02*
X0015710Y0127108D01*
X0015710Y0128707D02*
X0016079Y0128707D01*
X0016079Y0130305D02*
X0015710Y0130305D01*
X0015710Y0131783D02*
X0015710Y0136351D01*
X0011142Y0136351D01*
X0011142Y0136161D01*
X0011259Y0135422D01*
X0011490Y0134711D01*
X0011830Y0134044D01*
X0012269Y0133439D01*
X0012798Y0132910D01*
X0013403Y0132471D01*
X0014070Y0132131D01*
X0014782Y0131900D01*
X0015520Y0131783D01*
X0015710Y0131783D01*
X0015710Y0131904D02*
X0016079Y0131904D01*
X0016079Y0131783D02*
X0016269Y0131783D01*
X0017007Y0131900D01*
X0017719Y0132131D01*
X0018385Y0132471D01*
X0018991Y0132910D01*
X0019520Y0133439D01*
X0019959Y0134044D01*
X0020299Y0134711D01*
X0020530Y0135422D01*
X0020647Y0136161D01*
X0020647Y0136351D01*
X0016079Y0136351D01*
X0016079Y0136720D01*
X0015710Y0136720D01*
X0015710Y0141288D01*
X0015520Y0141288D01*
X0014782Y0141171D01*
X0014070Y0140940D01*
X0013403Y0140600D01*
X0012798Y0140161D01*
X0012269Y0139632D01*
X0011830Y0139026D01*
X0011490Y0138360D01*
X0011259Y0137648D01*
X0011142Y0136909D01*
X0011142Y0136720D01*
X0015710Y0136720D01*
X0015710Y0136351D01*
X0016079Y0136351D01*
X0016079Y0131783D01*
X0017020Y0131904D02*
X0024657Y0131904D01*
X0024949Y0131783D02*
X0026840Y0131783D01*
X0028587Y0132506D01*
X0029924Y0133843D01*
X0030647Y0135590D01*
X0030647Y0137481D01*
X0029924Y0139228D01*
X0028587Y0140565D01*
X0026840Y0141288D01*
X0024949Y0141288D01*
X0023202Y0140565D01*
X0021865Y0139228D01*
X0021142Y0137481D01*
X0021142Y0135590D01*
X0021865Y0133843D01*
X0023202Y0132506D01*
X0024949Y0131783D01*
X0024949Y0131288D02*
X0023202Y0130565D01*
X0021865Y0129228D01*
X0021142Y0127481D01*
X0021142Y0125590D01*
X0021865Y0123843D01*
X0023202Y0122506D01*
X0024949Y0121783D01*
X0026840Y0121783D01*
X0028587Y0122506D01*
X0029924Y0123843D01*
X0030647Y0125590D01*
X0030647Y0127481D01*
X0029924Y0129228D01*
X0028587Y0130565D01*
X0026840Y0131288D01*
X0024949Y0131288D01*
X0022943Y0130305D02*
X0018792Y0130305D01*
X0020122Y0128707D02*
X0021650Y0128707D01*
X0021142Y0127108D02*
X0020616Y0127108D01*
X0020544Y0125510D02*
X0021175Y0125510D01*
X0021837Y0123911D02*
X0019863Y0123911D01*
X0018076Y0122313D02*
X0023669Y0122313D01*
X0023564Y0120714D02*
X0018162Y0120714D01*
X0019895Y0119116D02*
X0021819Y0119116D01*
X0021865Y0119228D02*
X0021142Y0117481D01*
X0021142Y0115590D01*
X0021865Y0113843D01*
X0023202Y0112506D01*
X0024949Y0111783D01*
X0026840Y0111783D01*
X0028587Y0112506D01*
X0029924Y0113843D01*
X0030647Y0115590D01*
X0030647Y0117481D01*
X0029924Y0119228D01*
X0028587Y0120565D01*
X0026840Y0121288D01*
X0024949Y0121288D01*
X0023202Y0120565D01*
X0021865Y0119228D01*
X0021157Y0117517D02*
X0020551Y0117517D01*
X0020609Y0115919D02*
X0021142Y0115919D01*
X0021668Y0114320D02*
X0020100Y0114320D01*
X0018731Y0112722D02*
X0022987Y0112722D01*
X0024551Y0111123D02*
X0017155Y0111123D01*
X0014634Y0111123D02*
X0004568Y0111123D01*
X0004568Y0109525D02*
X0012192Y0109525D01*
X0011349Y0107926D02*
X0004568Y0107926D01*
X0004568Y0106328D02*
X0011142Y0106328D01*
X0011484Y0104729D02*
X0004568Y0104729D01*
X0004568Y0103131D02*
X0012578Y0103131D01*
X0019211Y0103131D02*
X0022578Y0103131D01*
X0021498Y0104729D02*
X0020305Y0104729D01*
X0020647Y0106328D02*
X0021142Y0106328D01*
X0021326Y0107926D02*
X0020440Y0107926D01*
X0019597Y0109525D02*
X0022162Y0109525D01*
X0027238Y0111123D02*
X0046400Y0111123D01*
X0046099Y0111221D02*
X0046818Y0110987D01*
X0047564Y0110869D01*
X0047742Y0110869D01*
X0047742Y0115469D01*
X0048142Y0115469D01*
X0048142Y0115869D01*
X0052742Y0115869D01*
X0052742Y0116047D01*
X0052624Y0116793D01*
X0052390Y0117512D01*
X0052047Y0118185D01*
X0051603Y0118796D01*
X0051069Y0119331D01*
X0050457Y0119775D01*
X0049784Y0120118D01*
X0049066Y0120351D01*
X0048320Y0120469D01*
X0048142Y0120469D01*
X0048142Y0115869D01*
X0047742Y0115869D01*
X0047742Y0115469D01*
X0043142Y0115469D01*
X0043142Y0115292D01*
X0043260Y0114545D01*
X0043493Y0113827D01*
X0043836Y0113154D01*
X0044280Y0112542D01*
X0044815Y0112008D01*
X0045426Y0111564D01*
X0046099Y0111221D01*
X0047742Y0111123D02*
X0048142Y0111123D01*
X0048142Y0110869D02*
X0048320Y0110869D01*
X0049066Y0110987D01*
X0049784Y0111221D01*
X0050457Y0111564D01*
X0051069Y0112008D01*
X0051603Y0112542D01*
X0052047Y0113154D01*
X0052390Y0113827D01*
X0052624Y0114545D01*
X0052742Y0115292D01*
X0052742Y0115469D01*
X0048142Y0115469D01*
X0048142Y0110869D01*
X0049483Y0111123D02*
X0056400Y0111123D01*
X0056099Y0111221D02*
X0056818Y0110987D01*
X0057564Y0110869D01*
X0057742Y0110869D01*
X0057742Y0115469D01*
X0058142Y0115469D01*
X0058142Y0115869D01*
X0062742Y0115869D01*
X0062742Y0116047D01*
X0062624Y0116793D01*
X0062390Y0117512D01*
X0062047Y0118185D01*
X0061603Y0118796D01*
X0061069Y0119331D01*
X0060457Y0119775D01*
X0059784Y0120118D01*
X0059066Y0120351D01*
X0058320Y0120469D01*
X0058142Y0120469D01*
X0058142Y0115869D01*
X0057742Y0115869D01*
X0057742Y0115469D01*
X0053142Y0115469D01*
X0053142Y0115292D01*
X0053260Y0114545D01*
X0053493Y0113827D01*
X0053836Y0113154D01*
X0054280Y0112542D01*
X0054815Y0112008D01*
X0055426Y0111564D01*
X0056099Y0111221D01*
X0057742Y0111123D02*
X0058142Y0111123D01*
X0058142Y0110869D02*
X0058320Y0110869D01*
X0059066Y0110987D01*
X0059784Y0111221D01*
X0060457Y0111564D01*
X0061069Y0112008D01*
X0061603Y0112542D01*
X0062047Y0113154D01*
X0062390Y0113827D01*
X0062624Y0114545D01*
X0062742Y0115292D01*
X0062742Y0115469D01*
X0058142Y0115469D01*
X0058142Y0110869D01*
X0059483Y0111123D02*
X0066400Y0111123D01*
X0066099Y0111221D02*
X0066818Y0110987D01*
X0067564Y0110869D01*
X0067742Y0110869D01*
X0067742Y0115469D01*
X0068142Y0115469D01*
X0068142Y0115869D01*
X0072742Y0115869D01*
X0072742Y0116047D01*
X0072624Y0116793D01*
X0072390Y0117512D01*
X0072047Y0118185D01*
X0071603Y0118796D01*
X0071069Y0119331D01*
X0070457Y0119775D01*
X0069784Y0120118D01*
X0069066Y0120351D01*
X0068320Y0120469D01*
X0068142Y0120469D01*
X0068142Y0115869D01*
X0067742Y0115869D01*
X0067742Y0115469D01*
X0063142Y0115469D01*
X0063142Y0115292D01*
X0063260Y0114545D01*
X0063493Y0113827D01*
X0063836Y0113154D01*
X0064280Y0112542D01*
X0064815Y0112008D01*
X0065426Y0111564D01*
X0066099Y0111221D01*
X0067742Y0111123D02*
X0068142Y0111123D01*
X0068142Y0110869D02*
X0068320Y0110869D01*
X0069066Y0110987D01*
X0069784Y0111221D01*
X0070457Y0111564D01*
X0071069Y0112008D01*
X0071603Y0112542D01*
X0072047Y0113154D01*
X0072390Y0113827D01*
X0072624Y0114545D01*
X0072742Y0115292D01*
X0072742Y0115469D01*
X0068142Y0115469D01*
X0068142Y0110869D01*
X0069483Y0111123D02*
X0076400Y0111123D01*
X0076099Y0111221D02*
X0076818Y0110987D01*
X0077564Y0110869D01*
X0077742Y0110869D01*
X0077742Y0115469D01*
X0078142Y0115469D01*
X0078142Y0115869D01*
X0082742Y0115869D01*
X0082742Y0116047D01*
X0082624Y0116793D01*
X0082390Y0117512D01*
X0082047Y0118185D01*
X0081603Y0118796D01*
X0081069Y0119331D01*
X0080457Y0119775D01*
X0079784Y0120118D01*
X0079066Y0120351D01*
X0078320Y0120469D01*
X0078142Y0120469D01*
X0078142Y0115869D01*
X0077742Y0115869D01*
X0077742Y0115469D01*
X0073142Y0115469D01*
X0073142Y0115292D01*
X0073260Y0114545D01*
X0073493Y0113827D01*
X0073836Y0113154D01*
X0074280Y0112542D01*
X0074815Y0112008D01*
X0075426Y0111564D01*
X0076099Y0111221D01*
X0077742Y0111123D02*
X0078142Y0111123D01*
X0078142Y0110869D02*
X0078320Y0110869D01*
X0079066Y0110987D01*
X0079784Y0111221D01*
X0080457Y0111564D01*
X0081069Y0112008D01*
X0081603Y0112542D01*
X0082047Y0113154D01*
X0082390Y0113827D01*
X0082624Y0114545D01*
X0082742Y0115292D01*
X0082742Y0115469D01*
X0078142Y0115469D01*
X0078142Y0110869D01*
X0079483Y0111123D02*
X0086400Y0111123D01*
X0086099Y0111221D02*
X0086818Y0110987D01*
X0087564Y0110869D01*
X0087742Y0110869D01*
X0087742Y0115469D01*
X0088142Y0115469D01*
X0088142Y0115869D01*
X0092742Y0115869D01*
X0092742Y0116047D01*
X0092624Y0116793D01*
X0092390Y0117512D01*
X0092047Y0118185D01*
X0091603Y0118796D01*
X0091069Y0119331D01*
X0090457Y0119775D01*
X0089784Y0120118D01*
X0089066Y0120351D01*
X0088320Y0120469D01*
X0088142Y0120469D01*
X0088142Y0115869D01*
X0087742Y0115869D01*
X0087742Y0115469D01*
X0083142Y0115469D01*
X0083142Y0115292D01*
X0083260Y0114545D01*
X0083493Y0113827D01*
X0083836Y0113154D01*
X0084280Y0112542D01*
X0084815Y0112008D01*
X0085426Y0111564D01*
X0086099Y0111221D01*
X0087742Y0111123D02*
X0088142Y0111123D01*
X0088142Y0110869D02*
X0088320Y0110869D01*
X0089066Y0110987D01*
X0089784Y0111221D01*
X0090457Y0111564D01*
X0091069Y0112008D01*
X0091603Y0112542D01*
X0092047Y0113154D01*
X0092390Y0113827D01*
X0092624Y0114545D01*
X0092742Y0115292D01*
X0092742Y0115469D01*
X0088142Y0115469D01*
X0088142Y0110869D01*
X0089483Y0111123D02*
X0096400Y0111123D01*
X0096099Y0111221D02*
X0096818Y0110987D01*
X0097564Y0110869D01*
X0097742Y0110869D01*
X0097742Y0115469D01*
X0098142Y0115469D01*
X0098142Y0115869D01*
X0102742Y0115869D01*
X0102742Y0116047D01*
X0102624Y0116793D01*
X0102390Y0117512D01*
X0102047Y0118185D01*
X0101603Y0118796D01*
X0101069Y0119331D01*
X0100457Y0119775D01*
X0099784Y0120118D01*
X0099066Y0120351D01*
X0098320Y0120469D01*
X0098142Y0120469D01*
X0098142Y0115869D01*
X0097742Y0115869D01*
X0097742Y0115469D01*
X0093142Y0115469D01*
X0093142Y0115292D01*
X0093260Y0114545D01*
X0093493Y0113827D01*
X0093836Y0113154D01*
X0094280Y0112542D01*
X0094815Y0112008D01*
X0095426Y0111564D01*
X0096099Y0111221D01*
X0097742Y0111123D02*
X0098142Y0111123D01*
X0098142Y0110869D02*
X0098320Y0110869D01*
X0099066Y0110987D01*
X0099784Y0111221D01*
X0100457Y0111564D01*
X0101069Y0112008D01*
X0101603Y0112542D01*
X0102047Y0113154D01*
X0102390Y0113827D01*
X0102624Y0114545D01*
X0102742Y0115292D01*
X0102742Y0115469D01*
X0098142Y0115469D01*
X0098142Y0110869D01*
X0099483Y0111123D02*
X0118532Y0111123D01*
X0118532Y0109525D02*
X0029627Y0109525D01*
X0030463Y0107926D02*
X0118532Y0107926D01*
X0118532Y0106328D02*
X0030647Y0106328D01*
X0030291Y0104729D02*
X0118532Y0104729D01*
X0126603Y0104729D02*
X0175846Y0104729D01*
X0176000Y0104793D02*
X0174832Y0104309D01*
X0173938Y0103415D01*
X0173454Y0102247D01*
X0173454Y0100983D01*
X0173938Y0099815D01*
X0174832Y0098921D01*
X0176000Y0098437D01*
X0177264Y0098437D01*
X0178432Y0098921D01*
X0179326Y0099815D01*
X0179810Y0100983D01*
X0179810Y0102247D01*
X0179326Y0103415D01*
X0178432Y0104309D01*
X0177264Y0104793D01*
X0176000Y0104793D01*
X0177418Y0104729D02*
X0297484Y0104729D01*
X0296953Y0104509D02*
X0296059Y0103615D01*
X0295575Y0102447D01*
X0295575Y0101183D01*
X0296059Y0100015D01*
X0296953Y0099121D01*
X0298121Y0098637D01*
X0299385Y0098637D01*
X0300553Y0099121D01*
X0301447Y0100015D01*
X0301931Y0101183D01*
X0301931Y0102447D01*
X0301447Y0103615D01*
X0300553Y0104509D01*
X0299385Y0104993D01*
X0298121Y0104993D01*
X0296953Y0104509D01*
X0295858Y0103131D02*
X0179444Y0103131D01*
X0179810Y0101532D02*
X0295575Y0101532D01*
X0296140Y0099934D02*
X0264287Y0099934D01*
X0264284Y0099937D02*
X0262898Y0100511D01*
X0261399Y0100511D01*
X0260014Y0099937D01*
X0258954Y0098877D01*
X0258380Y0097492D01*
X0258380Y0095993D01*
X0258954Y0094608D01*
X0260014Y0093548D01*
X0261399Y0092974D01*
X0262898Y0092974D01*
X0264284Y0093548D01*
X0265344Y0094608D01*
X0265917Y0095993D01*
X0265917Y0097492D01*
X0265344Y0098877D01*
X0264284Y0099937D01*
X0265568Y0098335D02*
X0439976Y0098335D01*
X0439976Y0096737D02*
X0265917Y0096737D01*
X0265563Y0095138D02*
X0439976Y0095138D01*
X0439976Y0093540D02*
X0351661Y0093540D01*
X0351376Y0093825D02*
X0349991Y0094398D01*
X0348491Y0094398D01*
X0347106Y0093825D01*
X0346046Y0092765D01*
X0345472Y0091380D01*
X0345472Y0089880D01*
X0346046Y0088495D01*
X0347106Y0087435D01*
X0348491Y0086861D01*
X0349991Y0086861D01*
X0351376Y0087435D01*
X0352436Y0088495D01*
X0353009Y0089880D01*
X0353009Y0091380D01*
X0352436Y0092765D01*
X0351376Y0093825D01*
X0352777Y0091941D02*
X0439976Y0091941D01*
X0439976Y0090343D02*
X0353009Y0090343D01*
X0352539Y0088744D02*
X0374357Y0088744D01*
X0374803Y0089190D02*
X0373909Y0088296D01*
X0373425Y0087128D01*
X0373425Y0085864D01*
X0373909Y0084696D01*
X0374803Y0083802D01*
X0375971Y0083318D01*
X0377235Y0083318D01*
X0378403Y0083802D01*
X0379297Y0084696D01*
X0379781Y0085864D01*
X0379781Y0087128D01*
X0379297Y0088296D01*
X0378403Y0089190D01*
X0377235Y0089674D01*
X0375971Y0089674D01*
X0374803Y0089190D01*
X0373432Y0087146D02*
X0350676Y0087146D01*
X0347805Y0087146D02*
X0337655Y0087146D01*
X0337655Y0086651D02*
X0337655Y0087916D01*
X0337171Y0089084D01*
X0336277Y0089978D01*
X0335109Y0090461D01*
X0333845Y0090461D01*
X0332677Y0089978D01*
X0331783Y0089084D01*
X0331299Y0087916D01*
X0331299Y0086651D01*
X0331783Y0085483D01*
X0332677Y0084589D01*
X0333845Y0084106D01*
X0335109Y0084106D01*
X0336277Y0084589D01*
X0337171Y0085483D01*
X0337655Y0086651D01*
X0337198Y0085547D02*
X0373556Y0085547D01*
X0374656Y0083948D02*
X0230169Y0083948D01*
X0229597Y0083712D02*
X0230766Y0084196D01*
X0231659Y0085090D01*
X0232143Y0086258D01*
X0232143Y0087522D01*
X0231659Y0088690D01*
X0230899Y0089450D01*
X0231159Y0090077D01*
X0231159Y0091576D01*
X0230585Y0092961D01*
X0229525Y0094022D01*
X0228140Y0094595D01*
X0226641Y0094595D01*
X0225256Y0094022D01*
X0224196Y0092961D01*
X0223622Y0091576D01*
X0223622Y0090077D01*
X0224196Y0088692D01*
X0225256Y0087632D01*
X0225787Y0087412D01*
X0225787Y0086258D01*
X0226271Y0085090D01*
X0227165Y0084196D01*
X0228333Y0083712D01*
X0229597Y0083712D01*
X0227762Y0083948D02*
X0186551Y0083948D01*
X0186906Y0084096D02*
X0187800Y0084990D01*
X0188284Y0086158D01*
X0188284Y0087422D01*
X0187800Y0088590D01*
X0186906Y0089484D01*
X0185738Y0089968D01*
X0184474Y0089968D01*
X0183306Y0089484D01*
X0182412Y0088590D01*
X0181928Y0087422D01*
X0181928Y0086158D01*
X0182412Y0084990D01*
X0183306Y0084096D01*
X0184474Y0083612D01*
X0185738Y0083612D01*
X0186906Y0084096D01*
X0188031Y0085547D02*
X0226082Y0085547D01*
X0225787Y0087146D02*
X0188284Y0087146D01*
X0187646Y0088744D02*
X0224174Y0088744D01*
X0223622Y0090343D02*
X0154075Y0090343D01*
X0154075Y0089794D02*
X0153501Y0088409D01*
X0152441Y0087349D01*
X0151056Y0086775D01*
X0149557Y0086775D01*
X0148172Y0087349D01*
X0147112Y0088409D01*
X0146538Y0089794D01*
X0146538Y0091293D01*
X0147112Y0092678D01*
X0148172Y0093738D01*
X0149557Y0094312D01*
X0151056Y0094312D01*
X0152441Y0093738D01*
X0153501Y0092678D01*
X0154075Y0091293D01*
X0154075Y0089794D01*
X0153640Y0088744D02*
X0182566Y0088744D01*
X0181928Y0087146D02*
X0151951Y0087146D01*
X0148662Y0087146D02*
X0118926Y0087146D01*
X0118926Y0088744D02*
X0146973Y0088744D01*
X0146538Y0090343D02*
X0118926Y0090343D01*
X0118926Y0085547D02*
X0182181Y0085547D01*
X0183661Y0083948D02*
X0118926Y0083948D01*
X0118926Y0082350D02*
X0171354Y0082350D01*
X0171469Y0082465D02*
X0170575Y0081571D01*
X0170091Y0080403D01*
X0170091Y0079139D01*
X0170575Y0077971D01*
X0171469Y0077077D01*
X0172637Y0076593D01*
X0173901Y0076593D01*
X0175069Y0077077D01*
X0175963Y0077971D01*
X0176447Y0079139D01*
X0176447Y0080403D01*
X0175963Y0081571D01*
X0175069Y0082465D01*
X0173901Y0082949D01*
X0172637Y0082949D01*
X0171469Y0082465D01*
X0170236Y0080751D02*
X0118926Y0080751D01*
X0118926Y0079153D02*
X0170091Y0079153D01*
X0170991Y0077554D02*
X0118926Y0077554D01*
X0118926Y0075956D02*
X0439976Y0075956D01*
X0439976Y0077554D02*
X0321762Y0077554D01*
X0321710Y0077503D02*
X0322604Y0078397D01*
X0323088Y0079565D01*
X0323088Y0080829D01*
X0322604Y0081997D01*
X0321710Y0082891D01*
X0320542Y0083375D01*
X0319278Y0083375D01*
X0318110Y0082891D01*
X0317216Y0081997D01*
X0316732Y0080829D01*
X0316732Y0079565D01*
X0317216Y0078397D01*
X0318110Y0077503D01*
X0319278Y0077019D01*
X0320542Y0077019D01*
X0321710Y0077503D01*
X0322918Y0079153D02*
X0439976Y0079153D01*
X0439976Y0080751D02*
X0323088Y0080751D01*
X0322251Y0082350D02*
X0439976Y0082350D01*
X0439976Y0083948D02*
X0378550Y0083948D01*
X0379650Y0085547D02*
X0439976Y0085547D01*
X0439976Y0087146D02*
X0379774Y0087146D01*
X0378849Y0088744D02*
X0439976Y0088744D01*
X0439976Y0099934D02*
X0301366Y0099934D01*
X0301931Y0101532D02*
X0439976Y0101532D01*
X0439976Y0103131D02*
X0301648Y0103131D01*
X0300022Y0104729D02*
X0439976Y0104729D01*
X0439976Y0106328D02*
X0174876Y0106328D01*
X0175388Y0106840D02*
X0175962Y0108225D01*
X0175962Y0109724D01*
X0175388Y0111109D01*
X0174328Y0112170D01*
X0172943Y0112743D01*
X0171444Y0112743D01*
X0170059Y0112170D01*
X0168999Y0111109D01*
X0168425Y0109724D01*
X0168425Y0108225D01*
X0168999Y0106840D01*
X0170059Y0105780D01*
X0171444Y0105206D01*
X0172943Y0105206D01*
X0174328Y0105780D01*
X0175388Y0106840D01*
X0175838Y0107926D02*
X0291938Y0107926D01*
X0291849Y0108015D02*
X0292909Y0106955D01*
X0294294Y0106381D01*
X0295794Y0106381D01*
X0297179Y0106955D01*
X0298239Y0108015D01*
X0298813Y0109400D01*
X0298813Y0110899D01*
X0298239Y0112284D01*
X0297179Y0113344D01*
X0295794Y0113918D01*
X0294294Y0113918D01*
X0292909Y0113344D01*
X0291849Y0112284D01*
X0291276Y0110899D01*
X0291276Y0109400D01*
X0291849Y0108015D01*
X0291276Y0109525D02*
X0175962Y0109525D01*
X0176032Y0110721D02*
X0177200Y0110237D01*
X0178464Y0110237D01*
X0179632Y0110721D01*
X0180526Y0111615D01*
X0181010Y0112783D01*
X0181010Y0114047D01*
X0180526Y0115215D01*
X0179632Y0116109D01*
X0178464Y0116593D01*
X0177200Y0116593D01*
X0176032Y0116109D01*
X0175138Y0115215D01*
X0174654Y0114047D01*
X0174654Y0112783D01*
X0175138Y0111615D01*
X0176032Y0110721D01*
X0175630Y0111123D02*
X0175375Y0111123D01*
X0174680Y0112722D02*
X0172995Y0112722D01*
X0171392Y0112722D02*
X0126631Y0112722D01*
X0126603Y0114320D02*
X0174767Y0114320D01*
X0175842Y0115919D02*
X0124252Y0115919D01*
X0121080Y0115919D02*
X0102742Y0115919D01*
X0102550Y0114320D02*
X0118532Y0114320D01*
X0118532Y0112722D02*
X0101733Y0112722D01*
X0098142Y0112722D02*
X0097742Y0112722D01*
X0097742Y0114320D02*
X0098142Y0114320D01*
X0098142Y0115919D02*
X0097742Y0115919D01*
X0097742Y0115869D02*
X0097742Y0120469D01*
X0097564Y0120469D01*
X0096818Y0120351D01*
X0096099Y0120118D01*
X0095426Y0119775D01*
X0094815Y0119331D01*
X0094280Y0118796D01*
X0093836Y0118185D01*
X0093493Y0117512D01*
X0093260Y0116793D01*
X0093142Y0116047D01*
X0093142Y0115869D01*
X0097742Y0115869D01*
X0097742Y0117517D02*
X0098142Y0117517D01*
X0098142Y0119116D02*
X0097742Y0119116D01*
X0096987Y0120869D02*
X0098897Y0120869D01*
X0100661Y0121600D01*
X0102011Y0122950D01*
X0102742Y0124715D01*
X0102742Y0126624D01*
X0102011Y0128388D01*
X0100661Y0129739D01*
X0098897Y0130469D01*
X0096987Y0130469D01*
X0095223Y0129739D01*
X0093872Y0128388D01*
X0093142Y0126624D01*
X0093142Y0124715D01*
X0093872Y0122950D01*
X0095223Y0121600D01*
X0096987Y0120869D01*
X0094510Y0122313D02*
X0091373Y0122313D01*
X0092011Y0122950D02*
X0092742Y0124715D01*
X0092742Y0126624D01*
X0092011Y0128388D01*
X0090661Y0129739D01*
X0088897Y0130469D01*
X0086987Y0130469D01*
X0085223Y0129739D01*
X0083872Y0128388D01*
X0083142Y0126624D01*
X0083142Y0124715D01*
X0083872Y0122950D01*
X0085223Y0121600D01*
X0086987Y0120869D01*
X0088897Y0120869D01*
X0090661Y0121600D01*
X0092011Y0122950D01*
X0092409Y0123911D02*
X0093474Y0123911D01*
X0093142Y0125510D02*
X0092742Y0125510D01*
X0092541Y0127108D02*
X0093342Y0127108D01*
X0094191Y0128707D02*
X0091692Y0128707D01*
X0089292Y0130305D02*
X0096591Y0130305D01*
X0099292Y0130305D02*
X0184252Y0130305D01*
X0184252Y0130553D02*
X0184252Y0129054D01*
X0184826Y0127668D01*
X0185886Y0126608D01*
X0187271Y0126035D01*
X0188770Y0126035D01*
X0190155Y0126608D01*
X0191215Y0127668D01*
X0191789Y0129054D01*
X0191789Y0130553D01*
X0191215Y0131938D01*
X0190155Y0132998D01*
X0188770Y0133572D01*
X0187271Y0133572D01*
X0185886Y0132998D01*
X0184826Y0131938D01*
X0184252Y0130553D01*
X0184812Y0131904D02*
X0027132Y0131904D01*
X0028846Y0130305D02*
X0046591Y0130305D01*
X0046987Y0130469D02*
X0045223Y0129739D01*
X0043872Y0128388D01*
X0043142Y0126624D01*
X0043142Y0124715D01*
X0043872Y0122950D01*
X0045223Y0121600D01*
X0046987Y0120869D01*
X0048897Y0120869D01*
X0050661Y0121600D01*
X0052011Y0122950D01*
X0052742Y0124715D01*
X0052742Y0126624D01*
X0052011Y0128388D01*
X0050661Y0129739D01*
X0048897Y0130469D01*
X0046987Y0130469D01*
X0049292Y0130305D02*
X0056591Y0130305D01*
X0056987Y0130469D02*
X0055223Y0129739D01*
X0053872Y0128388D01*
X0053142Y0126624D01*
X0053142Y0124715D01*
X0053872Y0122950D01*
X0055223Y0121600D01*
X0056987Y0120869D01*
X0058897Y0120869D01*
X0060661Y0121600D01*
X0062011Y0122950D01*
X0062742Y0124715D01*
X0062742Y0126624D01*
X0062011Y0128388D01*
X0060661Y0129739D01*
X0058897Y0130469D01*
X0056987Y0130469D01*
X0059292Y0130305D02*
X0066591Y0130305D01*
X0066987Y0130469D02*
X0065223Y0129739D01*
X0063872Y0128388D01*
X0063142Y0126624D01*
X0063142Y0124715D01*
X0063872Y0122950D01*
X0065223Y0121600D01*
X0066987Y0120869D01*
X0068897Y0120869D01*
X0070661Y0121600D01*
X0072011Y0122950D01*
X0072742Y0124715D01*
X0072742Y0126624D01*
X0072011Y0128388D01*
X0070661Y0129739D01*
X0068897Y0130469D01*
X0066987Y0130469D01*
X0069292Y0130305D02*
X0076591Y0130305D01*
X0076987Y0130469D02*
X0075223Y0129739D01*
X0073872Y0128388D01*
X0073142Y0126624D01*
X0073142Y0124715D01*
X0073872Y0122950D01*
X0075223Y0121600D01*
X0076987Y0120869D01*
X0078897Y0120869D01*
X0080661Y0121600D01*
X0082011Y0122950D01*
X0082742Y0124715D01*
X0082742Y0126624D01*
X0082011Y0128388D01*
X0080661Y0129739D01*
X0078897Y0130469D01*
X0076987Y0130469D01*
X0079292Y0130305D02*
X0086591Y0130305D01*
X0084191Y0128707D02*
X0081692Y0128707D01*
X0082541Y0127108D02*
X0083342Y0127108D01*
X0083142Y0125510D02*
X0082742Y0125510D01*
X0082409Y0123911D02*
X0083474Y0123911D01*
X0084510Y0122313D02*
X0081373Y0122313D01*
X0077742Y0120469D02*
X0077564Y0120469D01*
X0076818Y0120351D01*
X0076099Y0120118D01*
X0075426Y0119775D01*
X0074815Y0119331D01*
X0074280Y0118796D01*
X0073836Y0118185D01*
X0073493Y0117512D01*
X0073260Y0116793D01*
X0073142Y0116047D01*
X0073142Y0115869D01*
X0077742Y0115869D01*
X0077742Y0120469D01*
X0077742Y0119116D02*
X0078142Y0119116D01*
X0078142Y0117517D02*
X0077742Y0117517D01*
X0077742Y0115919D02*
X0078142Y0115919D01*
X0078142Y0114320D02*
X0077742Y0114320D01*
X0077742Y0112722D02*
X0078142Y0112722D01*
X0081733Y0112722D02*
X0084150Y0112722D01*
X0083333Y0114320D02*
X0082550Y0114320D01*
X0082742Y0115919D02*
X0083142Y0115919D01*
X0083142Y0115869D02*
X0087742Y0115869D01*
X0087742Y0120469D01*
X0087564Y0120469D01*
X0086818Y0120351D01*
X0086099Y0120118D01*
X0085426Y0119775D01*
X0084815Y0119331D01*
X0084280Y0118796D01*
X0083836Y0118185D01*
X0083493Y0117512D01*
X0083260Y0116793D01*
X0083142Y0116047D01*
X0083142Y0115869D01*
X0083496Y0117517D02*
X0082387Y0117517D01*
X0081283Y0119116D02*
X0084600Y0119116D01*
X0087742Y0119116D02*
X0088142Y0119116D01*
X0088142Y0117517D02*
X0087742Y0117517D01*
X0087742Y0115919D02*
X0088142Y0115919D01*
X0088142Y0114320D02*
X0087742Y0114320D01*
X0087742Y0112722D02*
X0088142Y0112722D01*
X0091733Y0112722D02*
X0094150Y0112722D01*
X0093333Y0114320D02*
X0092550Y0114320D01*
X0092742Y0115919D02*
X0093142Y0115919D01*
X0093496Y0117517D02*
X0092387Y0117517D01*
X0091283Y0119116D02*
X0094600Y0119116D01*
X0101283Y0119116D02*
X0190445Y0119116D01*
X0190157Y0119235D02*
X0191325Y0118751D01*
X0192590Y0118751D01*
X0193439Y0119103D01*
X0193701Y0118841D01*
X0194869Y0118357D01*
X0196133Y0118357D01*
X0197301Y0118841D01*
X0198195Y0119735D01*
X0198679Y0120903D01*
X0198679Y0121113D01*
X0198889Y0121113D01*
X0200057Y0121597D01*
X0200951Y0122491D01*
X0201435Y0123659D01*
X0201435Y0124923D01*
X0200951Y0126091D01*
X0200057Y0126985D01*
X0198889Y0127469D01*
X0197625Y0127469D01*
X0196457Y0126985D01*
X0195563Y0126091D01*
X0195079Y0124923D01*
X0195079Y0124713D01*
X0194869Y0124713D01*
X0194019Y0124362D01*
X0193758Y0124623D01*
X0192590Y0125107D01*
X0191325Y0125107D01*
X0190157Y0124623D01*
X0189263Y0123729D01*
X0188780Y0122561D01*
X0188780Y0121297D01*
X0189263Y0120129D01*
X0190157Y0119235D01*
X0189021Y0120714D02*
X0028225Y0120714D01*
X0028120Y0122313D02*
X0044510Y0122313D01*
X0043474Y0123911D02*
X0029952Y0123911D01*
X0030614Y0125510D02*
X0043142Y0125510D01*
X0043342Y0127108D02*
X0030647Y0127108D01*
X0030139Y0128707D02*
X0044191Y0128707D01*
X0051692Y0128707D02*
X0054191Y0128707D01*
X0053342Y0127108D02*
X0052541Y0127108D01*
X0052742Y0125510D02*
X0053142Y0125510D01*
X0053474Y0123911D02*
X0052409Y0123911D01*
X0051373Y0122313D02*
X0054510Y0122313D01*
X0055426Y0119775D02*
X0054815Y0119331D01*
X0054280Y0118796D01*
X0053836Y0118185D01*
X0053493Y0117512D01*
X0053260Y0116793D01*
X0053142Y0116047D01*
X0053142Y0115869D01*
X0057742Y0115869D01*
X0057742Y0120469D01*
X0057564Y0120469D01*
X0056818Y0120351D01*
X0056099Y0120118D01*
X0055426Y0119775D01*
X0054600Y0119116D02*
X0051283Y0119116D01*
X0052387Y0117517D02*
X0053496Y0117517D01*
X0053142Y0115919D02*
X0052742Y0115919D01*
X0052550Y0114320D02*
X0053333Y0114320D01*
X0054150Y0112722D02*
X0051733Y0112722D01*
X0048142Y0112722D02*
X0047742Y0112722D01*
X0047742Y0114320D02*
X0048142Y0114320D01*
X0048142Y0115919D02*
X0047742Y0115919D01*
X0047742Y0115869D02*
X0047742Y0120469D01*
X0047564Y0120469D01*
X0046818Y0120351D01*
X0046099Y0120118D01*
X0045426Y0119775D01*
X0044815Y0119331D01*
X0044280Y0118796D01*
X0043836Y0118185D01*
X0043493Y0117512D01*
X0043260Y0116793D01*
X0043142Y0116047D01*
X0043142Y0115869D01*
X0047742Y0115869D01*
X0047742Y0117517D02*
X0048142Y0117517D01*
X0048142Y0119116D02*
X0047742Y0119116D01*
X0044600Y0119116D02*
X0029970Y0119116D01*
X0030632Y0117517D02*
X0043496Y0117517D01*
X0043142Y0115919D02*
X0030647Y0115919D01*
X0030121Y0114320D02*
X0043333Y0114320D01*
X0044150Y0112722D02*
X0028802Y0112722D01*
X0013058Y0112722D02*
X0004568Y0112722D01*
X0004568Y0114320D02*
X0011689Y0114320D01*
X0011180Y0115919D02*
X0004568Y0115919D01*
X0004568Y0117517D02*
X0011238Y0117517D01*
X0011894Y0119116D02*
X0004568Y0119116D01*
X0004568Y0120714D02*
X0013627Y0120714D01*
X0013713Y0122313D02*
X0004568Y0122313D01*
X0004568Y0123911D02*
X0011926Y0123911D01*
X0011245Y0125510D02*
X0004568Y0125510D01*
X0004568Y0127108D02*
X0011173Y0127108D01*
X0011667Y0128707D02*
X0004568Y0128707D01*
X0004568Y0130305D02*
X0012997Y0130305D01*
X0014769Y0131904D02*
X0004568Y0131904D01*
X0004568Y0133502D02*
X0012223Y0133502D01*
X0011363Y0135101D02*
X0004568Y0135101D01*
X0004568Y0136699D02*
X0015710Y0136699D01*
X0016079Y0136699D02*
X0021142Y0136699D01*
X0020647Y0136720D02*
X0020647Y0136909D01*
X0020530Y0137648D01*
X0020299Y0138360D01*
X0019959Y0139026D01*
X0019520Y0139632D01*
X0018991Y0140161D01*
X0018385Y0140600D01*
X0017719Y0140940D01*
X0017007Y0141171D01*
X0016269Y0141288D01*
X0016079Y0141288D01*
X0016079Y0136720D01*
X0020647Y0136720D01*
X0020319Y0138298D02*
X0021480Y0138298D01*
X0022534Y0139896D02*
X0019255Y0139896D01*
X0017719Y0142131D02*
X0018385Y0142471D01*
X0018991Y0142910D01*
X0019520Y0143439D01*
X0019959Y0144044D01*
X0020299Y0144711D01*
X0020530Y0145422D01*
X0020647Y0146161D01*
X0020647Y0146351D01*
X0016079Y0146351D01*
X0016079Y0146720D01*
X0015710Y0146720D01*
X0015710Y0151288D01*
X0015520Y0151288D01*
X0014782Y0151171D01*
X0014070Y0150940D01*
X0013403Y0150600D01*
X0012798Y0150161D01*
X0012269Y0149632D01*
X0011830Y0149026D01*
X0011490Y0148360D01*
X0011259Y0147648D01*
X0011142Y0146909D01*
X0011142Y0146720D01*
X0015710Y0146720D01*
X0015710Y0146351D01*
X0011142Y0146351D01*
X0011142Y0146161D01*
X0011259Y0145422D01*
X0011490Y0144711D01*
X0011830Y0144044D01*
X0012269Y0143439D01*
X0012798Y0142910D01*
X0013403Y0142471D01*
X0014070Y0142131D01*
X0014782Y0141900D01*
X0015520Y0141783D01*
X0015710Y0141783D01*
X0015710Y0146351D01*
X0016079Y0146351D01*
X0016079Y0141783D01*
X0016269Y0141783D01*
X0017007Y0141900D01*
X0017719Y0142131D01*
X0019174Y0143093D02*
X0022615Y0143093D01*
X0023202Y0142506D02*
X0024949Y0141783D01*
X0026840Y0141783D01*
X0028587Y0142506D01*
X0029924Y0143843D01*
X0030647Y0145590D01*
X0030647Y0147481D01*
X0029924Y0149228D01*
X0028587Y0150565D01*
X0026840Y0151288D01*
X0024949Y0151288D01*
X0023202Y0150565D01*
X0021865Y0149228D01*
X0021142Y0147481D01*
X0021142Y0145590D01*
X0021865Y0143843D01*
X0023202Y0142506D01*
X0021514Y0144692D02*
X0020289Y0144692D01*
X0020647Y0146290D02*
X0021142Y0146290D01*
X0020647Y0146720D02*
X0016079Y0146720D01*
X0016079Y0151288D01*
X0016269Y0151288D01*
X0017007Y0151171D01*
X0017719Y0150940D01*
X0018385Y0150600D01*
X0018991Y0150161D01*
X0019520Y0149632D01*
X0019959Y0149026D01*
X0020299Y0148360D01*
X0020530Y0147648D01*
X0020647Y0146909D01*
X0020647Y0146720D01*
X0020452Y0147889D02*
X0021311Y0147889D01*
X0022125Y0149487D02*
X0019624Y0149487D01*
X0017270Y0151086D02*
X0024461Y0151086D01*
X0024949Y0151783D02*
X0026840Y0151783D01*
X0028587Y0152506D01*
X0029924Y0153843D01*
X0030647Y0155590D01*
X0030647Y0157481D01*
X0029924Y0159228D01*
X0028587Y0160565D01*
X0026840Y0161288D01*
X0024949Y0161288D01*
X0023202Y0160565D01*
X0021865Y0159228D01*
X0021142Y0157481D01*
X0021142Y0155590D01*
X0021865Y0153843D01*
X0023202Y0152506D01*
X0024949Y0151783D01*
X0023024Y0152684D02*
X0018680Y0152684D01*
X0018385Y0152471D02*
X0018991Y0152910D01*
X0019520Y0153439D01*
X0019959Y0154044D01*
X0020299Y0154711D01*
X0020530Y0155422D01*
X0020647Y0156161D01*
X0020647Y0156351D01*
X0016079Y0156351D01*
X0016079Y0156720D01*
X0015710Y0156720D01*
X0015710Y0161288D01*
X0015520Y0161288D01*
X0014782Y0161171D01*
X0014070Y0160940D01*
X0013403Y0160600D01*
X0012798Y0160161D01*
X0012269Y0159632D01*
X0011830Y0159026D01*
X0011490Y0158360D01*
X0011259Y0157648D01*
X0011142Y0156909D01*
X0011142Y0156720D01*
X0015710Y0156720D01*
X0015710Y0156351D01*
X0011142Y0156351D01*
X0011142Y0156161D01*
X0011259Y0155422D01*
X0011490Y0154711D01*
X0011830Y0154044D01*
X0012269Y0153439D01*
X0012798Y0152910D01*
X0013403Y0152471D01*
X0014070Y0152131D01*
X0014782Y0151900D01*
X0015520Y0151783D01*
X0015710Y0151783D01*
X0015710Y0156351D01*
X0016079Y0156351D01*
X0016079Y0151783D01*
X0016269Y0151783D01*
X0017007Y0151900D01*
X0017719Y0152131D01*
X0018385Y0152471D01*
X0016079Y0152684D02*
X0015710Y0152684D01*
X0015710Y0151086D02*
X0016079Y0151086D01*
X0014519Y0151086D02*
X0004568Y0151086D01*
X0004568Y0152684D02*
X0013109Y0152684D01*
X0011708Y0154283D02*
X0004568Y0154283D01*
X0004568Y0155882D02*
X0011186Y0155882D01*
X0011232Y0157480D02*
X0004568Y0157480D01*
X0004568Y0159079D02*
X0011867Y0159079D01*
X0013554Y0160677D02*
X0004568Y0160677D01*
X0004568Y0162276D02*
X0013786Y0162276D01*
X0014070Y0162131D02*
X0013403Y0162471D01*
X0012798Y0162910D01*
X0012269Y0163439D01*
X0011830Y0164044D01*
X0011490Y0164711D01*
X0011259Y0165422D01*
X0011142Y0166161D01*
X0011142Y0166351D01*
X0015710Y0166351D01*
X0015710Y0166720D01*
X0015710Y0171288D01*
X0015520Y0171288D01*
X0014782Y0171171D01*
X0014070Y0170940D01*
X0013403Y0170600D01*
X0012798Y0170161D01*
X0012269Y0169632D01*
X0011830Y0169026D01*
X0011490Y0168360D01*
X0011259Y0167648D01*
X0011142Y0166909D01*
X0011142Y0166720D01*
X0015710Y0166720D01*
X0016079Y0166720D01*
X0016079Y0171288D01*
X0016269Y0171288D01*
X0017007Y0171171D01*
X0017719Y0170940D01*
X0018385Y0170600D01*
X0018991Y0170161D01*
X0019520Y0169632D01*
X0019959Y0169026D01*
X0020299Y0168360D01*
X0020530Y0167648D01*
X0020647Y0166909D01*
X0020647Y0166720D01*
X0016079Y0166720D01*
X0016079Y0166351D01*
X0020647Y0166351D01*
X0020647Y0166161D01*
X0020530Y0165422D01*
X0020299Y0164711D01*
X0019959Y0164044D01*
X0019520Y0163439D01*
X0018991Y0162910D01*
X0018385Y0162471D01*
X0017719Y0162131D01*
X0017007Y0161900D01*
X0016269Y0161783D01*
X0016079Y0161783D01*
X0016079Y0166351D01*
X0015710Y0166351D01*
X0015710Y0161783D01*
X0015520Y0161783D01*
X0014782Y0161900D01*
X0014070Y0162131D01*
X0015710Y0162276D02*
X0016079Y0162276D01*
X0016079Y0161288D02*
X0016079Y0156720D01*
X0020647Y0156720D01*
X0020647Y0156909D01*
X0020530Y0157648D01*
X0020299Y0158360D01*
X0019959Y0159026D01*
X0019520Y0159632D01*
X0018991Y0160161D01*
X0018385Y0160600D01*
X0017719Y0160940D01*
X0017007Y0161171D01*
X0016269Y0161288D01*
X0016079Y0161288D01*
X0016079Y0160677D02*
X0015710Y0160677D01*
X0015710Y0159079D02*
X0016079Y0159079D01*
X0016079Y0157480D02*
X0015710Y0157480D01*
X0015710Y0155882D02*
X0016079Y0155882D01*
X0016079Y0154283D02*
X0015710Y0154283D01*
X0020081Y0154283D02*
X0021683Y0154283D01*
X0021142Y0155882D02*
X0020603Y0155882D01*
X0020557Y0157480D02*
X0021142Y0157480D01*
X0021804Y0159079D02*
X0019922Y0159079D01*
X0018235Y0160677D02*
X0023474Y0160677D01*
X0023759Y0162276D02*
X0018003Y0162276D01*
X0019836Y0163874D02*
X0021853Y0163874D01*
X0021865Y0163843D02*
X0023202Y0162506D01*
X0024949Y0161783D01*
X0026840Y0161783D01*
X0028587Y0162506D01*
X0029924Y0163843D01*
X0030647Y0165590D01*
X0030647Y0167481D01*
X0029924Y0169228D01*
X0028587Y0170565D01*
X0026840Y0171288D01*
X0024949Y0171288D01*
X0023202Y0170565D01*
X0021865Y0169228D01*
X0021142Y0167481D01*
X0021142Y0165590D01*
X0021865Y0163843D01*
X0021190Y0165473D02*
X0020538Y0165473D01*
X0020622Y0167071D02*
X0021142Y0167071D01*
X0021634Y0168670D02*
X0020141Y0168670D01*
X0018843Y0170268D02*
X0022906Y0170268D01*
X0023202Y0172506D02*
X0024949Y0171783D01*
X0026840Y0171783D01*
X0028587Y0172506D01*
X0029924Y0173843D01*
X0030647Y0175590D01*
X0030647Y0177481D01*
X0029924Y0179228D01*
X0028587Y0180565D01*
X0026840Y0181288D01*
X0024949Y0181288D01*
X0023202Y0180565D01*
X0021865Y0179228D01*
X0021142Y0177481D01*
X0021142Y0175590D01*
X0021865Y0173843D01*
X0023202Y0172506D01*
X0022243Y0173465D02*
X0019538Y0173465D01*
X0019520Y0173439D02*
X0019959Y0174044D01*
X0020299Y0174711D01*
X0020530Y0175422D01*
X0020647Y0176161D01*
X0020647Y0176351D01*
X0016079Y0176351D01*
X0016079Y0176720D01*
X0015710Y0176720D01*
X0015710Y0181288D01*
X0015520Y0181288D01*
X0014782Y0181171D01*
X0014070Y0180940D01*
X0013403Y0180600D01*
X0012798Y0180161D01*
X0012269Y0179632D01*
X0011830Y0179026D01*
X0011490Y0178360D01*
X0011259Y0177648D01*
X0011142Y0176909D01*
X0011142Y0176720D01*
X0015710Y0176720D01*
X0015710Y0176351D01*
X0011142Y0176351D01*
X0011142Y0176161D01*
X0011259Y0175422D01*
X0011490Y0174711D01*
X0011830Y0174044D01*
X0012269Y0173439D01*
X0012798Y0172910D01*
X0013403Y0172471D01*
X0014070Y0172131D01*
X0014782Y0171900D01*
X0015520Y0171783D01*
X0015710Y0171783D01*
X0015710Y0176351D01*
X0016079Y0176351D01*
X0016079Y0171783D01*
X0016269Y0171783D01*
X0017007Y0171900D01*
X0017719Y0172131D01*
X0018385Y0172471D01*
X0018991Y0172910D01*
X0019520Y0173439D01*
X0020414Y0175064D02*
X0021360Y0175064D01*
X0021142Y0176662D02*
X0016079Y0176662D01*
X0016079Y0176720D02*
X0020647Y0176720D01*
X0020647Y0176909D01*
X0020530Y0177648D01*
X0020299Y0178360D01*
X0019959Y0179026D01*
X0019520Y0179632D01*
X0018991Y0180161D01*
X0018385Y0180600D01*
X0017719Y0180940D01*
X0017007Y0181171D01*
X0016269Y0181288D01*
X0016079Y0181288D01*
X0016079Y0176720D01*
X0015710Y0176662D02*
X0004568Y0176662D01*
X0004568Y0175064D02*
X0011375Y0175064D01*
X0012250Y0173465D02*
X0004568Y0173465D01*
X0004568Y0171867D02*
X0014990Y0171867D01*
X0015710Y0171867D02*
X0016079Y0171867D01*
X0016799Y0171867D02*
X0024746Y0171867D01*
X0027043Y0171867D02*
X0044956Y0171867D01*
X0045223Y0171600D02*
X0046987Y0170869D01*
X0048897Y0170869D01*
X0050661Y0171600D01*
X0052011Y0172950D01*
X0052742Y0174715D01*
X0052742Y0176624D01*
X0052011Y0178388D01*
X0050661Y0179739D01*
X0048897Y0180469D01*
X0046987Y0180469D01*
X0045223Y0179739D01*
X0043872Y0178388D01*
X0043142Y0176624D01*
X0043142Y0174715D01*
X0043872Y0172950D01*
X0045223Y0171600D01*
X0043659Y0173465D02*
X0029546Y0173465D01*
X0030429Y0175064D02*
X0043142Y0175064D01*
X0043158Y0176662D02*
X0030647Y0176662D01*
X0030324Y0178261D02*
X0043820Y0178261D01*
X0045514Y0179859D02*
X0029292Y0179859D01*
X0022497Y0179859D02*
X0019292Y0179859D01*
X0020331Y0178261D02*
X0021465Y0178261D01*
X0016079Y0178261D02*
X0015710Y0178261D01*
X0015710Y0179859D02*
X0016079Y0179859D01*
X0012497Y0179859D02*
X0004568Y0179859D01*
X0004568Y0178261D02*
X0011458Y0178261D01*
X0015710Y0175064D02*
X0016079Y0175064D01*
X0016079Y0173465D02*
X0015710Y0173465D01*
X0015710Y0170268D02*
X0016079Y0170268D01*
X0016079Y0168670D02*
X0015710Y0168670D01*
X0015710Y0167071D02*
X0016079Y0167071D01*
X0016079Y0165473D02*
X0015710Y0165473D01*
X0015710Y0163874D02*
X0016079Y0163874D01*
X0011953Y0163874D02*
X0004568Y0163874D01*
X0004568Y0165473D02*
X0011251Y0165473D01*
X0011167Y0167071D02*
X0004568Y0167071D01*
X0004568Y0168670D02*
X0011648Y0168670D01*
X0012946Y0170268D02*
X0004568Y0170268D01*
X0004568Y0181458D02*
X0045566Y0181458D01*
X0045223Y0181600D02*
X0046987Y0180869D01*
X0048897Y0180869D01*
X0050661Y0181600D01*
X0052011Y0182950D01*
X0052742Y0184715D01*
X0052742Y0186624D01*
X0052011Y0188388D01*
X0050661Y0189739D01*
X0049593Y0190181D01*
X0050467Y0191054D01*
X0051041Y0192439D01*
X0051041Y0193939D01*
X0050467Y0195324D01*
X0049407Y0196384D01*
X0048022Y0196957D01*
X0046523Y0196957D01*
X0045138Y0196384D01*
X0044078Y0195324D01*
X0043504Y0193939D01*
X0043504Y0192439D01*
X0044078Y0191054D01*
X0045138Y0189994D01*
X0045489Y0189849D01*
X0045223Y0189739D01*
X0043872Y0188388D01*
X0043142Y0186624D01*
X0043142Y0184715D01*
X0043872Y0182950D01*
X0045223Y0181600D01*
X0043829Y0183056D02*
X0004568Y0183056D01*
X0004568Y0184655D02*
X0043166Y0184655D01*
X0043142Y0186253D02*
X0004568Y0186253D01*
X0004568Y0187852D02*
X0043650Y0187852D01*
X0044934Y0189450D02*
X0004568Y0189450D01*
X0004568Y0191049D02*
X0044083Y0191049D01*
X0043504Y0192647D02*
X0004568Y0192647D01*
X0004568Y0194246D02*
X0043631Y0194246D01*
X0044598Y0195844D02*
X0004568Y0195844D01*
X0004568Y0197443D02*
X0079311Y0197443D01*
X0079511Y0196960D02*
X0080571Y0195900D01*
X0081956Y0195326D01*
X0083455Y0195326D01*
X0084840Y0195900D01*
X0085900Y0196960D01*
X0086474Y0198345D01*
X0086474Y0199844D01*
X0085900Y0201229D01*
X0084840Y0202289D01*
X0083455Y0202863D01*
X0081956Y0202863D01*
X0080571Y0202289D01*
X0079511Y0201229D01*
X0078937Y0199844D01*
X0078937Y0198345D01*
X0079511Y0196960D01*
X0080705Y0195844D02*
X0049947Y0195844D01*
X0050914Y0194246D02*
X0104094Y0194246D01*
X0104094Y0194252D02*
X0104094Y0192362D01*
X0104818Y0190615D01*
X0106155Y0189278D01*
X0107902Y0188554D01*
X0109793Y0188554D01*
X0111539Y0189278D01*
X0112876Y0190615D01*
X0113600Y0192362D01*
X0113600Y0194252D01*
X0112876Y0195999D01*
X0111539Y0197336D01*
X0109793Y0198060D01*
X0107902Y0198060D01*
X0106155Y0197336D01*
X0104818Y0195999D01*
X0104094Y0194252D01*
X0104094Y0192647D02*
X0051041Y0192647D01*
X0050462Y0191049D02*
X0104638Y0191049D01*
X0105983Y0189450D02*
X0090949Y0189450D01*
X0090661Y0189739D02*
X0088897Y0190469D01*
X0086987Y0190469D01*
X0085223Y0189739D01*
X0083872Y0188388D01*
X0083142Y0186624D01*
X0083142Y0184715D01*
X0083872Y0182950D01*
X0085223Y0181600D01*
X0086987Y0180869D01*
X0088897Y0180869D01*
X0090661Y0181600D01*
X0092011Y0182950D01*
X0092742Y0184715D01*
X0092742Y0186624D01*
X0092011Y0188388D01*
X0090661Y0189739D01*
X0092233Y0187852D02*
X0107399Y0187852D01*
X0107902Y0188060D02*
X0106155Y0187336D01*
X0104818Y0185999D01*
X0104094Y0184252D01*
X0104094Y0182362D01*
X0104818Y0180615D01*
X0106155Y0179278D01*
X0107902Y0178554D01*
X0109793Y0178554D01*
X0111539Y0179278D01*
X0112876Y0180615D01*
X0113600Y0182362D01*
X0113600Y0184252D01*
X0112876Y0185999D01*
X0111539Y0187336D01*
X0109793Y0188060D01*
X0107902Y0188060D01*
X0110295Y0187852D02*
X0117399Y0187852D01*
X0117902Y0188060D02*
X0116155Y0187336D01*
X0114818Y0185999D01*
X0114094Y0184252D01*
X0114094Y0182362D01*
X0114818Y0180615D01*
X0116155Y0179278D01*
X0117902Y0178554D01*
X0119793Y0178554D01*
X0121539Y0179278D01*
X0122876Y0180615D01*
X0123600Y0182362D01*
X0123600Y0184252D01*
X0122876Y0185999D01*
X0121539Y0187336D01*
X0119793Y0188060D01*
X0117902Y0188060D01*
X0117902Y0188554D02*
X0119793Y0188554D01*
X0121539Y0189278D01*
X0122876Y0190615D01*
X0123600Y0192362D01*
X0123600Y0194252D01*
X0122876Y0195999D01*
X0121539Y0197336D01*
X0119793Y0198060D01*
X0117902Y0198060D01*
X0116155Y0197336D01*
X0114818Y0195999D01*
X0114094Y0194252D01*
X0114094Y0192362D01*
X0114818Y0190615D01*
X0116155Y0189278D01*
X0117902Y0188554D01*
X0115983Y0189450D02*
X0111712Y0189450D01*
X0113056Y0191049D02*
X0114638Y0191049D01*
X0114094Y0192647D02*
X0113600Y0192647D01*
X0113600Y0194246D02*
X0114094Y0194246D01*
X0114754Y0195844D02*
X0112941Y0195844D01*
X0111282Y0197443D02*
X0116412Y0197443D01*
X0116726Y0199041D02*
X0110968Y0199041D01*
X0111539Y0199278D02*
X0112876Y0200615D01*
X0113600Y0202362D01*
X0113600Y0204252D01*
X0112876Y0205999D01*
X0111539Y0207336D01*
X0109793Y0208060D01*
X0107902Y0208060D01*
X0106155Y0207336D01*
X0104818Y0205999D01*
X0104094Y0204252D01*
X0104094Y0202362D01*
X0104818Y0200615D01*
X0106155Y0199278D01*
X0107902Y0198554D01*
X0109793Y0198554D01*
X0111539Y0199278D01*
X0112887Y0200640D02*
X0114808Y0200640D01*
X0114818Y0200615D02*
X0116155Y0199278D01*
X0117902Y0198554D01*
X0119793Y0198554D01*
X0121539Y0199278D01*
X0122876Y0200615D01*
X0123600Y0202362D01*
X0123600Y0204252D01*
X0122876Y0205999D01*
X0121539Y0207336D01*
X0119793Y0208060D01*
X0117902Y0208060D01*
X0116155Y0207336D01*
X0114818Y0205999D01*
X0114094Y0204252D01*
X0114094Y0202362D01*
X0114818Y0200615D01*
X0114146Y0202238D02*
X0113549Y0202238D01*
X0113600Y0203837D02*
X0114094Y0203837D01*
X0114584Y0205435D02*
X0113110Y0205435D01*
X0111842Y0207034D02*
X0115853Y0207034D01*
X0116155Y0209278D02*
X0117902Y0208554D01*
X0119793Y0208554D01*
X0121539Y0209278D01*
X0122876Y0210615D01*
X0123600Y0212362D01*
X0123600Y0214252D01*
X0122876Y0215999D01*
X0121539Y0217336D01*
X0119793Y0218060D01*
X0117902Y0218060D01*
X0116155Y0217336D01*
X0114818Y0215999D01*
X0114094Y0214252D01*
X0114094Y0212362D01*
X0114818Y0210615D01*
X0116155Y0209278D01*
X0115202Y0210231D02*
X0112492Y0210231D01*
X0112876Y0210615D02*
X0113600Y0212362D01*
X0113600Y0214252D01*
X0112876Y0215999D01*
X0111539Y0217336D01*
X0109793Y0218060D01*
X0107902Y0218060D01*
X0106155Y0217336D01*
X0104818Y0215999D01*
X0104094Y0214252D01*
X0104094Y0212362D01*
X0104818Y0210615D01*
X0106155Y0209278D01*
X0107902Y0208554D01*
X0109793Y0208554D01*
X0111539Y0209278D01*
X0112876Y0210615D01*
X0113380Y0211829D02*
X0114315Y0211829D01*
X0114094Y0213428D02*
X0113600Y0213428D01*
X0113279Y0215026D02*
X0114415Y0215026D01*
X0115444Y0216625D02*
X0112251Y0216625D01*
X0110672Y0218903D02*
X0111338Y0219242D01*
X0111943Y0219682D01*
X0112472Y0220211D01*
X0112912Y0220816D01*
X0113252Y0221483D01*
X0113483Y0222194D01*
X0113600Y0222933D01*
X0113600Y0223123D01*
X0109032Y0223123D01*
X0109032Y0223491D01*
X0113600Y0223491D01*
X0113600Y0223681D01*
X0113483Y0224420D01*
X0113252Y0225132D01*
X0112912Y0225798D01*
X0112472Y0226403D01*
X0111943Y0226932D01*
X0111338Y0227372D01*
X0110672Y0227712D01*
X0109960Y0227943D01*
X0109221Y0228060D01*
X0109031Y0228060D01*
X0109031Y0223491D01*
X0108663Y0223491D01*
X0108663Y0223123D01*
X0104094Y0223123D01*
X0104094Y0222933D01*
X0104212Y0222194D01*
X0104443Y0221483D01*
X0104782Y0220816D01*
X0105222Y0220211D01*
X0105751Y0219682D01*
X0106356Y0219242D01*
X0107023Y0218903D01*
X0107734Y0218671D01*
X0108473Y0218554D01*
X0108663Y0218554D01*
X0108663Y0223123D01*
X0109031Y0223123D01*
X0109031Y0218554D01*
X0109221Y0218554D01*
X0109960Y0218671D01*
X0110672Y0218903D01*
X0112084Y0219822D02*
X0115611Y0219822D01*
X0116155Y0219278D02*
X0117902Y0218554D01*
X0119793Y0218554D01*
X0121539Y0219278D01*
X0122876Y0220615D01*
X0123600Y0222362D01*
X0123600Y0224252D01*
X0122876Y0225999D01*
X0121539Y0227336D01*
X0119793Y0228060D01*
X0117902Y0228060D01*
X0116155Y0227336D01*
X0114818Y0225999D01*
X0114094Y0224252D01*
X0114094Y0222362D01*
X0114818Y0220615D01*
X0116155Y0219278D01*
X0114484Y0221420D02*
X0113220Y0221420D01*
X0113600Y0223019D02*
X0114094Y0223019D01*
X0114246Y0224617D02*
X0113419Y0224617D01*
X0112609Y0226216D02*
X0115035Y0226216D01*
X0117310Y0227815D02*
X0110355Y0227815D01*
X0109031Y0227815D02*
X0108663Y0227815D01*
X0108663Y0228060D02*
X0108473Y0228060D01*
X0107734Y0227943D01*
X0107023Y0227712D01*
X0106356Y0227372D01*
X0105751Y0226932D01*
X0105222Y0226403D01*
X0104782Y0225798D01*
X0104443Y0225132D01*
X0104212Y0224420D01*
X0104094Y0223681D01*
X0104094Y0223491D01*
X0108663Y0223491D01*
X0108663Y0228060D01*
X0107339Y0227815D02*
X0044713Y0227815D01*
X0044713Y0229413D02*
X0156922Y0229413D01*
X0156838Y0229101D02*
X0156725Y0228241D01*
X0164386Y0228241D01*
X0164386Y0235902D01*
X0163525Y0235789D01*
X0162450Y0235500D01*
X0161421Y0235074D01*
X0160457Y0234518D01*
X0159574Y0233840D01*
X0158787Y0233053D01*
X0158109Y0232169D01*
X0157552Y0231205D01*
X0157126Y0230177D01*
X0156838Y0229101D01*
X0157472Y0231012D02*
X0044713Y0231012D01*
X0044713Y0232610D02*
X0158447Y0232610D01*
X0160054Y0234209D02*
X0152581Y0234209D01*
X0152363Y0233991D02*
X0154305Y0235933D01*
X0155356Y0238470D01*
X0155356Y0241215D01*
X0154305Y0243752D01*
X0152363Y0245694D01*
X0149827Y0246745D01*
X0147081Y0246745D01*
X0144544Y0245694D01*
X0142602Y0243752D01*
X0141551Y0241215D01*
X0141551Y0238470D01*
X0142602Y0235933D01*
X0144544Y0233991D01*
X0147081Y0232940D01*
X0149827Y0232940D01*
X0152363Y0233991D01*
X0154180Y0235807D02*
X0163666Y0235807D01*
X0164386Y0235807D02*
X0165986Y0235807D01*
X0165986Y0235902D02*
X0165986Y0228241D01*
X0173647Y0228241D01*
X0173533Y0229101D01*
X0173245Y0230177D01*
X0172819Y0231205D01*
X0172263Y0232169D01*
X0171585Y0233053D01*
X0170798Y0233840D01*
X0169914Y0234518D01*
X0168950Y0235074D01*
X0167922Y0235500D01*
X0166846Y0235789D01*
X0165986Y0235902D01*
X0166705Y0235807D02*
X0176192Y0235807D01*
X0176067Y0235933D02*
X0178008Y0233991D01*
X0180545Y0232940D01*
X0183291Y0232940D01*
X0185828Y0233991D01*
X0187770Y0235933D01*
X0188820Y0238470D01*
X0188820Y0241215D01*
X0187770Y0243752D01*
X0185828Y0245694D01*
X0183291Y0246745D01*
X0180545Y0246745D01*
X0178008Y0245694D01*
X0176067Y0243752D01*
X0175016Y0241215D01*
X0175016Y0238470D01*
X0176067Y0235933D01*
X0175456Y0237406D02*
X0154915Y0237406D01*
X0155356Y0239004D02*
X0175016Y0239004D01*
X0175016Y0240603D02*
X0155356Y0240603D01*
X0154948Y0242201D02*
X0175424Y0242201D01*
X0176114Y0243800D02*
X0154258Y0243800D01*
X0152659Y0245398D02*
X0177712Y0245398D01*
X0186124Y0245398D02*
X0205271Y0245398D01*
X0205567Y0245694D02*
X0203626Y0243752D01*
X0202575Y0241215D01*
X0202575Y0238470D01*
X0203626Y0235933D01*
X0205567Y0233991D01*
X0208104Y0232940D01*
X0210850Y0232940D01*
X0213387Y0233991D01*
X0215329Y0235933D01*
X0216380Y0238470D01*
X0216380Y0241215D01*
X0215329Y0243752D01*
X0213387Y0245694D01*
X0210850Y0246745D01*
X0208104Y0246745D01*
X0205567Y0245694D01*
X0203673Y0243800D02*
X0187722Y0243800D01*
X0188412Y0242201D02*
X0202983Y0242201D01*
X0202575Y0240603D02*
X0188820Y0240603D01*
X0188820Y0239004D02*
X0202575Y0239004D01*
X0203016Y0237406D02*
X0188380Y0237406D01*
X0187644Y0235807D02*
X0203751Y0235807D01*
X0205350Y0234209D02*
X0186046Y0234209D01*
X0177791Y0234209D02*
X0170317Y0234209D01*
X0171925Y0232610D02*
X0219471Y0232610D01*
X0219133Y0232169D02*
X0218576Y0231205D01*
X0218150Y0230177D01*
X0217862Y0229101D01*
X0217749Y0228241D01*
X0225409Y0228241D01*
X0225409Y0226641D01*
X0217749Y0226641D01*
X0217862Y0225780D01*
X0218150Y0224705D01*
X0218576Y0223677D01*
X0219133Y0222712D01*
X0219810Y0221829D01*
X0220598Y0221042D01*
X0221481Y0220364D01*
X0222445Y0219808D01*
X0223474Y0219381D01*
X0224549Y0219093D01*
X0225409Y0218980D01*
X0225409Y0226641D01*
X0227009Y0226641D01*
X0227009Y0218980D01*
X0227870Y0219093D01*
X0228945Y0219381D01*
X0229974Y0219808D01*
X0230938Y0220364D01*
X0231821Y0221042D01*
X0232608Y0221829D01*
X0233286Y0222712D01*
X0233843Y0223677D01*
X0234269Y0224705D01*
X0234557Y0225780D01*
X0234670Y0226641D01*
X0227009Y0226641D01*
X0227009Y0228241D01*
X0225409Y0228241D01*
X0225409Y0235902D01*
X0224549Y0235789D01*
X0223474Y0235500D01*
X0222445Y0235074D01*
X0221481Y0234518D01*
X0220598Y0233840D01*
X0219810Y0233053D01*
X0219133Y0232169D01*
X0218496Y0231012D02*
X0172899Y0231012D01*
X0173450Y0229413D02*
X0217945Y0229413D01*
X0217805Y0226216D02*
X0173591Y0226216D01*
X0173647Y0226641D02*
X0165986Y0226641D01*
X0165986Y0228241D01*
X0164386Y0228241D01*
X0164386Y0226641D01*
X0165986Y0226641D01*
X0165986Y0218980D01*
X0166846Y0219093D01*
X0167922Y0219381D01*
X0168950Y0219808D01*
X0169914Y0220364D01*
X0170798Y0221042D01*
X0171585Y0221829D01*
X0172263Y0222712D01*
X0172819Y0223677D01*
X0173245Y0224705D01*
X0173533Y0225780D01*
X0173647Y0226641D01*
X0173209Y0224617D02*
X0218186Y0224617D01*
X0218956Y0223019D02*
X0172440Y0223019D01*
X0171176Y0221420D02*
X0220219Y0221420D01*
X0222420Y0219822D02*
X0168975Y0219822D01*
X0166797Y0217824D02*
X0169774Y0216591D01*
X0172052Y0214312D01*
X0173285Y0211335D01*
X0173285Y0208113D01*
X0172052Y0205137D01*
X0169774Y0202858D01*
X0166797Y0201625D01*
X0163575Y0201625D01*
X0160598Y0202858D01*
X0158320Y0205137D01*
X0157087Y0208113D01*
X0157087Y0211335D01*
X0158320Y0214312D01*
X0160598Y0216591D01*
X0163575Y0217824D01*
X0166797Y0217824D01*
X0165986Y0219822D02*
X0164386Y0219822D01*
X0164386Y0218980D02*
X0164386Y0226641D01*
X0156725Y0226641D01*
X0156838Y0225780D01*
X0157126Y0224705D01*
X0157552Y0223677D01*
X0158109Y0222712D01*
X0158787Y0221829D01*
X0159574Y0221042D01*
X0160457Y0220364D01*
X0161421Y0219808D01*
X0162450Y0219381D01*
X0163525Y0219093D01*
X0164386Y0218980D01*
X0164386Y0221420D02*
X0165986Y0221420D01*
X0165986Y0223019D02*
X0164386Y0223019D01*
X0164386Y0224617D02*
X0165986Y0224617D01*
X0165986Y0226216D02*
X0164386Y0226216D01*
X0164386Y0227815D02*
X0120385Y0227815D01*
X0122660Y0226216D02*
X0156781Y0226216D01*
X0157163Y0224617D02*
X0123449Y0224617D01*
X0123600Y0223019D02*
X0157932Y0223019D01*
X0159195Y0221420D02*
X0123210Y0221420D01*
X0122084Y0219822D02*
X0161396Y0219822D01*
X0160681Y0216625D02*
X0122251Y0216625D01*
X0123279Y0215026D02*
X0159034Y0215026D01*
X0157953Y0213428D02*
X0123600Y0213428D01*
X0123380Y0211829D02*
X0157291Y0211829D01*
X0157087Y0210231D02*
X0122492Y0210231D01*
X0119981Y0208632D02*
X0157087Y0208632D01*
X0157534Y0207034D02*
X0121842Y0207034D01*
X0123110Y0205435D02*
X0158196Y0205435D01*
X0159619Y0203837D02*
X0123600Y0203837D01*
X0123549Y0202238D02*
X0162095Y0202238D01*
X0168277Y0202238D02*
X0223118Y0202238D01*
X0224598Y0201625D02*
X0221622Y0202858D01*
X0219343Y0205137D01*
X0218110Y0208113D01*
X0218110Y0211335D01*
X0219343Y0214312D01*
X0221622Y0216591D01*
X0224598Y0217824D01*
X0227820Y0217824D01*
X0230797Y0216591D01*
X0233076Y0214312D01*
X0234309Y0211335D01*
X0234309Y0208113D01*
X0233076Y0205137D01*
X0230797Y0202858D01*
X0227820Y0201625D01*
X0224598Y0201625D01*
X0220643Y0203837D02*
X0170752Y0203837D01*
X0172176Y0205435D02*
X0219220Y0205435D01*
X0218557Y0207034D02*
X0172838Y0207034D01*
X0173285Y0208632D02*
X0218110Y0208632D01*
X0218110Y0210231D02*
X0173285Y0210231D01*
X0173080Y0211829D02*
X0218315Y0211829D01*
X0218977Y0213428D02*
X0172418Y0213428D01*
X0171338Y0215026D02*
X0220057Y0215026D01*
X0221705Y0216625D02*
X0169691Y0216625D01*
X0165986Y0227815D02*
X0225409Y0227815D01*
X0225409Y0229413D02*
X0227009Y0229413D01*
X0227009Y0228241D02*
X0227009Y0235902D01*
X0227870Y0235789D01*
X0228945Y0235500D01*
X0229974Y0235074D01*
X0230938Y0234518D01*
X0231821Y0233840D01*
X0232608Y0233053D01*
X0233286Y0232169D01*
X0233843Y0231205D01*
X0234269Y0230177D01*
X0234557Y0229101D01*
X0234670Y0228241D01*
X0227009Y0228241D01*
X0227009Y0227815D02*
X0286433Y0227815D01*
X0286433Y0228241D02*
X0286433Y0226641D01*
X0278772Y0226641D01*
X0278885Y0225780D01*
X0279174Y0224705D01*
X0279600Y0223677D01*
X0280156Y0222712D01*
X0280834Y0221829D01*
X0281621Y0221042D01*
X0282505Y0220364D01*
X0283469Y0219808D01*
X0284497Y0219381D01*
X0285573Y0219093D01*
X0286433Y0218980D01*
X0286433Y0226641D01*
X0288033Y0226641D01*
X0288033Y0218980D01*
X0288894Y0219093D01*
X0289969Y0219381D01*
X0290997Y0219808D01*
X0291962Y0220364D01*
X0292845Y0221042D01*
X0293632Y0221829D01*
X0294310Y0222712D01*
X0294866Y0223677D01*
X0295293Y0224705D01*
X0295581Y0225780D01*
X0295694Y0226641D01*
X0288033Y0226641D01*
X0288033Y0228241D01*
X0286433Y0228241D01*
X0278772Y0228241D01*
X0278885Y0229101D01*
X0279174Y0230177D01*
X0279600Y0231205D01*
X0280156Y0232169D01*
X0280834Y0233053D01*
X0281621Y0233840D01*
X0282505Y0234518D01*
X0283469Y0235074D01*
X0284497Y0235500D01*
X0285573Y0235789D01*
X0286433Y0235902D01*
X0286433Y0228241D01*
X0286433Y0229413D02*
X0288033Y0229413D01*
X0288033Y0228241D02*
X0288033Y0235902D01*
X0288894Y0235789D01*
X0289969Y0235500D01*
X0290997Y0235074D01*
X0291962Y0234518D01*
X0292845Y0233840D01*
X0293632Y0233053D01*
X0294310Y0232169D01*
X0294866Y0231205D01*
X0295293Y0230177D01*
X0295581Y0229101D01*
X0295694Y0228241D01*
X0288033Y0228241D01*
X0288033Y0227815D02*
X0347457Y0227815D01*
X0347457Y0227847D02*
X0347457Y0226247D01*
X0349057Y0226247D01*
X0349057Y0227847D01*
X0356718Y0227847D01*
X0356604Y0228708D01*
X0356316Y0229783D01*
X0355890Y0230812D01*
X0355333Y0231776D01*
X0354656Y0232659D01*
X0353868Y0233446D01*
X0352985Y0234124D01*
X0352021Y0234681D01*
X0350993Y0235107D01*
X0349917Y0235395D01*
X0349057Y0235508D01*
X0349057Y0227847D01*
X0347457Y0227847D01*
X0339796Y0227847D01*
X0339909Y0228708D01*
X0340197Y0229783D01*
X0340623Y0230812D01*
X0341180Y0231776D01*
X0341858Y0232659D01*
X0342645Y0233446D01*
X0343528Y0234124D01*
X0344492Y0234681D01*
X0345521Y0235107D01*
X0346596Y0235395D01*
X0347457Y0235508D01*
X0347457Y0227847D01*
X0347457Y0229413D02*
X0349057Y0229413D01*
X0349057Y0227815D02*
X0439976Y0227815D01*
X0439976Y0229413D02*
X0356415Y0229413D01*
X0355775Y0231012D02*
X0439976Y0231012D01*
X0439976Y0232610D02*
X0435810Y0232610D01*
X0438714Y0234209D02*
X0439976Y0234209D01*
X0429995Y0232610D02*
X0366515Y0232610D01*
X0366362Y0232546D02*
X0368899Y0233597D01*
X0370841Y0235539D01*
X0371891Y0238076D01*
X0371891Y0240822D01*
X0370841Y0243359D01*
X0368899Y0245300D01*
X0366362Y0246351D01*
X0363616Y0246351D01*
X0361079Y0245300D01*
X0359137Y0243359D01*
X0358087Y0240822D01*
X0358087Y0238076D01*
X0359137Y0235539D01*
X0361079Y0233597D01*
X0363616Y0232546D01*
X0366362Y0232546D01*
X0363462Y0232610D02*
X0354693Y0232610D01*
X0352839Y0234209D02*
X0360468Y0234209D01*
X0359026Y0235807D02*
X0337487Y0235807D01*
X0337376Y0235539D02*
X0338427Y0238076D01*
X0338427Y0240822D01*
X0337376Y0243359D01*
X0335434Y0245300D01*
X0332897Y0246351D01*
X0330151Y0246351D01*
X0327615Y0245300D01*
X0325673Y0243359D01*
X0324622Y0240822D01*
X0324622Y0238076D01*
X0325673Y0235539D01*
X0327615Y0233597D01*
X0330151Y0232546D01*
X0332897Y0232546D01*
X0335434Y0233597D01*
X0337376Y0235539D01*
X0336046Y0234209D02*
X0343675Y0234209D01*
X0341820Y0232610D02*
X0333051Y0232610D01*
X0329998Y0232610D02*
X0293972Y0232610D01*
X0294947Y0231012D02*
X0340739Y0231012D01*
X0340098Y0229413D02*
X0295497Y0229413D01*
X0295638Y0226216D02*
X0339800Y0226216D01*
X0339796Y0226247D02*
X0339909Y0225387D01*
X0340197Y0224311D01*
X0340623Y0223283D01*
X0341180Y0222319D01*
X0341858Y0221435D01*
X0342645Y0220648D01*
X0343528Y0219970D01*
X0344492Y0219414D01*
X0345521Y0218988D01*
X0346596Y0218700D01*
X0347457Y0218586D01*
X0347457Y0226247D01*
X0339796Y0226247D01*
X0340115Y0224617D02*
X0295256Y0224617D01*
X0294487Y0223019D02*
X0340776Y0223019D01*
X0341873Y0221420D02*
X0293223Y0221420D01*
X0291022Y0219822D02*
X0343785Y0219822D01*
X0344702Y0216625D02*
X0291738Y0216625D01*
X0291821Y0216591D02*
X0288844Y0217824D01*
X0285622Y0217824D01*
X0282645Y0216591D01*
X0280367Y0214312D01*
X0279134Y0211335D01*
X0279134Y0208113D01*
X0280367Y0205137D01*
X0282645Y0202858D01*
X0285622Y0201625D01*
X0288844Y0201625D01*
X0291821Y0202858D01*
X0294099Y0205137D01*
X0295332Y0208113D01*
X0295332Y0211335D01*
X0294099Y0214312D01*
X0291821Y0216591D01*
X0293385Y0215026D02*
X0342498Y0215026D01*
X0341391Y0213919D02*
X0343669Y0216197D01*
X0346646Y0217430D01*
X0349868Y0217430D01*
X0352845Y0216197D01*
X0355123Y0213919D01*
X0356356Y0210942D01*
X0356356Y0207720D01*
X0355123Y0204743D01*
X0352845Y0202465D01*
X0349868Y0201231D01*
X0346646Y0201231D01*
X0343669Y0202465D01*
X0341391Y0204743D01*
X0340157Y0207720D01*
X0340157Y0210942D01*
X0341391Y0213919D01*
X0341187Y0213428D02*
X0294466Y0213428D01*
X0295128Y0211829D02*
X0340525Y0211829D01*
X0340157Y0210231D02*
X0295332Y0210231D01*
X0295332Y0208632D02*
X0340157Y0208632D01*
X0340442Y0207034D02*
X0294885Y0207034D01*
X0294223Y0205435D02*
X0341104Y0205435D01*
X0342297Y0203837D02*
X0292800Y0203837D01*
X0290324Y0202238D02*
X0344215Y0202238D01*
X0352298Y0202238D02*
X0439976Y0202238D01*
X0439976Y0200640D02*
X0122887Y0200640D01*
X0120968Y0199041D02*
X0439976Y0199041D01*
X0439976Y0197443D02*
X0121282Y0197443D01*
X0122941Y0195844D02*
X0237953Y0195844D01*
X0238189Y0196080D02*
X0237295Y0195186D01*
X0236811Y0194018D01*
X0236811Y0192754D01*
X0237295Y0191586D01*
X0238189Y0190692D01*
X0239357Y0190208D01*
X0240621Y0190208D01*
X0241789Y0190692D01*
X0242683Y0191586D01*
X0243167Y0192754D01*
X0243167Y0194018D01*
X0242683Y0195186D01*
X0241789Y0196080D01*
X0240621Y0196564D01*
X0239357Y0196564D01*
X0238189Y0196080D01*
X0236905Y0194246D02*
X0123600Y0194246D01*
X0123600Y0192647D02*
X0236855Y0192647D01*
X0237832Y0191049D02*
X0123056Y0191049D01*
X0121712Y0189450D02*
X0179000Y0189450D01*
X0179134Y0189584D02*
X0178240Y0188690D01*
X0177756Y0187522D01*
X0177756Y0186258D01*
X0178240Y0185090D01*
X0179134Y0184196D01*
X0180302Y0183712D01*
X0181566Y0183712D01*
X0182734Y0184196D01*
X0183628Y0185090D01*
X0184112Y0186258D01*
X0184112Y0187522D01*
X0183628Y0188690D01*
X0182734Y0189584D01*
X0181566Y0190068D01*
X0180302Y0190068D01*
X0179134Y0189584D01*
X0177893Y0187852D02*
X0120295Y0187852D01*
X0122623Y0186253D02*
X0177758Y0186253D01*
X0178675Y0184655D02*
X0123433Y0184655D01*
X0123600Y0183056D02*
X0184055Y0183056D01*
X0184055Y0182742D02*
X0183464Y0182497D01*
X0182570Y0181603D01*
X0182087Y0180435D01*
X0182087Y0179171D01*
X0182570Y0178003D01*
X0183464Y0177109D01*
X0184632Y0176625D01*
X0185897Y0176625D01*
X0187065Y0177109D01*
X0187959Y0178003D01*
X0188443Y0179171D01*
X0188443Y0180408D01*
X0189033Y0180652D01*
X0189927Y0181546D01*
X0190411Y0182714D01*
X0190411Y0183979D01*
X0189927Y0185147D01*
X0189033Y0186041D01*
X0187865Y0186524D01*
X0186601Y0186524D01*
X0185433Y0186041D01*
X0184539Y0185147D01*
X0184055Y0183979D01*
X0184055Y0182742D01*
X0184335Y0184655D02*
X0183193Y0184655D01*
X0184110Y0186253D02*
X0185946Y0186253D01*
X0183975Y0187852D02*
X0330667Y0187852D01*
X0330512Y0188226D02*
X0330996Y0187058D01*
X0331890Y0186164D01*
X0333058Y0185680D01*
X0334322Y0185680D01*
X0335490Y0186164D01*
X0336384Y0187058D01*
X0336868Y0188226D01*
X0336868Y0189490D01*
X0336384Y0190658D01*
X0335490Y0191552D01*
X0334322Y0192036D01*
X0333058Y0192036D01*
X0331890Y0191552D01*
X0330996Y0190658D01*
X0330512Y0189490D01*
X0330512Y0188226D01*
X0330512Y0189450D02*
X0182868Y0189450D01*
X0188520Y0186253D02*
X0331800Y0186253D01*
X0335579Y0186253D02*
X0439976Y0186253D01*
X0439976Y0184655D02*
X0327899Y0184655D01*
X0328077Y0184477D02*
X0327183Y0185371D01*
X0326015Y0185855D01*
X0324751Y0185855D01*
X0323583Y0185371D01*
X0322689Y0184477D01*
X0322205Y0183309D01*
X0322205Y0182045D01*
X0322689Y0180877D01*
X0323583Y0179983D01*
X0324751Y0179499D01*
X0326015Y0179499D01*
X0327183Y0179983D01*
X0328077Y0180877D01*
X0328561Y0182045D01*
X0328561Y0183309D01*
X0328077Y0184477D01*
X0328561Y0183056D02*
X0439976Y0183056D01*
X0439976Y0181458D02*
X0328317Y0181458D01*
X0326884Y0179859D02*
X0439976Y0179859D01*
X0439976Y0178261D02*
X0280446Y0178261D01*
X0280267Y0178439D02*
X0278503Y0179170D01*
X0276593Y0179170D01*
X0274829Y0178439D01*
X0273479Y0177089D01*
X0272748Y0175325D01*
X0272748Y0173415D01*
X0273479Y0171651D01*
X0274829Y0170301D01*
X0276593Y0169570D01*
X0278503Y0169570D01*
X0280267Y0170301D01*
X0281617Y0171651D01*
X0282348Y0173415D01*
X0282348Y0175325D01*
X0281617Y0177089D01*
X0280267Y0178439D01*
X0281794Y0176662D02*
X0439976Y0176662D01*
X0439976Y0175064D02*
X0282348Y0175064D01*
X0282348Y0173465D02*
X0439976Y0173465D01*
X0439976Y0171867D02*
X0281707Y0171867D01*
X0280188Y0170268D02*
X0439976Y0170268D01*
X0439976Y0168670D02*
X0330524Y0168670D01*
X0331100Y0168431D02*
X0329715Y0169005D01*
X0328216Y0169005D01*
X0326831Y0168431D01*
X0325771Y0167371D01*
X0325197Y0165986D01*
X0325197Y0164487D01*
X0325771Y0163102D01*
X0326831Y0162041D01*
X0328216Y0161468D01*
X0329715Y0161468D01*
X0331100Y0162041D01*
X0332160Y0163102D01*
X0332734Y0164487D01*
X0332734Y0165986D01*
X0332160Y0167371D01*
X0331100Y0168431D01*
X0332284Y0167071D02*
X0439976Y0167071D01*
X0439976Y0165473D02*
X0332734Y0165473D01*
X0332480Y0163874D02*
X0439976Y0163874D01*
X0439976Y0162276D02*
X0356980Y0162276D01*
X0356572Y0162683D02*
X0355187Y0163257D01*
X0353688Y0163257D01*
X0352303Y0162683D01*
X0351243Y0161623D01*
X0350669Y0160238D01*
X0350669Y0158739D01*
X0351243Y0157353D01*
X0352303Y0156293D01*
X0353688Y0155720D01*
X0355187Y0155720D01*
X0356572Y0156293D01*
X0357633Y0157353D01*
X0358206Y0158739D01*
X0358206Y0160238D01*
X0357633Y0161623D01*
X0356572Y0162683D01*
X0358024Y0160677D02*
X0439976Y0160677D01*
X0439976Y0159079D02*
X0358206Y0159079D01*
X0357685Y0157480D02*
X0439976Y0157480D01*
X0439976Y0155882D02*
X0399299Y0155882D01*
X0399100Y0156080D02*
X0397557Y0156720D01*
X0395886Y0156720D01*
X0394342Y0156080D01*
X0393161Y0154899D01*
X0392521Y0153355D01*
X0392521Y0151684D01*
X0393161Y0150141D01*
X0394342Y0148959D01*
X0395886Y0148320D01*
X0397557Y0148320D01*
X0399100Y0148959D01*
X0400282Y0150141D01*
X0400921Y0151684D01*
X0400921Y0153355D01*
X0400282Y0154899D01*
X0399100Y0156080D01*
X0400537Y0154283D02*
X0439976Y0154283D01*
X0439976Y0152684D02*
X0400921Y0152684D01*
X0400673Y0151086D02*
X0439976Y0151086D01*
X0439976Y0149487D02*
X0399629Y0149487D01*
X0399100Y0146080D02*
X0397557Y0146720D01*
X0395886Y0146720D01*
X0394342Y0146080D01*
X0393161Y0144899D01*
X0392521Y0143355D01*
X0392521Y0141684D01*
X0393161Y0140141D01*
X0394342Y0138959D01*
X0395886Y0138320D01*
X0397557Y0138320D01*
X0399100Y0138959D01*
X0400282Y0140141D01*
X0400921Y0141684D01*
X0400921Y0143355D01*
X0400282Y0144899D01*
X0399100Y0146080D01*
X0398593Y0146290D02*
X0439976Y0146290D01*
X0439976Y0144692D02*
X0400368Y0144692D01*
X0400921Y0143093D02*
X0439976Y0143093D01*
X0439976Y0141495D02*
X0400843Y0141495D01*
X0400038Y0139896D02*
X0439976Y0139896D01*
X0439976Y0138298D02*
X0332143Y0138298D01*
X0332143Y0137832D02*
X0332143Y0139097D01*
X0331671Y0140236D01*
X0332143Y0141376D01*
X0332143Y0142640D01*
X0331659Y0143808D01*
X0330766Y0144702D01*
X0329597Y0145186D01*
X0328333Y0145186D01*
X0327165Y0144702D01*
X0326271Y0143808D01*
X0325787Y0142640D01*
X0325787Y0141376D01*
X0326259Y0140236D01*
X0325787Y0139097D01*
X0325787Y0137832D01*
X0326259Y0136693D01*
X0325787Y0135553D01*
X0325787Y0134289D01*
X0326271Y0133121D01*
X0327165Y0132227D01*
X0328333Y0131743D01*
X0329597Y0131743D01*
X0330766Y0132227D01*
X0331659Y0133121D01*
X0332143Y0134289D01*
X0332143Y0135553D01*
X0331671Y0136693D01*
X0332143Y0137832D01*
X0331674Y0136699D02*
X0439976Y0136699D01*
X0439976Y0135101D02*
X0332143Y0135101D01*
X0331817Y0133502D02*
X0439976Y0133502D01*
X0439976Y0131904D02*
X0329985Y0131904D01*
X0329204Y0131406D02*
X0327940Y0131406D01*
X0326771Y0130922D01*
X0325878Y0130029D01*
X0325796Y0129831D01*
X0324790Y0129831D01*
X0323622Y0129348D01*
X0323082Y0128808D01*
X0322511Y0129044D01*
X0321247Y0129044D01*
X0320637Y0128792D01*
X0321030Y0129184D01*
X0321513Y0130352D01*
X0321513Y0131616D01*
X0321030Y0132784D01*
X0320136Y0133678D01*
X0318968Y0134162D01*
X0317703Y0134162D01*
X0316535Y0133678D01*
X0315641Y0132784D01*
X0315157Y0131616D01*
X0315157Y0130352D01*
X0315641Y0129184D01*
X0316535Y0128290D01*
X0317160Y0128031D01*
X0316535Y0127773D01*
X0315641Y0126879D01*
X0315157Y0125711D01*
X0315157Y0124447D01*
X0315641Y0123279D01*
X0316535Y0122385D01*
X0317703Y0121901D01*
X0318968Y0121901D01*
X0320136Y0122385D01*
X0320676Y0122925D01*
X0321247Y0122688D01*
X0322511Y0122688D01*
X0323679Y0123172D01*
X0324219Y0123712D01*
X0324790Y0123476D01*
X0325624Y0123476D01*
X0325484Y0123336D01*
X0325000Y0122168D01*
X0325000Y0120903D01*
X0325484Y0119735D01*
X0326378Y0118841D01*
X0327546Y0118357D01*
X0328810Y0118357D01*
X0329978Y0118841D01*
X0330872Y0119735D01*
X0331356Y0120903D01*
X0331356Y0122168D01*
X0330872Y0123336D01*
X0329978Y0124230D01*
X0328810Y0124713D01*
X0327976Y0124713D01*
X0328116Y0124853D01*
X0328198Y0125050D01*
X0329204Y0125050D01*
X0329218Y0125056D01*
X0329921Y0124353D01*
X0331089Y0123869D01*
X0332353Y0123869D01*
X0333521Y0124353D01*
X0334415Y0125247D01*
X0334899Y0126415D01*
X0334899Y0127679D01*
X0334415Y0128847D01*
X0333521Y0129741D01*
X0332353Y0130225D01*
X0331089Y0130225D01*
X0331075Y0130219D01*
X0330372Y0130922D01*
X0329204Y0131406D01*
X0327946Y0131904D02*
X0321394Y0131904D01*
X0321494Y0130305D02*
X0326154Y0130305D01*
X0330989Y0130305D02*
X0339540Y0130305D01*
X0339263Y0130029D02*
X0338780Y0128860D01*
X0338780Y0127596D01*
X0339263Y0126428D01*
X0340157Y0125534D01*
X0341325Y0125050D01*
X0342590Y0125050D01*
X0343758Y0125534D01*
X0344652Y0126428D01*
X0345135Y0127596D01*
X0345135Y0128860D01*
X0344652Y0130029D01*
X0343758Y0130922D01*
X0342590Y0131406D01*
X0341325Y0131406D01*
X0340157Y0130922D01*
X0339263Y0130029D01*
X0338780Y0128707D02*
X0334474Y0128707D01*
X0334899Y0127108D02*
X0338982Y0127108D01*
X0340216Y0125510D02*
X0334524Y0125510D01*
X0332455Y0123911D02*
X0341290Y0123911D01*
X0341325Y0123926D02*
X0340157Y0123442D01*
X0339263Y0122548D01*
X0338780Y0121380D01*
X0338780Y0120116D01*
X0339263Y0118948D01*
X0340157Y0118054D01*
X0340306Y0117992D01*
X0340157Y0117930D01*
X0339685Y0117458D01*
X0339534Y0117824D01*
X0338640Y0118718D01*
X0337472Y0119202D01*
X0336207Y0119202D01*
X0335039Y0118718D01*
X0334145Y0117824D01*
X0333661Y0116656D01*
X0333661Y0115391D01*
X0334145Y0114223D01*
X0335039Y0113329D01*
X0336207Y0112846D01*
X0337472Y0112846D01*
X0338640Y0113329D01*
X0339112Y0113802D01*
X0339263Y0113436D01*
X0340157Y0112542D01*
X0341325Y0112058D01*
X0342590Y0112058D01*
X0343758Y0112542D01*
X0344652Y0113436D01*
X0345135Y0114604D01*
X0345135Y0115868D01*
X0344652Y0117036D01*
X0343758Y0117930D01*
X0343609Y0117992D01*
X0343758Y0118054D01*
X0344652Y0118948D01*
X0345135Y0120116D01*
X0345135Y0121380D01*
X0344652Y0122548D01*
X0343758Y0123442D01*
X0342590Y0123926D01*
X0341325Y0123926D01*
X0342625Y0123911D02*
X0355537Y0123911D01*
X0355315Y0124447D02*
X0355799Y0123279D01*
X0356693Y0122385D01*
X0357861Y0121901D01*
X0359125Y0121901D01*
X0360293Y0122385D01*
X0361187Y0123279D01*
X0361671Y0124447D01*
X0361671Y0125711D01*
X0361187Y0126879D01*
X0360293Y0127773D01*
X0359125Y0128257D01*
X0357861Y0128257D01*
X0356693Y0127773D01*
X0355799Y0126879D01*
X0355315Y0125711D01*
X0355315Y0124447D01*
X0355315Y0125510D02*
X0343699Y0125510D01*
X0344933Y0127108D02*
X0356028Y0127108D01*
X0356866Y0122313D02*
X0344749Y0122313D01*
X0345135Y0120714D02*
X0361040Y0120714D01*
X0360827Y0120199D02*
X0360827Y0118935D01*
X0361311Y0117767D01*
X0362205Y0116873D01*
X0363373Y0116389D01*
X0364637Y0116389D01*
X0365805Y0116873D01*
X0366699Y0117767D01*
X0367183Y0118935D01*
X0367183Y0120199D01*
X0366699Y0121367D01*
X0365805Y0122261D01*
X0364637Y0122745D01*
X0363373Y0122745D01*
X0362205Y0122261D01*
X0361311Y0121367D01*
X0360827Y0120199D01*
X0360827Y0119116D02*
X0344721Y0119116D01*
X0344171Y0117517D02*
X0361560Y0117517D01*
X0366449Y0117517D02*
X0439976Y0117517D01*
X0439976Y0115919D02*
X0345115Y0115919D01*
X0345018Y0114320D02*
X0439976Y0114320D01*
X0439976Y0112722D02*
X0343937Y0112722D01*
X0339978Y0112722D02*
X0297801Y0112722D01*
X0298720Y0111123D02*
X0439976Y0111123D01*
X0439976Y0109525D02*
X0298813Y0109525D01*
X0298150Y0107926D02*
X0439976Y0107926D01*
X0439976Y0119116D02*
X0367183Y0119116D01*
X0366969Y0120714D02*
X0439976Y0120714D01*
X0439976Y0122313D02*
X0365680Y0122313D01*
X0362329Y0122313D02*
X0360120Y0122313D01*
X0361449Y0123911D02*
X0439976Y0123911D01*
X0439976Y0125510D02*
X0361671Y0125510D01*
X0360958Y0127108D02*
X0439976Y0127108D01*
X0439976Y0128707D02*
X0345135Y0128707D01*
X0344375Y0130305D02*
X0439976Y0130305D01*
X0439976Y0147889D02*
X0278158Y0147889D01*
X0277841Y0148206D02*
X0276297Y0148846D01*
X0274626Y0148846D01*
X0273082Y0148206D01*
X0271901Y0147025D01*
X0271261Y0145481D01*
X0271261Y0143810D01*
X0271901Y0142267D01*
X0273082Y0141085D01*
X0274626Y0140446D01*
X0276297Y0140446D01*
X0277841Y0141085D01*
X0279022Y0142267D01*
X0279661Y0143810D01*
X0279661Y0145481D01*
X0279022Y0147025D01*
X0277841Y0148206D01*
X0279326Y0146290D02*
X0315368Y0146290D01*
X0315248Y0146170D02*
X0314764Y0145002D01*
X0314764Y0143789D01*
X0314243Y0144005D01*
X0312979Y0144005D01*
X0311811Y0143521D01*
X0310917Y0142627D01*
X0310433Y0141459D01*
X0310433Y0140195D01*
X0310917Y0139027D01*
X0311811Y0138133D01*
X0312979Y0137649D01*
X0314243Y0137649D01*
X0315411Y0138133D01*
X0316305Y0139027D01*
X0316789Y0140195D01*
X0316789Y0141408D01*
X0317310Y0141192D01*
X0318574Y0141192D01*
X0318791Y0141282D01*
X0318701Y0141065D01*
X0318701Y0139801D01*
X0319185Y0138633D01*
X0320079Y0137739D01*
X0321247Y0137255D01*
X0322511Y0137255D01*
X0323679Y0137739D01*
X0324573Y0138633D01*
X0325057Y0139801D01*
X0325057Y0141065D01*
X0324573Y0142233D01*
X0324405Y0142402D01*
X0324573Y0142570D01*
X0325057Y0143738D01*
X0325057Y0145002D01*
X0324573Y0146170D01*
X0323679Y0147064D01*
X0322511Y0147548D01*
X0321247Y0147548D01*
X0320079Y0147064D01*
X0319910Y0146896D01*
X0319742Y0147064D01*
X0318574Y0147548D01*
X0317310Y0147548D01*
X0316142Y0147064D01*
X0315248Y0146170D01*
X0314764Y0144692D02*
X0279661Y0144692D01*
X0279364Y0143093D02*
X0311383Y0143093D01*
X0310448Y0141495D02*
X0278250Y0141495D01*
X0276297Y0138846D02*
X0274626Y0138846D01*
X0273082Y0138206D01*
X0271901Y0137025D01*
X0271261Y0135481D01*
X0271261Y0133810D01*
X0271901Y0132267D01*
X0273082Y0131085D01*
X0274626Y0130446D01*
X0276297Y0130446D01*
X0277841Y0131085D01*
X0279022Y0132267D01*
X0279661Y0133810D01*
X0279661Y0135481D01*
X0279022Y0137025D01*
X0277841Y0138206D01*
X0276297Y0138846D01*
X0277619Y0138298D02*
X0311646Y0138298D01*
X0310557Y0139896D02*
X0212451Y0139896D01*
X0212762Y0140208D02*
X0213246Y0141376D01*
X0213246Y0142640D01*
X0212762Y0143808D01*
X0211868Y0144702D01*
X0210700Y0145186D01*
X0209436Y0145186D01*
X0208268Y0144702D01*
X0207374Y0143808D01*
X0206890Y0142640D01*
X0206890Y0141376D01*
X0207242Y0140526D01*
X0206586Y0139871D01*
X0206102Y0138703D01*
X0206102Y0137439D01*
X0206586Y0136271D01*
X0206951Y0135905D01*
X0206586Y0135540D01*
X0206102Y0134372D01*
X0206102Y0133108D01*
X0206586Y0131940D01*
X0207480Y0131046D01*
X0208648Y0130562D01*
X0209912Y0130562D01*
X0211080Y0131046D01*
X0211974Y0131940D01*
X0212458Y0133108D01*
X0212458Y0134372D01*
X0211974Y0135540D01*
X0211609Y0135905D01*
X0211974Y0136271D01*
X0212458Y0137439D01*
X0212458Y0138703D01*
X0212106Y0139552D01*
X0212762Y0140208D01*
X0213246Y0141495D02*
X0242672Y0141495D01*
X0243082Y0141085D02*
X0244626Y0140446D01*
X0246297Y0140446D01*
X0247841Y0141085D01*
X0249022Y0142267D01*
X0249661Y0143810D01*
X0249661Y0145481D01*
X0249022Y0147025D01*
X0247841Y0148206D01*
X0246297Y0148846D01*
X0244626Y0148846D01*
X0243082Y0148206D01*
X0241901Y0147025D01*
X0241261Y0145481D01*
X0241261Y0143810D01*
X0241901Y0142267D01*
X0243082Y0141085D01*
X0241558Y0143093D02*
X0213058Y0143093D01*
X0211878Y0144692D02*
X0241261Y0144692D01*
X0241597Y0146290D02*
X0206576Y0146290D01*
X0206463Y0146564D02*
X0205569Y0147458D01*
X0204401Y0147942D01*
X0203136Y0147942D01*
X0201968Y0147458D01*
X0201209Y0146699D01*
X0200844Y0147064D01*
X0199676Y0147548D01*
X0198412Y0147548D01*
X0197244Y0147064D01*
X0196485Y0146305D01*
X0195726Y0147064D01*
X0194558Y0147548D01*
X0193294Y0147548D01*
X0192126Y0147064D01*
X0191864Y0146803D01*
X0191015Y0147154D01*
X0189751Y0147154D01*
X0188583Y0146671D01*
X0187689Y0145777D01*
X0187205Y0144609D01*
X0187205Y0143344D01*
X0187689Y0142176D01*
X0188583Y0141282D01*
X0189751Y0140798D01*
X0191015Y0140798D01*
X0192183Y0141282D01*
X0192445Y0141544D01*
X0193294Y0141192D01*
X0194558Y0141192D01*
X0195726Y0141676D01*
X0196485Y0142435D01*
X0197244Y0141676D01*
X0198228Y0141268D01*
X0198228Y0140982D01*
X0198712Y0139814D01*
X0199606Y0138920D01*
X0200774Y0138436D01*
X0202038Y0138436D01*
X0203206Y0138920D01*
X0204100Y0139814D01*
X0204584Y0140982D01*
X0204584Y0141662D01*
X0205569Y0142070D01*
X0206463Y0142964D01*
X0206946Y0144132D01*
X0206946Y0145396D01*
X0206463Y0146564D01*
X0206946Y0144692D02*
X0208257Y0144692D01*
X0207078Y0143093D02*
X0206516Y0143093D01*
X0206890Y0141495D02*
X0204584Y0141495D01*
X0204135Y0139896D02*
X0206612Y0139896D01*
X0206102Y0138298D02*
X0171441Y0138298D01*
X0171401Y0138176D02*
X0171633Y0138887D01*
X0171750Y0139626D01*
X0171750Y0139816D01*
X0167181Y0139816D01*
X0167181Y0140184D01*
X0171750Y0140184D01*
X0171750Y0140374D01*
X0171633Y0141113D01*
X0171401Y0141824D01*
X0171062Y0142491D01*
X0170622Y0143096D01*
X0170093Y0143625D01*
X0169488Y0144065D01*
X0168821Y0144405D01*
X0168110Y0144636D01*
X0167371Y0144753D01*
X0167181Y0144753D01*
X0167181Y0140184D01*
X0166813Y0140184D01*
X0166813Y0144753D01*
X0166623Y0144753D01*
X0165884Y0144636D01*
X0165172Y0144405D01*
X0164506Y0144065D01*
X0163901Y0143625D01*
X0163372Y0143096D01*
X0162932Y0142491D01*
X0162592Y0141824D01*
X0162361Y0141113D01*
X0162244Y0140374D01*
X0162244Y0140184D01*
X0166813Y0140184D01*
X0166813Y0139816D01*
X0167181Y0139816D01*
X0167181Y0135247D01*
X0167371Y0135247D01*
X0168110Y0135364D01*
X0168821Y0135595D01*
X0169488Y0135935D01*
X0170093Y0136375D01*
X0170622Y0136904D01*
X0171062Y0137509D01*
X0171401Y0138176D01*
X0170418Y0136699D02*
X0206409Y0136699D01*
X0206404Y0135101D02*
X0030445Y0135101D01*
X0030647Y0136699D02*
X0143891Y0136699D01*
X0143283Y0137308D02*
X0144620Y0135971D01*
X0146366Y0135247D01*
X0148257Y0135247D01*
X0150004Y0135971D01*
X0151341Y0137308D01*
X0152065Y0139055D01*
X0152065Y0140945D01*
X0151341Y0142692D01*
X0150004Y0144029D01*
X0148257Y0144753D01*
X0146366Y0144753D01*
X0144620Y0144029D01*
X0143283Y0142692D01*
X0142559Y0140945D01*
X0142559Y0139055D01*
X0143283Y0137308D01*
X0142872Y0138298D02*
X0030309Y0138298D01*
X0029255Y0139896D02*
X0142559Y0139896D01*
X0142787Y0141495D02*
X0100322Y0141495D01*
X0100457Y0141564D02*
X0101069Y0142008D01*
X0101603Y0142542D01*
X0102047Y0143154D01*
X0102390Y0143827D01*
X0102624Y0144545D01*
X0102742Y0145292D01*
X0102742Y0145469D01*
X0098142Y0145469D01*
X0098142Y0145869D01*
X0102742Y0145869D01*
X0102742Y0146047D01*
X0102624Y0146793D01*
X0102390Y0147512D01*
X0102047Y0148185D01*
X0101603Y0148796D01*
X0101069Y0149331D01*
X0100457Y0149775D01*
X0099784Y0150118D01*
X0099066Y0150351D01*
X0098320Y0150469D01*
X0098142Y0150469D01*
X0098142Y0145869D01*
X0097742Y0145869D01*
X0097742Y0145469D01*
X0098142Y0145469D01*
X0098142Y0140869D01*
X0098320Y0140869D01*
X0099066Y0140987D01*
X0099784Y0141221D01*
X0100457Y0141564D01*
X0102003Y0143093D02*
X0135590Y0143093D01*
X0135326Y0143357D02*
X0136220Y0142463D01*
X0137388Y0141980D01*
X0138653Y0141980D01*
X0139821Y0142463D01*
X0140715Y0143357D01*
X0141198Y0144525D01*
X0141198Y0145790D01*
X0140715Y0146958D01*
X0139821Y0147852D01*
X0138653Y0148335D01*
X0137388Y0148335D01*
X0136220Y0147852D01*
X0135326Y0146958D01*
X0134843Y0145790D01*
X0134843Y0144525D01*
X0135326Y0143357D01*
X0134843Y0144692D02*
X0102647Y0144692D01*
X0102703Y0146290D02*
X0107546Y0146290D01*
X0107539Y0146293D02*
X0108924Y0145720D01*
X0110424Y0145720D01*
X0111809Y0146293D01*
X0112869Y0147353D01*
X0113443Y0148739D01*
X0113443Y0150238D01*
X0112869Y0151623D01*
X0111809Y0152683D01*
X0110424Y0153257D01*
X0108924Y0153257D01*
X0107539Y0152683D01*
X0106479Y0151623D01*
X0105906Y0150238D01*
X0105906Y0148739D01*
X0106479Y0147353D01*
X0107539Y0146293D01*
X0106257Y0147889D02*
X0102198Y0147889D01*
X0100853Y0149487D02*
X0105906Y0149487D01*
X0106257Y0151086D02*
X0099420Y0151086D01*
X0098897Y0150869D02*
X0100661Y0151600D01*
X0102011Y0152950D01*
X0102742Y0154715D01*
X0102742Y0156624D01*
X0102011Y0158388D01*
X0100661Y0159739D01*
X0098897Y0160469D01*
X0096987Y0160469D01*
X0095223Y0159739D01*
X0093872Y0158388D01*
X0093142Y0156624D01*
X0093142Y0154715D01*
X0093872Y0152950D01*
X0095223Y0151600D01*
X0096987Y0150869D01*
X0098897Y0150869D01*
X0097742Y0150469D02*
X0097564Y0150469D01*
X0096818Y0150351D01*
X0096099Y0150118D01*
X0095426Y0149775D01*
X0094815Y0149331D01*
X0094280Y0148796D01*
X0093836Y0148185D01*
X0093493Y0147512D01*
X0093260Y0146793D01*
X0093142Y0146047D01*
X0093142Y0145869D01*
X0097742Y0145869D01*
X0097742Y0150469D01*
X0097742Y0149487D02*
X0098142Y0149487D01*
X0098142Y0147889D02*
X0097742Y0147889D01*
X0097742Y0146290D02*
X0098142Y0146290D01*
X0097742Y0145469D02*
X0093142Y0145469D01*
X0093142Y0145292D01*
X0093260Y0144545D01*
X0093493Y0143827D01*
X0093836Y0143154D01*
X0094280Y0142542D01*
X0094815Y0142008D01*
X0095426Y0141564D01*
X0096099Y0141221D01*
X0096818Y0140987D01*
X0097564Y0140869D01*
X0097742Y0140869D01*
X0097742Y0145469D01*
X0097742Y0144692D02*
X0098142Y0144692D01*
X0098142Y0143093D02*
X0097742Y0143093D01*
X0097742Y0141495D02*
X0098142Y0141495D01*
X0095562Y0141495D02*
X0090322Y0141495D01*
X0090457Y0141564D02*
X0091069Y0142008D01*
X0091603Y0142542D01*
X0092047Y0143154D01*
X0092390Y0143827D01*
X0092624Y0144545D01*
X0092742Y0145292D01*
X0092742Y0145469D01*
X0088142Y0145469D01*
X0088142Y0145869D01*
X0092742Y0145869D01*
X0092742Y0146047D01*
X0092624Y0146793D01*
X0092390Y0147512D01*
X0092047Y0148185D01*
X0091603Y0148796D01*
X0091069Y0149331D01*
X0090457Y0149775D01*
X0089784Y0150118D01*
X0089066Y0150351D01*
X0088320Y0150469D01*
X0088142Y0150469D01*
X0088142Y0145869D01*
X0087742Y0145869D01*
X0087742Y0145469D01*
X0088142Y0145469D01*
X0088142Y0140869D01*
X0088320Y0140869D01*
X0089066Y0140987D01*
X0089784Y0141221D01*
X0090457Y0141564D01*
X0092003Y0143093D02*
X0093880Y0143093D01*
X0093237Y0144692D02*
X0092647Y0144692D01*
X0092703Y0146290D02*
X0093180Y0146290D01*
X0093686Y0147889D02*
X0092198Y0147889D01*
X0090853Y0149487D02*
X0095031Y0149487D01*
X0096464Y0151086D02*
X0089420Y0151086D01*
X0088897Y0150869D02*
X0090661Y0151600D01*
X0092011Y0152950D01*
X0092742Y0154715D01*
X0092742Y0156624D01*
X0092011Y0158388D01*
X0090661Y0159739D01*
X0088897Y0160469D01*
X0086987Y0160469D01*
X0085223Y0159739D01*
X0083872Y0158388D01*
X0083142Y0156624D01*
X0083142Y0154715D01*
X0083872Y0152950D01*
X0085223Y0151600D01*
X0086987Y0150869D01*
X0088897Y0150869D01*
X0087742Y0150469D02*
X0087564Y0150469D01*
X0086818Y0150351D01*
X0086099Y0150118D01*
X0085426Y0149775D01*
X0084815Y0149331D01*
X0084280Y0148796D01*
X0083836Y0148185D01*
X0083493Y0147512D01*
X0083260Y0146793D01*
X0083142Y0146047D01*
X0083142Y0145869D01*
X0087742Y0145869D01*
X0087742Y0150469D01*
X0087742Y0149487D02*
X0088142Y0149487D01*
X0088142Y0147889D02*
X0087742Y0147889D01*
X0087742Y0146290D02*
X0088142Y0146290D01*
X0087742Y0145469D02*
X0083142Y0145469D01*
X0083142Y0145292D01*
X0083260Y0144545D01*
X0083493Y0143827D01*
X0083836Y0143154D01*
X0084280Y0142542D01*
X0084815Y0142008D01*
X0085426Y0141564D01*
X0086099Y0141221D01*
X0086818Y0140987D01*
X0087564Y0140869D01*
X0087742Y0140869D01*
X0087742Y0145469D01*
X0087742Y0144692D02*
X0088142Y0144692D01*
X0088142Y0143093D02*
X0087742Y0143093D01*
X0087742Y0141495D02*
X0088142Y0141495D01*
X0085562Y0141495D02*
X0080322Y0141495D01*
X0080457Y0141564D02*
X0081069Y0142008D01*
X0081603Y0142542D01*
X0082047Y0143154D01*
X0082390Y0143827D01*
X0082624Y0144545D01*
X0082742Y0145292D01*
X0082742Y0145469D01*
X0078142Y0145469D01*
X0078142Y0145869D01*
X0082742Y0145869D01*
X0082742Y0146047D01*
X0082624Y0146793D01*
X0082390Y0147512D01*
X0082047Y0148185D01*
X0081603Y0148796D01*
X0081069Y0149331D01*
X0080457Y0149775D01*
X0079784Y0150118D01*
X0079066Y0150351D01*
X0078320Y0150469D01*
X0078142Y0150469D01*
X0078142Y0145869D01*
X0077742Y0145869D01*
X0077742Y0145469D01*
X0078142Y0145469D01*
X0078142Y0140869D01*
X0078320Y0140869D01*
X0079066Y0140987D01*
X0079784Y0141221D01*
X0080457Y0141564D01*
X0082003Y0143093D02*
X0083880Y0143093D01*
X0083237Y0144692D02*
X0082647Y0144692D01*
X0082703Y0146290D02*
X0083180Y0146290D01*
X0083686Y0147889D02*
X0082198Y0147889D01*
X0080853Y0149487D02*
X0085031Y0149487D01*
X0086464Y0151086D02*
X0079420Y0151086D01*
X0078897Y0150869D02*
X0080661Y0151600D01*
X0082011Y0152950D01*
X0082742Y0154715D01*
X0082742Y0156624D01*
X0082011Y0158388D01*
X0080661Y0159739D01*
X0078897Y0160469D01*
X0076987Y0160469D01*
X0075223Y0159739D01*
X0073872Y0158388D01*
X0073142Y0156624D01*
X0073142Y0154715D01*
X0073872Y0152950D01*
X0075223Y0151600D01*
X0076987Y0150869D01*
X0078897Y0150869D01*
X0077742Y0150469D02*
X0077564Y0150469D01*
X0076818Y0150351D01*
X0076099Y0150118D01*
X0075426Y0149775D01*
X0074815Y0149331D01*
X0074280Y0148796D01*
X0073836Y0148185D01*
X0073493Y0147512D01*
X0073260Y0146793D01*
X0073142Y0146047D01*
X0073142Y0145869D01*
X0077742Y0145869D01*
X0077742Y0150469D01*
X0077742Y0149487D02*
X0078142Y0149487D01*
X0078142Y0147889D02*
X0077742Y0147889D01*
X0077742Y0146290D02*
X0078142Y0146290D01*
X0077742Y0145469D02*
X0073142Y0145469D01*
X0073142Y0145292D01*
X0073260Y0144545D01*
X0073493Y0143827D01*
X0073836Y0143154D01*
X0074280Y0142542D01*
X0074815Y0142008D01*
X0075426Y0141564D01*
X0076099Y0141221D01*
X0076818Y0140987D01*
X0077564Y0140869D01*
X0077742Y0140869D01*
X0077742Y0145469D01*
X0077742Y0144692D02*
X0078142Y0144692D01*
X0078142Y0143093D02*
X0077742Y0143093D01*
X0077742Y0141495D02*
X0078142Y0141495D01*
X0075562Y0141495D02*
X0070322Y0141495D01*
X0070457Y0141564D02*
X0071069Y0142008D01*
X0071603Y0142542D01*
X0072047Y0143154D01*
X0072390Y0143827D01*
X0072624Y0144545D01*
X0072742Y0145292D01*
X0072742Y0145469D01*
X0068142Y0145469D01*
X0068142Y0145869D01*
X0072742Y0145869D01*
X0072742Y0146047D01*
X0072624Y0146793D01*
X0072390Y0147512D01*
X0072047Y0148185D01*
X0071603Y0148796D01*
X0071069Y0149331D01*
X0070457Y0149775D01*
X0069784Y0150118D01*
X0069066Y0150351D01*
X0068320Y0150469D01*
X0068142Y0150469D01*
X0068142Y0145869D01*
X0067742Y0145869D01*
X0067742Y0145469D01*
X0068142Y0145469D01*
X0068142Y0140869D01*
X0068320Y0140869D01*
X0069066Y0140987D01*
X0069784Y0141221D01*
X0070457Y0141564D01*
X0072003Y0143093D02*
X0073880Y0143093D01*
X0073237Y0144692D02*
X0072647Y0144692D01*
X0072703Y0146290D02*
X0073180Y0146290D01*
X0073686Y0147889D02*
X0072198Y0147889D01*
X0070853Y0149487D02*
X0075031Y0149487D01*
X0076464Y0151086D02*
X0069420Y0151086D01*
X0068897Y0150869D02*
X0070661Y0151600D01*
X0072011Y0152950D01*
X0072742Y0154715D01*
X0072742Y0156624D01*
X0072011Y0158388D01*
X0070661Y0159739D01*
X0068897Y0160469D01*
X0066987Y0160469D01*
X0065223Y0159739D01*
X0063872Y0158388D01*
X0063142Y0156624D01*
X0063142Y0154715D01*
X0063872Y0152950D01*
X0065223Y0151600D01*
X0066987Y0150869D01*
X0068897Y0150869D01*
X0067742Y0150469D02*
X0067564Y0150469D01*
X0066818Y0150351D01*
X0066099Y0150118D01*
X0065426Y0149775D01*
X0064815Y0149331D01*
X0064280Y0148796D01*
X0063836Y0148185D01*
X0063493Y0147512D01*
X0063260Y0146793D01*
X0063142Y0146047D01*
X0063142Y0145869D01*
X0067742Y0145869D01*
X0067742Y0150469D01*
X0067742Y0149487D02*
X0068142Y0149487D01*
X0068142Y0147889D02*
X0067742Y0147889D01*
X0067742Y0146290D02*
X0068142Y0146290D01*
X0067742Y0145469D02*
X0063142Y0145469D01*
X0063142Y0145292D01*
X0063260Y0144545D01*
X0063493Y0143827D01*
X0063836Y0143154D01*
X0064280Y0142542D01*
X0064815Y0142008D01*
X0065426Y0141564D01*
X0066099Y0141221D01*
X0066818Y0140987D01*
X0067564Y0140869D01*
X0067742Y0140869D01*
X0067742Y0145469D01*
X0067742Y0144692D02*
X0068142Y0144692D01*
X0068142Y0143093D02*
X0067742Y0143093D01*
X0067742Y0141495D02*
X0068142Y0141495D01*
X0065562Y0141495D02*
X0060322Y0141495D01*
X0060457Y0141564D02*
X0061069Y0142008D01*
X0061603Y0142542D01*
X0062047Y0143154D01*
X0062390Y0143827D01*
X0062624Y0144545D01*
X0062742Y0145292D01*
X0062742Y0145469D01*
X0058142Y0145469D01*
X0058142Y0145869D01*
X0062742Y0145869D01*
X0062742Y0146047D01*
X0062624Y0146793D01*
X0062390Y0147512D01*
X0062047Y0148185D01*
X0061603Y0148796D01*
X0061069Y0149331D01*
X0060457Y0149775D01*
X0059784Y0150118D01*
X0059066Y0150351D01*
X0058320Y0150469D01*
X0058142Y0150469D01*
X0058142Y0145869D01*
X0057742Y0145869D01*
X0057742Y0145469D01*
X0058142Y0145469D01*
X0058142Y0140869D01*
X0058320Y0140869D01*
X0059066Y0140987D01*
X0059784Y0141221D01*
X0060457Y0141564D01*
X0062003Y0143093D02*
X0063880Y0143093D01*
X0063237Y0144692D02*
X0062647Y0144692D01*
X0062703Y0146290D02*
X0063180Y0146290D01*
X0063686Y0147889D02*
X0062198Y0147889D01*
X0060853Y0149487D02*
X0065031Y0149487D01*
X0066464Y0151086D02*
X0059420Y0151086D01*
X0058897Y0150869D02*
X0060661Y0151600D01*
X0062011Y0152950D01*
X0062742Y0154715D01*
X0062742Y0156624D01*
X0062011Y0158388D01*
X0060661Y0159739D01*
X0058897Y0160469D01*
X0056987Y0160469D01*
X0055223Y0159739D01*
X0053872Y0158388D01*
X0053142Y0156624D01*
X0053142Y0154715D01*
X0053872Y0152950D01*
X0055223Y0151600D01*
X0056987Y0150869D01*
X0058897Y0150869D01*
X0057742Y0150469D02*
X0057564Y0150469D01*
X0056818Y0150351D01*
X0056099Y0150118D01*
X0055426Y0149775D01*
X0054815Y0149331D01*
X0054280Y0148796D01*
X0053836Y0148185D01*
X0053493Y0147512D01*
X0053260Y0146793D01*
X0053142Y0146047D01*
X0053142Y0145869D01*
X0057742Y0145869D01*
X0057742Y0150469D01*
X0057742Y0149487D02*
X0058142Y0149487D01*
X0058142Y0147889D02*
X0057742Y0147889D01*
X0057742Y0146290D02*
X0058142Y0146290D01*
X0057742Y0145469D02*
X0053142Y0145469D01*
X0053142Y0145292D01*
X0053260Y0144545D01*
X0053493Y0143827D01*
X0053836Y0143154D01*
X0054280Y0142542D01*
X0054815Y0142008D01*
X0055426Y0141564D01*
X0056099Y0141221D01*
X0056818Y0140987D01*
X0057564Y0140869D01*
X0057742Y0140869D01*
X0057742Y0145469D01*
X0057742Y0144692D02*
X0058142Y0144692D01*
X0058142Y0143093D02*
X0057742Y0143093D01*
X0057742Y0141495D02*
X0058142Y0141495D01*
X0055562Y0141495D02*
X0050322Y0141495D01*
X0050457Y0141564D02*
X0051069Y0142008D01*
X0051603Y0142542D01*
X0052047Y0143154D01*
X0052390Y0143827D01*
X0052624Y0144545D01*
X0052742Y0145292D01*
X0052742Y0145469D01*
X0048142Y0145469D01*
X0048142Y0145869D01*
X0052742Y0145869D01*
X0052742Y0146047D01*
X0052624Y0146793D01*
X0052390Y0147512D01*
X0052047Y0148185D01*
X0051603Y0148796D01*
X0051069Y0149331D01*
X0050457Y0149775D01*
X0049784Y0150118D01*
X0049066Y0150351D01*
X0048320Y0150469D01*
X0048142Y0150469D01*
X0048142Y0145869D01*
X0047742Y0145869D01*
X0047742Y0145469D01*
X0048142Y0145469D01*
X0048142Y0140869D01*
X0048320Y0140869D01*
X0049066Y0140987D01*
X0049784Y0141221D01*
X0050457Y0141564D01*
X0052003Y0143093D02*
X0053880Y0143093D01*
X0053237Y0144692D02*
X0052647Y0144692D01*
X0052703Y0146290D02*
X0053180Y0146290D01*
X0053686Y0147889D02*
X0052198Y0147889D01*
X0050853Y0149487D02*
X0055031Y0149487D01*
X0056464Y0151086D02*
X0049420Y0151086D01*
X0048897Y0150869D02*
X0050661Y0151600D01*
X0052011Y0152950D01*
X0052742Y0154715D01*
X0052742Y0156624D01*
X0052011Y0158388D01*
X0050661Y0159739D01*
X0048897Y0160469D01*
X0046987Y0160469D01*
X0045223Y0159739D01*
X0043872Y0158388D01*
X0043142Y0156624D01*
X0043142Y0154715D01*
X0043872Y0152950D01*
X0045223Y0151600D01*
X0046987Y0150869D01*
X0048897Y0150869D01*
X0047742Y0150469D02*
X0047564Y0150469D01*
X0046818Y0150351D01*
X0046099Y0150118D01*
X0045426Y0149775D01*
X0044815Y0149331D01*
X0044280Y0148796D01*
X0043836Y0148185D01*
X0043493Y0147512D01*
X0043260Y0146793D01*
X0043142Y0146047D01*
X0043142Y0145869D01*
X0047742Y0145869D01*
X0047742Y0150469D01*
X0047742Y0149487D02*
X0048142Y0149487D01*
X0048142Y0147889D02*
X0047742Y0147889D01*
X0047742Y0146290D02*
X0048142Y0146290D01*
X0047742Y0145469D02*
X0043142Y0145469D01*
X0043142Y0145292D01*
X0043260Y0144545D01*
X0043493Y0143827D01*
X0043836Y0143154D01*
X0044280Y0142542D01*
X0044815Y0142008D01*
X0045426Y0141564D01*
X0046099Y0141221D01*
X0046818Y0140987D01*
X0047564Y0140869D01*
X0047742Y0140869D01*
X0047742Y0145469D01*
X0047742Y0144692D02*
X0048142Y0144692D01*
X0048142Y0143093D02*
X0047742Y0143093D01*
X0047742Y0141495D02*
X0048142Y0141495D01*
X0045562Y0141495D02*
X0004568Y0141495D01*
X0004568Y0143093D02*
X0012615Y0143093D01*
X0011500Y0144692D02*
X0004568Y0144692D01*
X0004568Y0146290D02*
X0011142Y0146290D01*
X0011337Y0147889D02*
X0004568Y0147889D01*
X0004568Y0149487D02*
X0012165Y0149487D01*
X0015710Y0149487D02*
X0016079Y0149487D01*
X0016079Y0147889D02*
X0015710Y0147889D01*
X0015710Y0146290D02*
X0016079Y0146290D01*
X0016079Y0144692D02*
X0015710Y0144692D01*
X0015710Y0143093D02*
X0016079Y0143093D01*
X0016079Y0139896D02*
X0015710Y0139896D01*
X0015710Y0138298D02*
X0016079Y0138298D01*
X0016079Y0135101D02*
X0015710Y0135101D01*
X0015710Y0133502D02*
X0016079Y0133502D01*
X0019566Y0133502D02*
X0022206Y0133502D01*
X0021344Y0135101D02*
X0020426Y0135101D01*
X0012534Y0139896D02*
X0004568Y0139896D01*
X0004568Y0138298D02*
X0011470Y0138298D01*
X0029174Y0143093D02*
X0043880Y0143093D01*
X0043237Y0144692D02*
X0030275Y0144692D01*
X0030647Y0146290D02*
X0043180Y0146290D01*
X0043686Y0147889D02*
X0030478Y0147889D01*
X0029664Y0149487D02*
X0045031Y0149487D01*
X0046464Y0151086D02*
X0027328Y0151086D01*
X0028765Y0152684D02*
X0044138Y0152684D01*
X0043320Y0154283D02*
X0030106Y0154283D01*
X0030647Y0155882D02*
X0043142Y0155882D01*
X0043496Y0157480D02*
X0030647Y0157480D01*
X0029985Y0159079D02*
X0044563Y0159079D01*
X0051321Y0159079D02*
X0054563Y0159079D01*
X0053496Y0157480D02*
X0052387Y0157480D01*
X0052742Y0155882D02*
X0053142Y0155882D01*
X0053320Y0154283D02*
X0052563Y0154283D01*
X0051745Y0152684D02*
X0054138Y0152684D01*
X0061745Y0152684D02*
X0064138Y0152684D01*
X0063320Y0154283D02*
X0062563Y0154283D01*
X0062742Y0155882D02*
X0063142Y0155882D01*
X0063496Y0157480D02*
X0062387Y0157480D01*
X0061321Y0159079D02*
X0064563Y0159079D01*
X0071321Y0159079D02*
X0074563Y0159079D01*
X0073496Y0157480D02*
X0072387Y0157480D01*
X0072742Y0155882D02*
X0073142Y0155882D01*
X0073320Y0154283D02*
X0072563Y0154283D01*
X0071745Y0152684D02*
X0074138Y0152684D01*
X0081745Y0152684D02*
X0084138Y0152684D01*
X0083320Y0154283D02*
X0082563Y0154283D01*
X0082742Y0155882D02*
X0083142Y0155882D01*
X0083496Y0157480D02*
X0082387Y0157480D01*
X0081321Y0159079D02*
X0084563Y0159079D01*
X0091321Y0159079D02*
X0094563Y0159079D01*
X0093496Y0157480D02*
X0092387Y0157480D01*
X0092742Y0155882D02*
X0093142Y0155882D01*
X0093320Y0154283D02*
X0092563Y0154283D01*
X0091745Y0152684D02*
X0094138Y0152684D01*
X0101745Y0152684D02*
X0107543Y0152684D01*
X0111805Y0152684D02*
X0181940Y0152684D01*
X0182177Y0153257D02*
X0181693Y0152089D01*
X0181693Y0150825D01*
X0182177Y0149657D01*
X0183071Y0148763D01*
X0184239Y0148279D01*
X0185503Y0148279D01*
X0186671Y0148763D01*
X0187565Y0149657D01*
X0188049Y0150825D01*
X0188049Y0152089D01*
X0187565Y0153257D01*
X0186671Y0154151D01*
X0185503Y0154635D01*
X0184239Y0154635D01*
X0183071Y0154151D01*
X0182177Y0153257D01*
X0183390Y0154283D02*
X0114875Y0154283D01*
X0114637Y0154184D02*
X0115805Y0154668D01*
X0116699Y0155562D01*
X0117183Y0156730D01*
X0117183Y0157994D01*
X0116699Y0159162D01*
X0115805Y0160056D01*
X0114637Y0160540D01*
X0113373Y0160540D01*
X0112205Y0160056D01*
X0111311Y0159162D01*
X0110827Y0157994D01*
X0110827Y0156730D01*
X0111311Y0155562D01*
X0112205Y0154668D01*
X0113373Y0154184D01*
X0114637Y0154184D01*
X0113134Y0154283D02*
X0102563Y0154283D01*
X0102742Y0155882D02*
X0111178Y0155882D01*
X0110827Y0157480D02*
X0102387Y0157480D01*
X0101321Y0159079D02*
X0111276Y0159079D01*
X0116734Y0159079D02*
X0134988Y0159079D01*
X0135538Y0158529D02*
X0134187Y0159879D01*
X0133457Y0161644D01*
X0133457Y0163553D01*
X0134187Y0165317D01*
X0135538Y0166668D01*
X0137302Y0167398D01*
X0139211Y0167398D01*
X0140976Y0166668D01*
X0142326Y0165317D01*
X0143057Y0163553D01*
X0143057Y0161644D01*
X0142326Y0159879D01*
X0140976Y0158529D01*
X0139211Y0157798D01*
X0137302Y0157798D01*
X0135538Y0158529D01*
X0133857Y0160677D02*
X0028315Y0160677D01*
X0028030Y0162276D02*
X0133457Y0162276D01*
X0133590Y0163874D02*
X0029936Y0163874D01*
X0030599Y0165473D02*
X0134343Y0165473D01*
X0136512Y0167071D02*
X0030647Y0167071D01*
X0030155Y0168670D02*
X0135397Y0168670D01*
X0135538Y0168529D02*
X0137302Y0167798D01*
X0139211Y0167798D01*
X0140976Y0168529D01*
X0142326Y0169879D01*
X0143057Y0171644D01*
X0143057Y0173553D01*
X0142326Y0175317D01*
X0140976Y0176668D01*
X0139211Y0177398D01*
X0137302Y0177398D01*
X0135538Y0176668D01*
X0134187Y0175317D01*
X0133457Y0173553D01*
X0133457Y0171644D01*
X0134187Y0169879D01*
X0135538Y0168529D01*
X0134026Y0170268D02*
X0028883Y0170268D01*
X0050927Y0171867D02*
X0054956Y0171867D01*
X0055223Y0171600D02*
X0056987Y0170869D01*
X0058897Y0170869D01*
X0060661Y0171600D01*
X0062011Y0172950D01*
X0062742Y0174715D01*
X0062742Y0176624D01*
X0062011Y0178388D01*
X0060661Y0179739D01*
X0058897Y0180469D01*
X0056987Y0180469D01*
X0055223Y0179739D01*
X0053872Y0178388D01*
X0053142Y0176624D01*
X0053142Y0174715D01*
X0053872Y0172950D01*
X0055223Y0171600D01*
X0053659Y0173465D02*
X0052224Y0173465D01*
X0052742Y0175064D02*
X0053142Y0175064D01*
X0053158Y0176662D02*
X0052726Y0176662D01*
X0052064Y0178261D02*
X0053820Y0178261D01*
X0055514Y0179859D02*
X0050369Y0179859D01*
X0050317Y0181458D02*
X0055566Y0181458D01*
X0055223Y0181600D02*
X0056987Y0180869D01*
X0058897Y0180869D01*
X0060661Y0181600D01*
X0062011Y0182950D01*
X0062742Y0184715D01*
X0062742Y0186624D01*
X0062011Y0188388D01*
X0060661Y0189739D01*
X0058897Y0190469D01*
X0056987Y0190469D01*
X0055223Y0189739D01*
X0053872Y0188388D01*
X0053142Y0186624D01*
X0053142Y0184715D01*
X0053872Y0182950D01*
X0055223Y0181600D01*
X0053829Y0183056D02*
X0052055Y0183056D01*
X0052717Y0184655D02*
X0053166Y0184655D01*
X0053142Y0186253D02*
X0052742Y0186253D01*
X0052233Y0187852D02*
X0053650Y0187852D01*
X0054934Y0189450D02*
X0050949Y0189450D01*
X0060949Y0189450D02*
X0064934Y0189450D01*
X0065223Y0189739D02*
X0063872Y0188388D01*
X0063142Y0186624D01*
X0063142Y0184715D01*
X0063872Y0182950D01*
X0065223Y0181600D01*
X0066987Y0180869D01*
X0068897Y0180869D01*
X0070661Y0181600D01*
X0072011Y0182950D01*
X0072742Y0184715D01*
X0072742Y0186624D01*
X0072011Y0188388D01*
X0070661Y0189739D01*
X0068897Y0190469D01*
X0066987Y0190469D01*
X0065223Y0189739D01*
X0063650Y0187852D02*
X0062233Y0187852D01*
X0062742Y0186253D02*
X0063142Y0186253D01*
X0063166Y0184655D02*
X0062717Y0184655D01*
X0062055Y0183056D02*
X0063829Y0183056D01*
X0065566Y0181458D02*
X0060317Y0181458D01*
X0060369Y0179859D02*
X0065514Y0179859D01*
X0065223Y0179739D02*
X0063872Y0178388D01*
X0063142Y0176624D01*
X0063142Y0174715D01*
X0063872Y0172950D01*
X0065223Y0171600D01*
X0066987Y0170869D01*
X0068897Y0170869D01*
X0070661Y0171600D01*
X0072011Y0172950D01*
X0072742Y0174715D01*
X0072742Y0176624D01*
X0072011Y0178388D01*
X0070661Y0179739D01*
X0068897Y0180469D01*
X0066987Y0180469D01*
X0065223Y0179739D01*
X0063820Y0178261D02*
X0062064Y0178261D01*
X0062726Y0176662D02*
X0063158Y0176662D01*
X0063142Y0175064D02*
X0062742Y0175064D01*
X0062224Y0173465D02*
X0063659Y0173465D01*
X0064956Y0171867D02*
X0060927Y0171867D01*
X0070927Y0171867D02*
X0074956Y0171867D01*
X0075223Y0171600D02*
X0076987Y0170869D01*
X0078897Y0170869D01*
X0080661Y0171600D01*
X0082011Y0172950D01*
X0082742Y0174715D01*
X0082742Y0176624D01*
X0082011Y0178388D01*
X0080661Y0179739D01*
X0078897Y0180469D01*
X0076987Y0180469D01*
X0075223Y0179739D01*
X0073872Y0178388D01*
X0073142Y0176624D01*
X0073142Y0174715D01*
X0073872Y0172950D01*
X0075223Y0171600D01*
X0073659Y0173465D02*
X0072224Y0173465D01*
X0072742Y0175064D02*
X0073142Y0175064D01*
X0073158Y0176662D02*
X0072726Y0176662D01*
X0072064Y0178261D02*
X0073820Y0178261D01*
X0075514Y0179859D02*
X0070369Y0179859D01*
X0070317Y0181458D02*
X0075566Y0181458D01*
X0075223Y0181600D02*
X0076987Y0180869D01*
X0078897Y0180869D01*
X0080661Y0181600D01*
X0082011Y0182950D01*
X0082742Y0184715D01*
X0082742Y0186624D01*
X0082011Y0188388D01*
X0080661Y0189739D01*
X0078897Y0190469D01*
X0076987Y0190469D01*
X0075223Y0189739D01*
X0073872Y0188388D01*
X0073142Y0186624D01*
X0073142Y0184715D01*
X0073872Y0182950D01*
X0075223Y0181600D01*
X0073829Y0183056D02*
X0072055Y0183056D01*
X0072717Y0184655D02*
X0073166Y0184655D01*
X0073142Y0186253D02*
X0072742Y0186253D01*
X0072233Y0187852D02*
X0073650Y0187852D01*
X0074934Y0189450D02*
X0070949Y0189450D01*
X0080949Y0189450D02*
X0084934Y0189450D01*
X0083650Y0187852D02*
X0082233Y0187852D01*
X0082742Y0186253D02*
X0083142Y0186253D01*
X0083166Y0184655D02*
X0082717Y0184655D01*
X0082055Y0183056D02*
X0083829Y0183056D01*
X0085566Y0181458D02*
X0080317Y0181458D01*
X0080369Y0179859D02*
X0085514Y0179859D01*
X0085223Y0179739D02*
X0083872Y0178388D01*
X0083142Y0176624D01*
X0083142Y0174715D01*
X0083872Y0172950D01*
X0085223Y0171600D01*
X0086987Y0170869D01*
X0088897Y0170869D01*
X0090661Y0171600D01*
X0092011Y0172950D01*
X0092742Y0174715D01*
X0092742Y0176624D01*
X0092011Y0178388D01*
X0090661Y0179739D01*
X0088897Y0180469D01*
X0086987Y0180469D01*
X0085223Y0179739D01*
X0083820Y0178261D02*
X0082064Y0178261D01*
X0082726Y0176662D02*
X0083158Y0176662D01*
X0083142Y0175064D02*
X0082742Y0175064D01*
X0082224Y0173465D02*
X0083659Y0173465D01*
X0084956Y0171867D02*
X0080927Y0171867D01*
X0090927Y0171867D02*
X0133457Y0171867D01*
X0133457Y0173465D02*
X0092224Y0173465D01*
X0092742Y0175064D02*
X0134082Y0175064D01*
X0135532Y0176662D02*
X0092726Y0176662D01*
X0092064Y0178261D02*
X0174060Y0178261D01*
X0173819Y0177679D02*
X0173819Y0176415D01*
X0174303Y0175247D01*
X0175197Y0174353D01*
X0176365Y0173869D01*
X0177629Y0173869D01*
X0178797Y0174353D01*
X0179691Y0175247D01*
X0180175Y0176415D01*
X0180175Y0177679D01*
X0179691Y0178847D01*
X0178797Y0179741D01*
X0177629Y0180225D01*
X0176365Y0180225D01*
X0175197Y0179741D01*
X0174303Y0178847D01*
X0173819Y0177679D01*
X0173819Y0176662D02*
X0160981Y0176662D01*
X0160976Y0176668D02*
X0159211Y0177398D01*
X0157302Y0177398D01*
X0155538Y0176668D01*
X0154187Y0175317D01*
X0153457Y0173553D01*
X0153457Y0171644D01*
X0154187Y0169879D01*
X0155538Y0168529D01*
X0157302Y0167798D01*
X0159211Y0167798D01*
X0160976Y0168529D01*
X0162326Y0169879D01*
X0163057Y0171644D01*
X0163057Y0173553D01*
X0162326Y0175317D01*
X0160976Y0176668D01*
X0162431Y0175064D02*
X0174486Y0175064D01*
X0179508Y0175064D02*
X0239869Y0175064D01*
X0240215Y0175207D02*
X0239047Y0174723D01*
X0238153Y0173829D01*
X0237669Y0172661D01*
X0237669Y0171397D01*
X0238153Y0170229D01*
X0239047Y0169335D01*
X0240215Y0168851D01*
X0241479Y0168851D01*
X0242647Y0169335D01*
X0243541Y0170229D01*
X0244025Y0171397D01*
X0244025Y0172661D01*
X0243541Y0173829D01*
X0242647Y0174723D01*
X0241479Y0175207D01*
X0240215Y0175207D01*
X0241826Y0175064D02*
X0244171Y0175064D01*
X0243988Y0175247D02*
X0244882Y0174353D01*
X0246050Y0173869D01*
X0247314Y0173869D01*
X0248482Y0174353D01*
X0249376Y0175247D01*
X0249860Y0176415D01*
X0249860Y0177679D01*
X0249376Y0178847D01*
X0248482Y0179741D01*
X0247314Y0180225D01*
X0246050Y0180225D01*
X0244882Y0179741D01*
X0243988Y0178847D01*
X0243504Y0177679D01*
X0243504Y0176415D01*
X0243988Y0175247D01*
X0243504Y0176662D02*
X0185986Y0176662D01*
X0184543Y0176662D02*
X0180175Y0176662D01*
X0179934Y0178261D02*
X0182464Y0178261D01*
X0182087Y0179859D02*
X0178513Y0179859D01*
X0175481Y0179859D02*
X0122121Y0179859D01*
X0123226Y0181458D02*
X0182510Y0181458D01*
X0188443Y0179859D02*
X0245166Y0179859D01*
X0243745Y0178261D02*
X0188065Y0178261D01*
X0189839Y0181458D02*
X0322448Y0181458D01*
X0322205Y0183056D02*
X0190411Y0183056D01*
X0190131Y0184655D02*
X0322866Y0184655D01*
X0323881Y0179859D02*
X0248198Y0179859D01*
X0249619Y0178261D02*
X0254650Y0178261D01*
X0254829Y0178439D02*
X0253479Y0177089D01*
X0252748Y0175325D01*
X0252748Y0173415D01*
X0253479Y0171651D01*
X0254829Y0170301D01*
X0256593Y0169570D01*
X0258503Y0169570D01*
X0260267Y0170301D01*
X0261617Y0171651D01*
X0262348Y0173415D01*
X0262348Y0175325D01*
X0261617Y0177089D01*
X0260267Y0178439D01*
X0258503Y0179170D01*
X0256593Y0179170D01*
X0254829Y0178439D01*
X0253302Y0176662D02*
X0249860Y0176662D01*
X0249193Y0175064D02*
X0252748Y0175064D01*
X0252748Y0173465D02*
X0243692Y0173465D01*
X0244025Y0171867D02*
X0253390Y0171867D01*
X0254908Y0170268D02*
X0243558Y0170268D01*
X0245065Y0166643D02*
X0243897Y0166159D01*
X0243003Y0165265D01*
X0242520Y0164097D01*
X0242520Y0162832D01*
X0243003Y0161664D01*
X0243897Y0160770D01*
X0245065Y0160287D01*
X0246330Y0160287D01*
X0247498Y0160770D01*
X0248392Y0161664D01*
X0248876Y0162832D01*
X0248876Y0164097D01*
X0248392Y0165265D01*
X0247498Y0166159D01*
X0246330Y0166643D01*
X0245065Y0166643D01*
X0243211Y0165473D02*
X0209255Y0165473D01*
X0209325Y0165402D02*
X0208265Y0166462D01*
X0206880Y0167036D01*
X0205381Y0167036D01*
X0203996Y0166462D01*
X0202936Y0165402D01*
X0202362Y0164017D01*
X0202362Y0162518D01*
X0202936Y0161133D01*
X0203996Y0160073D01*
X0205381Y0159499D01*
X0206880Y0159499D01*
X0208265Y0160073D01*
X0209325Y0161133D01*
X0209899Y0162518D01*
X0209899Y0164017D01*
X0209325Y0165402D01*
X0209899Y0163874D02*
X0242520Y0163874D01*
X0242750Y0162276D02*
X0232402Y0162276D01*
X0232077Y0162600D02*
X0230909Y0163084D01*
X0229645Y0163084D01*
X0228477Y0162600D01*
X0227583Y0161706D01*
X0227099Y0160538D01*
X0227099Y0159274D01*
X0227583Y0158106D01*
X0228477Y0157212D01*
X0229645Y0156728D01*
X0230909Y0156728D01*
X0232077Y0157212D01*
X0232971Y0158106D01*
X0233455Y0159274D01*
X0233455Y0160538D01*
X0232971Y0161706D01*
X0232077Y0162600D01*
X0233398Y0160677D02*
X0244123Y0160677D01*
X0247272Y0160677D02*
X0254453Y0160677D01*
X0254829Y0160301D02*
X0256593Y0159570D01*
X0258503Y0159570D01*
X0260267Y0160301D01*
X0261617Y0161651D01*
X0262348Y0163415D01*
X0262348Y0165325D01*
X0261617Y0167089D01*
X0260267Y0168439D01*
X0258503Y0169170D01*
X0256593Y0169170D01*
X0254829Y0168439D01*
X0253479Y0167089D01*
X0252748Y0165325D01*
X0252748Y0163415D01*
X0253479Y0161651D01*
X0254829Y0160301D01*
X0253220Y0162276D02*
X0248645Y0162276D01*
X0248876Y0163874D02*
X0252748Y0163874D01*
X0252809Y0165473D02*
X0248184Y0165473D01*
X0253471Y0167071D02*
X0160002Y0167071D01*
X0159211Y0167398D02*
X0157302Y0167398D01*
X0155538Y0166668D01*
X0154187Y0165317D01*
X0153457Y0163553D01*
X0153457Y0161644D01*
X0154187Y0159879D01*
X0155538Y0158529D01*
X0157302Y0157798D01*
X0159211Y0157798D01*
X0160976Y0158529D01*
X0162326Y0159879D01*
X0163057Y0161644D01*
X0163057Y0163553D01*
X0162326Y0165317D01*
X0160976Y0166668D01*
X0159211Y0167398D01*
X0161116Y0168670D02*
X0255385Y0168670D01*
X0259711Y0168670D02*
X0265385Y0168670D01*
X0264829Y0168439D02*
X0263479Y0167089D01*
X0262748Y0165325D01*
X0262748Y0163415D01*
X0263479Y0161651D01*
X0264829Y0160301D01*
X0266593Y0159570D01*
X0268503Y0159570D01*
X0270267Y0160301D01*
X0271617Y0161651D01*
X0272348Y0163415D01*
X0272348Y0165325D01*
X0271617Y0167089D01*
X0270267Y0168439D01*
X0268503Y0169170D01*
X0266593Y0169170D01*
X0264829Y0168439D01*
X0264908Y0170268D02*
X0260188Y0170268D01*
X0261707Y0171867D02*
X0263390Y0171867D01*
X0263479Y0171651D02*
X0264829Y0170301D01*
X0266593Y0169570D01*
X0268503Y0169570D01*
X0270267Y0170301D01*
X0271617Y0171651D01*
X0272348Y0173415D01*
X0272348Y0175325D01*
X0271617Y0177089D01*
X0270267Y0178439D01*
X0268503Y0179170D01*
X0266593Y0179170D01*
X0264829Y0178439D01*
X0263479Y0177089D01*
X0262748Y0175325D01*
X0262748Y0173415D01*
X0263479Y0171651D01*
X0262748Y0173465D02*
X0262348Y0173465D01*
X0262348Y0175064D02*
X0262748Y0175064D01*
X0263302Y0176662D02*
X0261794Y0176662D01*
X0260446Y0178261D02*
X0264650Y0178261D01*
X0270446Y0178261D02*
X0274650Y0178261D01*
X0273302Y0176662D02*
X0271794Y0176662D01*
X0272348Y0175064D02*
X0272748Y0175064D01*
X0272748Y0173465D02*
X0272348Y0173465D01*
X0271707Y0171867D02*
X0273390Y0171867D01*
X0274908Y0170268D02*
X0270188Y0170268D01*
X0269711Y0168670D02*
X0275385Y0168670D01*
X0274829Y0168439D02*
X0273479Y0167089D01*
X0272748Y0165325D01*
X0272748Y0163415D01*
X0273479Y0161651D01*
X0274829Y0160301D01*
X0276593Y0159570D01*
X0278503Y0159570D01*
X0280267Y0160301D01*
X0281617Y0161651D01*
X0282348Y0163415D01*
X0282348Y0165325D01*
X0281617Y0167089D01*
X0280267Y0168439D01*
X0278503Y0169170D01*
X0276593Y0169170D01*
X0274829Y0168439D01*
X0273471Y0167071D02*
X0271625Y0167071D01*
X0272287Y0165473D02*
X0272809Y0165473D01*
X0272748Y0163874D02*
X0272348Y0163874D01*
X0271876Y0162276D02*
X0273220Y0162276D01*
X0274453Y0160677D02*
X0270643Y0160677D01*
X0264453Y0160677D02*
X0260643Y0160677D01*
X0261876Y0162276D02*
X0263220Y0162276D01*
X0262748Y0163874D02*
X0262348Y0163874D01*
X0262287Y0165473D02*
X0262809Y0165473D01*
X0263471Y0167071D02*
X0261625Y0167071D01*
X0279711Y0168670D02*
X0327407Y0168670D01*
X0325646Y0167071D02*
X0281625Y0167071D01*
X0282287Y0165473D02*
X0325197Y0165473D01*
X0325451Y0163874D02*
X0282348Y0163874D01*
X0281876Y0162276D02*
X0326597Y0162276D01*
X0329134Y0159269D02*
X0328240Y0158375D01*
X0327756Y0157207D01*
X0327756Y0155943D01*
X0328240Y0154775D01*
X0329134Y0153881D01*
X0330302Y0153397D01*
X0331566Y0153397D01*
X0332734Y0153881D01*
X0333628Y0154775D01*
X0334112Y0155943D01*
X0334112Y0157207D01*
X0333628Y0158375D01*
X0332734Y0159269D01*
X0331566Y0159753D01*
X0330302Y0159753D01*
X0329134Y0159269D01*
X0328943Y0159079D02*
X0233374Y0159079D01*
X0232345Y0157480D02*
X0327869Y0157480D01*
X0327781Y0155882D02*
X0209702Y0155882D01*
X0209702Y0156026D02*
X0209219Y0157194D01*
X0208325Y0158088D01*
X0207157Y0158572D01*
X0205892Y0158572D01*
X0204724Y0158088D01*
X0203830Y0157194D01*
X0203346Y0156026D01*
X0203346Y0154762D01*
X0203830Y0153594D01*
X0204724Y0152700D01*
X0205892Y0152216D01*
X0207157Y0152216D01*
X0208325Y0152700D01*
X0209219Y0153594D01*
X0209702Y0154762D01*
X0209702Y0156026D01*
X0208932Y0157480D02*
X0228209Y0157480D01*
X0227180Y0159079D02*
X0161525Y0159079D01*
X0162656Y0160677D02*
X0203392Y0160677D01*
X0202463Y0162276D02*
X0163057Y0162276D01*
X0162924Y0163874D02*
X0202362Y0163874D01*
X0203006Y0165473D02*
X0162171Y0165473D01*
X0156512Y0167071D02*
X0150002Y0167071D01*
X0149211Y0167398D02*
X0147302Y0167398D01*
X0145538Y0166668D01*
X0144187Y0165317D01*
X0143457Y0163553D01*
X0143457Y0161644D01*
X0144187Y0159879D01*
X0145538Y0158529D01*
X0147302Y0157798D01*
X0149211Y0157798D01*
X0150976Y0158529D01*
X0152326Y0159879D01*
X0153057Y0161644D01*
X0153057Y0163553D01*
X0152326Y0165317D01*
X0150976Y0166668D01*
X0149211Y0167398D01*
X0149211Y0167798D02*
X0150976Y0168529D01*
X0152326Y0169879D01*
X0153057Y0171644D01*
X0153057Y0173553D01*
X0152326Y0175317D01*
X0150976Y0176668D01*
X0149211Y0177398D01*
X0147302Y0177398D01*
X0145538Y0176668D01*
X0144187Y0175317D01*
X0143457Y0173553D01*
X0143457Y0171644D01*
X0144187Y0169879D01*
X0145538Y0168529D01*
X0147302Y0167798D01*
X0149211Y0167798D01*
X0151116Y0168670D02*
X0155397Y0168670D01*
X0154026Y0170268D02*
X0152487Y0170268D01*
X0153057Y0171867D02*
X0153457Y0171867D01*
X0153457Y0173465D02*
X0153057Y0173465D01*
X0152431Y0175064D02*
X0154082Y0175064D01*
X0155532Y0176662D02*
X0150981Y0176662D01*
X0145532Y0176662D02*
X0140981Y0176662D01*
X0142431Y0175064D02*
X0144082Y0175064D01*
X0143457Y0173465D02*
X0143057Y0173465D01*
X0143057Y0171867D02*
X0143457Y0171867D01*
X0144026Y0170268D02*
X0142487Y0170268D01*
X0141116Y0168670D02*
X0145397Y0168670D01*
X0146512Y0167071D02*
X0140002Y0167071D01*
X0142171Y0165473D02*
X0144343Y0165473D01*
X0143590Y0163874D02*
X0142924Y0163874D01*
X0143057Y0162276D02*
X0143457Y0162276D01*
X0143857Y0160677D02*
X0142656Y0160677D01*
X0141525Y0159079D02*
X0144988Y0159079D01*
X0151525Y0159079D02*
X0154988Y0159079D01*
X0153857Y0160677D02*
X0152656Y0160677D01*
X0153057Y0162276D02*
X0153457Y0162276D01*
X0153590Y0163874D02*
X0152924Y0163874D01*
X0152171Y0165473D02*
X0154343Y0165473D01*
X0162487Y0170268D02*
X0238137Y0170268D01*
X0237669Y0171867D02*
X0163057Y0171867D01*
X0163057Y0173465D02*
X0238002Y0173465D01*
X0228152Y0162276D02*
X0209799Y0162276D01*
X0208870Y0160677D02*
X0227157Y0160677D01*
X0209504Y0154283D02*
X0328731Y0154283D01*
X0333136Y0154283D02*
X0338412Y0154283D01*
X0338476Y0154438D02*
X0337992Y0153270D01*
X0337992Y0152006D01*
X0338476Y0150838D01*
X0339370Y0149944D01*
X0340538Y0149460D01*
X0341802Y0149460D01*
X0342970Y0149944D01*
X0343864Y0150838D01*
X0344348Y0152006D01*
X0344348Y0153270D01*
X0343864Y0154438D01*
X0342970Y0155332D01*
X0341802Y0155816D01*
X0340538Y0155816D01*
X0339370Y0155332D01*
X0338476Y0154438D01*
X0337992Y0152684D02*
X0208288Y0152684D01*
X0204761Y0152684D02*
X0199254Y0152684D01*
X0199376Y0152806D02*
X0199860Y0153974D01*
X0199860Y0155238D01*
X0199376Y0156406D01*
X0198482Y0157300D01*
X0197314Y0157784D01*
X0196050Y0157784D01*
X0194882Y0157300D01*
X0193988Y0156406D01*
X0193504Y0155238D01*
X0193504Y0153974D01*
X0193988Y0152806D01*
X0194882Y0151912D01*
X0196050Y0151428D01*
X0197314Y0151428D01*
X0198482Y0151912D01*
X0199376Y0152806D01*
X0199860Y0154283D02*
X0203545Y0154283D01*
X0203346Y0155882D02*
X0199593Y0155882D01*
X0198048Y0157480D02*
X0204116Y0157480D01*
X0195315Y0157480D02*
X0117183Y0157480D01*
X0116831Y0155882D02*
X0193770Y0155882D01*
X0193504Y0154283D02*
X0186352Y0154283D01*
X0187802Y0152684D02*
X0194109Y0152684D01*
X0188049Y0151086D02*
X0338373Y0151086D01*
X0340471Y0149487D02*
X0187396Y0149487D01*
X0182346Y0149487D02*
X0113443Y0149487D01*
X0113091Y0147889D02*
X0136310Y0147889D01*
X0135050Y0146290D02*
X0111802Y0146290D01*
X0113091Y0151086D02*
X0181693Y0151086D01*
X0188202Y0146290D02*
X0140991Y0146290D01*
X0141198Y0144692D02*
X0146220Y0144692D01*
X0148404Y0144692D02*
X0166239Y0144692D01*
X0166813Y0144692D02*
X0167181Y0144692D01*
X0167755Y0144692D02*
X0187239Y0144692D01*
X0187309Y0143093D02*
X0170624Y0143093D01*
X0171508Y0141495D02*
X0188370Y0141495D01*
X0192396Y0141495D02*
X0192563Y0141495D01*
X0195289Y0141495D02*
X0197681Y0141495D01*
X0198678Y0139896D02*
X0167181Y0139896D01*
X0166813Y0139896D02*
X0152065Y0139896D01*
X0151837Y0141495D02*
X0162485Y0141495D01*
X0162244Y0139816D02*
X0162244Y0139626D01*
X0162361Y0138887D01*
X0162592Y0138176D01*
X0162932Y0137509D01*
X0163372Y0136904D01*
X0163901Y0136375D01*
X0164506Y0135935D01*
X0165172Y0135595D01*
X0165884Y0135364D01*
X0166623Y0135247D01*
X0166813Y0135247D01*
X0166813Y0139816D01*
X0162244Y0139816D01*
X0162553Y0138298D02*
X0151751Y0138298D01*
X0150733Y0136699D02*
X0163576Y0136699D01*
X0166813Y0136699D02*
X0167181Y0136699D01*
X0167181Y0138298D02*
X0166813Y0138298D01*
X0166813Y0141495D02*
X0167181Y0141495D01*
X0167181Y0143093D02*
X0166813Y0143093D01*
X0163370Y0143093D02*
X0150940Y0143093D01*
X0143684Y0143093D02*
X0140451Y0143093D01*
X0139730Y0147889D02*
X0203009Y0147889D01*
X0204528Y0147889D02*
X0242765Y0147889D01*
X0248158Y0147889D02*
X0272765Y0147889D01*
X0271597Y0146290D02*
X0249326Y0146290D01*
X0249661Y0144692D02*
X0271261Y0144692D01*
X0271558Y0143093D02*
X0249364Y0143093D01*
X0248250Y0141495D02*
X0272672Y0141495D01*
X0273304Y0138298D02*
X0247619Y0138298D01*
X0247841Y0138206D02*
X0246297Y0138846D01*
X0244626Y0138846D01*
X0243082Y0138206D01*
X0241901Y0137025D01*
X0241261Y0135481D01*
X0241261Y0133810D01*
X0241901Y0132267D01*
X0243082Y0131085D01*
X0244626Y0130446D01*
X0246297Y0130446D01*
X0247841Y0131085D01*
X0249022Y0132267D01*
X0249661Y0133810D01*
X0249661Y0135481D01*
X0249022Y0137025D01*
X0247841Y0138206D01*
X0249157Y0136699D02*
X0271766Y0136699D01*
X0271261Y0135101D02*
X0249661Y0135101D01*
X0249534Y0133502D02*
X0271389Y0133502D01*
X0272264Y0131904D02*
X0248659Y0131904D01*
X0242264Y0131904D02*
X0224272Y0131904D01*
X0224573Y0131603D02*
X0223679Y0132497D01*
X0222511Y0132981D01*
X0221247Y0132981D01*
X0220079Y0132497D01*
X0219185Y0131603D01*
X0218701Y0130435D01*
X0218701Y0129171D01*
X0219185Y0128003D01*
X0219562Y0127626D01*
X0219094Y0126498D01*
X0219094Y0125234D01*
X0219578Y0124066D01*
X0220472Y0123172D01*
X0221640Y0122688D01*
X0222905Y0122688D01*
X0224073Y0123172D01*
X0224967Y0124066D01*
X0225450Y0125234D01*
X0225450Y0126498D01*
X0224967Y0127666D01*
X0224590Y0128043D01*
X0225057Y0129171D01*
X0225057Y0130435D01*
X0224573Y0131603D01*
X0225057Y0130305D02*
X0293701Y0130305D01*
X0293701Y0129841D02*
X0294275Y0128456D01*
X0295335Y0127396D01*
X0296720Y0126822D01*
X0298219Y0126822D01*
X0299604Y0127396D01*
X0300664Y0128456D01*
X0301238Y0129841D01*
X0301238Y0131340D01*
X0300664Y0132725D01*
X0299604Y0133785D01*
X0298219Y0134359D01*
X0296720Y0134359D01*
X0295335Y0133785D01*
X0294275Y0132725D01*
X0293701Y0131340D01*
X0293701Y0129841D01*
X0294171Y0128707D02*
X0224864Y0128707D01*
X0225198Y0127108D02*
X0235949Y0127108D01*
X0236220Y0127379D02*
X0235326Y0126485D01*
X0234843Y0125317D01*
X0234843Y0124053D01*
X0235326Y0122885D01*
X0236220Y0121991D01*
X0237388Y0121507D01*
X0238653Y0121507D01*
X0239821Y0121991D01*
X0240715Y0122885D01*
X0241198Y0124053D01*
X0241198Y0125317D01*
X0240715Y0126485D01*
X0239821Y0127379D01*
X0238653Y0127863D01*
X0237388Y0127863D01*
X0236220Y0127379D01*
X0234922Y0125510D02*
X0225450Y0125510D01*
X0224812Y0123911D02*
X0234901Y0123911D01*
X0235898Y0122313D02*
X0207859Y0122313D01*
X0208037Y0122491D02*
X0208521Y0123659D01*
X0208521Y0124923D01*
X0208037Y0126091D01*
X0207143Y0126985D01*
X0205975Y0127469D01*
X0204711Y0127469D01*
X0203543Y0126985D01*
X0202649Y0126091D01*
X0202165Y0124923D01*
X0202165Y0123659D01*
X0202649Y0122491D01*
X0203543Y0121597D01*
X0204711Y0121113D01*
X0205975Y0121113D01*
X0207143Y0121597D01*
X0208037Y0122491D01*
X0208521Y0123911D02*
X0219733Y0123911D01*
X0219094Y0125510D02*
X0208278Y0125510D01*
X0206847Y0127108D02*
X0219347Y0127108D01*
X0218893Y0128707D02*
X0191645Y0128707D01*
X0191789Y0130305D02*
X0218701Y0130305D01*
X0219485Y0131904D02*
X0211938Y0131904D01*
X0212458Y0133502D02*
X0241389Y0133502D01*
X0241261Y0135101D02*
X0212156Y0135101D01*
X0212152Y0136699D02*
X0241766Y0136699D01*
X0243304Y0138298D02*
X0212458Y0138298D01*
X0206102Y0133502D02*
X0188937Y0133502D01*
X0187104Y0133502D02*
X0029583Y0133502D01*
X0057742Y0119116D02*
X0058142Y0119116D01*
X0058142Y0117517D02*
X0057742Y0117517D01*
X0057742Y0115919D02*
X0058142Y0115919D01*
X0058142Y0114320D02*
X0057742Y0114320D01*
X0057742Y0112722D02*
X0058142Y0112722D01*
X0061733Y0112722D02*
X0064150Y0112722D01*
X0063333Y0114320D02*
X0062550Y0114320D01*
X0062742Y0115919D02*
X0063142Y0115919D01*
X0063142Y0115869D02*
X0067742Y0115869D01*
X0067742Y0120469D01*
X0067564Y0120469D01*
X0066818Y0120351D01*
X0066099Y0120118D01*
X0065426Y0119775D01*
X0064815Y0119331D01*
X0064280Y0118796D01*
X0063836Y0118185D01*
X0063493Y0117512D01*
X0063260Y0116793D01*
X0063142Y0116047D01*
X0063142Y0115869D01*
X0063496Y0117517D02*
X0062387Y0117517D01*
X0061283Y0119116D02*
X0064600Y0119116D01*
X0067742Y0119116D02*
X0068142Y0119116D01*
X0068142Y0117517D02*
X0067742Y0117517D01*
X0067742Y0115919D02*
X0068142Y0115919D01*
X0068142Y0114320D02*
X0067742Y0114320D01*
X0067742Y0112722D02*
X0068142Y0112722D01*
X0071733Y0112722D02*
X0074150Y0112722D01*
X0073333Y0114320D02*
X0072550Y0114320D01*
X0072742Y0115919D02*
X0073142Y0115919D01*
X0073496Y0117517D02*
X0072387Y0117517D01*
X0071283Y0119116D02*
X0074600Y0119116D01*
X0074510Y0122313D02*
X0071373Y0122313D01*
X0072409Y0123911D02*
X0073474Y0123911D01*
X0073142Y0125510D02*
X0072742Y0125510D01*
X0072541Y0127108D02*
X0073342Y0127108D01*
X0074191Y0128707D02*
X0071692Y0128707D01*
X0064191Y0128707D02*
X0061692Y0128707D01*
X0062541Y0127108D02*
X0063342Y0127108D01*
X0063142Y0125510D02*
X0062742Y0125510D01*
X0062409Y0123911D02*
X0063474Y0123911D01*
X0064510Y0122313D02*
X0061373Y0122313D01*
X0101373Y0122313D02*
X0188780Y0122313D01*
X0189445Y0123911D02*
X0102409Y0123911D01*
X0102742Y0125510D02*
X0195322Y0125510D01*
X0196753Y0127108D02*
X0190655Y0127108D01*
X0185386Y0127108D02*
X0102541Y0127108D01*
X0101692Y0128707D02*
X0184396Y0128707D01*
X0191229Y0131904D02*
X0206622Y0131904D01*
X0203840Y0127108D02*
X0199760Y0127108D01*
X0201192Y0125510D02*
X0202408Y0125510D01*
X0202165Y0123911D02*
X0201435Y0123911D01*
X0200772Y0122313D02*
X0202828Y0122313D01*
X0198600Y0120714D02*
X0243307Y0120714D01*
X0243307Y0119998D02*
X0243881Y0118613D01*
X0244941Y0117553D01*
X0246326Y0116980D01*
X0247825Y0116980D01*
X0249210Y0117553D01*
X0250270Y0118613D01*
X0250844Y0119998D01*
X0250844Y0121498D01*
X0250270Y0122883D01*
X0249210Y0123943D01*
X0247825Y0124517D01*
X0246326Y0124517D01*
X0244941Y0123943D01*
X0243881Y0122883D01*
X0243307Y0121498D01*
X0243307Y0119998D01*
X0243673Y0119116D02*
X0197575Y0119116D01*
X0180897Y0114320D02*
X0302643Y0114320D01*
X0302419Y0114544D02*
X0303313Y0113650D01*
X0304481Y0113166D01*
X0305746Y0113166D01*
X0306914Y0113650D01*
X0307808Y0114544D01*
X0308291Y0115712D01*
X0308291Y0116976D01*
X0307808Y0118144D01*
X0306914Y0119038D01*
X0305746Y0119522D01*
X0304481Y0119522D01*
X0303313Y0119038D01*
X0302419Y0118144D01*
X0301935Y0116976D01*
X0301935Y0115712D01*
X0302419Y0114544D01*
X0301935Y0115919D02*
X0179823Y0115919D01*
X0180985Y0112722D02*
X0292287Y0112722D01*
X0291368Y0111123D02*
X0180035Y0111123D01*
X0169013Y0111123D02*
X0126603Y0111123D01*
X0126603Y0109525D02*
X0168425Y0109525D01*
X0168549Y0107926D02*
X0126631Y0107926D01*
X0126611Y0106328D02*
X0169511Y0106328D01*
X0173820Y0103131D02*
X0126603Y0103131D01*
X0126631Y0101532D02*
X0173454Y0101532D01*
X0173889Y0099934D02*
X0126603Y0099934D01*
X0140186Y0098335D02*
X0258729Y0098335D01*
X0258380Y0096737D02*
X0140186Y0096737D01*
X0140186Y0095138D02*
X0258734Y0095138D01*
X0260034Y0093540D02*
X0230007Y0093540D01*
X0231008Y0091941D02*
X0269320Y0091941D01*
X0269584Y0092578D02*
X0269010Y0091193D01*
X0269010Y0089694D01*
X0269584Y0088309D01*
X0270644Y0087249D01*
X0272029Y0086675D01*
X0273528Y0086675D01*
X0274913Y0087249D01*
X0275974Y0088309D01*
X0276547Y0089694D01*
X0276547Y0091193D01*
X0275974Y0092578D01*
X0274913Y0093638D01*
X0273528Y0094212D01*
X0272029Y0094212D01*
X0270644Y0093638D01*
X0269584Y0092578D01*
X0270546Y0093540D02*
X0264264Y0093540D01*
X0269010Y0090343D02*
X0231159Y0090343D01*
X0231605Y0088744D02*
X0269404Y0088744D01*
X0270893Y0087146D02*
X0232143Y0087146D01*
X0231849Y0085547D02*
X0308100Y0085547D01*
X0308531Y0085115D02*
X0309699Y0084631D01*
X0310964Y0084631D01*
X0312132Y0085115D01*
X0313026Y0086009D01*
X0313509Y0087177D01*
X0313509Y0088442D01*
X0313026Y0089610D01*
X0312132Y0090504D01*
X0310964Y0090987D01*
X0309699Y0090987D01*
X0308531Y0090504D01*
X0307637Y0089610D01*
X0307154Y0088442D01*
X0307154Y0087177D01*
X0307637Y0086009D01*
X0308531Y0085115D01*
X0307167Y0087146D02*
X0274665Y0087146D01*
X0276154Y0088744D02*
X0307279Y0088744D01*
X0308370Y0090343D02*
X0276547Y0090343D01*
X0276237Y0091941D02*
X0345705Y0091941D01*
X0345472Y0090343D02*
X0335396Y0090343D01*
X0333558Y0090343D02*
X0312293Y0090343D01*
X0313384Y0088744D02*
X0331642Y0088744D01*
X0331299Y0087146D02*
X0313496Y0087146D01*
X0312563Y0085547D02*
X0331757Y0085547D01*
X0337312Y0088744D02*
X0345943Y0088744D01*
X0346821Y0093540D02*
X0275012Y0093540D01*
X0260010Y0099934D02*
X0179376Y0099934D01*
X0153806Y0091941D02*
X0223773Y0091941D01*
X0224774Y0093540D02*
X0152639Y0093540D01*
X0147973Y0093540D02*
X0140186Y0093540D01*
X0140186Y0091941D02*
X0146806Y0091941D01*
X0175184Y0082350D02*
X0317569Y0082350D01*
X0316732Y0080751D02*
X0176303Y0080751D01*
X0176447Y0079153D02*
X0316903Y0079153D01*
X0318058Y0077554D02*
X0175547Y0077554D01*
X0148062Y0050940D02*
X0146559Y0052443D01*
X0144595Y0053257D01*
X0142469Y0053257D01*
X0140506Y0052443D01*
X0139002Y0050940D01*
X0138189Y0048976D01*
X0138189Y0046851D01*
X0139002Y0044887D01*
X0140506Y0043384D01*
X0142469Y0042570D01*
X0144595Y0042570D01*
X0146559Y0043384D01*
X0148062Y0044887D01*
X0148876Y0046851D01*
X0148876Y0048976D01*
X0148062Y0050940D01*
X0148294Y0050380D02*
X0212786Y0050380D01*
X0213018Y0050940D02*
X0212205Y0048976D01*
X0212205Y0046851D01*
X0213018Y0044887D01*
X0214521Y0043384D01*
X0216485Y0042570D01*
X0218611Y0042570D01*
X0220575Y0043384D01*
X0222078Y0044887D01*
X0222891Y0046851D01*
X0222891Y0048976D01*
X0222078Y0050940D01*
X0220575Y0052443D01*
X0218611Y0053257D01*
X0216485Y0053257D01*
X0214521Y0052443D01*
X0213018Y0050940D01*
X0214056Y0051978D02*
X0147024Y0051978D01*
X0140041Y0051978D02*
X0118926Y0051978D01*
X0118926Y0050380D02*
X0138770Y0050380D01*
X0138189Y0048781D02*
X0118926Y0048781D01*
X0118926Y0047183D02*
X0138189Y0047183D01*
X0138713Y0045584D02*
X0118926Y0045584D01*
X0118926Y0043986D02*
X0139903Y0043986D01*
X0136987Y0040789D02*
X0171644Y0040789D01*
X0172002Y0040431D02*
X0170499Y0041934D01*
X0169685Y0043898D01*
X0169685Y0046023D01*
X0170499Y0047987D01*
X0172002Y0049490D01*
X0173965Y0050304D01*
X0176091Y0050304D01*
X0178055Y0049490D01*
X0179558Y0047987D01*
X0180372Y0046023D01*
X0180372Y0043898D01*
X0179558Y0041934D01*
X0178055Y0040431D01*
X0176091Y0039617D01*
X0173965Y0039617D01*
X0172002Y0040431D01*
X0170311Y0042387D02*
X0134824Y0042387D01*
X0135788Y0041988D02*
X0132383Y0043398D01*
X0128697Y0043398D01*
X0125292Y0041988D01*
X0122686Y0039382D01*
X0121276Y0035977D01*
X0121276Y0032291D01*
X0122686Y0028886D01*
X0125292Y0026280D01*
X0128697Y0024869D01*
X0132383Y0024869D01*
X0135788Y0026280D01*
X0138394Y0028886D01*
X0139805Y0032291D01*
X0139805Y0035977D01*
X0138394Y0039382D01*
X0135788Y0041988D01*
X0138474Y0039190D02*
X0180087Y0039190D01*
X0180166Y0039382D02*
X0178756Y0035977D01*
X0178756Y0032291D01*
X0180166Y0028886D01*
X0182773Y0026280D01*
X0186178Y0024869D01*
X0189863Y0024869D01*
X0193268Y0026280D01*
X0195875Y0028886D01*
X0196288Y0029884D01*
X0196702Y0028886D01*
X0199308Y0026280D01*
X0202713Y0024869D01*
X0206399Y0024869D01*
X0209804Y0026280D01*
X0212410Y0028886D01*
X0213820Y0032291D01*
X0213820Y0035977D01*
X0212410Y0039382D01*
X0209804Y0041988D01*
X0206399Y0043398D01*
X0202713Y0043398D01*
X0199308Y0041988D01*
X0196702Y0039382D01*
X0196288Y0038383D01*
X0195875Y0039382D01*
X0193268Y0041988D01*
X0189863Y0043398D01*
X0186178Y0043398D01*
X0182773Y0041988D01*
X0180166Y0039382D01*
X0179425Y0037592D02*
X0139136Y0037592D01*
X0139798Y0035993D02*
X0155552Y0035993D01*
X0155799Y0036241D02*
X0155205Y0035646D01*
X0154710Y0034966D01*
X0154328Y0034216D01*
X0154069Y0033417D01*
X0153937Y0032586D01*
X0153937Y0032546D01*
X0158899Y0032546D01*
X0158899Y0031784D01*
X0159661Y0031784D01*
X0159661Y0026822D01*
X0159701Y0026822D01*
X0160532Y0026954D01*
X0161331Y0027214D01*
X0162081Y0027595D01*
X0162761Y0028090D01*
X0163356Y0028684D01*
X0163850Y0029365D01*
X0164232Y0030114D01*
X0164492Y0030914D01*
X0164624Y0031745D01*
X0164624Y0031784D01*
X0159661Y0031784D01*
X0159661Y0032546D01*
X0164624Y0032546D01*
X0164624Y0032586D01*
X0164492Y0033417D01*
X0164232Y0034216D01*
X0163850Y0034966D01*
X0163356Y0035646D01*
X0162761Y0036241D01*
X0162081Y0036735D01*
X0161331Y0037117D01*
X0160532Y0037377D01*
X0159701Y0037509D01*
X0159661Y0037509D01*
X0159661Y0032547D01*
X0158899Y0032547D01*
X0158899Y0037509D01*
X0158860Y0037509D01*
X0158029Y0037377D01*
X0157229Y0037117D01*
X0156480Y0036735D01*
X0155799Y0036241D01*
X0154419Y0034395D02*
X0139805Y0034395D01*
X0139805Y0032796D02*
X0153970Y0032796D01*
X0153937Y0031784D02*
X0153937Y0031745D01*
X0154069Y0030914D01*
X0154328Y0030114D01*
X0154710Y0029365D01*
X0155205Y0028684D01*
X0155799Y0028090D01*
X0156480Y0027595D01*
X0157229Y0027214D01*
X0158029Y0026954D01*
X0158860Y0026822D01*
X0158899Y0026822D01*
X0158899Y0031784D01*
X0153937Y0031784D01*
X0154024Y0031198D02*
X0139352Y0031198D01*
X0138690Y0029599D02*
X0154591Y0029599D01*
X0155922Y0028001D02*
X0137509Y0028001D01*
X0135910Y0026402D02*
X0182650Y0026402D01*
X0181052Y0028001D02*
X0162639Y0028001D01*
X0163970Y0029599D02*
X0179871Y0029599D01*
X0179209Y0031198D02*
X0164537Y0031198D01*
X0164590Y0032796D02*
X0178756Y0032796D01*
X0178756Y0034395D02*
X0164141Y0034395D01*
X0163009Y0035993D02*
X0178763Y0035993D01*
X0178413Y0040789D02*
X0181573Y0040789D01*
X0179746Y0042387D02*
X0183736Y0042387D01*
X0180372Y0043986D02*
X0213919Y0043986D01*
X0212729Y0045584D02*
X0180372Y0045584D01*
X0179891Y0047183D02*
X0212205Y0047183D01*
X0212205Y0048781D02*
X0178764Y0048781D01*
X0171292Y0048781D02*
X0148876Y0048781D01*
X0148876Y0047183D02*
X0170165Y0047183D01*
X0169685Y0045584D02*
X0148351Y0045584D01*
X0147161Y0043986D02*
X0169685Y0043986D01*
X0159661Y0035993D02*
X0158899Y0035993D01*
X0158899Y0034395D02*
X0159661Y0034395D01*
X0159661Y0032796D02*
X0158899Y0032796D01*
X0158899Y0031198D02*
X0159661Y0031198D01*
X0159661Y0029599D02*
X0158899Y0029599D01*
X0158899Y0028001D02*
X0159661Y0028001D01*
X0193391Y0026402D02*
X0199186Y0026402D01*
X0197587Y0028001D02*
X0194989Y0028001D01*
X0196170Y0029599D02*
X0196406Y0029599D01*
X0209926Y0026402D02*
X0256666Y0026402D01*
X0256788Y0026280D02*
X0260193Y0024869D01*
X0263879Y0024869D01*
X0267284Y0026280D01*
X0269890Y0028886D01*
X0271301Y0032291D01*
X0271301Y0035977D01*
X0269890Y0039382D01*
X0267284Y0041988D01*
X0263879Y0043398D01*
X0260193Y0043398D01*
X0256788Y0041988D01*
X0254182Y0039382D01*
X0252772Y0035977D01*
X0252772Y0032291D01*
X0254182Y0028886D01*
X0256788Y0026280D01*
X0255067Y0028001D02*
X0236654Y0028001D01*
X0236777Y0028090D02*
X0237372Y0028684D01*
X0237866Y0029365D01*
X0238248Y0030114D01*
X0238508Y0030914D01*
X0238639Y0031745D01*
X0238639Y0031784D01*
X0233677Y0031784D01*
X0233677Y0026822D01*
X0233717Y0026822D01*
X0234547Y0026954D01*
X0235347Y0027214D01*
X0236097Y0027595D01*
X0236777Y0028090D01*
X0237985Y0029599D02*
X0253887Y0029599D01*
X0253225Y0031198D02*
X0238553Y0031198D01*
X0238639Y0032546D02*
X0238639Y0032586D01*
X0238508Y0033417D01*
X0238248Y0034216D01*
X0237866Y0034966D01*
X0237372Y0035646D01*
X0236777Y0036241D01*
X0236097Y0036735D01*
X0235347Y0037117D01*
X0234547Y0037377D01*
X0233717Y0037509D01*
X0233677Y0037509D01*
X0233677Y0032547D01*
X0232915Y0032547D01*
X0232915Y0037509D01*
X0232876Y0037509D01*
X0232045Y0037377D01*
X0231245Y0037117D01*
X0230496Y0036735D01*
X0229815Y0036241D01*
X0229220Y0035646D01*
X0228726Y0034966D01*
X0228344Y0034216D01*
X0228084Y0033417D01*
X0227953Y0032586D01*
X0227953Y0032546D01*
X0232915Y0032546D01*
X0232915Y0031784D01*
X0233677Y0031784D01*
X0233677Y0032546D01*
X0238639Y0032546D01*
X0238606Y0032796D02*
X0252772Y0032796D01*
X0252772Y0034395D02*
X0238157Y0034395D01*
X0237025Y0035993D02*
X0252778Y0035993D01*
X0253441Y0037592D02*
X0213152Y0037592D01*
X0212489Y0039190D02*
X0254103Y0039190D01*
X0255589Y0040789D02*
X0252429Y0040789D01*
X0252071Y0040431D02*
X0253574Y0041934D01*
X0254387Y0043898D01*
X0254387Y0046023D01*
X0253574Y0047987D01*
X0252071Y0049490D01*
X0250107Y0050304D01*
X0247981Y0050304D01*
X0246017Y0049490D01*
X0244514Y0047987D01*
X0243701Y0046023D01*
X0243701Y0043898D01*
X0244514Y0041934D01*
X0246017Y0040431D01*
X0247981Y0039617D01*
X0250107Y0039617D01*
X0252071Y0040431D01*
X0253762Y0042387D02*
X0257752Y0042387D01*
X0254387Y0043986D02*
X0291478Y0043986D01*
X0292080Y0043384D02*
X0290577Y0044887D01*
X0289764Y0046851D01*
X0289764Y0048976D01*
X0290577Y0050940D01*
X0292080Y0052443D01*
X0294044Y0053257D01*
X0296170Y0053257D01*
X0298134Y0052443D01*
X0299637Y0050940D01*
X0300450Y0048976D01*
X0300450Y0046851D01*
X0299637Y0044887D01*
X0298134Y0043384D01*
X0296170Y0042570D01*
X0294044Y0042570D01*
X0292080Y0043384D01*
X0290288Y0045584D02*
X0254387Y0045584D01*
X0253907Y0047183D02*
X0289764Y0047183D01*
X0289764Y0048781D02*
X0252780Y0048781D01*
X0245308Y0048781D02*
X0222891Y0048781D01*
X0222891Y0047183D02*
X0244181Y0047183D01*
X0243701Y0045584D02*
X0222367Y0045584D01*
X0221177Y0043986D02*
X0243701Y0043986D01*
X0244326Y0042387D02*
X0208840Y0042387D01*
X0211003Y0040789D02*
X0245659Y0040789D01*
X0233677Y0035993D02*
X0232915Y0035993D01*
X0232915Y0034395D02*
X0233677Y0034395D01*
X0233677Y0032796D02*
X0232915Y0032796D01*
X0232915Y0031784D02*
X0227953Y0031784D01*
X0227953Y0031745D01*
X0228084Y0030914D01*
X0228344Y0030114D01*
X0228726Y0029365D01*
X0229220Y0028684D01*
X0229815Y0028090D01*
X0230496Y0027595D01*
X0231245Y0027214D01*
X0232045Y0026954D01*
X0232876Y0026822D01*
X0232915Y0026822D01*
X0232915Y0031784D01*
X0232915Y0031198D02*
X0233677Y0031198D01*
X0233677Y0029599D02*
X0232915Y0029599D01*
X0232915Y0028001D02*
X0233677Y0028001D01*
X0229938Y0028001D02*
X0211525Y0028001D01*
X0212705Y0029599D02*
X0228607Y0029599D01*
X0228039Y0031198D02*
X0213368Y0031198D01*
X0213820Y0032796D02*
X0227986Y0032796D01*
X0228435Y0034395D02*
X0213820Y0034395D01*
X0213814Y0035993D02*
X0229567Y0035993D01*
X0222310Y0050380D02*
X0290345Y0050380D01*
X0291615Y0051978D02*
X0221040Y0051978D01*
X0200272Y0042387D02*
X0192305Y0042387D01*
X0194468Y0040789D02*
X0198109Y0040789D01*
X0196622Y0039190D02*
X0195954Y0039190D01*
X0126256Y0042387D02*
X0118926Y0042387D01*
X0118926Y0040789D02*
X0124093Y0040789D01*
X0122607Y0039190D02*
X0118926Y0039190D01*
X0118926Y0037592D02*
X0121945Y0037592D01*
X0121282Y0035993D02*
X0118926Y0035993D01*
X0118926Y0034395D02*
X0121276Y0034395D01*
X0121276Y0032796D02*
X0118926Y0032796D01*
X0118926Y0031198D02*
X0121728Y0031198D01*
X0122391Y0029599D02*
X0118926Y0029599D01*
X0118926Y0028001D02*
X0123571Y0028001D01*
X0125170Y0026402D02*
X0118926Y0026402D01*
X0118926Y0024804D02*
X0423854Y0024804D01*
X0423835Y0026402D02*
X0418981Y0026402D01*
X0418859Y0026280D02*
X0421465Y0028886D01*
X0422876Y0032291D01*
X0422876Y0035977D01*
X0421465Y0039382D01*
X0418859Y0041988D01*
X0415454Y0043398D01*
X0411768Y0043398D01*
X0408363Y0041988D01*
X0405757Y0039382D01*
X0404346Y0035977D01*
X0404346Y0032291D01*
X0405757Y0028886D01*
X0408363Y0026280D01*
X0411768Y0024869D01*
X0415454Y0024869D01*
X0418859Y0026280D01*
X0420580Y0028001D02*
X0423835Y0028001D01*
X0424308Y0029599D02*
X0421761Y0029599D01*
X0422423Y0031198D02*
X0424970Y0031198D01*
X0426221Y0032796D02*
X0422876Y0032796D01*
X0422876Y0034395D02*
X0427896Y0034395D01*
X0422869Y0035993D02*
X0439976Y0035993D01*
X0439976Y0034395D02*
X0437909Y0034395D01*
X0439583Y0032796D02*
X0439976Y0032796D01*
X0439976Y0037592D02*
X0422207Y0037592D01*
X0421545Y0039190D02*
X0439976Y0039190D01*
X0439976Y0040789D02*
X0420058Y0040789D01*
X0417895Y0042387D02*
X0439976Y0042387D01*
X0439976Y0043986D02*
X0405962Y0043986D01*
X0405962Y0043898D02*
X0405149Y0041934D01*
X0403646Y0040431D01*
X0401682Y0039617D01*
X0399556Y0039617D01*
X0397592Y0040431D01*
X0396089Y0041934D01*
X0395276Y0043898D01*
X0395276Y0046023D01*
X0396089Y0047987D01*
X0397592Y0049490D01*
X0399556Y0050304D01*
X0401682Y0050304D01*
X0403646Y0049490D01*
X0405149Y0047987D01*
X0405962Y0046023D01*
X0405962Y0043898D01*
X0405336Y0042387D02*
X0409327Y0042387D01*
X0407164Y0040789D02*
X0404004Y0040789D01*
X0405678Y0039190D02*
X0364064Y0039190D01*
X0363985Y0039382D02*
X0361379Y0041988D01*
X0357974Y0043398D01*
X0354288Y0043398D01*
X0350883Y0041988D01*
X0348277Y0039382D01*
X0347863Y0038383D01*
X0347449Y0039382D01*
X0344843Y0041988D01*
X0341438Y0043398D01*
X0337752Y0043398D01*
X0334347Y0041988D01*
X0331741Y0039382D01*
X0330331Y0035977D01*
X0330331Y0032291D01*
X0331741Y0028886D01*
X0334347Y0026280D01*
X0337752Y0024869D01*
X0341438Y0024869D01*
X0344843Y0026280D01*
X0347449Y0028886D01*
X0347863Y0029884D01*
X0348277Y0028886D01*
X0350883Y0026280D01*
X0354288Y0024869D01*
X0357974Y0024869D01*
X0361379Y0026280D01*
X0363985Y0028886D01*
X0365395Y0032291D01*
X0365395Y0035977D01*
X0363985Y0039382D01*
X0364726Y0037592D02*
X0405015Y0037592D01*
X0404353Y0035993D02*
X0388600Y0035993D01*
X0388352Y0036241D02*
X0387671Y0036735D01*
X0386922Y0037117D01*
X0386122Y0037377D01*
X0385291Y0037509D01*
X0385252Y0037509D01*
X0385252Y0032547D01*
X0384490Y0032547D01*
X0384490Y0037509D01*
X0384450Y0037509D01*
X0383620Y0037377D01*
X0382820Y0037117D01*
X0382070Y0036735D01*
X0381390Y0036241D01*
X0380795Y0035646D01*
X0380301Y0034966D01*
X0379919Y0034216D01*
X0379659Y0033417D01*
X0379528Y0032586D01*
X0379528Y0032546D01*
X0384490Y0032546D01*
X0384490Y0031784D01*
X0385252Y0031784D01*
X0385252Y0026822D01*
X0385291Y0026822D01*
X0386122Y0026954D01*
X0386922Y0027214D01*
X0387671Y0027595D01*
X0388352Y0028090D01*
X0388947Y0028684D01*
X0389441Y0029365D01*
X0389823Y0030114D01*
X0390083Y0030914D01*
X0390214Y0031745D01*
X0390214Y0031784D01*
X0385252Y0031784D01*
X0385252Y0032546D01*
X0390214Y0032546D01*
X0390214Y0032586D01*
X0390083Y0033417D01*
X0389823Y0034216D01*
X0389441Y0034966D01*
X0388947Y0035646D01*
X0388352Y0036241D01*
X0389732Y0034395D02*
X0404346Y0034395D01*
X0404346Y0032796D02*
X0390181Y0032796D01*
X0390127Y0031198D02*
X0404799Y0031198D01*
X0405461Y0029599D02*
X0389560Y0029599D01*
X0388229Y0028001D02*
X0406642Y0028001D01*
X0408241Y0026402D02*
X0361501Y0026402D01*
X0363100Y0028001D02*
X0381513Y0028001D01*
X0381390Y0028090D02*
X0382070Y0027595D01*
X0382820Y0027214D01*
X0383620Y0026954D01*
X0384450Y0026822D01*
X0384490Y0026822D01*
X0384490Y0031784D01*
X0379528Y0031784D01*
X0379528Y0031745D01*
X0379659Y0030914D01*
X0379919Y0030114D01*
X0380301Y0029365D01*
X0380795Y0028684D01*
X0381390Y0028090D01*
X0380181Y0029599D02*
X0364280Y0029599D01*
X0364942Y0031198D02*
X0379614Y0031198D01*
X0379561Y0032796D02*
X0365395Y0032796D01*
X0365395Y0034395D02*
X0380010Y0034395D01*
X0381142Y0035993D02*
X0365388Y0035993D01*
X0362578Y0040789D02*
X0397234Y0040789D01*
X0395901Y0042387D02*
X0360415Y0042387D01*
X0364593Y0044887D02*
X0366096Y0043384D01*
X0368060Y0042570D01*
X0370186Y0042570D01*
X0372150Y0043384D01*
X0373653Y0044887D01*
X0374466Y0046851D01*
X0374466Y0048976D01*
X0373653Y0050940D01*
X0372150Y0052443D01*
X0370186Y0053257D01*
X0368060Y0053257D01*
X0366096Y0052443D01*
X0364593Y0050940D01*
X0363780Y0048976D01*
X0363780Y0046851D01*
X0364593Y0044887D01*
X0364304Y0045584D02*
X0331946Y0045584D01*
X0331946Y0046023D02*
X0331133Y0047987D01*
X0329630Y0049490D01*
X0327666Y0050304D01*
X0325540Y0050304D01*
X0323576Y0049490D01*
X0322073Y0047987D01*
X0321260Y0046023D01*
X0321260Y0043898D01*
X0322073Y0041934D01*
X0323576Y0040431D01*
X0325540Y0039617D01*
X0327666Y0039617D01*
X0329630Y0040431D01*
X0331133Y0041934D01*
X0331946Y0043898D01*
X0331946Y0046023D01*
X0331466Y0047183D02*
X0363780Y0047183D01*
X0363780Y0048781D02*
X0330339Y0048781D01*
X0331946Y0043986D02*
X0365494Y0043986D01*
X0364361Y0050380D02*
X0299869Y0050380D01*
X0300450Y0048781D02*
X0322867Y0048781D01*
X0321740Y0047183D02*
X0300450Y0047183D01*
X0299926Y0045584D02*
X0321260Y0045584D01*
X0321260Y0043986D02*
X0298736Y0043986D01*
X0289969Y0039382D02*
X0287363Y0041988D01*
X0283958Y0043398D01*
X0280272Y0043398D01*
X0276867Y0041988D01*
X0274261Y0039382D01*
X0272850Y0035977D01*
X0272850Y0032291D01*
X0274261Y0028886D01*
X0276867Y0026280D01*
X0280272Y0024869D01*
X0283958Y0024869D01*
X0287363Y0026280D01*
X0289969Y0028886D01*
X0291380Y0032291D01*
X0291380Y0035977D01*
X0289969Y0039382D01*
X0290048Y0039190D02*
X0331662Y0039190D01*
X0331000Y0037592D02*
X0290711Y0037592D01*
X0291373Y0035993D02*
X0307126Y0035993D01*
X0307374Y0036241D02*
X0306779Y0035646D01*
X0306285Y0034966D01*
X0305903Y0034216D01*
X0305643Y0033417D01*
X0305512Y0032586D01*
X0305512Y0032546D01*
X0310474Y0032546D01*
X0310474Y0031784D01*
X0311236Y0031784D01*
X0311236Y0026822D01*
X0311276Y0026822D01*
X0312106Y0026954D01*
X0312906Y0027214D01*
X0313656Y0027595D01*
X0314336Y0028090D01*
X0314931Y0028684D01*
X0315425Y0029365D01*
X0315807Y0030114D01*
X0316067Y0030914D01*
X0316198Y0031745D01*
X0316198Y0031784D01*
X0311236Y0031784D01*
X0311236Y0032546D01*
X0316198Y0032546D01*
X0316198Y0032586D01*
X0316067Y0033417D01*
X0315807Y0034216D01*
X0315425Y0034966D01*
X0314931Y0035646D01*
X0314336Y0036241D01*
X0313656Y0036735D01*
X0312906Y0037117D01*
X0312106Y0037377D01*
X0311276Y0037509D01*
X0311236Y0037509D01*
X0311236Y0032547D01*
X0310474Y0032547D01*
X0310474Y0037509D01*
X0310435Y0037509D01*
X0309604Y0037377D01*
X0308804Y0037117D01*
X0308055Y0036735D01*
X0307374Y0036241D01*
X0305994Y0034395D02*
X0291380Y0034395D01*
X0291380Y0032796D02*
X0305545Y0032796D01*
X0305512Y0031784D02*
X0305512Y0031745D01*
X0305643Y0030914D01*
X0305903Y0030114D01*
X0306285Y0029365D01*
X0306779Y0028684D01*
X0307374Y0028090D01*
X0308055Y0027595D01*
X0308804Y0027214D01*
X0309604Y0026954D01*
X0310435Y0026822D01*
X0310474Y0026822D01*
X0310474Y0031784D01*
X0305512Y0031784D01*
X0305598Y0031198D02*
X0290927Y0031198D01*
X0290264Y0029599D02*
X0306166Y0029599D01*
X0307497Y0028001D02*
X0289084Y0028001D01*
X0287485Y0026402D02*
X0334225Y0026402D01*
X0332626Y0028001D02*
X0314213Y0028001D01*
X0315544Y0029599D02*
X0331446Y0029599D01*
X0330784Y0031198D02*
X0316112Y0031198D01*
X0316165Y0032796D02*
X0330331Y0032796D01*
X0330331Y0034395D02*
X0315716Y0034395D01*
X0314584Y0035993D02*
X0330338Y0035993D01*
X0329988Y0040789D02*
X0333148Y0040789D01*
X0331321Y0042387D02*
X0335311Y0042387D01*
X0343879Y0042387D02*
X0351847Y0042387D01*
X0349683Y0040789D02*
X0346042Y0040789D01*
X0347529Y0039190D02*
X0348197Y0039190D01*
X0347981Y0029599D02*
X0347745Y0029599D01*
X0346564Y0028001D02*
X0349162Y0028001D01*
X0350760Y0026402D02*
X0344966Y0026402D01*
X0323219Y0040789D02*
X0288562Y0040789D01*
X0286399Y0042387D02*
X0321886Y0042387D01*
X0311236Y0035993D02*
X0310474Y0035993D01*
X0310474Y0034395D02*
X0311236Y0034395D01*
X0311236Y0032796D02*
X0310474Y0032796D01*
X0310474Y0031198D02*
X0311236Y0031198D01*
X0311236Y0029599D02*
X0310474Y0029599D01*
X0310474Y0028001D02*
X0311236Y0028001D01*
X0276745Y0026402D02*
X0267407Y0026402D01*
X0269005Y0028001D02*
X0275146Y0028001D01*
X0273965Y0029599D02*
X0270186Y0029599D01*
X0270848Y0031198D02*
X0273303Y0031198D01*
X0272850Y0032796D02*
X0271301Y0032796D01*
X0271301Y0034395D02*
X0272850Y0034395D01*
X0272857Y0035993D02*
X0271294Y0035993D01*
X0270632Y0037592D02*
X0273519Y0037592D01*
X0274181Y0039190D02*
X0269970Y0039190D01*
X0268483Y0040789D02*
X0275668Y0040789D01*
X0277831Y0042387D02*
X0266320Y0042387D01*
X0298599Y0051978D02*
X0365631Y0051978D01*
X0372615Y0051978D02*
X0439976Y0051978D01*
X0439976Y0050380D02*
X0373885Y0050380D01*
X0374466Y0048781D02*
X0396883Y0048781D01*
X0395756Y0047183D02*
X0374466Y0047183D01*
X0373942Y0045584D02*
X0395276Y0045584D01*
X0395276Y0043986D02*
X0372752Y0043986D01*
X0384490Y0035993D02*
X0385252Y0035993D01*
X0385252Y0034395D02*
X0384490Y0034395D01*
X0384490Y0032796D02*
X0385252Y0032796D01*
X0385252Y0031198D02*
X0384490Y0031198D01*
X0384490Y0029599D02*
X0385252Y0029599D01*
X0385252Y0028001D02*
X0384490Y0028001D01*
X0405962Y0045584D02*
X0439976Y0045584D01*
X0439976Y0047183D02*
X0405482Y0047183D01*
X0404355Y0048781D02*
X0439976Y0048781D01*
X0439976Y0053577D02*
X0118926Y0053577D01*
X0118926Y0055175D02*
X0439976Y0055175D01*
X0439976Y0056774D02*
X0118926Y0056774D01*
X0118926Y0058372D02*
X0439976Y0058372D01*
X0439976Y0059971D02*
X0118926Y0059971D01*
X0118926Y0061569D02*
X0439976Y0061569D01*
X0439976Y0063168D02*
X0118926Y0063168D01*
X0118926Y0064766D02*
X0439976Y0064766D01*
X0439976Y0066365D02*
X0118926Y0066365D01*
X0118926Y0067963D02*
X0439976Y0067963D01*
X0439976Y0069562D02*
X0118926Y0069562D01*
X0118926Y0071160D02*
X0439976Y0071160D01*
X0439976Y0072759D02*
X0118926Y0072759D01*
X0118926Y0074357D02*
X0439976Y0074357D01*
X0424516Y0023205D02*
X0118926Y0023205D01*
X0118926Y0021607D02*
X0425178Y0021607D01*
X0426724Y0020008D02*
X0118926Y0020008D01*
X0039989Y0020008D02*
X0017821Y0020008D01*
X0019593Y0093540D02*
X0022169Y0093540D01*
X0021329Y0095138D02*
X0020438Y0095138D01*
X0020647Y0096737D02*
X0021142Y0096737D01*
X0021496Y0098335D02*
X0020307Y0098335D01*
X0019218Y0099934D02*
X0022571Y0099934D01*
X0102387Y0117517D02*
X0245028Y0117517D01*
X0249123Y0117517D02*
X0302160Y0117517D01*
X0303500Y0119116D02*
X0250478Y0119116D01*
X0250844Y0120714D02*
X0309581Y0120714D01*
X0309402Y0121147D02*
X0309886Y0119979D01*
X0310780Y0119085D01*
X0311948Y0118601D01*
X0313212Y0118601D01*
X0314380Y0119085D01*
X0315274Y0119979D01*
X0315758Y0121147D01*
X0315758Y0122411D01*
X0315274Y0123579D01*
X0314380Y0124473D01*
X0313212Y0124957D01*
X0311948Y0124957D01*
X0310780Y0124473D01*
X0309886Y0123579D01*
X0309402Y0122411D01*
X0309402Y0121147D01*
X0309402Y0122313D02*
X0257465Y0122313D01*
X0257143Y0121991D02*
X0258037Y0122885D01*
X0258521Y0124053D01*
X0258521Y0125317D01*
X0258037Y0126485D01*
X0257143Y0127379D01*
X0255975Y0127863D01*
X0254711Y0127863D01*
X0253543Y0127379D01*
X0252649Y0126485D01*
X0252165Y0125317D01*
X0252165Y0124053D01*
X0252649Y0122885D01*
X0253543Y0121991D01*
X0254711Y0121507D01*
X0255975Y0121507D01*
X0257143Y0121991D01*
X0258463Y0123911D02*
X0310219Y0123911D01*
X0314942Y0123911D02*
X0315379Y0123911D01*
X0315157Y0125510D02*
X0258441Y0125510D01*
X0257414Y0127108D02*
X0296029Y0127108D01*
X0298910Y0127108D02*
X0315871Y0127108D01*
X0316119Y0128707D02*
X0300768Y0128707D01*
X0301238Y0130305D02*
X0315177Y0130305D01*
X0315277Y0131904D02*
X0301004Y0131904D01*
X0299887Y0133502D02*
X0316359Y0133502D01*
X0320312Y0133502D02*
X0326113Y0133502D01*
X0325787Y0135101D02*
X0279661Y0135101D01*
X0279534Y0133502D02*
X0295052Y0133502D01*
X0293934Y0131904D02*
X0278659Y0131904D01*
X0279157Y0136699D02*
X0326257Y0136699D01*
X0325787Y0138298D02*
X0324238Y0138298D01*
X0325057Y0139896D02*
X0326119Y0139896D01*
X0325787Y0141495D02*
X0324879Y0141495D01*
X0324790Y0143093D02*
X0325975Y0143093D01*
X0325057Y0144692D02*
X0327155Y0144692D01*
X0324453Y0146290D02*
X0364850Y0146290D01*
X0364342Y0146080D02*
X0363161Y0144899D01*
X0362521Y0143355D01*
X0362521Y0141684D01*
X0363161Y0140141D01*
X0364342Y0138959D01*
X0365886Y0138320D01*
X0367557Y0138320D01*
X0369100Y0138959D01*
X0370282Y0140141D01*
X0370921Y0141684D01*
X0370921Y0143355D01*
X0370282Y0144899D01*
X0369100Y0146080D01*
X0367557Y0146720D01*
X0365886Y0146720D01*
X0364342Y0146080D01*
X0363075Y0144692D02*
X0330776Y0144692D01*
X0331955Y0143093D02*
X0362521Y0143093D01*
X0362600Y0141495D02*
X0332143Y0141495D01*
X0331812Y0139896D02*
X0363405Y0139896D01*
X0370038Y0139896D02*
X0393405Y0139896D01*
X0392600Y0141495D02*
X0370843Y0141495D01*
X0370921Y0143093D02*
X0392521Y0143093D01*
X0393075Y0144692D02*
X0370368Y0144692D01*
X0368593Y0146290D02*
X0394850Y0146290D01*
X0393814Y0149487D02*
X0369629Y0149487D01*
X0369100Y0148959D02*
X0370282Y0150141D01*
X0370921Y0151684D01*
X0370921Y0153355D01*
X0370282Y0154899D01*
X0369100Y0156080D01*
X0367557Y0156720D01*
X0365886Y0156720D01*
X0364342Y0156080D01*
X0363161Y0154899D01*
X0362521Y0153355D01*
X0362521Y0151684D01*
X0363161Y0150141D01*
X0364342Y0148959D01*
X0365886Y0148320D01*
X0367557Y0148320D01*
X0369100Y0148959D01*
X0370673Y0151086D02*
X0392769Y0151086D01*
X0392521Y0152684D02*
X0370921Y0152684D01*
X0370537Y0154283D02*
X0392906Y0154283D01*
X0394143Y0155882D02*
X0369299Y0155882D01*
X0364143Y0155882D02*
X0355578Y0155882D01*
X0353298Y0155882D02*
X0334086Y0155882D01*
X0333999Y0157480D02*
X0351191Y0157480D01*
X0350669Y0159079D02*
X0332924Y0159079D01*
X0331334Y0162276D02*
X0351896Y0162276D01*
X0350851Y0160677D02*
X0280643Y0160677D01*
X0316665Y0139896D02*
X0318701Y0139896D01*
X0319520Y0138298D02*
X0315576Y0138298D01*
X0315758Y0122313D02*
X0316709Y0122313D01*
X0315579Y0120714D02*
X0325078Y0120714D01*
X0325060Y0122313D02*
X0319962Y0122313D01*
X0314412Y0119116D02*
X0326103Y0119116D01*
X0330253Y0119116D02*
X0336000Y0119116D01*
X0337679Y0119116D02*
X0339194Y0119116D01*
X0338780Y0120714D02*
X0331278Y0120714D01*
X0331296Y0122313D02*
X0339166Y0122313D01*
X0330988Y0123911D02*
X0330296Y0123911D01*
X0334018Y0117517D02*
X0308067Y0117517D01*
X0308291Y0115919D02*
X0333661Y0115919D01*
X0334105Y0114320D02*
X0307584Y0114320D01*
X0306726Y0119116D02*
X0310749Y0119116D01*
X0339660Y0117517D02*
X0339744Y0117517D01*
X0341869Y0149487D02*
X0363814Y0149487D01*
X0362769Y0151086D02*
X0343967Y0151086D01*
X0344348Y0152684D02*
X0362521Y0152684D01*
X0362906Y0154283D02*
X0343928Y0154283D01*
X0336713Y0187852D02*
X0439976Y0187852D01*
X0439976Y0189450D02*
X0336868Y0189450D01*
X0335994Y0191049D02*
X0439976Y0191049D01*
X0439976Y0192647D02*
X0243123Y0192647D01*
X0243073Y0194246D02*
X0439976Y0194246D01*
X0439976Y0195844D02*
X0242025Y0195844D01*
X0242146Y0191049D02*
X0331386Y0191049D01*
X0354217Y0203837D02*
X0439976Y0203837D01*
X0439976Y0205435D02*
X0355410Y0205435D01*
X0356072Y0207034D02*
X0439976Y0207034D01*
X0439976Y0208632D02*
X0356356Y0208632D01*
X0356356Y0210231D02*
X0439976Y0210231D01*
X0439976Y0211829D02*
X0355988Y0211829D01*
X0355326Y0213428D02*
X0439976Y0213428D01*
X0439976Y0215026D02*
X0354015Y0215026D01*
X0351811Y0216625D02*
X0439976Y0216625D01*
X0439976Y0218223D02*
X0091432Y0218223D01*
X0091592Y0217837D02*
X0091108Y0219005D01*
X0090214Y0219899D01*
X0089046Y0220383D01*
X0087782Y0220383D01*
X0086614Y0219899D01*
X0085720Y0219005D01*
X0085236Y0217837D01*
X0085236Y0216573D01*
X0085720Y0215405D01*
X0086614Y0214511D01*
X0087782Y0214027D01*
X0089046Y0214027D01*
X0090214Y0214511D01*
X0091108Y0215405D01*
X0091592Y0216573D01*
X0091592Y0217837D01*
X0091592Y0216625D02*
X0105444Y0216625D01*
X0104415Y0215026D02*
X0090730Y0215026D01*
X0086098Y0215026D02*
X0074008Y0215026D01*
X0073495Y0214814D02*
X0074663Y0215298D01*
X0075557Y0216192D01*
X0076041Y0217360D01*
X0076041Y0218624D01*
X0075557Y0219792D01*
X0074663Y0220686D01*
X0073495Y0221170D01*
X0072231Y0221170D01*
X0071063Y0220686D01*
X0070169Y0219792D01*
X0069713Y0218693D01*
X0069258Y0219792D01*
X0068364Y0220686D01*
X0067196Y0221170D01*
X0065932Y0221170D01*
X0064764Y0220686D01*
X0063870Y0219792D01*
X0063414Y0218693D01*
X0062959Y0219792D01*
X0062065Y0220686D01*
X0060897Y0221170D01*
X0059632Y0221170D01*
X0058464Y0220686D01*
X0057570Y0219792D01*
X0057087Y0218624D01*
X0057087Y0218414D01*
X0056483Y0218414D01*
X0055315Y0217930D01*
X0054421Y0217036D01*
X0053937Y0215868D01*
X0053937Y0214604D01*
X0054421Y0213436D01*
X0055315Y0212542D01*
X0056483Y0212058D01*
X0057747Y0212058D01*
X0058915Y0212542D01*
X0059809Y0213436D01*
X0060265Y0214536D01*
X0060720Y0213436D01*
X0061614Y0212542D01*
X0062782Y0212058D01*
X0064046Y0212058D01*
X0065214Y0212542D01*
X0066108Y0213436D01*
X0066564Y0214536D01*
X0067019Y0213436D01*
X0067913Y0212542D01*
X0069081Y0212058D01*
X0070346Y0212058D01*
X0071514Y0212542D01*
X0072408Y0213436D01*
X0072891Y0214604D01*
X0072891Y0214814D01*
X0073495Y0214814D01*
X0072399Y0213428D02*
X0104094Y0213428D01*
X0104315Y0211829D02*
X0004568Y0211829D01*
X0004568Y0210231D02*
X0086395Y0210231D01*
X0086114Y0209950D02*
X0085630Y0208782D01*
X0085630Y0207517D01*
X0086114Y0206349D01*
X0087008Y0205455D01*
X0088176Y0204972D01*
X0089440Y0204972D01*
X0090608Y0205455D01*
X0091502Y0206349D01*
X0091986Y0207517D01*
X0091986Y0208782D01*
X0091502Y0209950D01*
X0090608Y0210844D01*
X0089440Y0211328D01*
X0088176Y0211328D01*
X0087008Y0210844D01*
X0086114Y0209950D01*
X0085630Y0208632D02*
X0004568Y0208632D01*
X0004568Y0207034D02*
X0085830Y0207034D01*
X0087056Y0205435D02*
X0004568Y0205435D01*
X0004568Y0203837D02*
X0104094Y0203837D01*
X0104146Y0202238D02*
X0084891Y0202238D01*
X0086144Y0200640D02*
X0104808Y0200640D01*
X0106726Y0199041D02*
X0086474Y0199041D01*
X0086100Y0197443D02*
X0106412Y0197443D01*
X0104754Y0195844D02*
X0084706Y0195844D01*
X0079267Y0200640D02*
X0004568Y0200640D01*
X0004568Y0202238D02*
X0080520Y0202238D01*
X0078937Y0199041D02*
X0004568Y0199041D01*
X0004568Y0213428D02*
X0054429Y0213428D01*
X0053937Y0215026D02*
X0004568Y0215026D01*
X0004568Y0216625D02*
X0054250Y0216625D01*
X0056022Y0218223D02*
X0052075Y0218223D01*
X0052616Y0218448D02*
X0053510Y0219342D01*
X0053994Y0220510D01*
X0053994Y0221774D01*
X0053510Y0222942D01*
X0052616Y0223836D01*
X0051448Y0224320D01*
X0050184Y0224320D01*
X0049016Y0223836D01*
X0048122Y0222942D01*
X0047638Y0221774D01*
X0047638Y0220510D01*
X0048122Y0219342D01*
X0049016Y0218448D01*
X0050184Y0217964D01*
X0051448Y0217964D01*
X0052616Y0218448D01*
X0053709Y0219822D02*
X0057600Y0219822D01*
X0053994Y0221420D02*
X0104474Y0221420D01*
X0104094Y0223019D02*
X0053433Y0223019D01*
X0048199Y0223019D02*
X0044713Y0223019D01*
X0044713Y0224617D02*
X0104276Y0224617D01*
X0105086Y0226216D02*
X0044713Y0226216D01*
X0044713Y0221420D02*
X0047638Y0221420D01*
X0047923Y0219822D02*
X0044713Y0219822D01*
X0044713Y0218223D02*
X0049557Y0218223D01*
X0059801Y0213428D02*
X0060728Y0213428D01*
X0066100Y0213428D02*
X0067027Y0213428D01*
X0069228Y0219822D02*
X0070199Y0219822D01*
X0075527Y0219822D02*
X0086537Y0219822D01*
X0085396Y0218223D02*
X0076041Y0218223D01*
X0075736Y0216625D02*
X0085236Y0216625D01*
X0090291Y0219822D02*
X0105611Y0219822D01*
X0108663Y0219822D02*
X0109031Y0219822D01*
X0109031Y0221420D02*
X0108663Y0221420D01*
X0108663Y0223019D02*
X0109031Y0223019D01*
X0109031Y0224617D02*
X0108663Y0224617D01*
X0108663Y0226216D02*
X0109031Y0226216D01*
X0105202Y0210231D02*
X0091221Y0210231D01*
X0091986Y0208632D02*
X0107713Y0208632D01*
X0109981Y0208632D02*
X0117713Y0208632D01*
X0105853Y0207034D02*
X0091786Y0207034D01*
X0090559Y0205435D02*
X0104584Y0205435D01*
X0105072Y0186253D02*
X0092742Y0186253D01*
X0092717Y0184655D02*
X0104261Y0184655D01*
X0104094Y0183056D02*
X0092055Y0183056D01*
X0090317Y0181458D02*
X0104469Y0181458D01*
X0105574Y0179859D02*
X0090369Y0179859D01*
X0112121Y0179859D02*
X0115574Y0179859D01*
X0114469Y0181458D02*
X0113226Y0181458D01*
X0113600Y0183056D02*
X0114094Y0183056D01*
X0114261Y0184655D02*
X0113433Y0184655D01*
X0112623Y0186253D02*
X0115072Y0186253D01*
X0063899Y0219822D02*
X0062929Y0219822D01*
X0044713Y0234209D02*
X0144326Y0234209D01*
X0142728Y0235807D02*
X0044713Y0235807D01*
X0044713Y0237406D02*
X0141992Y0237406D01*
X0141551Y0239004D02*
X0044713Y0239004D01*
X0044713Y0240603D02*
X0141551Y0240603D01*
X0141959Y0242201D02*
X0044713Y0242201D01*
X0044713Y0243800D02*
X0142649Y0243800D01*
X0144248Y0245398D02*
X0044713Y0245398D01*
X0044713Y0246997D02*
X0425855Y0246997D01*
X0424818Y0245398D02*
X0368663Y0245398D01*
X0370400Y0243800D02*
X0424156Y0243800D01*
X0423835Y0242201D02*
X0371320Y0242201D01*
X0371891Y0240603D02*
X0423835Y0240603D01*
X0424006Y0239004D02*
X0371891Y0239004D01*
X0371614Y0237406D02*
X0424668Y0237406D01*
X0425492Y0235807D02*
X0370952Y0235807D01*
X0369510Y0234209D02*
X0427091Y0234209D01*
X0439976Y0226216D02*
X0356713Y0226216D01*
X0356718Y0226247D02*
X0349057Y0226247D01*
X0349057Y0218586D01*
X0349917Y0218700D01*
X0350993Y0218988D01*
X0352021Y0219414D01*
X0352985Y0219970D01*
X0353868Y0220648D01*
X0354656Y0221435D01*
X0355333Y0222319D01*
X0355890Y0223283D01*
X0356316Y0224311D01*
X0356604Y0225387D01*
X0356718Y0226247D01*
X0356398Y0224617D02*
X0439976Y0224617D01*
X0439976Y0223019D02*
X0355738Y0223019D01*
X0354641Y0221420D02*
X0439976Y0221420D01*
X0439976Y0219822D02*
X0352728Y0219822D01*
X0349057Y0219822D02*
X0347457Y0219822D01*
X0347457Y0221420D02*
X0349057Y0221420D01*
X0349057Y0223019D02*
X0347457Y0223019D01*
X0347457Y0224617D02*
X0349057Y0224617D01*
X0349057Y0226216D02*
X0347457Y0226216D01*
X0347457Y0231012D02*
X0349057Y0231012D01*
X0349057Y0232610D02*
X0347457Y0232610D01*
X0347457Y0234209D02*
X0349057Y0234209D01*
X0358364Y0237406D02*
X0338149Y0237406D01*
X0338427Y0239004D02*
X0358087Y0239004D01*
X0358087Y0240603D02*
X0338427Y0240603D01*
X0337855Y0242201D02*
X0358658Y0242201D01*
X0359578Y0243800D02*
X0336935Y0243800D01*
X0335198Y0245398D02*
X0361315Y0245398D01*
X0327851Y0245398D02*
X0308171Y0245398D01*
X0307875Y0245694D02*
X0305338Y0246745D01*
X0302592Y0246745D01*
X0300055Y0245694D01*
X0298114Y0243752D01*
X0297063Y0241215D01*
X0297063Y0238470D01*
X0298114Y0235933D01*
X0300055Y0233991D01*
X0302592Y0232940D01*
X0305338Y0232940D01*
X0307875Y0233991D01*
X0309817Y0235933D01*
X0310868Y0238470D01*
X0310868Y0241215D01*
X0309817Y0243752D01*
X0307875Y0245694D01*
X0309770Y0243800D02*
X0326114Y0243800D01*
X0325193Y0242201D02*
X0310459Y0242201D01*
X0310868Y0240603D02*
X0324622Y0240603D01*
X0324622Y0239004D02*
X0310868Y0239004D01*
X0310427Y0237406D02*
X0324900Y0237406D01*
X0325562Y0235807D02*
X0309691Y0235807D01*
X0308093Y0234209D02*
X0327003Y0234209D01*
X0299838Y0234209D02*
X0292364Y0234209D01*
X0288753Y0235807D02*
X0298239Y0235807D01*
X0297504Y0237406D02*
X0276962Y0237406D01*
X0277403Y0238470D02*
X0276352Y0235933D01*
X0274411Y0233991D01*
X0271874Y0232940D01*
X0269128Y0232940D01*
X0266591Y0233991D01*
X0264649Y0235933D01*
X0263598Y0238470D01*
X0263598Y0241215D01*
X0264649Y0243752D01*
X0266591Y0245694D01*
X0269128Y0246745D01*
X0271874Y0246745D01*
X0274411Y0245694D01*
X0276352Y0243752D01*
X0277403Y0241215D01*
X0277403Y0238470D01*
X0277403Y0239004D02*
X0297063Y0239004D01*
X0297063Y0240603D02*
X0277403Y0240603D01*
X0276995Y0242201D02*
X0297471Y0242201D01*
X0298161Y0243800D02*
X0276305Y0243800D01*
X0274707Y0245398D02*
X0299760Y0245398D01*
X0288033Y0235807D02*
X0286433Y0235807D01*
X0285713Y0235807D02*
X0276227Y0235807D01*
X0274628Y0234209D02*
X0282102Y0234209D01*
X0280494Y0232610D02*
X0232948Y0232610D01*
X0233923Y0231012D02*
X0279519Y0231012D01*
X0278969Y0229413D02*
X0234474Y0229413D01*
X0234614Y0226216D02*
X0278828Y0226216D01*
X0279210Y0224617D02*
X0234233Y0224617D01*
X0233463Y0223019D02*
X0279979Y0223019D01*
X0281243Y0221420D02*
X0232200Y0221420D01*
X0229999Y0219822D02*
X0283444Y0219822D01*
X0286433Y0219822D02*
X0288033Y0219822D01*
X0288033Y0221420D02*
X0286433Y0221420D01*
X0286433Y0223019D02*
X0288033Y0223019D01*
X0288033Y0224617D02*
X0286433Y0224617D01*
X0286433Y0226216D02*
X0288033Y0226216D01*
X0288033Y0231012D02*
X0286433Y0231012D01*
X0286433Y0232610D02*
X0288033Y0232610D01*
X0288033Y0234209D02*
X0286433Y0234209D01*
X0266373Y0234209D02*
X0247069Y0234209D01*
X0246852Y0233991D02*
X0248793Y0235933D01*
X0249844Y0238470D01*
X0249844Y0241215D01*
X0248793Y0243752D01*
X0246852Y0245694D01*
X0244315Y0246745D01*
X0241569Y0246745D01*
X0239032Y0245694D01*
X0237090Y0243752D01*
X0236039Y0241215D01*
X0236039Y0238470D01*
X0237090Y0235933D01*
X0239032Y0233991D01*
X0241569Y0232940D01*
X0244315Y0232940D01*
X0246852Y0233991D01*
X0248668Y0235807D02*
X0264775Y0235807D01*
X0264039Y0237406D02*
X0249403Y0237406D01*
X0249844Y0239004D02*
X0263598Y0239004D01*
X0263598Y0240603D02*
X0249844Y0240603D01*
X0249436Y0242201D02*
X0264007Y0242201D01*
X0264696Y0243800D02*
X0248746Y0243800D01*
X0247148Y0245398D02*
X0266295Y0245398D01*
X0238736Y0245398D02*
X0213683Y0245398D01*
X0215281Y0243800D02*
X0237137Y0243800D01*
X0236448Y0242201D02*
X0215971Y0242201D01*
X0216380Y0240603D02*
X0236039Y0240603D01*
X0236039Y0239004D02*
X0216380Y0239004D01*
X0215939Y0237406D02*
X0236480Y0237406D01*
X0237216Y0235807D02*
X0227729Y0235807D01*
X0227009Y0235807D02*
X0225409Y0235807D01*
X0224690Y0235807D02*
X0215203Y0235807D01*
X0213605Y0234209D02*
X0221078Y0234209D01*
X0225409Y0234209D02*
X0227009Y0234209D01*
X0227009Y0232610D02*
X0225409Y0232610D01*
X0225409Y0231012D02*
X0227009Y0231012D01*
X0231341Y0234209D02*
X0238814Y0234209D01*
X0227009Y0226216D02*
X0225409Y0226216D01*
X0225409Y0224617D02*
X0227009Y0224617D01*
X0227009Y0223019D02*
X0225409Y0223019D01*
X0225409Y0221420D02*
X0227009Y0221420D01*
X0227009Y0219822D02*
X0225409Y0219822D01*
X0230714Y0216625D02*
X0282728Y0216625D01*
X0281081Y0215026D02*
X0232361Y0215026D01*
X0233442Y0213428D02*
X0280001Y0213428D01*
X0279338Y0211829D02*
X0234104Y0211829D01*
X0234309Y0210231D02*
X0279134Y0210231D01*
X0279134Y0208632D02*
X0234309Y0208632D01*
X0233862Y0207034D02*
X0279581Y0207034D01*
X0280243Y0205435D02*
X0233199Y0205435D01*
X0231776Y0203837D02*
X0281667Y0203837D01*
X0284142Y0202238D02*
X0229301Y0202238D01*
X0165986Y0229413D02*
X0164386Y0229413D01*
X0164386Y0231012D02*
X0165986Y0231012D01*
X0165986Y0232610D02*
X0164386Y0232610D01*
X0164386Y0234209D02*
X0165986Y0234209D01*
X0240091Y0127108D02*
X0253272Y0127108D01*
X0252245Y0125510D02*
X0241119Y0125510D01*
X0241140Y0123911D02*
X0244909Y0123911D01*
X0243645Y0122313D02*
X0240143Y0122313D01*
X0249242Y0123911D02*
X0252224Y0123911D01*
X0253221Y0122313D02*
X0250506Y0122313D01*
D22*
X0137036Y0094764D03*
X0137036Y0088071D03*
X0130934Y0088071D03*
X0130934Y0082165D03*
X0122666Y0102047D03*
X0122666Y0107165D03*
X0122666Y0112283D03*
D23*
X0078769Y0091614D03*
X0070501Y0067598D03*
M02*
