G75*
%MOIN*%
%OFA0B0*%
%FSLAX25Y25*%
%IPPOS*%
%LPD*%
%AMOC8*
5,1,8,0,0,1.08239X$1,22.5*
%
%ADD10C,0.13398*%
%ADD11OC8,0.06000*%
%ADD12OC8,0.06800*%
%ADD13C,0.05906*%
%ADD14C,0.06706*%
%ADD15C,0.06600*%
%ADD16C,0.07400*%
%ADD17C,0.04800*%
%ADD18C,0.05600*%
%ADD19C,0.09068*%
%ADD20C,0.12598*%
%ADD21C,0.13386*%
%ADD22C,0.14186*%
%ADD23C,0.06000*%
%ADD24C,0.06800*%
%ADD25C,0.07087*%
%ADD26C,0.07887*%
%ADD27C,0.13792*%
%ADD28C,0.06496*%
%ADD29C,0.07296*%
%ADD30C,0.05131*%
%ADD31C,0.16535*%
%ADD32C,0.17335*%
%ADD33C,0.16200*%
%ADD34C,0.17000*%
%ADD35C,0.03543*%
%ADD36C,0.04343*%
%ADD37C,0.02362*%
%ADD38C,0.04134*%
%ADD39C,0.04934*%
%ADD40C,0.04724*%
%ADD41C,0.05524*%
D10*
X0011643Y0028022D03*
X0165186Y0211093D03*
X0226209Y0211093D03*
X0287233Y0211093D03*
X0348257Y0210699D03*
X0432902Y0242589D03*
X0432902Y0028022D03*
X0011643Y0242589D03*
D11*
X0047942Y0187037D03*
X0057942Y0187037D03*
X0067942Y0187037D03*
X0077942Y0187037D03*
X0087942Y0187037D03*
X0087942Y0177037D03*
X0077942Y0177037D03*
X0067942Y0177037D03*
X0057942Y0177037D03*
X0047942Y0177037D03*
X0047942Y0157037D03*
X0057942Y0157037D03*
X0067942Y0157037D03*
X0077942Y0157037D03*
X0087942Y0157037D03*
X0097942Y0157037D03*
X0097942Y0147037D03*
X0087942Y0147037D03*
X0077942Y0147037D03*
X0067942Y0147037D03*
X0057942Y0147037D03*
X0047942Y0147037D03*
X0047942Y0127037D03*
X0057942Y0127037D03*
X0067942Y0127037D03*
X0077942Y0127037D03*
X0087942Y0127037D03*
X0097942Y0127037D03*
X0097942Y0117037D03*
X0087942Y0117037D03*
X0077942Y0117037D03*
X0067942Y0117037D03*
X0057942Y0117037D03*
X0047942Y0117037D03*
X0138257Y0173967D03*
X0148257Y0173967D03*
X0158257Y0173967D03*
X0158257Y0163967D03*
X0148257Y0163967D03*
X0257548Y0175738D03*
X0267548Y0175738D03*
X0277548Y0175738D03*
X0277548Y0165738D03*
X0267548Y0165738D03*
D12*
X0267548Y0165738D03*
X0277548Y0165738D03*
X0277548Y0175738D03*
X0267548Y0175738D03*
X0257548Y0175738D03*
X0158257Y0173967D03*
X0148257Y0173967D03*
X0138257Y0173967D03*
X0148257Y0163967D03*
X0158257Y0163967D03*
X0097942Y0157037D03*
X0087942Y0157037D03*
X0077942Y0157037D03*
X0067942Y0157037D03*
X0057942Y0157037D03*
X0047942Y0157037D03*
X0047942Y0147037D03*
X0057942Y0147037D03*
X0067942Y0147037D03*
X0077942Y0147037D03*
X0087942Y0147037D03*
X0097942Y0147037D03*
X0097942Y0127037D03*
X0087942Y0127037D03*
X0077942Y0127037D03*
X0067942Y0127037D03*
X0057942Y0127037D03*
X0047942Y0127037D03*
X0047942Y0117037D03*
X0057942Y0117037D03*
X0067942Y0117037D03*
X0077942Y0117037D03*
X0087942Y0117037D03*
X0097942Y0117037D03*
X0087942Y0177037D03*
X0077942Y0177037D03*
X0067942Y0177037D03*
X0057942Y0177037D03*
X0047942Y0177037D03*
X0047942Y0187037D03*
X0057942Y0187037D03*
X0067942Y0187037D03*
X0077942Y0187037D03*
X0087942Y0187037D03*
D13*
X0108847Y0184675D03*
X0118847Y0184675D03*
X0118847Y0194675D03*
X0108847Y0194675D03*
X0108847Y0204675D03*
X0118847Y0204675D03*
X0118847Y0214675D03*
X0108847Y0214675D03*
X0108847Y0224675D03*
X0118847Y0224675D03*
X0025894Y0177904D03*
X0015894Y0177904D03*
X0015894Y0167904D03*
X0025894Y0167904D03*
X0025894Y0157904D03*
X0015894Y0157904D03*
X0015894Y0147904D03*
X0025894Y0147904D03*
X0025894Y0137904D03*
X0015894Y0137904D03*
X0015894Y0127904D03*
X0025894Y0127904D03*
X0025894Y0117904D03*
X0015894Y0117904D03*
X0015894Y0107904D03*
X0025894Y0107904D03*
X0025894Y0097904D03*
X0015894Y0097904D03*
X0015894Y0087904D03*
X0025894Y0087904D03*
X0147312Y0141368D03*
D14*
X0147312Y0141368D03*
X0118847Y0184675D03*
X0108847Y0184675D03*
X0108847Y0194675D03*
X0118847Y0194675D03*
X0118847Y0204675D03*
X0108847Y0204675D03*
X0108847Y0214675D03*
X0118847Y0214675D03*
X0118847Y0224675D03*
X0108847Y0224675D03*
X0025894Y0177904D03*
X0015894Y0177904D03*
X0015894Y0167904D03*
X0025894Y0167904D03*
X0025894Y0157904D03*
X0015894Y0157904D03*
X0015894Y0147904D03*
X0025894Y0147904D03*
X0025894Y0137904D03*
X0015894Y0137904D03*
X0015894Y0127904D03*
X0025894Y0127904D03*
X0025894Y0117904D03*
X0015894Y0117904D03*
X0015894Y0107904D03*
X0025894Y0107904D03*
X0025894Y0097904D03*
X0015894Y0097904D03*
X0015894Y0087904D03*
X0025894Y0087904D03*
D15*
X0166997Y0141368D03*
D16*
X0166997Y0141368D03*
D17*
X0243613Y0145974D02*
X0248413Y0145974D01*
X0248413Y0135974D02*
X0243613Y0135974D01*
X0243613Y0125974D02*
X0248413Y0125974D01*
X0248413Y0115974D02*
X0243613Y0115974D01*
X0273613Y0115974D02*
X0278413Y0115974D01*
X0278413Y0125974D02*
X0273613Y0125974D01*
X0273613Y0135974D02*
X0278413Y0135974D01*
X0278413Y0145974D02*
X0273613Y0145974D01*
X0364203Y0143455D02*
X0369003Y0143455D01*
X0369003Y0153455D02*
X0364203Y0153455D01*
X0394203Y0153455D02*
X0399003Y0153455D01*
X0399003Y0143455D02*
X0394203Y0143455D01*
X0394203Y0133455D02*
X0399003Y0133455D01*
X0399003Y0123455D02*
X0394203Y0123455D01*
X0369003Y0123455D02*
X0364203Y0123455D01*
X0364203Y0133455D02*
X0369003Y0133455D01*
D18*
X0364203Y0133455D01*
X0364203Y0123455D02*
X0369003Y0123455D01*
X0394203Y0123455D02*
X0399003Y0123455D01*
X0399003Y0133455D02*
X0394203Y0133455D01*
X0394203Y0143455D02*
X0399003Y0143455D01*
X0399003Y0153455D02*
X0394203Y0153455D01*
X0369003Y0153455D02*
X0364203Y0153455D01*
X0364203Y0143455D02*
X0369003Y0143455D01*
X0278413Y0145974D02*
X0273613Y0145974D01*
X0273613Y0135974D02*
X0278413Y0135974D01*
X0278413Y0125974D02*
X0273613Y0125974D01*
X0273613Y0115974D02*
X0278413Y0115974D01*
X0248413Y0115974D02*
X0243613Y0115974D01*
X0243613Y0125974D02*
X0248413Y0125974D01*
X0248413Y0135974D02*
X0243613Y0135974D01*
X0243613Y0145974D02*
X0248413Y0145974D01*
D19*
X0242942Y0241211D03*
X0270501Y0241211D03*
X0303965Y0241211D03*
X0331524Y0240817D03*
X0364989Y0240817D03*
X0209477Y0241211D03*
X0181918Y0241211D03*
X0148454Y0241211D03*
D20*
X0165186Y0211093D03*
X0226209Y0211093D03*
X0287233Y0211093D03*
X0348257Y0210699D03*
D21*
X0348257Y0228415D03*
X0287233Y0228809D03*
X0226209Y0228809D03*
X0165186Y0228809D03*
D22*
X0165186Y0228809D03*
X0226209Y0228809D03*
X0287233Y0228809D03*
X0348257Y0228415D03*
D23*
X0257548Y0165738D03*
X0138257Y0163967D03*
D24*
X0138257Y0163967D03*
X0257548Y0165738D03*
D25*
X0295107Y0044557D03*
X0310855Y0028809D03*
X0326603Y0041604D03*
X0369123Y0044557D03*
X0384871Y0028809D03*
X0400619Y0041604D03*
X0249044Y0041604D03*
X0233296Y0028809D03*
X0217548Y0044557D03*
X0175028Y0041604D03*
X0159280Y0028809D03*
X0143532Y0044557D03*
D26*
X0143532Y0044557D03*
X0159280Y0028809D03*
X0175028Y0041604D03*
X0217548Y0044557D03*
X0233296Y0028809D03*
X0249044Y0041604D03*
X0295107Y0044557D03*
X0310855Y0028809D03*
X0326603Y0041604D03*
X0369123Y0044557D03*
X0384871Y0028809D03*
X0400619Y0041604D03*
D27*
X0413611Y0030778D03*
X0356131Y0030778D03*
X0339595Y0030778D03*
X0282115Y0030778D03*
X0262036Y0030778D03*
X0204556Y0030778D03*
X0188020Y0030778D03*
X0130540Y0030778D03*
D28*
X0102194Y0053612D03*
X0102194Y0063612D03*
X0102194Y0073612D03*
D29*
X0102194Y0073612D03*
X0102194Y0063612D03*
X0102194Y0053612D03*
D30*
X0102194Y0033612D03*
D31*
X0060855Y0061005D03*
D32*
X0060855Y0061005D03*
D33*
X0075665Y0048494D03*
X0060955Y0032183D03*
D34*
X0060955Y0032183D03*
X0075665Y0048494D03*
D35*
X0150306Y0091911D03*
X0172194Y0110343D03*
X0188020Y0131171D03*
X0206131Y0164636D03*
X0191564Y0176053D03*
X0167351Y0169360D03*
X0109674Y0150856D03*
X0109674Y0143770D03*
X0047272Y0194557D03*
X0061839Y0200463D03*
X0082706Y0200463D03*
X0242395Y0161845D03*
X0297469Y0131959D03*
X0295044Y0111518D03*
X0302981Y0091998D03*
X0325422Y0092195D03*
X0341170Y0091998D03*
X0349241Y0091998D03*
X0358493Y0091998D03*
X0272779Y0091811D03*
X0263724Y0081181D03*
X0236839Y0092195D03*
X0227391Y0092195D03*
X0219517Y0092195D03*
X0204950Y0092195D03*
X0248650Y0105187D03*
X0328965Y0166604D03*
X0328769Y0176329D03*
X0352115Y0169360D03*
X0354438Y0160856D03*
X0302194Y0178022D03*
D36*
X0302194Y0178022D03*
X0328769Y0176329D03*
X0328965Y0166604D03*
X0352115Y0169360D03*
X0354438Y0160856D03*
X0297469Y0131959D03*
X0295044Y0111518D03*
X0302981Y0091998D03*
X0325422Y0092195D03*
X0341170Y0091998D03*
X0349241Y0091998D03*
X0358493Y0091998D03*
X0272779Y0091811D03*
X0263724Y0081181D03*
X0236839Y0092195D03*
X0227391Y0092195D03*
X0219517Y0092195D03*
X0204950Y0092195D03*
X0172194Y0110343D03*
X0150306Y0091911D03*
X0188020Y0131171D03*
X0206131Y0164636D03*
X0191564Y0176053D03*
X0167351Y0169360D03*
X0109674Y0150856D03*
X0109674Y0143770D03*
X0047272Y0194557D03*
X0061839Y0200463D03*
X0082706Y0200463D03*
X0242395Y0161845D03*
X0248650Y0105187D03*
D37*
X0255343Y0121722D03*
X0238020Y0126053D03*
X0238020Y0134715D03*
X0238020Y0143376D03*
X0221879Y0131171D03*
X0222272Y0127234D03*
X0216761Y0120541D03*
X0205343Y0125659D03*
X0198257Y0125659D03*
X0195501Y0122904D03*
X0191957Y0123297D03*
X0177832Y0114783D03*
X0185658Y0113061D03*
X0176632Y0102983D03*
X0185106Y0088158D03*
X0173269Y0081139D03*
X0228965Y0088258D03*
X0298753Y0103183D03*
X0306682Y0114557D03*
X0305113Y0117712D03*
X0312580Y0123147D03*
X0318335Y0122904D03*
X0318335Y0126447D03*
X0321879Y0127234D03*
X0325422Y0128022D03*
X0328572Y0129596D03*
X0331721Y0128415D03*
X0328178Y0122904D03*
X0336839Y0120935D03*
X0336839Y0117392D03*
X0341957Y0116604D03*
X0341957Y0122116D03*
X0341957Y0129596D03*
X0328965Y0136289D03*
X0328965Y0139833D03*
X0328965Y0143376D03*
X0321879Y0141801D03*
X0321879Y0145738D03*
X0317942Y0145738D03*
X0313611Y0142195D03*
X0302981Y0148100D03*
X0308493Y0135108D03*
X0318335Y0132352D03*
X0338414Y0148100D03*
X0341170Y0154006D03*
X0330934Y0157943D03*
X0357902Y0153415D03*
X0358099Y0144163D03*
X0358099Y0135305D03*
X0358296Y0126250D03*
X0376603Y0087864D03*
X0334477Y0088652D03*
X0319910Y0081565D03*
X0310331Y0089178D03*
X0210068Y0143376D03*
X0209280Y0139439D03*
X0201406Y0142982D03*
X0199044Y0145738D03*
X0203769Y0146132D03*
X0193926Y0145738D03*
X0190383Y0145344D03*
X0180934Y0149281D03*
X0184871Y0152825D03*
X0196682Y0155974D03*
X0206524Y0156762D03*
X0218729Y0148100D03*
X0209280Y0135108D03*
X0176997Y0133927D03*
X0138020Y0146526D03*
X0114005Y0158730D03*
X0176997Y0178415D03*
X0185265Y0181171D03*
X0187233Y0184715D03*
X0180934Y0188258D03*
X0230277Y0161274D03*
X0245698Y0164833D03*
X0240847Y0173397D03*
X0246682Y0178415D03*
X0239989Y0194754D03*
X0325383Y0184045D03*
X0333690Y0190226D03*
X0088808Y0209518D03*
X0082312Y0210305D03*
X0088414Y0218573D03*
X0072863Y0219360D03*
X0069713Y0216604D03*
X0066564Y0219360D03*
X0063414Y0216604D03*
X0060265Y0219360D03*
X0057115Y0216604D03*
X0050816Y0222510D03*
X0041367Y0203612D03*
X0035068Y0203612D03*
X0028769Y0203612D03*
X0082312Y0239439D03*
X0044517Y0246132D03*
D38*
X0122666Y0113652D03*
X0122666Y0108533D03*
X0122666Y0103415D03*
X0137036Y0096132D03*
X0137036Y0089439D03*
X0130934Y0089439D03*
X0130934Y0083533D03*
D39*
X0130934Y0083533D03*
X0130934Y0089439D03*
X0137036Y0089439D03*
X0137036Y0096132D03*
X0122666Y0103415D03*
X0122666Y0108533D03*
X0122666Y0113652D03*
D40*
X0078769Y0092982D03*
X0070501Y0068967D03*
D41*
X0070501Y0068967D03*
X0078769Y0092982D03*
M02*
