G75*
%MOIN*%
%OFA0B0*%
%FSLAX25Y25*%
%IPPOS*%
%LPD*%
%AMOC8*
5,1,8,0,0,1.08239X$1,22.5*
%
%ADD10C,0.00000*%
D10*
X0001800Y0016811D02*
X0442745Y0016811D01*
X0442745Y0251063D01*
X0001800Y0251063D01*
X0001800Y0016811D01*
X0005344Y0026654D02*
X0005346Y0026812D01*
X0005352Y0026970D01*
X0005362Y0027128D01*
X0005376Y0027286D01*
X0005394Y0027443D01*
X0005415Y0027600D01*
X0005441Y0027756D01*
X0005471Y0027912D01*
X0005504Y0028067D01*
X0005542Y0028220D01*
X0005583Y0028373D01*
X0005628Y0028525D01*
X0005677Y0028676D01*
X0005730Y0028825D01*
X0005786Y0028973D01*
X0005846Y0029119D01*
X0005910Y0029264D01*
X0005978Y0029407D01*
X0006049Y0029549D01*
X0006123Y0029689D01*
X0006201Y0029826D01*
X0006283Y0029962D01*
X0006367Y0030096D01*
X0006456Y0030227D01*
X0006547Y0030356D01*
X0006642Y0030483D01*
X0006739Y0030608D01*
X0006840Y0030730D01*
X0006944Y0030849D01*
X0007051Y0030966D01*
X0007161Y0031080D01*
X0007274Y0031191D01*
X0007389Y0031300D01*
X0007507Y0031405D01*
X0007628Y0031507D01*
X0007751Y0031607D01*
X0007877Y0031703D01*
X0008005Y0031796D01*
X0008135Y0031886D01*
X0008268Y0031972D01*
X0008403Y0032056D01*
X0008539Y0032135D01*
X0008678Y0032212D01*
X0008819Y0032284D01*
X0008961Y0032354D01*
X0009105Y0032419D01*
X0009251Y0032481D01*
X0009398Y0032539D01*
X0009547Y0032594D01*
X0009697Y0032645D01*
X0009848Y0032692D01*
X0010000Y0032735D01*
X0010153Y0032774D01*
X0010308Y0032810D01*
X0010463Y0032841D01*
X0010619Y0032869D01*
X0010775Y0032893D01*
X0010932Y0032913D01*
X0011090Y0032929D01*
X0011247Y0032941D01*
X0011406Y0032949D01*
X0011564Y0032953D01*
X0011722Y0032953D01*
X0011880Y0032949D01*
X0012039Y0032941D01*
X0012196Y0032929D01*
X0012354Y0032913D01*
X0012511Y0032893D01*
X0012667Y0032869D01*
X0012823Y0032841D01*
X0012978Y0032810D01*
X0013133Y0032774D01*
X0013286Y0032735D01*
X0013438Y0032692D01*
X0013589Y0032645D01*
X0013739Y0032594D01*
X0013888Y0032539D01*
X0014035Y0032481D01*
X0014181Y0032419D01*
X0014325Y0032354D01*
X0014467Y0032284D01*
X0014608Y0032212D01*
X0014747Y0032135D01*
X0014883Y0032056D01*
X0015018Y0031972D01*
X0015151Y0031886D01*
X0015281Y0031796D01*
X0015409Y0031703D01*
X0015535Y0031607D01*
X0015658Y0031507D01*
X0015779Y0031405D01*
X0015897Y0031300D01*
X0016012Y0031191D01*
X0016125Y0031080D01*
X0016235Y0030966D01*
X0016342Y0030849D01*
X0016446Y0030730D01*
X0016547Y0030608D01*
X0016644Y0030483D01*
X0016739Y0030356D01*
X0016830Y0030227D01*
X0016919Y0030096D01*
X0017003Y0029962D01*
X0017085Y0029826D01*
X0017163Y0029689D01*
X0017237Y0029549D01*
X0017308Y0029407D01*
X0017376Y0029264D01*
X0017440Y0029119D01*
X0017500Y0028973D01*
X0017556Y0028825D01*
X0017609Y0028676D01*
X0017658Y0028525D01*
X0017703Y0028373D01*
X0017744Y0028220D01*
X0017782Y0028067D01*
X0017815Y0027912D01*
X0017845Y0027756D01*
X0017871Y0027600D01*
X0017892Y0027443D01*
X0017910Y0027286D01*
X0017924Y0027128D01*
X0017934Y0026970D01*
X0017940Y0026812D01*
X0017942Y0026654D01*
X0017940Y0026496D01*
X0017934Y0026338D01*
X0017924Y0026180D01*
X0017910Y0026022D01*
X0017892Y0025865D01*
X0017871Y0025708D01*
X0017845Y0025552D01*
X0017815Y0025396D01*
X0017782Y0025241D01*
X0017744Y0025088D01*
X0017703Y0024935D01*
X0017658Y0024783D01*
X0017609Y0024632D01*
X0017556Y0024483D01*
X0017500Y0024335D01*
X0017440Y0024189D01*
X0017376Y0024044D01*
X0017308Y0023901D01*
X0017237Y0023759D01*
X0017163Y0023619D01*
X0017085Y0023482D01*
X0017003Y0023346D01*
X0016919Y0023212D01*
X0016830Y0023081D01*
X0016739Y0022952D01*
X0016644Y0022825D01*
X0016547Y0022700D01*
X0016446Y0022578D01*
X0016342Y0022459D01*
X0016235Y0022342D01*
X0016125Y0022228D01*
X0016012Y0022117D01*
X0015897Y0022008D01*
X0015779Y0021903D01*
X0015658Y0021801D01*
X0015535Y0021701D01*
X0015409Y0021605D01*
X0015281Y0021512D01*
X0015151Y0021422D01*
X0015018Y0021336D01*
X0014883Y0021252D01*
X0014747Y0021173D01*
X0014608Y0021096D01*
X0014467Y0021024D01*
X0014325Y0020954D01*
X0014181Y0020889D01*
X0014035Y0020827D01*
X0013888Y0020769D01*
X0013739Y0020714D01*
X0013589Y0020663D01*
X0013438Y0020616D01*
X0013286Y0020573D01*
X0013133Y0020534D01*
X0012978Y0020498D01*
X0012823Y0020467D01*
X0012667Y0020439D01*
X0012511Y0020415D01*
X0012354Y0020395D01*
X0012196Y0020379D01*
X0012039Y0020367D01*
X0011880Y0020359D01*
X0011722Y0020355D01*
X0011564Y0020355D01*
X0011406Y0020359D01*
X0011247Y0020367D01*
X0011090Y0020379D01*
X0010932Y0020395D01*
X0010775Y0020415D01*
X0010619Y0020439D01*
X0010463Y0020467D01*
X0010308Y0020498D01*
X0010153Y0020534D01*
X0010000Y0020573D01*
X0009848Y0020616D01*
X0009697Y0020663D01*
X0009547Y0020714D01*
X0009398Y0020769D01*
X0009251Y0020827D01*
X0009105Y0020889D01*
X0008961Y0020954D01*
X0008819Y0021024D01*
X0008678Y0021096D01*
X0008539Y0021173D01*
X0008403Y0021252D01*
X0008268Y0021336D01*
X0008135Y0021422D01*
X0008005Y0021512D01*
X0007877Y0021605D01*
X0007751Y0021701D01*
X0007628Y0021801D01*
X0007507Y0021903D01*
X0007389Y0022008D01*
X0007274Y0022117D01*
X0007161Y0022228D01*
X0007051Y0022342D01*
X0006944Y0022459D01*
X0006840Y0022578D01*
X0006739Y0022700D01*
X0006642Y0022825D01*
X0006547Y0022952D01*
X0006456Y0023081D01*
X0006367Y0023212D01*
X0006283Y0023346D01*
X0006201Y0023482D01*
X0006123Y0023619D01*
X0006049Y0023759D01*
X0005978Y0023901D01*
X0005910Y0024044D01*
X0005846Y0024189D01*
X0005786Y0024335D01*
X0005730Y0024483D01*
X0005677Y0024632D01*
X0005628Y0024783D01*
X0005583Y0024935D01*
X0005542Y0025088D01*
X0005504Y0025241D01*
X0005471Y0025396D01*
X0005441Y0025552D01*
X0005415Y0025708D01*
X0005394Y0025865D01*
X0005376Y0026022D01*
X0005362Y0026180D01*
X0005352Y0026338D01*
X0005346Y0026496D01*
X0005344Y0026654D01*
X0100029Y0032244D02*
X0100031Y0032337D01*
X0100037Y0032429D01*
X0100047Y0032521D01*
X0100061Y0032612D01*
X0100078Y0032703D01*
X0100100Y0032793D01*
X0100125Y0032882D01*
X0100154Y0032970D01*
X0100187Y0033056D01*
X0100224Y0033141D01*
X0100264Y0033225D01*
X0100308Y0033306D01*
X0100355Y0033386D01*
X0100405Y0033464D01*
X0100459Y0033539D01*
X0100516Y0033612D01*
X0100576Y0033682D01*
X0100639Y0033750D01*
X0100705Y0033815D01*
X0100773Y0033877D01*
X0100844Y0033937D01*
X0100918Y0033993D01*
X0100994Y0034046D01*
X0101072Y0034095D01*
X0101152Y0034142D01*
X0101234Y0034184D01*
X0101318Y0034224D01*
X0101403Y0034259D01*
X0101490Y0034291D01*
X0101578Y0034320D01*
X0101667Y0034344D01*
X0101757Y0034365D01*
X0101848Y0034381D01*
X0101940Y0034394D01*
X0102032Y0034403D01*
X0102125Y0034408D01*
X0102217Y0034409D01*
X0102310Y0034406D01*
X0102402Y0034399D01*
X0102494Y0034388D01*
X0102585Y0034373D01*
X0102676Y0034355D01*
X0102766Y0034332D01*
X0102854Y0034306D01*
X0102942Y0034276D01*
X0103028Y0034242D01*
X0103112Y0034205D01*
X0103195Y0034163D01*
X0103276Y0034119D01*
X0103356Y0034071D01*
X0103433Y0034020D01*
X0103507Y0033965D01*
X0103580Y0033907D01*
X0103650Y0033847D01*
X0103717Y0033783D01*
X0103781Y0033717D01*
X0103843Y0033647D01*
X0103901Y0033576D01*
X0103956Y0033502D01*
X0104008Y0033425D01*
X0104057Y0033346D01*
X0104103Y0033266D01*
X0104145Y0033183D01*
X0104183Y0033099D01*
X0104218Y0033013D01*
X0104249Y0032926D01*
X0104276Y0032838D01*
X0104299Y0032748D01*
X0104319Y0032658D01*
X0104335Y0032567D01*
X0104347Y0032475D01*
X0104355Y0032383D01*
X0104359Y0032290D01*
X0104359Y0032198D01*
X0104355Y0032105D01*
X0104347Y0032013D01*
X0104335Y0031921D01*
X0104319Y0031830D01*
X0104299Y0031740D01*
X0104276Y0031650D01*
X0104249Y0031562D01*
X0104218Y0031475D01*
X0104183Y0031389D01*
X0104145Y0031305D01*
X0104103Y0031222D01*
X0104057Y0031142D01*
X0104008Y0031063D01*
X0103956Y0030986D01*
X0103901Y0030912D01*
X0103843Y0030841D01*
X0103781Y0030771D01*
X0103717Y0030705D01*
X0103650Y0030641D01*
X0103580Y0030581D01*
X0103507Y0030523D01*
X0103433Y0030468D01*
X0103356Y0030417D01*
X0103277Y0030369D01*
X0103195Y0030325D01*
X0103112Y0030283D01*
X0103028Y0030246D01*
X0102942Y0030212D01*
X0102854Y0030182D01*
X0102766Y0030156D01*
X0102676Y0030133D01*
X0102585Y0030115D01*
X0102494Y0030100D01*
X0102402Y0030089D01*
X0102310Y0030082D01*
X0102217Y0030079D01*
X0102125Y0030080D01*
X0102032Y0030085D01*
X0101940Y0030094D01*
X0101848Y0030107D01*
X0101757Y0030123D01*
X0101667Y0030144D01*
X0101578Y0030168D01*
X0101490Y0030197D01*
X0101403Y0030229D01*
X0101318Y0030264D01*
X0101234Y0030304D01*
X0101152Y0030346D01*
X0101072Y0030393D01*
X0100994Y0030442D01*
X0100918Y0030495D01*
X0100844Y0030551D01*
X0100773Y0030611D01*
X0100705Y0030673D01*
X0100639Y0030738D01*
X0100576Y0030806D01*
X0100516Y0030876D01*
X0100459Y0030949D01*
X0100405Y0031024D01*
X0100355Y0031102D01*
X0100308Y0031182D01*
X0100264Y0031263D01*
X0100224Y0031347D01*
X0100187Y0031432D01*
X0100154Y0031518D01*
X0100125Y0031606D01*
X0100100Y0031695D01*
X0100078Y0031785D01*
X0100061Y0031876D01*
X0100047Y0031967D01*
X0100037Y0032059D01*
X0100031Y0032151D01*
X0100029Y0032244D01*
X0124044Y0034134D02*
X0124046Y0034295D01*
X0124052Y0034455D01*
X0124062Y0034616D01*
X0124076Y0034776D01*
X0124094Y0034935D01*
X0124115Y0035095D01*
X0124141Y0035253D01*
X0124171Y0035411D01*
X0124204Y0035568D01*
X0124242Y0035725D01*
X0124283Y0035880D01*
X0124328Y0036034D01*
X0124377Y0036187D01*
X0124430Y0036339D01*
X0124486Y0036489D01*
X0124546Y0036638D01*
X0124610Y0036786D01*
X0124677Y0036932D01*
X0124748Y0037076D01*
X0124823Y0037218D01*
X0124901Y0037359D01*
X0124982Y0037497D01*
X0125067Y0037634D01*
X0125156Y0037768D01*
X0125247Y0037900D01*
X0125342Y0038030D01*
X0125440Y0038157D01*
X0125541Y0038282D01*
X0125645Y0038405D01*
X0125752Y0038524D01*
X0125862Y0038641D01*
X0125975Y0038756D01*
X0126091Y0038867D01*
X0126209Y0038976D01*
X0126330Y0039081D01*
X0126454Y0039184D01*
X0126580Y0039284D01*
X0126709Y0039380D01*
X0126840Y0039473D01*
X0126973Y0039563D01*
X0127108Y0039650D01*
X0127246Y0039733D01*
X0127385Y0039812D01*
X0127527Y0039889D01*
X0127670Y0039962D01*
X0127815Y0040031D01*
X0127962Y0040096D01*
X0128110Y0040158D01*
X0128260Y0040217D01*
X0128411Y0040271D01*
X0128563Y0040322D01*
X0128717Y0040369D01*
X0128872Y0040412D01*
X0129027Y0040451D01*
X0129184Y0040487D01*
X0129342Y0040519D01*
X0129500Y0040546D01*
X0129659Y0040570D01*
X0129818Y0040590D01*
X0129978Y0040606D01*
X0130139Y0040618D01*
X0130299Y0040626D01*
X0130460Y0040630D01*
X0130620Y0040630D01*
X0130781Y0040626D01*
X0130941Y0040618D01*
X0131102Y0040606D01*
X0131262Y0040590D01*
X0131421Y0040570D01*
X0131580Y0040546D01*
X0131738Y0040519D01*
X0131896Y0040487D01*
X0132053Y0040451D01*
X0132208Y0040412D01*
X0132363Y0040369D01*
X0132517Y0040322D01*
X0132669Y0040271D01*
X0132820Y0040217D01*
X0132970Y0040158D01*
X0133118Y0040096D01*
X0133265Y0040031D01*
X0133410Y0039962D01*
X0133553Y0039889D01*
X0133695Y0039812D01*
X0133834Y0039733D01*
X0133972Y0039650D01*
X0134107Y0039563D01*
X0134240Y0039473D01*
X0134371Y0039380D01*
X0134500Y0039284D01*
X0134626Y0039184D01*
X0134750Y0039081D01*
X0134871Y0038976D01*
X0134989Y0038867D01*
X0135105Y0038756D01*
X0135218Y0038641D01*
X0135328Y0038524D01*
X0135435Y0038405D01*
X0135539Y0038282D01*
X0135640Y0038157D01*
X0135738Y0038030D01*
X0135833Y0037900D01*
X0135924Y0037768D01*
X0136013Y0037634D01*
X0136098Y0037497D01*
X0136179Y0037359D01*
X0136257Y0037218D01*
X0136332Y0037076D01*
X0136403Y0036932D01*
X0136470Y0036786D01*
X0136534Y0036638D01*
X0136594Y0036489D01*
X0136650Y0036339D01*
X0136703Y0036187D01*
X0136752Y0036034D01*
X0136797Y0035880D01*
X0136838Y0035725D01*
X0136876Y0035568D01*
X0136909Y0035411D01*
X0136939Y0035253D01*
X0136965Y0035095D01*
X0136986Y0034935D01*
X0137004Y0034776D01*
X0137018Y0034616D01*
X0137028Y0034455D01*
X0137034Y0034295D01*
X0137036Y0034134D01*
X0137034Y0033973D01*
X0137028Y0033813D01*
X0137018Y0033652D01*
X0137004Y0033492D01*
X0136986Y0033333D01*
X0136965Y0033173D01*
X0136939Y0033015D01*
X0136909Y0032857D01*
X0136876Y0032700D01*
X0136838Y0032543D01*
X0136797Y0032388D01*
X0136752Y0032234D01*
X0136703Y0032081D01*
X0136650Y0031929D01*
X0136594Y0031779D01*
X0136534Y0031630D01*
X0136470Y0031482D01*
X0136403Y0031336D01*
X0136332Y0031192D01*
X0136257Y0031050D01*
X0136179Y0030909D01*
X0136098Y0030771D01*
X0136013Y0030634D01*
X0135924Y0030500D01*
X0135833Y0030368D01*
X0135738Y0030238D01*
X0135640Y0030111D01*
X0135539Y0029986D01*
X0135435Y0029863D01*
X0135328Y0029744D01*
X0135218Y0029627D01*
X0135105Y0029512D01*
X0134989Y0029401D01*
X0134871Y0029292D01*
X0134750Y0029187D01*
X0134626Y0029084D01*
X0134500Y0028984D01*
X0134371Y0028888D01*
X0134240Y0028795D01*
X0134107Y0028705D01*
X0133972Y0028618D01*
X0133834Y0028535D01*
X0133695Y0028456D01*
X0133553Y0028379D01*
X0133410Y0028306D01*
X0133265Y0028237D01*
X0133118Y0028172D01*
X0132970Y0028110D01*
X0132820Y0028051D01*
X0132669Y0027997D01*
X0132517Y0027946D01*
X0132363Y0027899D01*
X0132208Y0027856D01*
X0132053Y0027817D01*
X0131896Y0027781D01*
X0131738Y0027749D01*
X0131580Y0027722D01*
X0131421Y0027698D01*
X0131262Y0027678D01*
X0131102Y0027662D01*
X0130941Y0027650D01*
X0130781Y0027642D01*
X0130620Y0027638D01*
X0130460Y0027638D01*
X0130299Y0027642D01*
X0130139Y0027650D01*
X0129978Y0027662D01*
X0129818Y0027678D01*
X0129659Y0027698D01*
X0129500Y0027722D01*
X0129342Y0027749D01*
X0129184Y0027781D01*
X0129027Y0027817D01*
X0128872Y0027856D01*
X0128717Y0027899D01*
X0128563Y0027946D01*
X0128411Y0027997D01*
X0128260Y0028051D01*
X0128110Y0028110D01*
X0127962Y0028172D01*
X0127815Y0028237D01*
X0127670Y0028306D01*
X0127527Y0028379D01*
X0127385Y0028456D01*
X0127246Y0028535D01*
X0127108Y0028618D01*
X0126973Y0028705D01*
X0126840Y0028795D01*
X0126709Y0028888D01*
X0126580Y0028984D01*
X0126454Y0029084D01*
X0126330Y0029187D01*
X0126209Y0029292D01*
X0126091Y0029401D01*
X0125975Y0029512D01*
X0125862Y0029627D01*
X0125752Y0029744D01*
X0125645Y0029863D01*
X0125541Y0029986D01*
X0125440Y0030111D01*
X0125342Y0030238D01*
X0125247Y0030368D01*
X0125156Y0030500D01*
X0125067Y0030634D01*
X0124982Y0030771D01*
X0124901Y0030909D01*
X0124823Y0031050D01*
X0124748Y0031192D01*
X0124677Y0031336D01*
X0124610Y0031482D01*
X0124546Y0031630D01*
X0124486Y0031779D01*
X0124430Y0031929D01*
X0124377Y0032081D01*
X0124328Y0032234D01*
X0124283Y0032388D01*
X0124242Y0032543D01*
X0124204Y0032700D01*
X0124171Y0032857D01*
X0124141Y0033015D01*
X0124115Y0033173D01*
X0124094Y0033333D01*
X0124076Y0033492D01*
X0124062Y0033652D01*
X0124052Y0033813D01*
X0124046Y0033973D01*
X0124044Y0034134D01*
X0181524Y0034134D02*
X0181526Y0034295D01*
X0181532Y0034455D01*
X0181542Y0034616D01*
X0181556Y0034776D01*
X0181574Y0034935D01*
X0181595Y0035095D01*
X0181621Y0035253D01*
X0181651Y0035411D01*
X0181684Y0035568D01*
X0181722Y0035725D01*
X0181763Y0035880D01*
X0181808Y0036034D01*
X0181857Y0036187D01*
X0181910Y0036339D01*
X0181966Y0036489D01*
X0182026Y0036638D01*
X0182090Y0036786D01*
X0182157Y0036932D01*
X0182228Y0037076D01*
X0182303Y0037218D01*
X0182381Y0037359D01*
X0182462Y0037497D01*
X0182547Y0037634D01*
X0182636Y0037768D01*
X0182727Y0037900D01*
X0182822Y0038030D01*
X0182920Y0038157D01*
X0183021Y0038282D01*
X0183125Y0038405D01*
X0183232Y0038524D01*
X0183342Y0038641D01*
X0183455Y0038756D01*
X0183571Y0038867D01*
X0183689Y0038976D01*
X0183810Y0039081D01*
X0183934Y0039184D01*
X0184060Y0039284D01*
X0184189Y0039380D01*
X0184320Y0039473D01*
X0184453Y0039563D01*
X0184588Y0039650D01*
X0184726Y0039733D01*
X0184865Y0039812D01*
X0185007Y0039889D01*
X0185150Y0039962D01*
X0185295Y0040031D01*
X0185442Y0040096D01*
X0185590Y0040158D01*
X0185740Y0040217D01*
X0185891Y0040271D01*
X0186043Y0040322D01*
X0186197Y0040369D01*
X0186352Y0040412D01*
X0186507Y0040451D01*
X0186664Y0040487D01*
X0186822Y0040519D01*
X0186980Y0040546D01*
X0187139Y0040570D01*
X0187298Y0040590D01*
X0187458Y0040606D01*
X0187619Y0040618D01*
X0187779Y0040626D01*
X0187940Y0040630D01*
X0188100Y0040630D01*
X0188261Y0040626D01*
X0188421Y0040618D01*
X0188582Y0040606D01*
X0188742Y0040590D01*
X0188901Y0040570D01*
X0189060Y0040546D01*
X0189218Y0040519D01*
X0189376Y0040487D01*
X0189533Y0040451D01*
X0189688Y0040412D01*
X0189843Y0040369D01*
X0189997Y0040322D01*
X0190149Y0040271D01*
X0190300Y0040217D01*
X0190450Y0040158D01*
X0190598Y0040096D01*
X0190745Y0040031D01*
X0190890Y0039962D01*
X0191033Y0039889D01*
X0191175Y0039812D01*
X0191314Y0039733D01*
X0191452Y0039650D01*
X0191587Y0039563D01*
X0191720Y0039473D01*
X0191851Y0039380D01*
X0191980Y0039284D01*
X0192106Y0039184D01*
X0192230Y0039081D01*
X0192351Y0038976D01*
X0192469Y0038867D01*
X0192585Y0038756D01*
X0192698Y0038641D01*
X0192808Y0038524D01*
X0192915Y0038405D01*
X0193019Y0038282D01*
X0193120Y0038157D01*
X0193218Y0038030D01*
X0193313Y0037900D01*
X0193404Y0037768D01*
X0193493Y0037634D01*
X0193578Y0037497D01*
X0193659Y0037359D01*
X0193737Y0037218D01*
X0193812Y0037076D01*
X0193883Y0036932D01*
X0193950Y0036786D01*
X0194014Y0036638D01*
X0194074Y0036489D01*
X0194130Y0036339D01*
X0194183Y0036187D01*
X0194232Y0036034D01*
X0194277Y0035880D01*
X0194318Y0035725D01*
X0194356Y0035568D01*
X0194389Y0035411D01*
X0194419Y0035253D01*
X0194445Y0035095D01*
X0194466Y0034935D01*
X0194484Y0034776D01*
X0194498Y0034616D01*
X0194508Y0034455D01*
X0194514Y0034295D01*
X0194516Y0034134D01*
X0194514Y0033973D01*
X0194508Y0033813D01*
X0194498Y0033652D01*
X0194484Y0033492D01*
X0194466Y0033333D01*
X0194445Y0033173D01*
X0194419Y0033015D01*
X0194389Y0032857D01*
X0194356Y0032700D01*
X0194318Y0032543D01*
X0194277Y0032388D01*
X0194232Y0032234D01*
X0194183Y0032081D01*
X0194130Y0031929D01*
X0194074Y0031779D01*
X0194014Y0031630D01*
X0193950Y0031482D01*
X0193883Y0031336D01*
X0193812Y0031192D01*
X0193737Y0031050D01*
X0193659Y0030909D01*
X0193578Y0030771D01*
X0193493Y0030634D01*
X0193404Y0030500D01*
X0193313Y0030368D01*
X0193218Y0030238D01*
X0193120Y0030111D01*
X0193019Y0029986D01*
X0192915Y0029863D01*
X0192808Y0029744D01*
X0192698Y0029627D01*
X0192585Y0029512D01*
X0192469Y0029401D01*
X0192351Y0029292D01*
X0192230Y0029187D01*
X0192106Y0029084D01*
X0191980Y0028984D01*
X0191851Y0028888D01*
X0191720Y0028795D01*
X0191587Y0028705D01*
X0191452Y0028618D01*
X0191314Y0028535D01*
X0191175Y0028456D01*
X0191033Y0028379D01*
X0190890Y0028306D01*
X0190745Y0028237D01*
X0190598Y0028172D01*
X0190450Y0028110D01*
X0190300Y0028051D01*
X0190149Y0027997D01*
X0189997Y0027946D01*
X0189843Y0027899D01*
X0189688Y0027856D01*
X0189533Y0027817D01*
X0189376Y0027781D01*
X0189218Y0027749D01*
X0189060Y0027722D01*
X0188901Y0027698D01*
X0188742Y0027678D01*
X0188582Y0027662D01*
X0188421Y0027650D01*
X0188261Y0027642D01*
X0188100Y0027638D01*
X0187940Y0027638D01*
X0187779Y0027642D01*
X0187619Y0027650D01*
X0187458Y0027662D01*
X0187298Y0027678D01*
X0187139Y0027698D01*
X0186980Y0027722D01*
X0186822Y0027749D01*
X0186664Y0027781D01*
X0186507Y0027817D01*
X0186352Y0027856D01*
X0186197Y0027899D01*
X0186043Y0027946D01*
X0185891Y0027997D01*
X0185740Y0028051D01*
X0185590Y0028110D01*
X0185442Y0028172D01*
X0185295Y0028237D01*
X0185150Y0028306D01*
X0185007Y0028379D01*
X0184865Y0028456D01*
X0184726Y0028535D01*
X0184588Y0028618D01*
X0184453Y0028705D01*
X0184320Y0028795D01*
X0184189Y0028888D01*
X0184060Y0028984D01*
X0183934Y0029084D01*
X0183810Y0029187D01*
X0183689Y0029292D01*
X0183571Y0029401D01*
X0183455Y0029512D01*
X0183342Y0029627D01*
X0183232Y0029744D01*
X0183125Y0029863D01*
X0183021Y0029986D01*
X0182920Y0030111D01*
X0182822Y0030238D01*
X0182727Y0030368D01*
X0182636Y0030500D01*
X0182547Y0030634D01*
X0182462Y0030771D01*
X0182381Y0030909D01*
X0182303Y0031050D01*
X0182228Y0031192D01*
X0182157Y0031336D01*
X0182090Y0031482D01*
X0182026Y0031630D01*
X0181966Y0031779D01*
X0181910Y0031929D01*
X0181857Y0032081D01*
X0181808Y0032234D01*
X0181763Y0032388D01*
X0181722Y0032543D01*
X0181684Y0032700D01*
X0181651Y0032857D01*
X0181621Y0033015D01*
X0181595Y0033173D01*
X0181574Y0033333D01*
X0181556Y0033492D01*
X0181542Y0033652D01*
X0181532Y0033813D01*
X0181526Y0033973D01*
X0181524Y0034134D01*
X0198060Y0034134D02*
X0198062Y0034295D01*
X0198068Y0034455D01*
X0198078Y0034616D01*
X0198092Y0034776D01*
X0198110Y0034935D01*
X0198131Y0035095D01*
X0198157Y0035253D01*
X0198187Y0035411D01*
X0198220Y0035568D01*
X0198258Y0035725D01*
X0198299Y0035880D01*
X0198344Y0036034D01*
X0198393Y0036187D01*
X0198446Y0036339D01*
X0198502Y0036489D01*
X0198562Y0036638D01*
X0198626Y0036786D01*
X0198693Y0036932D01*
X0198764Y0037076D01*
X0198839Y0037218D01*
X0198917Y0037359D01*
X0198998Y0037497D01*
X0199083Y0037634D01*
X0199172Y0037768D01*
X0199263Y0037900D01*
X0199358Y0038030D01*
X0199456Y0038157D01*
X0199557Y0038282D01*
X0199661Y0038405D01*
X0199768Y0038524D01*
X0199878Y0038641D01*
X0199991Y0038756D01*
X0200107Y0038867D01*
X0200225Y0038976D01*
X0200346Y0039081D01*
X0200470Y0039184D01*
X0200596Y0039284D01*
X0200725Y0039380D01*
X0200856Y0039473D01*
X0200989Y0039563D01*
X0201124Y0039650D01*
X0201262Y0039733D01*
X0201401Y0039812D01*
X0201543Y0039889D01*
X0201686Y0039962D01*
X0201831Y0040031D01*
X0201978Y0040096D01*
X0202126Y0040158D01*
X0202276Y0040217D01*
X0202427Y0040271D01*
X0202579Y0040322D01*
X0202733Y0040369D01*
X0202888Y0040412D01*
X0203043Y0040451D01*
X0203200Y0040487D01*
X0203358Y0040519D01*
X0203516Y0040546D01*
X0203675Y0040570D01*
X0203834Y0040590D01*
X0203994Y0040606D01*
X0204155Y0040618D01*
X0204315Y0040626D01*
X0204476Y0040630D01*
X0204636Y0040630D01*
X0204797Y0040626D01*
X0204957Y0040618D01*
X0205118Y0040606D01*
X0205278Y0040590D01*
X0205437Y0040570D01*
X0205596Y0040546D01*
X0205754Y0040519D01*
X0205912Y0040487D01*
X0206069Y0040451D01*
X0206224Y0040412D01*
X0206379Y0040369D01*
X0206533Y0040322D01*
X0206685Y0040271D01*
X0206836Y0040217D01*
X0206986Y0040158D01*
X0207134Y0040096D01*
X0207281Y0040031D01*
X0207426Y0039962D01*
X0207569Y0039889D01*
X0207711Y0039812D01*
X0207850Y0039733D01*
X0207988Y0039650D01*
X0208123Y0039563D01*
X0208256Y0039473D01*
X0208387Y0039380D01*
X0208516Y0039284D01*
X0208642Y0039184D01*
X0208766Y0039081D01*
X0208887Y0038976D01*
X0209005Y0038867D01*
X0209121Y0038756D01*
X0209234Y0038641D01*
X0209344Y0038524D01*
X0209451Y0038405D01*
X0209555Y0038282D01*
X0209656Y0038157D01*
X0209754Y0038030D01*
X0209849Y0037900D01*
X0209940Y0037768D01*
X0210029Y0037634D01*
X0210114Y0037497D01*
X0210195Y0037359D01*
X0210273Y0037218D01*
X0210348Y0037076D01*
X0210419Y0036932D01*
X0210486Y0036786D01*
X0210550Y0036638D01*
X0210610Y0036489D01*
X0210666Y0036339D01*
X0210719Y0036187D01*
X0210768Y0036034D01*
X0210813Y0035880D01*
X0210854Y0035725D01*
X0210892Y0035568D01*
X0210925Y0035411D01*
X0210955Y0035253D01*
X0210981Y0035095D01*
X0211002Y0034935D01*
X0211020Y0034776D01*
X0211034Y0034616D01*
X0211044Y0034455D01*
X0211050Y0034295D01*
X0211052Y0034134D01*
X0211050Y0033973D01*
X0211044Y0033813D01*
X0211034Y0033652D01*
X0211020Y0033492D01*
X0211002Y0033333D01*
X0210981Y0033173D01*
X0210955Y0033015D01*
X0210925Y0032857D01*
X0210892Y0032700D01*
X0210854Y0032543D01*
X0210813Y0032388D01*
X0210768Y0032234D01*
X0210719Y0032081D01*
X0210666Y0031929D01*
X0210610Y0031779D01*
X0210550Y0031630D01*
X0210486Y0031482D01*
X0210419Y0031336D01*
X0210348Y0031192D01*
X0210273Y0031050D01*
X0210195Y0030909D01*
X0210114Y0030771D01*
X0210029Y0030634D01*
X0209940Y0030500D01*
X0209849Y0030368D01*
X0209754Y0030238D01*
X0209656Y0030111D01*
X0209555Y0029986D01*
X0209451Y0029863D01*
X0209344Y0029744D01*
X0209234Y0029627D01*
X0209121Y0029512D01*
X0209005Y0029401D01*
X0208887Y0029292D01*
X0208766Y0029187D01*
X0208642Y0029084D01*
X0208516Y0028984D01*
X0208387Y0028888D01*
X0208256Y0028795D01*
X0208123Y0028705D01*
X0207988Y0028618D01*
X0207850Y0028535D01*
X0207711Y0028456D01*
X0207569Y0028379D01*
X0207426Y0028306D01*
X0207281Y0028237D01*
X0207134Y0028172D01*
X0206986Y0028110D01*
X0206836Y0028051D01*
X0206685Y0027997D01*
X0206533Y0027946D01*
X0206379Y0027899D01*
X0206224Y0027856D01*
X0206069Y0027817D01*
X0205912Y0027781D01*
X0205754Y0027749D01*
X0205596Y0027722D01*
X0205437Y0027698D01*
X0205278Y0027678D01*
X0205118Y0027662D01*
X0204957Y0027650D01*
X0204797Y0027642D01*
X0204636Y0027638D01*
X0204476Y0027638D01*
X0204315Y0027642D01*
X0204155Y0027650D01*
X0203994Y0027662D01*
X0203834Y0027678D01*
X0203675Y0027698D01*
X0203516Y0027722D01*
X0203358Y0027749D01*
X0203200Y0027781D01*
X0203043Y0027817D01*
X0202888Y0027856D01*
X0202733Y0027899D01*
X0202579Y0027946D01*
X0202427Y0027997D01*
X0202276Y0028051D01*
X0202126Y0028110D01*
X0201978Y0028172D01*
X0201831Y0028237D01*
X0201686Y0028306D01*
X0201543Y0028379D01*
X0201401Y0028456D01*
X0201262Y0028535D01*
X0201124Y0028618D01*
X0200989Y0028705D01*
X0200856Y0028795D01*
X0200725Y0028888D01*
X0200596Y0028984D01*
X0200470Y0029084D01*
X0200346Y0029187D01*
X0200225Y0029292D01*
X0200107Y0029401D01*
X0199991Y0029512D01*
X0199878Y0029627D01*
X0199768Y0029744D01*
X0199661Y0029863D01*
X0199557Y0029986D01*
X0199456Y0030111D01*
X0199358Y0030238D01*
X0199263Y0030368D01*
X0199172Y0030500D01*
X0199083Y0030634D01*
X0198998Y0030771D01*
X0198917Y0030909D01*
X0198839Y0031050D01*
X0198764Y0031192D01*
X0198693Y0031336D01*
X0198626Y0031482D01*
X0198562Y0031630D01*
X0198502Y0031779D01*
X0198446Y0031929D01*
X0198393Y0032081D01*
X0198344Y0032234D01*
X0198299Y0032388D01*
X0198258Y0032543D01*
X0198220Y0032700D01*
X0198187Y0032857D01*
X0198157Y0033015D01*
X0198131Y0033173D01*
X0198110Y0033333D01*
X0198092Y0033492D01*
X0198078Y0033652D01*
X0198068Y0033813D01*
X0198062Y0033973D01*
X0198060Y0034134D01*
X0255540Y0034134D02*
X0255542Y0034295D01*
X0255548Y0034455D01*
X0255558Y0034616D01*
X0255572Y0034776D01*
X0255590Y0034935D01*
X0255611Y0035095D01*
X0255637Y0035253D01*
X0255667Y0035411D01*
X0255700Y0035568D01*
X0255738Y0035725D01*
X0255779Y0035880D01*
X0255824Y0036034D01*
X0255873Y0036187D01*
X0255926Y0036339D01*
X0255982Y0036489D01*
X0256042Y0036638D01*
X0256106Y0036786D01*
X0256173Y0036932D01*
X0256244Y0037076D01*
X0256319Y0037218D01*
X0256397Y0037359D01*
X0256478Y0037497D01*
X0256563Y0037634D01*
X0256652Y0037768D01*
X0256743Y0037900D01*
X0256838Y0038030D01*
X0256936Y0038157D01*
X0257037Y0038282D01*
X0257141Y0038405D01*
X0257248Y0038524D01*
X0257358Y0038641D01*
X0257471Y0038756D01*
X0257587Y0038867D01*
X0257705Y0038976D01*
X0257826Y0039081D01*
X0257950Y0039184D01*
X0258076Y0039284D01*
X0258205Y0039380D01*
X0258336Y0039473D01*
X0258469Y0039563D01*
X0258604Y0039650D01*
X0258742Y0039733D01*
X0258881Y0039812D01*
X0259023Y0039889D01*
X0259166Y0039962D01*
X0259311Y0040031D01*
X0259458Y0040096D01*
X0259606Y0040158D01*
X0259756Y0040217D01*
X0259907Y0040271D01*
X0260059Y0040322D01*
X0260213Y0040369D01*
X0260368Y0040412D01*
X0260523Y0040451D01*
X0260680Y0040487D01*
X0260838Y0040519D01*
X0260996Y0040546D01*
X0261155Y0040570D01*
X0261314Y0040590D01*
X0261474Y0040606D01*
X0261635Y0040618D01*
X0261795Y0040626D01*
X0261956Y0040630D01*
X0262116Y0040630D01*
X0262277Y0040626D01*
X0262437Y0040618D01*
X0262598Y0040606D01*
X0262758Y0040590D01*
X0262917Y0040570D01*
X0263076Y0040546D01*
X0263234Y0040519D01*
X0263392Y0040487D01*
X0263549Y0040451D01*
X0263704Y0040412D01*
X0263859Y0040369D01*
X0264013Y0040322D01*
X0264165Y0040271D01*
X0264316Y0040217D01*
X0264466Y0040158D01*
X0264614Y0040096D01*
X0264761Y0040031D01*
X0264906Y0039962D01*
X0265049Y0039889D01*
X0265191Y0039812D01*
X0265330Y0039733D01*
X0265468Y0039650D01*
X0265603Y0039563D01*
X0265736Y0039473D01*
X0265867Y0039380D01*
X0265996Y0039284D01*
X0266122Y0039184D01*
X0266246Y0039081D01*
X0266367Y0038976D01*
X0266485Y0038867D01*
X0266601Y0038756D01*
X0266714Y0038641D01*
X0266824Y0038524D01*
X0266931Y0038405D01*
X0267035Y0038282D01*
X0267136Y0038157D01*
X0267234Y0038030D01*
X0267329Y0037900D01*
X0267420Y0037768D01*
X0267509Y0037634D01*
X0267594Y0037497D01*
X0267675Y0037359D01*
X0267753Y0037218D01*
X0267828Y0037076D01*
X0267899Y0036932D01*
X0267966Y0036786D01*
X0268030Y0036638D01*
X0268090Y0036489D01*
X0268146Y0036339D01*
X0268199Y0036187D01*
X0268248Y0036034D01*
X0268293Y0035880D01*
X0268334Y0035725D01*
X0268372Y0035568D01*
X0268405Y0035411D01*
X0268435Y0035253D01*
X0268461Y0035095D01*
X0268482Y0034935D01*
X0268500Y0034776D01*
X0268514Y0034616D01*
X0268524Y0034455D01*
X0268530Y0034295D01*
X0268532Y0034134D01*
X0268530Y0033973D01*
X0268524Y0033813D01*
X0268514Y0033652D01*
X0268500Y0033492D01*
X0268482Y0033333D01*
X0268461Y0033173D01*
X0268435Y0033015D01*
X0268405Y0032857D01*
X0268372Y0032700D01*
X0268334Y0032543D01*
X0268293Y0032388D01*
X0268248Y0032234D01*
X0268199Y0032081D01*
X0268146Y0031929D01*
X0268090Y0031779D01*
X0268030Y0031630D01*
X0267966Y0031482D01*
X0267899Y0031336D01*
X0267828Y0031192D01*
X0267753Y0031050D01*
X0267675Y0030909D01*
X0267594Y0030771D01*
X0267509Y0030634D01*
X0267420Y0030500D01*
X0267329Y0030368D01*
X0267234Y0030238D01*
X0267136Y0030111D01*
X0267035Y0029986D01*
X0266931Y0029863D01*
X0266824Y0029744D01*
X0266714Y0029627D01*
X0266601Y0029512D01*
X0266485Y0029401D01*
X0266367Y0029292D01*
X0266246Y0029187D01*
X0266122Y0029084D01*
X0265996Y0028984D01*
X0265867Y0028888D01*
X0265736Y0028795D01*
X0265603Y0028705D01*
X0265468Y0028618D01*
X0265330Y0028535D01*
X0265191Y0028456D01*
X0265049Y0028379D01*
X0264906Y0028306D01*
X0264761Y0028237D01*
X0264614Y0028172D01*
X0264466Y0028110D01*
X0264316Y0028051D01*
X0264165Y0027997D01*
X0264013Y0027946D01*
X0263859Y0027899D01*
X0263704Y0027856D01*
X0263549Y0027817D01*
X0263392Y0027781D01*
X0263234Y0027749D01*
X0263076Y0027722D01*
X0262917Y0027698D01*
X0262758Y0027678D01*
X0262598Y0027662D01*
X0262437Y0027650D01*
X0262277Y0027642D01*
X0262116Y0027638D01*
X0261956Y0027638D01*
X0261795Y0027642D01*
X0261635Y0027650D01*
X0261474Y0027662D01*
X0261314Y0027678D01*
X0261155Y0027698D01*
X0260996Y0027722D01*
X0260838Y0027749D01*
X0260680Y0027781D01*
X0260523Y0027817D01*
X0260368Y0027856D01*
X0260213Y0027899D01*
X0260059Y0027946D01*
X0259907Y0027997D01*
X0259756Y0028051D01*
X0259606Y0028110D01*
X0259458Y0028172D01*
X0259311Y0028237D01*
X0259166Y0028306D01*
X0259023Y0028379D01*
X0258881Y0028456D01*
X0258742Y0028535D01*
X0258604Y0028618D01*
X0258469Y0028705D01*
X0258336Y0028795D01*
X0258205Y0028888D01*
X0258076Y0028984D01*
X0257950Y0029084D01*
X0257826Y0029187D01*
X0257705Y0029292D01*
X0257587Y0029401D01*
X0257471Y0029512D01*
X0257358Y0029627D01*
X0257248Y0029744D01*
X0257141Y0029863D01*
X0257037Y0029986D01*
X0256936Y0030111D01*
X0256838Y0030238D01*
X0256743Y0030368D01*
X0256652Y0030500D01*
X0256563Y0030634D01*
X0256478Y0030771D01*
X0256397Y0030909D01*
X0256319Y0031050D01*
X0256244Y0031192D01*
X0256173Y0031336D01*
X0256106Y0031482D01*
X0256042Y0031630D01*
X0255982Y0031779D01*
X0255926Y0031929D01*
X0255873Y0032081D01*
X0255824Y0032234D01*
X0255779Y0032388D01*
X0255738Y0032543D01*
X0255700Y0032700D01*
X0255667Y0032857D01*
X0255637Y0033015D01*
X0255611Y0033173D01*
X0255590Y0033333D01*
X0255572Y0033492D01*
X0255558Y0033652D01*
X0255548Y0033813D01*
X0255542Y0033973D01*
X0255540Y0034134D01*
X0275619Y0034134D02*
X0275621Y0034295D01*
X0275627Y0034455D01*
X0275637Y0034616D01*
X0275651Y0034776D01*
X0275669Y0034935D01*
X0275690Y0035095D01*
X0275716Y0035253D01*
X0275746Y0035411D01*
X0275779Y0035568D01*
X0275817Y0035725D01*
X0275858Y0035880D01*
X0275903Y0036034D01*
X0275952Y0036187D01*
X0276005Y0036339D01*
X0276061Y0036489D01*
X0276121Y0036638D01*
X0276185Y0036786D01*
X0276252Y0036932D01*
X0276323Y0037076D01*
X0276398Y0037218D01*
X0276476Y0037359D01*
X0276557Y0037497D01*
X0276642Y0037634D01*
X0276731Y0037768D01*
X0276822Y0037900D01*
X0276917Y0038030D01*
X0277015Y0038157D01*
X0277116Y0038282D01*
X0277220Y0038405D01*
X0277327Y0038524D01*
X0277437Y0038641D01*
X0277550Y0038756D01*
X0277666Y0038867D01*
X0277784Y0038976D01*
X0277905Y0039081D01*
X0278029Y0039184D01*
X0278155Y0039284D01*
X0278284Y0039380D01*
X0278415Y0039473D01*
X0278548Y0039563D01*
X0278683Y0039650D01*
X0278821Y0039733D01*
X0278960Y0039812D01*
X0279102Y0039889D01*
X0279245Y0039962D01*
X0279390Y0040031D01*
X0279537Y0040096D01*
X0279685Y0040158D01*
X0279835Y0040217D01*
X0279986Y0040271D01*
X0280138Y0040322D01*
X0280292Y0040369D01*
X0280447Y0040412D01*
X0280602Y0040451D01*
X0280759Y0040487D01*
X0280917Y0040519D01*
X0281075Y0040546D01*
X0281234Y0040570D01*
X0281393Y0040590D01*
X0281553Y0040606D01*
X0281714Y0040618D01*
X0281874Y0040626D01*
X0282035Y0040630D01*
X0282195Y0040630D01*
X0282356Y0040626D01*
X0282516Y0040618D01*
X0282677Y0040606D01*
X0282837Y0040590D01*
X0282996Y0040570D01*
X0283155Y0040546D01*
X0283313Y0040519D01*
X0283471Y0040487D01*
X0283628Y0040451D01*
X0283783Y0040412D01*
X0283938Y0040369D01*
X0284092Y0040322D01*
X0284244Y0040271D01*
X0284395Y0040217D01*
X0284545Y0040158D01*
X0284693Y0040096D01*
X0284840Y0040031D01*
X0284985Y0039962D01*
X0285128Y0039889D01*
X0285270Y0039812D01*
X0285409Y0039733D01*
X0285547Y0039650D01*
X0285682Y0039563D01*
X0285815Y0039473D01*
X0285946Y0039380D01*
X0286075Y0039284D01*
X0286201Y0039184D01*
X0286325Y0039081D01*
X0286446Y0038976D01*
X0286564Y0038867D01*
X0286680Y0038756D01*
X0286793Y0038641D01*
X0286903Y0038524D01*
X0287010Y0038405D01*
X0287114Y0038282D01*
X0287215Y0038157D01*
X0287313Y0038030D01*
X0287408Y0037900D01*
X0287499Y0037768D01*
X0287588Y0037634D01*
X0287673Y0037497D01*
X0287754Y0037359D01*
X0287832Y0037218D01*
X0287907Y0037076D01*
X0287978Y0036932D01*
X0288045Y0036786D01*
X0288109Y0036638D01*
X0288169Y0036489D01*
X0288225Y0036339D01*
X0288278Y0036187D01*
X0288327Y0036034D01*
X0288372Y0035880D01*
X0288413Y0035725D01*
X0288451Y0035568D01*
X0288484Y0035411D01*
X0288514Y0035253D01*
X0288540Y0035095D01*
X0288561Y0034935D01*
X0288579Y0034776D01*
X0288593Y0034616D01*
X0288603Y0034455D01*
X0288609Y0034295D01*
X0288611Y0034134D01*
X0288609Y0033973D01*
X0288603Y0033813D01*
X0288593Y0033652D01*
X0288579Y0033492D01*
X0288561Y0033333D01*
X0288540Y0033173D01*
X0288514Y0033015D01*
X0288484Y0032857D01*
X0288451Y0032700D01*
X0288413Y0032543D01*
X0288372Y0032388D01*
X0288327Y0032234D01*
X0288278Y0032081D01*
X0288225Y0031929D01*
X0288169Y0031779D01*
X0288109Y0031630D01*
X0288045Y0031482D01*
X0287978Y0031336D01*
X0287907Y0031192D01*
X0287832Y0031050D01*
X0287754Y0030909D01*
X0287673Y0030771D01*
X0287588Y0030634D01*
X0287499Y0030500D01*
X0287408Y0030368D01*
X0287313Y0030238D01*
X0287215Y0030111D01*
X0287114Y0029986D01*
X0287010Y0029863D01*
X0286903Y0029744D01*
X0286793Y0029627D01*
X0286680Y0029512D01*
X0286564Y0029401D01*
X0286446Y0029292D01*
X0286325Y0029187D01*
X0286201Y0029084D01*
X0286075Y0028984D01*
X0285946Y0028888D01*
X0285815Y0028795D01*
X0285682Y0028705D01*
X0285547Y0028618D01*
X0285409Y0028535D01*
X0285270Y0028456D01*
X0285128Y0028379D01*
X0284985Y0028306D01*
X0284840Y0028237D01*
X0284693Y0028172D01*
X0284545Y0028110D01*
X0284395Y0028051D01*
X0284244Y0027997D01*
X0284092Y0027946D01*
X0283938Y0027899D01*
X0283783Y0027856D01*
X0283628Y0027817D01*
X0283471Y0027781D01*
X0283313Y0027749D01*
X0283155Y0027722D01*
X0282996Y0027698D01*
X0282837Y0027678D01*
X0282677Y0027662D01*
X0282516Y0027650D01*
X0282356Y0027642D01*
X0282195Y0027638D01*
X0282035Y0027638D01*
X0281874Y0027642D01*
X0281714Y0027650D01*
X0281553Y0027662D01*
X0281393Y0027678D01*
X0281234Y0027698D01*
X0281075Y0027722D01*
X0280917Y0027749D01*
X0280759Y0027781D01*
X0280602Y0027817D01*
X0280447Y0027856D01*
X0280292Y0027899D01*
X0280138Y0027946D01*
X0279986Y0027997D01*
X0279835Y0028051D01*
X0279685Y0028110D01*
X0279537Y0028172D01*
X0279390Y0028237D01*
X0279245Y0028306D01*
X0279102Y0028379D01*
X0278960Y0028456D01*
X0278821Y0028535D01*
X0278683Y0028618D01*
X0278548Y0028705D01*
X0278415Y0028795D01*
X0278284Y0028888D01*
X0278155Y0028984D01*
X0278029Y0029084D01*
X0277905Y0029187D01*
X0277784Y0029292D01*
X0277666Y0029401D01*
X0277550Y0029512D01*
X0277437Y0029627D01*
X0277327Y0029744D01*
X0277220Y0029863D01*
X0277116Y0029986D01*
X0277015Y0030111D01*
X0276917Y0030238D01*
X0276822Y0030368D01*
X0276731Y0030500D01*
X0276642Y0030634D01*
X0276557Y0030771D01*
X0276476Y0030909D01*
X0276398Y0031050D01*
X0276323Y0031192D01*
X0276252Y0031336D01*
X0276185Y0031482D01*
X0276121Y0031630D01*
X0276061Y0031779D01*
X0276005Y0031929D01*
X0275952Y0032081D01*
X0275903Y0032234D01*
X0275858Y0032388D01*
X0275817Y0032543D01*
X0275779Y0032700D01*
X0275746Y0032857D01*
X0275716Y0033015D01*
X0275690Y0033173D01*
X0275669Y0033333D01*
X0275651Y0033492D01*
X0275637Y0033652D01*
X0275627Y0033813D01*
X0275621Y0033973D01*
X0275619Y0034134D01*
X0333099Y0034134D02*
X0333101Y0034295D01*
X0333107Y0034455D01*
X0333117Y0034616D01*
X0333131Y0034776D01*
X0333149Y0034935D01*
X0333170Y0035095D01*
X0333196Y0035253D01*
X0333226Y0035411D01*
X0333259Y0035568D01*
X0333297Y0035725D01*
X0333338Y0035880D01*
X0333383Y0036034D01*
X0333432Y0036187D01*
X0333485Y0036339D01*
X0333541Y0036489D01*
X0333601Y0036638D01*
X0333665Y0036786D01*
X0333732Y0036932D01*
X0333803Y0037076D01*
X0333878Y0037218D01*
X0333956Y0037359D01*
X0334037Y0037497D01*
X0334122Y0037634D01*
X0334211Y0037768D01*
X0334302Y0037900D01*
X0334397Y0038030D01*
X0334495Y0038157D01*
X0334596Y0038282D01*
X0334700Y0038405D01*
X0334807Y0038524D01*
X0334917Y0038641D01*
X0335030Y0038756D01*
X0335146Y0038867D01*
X0335264Y0038976D01*
X0335385Y0039081D01*
X0335509Y0039184D01*
X0335635Y0039284D01*
X0335764Y0039380D01*
X0335895Y0039473D01*
X0336028Y0039563D01*
X0336163Y0039650D01*
X0336301Y0039733D01*
X0336440Y0039812D01*
X0336582Y0039889D01*
X0336725Y0039962D01*
X0336870Y0040031D01*
X0337017Y0040096D01*
X0337165Y0040158D01*
X0337315Y0040217D01*
X0337466Y0040271D01*
X0337618Y0040322D01*
X0337772Y0040369D01*
X0337927Y0040412D01*
X0338082Y0040451D01*
X0338239Y0040487D01*
X0338397Y0040519D01*
X0338555Y0040546D01*
X0338714Y0040570D01*
X0338873Y0040590D01*
X0339033Y0040606D01*
X0339194Y0040618D01*
X0339354Y0040626D01*
X0339515Y0040630D01*
X0339675Y0040630D01*
X0339836Y0040626D01*
X0339996Y0040618D01*
X0340157Y0040606D01*
X0340317Y0040590D01*
X0340476Y0040570D01*
X0340635Y0040546D01*
X0340793Y0040519D01*
X0340951Y0040487D01*
X0341108Y0040451D01*
X0341263Y0040412D01*
X0341418Y0040369D01*
X0341572Y0040322D01*
X0341724Y0040271D01*
X0341875Y0040217D01*
X0342025Y0040158D01*
X0342173Y0040096D01*
X0342320Y0040031D01*
X0342465Y0039962D01*
X0342608Y0039889D01*
X0342750Y0039812D01*
X0342889Y0039733D01*
X0343027Y0039650D01*
X0343162Y0039563D01*
X0343295Y0039473D01*
X0343426Y0039380D01*
X0343555Y0039284D01*
X0343681Y0039184D01*
X0343805Y0039081D01*
X0343926Y0038976D01*
X0344044Y0038867D01*
X0344160Y0038756D01*
X0344273Y0038641D01*
X0344383Y0038524D01*
X0344490Y0038405D01*
X0344594Y0038282D01*
X0344695Y0038157D01*
X0344793Y0038030D01*
X0344888Y0037900D01*
X0344979Y0037768D01*
X0345068Y0037634D01*
X0345153Y0037497D01*
X0345234Y0037359D01*
X0345312Y0037218D01*
X0345387Y0037076D01*
X0345458Y0036932D01*
X0345525Y0036786D01*
X0345589Y0036638D01*
X0345649Y0036489D01*
X0345705Y0036339D01*
X0345758Y0036187D01*
X0345807Y0036034D01*
X0345852Y0035880D01*
X0345893Y0035725D01*
X0345931Y0035568D01*
X0345964Y0035411D01*
X0345994Y0035253D01*
X0346020Y0035095D01*
X0346041Y0034935D01*
X0346059Y0034776D01*
X0346073Y0034616D01*
X0346083Y0034455D01*
X0346089Y0034295D01*
X0346091Y0034134D01*
X0346089Y0033973D01*
X0346083Y0033813D01*
X0346073Y0033652D01*
X0346059Y0033492D01*
X0346041Y0033333D01*
X0346020Y0033173D01*
X0345994Y0033015D01*
X0345964Y0032857D01*
X0345931Y0032700D01*
X0345893Y0032543D01*
X0345852Y0032388D01*
X0345807Y0032234D01*
X0345758Y0032081D01*
X0345705Y0031929D01*
X0345649Y0031779D01*
X0345589Y0031630D01*
X0345525Y0031482D01*
X0345458Y0031336D01*
X0345387Y0031192D01*
X0345312Y0031050D01*
X0345234Y0030909D01*
X0345153Y0030771D01*
X0345068Y0030634D01*
X0344979Y0030500D01*
X0344888Y0030368D01*
X0344793Y0030238D01*
X0344695Y0030111D01*
X0344594Y0029986D01*
X0344490Y0029863D01*
X0344383Y0029744D01*
X0344273Y0029627D01*
X0344160Y0029512D01*
X0344044Y0029401D01*
X0343926Y0029292D01*
X0343805Y0029187D01*
X0343681Y0029084D01*
X0343555Y0028984D01*
X0343426Y0028888D01*
X0343295Y0028795D01*
X0343162Y0028705D01*
X0343027Y0028618D01*
X0342889Y0028535D01*
X0342750Y0028456D01*
X0342608Y0028379D01*
X0342465Y0028306D01*
X0342320Y0028237D01*
X0342173Y0028172D01*
X0342025Y0028110D01*
X0341875Y0028051D01*
X0341724Y0027997D01*
X0341572Y0027946D01*
X0341418Y0027899D01*
X0341263Y0027856D01*
X0341108Y0027817D01*
X0340951Y0027781D01*
X0340793Y0027749D01*
X0340635Y0027722D01*
X0340476Y0027698D01*
X0340317Y0027678D01*
X0340157Y0027662D01*
X0339996Y0027650D01*
X0339836Y0027642D01*
X0339675Y0027638D01*
X0339515Y0027638D01*
X0339354Y0027642D01*
X0339194Y0027650D01*
X0339033Y0027662D01*
X0338873Y0027678D01*
X0338714Y0027698D01*
X0338555Y0027722D01*
X0338397Y0027749D01*
X0338239Y0027781D01*
X0338082Y0027817D01*
X0337927Y0027856D01*
X0337772Y0027899D01*
X0337618Y0027946D01*
X0337466Y0027997D01*
X0337315Y0028051D01*
X0337165Y0028110D01*
X0337017Y0028172D01*
X0336870Y0028237D01*
X0336725Y0028306D01*
X0336582Y0028379D01*
X0336440Y0028456D01*
X0336301Y0028535D01*
X0336163Y0028618D01*
X0336028Y0028705D01*
X0335895Y0028795D01*
X0335764Y0028888D01*
X0335635Y0028984D01*
X0335509Y0029084D01*
X0335385Y0029187D01*
X0335264Y0029292D01*
X0335146Y0029401D01*
X0335030Y0029512D01*
X0334917Y0029627D01*
X0334807Y0029744D01*
X0334700Y0029863D01*
X0334596Y0029986D01*
X0334495Y0030111D01*
X0334397Y0030238D01*
X0334302Y0030368D01*
X0334211Y0030500D01*
X0334122Y0030634D01*
X0334037Y0030771D01*
X0333956Y0030909D01*
X0333878Y0031050D01*
X0333803Y0031192D01*
X0333732Y0031336D01*
X0333665Y0031482D01*
X0333601Y0031630D01*
X0333541Y0031779D01*
X0333485Y0031929D01*
X0333432Y0032081D01*
X0333383Y0032234D01*
X0333338Y0032388D01*
X0333297Y0032543D01*
X0333259Y0032700D01*
X0333226Y0032857D01*
X0333196Y0033015D01*
X0333170Y0033173D01*
X0333149Y0033333D01*
X0333131Y0033492D01*
X0333117Y0033652D01*
X0333107Y0033813D01*
X0333101Y0033973D01*
X0333099Y0034134D01*
X0349635Y0034134D02*
X0349637Y0034295D01*
X0349643Y0034455D01*
X0349653Y0034616D01*
X0349667Y0034776D01*
X0349685Y0034935D01*
X0349706Y0035095D01*
X0349732Y0035253D01*
X0349762Y0035411D01*
X0349795Y0035568D01*
X0349833Y0035725D01*
X0349874Y0035880D01*
X0349919Y0036034D01*
X0349968Y0036187D01*
X0350021Y0036339D01*
X0350077Y0036489D01*
X0350137Y0036638D01*
X0350201Y0036786D01*
X0350268Y0036932D01*
X0350339Y0037076D01*
X0350414Y0037218D01*
X0350492Y0037359D01*
X0350573Y0037497D01*
X0350658Y0037634D01*
X0350747Y0037768D01*
X0350838Y0037900D01*
X0350933Y0038030D01*
X0351031Y0038157D01*
X0351132Y0038282D01*
X0351236Y0038405D01*
X0351343Y0038524D01*
X0351453Y0038641D01*
X0351566Y0038756D01*
X0351682Y0038867D01*
X0351800Y0038976D01*
X0351921Y0039081D01*
X0352045Y0039184D01*
X0352171Y0039284D01*
X0352300Y0039380D01*
X0352431Y0039473D01*
X0352564Y0039563D01*
X0352699Y0039650D01*
X0352837Y0039733D01*
X0352976Y0039812D01*
X0353118Y0039889D01*
X0353261Y0039962D01*
X0353406Y0040031D01*
X0353553Y0040096D01*
X0353701Y0040158D01*
X0353851Y0040217D01*
X0354002Y0040271D01*
X0354154Y0040322D01*
X0354308Y0040369D01*
X0354463Y0040412D01*
X0354618Y0040451D01*
X0354775Y0040487D01*
X0354933Y0040519D01*
X0355091Y0040546D01*
X0355250Y0040570D01*
X0355409Y0040590D01*
X0355569Y0040606D01*
X0355730Y0040618D01*
X0355890Y0040626D01*
X0356051Y0040630D01*
X0356211Y0040630D01*
X0356372Y0040626D01*
X0356532Y0040618D01*
X0356693Y0040606D01*
X0356853Y0040590D01*
X0357012Y0040570D01*
X0357171Y0040546D01*
X0357329Y0040519D01*
X0357487Y0040487D01*
X0357644Y0040451D01*
X0357799Y0040412D01*
X0357954Y0040369D01*
X0358108Y0040322D01*
X0358260Y0040271D01*
X0358411Y0040217D01*
X0358561Y0040158D01*
X0358709Y0040096D01*
X0358856Y0040031D01*
X0359001Y0039962D01*
X0359144Y0039889D01*
X0359286Y0039812D01*
X0359425Y0039733D01*
X0359563Y0039650D01*
X0359698Y0039563D01*
X0359831Y0039473D01*
X0359962Y0039380D01*
X0360091Y0039284D01*
X0360217Y0039184D01*
X0360341Y0039081D01*
X0360462Y0038976D01*
X0360580Y0038867D01*
X0360696Y0038756D01*
X0360809Y0038641D01*
X0360919Y0038524D01*
X0361026Y0038405D01*
X0361130Y0038282D01*
X0361231Y0038157D01*
X0361329Y0038030D01*
X0361424Y0037900D01*
X0361515Y0037768D01*
X0361604Y0037634D01*
X0361689Y0037497D01*
X0361770Y0037359D01*
X0361848Y0037218D01*
X0361923Y0037076D01*
X0361994Y0036932D01*
X0362061Y0036786D01*
X0362125Y0036638D01*
X0362185Y0036489D01*
X0362241Y0036339D01*
X0362294Y0036187D01*
X0362343Y0036034D01*
X0362388Y0035880D01*
X0362429Y0035725D01*
X0362467Y0035568D01*
X0362500Y0035411D01*
X0362530Y0035253D01*
X0362556Y0035095D01*
X0362577Y0034935D01*
X0362595Y0034776D01*
X0362609Y0034616D01*
X0362619Y0034455D01*
X0362625Y0034295D01*
X0362627Y0034134D01*
X0362625Y0033973D01*
X0362619Y0033813D01*
X0362609Y0033652D01*
X0362595Y0033492D01*
X0362577Y0033333D01*
X0362556Y0033173D01*
X0362530Y0033015D01*
X0362500Y0032857D01*
X0362467Y0032700D01*
X0362429Y0032543D01*
X0362388Y0032388D01*
X0362343Y0032234D01*
X0362294Y0032081D01*
X0362241Y0031929D01*
X0362185Y0031779D01*
X0362125Y0031630D01*
X0362061Y0031482D01*
X0361994Y0031336D01*
X0361923Y0031192D01*
X0361848Y0031050D01*
X0361770Y0030909D01*
X0361689Y0030771D01*
X0361604Y0030634D01*
X0361515Y0030500D01*
X0361424Y0030368D01*
X0361329Y0030238D01*
X0361231Y0030111D01*
X0361130Y0029986D01*
X0361026Y0029863D01*
X0360919Y0029744D01*
X0360809Y0029627D01*
X0360696Y0029512D01*
X0360580Y0029401D01*
X0360462Y0029292D01*
X0360341Y0029187D01*
X0360217Y0029084D01*
X0360091Y0028984D01*
X0359962Y0028888D01*
X0359831Y0028795D01*
X0359698Y0028705D01*
X0359563Y0028618D01*
X0359425Y0028535D01*
X0359286Y0028456D01*
X0359144Y0028379D01*
X0359001Y0028306D01*
X0358856Y0028237D01*
X0358709Y0028172D01*
X0358561Y0028110D01*
X0358411Y0028051D01*
X0358260Y0027997D01*
X0358108Y0027946D01*
X0357954Y0027899D01*
X0357799Y0027856D01*
X0357644Y0027817D01*
X0357487Y0027781D01*
X0357329Y0027749D01*
X0357171Y0027722D01*
X0357012Y0027698D01*
X0356853Y0027678D01*
X0356693Y0027662D01*
X0356532Y0027650D01*
X0356372Y0027642D01*
X0356211Y0027638D01*
X0356051Y0027638D01*
X0355890Y0027642D01*
X0355730Y0027650D01*
X0355569Y0027662D01*
X0355409Y0027678D01*
X0355250Y0027698D01*
X0355091Y0027722D01*
X0354933Y0027749D01*
X0354775Y0027781D01*
X0354618Y0027817D01*
X0354463Y0027856D01*
X0354308Y0027899D01*
X0354154Y0027946D01*
X0354002Y0027997D01*
X0353851Y0028051D01*
X0353701Y0028110D01*
X0353553Y0028172D01*
X0353406Y0028237D01*
X0353261Y0028306D01*
X0353118Y0028379D01*
X0352976Y0028456D01*
X0352837Y0028535D01*
X0352699Y0028618D01*
X0352564Y0028705D01*
X0352431Y0028795D01*
X0352300Y0028888D01*
X0352171Y0028984D01*
X0352045Y0029084D01*
X0351921Y0029187D01*
X0351800Y0029292D01*
X0351682Y0029401D01*
X0351566Y0029512D01*
X0351453Y0029627D01*
X0351343Y0029744D01*
X0351236Y0029863D01*
X0351132Y0029986D01*
X0351031Y0030111D01*
X0350933Y0030238D01*
X0350838Y0030368D01*
X0350747Y0030500D01*
X0350658Y0030634D01*
X0350573Y0030771D01*
X0350492Y0030909D01*
X0350414Y0031050D01*
X0350339Y0031192D01*
X0350268Y0031336D01*
X0350201Y0031482D01*
X0350137Y0031630D01*
X0350077Y0031779D01*
X0350021Y0031929D01*
X0349968Y0032081D01*
X0349919Y0032234D01*
X0349874Y0032388D01*
X0349833Y0032543D01*
X0349795Y0032700D01*
X0349762Y0032857D01*
X0349732Y0033015D01*
X0349706Y0033173D01*
X0349685Y0033333D01*
X0349667Y0033492D01*
X0349653Y0033652D01*
X0349643Y0033813D01*
X0349637Y0033973D01*
X0349635Y0034134D01*
X0407115Y0034134D02*
X0407117Y0034295D01*
X0407123Y0034455D01*
X0407133Y0034616D01*
X0407147Y0034776D01*
X0407165Y0034935D01*
X0407186Y0035095D01*
X0407212Y0035253D01*
X0407242Y0035411D01*
X0407275Y0035568D01*
X0407313Y0035725D01*
X0407354Y0035880D01*
X0407399Y0036034D01*
X0407448Y0036187D01*
X0407501Y0036339D01*
X0407557Y0036489D01*
X0407617Y0036638D01*
X0407681Y0036786D01*
X0407748Y0036932D01*
X0407819Y0037076D01*
X0407894Y0037218D01*
X0407972Y0037359D01*
X0408053Y0037497D01*
X0408138Y0037634D01*
X0408227Y0037768D01*
X0408318Y0037900D01*
X0408413Y0038030D01*
X0408511Y0038157D01*
X0408612Y0038282D01*
X0408716Y0038405D01*
X0408823Y0038524D01*
X0408933Y0038641D01*
X0409046Y0038756D01*
X0409162Y0038867D01*
X0409280Y0038976D01*
X0409401Y0039081D01*
X0409525Y0039184D01*
X0409651Y0039284D01*
X0409780Y0039380D01*
X0409911Y0039473D01*
X0410044Y0039563D01*
X0410179Y0039650D01*
X0410317Y0039733D01*
X0410456Y0039812D01*
X0410598Y0039889D01*
X0410741Y0039962D01*
X0410886Y0040031D01*
X0411033Y0040096D01*
X0411181Y0040158D01*
X0411331Y0040217D01*
X0411482Y0040271D01*
X0411634Y0040322D01*
X0411788Y0040369D01*
X0411943Y0040412D01*
X0412098Y0040451D01*
X0412255Y0040487D01*
X0412413Y0040519D01*
X0412571Y0040546D01*
X0412730Y0040570D01*
X0412889Y0040590D01*
X0413049Y0040606D01*
X0413210Y0040618D01*
X0413370Y0040626D01*
X0413531Y0040630D01*
X0413691Y0040630D01*
X0413852Y0040626D01*
X0414012Y0040618D01*
X0414173Y0040606D01*
X0414333Y0040590D01*
X0414492Y0040570D01*
X0414651Y0040546D01*
X0414809Y0040519D01*
X0414967Y0040487D01*
X0415124Y0040451D01*
X0415279Y0040412D01*
X0415434Y0040369D01*
X0415588Y0040322D01*
X0415740Y0040271D01*
X0415891Y0040217D01*
X0416041Y0040158D01*
X0416189Y0040096D01*
X0416336Y0040031D01*
X0416481Y0039962D01*
X0416624Y0039889D01*
X0416766Y0039812D01*
X0416905Y0039733D01*
X0417043Y0039650D01*
X0417178Y0039563D01*
X0417311Y0039473D01*
X0417442Y0039380D01*
X0417571Y0039284D01*
X0417697Y0039184D01*
X0417821Y0039081D01*
X0417942Y0038976D01*
X0418060Y0038867D01*
X0418176Y0038756D01*
X0418289Y0038641D01*
X0418399Y0038524D01*
X0418506Y0038405D01*
X0418610Y0038282D01*
X0418711Y0038157D01*
X0418809Y0038030D01*
X0418904Y0037900D01*
X0418995Y0037768D01*
X0419084Y0037634D01*
X0419169Y0037497D01*
X0419250Y0037359D01*
X0419328Y0037218D01*
X0419403Y0037076D01*
X0419474Y0036932D01*
X0419541Y0036786D01*
X0419605Y0036638D01*
X0419665Y0036489D01*
X0419721Y0036339D01*
X0419774Y0036187D01*
X0419823Y0036034D01*
X0419868Y0035880D01*
X0419909Y0035725D01*
X0419947Y0035568D01*
X0419980Y0035411D01*
X0420010Y0035253D01*
X0420036Y0035095D01*
X0420057Y0034935D01*
X0420075Y0034776D01*
X0420089Y0034616D01*
X0420099Y0034455D01*
X0420105Y0034295D01*
X0420107Y0034134D01*
X0420105Y0033973D01*
X0420099Y0033813D01*
X0420089Y0033652D01*
X0420075Y0033492D01*
X0420057Y0033333D01*
X0420036Y0033173D01*
X0420010Y0033015D01*
X0419980Y0032857D01*
X0419947Y0032700D01*
X0419909Y0032543D01*
X0419868Y0032388D01*
X0419823Y0032234D01*
X0419774Y0032081D01*
X0419721Y0031929D01*
X0419665Y0031779D01*
X0419605Y0031630D01*
X0419541Y0031482D01*
X0419474Y0031336D01*
X0419403Y0031192D01*
X0419328Y0031050D01*
X0419250Y0030909D01*
X0419169Y0030771D01*
X0419084Y0030634D01*
X0418995Y0030500D01*
X0418904Y0030368D01*
X0418809Y0030238D01*
X0418711Y0030111D01*
X0418610Y0029986D01*
X0418506Y0029863D01*
X0418399Y0029744D01*
X0418289Y0029627D01*
X0418176Y0029512D01*
X0418060Y0029401D01*
X0417942Y0029292D01*
X0417821Y0029187D01*
X0417697Y0029084D01*
X0417571Y0028984D01*
X0417442Y0028888D01*
X0417311Y0028795D01*
X0417178Y0028705D01*
X0417043Y0028618D01*
X0416905Y0028535D01*
X0416766Y0028456D01*
X0416624Y0028379D01*
X0416481Y0028306D01*
X0416336Y0028237D01*
X0416189Y0028172D01*
X0416041Y0028110D01*
X0415891Y0028051D01*
X0415740Y0027997D01*
X0415588Y0027946D01*
X0415434Y0027899D01*
X0415279Y0027856D01*
X0415124Y0027817D01*
X0414967Y0027781D01*
X0414809Y0027749D01*
X0414651Y0027722D01*
X0414492Y0027698D01*
X0414333Y0027678D01*
X0414173Y0027662D01*
X0414012Y0027650D01*
X0413852Y0027642D01*
X0413691Y0027638D01*
X0413531Y0027638D01*
X0413370Y0027642D01*
X0413210Y0027650D01*
X0413049Y0027662D01*
X0412889Y0027678D01*
X0412730Y0027698D01*
X0412571Y0027722D01*
X0412413Y0027749D01*
X0412255Y0027781D01*
X0412098Y0027817D01*
X0411943Y0027856D01*
X0411788Y0027899D01*
X0411634Y0027946D01*
X0411482Y0027997D01*
X0411331Y0028051D01*
X0411181Y0028110D01*
X0411033Y0028172D01*
X0410886Y0028237D01*
X0410741Y0028306D01*
X0410598Y0028379D01*
X0410456Y0028456D01*
X0410317Y0028535D01*
X0410179Y0028618D01*
X0410044Y0028705D01*
X0409911Y0028795D01*
X0409780Y0028888D01*
X0409651Y0028984D01*
X0409525Y0029084D01*
X0409401Y0029187D01*
X0409280Y0029292D01*
X0409162Y0029401D01*
X0409046Y0029512D01*
X0408933Y0029627D01*
X0408823Y0029744D01*
X0408716Y0029863D01*
X0408612Y0029986D01*
X0408511Y0030111D01*
X0408413Y0030238D01*
X0408318Y0030368D01*
X0408227Y0030500D01*
X0408138Y0030634D01*
X0408053Y0030771D01*
X0407972Y0030909D01*
X0407894Y0031050D01*
X0407819Y0031192D01*
X0407748Y0031336D01*
X0407681Y0031482D01*
X0407617Y0031630D01*
X0407557Y0031779D01*
X0407501Y0031929D01*
X0407448Y0032081D01*
X0407399Y0032234D01*
X0407354Y0032388D01*
X0407313Y0032543D01*
X0407275Y0032700D01*
X0407242Y0032857D01*
X0407212Y0033015D01*
X0407186Y0033173D01*
X0407165Y0033333D01*
X0407147Y0033492D01*
X0407133Y0033652D01*
X0407123Y0033813D01*
X0407117Y0033973D01*
X0407115Y0034134D01*
X0426603Y0026654D02*
X0426605Y0026812D01*
X0426611Y0026970D01*
X0426621Y0027128D01*
X0426635Y0027286D01*
X0426653Y0027443D01*
X0426674Y0027600D01*
X0426700Y0027756D01*
X0426730Y0027912D01*
X0426763Y0028067D01*
X0426801Y0028220D01*
X0426842Y0028373D01*
X0426887Y0028525D01*
X0426936Y0028676D01*
X0426989Y0028825D01*
X0427045Y0028973D01*
X0427105Y0029119D01*
X0427169Y0029264D01*
X0427237Y0029407D01*
X0427308Y0029549D01*
X0427382Y0029689D01*
X0427460Y0029826D01*
X0427542Y0029962D01*
X0427626Y0030096D01*
X0427715Y0030227D01*
X0427806Y0030356D01*
X0427901Y0030483D01*
X0427998Y0030608D01*
X0428099Y0030730D01*
X0428203Y0030849D01*
X0428310Y0030966D01*
X0428420Y0031080D01*
X0428533Y0031191D01*
X0428648Y0031300D01*
X0428766Y0031405D01*
X0428887Y0031507D01*
X0429010Y0031607D01*
X0429136Y0031703D01*
X0429264Y0031796D01*
X0429394Y0031886D01*
X0429527Y0031972D01*
X0429662Y0032056D01*
X0429798Y0032135D01*
X0429937Y0032212D01*
X0430078Y0032284D01*
X0430220Y0032354D01*
X0430364Y0032419D01*
X0430510Y0032481D01*
X0430657Y0032539D01*
X0430806Y0032594D01*
X0430956Y0032645D01*
X0431107Y0032692D01*
X0431259Y0032735D01*
X0431412Y0032774D01*
X0431567Y0032810D01*
X0431722Y0032841D01*
X0431878Y0032869D01*
X0432034Y0032893D01*
X0432191Y0032913D01*
X0432349Y0032929D01*
X0432506Y0032941D01*
X0432665Y0032949D01*
X0432823Y0032953D01*
X0432981Y0032953D01*
X0433139Y0032949D01*
X0433298Y0032941D01*
X0433455Y0032929D01*
X0433613Y0032913D01*
X0433770Y0032893D01*
X0433926Y0032869D01*
X0434082Y0032841D01*
X0434237Y0032810D01*
X0434392Y0032774D01*
X0434545Y0032735D01*
X0434697Y0032692D01*
X0434848Y0032645D01*
X0434998Y0032594D01*
X0435147Y0032539D01*
X0435294Y0032481D01*
X0435440Y0032419D01*
X0435584Y0032354D01*
X0435726Y0032284D01*
X0435867Y0032212D01*
X0436006Y0032135D01*
X0436142Y0032056D01*
X0436277Y0031972D01*
X0436410Y0031886D01*
X0436540Y0031796D01*
X0436668Y0031703D01*
X0436794Y0031607D01*
X0436917Y0031507D01*
X0437038Y0031405D01*
X0437156Y0031300D01*
X0437271Y0031191D01*
X0437384Y0031080D01*
X0437494Y0030966D01*
X0437601Y0030849D01*
X0437705Y0030730D01*
X0437806Y0030608D01*
X0437903Y0030483D01*
X0437998Y0030356D01*
X0438089Y0030227D01*
X0438178Y0030096D01*
X0438262Y0029962D01*
X0438344Y0029826D01*
X0438422Y0029689D01*
X0438496Y0029549D01*
X0438567Y0029407D01*
X0438635Y0029264D01*
X0438699Y0029119D01*
X0438759Y0028973D01*
X0438815Y0028825D01*
X0438868Y0028676D01*
X0438917Y0028525D01*
X0438962Y0028373D01*
X0439003Y0028220D01*
X0439041Y0028067D01*
X0439074Y0027912D01*
X0439104Y0027756D01*
X0439130Y0027600D01*
X0439151Y0027443D01*
X0439169Y0027286D01*
X0439183Y0027128D01*
X0439193Y0026970D01*
X0439199Y0026812D01*
X0439201Y0026654D01*
X0439199Y0026496D01*
X0439193Y0026338D01*
X0439183Y0026180D01*
X0439169Y0026022D01*
X0439151Y0025865D01*
X0439130Y0025708D01*
X0439104Y0025552D01*
X0439074Y0025396D01*
X0439041Y0025241D01*
X0439003Y0025088D01*
X0438962Y0024935D01*
X0438917Y0024783D01*
X0438868Y0024632D01*
X0438815Y0024483D01*
X0438759Y0024335D01*
X0438699Y0024189D01*
X0438635Y0024044D01*
X0438567Y0023901D01*
X0438496Y0023759D01*
X0438422Y0023619D01*
X0438344Y0023482D01*
X0438262Y0023346D01*
X0438178Y0023212D01*
X0438089Y0023081D01*
X0437998Y0022952D01*
X0437903Y0022825D01*
X0437806Y0022700D01*
X0437705Y0022578D01*
X0437601Y0022459D01*
X0437494Y0022342D01*
X0437384Y0022228D01*
X0437271Y0022117D01*
X0437156Y0022008D01*
X0437038Y0021903D01*
X0436917Y0021801D01*
X0436794Y0021701D01*
X0436668Y0021605D01*
X0436540Y0021512D01*
X0436410Y0021422D01*
X0436277Y0021336D01*
X0436142Y0021252D01*
X0436006Y0021173D01*
X0435867Y0021096D01*
X0435726Y0021024D01*
X0435584Y0020954D01*
X0435440Y0020889D01*
X0435294Y0020827D01*
X0435147Y0020769D01*
X0434998Y0020714D01*
X0434848Y0020663D01*
X0434697Y0020616D01*
X0434545Y0020573D01*
X0434392Y0020534D01*
X0434237Y0020498D01*
X0434082Y0020467D01*
X0433926Y0020439D01*
X0433770Y0020415D01*
X0433613Y0020395D01*
X0433455Y0020379D01*
X0433298Y0020367D01*
X0433139Y0020359D01*
X0432981Y0020355D01*
X0432823Y0020355D01*
X0432665Y0020359D01*
X0432506Y0020367D01*
X0432349Y0020379D01*
X0432191Y0020395D01*
X0432034Y0020415D01*
X0431878Y0020439D01*
X0431722Y0020467D01*
X0431567Y0020498D01*
X0431412Y0020534D01*
X0431259Y0020573D01*
X0431107Y0020616D01*
X0430956Y0020663D01*
X0430806Y0020714D01*
X0430657Y0020769D01*
X0430510Y0020827D01*
X0430364Y0020889D01*
X0430220Y0020954D01*
X0430078Y0021024D01*
X0429937Y0021096D01*
X0429798Y0021173D01*
X0429662Y0021252D01*
X0429527Y0021336D01*
X0429394Y0021422D01*
X0429264Y0021512D01*
X0429136Y0021605D01*
X0429010Y0021701D01*
X0428887Y0021801D01*
X0428766Y0021903D01*
X0428648Y0022008D01*
X0428533Y0022117D01*
X0428420Y0022228D01*
X0428310Y0022342D01*
X0428203Y0022459D01*
X0428099Y0022578D01*
X0427998Y0022700D01*
X0427901Y0022825D01*
X0427806Y0022952D01*
X0427715Y0023081D01*
X0427626Y0023212D01*
X0427542Y0023346D01*
X0427460Y0023482D01*
X0427382Y0023619D01*
X0427308Y0023759D01*
X0427237Y0023901D01*
X0427169Y0024044D01*
X0427105Y0024189D01*
X0427045Y0024335D01*
X0426989Y0024483D01*
X0426936Y0024632D01*
X0426887Y0024783D01*
X0426842Y0024935D01*
X0426801Y0025088D01*
X0426763Y0025241D01*
X0426730Y0025396D01*
X0426700Y0025552D01*
X0426674Y0025708D01*
X0426653Y0025865D01*
X0426635Y0026022D01*
X0426621Y0026180D01*
X0426611Y0026338D01*
X0426605Y0026496D01*
X0426603Y0026654D01*
X0426603Y0241220D02*
X0426605Y0241378D01*
X0426611Y0241536D01*
X0426621Y0241694D01*
X0426635Y0241852D01*
X0426653Y0242009D01*
X0426674Y0242166D01*
X0426700Y0242322D01*
X0426730Y0242478D01*
X0426763Y0242633D01*
X0426801Y0242786D01*
X0426842Y0242939D01*
X0426887Y0243091D01*
X0426936Y0243242D01*
X0426989Y0243391D01*
X0427045Y0243539D01*
X0427105Y0243685D01*
X0427169Y0243830D01*
X0427237Y0243973D01*
X0427308Y0244115D01*
X0427382Y0244255D01*
X0427460Y0244392D01*
X0427542Y0244528D01*
X0427626Y0244662D01*
X0427715Y0244793D01*
X0427806Y0244922D01*
X0427901Y0245049D01*
X0427998Y0245174D01*
X0428099Y0245296D01*
X0428203Y0245415D01*
X0428310Y0245532D01*
X0428420Y0245646D01*
X0428533Y0245757D01*
X0428648Y0245866D01*
X0428766Y0245971D01*
X0428887Y0246073D01*
X0429010Y0246173D01*
X0429136Y0246269D01*
X0429264Y0246362D01*
X0429394Y0246452D01*
X0429527Y0246538D01*
X0429662Y0246622D01*
X0429798Y0246701D01*
X0429937Y0246778D01*
X0430078Y0246850D01*
X0430220Y0246920D01*
X0430364Y0246985D01*
X0430510Y0247047D01*
X0430657Y0247105D01*
X0430806Y0247160D01*
X0430956Y0247211D01*
X0431107Y0247258D01*
X0431259Y0247301D01*
X0431412Y0247340D01*
X0431567Y0247376D01*
X0431722Y0247407D01*
X0431878Y0247435D01*
X0432034Y0247459D01*
X0432191Y0247479D01*
X0432349Y0247495D01*
X0432506Y0247507D01*
X0432665Y0247515D01*
X0432823Y0247519D01*
X0432981Y0247519D01*
X0433139Y0247515D01*
X0433298Y0247507D01*
X0433455Y0247495D01*
X0433613Y0247479D01*
X0433770Y0247459D01*
X0433926Y0247435D01*
X0434082Y0247407D01*
X0434237Y0247376D01*
X0434392Y0247340D01*
X0434545Y0247301D01*
X0434697Y0247258D01*
X0434848Y0247211D01*
X0434998Y0247160D01*
X0435147Y0247105D01*
X0435294Y0247047D01*
X0435440Y0246985D01*
X0435584Y0246920D01*
X0435726Y0246850D01*
X0435867Y0246778D01*
X0436006Y0246701D01*
X0436142Y0246622D01*
X0436277Y0246538D01*
X0436410Y0246452D01*
X0436540Y0246362D01*
X0436668Y0246269D01*
X0436794Y0246173D01*
X0436917Y0246073D01*
X0437038Y0245971D01*
X0437156Y0245866D01*
X0437271Y0245757D01*
X0437384Y0245646D01*
X0437494Y0245532D01*
X0437601Y0245415D01*
X0437705Y0245296D01*
X0437806Y0245174D01*
X0437903Y0245049D01*
X0437998Y0244922D01*
X0438089Y0244793D01*
X0438178Y0244662D01*
X0438262Y0244528D01*
X0438344Y0244392D01*
X0438422Y0244255D01*
X0438496Y0244115D01*
X0438567Y0243973D01*
X0438635Y0243830D01*
X0438699Y0243685D01*
X0438759Y0243539D01*
X0438815Y0243391D01*
X0438868Y0243242D01*
X0438917Y0243091D01*
X0438962Y0242939D01*
X0439003Y0242786D01*
X0439041Y0242633D01*
X0439074Y0242478D01*
X0439104Y0242322D01*
X0439130Y0242166D01*
X0439151Y0242009D01*
X0439169Y0241852D01*
X0439183Y0241694D01*
X0439193Y0241536D01*
X0439199Y0241378D01*
X0439201Y0241220D01*
X0439199Y0241062D01*
X0439193Y0240904D01*
X0439183Y0240746D01*
X0439169Y0240588D01*
X0439151Y0240431D01*
X0439130Y0240274D01*
X0439104Y0240118D01*
X0439074Y0239962D01*
X0439041Y0239807D01*
X0439003Y0239654D01*
X0438962Y0239501D01*
X0438917Y0239349D01*
X0438868Y0239198D01*
X0438815Y0239049D01*
X0438759Y0238901D01*
X0438699Y0238755D01*
X0438635Y0238610D01*
X0438567Y0238467D01*
X0438496Y0238325D01*
X0438422Y0238185D01*
X0438344Y0238048D01*
X0438262Y0237912D01*
X0438178Y0237778D01*
X0438089Y0237647D01*
X0437998Y0237518D01*
X0437903Y0237391D01*
X0437806Y0237266D01*
X0437705Y0237144D01*
X0437601Y0237025D01*
X0437494Y0236908D01*
X0437384Y0236794D01*
X0437271Y0236683D01*
X0437156Y0236574D01*
X0437038Y0236469D01*
X0436917Y0236367D01*
X0436794Y0236267D01*
X0436668Y0236171D01*
X0436540Y0236078D01*
X0436410Y0235988D01*
X0436277Y0235902D01*
X0436142Y0235818D01*
X0436006Y0235739D01*
X0435867Y0235662D01*
X0435726Y0235590D01*
X0435584Y0235520D01*
X0435440Y0235455D01*
X0435294Y0235393D01*
X0435147Y0235335D01*
X0434998Y0235280D01*
X0434848Y0235229D01*
X0434697Y0235182D01*
X0434545Y0235139D01*
X0434392Y0235100D01*
X0434237Y0235064D01*
X0434082Y0235033D01*
X0433926Y0235005D01*
X0433770Y0234981D01*
X0433613Y0234961D01*
X0433455Y0234945D01*
X0433298Y0234933D01*
X0433139Y0234925D01*
X0432981Y0234921D01*
X0432823Y0234921D01*
X0432665Y0234925D01*
X0432506Y0234933D01*
X0432349Y0234945D01*
X0432191Y0234961D01*
X0432034Y0234981D01*
X0431878Y0235005D01*
X0431722Y0235033D01*
X0431567Y0235064D01*
X0431412Y0235100D01*
X0431259Y0235139D01*
X0431107Y0235182D01*
X0430956Y0235229D01*
X0430806Y0235280D01*
X0430657Y0235335D01*
X0430510Y0235393D01*
X0430364Y0235455D01*
X0430220Y0235520D01*
X0430078Y0235590D01*
X0429937Y0235662D01*
X0429798Y0235739D01*
X0429662Y0235818D01*
X0429527Y0235902D01*
X0429394Y0235988D01*
X0429264Y0236078D01*
X0429136Y0236171D01*
X0429010Y0236267D01*
X0428887Y0236367D01*
X0428766Y0236469D01*
X0428648Y0236574D01*
X0428533Y0236683D01*
X0428420Y0236794D01*
X0428310Y0236908D01*
X0428203Y0237025D01*
X0428099Y0237144D01*
X0427998Y0237266D01*
X0427901Y0237391D01*
X0427806Y0237518D01*
X0427715Y0237647D01*
X0427626Y0237778D01*
X0427542Y0237912D01*
X0427460Y0238048D01*
X0427382Y0238185D01*
X0427308Y0238325D01*
X0427237Y0238467D01*
X0427169Y0238610D01*
X0427105Y0238755D01*
X0427045Y0238901D01*
X0426989Y0239049D01*
X0426936Y0239198D01*
X0426887Y0239349D01*
X0426842Y0239501D01*
X0426801Y0239654D01*
X0426763Y0239807D01*
X0426730Y0239962D01*
X0426700Y0240118D01*
X0426674Y0240274D01*
X0426653Y0240431D01*
X0426635Y0240588D01*
X0426621Y0240746D01*
X0426611Y0240904D01*
X0426605Y0241062D01*
X0426603Y0241220D01*
X0360855Y0239449D02*
X0360857Y0239577D01*
X0360863Y0239705D01*
X0360873Y0239832D01*
X0360887Y0239960D01*
X0360904Y0240086D01*
X0360926Y0240212D01*
X0360952Y0240338D01*
X0360981Y0240462D01*
X0361014Y0240586D01*
X0361051Y0240708D01*
X0361092Y0240829D01*
X0361137Y0240949D01*
X0361185Y0241068D01*
X0361237Y0241185D01*
X0361293Y0241300D01*
X0361352Y0241414D01*
X0361414Y0241525D01*
X0361480Y0241635D01*
X0361549Y0241742D01*
X0361622Y0241848D01*
X0361698Y0241951D01*
X0361777Y0242051D01*
X0361859Y0242150D01*
X0361944Y0242245D01*
X0362032Y0242338D01*
X0362123Y0242428D01*
X0362216Y0242515D01*
X0362313Y0242600D01*
X0362411Y0242681D01*
X0362513Y0242759D01*
X0362616Y0242834D01*
X0362722Y0242906D01*
X0362830Y0242975D01*
X0362940Y0243040D01*
X0363053Y0243101D01*
X0363167Y0243160D01*
X0363282Y0243214D01*
X0363400Y0243265D01*
X0363518Y0243313D01*
X0363639Y0243356D01*
X0363760Y0243396D01*
X0363883Y0243432D01*
X0364007Y0243465D01*
X0364132Y0243493D01*
X0364257Y0243518D01*
X0364383Y0243538D01*
X0364510Y0243555D01*
X0364638Y0243568D01*
X0364765Y0243577D01*
X0364893Y0243582D01*
X0365021Y0243583D01*
X0365149Y0243580D01*
X0365277Y0243573D01*
X0365404Y0243562D01*
X0365531Y0243547D01*
X0365658Y0243529D01*
X0365784Y0243506D01*
X0365909Y0243479D01*
X0366033Y0243449D01*
X0366156Y0243415D01*
X0366279Y0243377D01*
X0366400Y0243335D01*
X0366519Y0243289D01*
X0366637Y0243240D01*
X0366754Y0243187D01*
X0366869Y0243131D01*
X0366982Y0243071D01*
X0367093Y0243008D01*
X0367202Y0242941D01*
X0367309Y0242871D01*
X0367414Y0242797D01*
X0367516Y0242721D01*
X0367616Y0242641D01*
X0367714Y0242558D01*
X0367809Y0242472D01*
X0367901Y0242383D01*
X0367990Y0242292D01*
X0368077Y0242198D01*
X0368160Y0242101D01*
X0368241Y0242001D01*
X0368318Y0241900D01*
X0368393Y0241795D01*
X0368464Y0241689D01*
X0368531Y0241580D01*
X0368596Y0241470D01*
X0368656Y0241357D01*
X0368714Y0241243D01*
X0368767Y0241127D01*
X0368817Y0241009D01*
X0368864Y0240890D01*
X0368907Y0240769D01*
X0368946Y0240647D01*
X0368981Y0240524D01*
X0369012Y0240400D01*
X0369040Y0240275D01*
X0369063Y0240149D01*
X0369083Y0240023D01*
X0369099Y0239896D01*
X0369111Y0239769D01*
X0369119Y0239641D01*
X0369123Y0239513D01*
X0369123Y0239385D01*
X0369119Y0239257D01*
X0369111Y0239129D01*
X0369099Y0239002D01*
X0369083Y0238875D01*
X0369063Y0238749D01*
X0369040Y0238623D01*
X0369012Y0238498D01*
X0368981Y0238374D01*
X0368946Y0238251D01*
X0368907Y0238129D01*
X0368864Y0238008D01*
X0368817Y0237889D01*
X0368767Y0237771D01*
X0368714Y0237655D01*
X0368656Y0237541D01*
X0368596Y0237428D01*
X0368531Y0237318D01*
X0368464Y0237209D01*
X0368393Y0237103D01*
X0368318Y0236998D01*
X0368241Y0236897D01*
X0368160Y0236797D01*
X0368077Y0236700D01*
X0367990Y0236606D01*
X0367901Y0236515D01*
X0367809Y0236426D01*
X0367714Y0236340D01*
X0367616Y0236257D01*
X0367516Y0236177D01*
X0367414Y0236101D01*
X0367309Y0236027D01*
X0367202Y0235957D01*
X0367093Y0235890D01*
X0366982Y0235827D01*
X0366869Y0235767D01*
X0366754Y0235711D01*
X0366637Y0235658D01*
X0366519Y0235609D01*
X0366400Y0235563D01*
X0366279Y0235521D01*
X0366156Y0235483D01*
X0366033Y0235449D01*
X0365909Y0235419D01*
X0365784Y0235392D01*
X0365658Y0235369D01*
X0365531Y0235351D01*
X0365404Y0235336D01*
X0365277Y0235325D01*
X0365149Y0235318D01*
X0365021Y0235315D01*
X0364893Y0235316D01*
X0364765Y0235321D01*
X0364638Y0235330D01*
X0364510Y0235343D01*
X0364383Y0235360D01*
X0364257Y0235380D01*
X0364132Y0235405D01*
X0364007Y0235433D01*
X0363883Y0235466D01*
X0363760Y0235502D01*
X0363639Y0235542D01*
X0363518Y0235585D01*
X0363400Y0235633D01*
X0363282Y0235684D01*
X0363167Y0235738D01*
X0363053Y0235797D01*
X0362940Y0235858D01*
X0362830Y0235923D01*
X0362722Y0235992D01*
X0362616Y0236064D01*
X0362513Y0236139D01*
X0362411Y0236217D01*
X0362313Y0236298D01*
X0362216Y0236383D01*
X0362123Y0236470D01*
X0362032Y0236560D01*
X0361944Y0236653D01*
X0361859Y0236748D01*
X0361777Y0236847D01*
X0361698Y0236947D01*
X0361622Y0237050D01*
X0361549Y0237156D01*
X0361480Y0237263D01*
X0361414Y0237373D01*
X0361352Y0237484D01*
X0361293Y0237598D01*
X0361237Y0237713D01*
X0361185Y0237830D01*
X0361137Y0237949D01*
X0361092Y0238069D01*
X0361051Y0238190D01*
X0361014Y0238312D01*
X0360981Y0238436D01*
X0360952Y0238560D01*
X0360926Y0238686D01*
X0360904Y0238812D01*
X0360887Y0238938D01*
X0360873Y0239066D01*
X0360863Y0239193D01*
X0360857Y0239321D01*
X0360855Y0239449D01*
X0327390Y0239449D02*
X0327392Y0239577D01*
X0327398Y0239705D01*
X0327408Y0239832D01*
X0327422Y0239960D01*
X0327439Y0240086D01*
X0327461Y0240212D01*
X0327487Y0240338D01*
X0327516Y0240462D01*
X0327549Y0240586D01*
X0327586Y0240708D01*
X0327627Y0240829D01*
X0327672Y0240949D01*
X0327720Y0241068D01*
X0327772Y0241185D01*
X0327828Y0241300D01*
X0327887Y0241414D01*
X0327949Y0241525D01*
X0328015Y0241635D01*
X0328084Y0241742D01*
X0328157Y0241848D01*
X0328233Y0241951D01*
X0328312Y0242051D01*
X0328394Y0242150D01*
X0328479Y0242245D01*
X0328567Y0242338D01*
X0328658Y0242428D01*
X0328751Y0242515D01*
X0328848Y0242600D01*
X0328946Y0242681D01*
X0329048Y0242759D01*
X0329151Y0242834D01*
X0329257Y0242906D01*
X0329365Y0242975D01*
X0329475Y0243040D01*
X0329588Y0243101D01*
X0329702Y0243160D01*
X0329817Y0243214D01*
X0329935Y0243265D01*
X0330053Y0243313D01*
X0330174Y0243356D01*
X0330295Y0243396D01*
X0330418Y0243432D01*
X0330542Y0243465D01*
X0330667Y0243493D01*
X0330792Y0243518D01*
X0330918Y0243538D01*
X0331045Y0243555D01*
X0331173Y0243568D01*
X0331300Y0243577D01*
X0331428Y0243582D01*
X0331556Y0243583D01*
X0331684Y0243580D01*
X0331812Y0243573D01*
X0331939Y0243562D01*
X0332066Y0243547D01*
X0332193Y0243529D01*
X0332319Y0243506D01*
X0332444Y0243479D01*
X0332568Y0243449D01*
X0332691Y0243415D01*
X0332814Y0243377D01*
X0332935Y0243335D01*
X0333054Y0243289D01*
X0333172Y0243240D01*
X0333289Y0243187D01*
X0333404Y0243131D01*
X0333517Y0243071D01*
X0333628Y0243008D01*
X0333737Y0242941D01*
X0333844Y0242871D01*
X0333949Y0242797D01*
X0334051Y0242721D01*
X0334151Y0242641D01*
X0334249Y0242558D01*
X0334344Y0242472D01*
X0334436Y0242383D01*
X0334525Y0242292D01*
X0334612Y0242198D01*
X0334695Y0242101D01*
X0334776Y0242001D01*
X0334853Y0241900D01*
X0334928Y0241795D01*
X0334999Y0241689D01*
X0335066Y0241580D01*
X0335131Y0241470D01*
X0335191Y0241357D01*
X0335249Y0241243D01*
X0335302Y0241127D01*
X0335352Y0241009D01*
X0335399Y0240890D01*
X0335442Y0240769D01*
X0335481Y0240647D01*
X0335516Y0240524D01*
X0335547Y0240400D01*
X0335575Y0240275D01*
X0335598Y0240149D01*
X0335618Y0240023D01*
X0335634Y0239896D01*
X0335646Y0239769D01*
X0335654Y0239641D01*
X0335658Y0239513D01*
X0335658Y0239385D01*
X0335654Y0239257D01*
X0335646Y0239129D01*
X0335634Y0239002D01*
X0335618Y0238875D01*
X0335598Y0238749D01*
X0335575Y0238623D01*
X0335547Y0238498D01*
X0335516Y0238374D01*
X0335481Y0238251D01*
X0335442Y0238129D01*
X0335399Y0238008D01*
X0335352Y0237889D01*
X0335302Y0237771D01*
X0335249Y0237655D01*
X0335191Y0237541D01*
X0335131Y0237428D01*
X0335066Y0237318D01*
X0334999Y0237209D01*
X0334928Y0237103D01*
X0334853Y0236998D01*
X0334776Y0236897D01*
X0334695Y0236797D01*
X0334612Y0236700D01*
X0334525Y0236606D01*
X0334436Y0236515D01*
X0334344Y0236426D01*
X0334249Y0236340D01*
X0334151Y0236257D01*
X0334051Y0236177D01*
X0333949Y0236101D01*
X0333844Y0236027D01*
X0333737Y0235957D01*
X0333628Y0235890D01*
X0333517Y0235827D01*
X0333404Y0235767D01*
X0333289Y0235711D01*
X0333172Y0235658D01*
X0333054Y0235609D01*
X0332935Y0235563D01*
X0332814Y0235521D01*
X0332691Y0235483D01*
X0332568Y0235449D01*
X0332444Y0235419D01*
X0332319Y0235392D01*
X0332193Y0235369D01*
X0332066Y0235351D01*
X0331939Y0235336D01*
X0331812Y0235325D01*
X0331684Y0235318D01*
X0331556Y0235315D01*
X0331428Y0235316D01*
X0331300Y0235321D01*
X0331173Y0235330D01*
X0331045Y0235343D01*
X0330918Y0235360D01*
X0330792Y0235380D01*
X0330667Y0235405D01*
X0330542Y0235433D01*
X0330418Y0235466D01*
X0330295Y0235502D01*
X0330174Y0235542D01*
X0330053Y0235585D01*
X0329935Y0235633D01*
X0329817Y0235684D01*
X0329702Y0235738D01*
X0329588Y0235797D01*
X0329475Y0235858D01*
X0329365Y0235923D01*
X0329257Y0235992D01*
X0329151Y0236064D01*
X0329048Y0236139D01*
X0328946Y0236217D01*
X0328848Y0236298D01*
X0328751Y0236383D01*
X0328658Y0236470D01*
X0328567Y0236560D01*
X0328479Y0236653D01*
X0328394Y0236748D01*
X0328312Y0236847D01*
X0328233Y0236947D01*
X0328157Y0237050D01*
X0328084Y0237156D01*
X0328015Y0237263D01*
X0327949Y0237373D01*
X0327887Y0237484D01*
X0327828Y0237598D01*
X0327772Y0237713D01*
X0327720Y0237830D01*
X0327672Y0237949D01*
X0327627Y0238069D01*
X0327586Y0238190D01*
X0327549Y0238312D01*
X0327516Y0238436D01*
X0327487Y0238560D01*
X0327461Y0238686D01*
X0327439Y0238812D01*
X0327422Y0238938D01*
X0327408Y0239066D01*
X0327398Y0239193D01*
X0327392Y0239321D01*
X0327390Y0239449D01*
X0299831Y0239843D02*
X0299833Y0239971D01*
X0299839Y0240099D01*
X0299849Y0240226D01*
X0299863Y0240354D01*
X0299880Y0240480D01*
X0299902Y0240606D01*
X0299928Y0240732D01*
X0299957Y0240856D01*
X0299990Y0240980D01*
X0300027Y0241102D01*
X0300068Y0241223D01*
X0300113Y0241343D01*
X0300161Y0241462D01*
X0300213Y0241579D01*
X0300269Y0241694D01*
X0300328Y0241808D01*
X0300390Y0241919D01*
X0300456Y0242029D01*
X0300525Y0242136D01*
X0300598Y0242242D01*
X0300674Y0242345D01*
X0300753Y0242445D01*
X0300835Y0242544D01*
X0300920Y0242639D01*
X0301008Y0242732D01*
X0301099Y0242822D01*
X0301192Y0242909D01*
X0301289Y0242994D01*
X0301387Y0243075D01*
X0301489Y0243153D01*
X0301592Y0243228D01*
X0301698Y0243300D01*
X0301806Y0243369D01*
X0301916Y0243434D01*
X0302029Y0243495D01*
X0302143Y0243554D01*
X0302258Y0243608D01*
X0302376Y0243659D01*
X0302494Y0243707D01*
X0302615Y0243750D01*
X0302736Y0243790D01*
X0302859Y0243826D01*
X0302983Y0243859D01*
X0303108Y0243887D01*
X0303233Y0243912D01*
X0303359Y0243932D01*
X0303486Y0243949D01*
X0303614Y0243962D01*
X0303741Y0243971D01*
X0303869Y0243976D01*
X0303997Y0243977D01*
X0304125Y0243974D01*
X0304253Y0243967D01*
X0304380Y0243956D01*
X0304507Y0243941D01*
X0304634Y0243923D01*
X0304760Y0243900D01*
X0304885Y0243873D01*
X0305009Y0243843D01*
X0305132Y0243809D01*
X0305255Y0243771D01*
X0305376Y0243729D01*
X0305495Y0243683D01*
X0305613Y0243634D01*
X0305730Y0243581D01*
X0305845Y0243525D01*
X0305958Y0243465D01*
X0306069Y0243402D01*
X0306178Y0243335D01*
X0306285Y0243265D01*
X0306390Y0243191D01*
X0306492Y0243115D01*
X0306592Y0243035D01*
X0306690Y0242952D01*
X0306785Y0242866D01*
X0306877Y0242777D01*
X0306966Y0242686D01*
X0307053Y0242592D01*
X0307136Y0242495D01*
X0307217Y0242395D01*
X0307294Y0242294D01*
X0307369Y0242189D01*
X0307440Y0242083D01*
X0307507Y0241974D01*
X0307572Y0241864D01*
X0307632Y0241751D01*
X0307690Y0241637D01*
X0307743Y0241521D01*
X0307793Y0241403D01*
X0307840Y0241284D01*
X0307883Y0241163D01*
X0307922Y0241041D01*
X0307957Y0240918D01*
X0307988Y0240794D01*
X0308016Y0240669D01*
X0308039Y0240543D01*
X0308059Y0240417D01*
X0308075Y0240290D01*
X0308087Y0240163D01*
X0308095Y0240035D01*
X0308099Y0239907D01*
X0308099Y0239779D01*
X0308095Y0239651D01*
X0308087Y0239523D01*
X0308075Y0239396D01*
X0308059Y0239269D01*
X0308039Y0239143D01*
X0308016Y0239017D01*
X0307988Y0238892D01*
X0307957Y0238768D01*
X0307922Y0238645D01*
X0307883Y0238523D01*
X0307840Y0238402D01*
X0307793Y0238283D01*
X0307743Y0238165D01*
X0307690Y0238049D01*
X0307632Y0237935D01*
X0307572Y0237822D01*
X0307507Y0237712D01*
X0307440Y0237603D01*
X0307369Y0237497D01*
X0307294Y0237392D01*
X0307217Y0237291D01*
X0307136Y0237191D01*
X0307053Y0237094D01*
X0306966Y0237000D01*
X0306877Y0236909D01*
X0306785Y0236820D01*
X0306690Y0236734D01*
X0306592Y0236651D01*
X0306492Y0236571D01*
X0306390Y0236495D01*
X0306285Y0236421D01*
X0306178Y0236351D01*
X0306069Y0236284D01*
X0305958Y0236221D01*
X0305845Y0236161D01*
X0305730Y0236105D01*
X0305613Y0236052D01*
X0305495Y0236003D01*
X0305376Y0235957D01*
X0305255Y0235915D01*
X0305132Y0235877D01*
X0305009Y0235843D01*
X0304885Y0235813D01*
X0304760Y0235786D01*
X0304634Y0235763D01*
X0304507Y0235745D01*
X0304380Y0235730D01*
X0304253Y0235719D01*
X0304125Y0235712D01*
X0303997Y0235709D01*
X0303869Y0235710D01*
X0303741Y0235715D01*
X0303614Y0235724D01*
X0303486Y0235737D01*
X0303359Y0235754D01*
X0303233Y0235774D01*
X0303108Y0235799D01*
X0302983Y0235827D01*
X0302859Y0235860D01*
X0302736Y0235896D01*
X0302615Y0235936D01*
X0302494Y0235979D01*
X0302376Y0236027D01*
X0302258Y0236078D01*
X0302143Y0236132D01*
X0302029Y0236191D01*
X0301916Y0236252D01*
X0301806Y0236317D01*
X0301698Y0236386D01*
X0301592Y0236458D01*
X0301489Y0236533D01*
X0301387Y0236611D01*
X0301289Y0236692D01*
X0301192Y0236777D01*
X0301099Y0236864D01*
X0301008Y0236954D01*
X0300920Y0237047D01*
X0300835Y0237142D01*
X0300753Y0237241D01*
X0300674Y0237341D01*
X0300598Y0237444D01*
X0300525Y0237550D01*
X0300456Y0237657D01*
X0300390Y0237767D01*
X0300328Y0237878D01*
X0300269Y0237992D01*
X0300213Y0238107D01*
X0300161Y0238224D01*
X0300113Y0238343D01*
X0300068Y0238463D01*
X0300027Y0238584D01*
X0299990Y0238706D01*
X0299957Y0238830D01*
X0299928Y0238954D01*
X0299902Y0239080D01*
X0299880Y0239206D01*
X0299863Y0239332D01*
X0299849Y0239460D01*
X0299839Y0239587D01*
X0299833Y0239715D01*
X0299831Y0239843D01*
X0266367Y0239843D02*
X0266369Y0239971D01*
X0266375Y0240099D01*
X0266385Y0240226D01*
X0266399Y0240354D01*
X0266416Y0240480D01*
X0266438Y0240606D01*
X0266464Y0240732D01*
X0266493Y0240856D01*
X0266526Y0240980D01*
X0266563Y0241102D01*
X0266604Y0241223D01*
X0266649Y0241343D01*
X0266697Y0241462D01*
X0266749Y0241579D01*
X0266805Y0241694D01*
X0266864Y0241808D01*
X0266926Y0241919D01*
X0266992Y0242029D01*
X0267061Y0242136D01*
X0267134Y0242242D01*
X0267210Y0242345D01*
X0267289Y0242445D01*
X0267371Y0242544D01*
X0267456Y0242639D01*
X0267544Y0242732D01*
X0267635Y0242822D01*
X0267728Y0242909D01*
X0267825Y0242994D01*
X0267923Y0243075D01*
X0268025Y0243153D01*
X0268128Y0243228D01*
X0268234Y0243300D01*
X0268342Y0243369D01*
X0268452Y0243434D01*
X0268565Y0243495D01*
X0268679Y0243554D01*
X0268794Y0243608D01*
X0268912Y0243659D01*
X0269030Y0243707D01*
X0269151Y0243750D01*
X0269272Y0243790D01*
X0269395Y0243826D01*
X0269519Y0243859D01*
X0269644Y0243887D01*
X0269769Y0243912D01*
X0269895Y0243932D01*
X0270022Y0243949D01*
X0270150Y0243962D01*
X0270277Y0243971D01*
X0270405Y0243976D01*
X0270533Y0243977D01*
X0270661Y0243974D01*
X0270789Y0243967D01*
X0270916Y0243956D01*
X0271043Y0243941D01*
X0271170Y0243923D01*
X0271296Y0243900D01*
X0271421Y0243873D01*
X0271545Y0243843D01*
X0271668Y0243809D01*
X0271791Y0243771D01*
X0271912Y0243729D01*
X0272031Y0243683D01*
X0272149Y0243634D01*
X0272266Y0243581D01*
X0272381Y0243525D01*
X0272494Y0243465D01*
X0272605Y0243402D01*
X0272714Y0243335D01*
X0272821Y0243265D01*
X0272926Y0243191D01*
X0273028Y0243115D01*
X0273128Y0243035D01*
X0273226Y0242952D01*
X0273321Y0242866D01*
X0273413Y0242777D01*
X0273502Y0242686D01*
X0273589Y0242592D01*
X0273672Y0242495D01*
X0273753Y0242395D01*
X0273830Y0242294D01*
X0273905Y0242189D01*
X0273976Y0242083D01*
X0274043Y0241974D01*
X0274108Y0241864D01*
X0274168Y0241751D01*
X0274226Y0241637D01*
X0274279Y0241521D01*
X0274329Y0241403D01*
X0274376Y0241284D01*
X0274419Y0241163D01*
X0274458Y0241041D01*
X0274493Y0240918D01*
X0274524Y0240794D01*
X0274552Y0240669D01*
X0274575Y0240543D01*
X0274595Y0240417D01*
X0274611Y0240290D01*
X0274623Y0240163D01*
X0274631Y0240035D01*
X0274635Y0239907D01*
X0274635Y0239779D01*
X0274631Y0239651D01*
X0274623Y0239523D01*
X0274611Y0239396D01*
X0274595Y0239269D01*
X0274575Y0239143D01*
X0274552Y0239017D01*
X0274524Y0238892D01*
X0274493Y0238768D01*
X0274458Y0238645D01*
X0274419Y0238523D01*
X0274376Y0238402D01*
X0274329Y0238283D01*
X0274279Y0238165D01*
X0274226Y0238049D01*
X0274168Y0237935D01*
X0274108Y0237822D01*
X0274043Y0237712D01*
X0273976Y0237603D01*
X0273905Y0237497D01*
X0273830Y0237392D01*
X0273753Y0237291D01*
X0273672Y0237191D01*
X0273589Y0237094D01*
X0273502Y0237000D01*
X0273413Y0236909D01*
X0273321Y0236820D01*
X0273226Y0236734D01*
X0273128Y0236651D01*
X0273028Y0236571D01*
X0272926Y0236495D01*
X0272821Y0236421D01*
X0272714Y0236351D01*
X0272605Y0236284D01*
X0272494Y0236221D01*
X0272381Y0236161D01*
X0272266Y0236105D01*
X0272149Y0236052D01*
X0272031Y0236003D01*
X0271912Y0235957D01*
X0271791Y0235915D01*
X0271668Y0235877D01*
X0271545Y0235843D01*
X0271421Y0235813D01*
X0271296Y0235786D01*
X0271170Y0235763D01*
X0271043Y0235745D01*
X0270916Y0235730D01*
X0270789Y0235719D01*
X0270661Y0235712D01*
X0270533Y0235709D01*
X0270405Y0235710D01*
X0270277Y0235715D01*
X0270150Y0235724D01*
X0270022Y0235737D01*
X0269895Y0235754D01*
X0269769Y0235774D01*
X0269644Y0235799D01*
X0269519Y0235827D01*
X0269395Y0235860D01*
X0269272Y0235896D01*
X0269151Y0235936D01*
X0269030Y0235979D01*
X0268912Y0236027D01*
X0268794Y0236078D01*
X0268679Y0236132D01*
X0268565Y0236191D01*
X0268452Y0236252D01*
X0268342Y0236317D01*
X0268234Y0236386D01*
X0268128Y0236458D01*
X0268025Y0236533D01*
X0267923Y0236611D01*
X0267825Y0236692D01*
X0267728Y0236777D01*
X0267635Y0236864D01*
X0267544Y0236954D01*
X0267456Y0237047D01*
X0267371Y0237142D01*
X0267289Y0237241D01*
X0267210Y0237341D01*
X0267134Y0237444D01*
X0267061Y0237550D01*
X0266992Y0237657D01*
X0266926Y0237767D01*
X0266864Y0237878D01*
X0266805Y0237992D01*
X0266749Y0238107D01*
X0266697Y0238224D01*
X0266649Y0238343D01*
X0266604Y0238463D01*
X0266563Y0238584D01*
X0266526Y0238706D01*
X0266493Y0238830D01*
X0266464Y0238954D01*
X0266438Y0239080D01*
X0266416Y0239206D01*
X0266399Y0239332D01*
X0266385Y0239460D01*
X0266375Y0239587D01*
X0266369Y0239715D01*
X0266367Y0239843D01*
X0238808Y0239843D02*
X0238810Y0239971D01*
X0238816Y0240099D01*
X0238826Y0240226D01*
X0238840Y0240354D01*
X0238857Y0240480D01*
X0238879Y0240606D01*
X0238905Y0240732D01*
X0238934Y0240856D01*
X0238967Y0240980D01*
X0239004Y0241102D01*
X0239045Y0241223D01*
X0239090Y0241343D01*
X0239138Y0241462D01*
X0239190Y0241579D01*
X0239246Y0241694D01*
X0239305Y0241808D01*
X0239367Y0241919D01*
X0239433Y0242029D01*
X0239502Y0242136D01*
X0239575Y0242242D01*
X0239651Y0242345D01*
X0239730Y0242445D01*
X0239812Y0242544D01*
X0239897Y0242639D01*
X0239985Y0242732D01*
X0240076Y0242822D01*
X0240169Y0242909D01*
X0240266Y0242994D01*
X0240364Y0243075D01*
X0240466Y0243153D01*
X0240569Y0243228D01*
X0240675Y0243300D01*
X0240783Y0243369D01*
X0240893Y0243434D01*
X0241006Y0243495D01*
X0241120Y0243554D01*
X0241235Y0243608D01*
X0241353Y0243659D01*
X0241471Y0243707D01*
X0241592Y0243750D01*
X0241713Y0243790D01*
X0241836Y0243826D01*
X0241960Y0243859D01*
X0242085Y0243887D01*
X0242210Y0243912D01*
X0242336Y0243932D01*
X0242463Y0243949D01*
X0242591Y0243962D01*
X0242718Y0243971D01*
X0242846Y0243976D01*
X0242974Y0243977D01*
X0243102Y0243974D01*
X0243230Y0243967D01*
X0243357Y0243956D01*
X0243484Y0243941D01*
X0243611Y0243923D01*
X0243737Y0243900D01*
X0243862Y0243873D01*
X0243986Y0243843D01*
X0244109Y0243809D01*
X0244232Y0243771D01*
X0244353Y0243729D01*
X0244472Y0243683D01*
X0244590Y0243634D01*
X0244707Y0243581D01*
X0244822Y0243525D01*
X0244935Y0243465D01*
X0245046Y0243402D01*
X0245155Y0243335D01*
X0245262Y0243265D01*
X0245367Y0243191D01*
X0245469Y0243115D01*
X0245569Y0243035D01*
X0245667Y0242952D01*
X0245762Y0242866D01*
X0245854Y0242777D01*
X0245943Y0242686D01*
X0246030Y0242592D01*
X0246113Y0242495D01*
X0246194Y0242395D01*
X0246271Y0242294D01*
X0246346Y0242189D01*
X0246417Y0242083D01*
X0246484Y0241974D01*
X0246549Y0241864D01*
X0246609Y0241751D01*
X0246667Y0241637D01*
X0246720Y0241521D01*
X0246770Y0241403D01*
X0246817Y0241284D01*
X0246860Y0241163D01*
X0246899Y0241041D01*
X0246934Y0240918D01*
X0246965Y0240794D01*
X0246993Y0240669D01*
X0247016Y0240543D01*
X0247036Y0240417D01*
X0247052Y0240290D01*
X0247064Y0240163D01*
X0247072Y0240035D01*
X0247076Y0239907D01*
X0247076Y0239779D01*
X0247072Y0239651D01*
X0247064Y0239523D01*
X0247052Y0239396D01*
X0247036Y0239269D01*
X0247016Y0239143D01*
X0246993Y0239017D01*
X0246965Y0238892D01*
X0246934Y0238768D01*
X0246899Y0238645D01*
X0246860Y0238523D01*
X0246817Y0238402D01*
X0246770Y0238283D01*
X0246720Y0238165D01*
X0246667Y0238049D01*
X0246609Y0237935D01*
X0246549Y0237822D01*
X0246484Y0237712D01*
X0246417Y0237603D01*
X0246346Y0237497D01*
X0246271Y0237392D01*
X0246194Y0237291D01*
X0246113Y0237191D01*
X0246030Y0237094D01*
X0245943Y0237000D01*
X0245854Y0236909D01*
X0245762Y0236820D01*
X0245667Y0236734D01*
X0245569Y0236651D01*
X0245469Y0236571D01*
X0245367Y0236495D01*
X0245262Y0236421D01*
X0245155Y0236351D01*
X0245046Y0236284D01*
X0244935Y0236221D01*
X0244822Y0236161D01*
X0244707Y0236105D01*
X0244590Y0236052D01*
X0244472Y0236003D01*
X0244353Y0235957D01*
X0244232Y0235915D01*
X0244109Y0235877D01*
X0243986Y0235843D01*
X0243862Y0235813D01*
X0243737Y0235786D01*
X0243611Y0235763D01*
X0243484Y0235745D01*
X0243357Y0235730D01*
X0243230Y0235719D01*
X0243102Y0235712D01*
X0242974Y0235709D01*
X0242846Y0235710D01*
X0242718Y0235715D01*
X0242591Y0235724D01*
X0242463Y0235737D01*
X0242336Y0235754D01*
X0242210Y0235774D01*
X0242085Y0235799D01*
X0241960Y0235827D01*
X0241836Y0235860D01*
X0241713Y0235896D01*
X0241592Y0235936D01*
X0241471Y0235979D01*
X0241353Y0236027D01*
X0241235Y0236078D01*
X0241120Y0236132D01*
X0241006Y0236191D01*
X0240893Y0236252D01*
X0240783Y0236317D01*
X0240675Y0236386D01*
X0240569Y0236458D01*
X0240466Y0236533D01*
X0240364Y0236611D01*
X0240266Y0236692D01*
X0240169Y0236777D01*
X0240076Y0236864D01*
X0239985Y0236954D01*
X0239897Y0237047D01*
X0239812Y0237142D01*
X0239730Y0237241D01*
X0239651Y0237341D01*
X0239575Y0237444D01*
X0239502Y0237550D01*
X0239433Y0237657D01*
X0239367Y0237767D01*
X0239305Y0237878D01*
X0239246Y0237992D01*
X0239190Y0238107D01*
X0239138Y0238224D01*
X0239090Y0238343D01*
X0239045Y0238463D01*
X0239004Y0238584D01*
X0238967Y0238706D01*
X0238934Y0238830D01*
X0238905Y0238954D01*
X0238879Y0239080D01*
X0238857Y0239206D01*
X0238840Y0239332D01*
X0238826Y0239460D01*
X0238816Y0239587D01*
X0238810Y0239715D01*
X0238808Y0239843D01*
X0205343Y0239843D02*
X0205345Y0239971D01*
X0205351Y0240099D01*
X0205361Y0240226D01*
X0205375Y0240354D01*
X0205392Y0240480D01*
X0205414Y0240606D01*
X0205440Y0240732D01*
X0205469Y0240856D01*
X0205502Y0240980D01*
X0205539Y0241102D01*
X0205580Y0241223D01*
X0205625Y0241343D01*
X0205673Y0241462D01*
X0205725Y0241579D01*
X0205781Y0241694D01*
X0205840Y0241808D01*
X0205902Y0241919D01*
X0205968Y0242029D01*
X0206037Y0242136D01*
X0206110Y0242242D01*
X0206186Y0242345D01*
X0206265Y0242445D01*
X0206347Y0242544D01*
X0206432Y0242639D01*
X0206520Y0242732D01*
X0206611Y0242822D01*
X0206704Y0242909D01*
X0206801Y0242994D01*
X0206899Y0243075D01*
X0207001Y0243153D01*
X0207104Y0243228D01*
X0207210Y0243300D01*
X0207318Y0243369D01*
X0207428Y0243434D01*
X0207541Y0243495D01*
X0207655Y0243554D01*
X0207770Y0243608D01*
X0207888Y0243659D01*
X0208006Y0243707D01*
X0208127Y0243750D01*
X0208248Y0243790D01*
X0208371Y0243826D01*
X0208495Y0243859D01*
X0208620Y0243887D01*
X0208745Y0243912D01*
X0208871Y0243932D01*
X0208998Y0243949D01*
X0209126Y0243962D01*
X0209253Y0243971D01*
X0209381Y0243976D01*
X0209509Y0243977D01*
X0209637Y0243974D01*
X0209765Y0243967D01*
X0209892Y0243956D01*
X0210019Y0243941D01*
X0210146Y0243923D01*
X0210272Y0243900D01*
X0210397Y0243873D01*
X0210521Y0243843D01*
X0210644Y0243809D01*
X0210767Y0243771D01*
X0210888Y0243729D01*
X0211007Y0243683D01*
X0211125Y0243634D01*
X0211242Y0243581D01*
X0211357Y0243525D01*
X0211470Y0243465D01*
X0211581Y0243402D01*
X0211690Y0243335D01*
X0211797Y0243265D01*
X0211902Y0243191D01*
X0212004Y0243115D01*
X0212104Y0243035D01*
X0212202Y0242952D01*
X0212297Y0242866D01*
X0212389Y0242777D01*
X0212478Y0242686D01*
X0212565Y0242592D01*
X0212648Y0242495D01*
X0212729Y0242395D01*
X0212806Y0242294D01*
X0212881Y0242189D01*
X0212952Y0242083D01*
X0213019Y0241974D01*
X0213084Y0241864D01*
X0213144Y0241751D01*
X0213202Y0241637D01*
X0213255Y0241521D01*
X0213305Y0241403D01*
X0213352Y0241284D01*
X0213395Y0241163D01*
X0213434Y0241041D01*
X0213469Y0240918D01*
X0213500Y0240794D01*
X0213528Y0240669D01*
X0213551Y0240543D01*
X0213571Y0240417D01*
X0213587Y0240290D01*
X0213599Y0240163D01*
X0213607Y0240035D01*
X0213611Y0239907D01*
X0213611Y0239779D01*
X0213607Y0239651D01*
X0213599Y0239523D01*
X0213587Y0239396D01*
X0213571Y0239269D01*
X0213551Y0239143D01*
X0213528Y0239017D01*
X0213500Y0238892D01*
X0213469Y0238768D01*
X0213434Y0238645D01*
X0213395Y0238523D01*
X0213352Y0238402D01*
X0213305Y0238283D01*
X0213255Y0238165D01*
X0213202Y0238049D01*
X0213144Y0237935D01*
X0213084Y0237822D01*
X0213019Y0237712D01*
X0212952Y0237603D01*
X0212881Y0237497D01*
X0212806Y0237392D01*
X0212729Y0237291D01*
X0212648Y0237191D01*
X0212565Y0237094D01*
X0212478Y0237000D01*
X0212389Y0236909D01*
X0212297Y0236820D01*
X0212202Y0236734D01*
X0212104Y0236651D01*
X0212004Y0236571D01*
X0211902Y0236495D01*
X0211797Y0236421D01*
X0211690Y0236351D01*
X0211581Y0236284D01*
X0211470Y0236221D01*
X0211357Y0236161D01*
X0211242Y0236105D01*
X0211125Y0236052D01*
X0211007Y0236003D01*
X0210888Y0235957D01*
X0210767Y0235915D01*
X0210644Y0235877D01*
X0210521Y0235843D01*
X0210397Y0235813D01*
X0210272Y0235786D01*
X0210146Y0235763D01*
X0210019Y0235745D01*
X0209892Y0235730D01*
X0209765Y0235719D01*
X0209637Y0235712D01*
X0209509Y0235709D01*
X0209381Y0235710D01*
X0209253Y0235715D01*
X0209126Y0235724D01*
X0208998Y0235737D01*
X0208871Y0235754D01*
X0208745Y0235774D01*
X0208620Y0235799D01*
X0208495Y0235827D01*
X0208371Y0235860D01*
X0208248Y0235896D01*
X0208127Y0235936D01*
X0208006Y0235979D01*
X0207888Y0236027D01*
X0207770Y0236078D01*
X0207655Y0236132D01*
X0207541Y0236191D01*
X0207428Y0236252D01*
X0207318Y0236317D01*
X0207210Y0236386D01*
X0207104Y0236458D01*
X0207001Y0236533D01*
X0206899Y0236611D01*
X0206801Y0236692D01*
X0206704Y0236777D01*
X0206611Y0236864D01*
X0206520Y0236954D01*
X0206432Y0237047D01*
X0206347Y0237142D01*
X0206265Y0237241D01*
X0206186Y0237341D01*
X0206110Y0237444D01*
X0206037Y0237550D01*
X0205968Y0237657D01*
X0205902Y0237767D01*
X0205840Y0237878D01*
X0205781Y0237992D01*
X0205725Y0238107D01*
X0205673Y0238224D01*
X0205625Y0238343D01*
X0205580Y0238463D01*
X0205539Y0238584D01*
X0205502Y0238706D01*
X0205469Y0238830D01*
X0205440Y0238954D01*
X0205414Y0239080D01*
X0205392Y0239206D01*
X0205375Y0239332D01*
X0205361Y0239460D01*
X0205351Y0239587D01*
X0205345Y0239715D01*
X0205343Y0239843D01*
X0177784Y0239843D02*
X0177786Y0239971D01*
X0177792Y0240099D01*
X0177802Y0240226D01*
X0177816Y0240354D01*
X0177833Y0240480D01*
X0177855Y0240606D01*
X0177881Y0240732D01*
X0177910Y0240856D01*
X0177943Y0240980D01*
X0177980Y0241102D01*
X0178021Y0241223D01*
X0178066Y0241343D01*
X0178114Y0241462D01*
X0178166Y0241579D01*
X0178222Y0241694D01*
X0178281Y0241808D01*
X0178343Y0241919D01*
X0178409Y0242029D01*
X0178478Y0242136D01*
X0178551Y0242242D01*
X0178627Y0242345D01*
X0178706Y0242445D01*
X0178788Y0242544D01*
X0178873Y0242639D01*
X0178961Y0242732D01*
X0179052Y0242822D01*
X0179145Y0242909D01*
X0179242Y0242994D01*
X0179340Y0243075D01*
X0179442Y0243153D01*
X0179545Y0243228D01*
X0179651Y0243300D01*
X0179759Y0243369D01*
X0179869Y0243434D01*
X0179982Y0243495D01*
X0180096Y0243554D01*
X0180211Y0243608D01*
X0180329Y0243659D01*
X0180447Y0243707D01*
X0180568Y0243750D01*
X0180689Y0243790D01*
X0180812Y0243826D01*
X0180936Y0243859D01*
X0181061Y0243887D01*
X0181186Y0243912D01*
X0181312Y0243932D01*
X0181439Y0243949D01*
X0181567Y0243962D01*
X0181694Y0243971D01*
X0181822Y0243976D01*
X0181950Y0243977D01*
X0182078Y0243974D01*
X0182206Y0243967D01*
X0182333Y0243956D01*
X0182460Y0243941D01*
X0182587Y0243923D01*
X0182713Y0243900D01*
X0182838Y0243873D01*
X0182962Y0243843D01*
X0183085Y0243809D01*
X0183208Y0243771D01*
X0183329Y0243729D01*
X0183448Y0243683D01*
X0183566Y0243634D01*
X0183683Y0243581D01*
X0183798Y0243525D01*
X0183911Y0243465D01*
X0184022Y0243402D01*
X0184131Y0243335D01*
X0184238Y0243265D01*
X0184343Y0243191D01*
X0184445Y0243115D01*
X0184545Y0243035D01*
X0184643Y0242952D01*
X0184738Y0242866D01*
X0184830Y0242777D01*
X0184919Y0242686D01*
X0185006Y0242592D01*
X0185089Y0242495D01*
X0185170Y0242395D01*
X0185247Y0242294D01*
X0185322Y0242189D01*
X0185393Y0242083D01*
X0185460Y0241974D01*
X0185525Y0241864D01*
X0185585Y0241751D01*
X0185643Y0241637D01*
X0185696Y0241521D01*
X0185746Y0241403D01*
X0185793Y0241284D01*
X0185836Y0241163D01*
X0185875Y0241041D01*
X0185910Y0240918D01*
X0185941Y0240794D01*
X0185969Y0240669D01*
X0185992Y0240543D01*
X0186012Y0240417D01*
X0186028Y0240290D01*
X0186040Y0240163D01*
X0186048Y0240035D01*
X0186052Y0239907D01*
X0186052Y0239779D01*
X0186048Y0239651D01*
X0186040Y0239523D01*
X0186028Y0239396D01*
X0186012Y0239269D01*
X0185992Y0239143D01*
X0185969Y0239017D01*
X0185941Y0238892D01*
X0185910Y0238768D01*
X0185875Y0238645D01*
X0185836Y0238523D01*
X0185793Y0238402D01*
X0185746Y0238283D01*
X0185696Y0238165D01*
X0185643Y0238049D01*
X0185585Y0237935D01*
X0185525Y0237822D01*
X0185460Y0237712D01*
X0185393Y0237603D01*
X0185322Y0237497D01*
X0185247Y0237392D01*
X0185170Y0237291D01*
X0185089Y0237191D01*
X0185006Y0237094D01*
X0184919Y0237000D01*
X0184830Y0236909D01*
X0184738Y0236820D01*
X0184643Y0236734D01*
X0184545Y0236651D01*
X0184445Y0236571D01*
X0184343Y0236495D01*
X0184238Y0236421D01*
X0184131Y0236351D01*
X0184022Y0236284D01*
X0183911Y0236221D01*
X0183798Y0236161D01*
X0183683Y0236105D01*
X0183566Y0236052D01*
X0183448Y0236003D01*
X0183329Y0235957D01*
X0183208Y0235915D01*
X0183085Y0235877D01*
X0182962Y0235843D01*
X0182838Y0235813D01*
X0182713Y0235786D01*
X0182587Y0235763D01*
X0182460Y0235745D01*
X0182333Y0235730D01*
X0182206Y0235719D01*
X0182078Y0235712D01*
X0181950Y0235709D01*
X0181822Y0235710D01*
X0181694Y0235715D01*
X0181567Y0235724D01*
X0181439Y0235737D01*
X0181312Y0235754D01*
X0181186Y0235774D01*
X0181061Y0235799D01*
X0180936Y0235827D01*
X0180812Y0235860D01*
X0180689Y0235896D01*
X0180568Y0235936D01*
X0180447Y0235979D01*
X0180329Y0236027D01*
X0180211Y0236078D01*
X0180096Y0236132D01*
X0179982Y0236191D01*
X0179869Y0236252D01*
X0179759Y0236317D01*
X0179651Y0236386D01*
X0179545Y0236458D01*
X0179442Y0236533D01*
X0179340Y0236611D01*
X0179242Y0236692D01*
X0179145Y0236777D01*
X0179052Y0236864D01*
X0178961Y0236954D01*
X0178873Y0237047D01*
X0178788Y0237142D01*
X0178706Y0237241D01*
X0178627Y0237341D01*
X0178551Y0237444D01*
X0178478Y0237550D01*
X0178409Y0237657D01*
X0178343Y0237767D01*
X0178281Y0237878D01*
X0178222Y0237992D01*
X0178166Y0238107D01*
X0178114Y0238224D01*
X0178066Y0238343D01*
X0178021Y0238463D01*
X0177980Y0238584D01*
X0177943Y0238706D01*
X0177910Y0238830D01*
X0177881Y0238954D01*
X0177855Y0239080D01*
X0177833Y0239206D01*
X0177816Y0239332D01*
X0177802Y0239460D01*
X0177792Y0239587D01*
X0177786Y0239715D01*
X0177784Y0239843D01*
X0144320Y0239843D02*
X0144322Y0239971D01*
X0144328Y0240099D01*
X0144338Y0240226D01*
X0144352Y0240354D01*
X0144369Y0240480D01*
X0144391Y0240606D01*
X0144417Y0240732D01*
X0144446Y0240856D01*
X0144479Y0240980D01*
X0144516Y0241102D01*
X0144557Y0241223D01*
X0144602Y0241343D01*
X0144650Y0241462D01*
X0144702Y0241579D01*
X0144758Y0241694D01*
X0144817Y0241808D01*
X0144879Y0241919D01*
X0144945Y0242029D01*
X0145014Y0242136D01*
X0145087Y0242242D01*
X0145163Y0242345D01*
X0145242Y0242445D01*
X0145324Y0242544D01*
X0145409Y0242639D01*
X0145497Y0242732D01*
X0145588Y0242822D01*
X0145681Y0242909D01*
X0145778Y0242994D01*
X0145876Y0243075D01*
X0145978Y0243153D01*
X0146081Y0243228D01*
X0146187Y0243300D01*
X0146295Y0243369D01*
X0146405Y0243434D01*
X0146518Y0243495D01*
X0146632Y0243554D01*
X0146747Y0243608D01*
X0146865Y0243659D01*
X0146983Y0243707D01*
X0147104Y0243750D01*
X0147225Y0243790D01*
X0147348Y0243826D01*
X0147472Y0243859D01*
X0147597Y0243887D01*
X0147722Y0243912D01*
X0147848Y0243932D01*
X0147975Y0243949D01*
X0148103Y0243962D01*
X0148230Y0243971D01*
X0148358Y0243976D01*
X0148486Y0243977D01*
X0148614Y0243974D01*
X0148742Y0243967D01*
X0148869Y0243956D01*
X0148996Y0243941D01*
X0149123Y0243923D01*
X0149249Y0243900D01*
X0149374Y0243873D01*
X0149498Y0243843D01*
X0149621Y0243809D01*
X0149744Y0243771D01*
X0149865Y0243729D01*
X0149984Y0243683D01*
X0150102Y0243634D01*
X0150219Y0243581D01*
X0150334Y0243525D01*
X0150447Y0243465D01*
X0150558Y0243402D01*
X0150667Y0243335D01*
X0150774Y0243265D01*
X0150879Y0243191D01*
X0150981Y0243115D01*
X0151081Y0243035D01*
X0151179Y0242952D01*
X0151274Y0242866D01*
X0151366Y0242777D01*
X0151455Y0242686D01*
X0151542Y0242592D01*
X0151625Y0242495D01*
X0151706Y0242395D01*
X0151783Y0242294D01*
X0151858Y0242189D01*
X0151929Y0242083D01*
X0151996Y0241974D01*
X0152061Y0241864D01*
X0152121Y0241751D01*
X0152179Y0241637D01*
X0152232Y0241521D01*
X0152282Y0241403D01*
X0152329Y0241284D01*
X0152372Y0241163D01*
X0152411Y0241041D01*
X0152446Y0240918D01*
X0152477Y0240794D01*
X0152505Y0240669D01*
X0152528Y0240543D01*
X0152548Y0240417D01*
X0152564Y0240290D01*
X0152576Y0240163D01*
X0152584Y0240035D01*
X0152588Y0239907D01*
X0152588Y0239779D01*
X0152584Y0239651D01*
X0152576Y0239523D01*
X0152564Y0239396D01*
X0152548Y0239269D01*
X0152528Y0239143D01*
X0152505Y0239017D01*
X0152477Y0238892D01*
X0152446Y0238768D01*
X0152411Y0238645D01*
X0152372Y0238523D01*
X0152329Y0238402D01*
X0152282Y0238283D01*
X0152232Y0238165D01*
X0152179Y0238049D01*
X0152121Y0237935D01*
X0152061Y0237822D01*
X0151996Y0237712D01*
X0151929Y0237603D01*
X0151858Y0237497D01*
X0151783Y0237392D01*
X0151706Y0237291D01*
X0151625Y0237191D01*
X0151542Y0237094D01*
X0151455Y0237000D01*
X0151366Y0236909D01*
X0151274Y0236820D01*
X0151179Y0236734D01*
X0151081Y0236651D01*
X0150981Y0236571D01*
X0150879Y0236495D01*
X0150774Y0236421D01*
X0150667Y0236351D01*
X0150558Y0236284D01*
X0150447Y0236221D01*
X0150334Y0236161D01*
X0150219Y0236105D01*
X0150102Y0236052D01*
X0149984Y0236003D01*
X0149865Y0235957D01*
X0149744Y0235915D01*
X0149621Y0235877D01*
X0149498Y0235843D01*
X0149374Y0235813D01*
X0149249Y0235786D01*
X0149123Y0235763D01*
X0148996Y0235745D01*
X0148869Y0235730D01*
X0148742Y0235719D01*
X0148614Y0235712D01*
X0148486Y0235709D01*
X0148358Y0235710D01*
X0148230Y0235715D01*
X0148103Y0235724D01*
X0147975Y0235737D01*
X0147848Y0235754D01*
X0147722Y0235774D01*
X0147597Y0235799D01*
X0147472Y0235827D01*
X0147348Y0235860D01*
X0147225Y0235896D01*
X0147104Y0235936D01*
X0146983Y0235979D01*
X0146865Y0236027D01*
X0146747Y0236078D01*
X0146632Y0236132D01*
X0146518Y0236191D01*
X0146405Y0236252D01*
X0146295Y0236317D01*
X0146187Y0236386D01*
X0146081Y0236458D01*
X0145978Y0236533D01*
X0145876Y0236611D01*
X0145778Y0236692D01*
X0145681Y0236777D01*
X0145588Y0236864D01*
X0145497Y0236954D01*
X0145409Y0237047D01*
X0145324Y0237142D01*
X0145242Y0237241D01*
X0145163Y0237341D01*
X0145087Y0237444D01*
X0145014Y0237550D01*
X0144945Y0237657D01*
X0144879Y0237767D01*
X0144817Y0237878D01*
X0144758Y0237992D01*
X0144702Y0238107D01*
X0144650Y0238224D01*
X0144602Y0238343D01*
X0144557Y0238463D01*
X0144516Y0238584D01*
X0144479Y0238706D01*
X0144446Y0238830D01*
X0144417Y0238954D01*
X0144391Y0239080D01*
X0144369Y0239206D01*
X0144352Y0239332D01*
X0144338Y0239460D01*
X0144328Y0239587D01*
X0144322Y0239715D01*
X0144320Y0239843D01*
X0005344Y0241220D02*
X0005346Y0241378D01*
X0005352Y0241536D01*
X0005362Y0241694D01*
X0005376Y0241852D01*
X0005394Y0242009D01*
X0005415Y0242166D01*
X0005441Y0242322D01*
X0005471Y0242478D01*
X0005504Y0242633D01*
X0005542Y0242786D01*
X0005583Y0242939D01*
X0005628Y0243091D01*
X0005677Y0243242D01*
X0005730Y0243391D01*
X0005786Y0243539D01*
X0005846Y0243685D01*
X0005910Y0243830D01*
X0005978Y0243973D01*
X0006049Y0244115D01*
X0006123Y0244255D01*
X0006201Y0244392D01*
X0006283Y0244528D01*
X0006367Y0244662D01*
X0006456Y0244793D01*
X0006547Y0244922D01*
X0006642Y0245049D01*
X0006739Y0245174D01*
X0006840Y0245296D01*
X0006944Y0245415D01*
X0007051Y0245532D01*
X0007161Y0245646D01*
X0007274Y0245757D01*
X0007389Y0245866D01*
X0007507Y0245971D01*
X0007628Y0246073D01*
X0007751Y0246173D01*
X0007877Y0246269D01*
X0008005Y0246362D01*
X0008135Y0246452D01*
X0008268Y0246538D01*
X0008403Y0246622D01*
X0008539Y0246701D01*
X0008678Y0246778D01*
X0008819Y0246850D01*
X0008961Y0246920D01*
X0009105Y0246985D01*
X0009251Y0247047D01*
X0009398Y0247105D01*
X0009547Y0247160D01*
X0009697Y0247211D01*
X0009848Y0247258D01*
X0010000Y0247301D01*
X0010153Y0247340D01*
X0010308Y0247376D01*
X0010463Y0247407D01*
X0010619Y0247435D01*
X0010775Y0247459D01*
X0010932Y0247479D01*
X0011090Y0247495D01*
X0011247Y0247507D01*
X0011406Y0247515D01*
X0011564Y0247519D01*
X0011722Y0247519D01*
X0011880Y0247515D01*
X0012039Y0247507D01*
X0012196Y0247495D01*
X0012354Y0247479D01*
X0012511Y0247459D01*
X0012667Y0247435D01*
X0012823Y0247407D01*
X0012978Y0247376D01*
X0013133Y0247340D01*
X0013286Y0247301D01*
X0013438Y0247258D01*
X0013589Y0247211D01*
X0013739Y0247160D01*
X0013888Y0247105D01*
X0014035Y0247047D01*
X0014181Y0246985D01*
X0014325Y0246920D01*
X0014467Y0246850D01*
X0014608Y0246778D01*
X0014747Y0246701D01*
X0014883Y0246622D01*
X0015018Y0246538D01*
X0015151Y0246452D01*
X0015281Y0246362D01*
X0015409Y0246269D01*
X0015535Y0246173D01*
X0015658Y0246073D01*
X0015779Y0245971D01*
X0015897Y0245866D01*
X0016012Y0245757D01*
X0016125Y0245646D01*
X0016235Y0245532D01*
X0016342Y0245415D01*
X0016446Y0245296D01*
X0016547Y0245174D01*
X0016644Y0245049D01*
X0016739Y0244922D01*
X0016830Y0244793D01*
X0016919Y0244662D01*
X0017003Y0244528D01*
X0017085Y0244392D01*
X0017163Y0244255D01*
X0017237Y0244115D01*
X0017308Y0243973D01*
X0017376Y0243830D01*
X0017440Y0243685D01*
X0017500Y0243539D01*
X0017556Y0243391D01*
X0017609Y0243242D01*
X0017658Y0243091D01*
X0017703Y0242939D01*
X0017744Y0242786D01*
X0017782Y0242633D01*
X0017815Y0242478D01*
X0017845Y0242322D01*
X0017871Y0242166D01*
X0017892Y0242009D01*
X0017910Y0241852D01*
X0017924Y0241694D01*
X0017934Y0241536D01*
X0017940Y0241378D01*
X0017942Y0241220D01*
X0017940Y0241062D01*
X0017934Y0240904D01*
X0017924Y0240746D01*
X0017910Y0240588D01*
X0017892Y0240431D01*
X0017871Y0240274D01*
X0017845Y0240118D01*
X0017815Y0239962D01*
X0017782Y0239807D01*
X0017744Y0239654D01*
X0017703Y0239501D01*
X0017658Y0239349D01*
X0017609Y0239198D01*
X0017556Y0239049D01*
X0017500Y0238901D01*
X0017440Y0238755D01*
X0017376Y0238610D01*
X0017308Y0238467D01*
X0017237Y0238325D01*
X0017163Y0238185D01*
X0017085Y0238048D01*
X0017003Y0237912D01*
X0016919Y0237778D01*
X0016830Y0237647D01*
X0016739Y0237518D01*
X0016644Y0237391D01*
X0016547Y0237266D01*
X0016446Y0237144D01*
X0016342Y0237025D01*
X0016235Y0236908D01*
X0016125Y0236794D01*
X0016012Y0236683D01*
X0015897Y0236574D01*
X0015779Y0236469D01*
X0015658Y0236367D01*
X0015535Y0236267D01*
X0015409Y0236171D01*
X0015281Y0236078D01*
X0015151Y0235988D01*
X0015018Y0235902D01*
X0014883Y0235818D01*
X0014747Y0235739D01*
X0014608Y0235662D01*
X0014467Y0235590D01*
X0014325Y0235520D01*
X0014181Y0235455D01*
X0014035Y0235393D01*
X0013888Y0235335D01*
X0013739Y0235280D01*
X0013589Y0235229D01*
X0013438Y0235182D01*
X0013286Y0235139D01*
X0013133Y0235100D01*
X0012978Y0235064D01*
X0012823Y0235033D01*
X0012667Y0235005D01*
X0012511Y0234981D01*
X0012354Y0234961D01*
X0012196Y0234945D01*
X0012039Y0234933D01*
X0011880Y0234925D01*
X0011722Y0234921D01*
X0011564Y0234921D01*
X0011406Y0234925D01*
X0011247Y0234933D01*
X0011090Y0234945D01*
X0010932Y0234961D01*
X0010775Y0234981D01*
X0010619Y0235005D01*
X0010463Y0235033D01*
X0010308Y0235064D01*
X0010153Y0235100D01*
X0010000Y0235139D01*
X0009848Y0235182D01*
X0009697Y0235229D01*
X0009547Y0235280D01*
X0009398Y0235335D01*
X0009251Y0235393D01*
X0009105Y0235455D01*
X0008961Y0235520D01*
X0008819Y0235590D01*
X0008678Y0235662D01*
X0008539Y0235739D01*
X0008403Y0235818D01*
X0008268Y0235902D01*
X0008135Y0235988D01*
X0008005Y0236078D01*
X0007877Y0236171D01*
X0007751Y0236267D01*
X0007628Y0236367D01*
X0007507Y0236469D01*
X0007389Y0236574D01*
X0007274Y0236683D01*
X0007161Y0236794D01*
X0007051Y0236908D01*
X0006944Y0237025D01*
X0006840Y0237144D01*
X0006739Y0237266D01*
X0006642Y0237391D01*
X0006547Y0237518D01*
X0006456Y0237647D01*
X0006367Y0237778D01*
X0006283Y0237912D01*
X0006201Y0238048D01*
X0006123Y0238185D01*
X0006049Y0238325D01*
X0005978Y0238467D01*
X0005910Y0238610D01*
X0005846Y0238755D01*
X0005786Y0238901D01*
X0005730Y0239049D01*
X0005677Y0239198D01*
X0005628Y0239349D01*
X0005583Y0239501D01*
X0005542Y0239654D01*
X0005504Y0239807D01*
X0005471Y0239962D01*
X0005441Y0240118D01*
X0005415Y0240274D01*
X0005394Y0240431D01*
X0005376Y0240588D01*
X0005362Y0240746D01*
X0005352Y0240904D01*
X0005346Y0241062D01*
X0005344Y0241220D01*
M02*
